<?xml version='1.0' encoding='ascii'?>
<svg xmlns="http://www.w3.org/2000/svg" version="1.1" width="1920" height="1080">
    <g id="ViewLayer_LineSet" xmlns:inkscape="http://www.inkscape.org/namespaces/inkscape" inkscape:groupmode="lineset" inkscape:label="ViewLayer_LineSet">
        <g xmlns:inkscape="http://www.inkscape.org/namespaces/inkscape" inkscape:groupmode="layer" id="strokes" inkscape:label="strokes">
            <path fill="none" stroke-width="3.0" stroke-linecap="butt" stroke-opacity="1.0" stroke="rgb(0, 0, 0)" stroke-linejoin="round" d=" M 747.967, 643.289 756.305, 648.809 764.644, 654.329 772.982, 659.849 781.320, 665.369 789.659, 670.889 797.997, 676.409 806.335, 681.930 814.674, 687.450 823.012, 692.970 831.351, 698.490 839.689, 704.010 848.027, 709.530 856.366, 715.050 864.704, 720.570 873.042, 726.090 881.381, 731.610 889.719, 737.130 898.058, 742.651 906.396, 748.171 914.734, 753.691 923.073, 759.211 931.411, 764.731 939.750, 770.251 948.088, 775.771 956.426, 781.291 964.765, 786.811 967.157, 788.395 975.580, 783.005 984.004, 777.616 992.427, 772.226 1000.850, 766.837 1009.274, 761.447 1017.697, 756.058 1026.120, 750.668 1034.544, 745.279 1042.967, 739.889 1051.390, 734.499 1059.814, 729.110 1068.237, 723.720 1076.660, 718.331 1085.084, 712.941 1093.507, 707.552 1101.930, 702.162 1110.354, 696.773 1118.777, 691.383 1127.200, 685.993 1135.624, 680.604 1144.047, 675.214 1152.470, 669.825 1160.894, 664.435 1169.317, 659.046 1177.740, 653.656 1186.164, 648.267 1193.943, 643.289 1193.620, 633.294 1193.297, 623.299 1192.973, 613.305 1192.650, 603.310 1192.327, 593.315 1192.003, 583.320 1191.680, 573.326 1191.356, 563.331 1191.033, 553.336 1190.710, 543.341 1190.386, 533.346 1190.063, 523.352 1189.740, 513.357 1189.416, 503.362 1189.093, 493.367 1188.770, 483.373 1188.446, 473.378 1188.123, 463.383 1187.799, 453.388 1187.476, 443.393 1187.153, 433.399 1186.829, 423.404 1186.506, 413.409 1186.347, 408.501 1178.009, 402.981 1169.670, 397.461 1161.332, 391.941 1152.994, 386.421 1144.655, 380.901 1136.317, 375.380 1127.978, 369.860 1119.640, 364.340 1111.302, 358.820 1102.963, 353.300 1094.625, 347.780 1086.286, 342.260 1077.948, 336.740 1069.610, 331.220 1061.271, 325.700 1052.933, 320.180 1044.595, 314.659 1036.256, 309.139 1027.918, 303.619 1019.579, 298.099 1011.241, 292.579 1002.903, 287.059 994.564, 281.539 986.226, 276.019 977.888, 270.499 969.549, 264.979 967.157, 263.395 958.734, 268.784 950.310, 274.174 941.887, 279.564 933.464, 284.953 925.040, 290.343 916.617, 295.732 908.194, 301.122 899.770, 306.511 891.347, 311.901 882.924, 317.291 874.500, 322.680 866.077, 328.070 857.654, 333.459 849.230, 338.849 840.807, 344.238 832.383, 349.628 823.960, 355.017 815.537, 360.407 807.113, 365.797 798.690, 371.186 790.267, 376.576 781.843, 381.965 773.420, 387.355 764.997, 392.744 756.573, 398.134 748.150, 403.523 740.371, 408.501 740.694, 418.496 741.017, 428.491 741.341, 438.485 741.664, 448.480 741.987, 458.475 742.311, 468.470 742.634, 478.464 742.957, 488.459 743.281, 498.454 743.604, 508.449 743.928, 518.443 744.251, 528.438 744.574, 538.433 744.898, 548.428 745.221, 558.423 745.544, 568.417 745.868, 578.412 746.191, 588.407 746.515, 598.402 746.838, 608.396 747.161, 618.391 747.485, 628.386 747.808, 638.381 747.967, 643.289 " />
            <path fill="none" stroke-width="3.0" stroke-linecap="butt" stroke-opacity="1.0" stroke="rgb(0, 0, 0)" stroke-linejoin="round" d=" M 1095.028, 643.289 1088.417, 650.791 1081.805, 658.294 1075.194, 665.797 1068.583, 673.299 1061.971, 680.802 1055.360, 688.304 1048.748, 695.807 1042.137, 703.309 1035.525, 710.812 1028.914, 718.315 1022.302, 725.817 1015.691, 733.320 1009.079, 740.822 1002.468, 748.325 995.856, 755.827 989.245, 763.330 982.633, 770.833 976.022, 778.335 969.411, 785.838 967.157, 788.395 960.022, 781.388 952.887, 774.381 945.753, 767.375 938.618, 760.368 931.483, 753.361 924.349, 746.354 917.214, 739.347 910.079, 732.340 902.944, 725.334 895.810, 718.327 888.675, 711.320 881.540, 704.313 874.405, 697.306 867.271, 690.300 860.136, 683.293 853.001, 676.286 845.866, 669.279 838.732, 662.272 831.597, 655.265 824.462, 648.259 819.402, 643.289 " />
            <path fill="none" stroke-width="3.0" stroke-linecap="butt" stroke-opacity="1.0" stroke="rgb(0, 0, 0)" stroke-linejoin="round" d=" M 819.402, 643.289 809.402, 643.289 799.402, 643.289 789.402, 643.289 779.402, 643.289 769.402, 643.289 759.402, 643.289 749.402, 643.289 747.967, 643.289 " />
            <path fill="none" stroke-width="3.0" stroke-linecap="butt" stroke-opacity="1.0" stroke="rgb(0, 0, 0)" stroke-linejoin="round" d=" M 1193.943, 643.289 1183.943, 643.289 1173.943, 643.289 1163.943, 643.289 1153.943, 643.289 1143.943, 643.289 1133.943, 643.289 1123.943, 643.289 1113.943, 643.289 1103.943, 643.289 1095.028, 643.289 " />
            <path fill="none" stroke-width="3.0" stroke-linecap="butt" stroke-opacity="1.0" stroke="rgb(0, 0, 0)" stroke-linejoin="round" d=" M 1095.028, 643.289 1085.028, 643.289 1075.028, 643.289 1065.028, 643.289 1055.028, 643.289 1045.028, 643.289 1035.028, 643.289 1025.028, 643.289 1015.028, 643.289 1005.028, 643.289 995.028, 643.289 985.028, 643.289 975.028, 643.289 965.028, 643.289 955.028, 643.289 945.028, 643.289 935.028, 643.289 925.028, 643.289 915.028, 643.289 905.028, 643.289 895.028, 643.289 885.028, 643.289 875.028, 643.289 865.028, 643.289 855.028, 643.289 845.028, 643.289 835.028, 643.289 825.028, 643.289 819.402, 643.289 " />
            <path fill="none" stroke-width="3.0" stroke-linecap="butt" stroke-opacity="1.0" stroke="rgb(0, 0, 0)" stroke-linejoin="round" d=" M 954.870, 408.501 949.873, 417.163 944.875, 425.824 939.878, 434.486 934.880, 443.147 929.882, 451.809 924.885, 460.471 919.887, 469.132 914.889, 477.794 909.892, 486.456 904.894, 495.117 899.897, 503.779 894.899, 512.440 889.901, 521.102 884.904, 529.764 879.906, 538.425 874.909, 547.087 869.911, 555.749 864.913, 564.410 859.916, 573.072 854.918, 581.734 849.920, 590.395 844.923, 599.057 839.925, 607.718 834.928, 616.380 829.930, 625.042 824.932, 633.703 819.402, 643.289 816.211, 633.811 813.021, 624.334 809.831, 614.856 806.641, 605.379 803.451, 595.901 800.260, 586.424 797.070, 576.946 793.880, 567.469 790.690, 557.991 787.500, 548.514 784.310, 539.036 781.119, 529.559 777.929, 520.082 774.739, 510.604 771.549, 501.127 768.359, 491.649 765.169, 482.172 761.978, 472.694 758.788, 463.217 755.598, 453.739 752.408, 444.262 749.218, 434.784 746.027, 425.307 742.837, 415.829 740.371, 408.501 750.371, 408.501 760.371, 408.501 770.371, 408.501 780.371, 408.501 790.371, 408.501 800.371, 408.501 810.371, 408.501 820.371, 408.501 830.371, 408.501 840.371, 408.501 850.371, 408.501 860.371, 408.501 870.371, 408.501 880.371, 408.501 890.371, 408.501 900.371, 408.501 910.371, 408.501 920.371, 408.501 930.371, 408.501 940.371, 408.501 950.371, 408.501 954.870, 408.501 " />
            <path fill="none" stroke-width="3.0" stroke-linecap="butt" stroke-opacity="1.0" stroke="rgb(0, 0, 0)" stroke-linejoin="round" d=" M 967.157, 263.395 966.313, 273.359 965.470, 283.324 964.626, 293.288 963.782, 303.252 962.938, 313.217 962.095, 323.181 961.251, 333.145 960.407, 343.110 959.564, 353.074 958.720, 363.038 957.876, 373.003 957.032, 382.967 956.189, 392.931 955.345, 402.896 954.870, 408.501 964.870, 408.501 974.870, 408.501 984.870, 408.501 994.870, 408.501 1004.870, 408.501 1014.870, 408.501 1024.870, 408.501 1034.870, 408.501 1044.870, 408.501 1054.870, 408.501 1064.870, 408.501 1074.870, 408.501 1084.870, 408.501 1094.870, 408.501 1104.870, 408.501 1114.870, 408.501 1124.870, 408.501 1134.870, 408.501 1144.870, 408.501 1154.870, 408.501 1164.870, 408.501 1174.870, 408.501 1186.347, 408.501 1182.722, 417.821 1179.097, 427.141 1175.472, 436.461 1171.848, 445.781 1168.223, 455.100 1164.598, 464.420 1160.973, 473.740 1157.348, 483.060 1153.723, 492.380 1150.098, 501.700 1146.473, 511.020 1142.849, 520.340 1139.224, 529.659 1135.599, 538.979 1131.974, 548.299 1128.349, 557.619 1124.724, 566.939 1121.099, 576.259 1117.474, 585.579 1113.849, 594.899 1110.224, 604.219 1106.600, 613.538 1102.975, 622.858 1099.350, 632.178 1095.028, 643.289 1089.903, 634.702 1084.777, 626.116 1079.651, 617.530 1074.526, 608.943 1069.400, 600.357 1064.274, 591.770 1059.148, 583.184 1054.023, 574.597 1048.897, 566.011 1043.771, 557.424 1038.645, 548.838 1033.520, 540.252 1028.394, 531.665 1023.268, 523.079 1018.143, 514.492 1013.017, 505.906 1007.891, 497.319 1002.765, 488.733 997.640, 480.146 992.514, 471.560 987.388, 462.974 982.262, 454.387 977.137, 445.801 972.011, 437.214 966.885, 428.628 961.760, 420.041 956.634, 411.455 954.870, 408.501 " />
        </g>
    </g>
</svg>
