<?xml version='1.0' encoding='ascii'?>
<svg xmlns="http://www.w3.org/2000/svg" version="1.1" width="1920" height="1080">
    <g id="ViewLayer_LineSet" xmlns:inkscape="http://www.inkscape.org/namespaces/inkscape" inkscape:groupmode="lineset" inkscape:label="ViewLayer_LineSet">
        <g xmlns:inkscape="http://www.inkscape.org/namespaces/inkscape" inkscape:groupmode="layer" id="strokes" inkscape:label="strokes">
            <path fill="none" stroke-width="3.0" stroke-linecap="butt" stroke-opacity="1.0" stroke="rgb(0, 0, 0)" stroke-linejoin="round" d=" M 776.579, 643.289 784.526, 649.360 792.472, 655.430 800.419, 661.501 808.365, 667.571 816.312, 673.642 824.258, 679.713 832.205, 685.783 840.151, 691.854 848.098, 697.925 856.044, 703.995 863.991, 710.066 871.938, 716.137 879.884, 722.207 887.831, 728.278 895.777, 734.349 903.724, 740.419 911.670, 746.490 919.617, 752.561 927.563, 758.631 935.510, 764.702 943.456, 770.772 951.403, 776.843 959.349, 782.914 966.524, 788.395 975.031, 783.138 983.537, 777.880 992.044, 772.623 1000.550, 767.366 1009.057, 762.108 1017.563, 756.851 1026.070, 751.594 1034.576, 746.336 1043.083, 741.079 1051.589, 735.822 1060.096, 730.565 1068.602, 725.307 1077.109, 720.050 1085.615, 714.793 1094.122, 709.535 1102.628, 704.278 1111.135, 699.021 1119.641, 693.763 1128.148, 688.506 1136.654, 683.249 1145.161, 677.991 1153.667, 672.734 1162.174, 667.477 1170.680, 662.220 1179.187, 656.962 1187.693, 651.705 1196.200, 646.448 1201.311, 643.289 1199.435, 633.466 1197.559, 623.644 1195.683, 613.822 1193.807, 603.999 1191.931, 594.177 1190.055, 584.354 1188.179, 574.532 1186.303, 564.709 1184.427, 554.887 1182.551, 545.064 1180.675, 535.242 1178.799, 525.419 1176.923, 515.597 1175.047, 505.774 1173.171, 495.952 1171.295, 486.130 1169.419, 476.307 1167.543, 466.485 1165.667, 456.662 1163.792, 446.840 1161.916, 437.017 1160.040, 427.195 1158.164, 417.372 1156.469, 408.501 1148.523, 402.430 1140.576, 396.360 1132.630, 390.289 1124.683, 384.218 1116.737, 378.148 1108.790, 372.077 1100.844, 366.007 1092.897, 359.936 1084.951, 353.865 1077.004, 347.795 1069.057, 341.724 1061.111, 335.653 1053.164, 329.583 1045.218, 323.512 1037.271, 317.441 1029.325, 311.371 1021.378, 305.300 1013.432, 299.229 1005.485, 293.159 997.539, 287.088 989.592, 281.017 981.646, 274.947 973.699, 268.876 966.524, 263.395 958.018, 268.652 949.511, 273.910 941.005, 279.167 932.498, 284.424 923.992, 289.682 915.485, 294.939 906.979, 300.196 898.472, 305.453 889.966, 310.711 881.459, 315.968 872.953, 321.225 864.446, 326.483 855.940, 331.740 847.433, 336.997 838.927, 342.255 830.420, 347.512 821.914, 352.769 813.407, 358.027 804.901, 363.284 796.394, 368.541 787.888, 373.798 779.381, 379.056 770.875, 384.313 762.368, 389.570 753.862, 394.828 745.355, 400.085 736.849, 405.342 731.738, 408.501 733.614, 418.323 735.490, 428.146 737.366, 437.968 739.242, 447.791 741.118, 457.613 742.993, 467.436 744.869, 477.258 746.745, 487.081 748.621, 496.903 750.497, 506.726 752.373, 516.548 754.249, 526.371 756.125, 536.193 758.001, 546.016 759.877, 555.838 761.753, 565.660 763.629, 575.483 765.505, 585.305 767.381, 595.128 769.257, 604.950 771.133, 614.773 773.009, 624.595 774.885, 634.418 776.579, 643.289 " />
            <path fill="none" stroke-width="3.0" stroke-linecap="butt" stroke-opacity="1.0" stroke="rgb(0, 0, 0)" stroke-linejoin="round" d=" M 1156.469, 408.501 1158.345, 418.323 1160.221, 428.146 1162.097, 437.968 1163.973, 447.791 1165.849, 457.613 1167.725, 467.436 1169.601, 477.258 1171.477, 487.081 1173.353, 496.903 1175.229, 506.726 1177.105, 516.548 1178.981, 526.370 1180.857, 536.193 1182.733, 546.015 1184.609, 555.838 1186.485, 565.660 1188.361, 575.483 1190.237, 585.305 1192.113, 595.128 1193.989, 604.950 1195.865, 614.773 1197.740, 624.595 1199.616, 634.418 1201.311, 643.289 1191.311, 643.289 1181.311, 643.289 1171.311, 643.289 1161.311, 643.289 1151.311, 643.289 1141.311, 643.289 1131.311, 643.289 1121.311, 643.289 1111.311, 643.289 1101.311, 643.289 1091.311, 643.289 1081.311, 643.289 1071.311, 643.289 1061.311, 643.289 1051.311, 643.289 1041.311, 643.289 1039.075, 643.289 " />
            <path fill="none" stroke-width="3.0" stroke-linecap="butt" stroke-opacity="1.0" stroke="rgb(0, 0, 0)" stroke-linejoin="round" d=" M 1039.075, 643.289 1034.603, 652.233 1030.131, 661.177 1025.659, 670.122 1021.187, 679.066 1016.715, 688.010 1012.243, 696.955 1007.771, 705.899 1003.299, 714.843 998.827, 723.788 994.355, 732.732 989.883, 741.676 985.411, 750.621 980.939, 759.565 976.467, 768.509 971.995, 777.454 967.523, 786.398 966.524, 788.395 " />
            <path fill="none" stroke-width="3.0" stroke-linecap="butt" stroke-opacity="1.0" stroke="rgb(0, 0, 0)" stroke-linejoin="round" d=" M 1039.075, 643.289 1029.075, 643.289 1019.075, 643.289 1009.075, 643.289 999.075, 643.289 989.075, 643.289 979.075, 643.289 969.075, 643.289 959.075, 643.289 949.075, 643.289 939.075, 643.289 929.075, 643.289 919.075, 643.289 909.075, 643.289 899.075, 643.289 889.075, 643.289 879.075, 643.289 869.075, 643.289 859.075, 643.289 849.075, 643.289 839.075, 643.289 829.075, 643.289 819.075, 643.289 809.075, 643.289 799.075, 643.289 789.075, 643.289 776.579, 643.289 781.051, 634.345 785.523, 625.400 789.996, 616.456 794.468, 607.512 798.940, 598.568 803.412, 589.623 807.884, 580.679 812.356, 571.735 816.828, 562.790 821.301, 553.846 825.773, 544.902 830.245, 535.958 834.717, 527.013 839.189, 518.069 843.661, 509.125 848.133, 500.180 852.606, 491.236 857.078, 482.292 861.550, 473.348 866.022, 464.403 870.494, 455.459 874.966, 446.515 879.438, 437.571 883.910, 428.626 888.383, 419.682 893.973, 408.501 " />
            <path fill="none" stroke-width="3.0" stroke-linecap="butt" stroke-opacity="1.0" stroke="rgb(0, 0, 0)" stroke-linejoin="round" d=" M 1156.469, 408.501 1151.997, 417.445 1147.525, 426.390 1143.053, 435.334 1138.581, 444.278 1134.109, 453.222 1129.636, 462.167 1125.164, 471.111 1120.692, 480.055 1116.220, 488.999 1111.748, 497.944 1107.276, 506.888 1102.804, 515.832 1098.331, 524.776 1093.859, 533.721 1089.387, 542.665 1084.915, 551.609 1080.443, 560.554 1075.971, 569.498 1071.499, 578.442 1067.026, 587.386 1062.554, 596.331 1058.082, 605.275 1053.610, 614.219 1049.138, 623.164 1044.666, 632.108 1039.075, 643.289 1033.818, 634.782 1028.561, 626.276 1023.304, 617.769 1018.047, 609.263 1012.789, 600.756 1007.532, 592.249 1002.275, 583.743 997.018, 575.236 991.761, 566.730 986.503, 558.223 981.246, 549.716 975.989, 541.210 970.732, 532.703 965.475, 524.197 960.217, 515.690 954.960, 507.184 949.703, 498.677 944.446, 490.170 939.189, 481.664 933.932, 473.157 928.674, 464.651 923.417, 456.144 918.160, 447.637 912.903, 439.131 907.646, 430.624 902.388, 422.118 897.131, 413.611 893.973, 408.501 " />
            <path fill="none" stroke-width="3.0" stroke-linecap="butt" stroke-opacity="1.0" stroke="rgb(0, 0, 0)" stroke-linejoin="round" d=" M 1156.469, 408.501 1156.469, 408.501 " />
            <path fill="none" stroke-width="3.0" stroke-linecap="butt" stroke-opacity="1.0" stroke="rgb(0, 0, 0)" stroke-linejoin="round" d=" M 731.738, 408.501 741.738, 408.501 751.738, 408.501 761.738, 408.501 771.738, 408.501 781.738, 408.501 791.738, 408.501 801.738, 408.501 811.738, 408.501 821.738, 408.501 831.738, 408.501 841.738, 408.501 851.738, 408.501 861.738, 408.501 871.738, 408.501 881.738, 408.501 891.738, 408.501 893.973, 408.501 898.445, 399.557 902.917, 390.612 907.389, 381.668 911.861, 372.724 916.333, 363.779 920.805, 354.835 925.277, 345.891 929.749, 336.946 934.221, 328.002 938.694, 319.058 943.166, 310.113 947.638, 301.169 952.110, 292.225 956.582, 283.281 961.054, 274.336 965.526, 265.392 966.524, 263.395 974.471, 269.466 982.417, 275.536 990.364, 281.607 998.310, 287.678 1006.257, 293.748 1014.203, 299.819 1022.150, 305.889 1030.096, 311.960 1038.043, 318.031 1045.990, 324.101 1053.936, 330.172 1061.883, 336.243 1069.829, 342.313 1077.776, 348.384 1085.722, 354.455 1093.669, 360.525 1101.615, 366.596 1109.562, 372.667 1117.508, 378.737 1125.455, 384.808 1133.401, 390.879 1141.348, 396.949 1149.294, 403.020 1156.469, 408.501 1146.469, 408.501 1136.469, 408.501 1126.469, 408.501 1116.469, 408.501 1106.469, 408.501 1096.469, 408.501 1086.469, 408.501 1076.469, 408.501 1066.469, 408.501 1056.469, 408.501 1046.469, 408.501 1036.469, 408.501 1026.469, 408.501 1016.469, 408.501 1006.469, 408.501 996.469, 408.501 986.469, 408.501 976.469, 408.501 966.469, 408.501 956.469, 408.501 946.469, 408.501 936.469, 408.501 926.469, 408.501 916.469, 408.501 906.469, 408.501 893.973, 408.501 " />
        </g>
    </g>
</svg>
