<?xml version='1.0' encoding='ascii'?>
<svg xmlns="http://www.w3.org/2000/svg" version="1.1" width="1920" height="1080">
    <g id="ViewLayer_LineSet" xmlns:inkscape="http://www.inkscape.org/namespaces/inkscape" inkscape:groupmode="lineset" inkscape:label="ViewLayer_LineSet">
        <g xmlns:inkscape="http://www.inkscape.org/namespaces/inkscape" inkscape:groupmode="layer" id="strokes" inkscape:label="strokes">
            <path fill="none" stroke-width="3.0" stroke-linecap="butt" stroke-opacity="1.0" stroke="rgb(0, 0, 0)" stroke-linejoin="round" d=" M 958.496, 788.395 966.999, 783.132 975.502, 777.870 984.005, 772.607 992.509, 767.345 1001.012, 762.082 1009.515, 756.819 1018.019, 751.557 1026.522, 746.294 1035.025, 741.032 1043.528, 735.769 1052.032, 730.507 1060.535, 725.244 1069.038, 719.981 1077.541, 714.719 1086.045, 709.456 1094.548, 704.194 1103.051, 698.931 1111.554, 693.669 1120.058, 688.406 1128.561, 683.143 1137.064, 677.881 1145.567, 672.618 1154.071, 667.356 1162.574, 662.093 1171.077, 656.831 1179.580, 651.568 1188.084, 646.305 1192.958, 643.289 1191.378, 633.414 1189.799, 623.540 1188.219, 613.665 1186.640, 603.791 1185.061, 593.916 1183.481, 584.042 1181.902, 574.167 1180.322, 564.293 1178.743, 554.418 1177.163, 544.544 1175.584, 534.669 1174.004, 524.795 1172.425, 514.921 1170.845, 505.046 1169.266, 495.172 1167.687, 485.297 1166.107, 475.423 1164.528, 465.548 1162.948, 455.674 1161.369, 445.799 1159.789, 435.925 1158.210, 426.050 1156.630, 416.176 1155.403, 408.501 1147.352, 402.568 1139.302, 396.636 1131.252, 390.704 1123.202, 384.771 1115.151, 378.839 1107.101, 372.906 1099.051, 366.974 1091.001, 361.041 1082.951, 355.109 1074.900, 349.177 1066.850, 343.244 1058.800, 337.312 1050.750, 331.379 1042.699, 325.447 1034.649, 319.514 1026.599, 313.582 1018.549, 307.649 1010.499, 301.717 1002.448, 295.785 994.398, 289.852 986.348, 283.920 978.298, 277.987 970.247, 272.055 962.197, 266.122 958.496, 263.395 949.993, 268.657 941.489, 273.920 932.986, 279.182 924.483, 284.445 915.979, 289.708 907.476, 294.970 898.973, 300.233 890.470, 305.495 881.966, 310.758 873.463, 316.021 864.960, 321.283 856.457, 326.546 847.953, 331.808 839.450, 337.071 830.947, 342.333 822.444, 347.596 813.940, 352.859 805.437, 358.121 796.934, 363.384 788.431, 368.646 779.927, 373.909 771.424, 379.171 762.921, 384.434 754.418, 389.697 745.914, 394.959 737.411, 400.222 728.908, 405.484 724.034, 408.501 725.613, 418.375 727.193, 428.250 728.772, 438.124 730.352, 447.999 731.931, 457.873 733.510, 467.748 735.090, 477.622 736.669, 487.497 738.249, 497.371 739.828, 507.246 741.408, 517.120 742.987, 526.995 744.567, 536.869 746.146, 546.744 747.726, 556.618 749.305, 566.492 750.885, 576.367 752.464, 586.241 754.043, 596.116 755.623, 605.990 757.202, 615.865 758.782, 625.739 760.361, 635.614 761.589, 643.289 769.639, 649.221 777.689, 655.154 785.740, 661.086 793.790, 667.018 801.840, 672.951 809.890, 678.883 817.940, 684.816 825.991, 690.748 834.041, 696.681 842.091, 702.613 850.141, 708.546 858.192, 714.478 866.242, 720.410 874.292, 726.343 882.342, 732.275 890.393, 738.208 898.443, 744.140 906.493, 750.073 914.543, 756.005 922.594, 761.937 930.644, 767.870 938.694, 773.802 946.744, 779.735 954.794, 785.667 958.496, 788.395 " />
            <path fill="none" stroke-width="3.0" stroke-linecap="butt" stroke-opacity="1.0" stroke="rgb(0, 0, 0)" stroke-linejoin="round" d=" M 1140.956, 408.501 1143.119, 418.264 1145.281, 428.028 1147.444, 437.791 1149.606, 447.554 1151.768, 457.318 1153.931, 467.081 1156.093, 476.845 1158.256, 486.608 1160.418, 496.371 1162.581, 506.135 1164.743, 515.898 1166.906, 525.662 1169.068, 535.425 1171.230, 545.188 1173.393, 554.952 1175.555, 564.715 1177.718, 574.479 1179.880, 584.242 1182.042, 594.005 1184.205, 603.769 1186.367, 613.532 1188.530, 623.296 1190.692, 633.059 1192.958, 643.289 1182.958, 643.289 1172.958, 643.289 1162.958, 643.289 1152.958, 643.289 1142.958, 643.289 1132.958, 643.289 1122.958, 643.289 1112.958, 643.289 1102.958, 643.289 1092.958, 643.289 1082.958, 643.289 1072.958, 643.289 1062.958, 643.289 1052.958, 643.289 1042.958, 643.289 1032.958, 643.289 1022.958, 643.289 1019.263, 643.289 " />
            <path fill="none" stroke-width="3.0" stroke-linecap="butt" stroke-opacity="1.0" stroke="rgb(0, 0, 0)" stroke-linejoin="round" d=" M 1019.263, 643.289 1015.400, 652.513 1011.537, 661.736 1007.675, 670.960 1003.812, 680.184 999.949, 689.408 996.087, 698.632 992.224, 707.856 988.361, 717.079 984.498, 726.303 980.636, 735.527 976.773, 744.751 972.910, 753.975 969.047, 763.199 965.185, 772.423 961.322, 781.646 958.496, 788.395 " />
            <path fill="none" stroke-width="3.0" stroke-linecap="butt" stroke-opacity="1.0" stroke="rgb(0, 0, 0)" stroke-linejoin="round" d=" M 1019.263, 643.289 1009.263, 643.289 999.263, 643.289 989.263, 643.289 979.263, 643.289 969.263, 643.289 959.263, 643.289 949.263, 643.289 939.263, 643.289 929.263, 643.289 919.263, 643.289 909.263, 643.289 899.263, 643.289 889.263, 643.289 879.263, 643.289 869.263, 643.289 859.263, 643.289 849.263, 643.289 839.263, 643.289 829.263, 643.289 819.263, 643.289 809.263, 643.289 799.263, 643.289 789.263, 643.289 779.263, 643.289 769.263, 643.289 761.589, 643.289 765.918, 634.275 770.248, 625.260 774.577, 616.246 778.907, 607.232 783.237, 598.218 787.566, 589.204 791.896, 580.190 796.225, 571.175 800.555, 562.161 804.884, 553.147 809.214, 544.133 813.543, 535.119 817.873, 526.105 822.202, 517.090 826.532, 508.076 830.861, 499.062 835.191, 490.048 839.520, 481.034 843.850, 472.020 848.179, 463.005 852.509, 453.991 856.838, 444.977 861.168, 435.963 865.497, 426.949 869.827, 417.935 874.358, 408.501 " />
            <path fill="none" stroke-width="3.0" stroke-linecap="butt" stroke-opacity="1.0" stroke="rgb(0, 0, 0)" stroke-linejoin="round" d=" M 1140.956, 408.501 1136.355, 417.379 1131.753, 426.257 1127.151, 435.136 1122.549, 444.014 1117.948, 452.892 1113.346, 461.771 1108.744, 470.649 1104.143, 479.527 1099.541, 488.406 1094.939, 497.284 1090.337, 506.162 1085.736, 515.040 1081.134, 523.919 1076.532, 532.797 1071.930, 541.675 1067.329, 550.554 1062.727, 559.432 1058.125, 568.310 1053.524, 577.188 1048.922, 586.067 1044.320, 594.945 1039.718, 603.823 1035.117, 612.702 1030.515, 621.580 1025.913, 630.458 1021.311, 639.337 1019.263, 643.289 1014.011, 634.779 1008.759, 626.269 1003.507, 617.759 998.255, 609.250 993.003, 600.740 987.751, 592.230 982.499, 583.720 977.247, 575.211 971.995, 566.701 966.743, 558.191 961.491, 549.681 956.239, 541.171 950.987, 532.662 945.735, 524.152 940.483, 515.642 935.231, 507.132 929.979, 498.622 924.727, 490.113 919.475, 481.603 914.223, 473.093 908.971, 464.583 903.719, 456.074 898.467, 447.564 893.215, 439.054 887.963, 430.544 882.711, 422.034 877.459, 413.525 874.358, 408.501 " />
            <path fill="none" stroke-width="3.0" stroke-linecap="butt" stroke-opacity="1.0" stroke="rgb(0, 0, 0)" stroke-linejoin="round" d=" M 1155.403, 408.501 1145.403, 408.501 1140.956, 408.501 " />
            <path fill="none" stroke-width="3.0" stroke-linecap="butt" stroke-opacity="1.0" stroke="rgb(0, 0, 0)" stroke-linejoin="round" d=" M 724.034, 408.501 734.034, 408.501 744.034, 408.501 754.034, 408.501 764.034, 408.501 774.034, 408.501 784.034, 408.501 794.034, 408.501 804.034, 408.501 814.034, 408.501 824.034, 408.501 834.034, 408.501 844.034, 408.501 854.034, 408.501 864.034, 408.501 874.358, 408.501 879.374, 399.850 884.390, 391.199 889.406, 382.548 894.422, 373.897 899.439, 365.246 904.455, 356.595 909.471, 347.944 914.487, 339.293 919.503, 330.643 924.519, 321.992 929.535, 313.341 934.551, 304.690 939.568, 296.039 944.584, 287.388 949.600, 278.737 954.616, 270.086 958.496, 263.395 966.323, 269.619 974.149, 275.844 981.976, 282.068 989.803, 288.292 997.629, 294.517 1005.456, 300.741 1013.283, 306.965 1021.109, 313.190 1028.936, 319.414 1036.763, 325.638 1044.589, 331.863 1052.416, 338.087 1060.243, 344.312 1068.070, 350.536 1075.896, 356.760 1083.723, 362.985 1091.550, 369.209 1099.376, 375.433 1107.203, 381.658 1115.030, 387.882 1122.856, 394.107 1130.683, 400.331 1138.510, 406.555 1140.956, 408.501 1130.956, 408.501 1120.956, 408.501 1110.956, 408.501 1100.956, 408.501 1090.956, 408.501 1080.956, 408.501 1070.956, 408.501 1060.956, 408.501 1050.956, 408.501 1040.956, 408.501 1030.956, 408.501 1020.956, 408.501 1010.956, 408.501 1000.956, 408.501 990.956, 408.501 980.956, 408.501 970.956, 408.501 960.956, 408.501 950.956, 408.501 940.956, 408.501 930.956, 408.501 920.956, 408.501 910.956, 408.501 900.956, 408.501 890.956, 408.501 880.956, 408.501 874.358, 408.501 " />
        </g>
    </g>
</svg>
