<?xml version='1.0' encoding='ascii'?>
<svg xmlns="http://www.w3.org/2000/svg" version="1.1" width="1920" height="1080">
    <g id="ViewLayer_LineSet" xmlns:inkscape="http://www.inkscape.org/namespaces/inkscape" inkscape:groupmode="lineset" inkscape:label="ViewLayer_LineSet">
        <g xmlns:inkscape="http://www.inkscape.org/namespaces/inkscape" inkscape:groupmode="layer" id="strokes" inkscape:label="strokes">
            <path fill="none" stroke-width="3.0" stroke-linecap="butt" stroke-opacity="1.0" stroke="rgb(0, 0, 0)" stroke-linejoin="round" d=" M 746.256, 643.288 754.594, 648.808 762.933, 654.328 771.271, 659.848 779.609, 665.368 787.948, 670.889 796.286, 676.409 804.625, 681.929 812.963, 687.449 821.301, 692.969 829.640, 698.489 837.978, 704.009 846.317, 709.529 854.655, 715.049 862.993, 720.569 871.332, 726.090 879.670, 731.610 888.008, 737.130 896.347, 742.650 904.685, 748.170 913.024, 753.690 921.362, 759.210 929.700, 764.730 938.039, 770.250 946.377, 775.770 954.715, 781.290 963.054, 786.810 965.446, 788.394 973.870, 783.005 982.293, 777.615 990.716, 772.226 999.140, 766.836 1007.563, 761.446 1015.986, 756.057 1024.410, 750.667 1032.833, 745.278 1041.256, 739.888 1049.680, 734.499 1058.103, 729.109 1066.526, 723.720 1074.950, 718.330 1083.373, 712.940 1091.796, 707.551 1100.220, 702.161 1108.643, 696.772 1117.066, 691.382 1125.490, 685.993 1133.913, 680.603 1142.336, 675.214 1150.760, 669.824 1159.183, 664.434 1167.606, 659.045 1176.030, 653.655 1184.453, 648.266 1192.233, 643.288 1191.909, 633.293 1191.586, 623.299 1191.262, 613.304 1190.939, 603.309 1190.616, 593.314 1190.292, 583.320 1189.969, 573.325 1189.646, 563.330 1189.322, 553.335 1188.999, 543.340 1188.676, 533.346 1188.352, 523.351 1188.029, 513.356 1187.705, 503.361 1187.382, 493.367 1187.059, 483.372 1186.735, 473.377 1186.412, 463.382 1186.089, 453.388 1185.765, 443.393 1185.442, 433.398 1185.119, 423.403 1184.795, 413.408 1184.636, 408.500 1176.298, 402.980 1167.960, 397.460 1159.621, 391.940 1151.283, 386.420 1142.944, 380.900 1134.606, 375.380 1126.268, 369.860 1117.929, 364.340 1109.591, 358.819 1101.253, 353.299 1092.914, 347.779 1084.576, 342.259 1076.237, 336.739 1067.899, 331.219 1059.561, 325.699 1051.222, 320.179 1042.884, 314.659 1034.546, 309.139 1026.207, 303.619 1017.869, 298.098 1009.530, 292.578 1001.192, 287.058 992.854, 281.538 984.515, 276.018 976.177, 270.498 967.838, 264.978 965.446, 263.394 957.023, 268.784 948.599, 274.173 940.176, 279.563 931.753, 284.952 923.329, 290.342 914.906, 295.732 906.483, 301.121 898.059, 306.511 889.636, 311.900 881.213, 317.290 872.789, 322.679 864.366, 328.069 855.943, 333.458 847.519, 338.848 839.096, 344.238 830.673, 349.627 822.249, 355.017 813.826, 360.406 805.403, 365.796 796.979, 371.185 788.556, 376.575 780.133, 381.964 771.709, 387.354 763.286, 392.744 754.863, 398.133 746.439, 403.523 738.660, 408.500 738.983, 418.495 739.306, 428.490 739.630, 438.485 739.953, 448.479 740.277, 458.474 740.600, 468.469 740.923, 478.464 741.247, 488.458 741.570, 498.453 741.893, 508.448 742.217, 518.443 742.540, 528.438 742.863, 538.432 743.187, 548.427 743.510, 558.422 743.834, 568.417 744.157, 578.411 744.480, 588.406 744.804, 598.401 745.127, 608.396 745.450, 618.390 745.774, 628.385 746.097, 638.380 746.256, 643.288 " />
            <path fill="none" stroke-width="3.0" stroke-linecap="butt" stroke-opacity="1.0" stroke="rgb(0, 0, 0)" stroke-linejoin="round" d=" M 1113.201, 408.500 1116.392, 417.978 1119.582, 427.455 1122.772, 436.933 1125.962, 446.410 1129.152, 455.888 1132.343, 465.365 1135.533, 474.843 1138.723, 484.320 1141.913, 493.798 1145.103, 503.275 1148.293, 512.753 1151.484, 522.230 1154.674, 531.708 1157.864, 541.185 1161.054, 550.663 1164.244, 560.140 1167.435, 569.618 1170.625, 579.095 1173.815, 588.573 1177.005, 598.050 1180.195, 607.527 1183.385, 617.005 1186.576, 626.482 1189.766, 635.960 1192.233, 643.288 1182.233, 643.288 1172.233, 643.288 1162.233, 643.288 1152.233, 643.288 1142.233, 643.288 1132.233, 643.288 1122.233, 643.288 1112.233, 643.288 1102.233, 643.288 1092.233, 643.288 1082.233, 643.288 1072.233, 643.288 1062.233, 643.288 1052.233, 643.288 1042.233, 643.288 1032.233, 643.288 1022.233, 643.288 1012.233, 643.288 1002.233, 643.288 992.233, 643.288 982.233, 643.288 977.733, 643.288 " />
            <path fill="none" stroke-width="3.0" stroke-linecap="butt" stroke-opacity="1.0" stroke="rgb(0, 0, 0)" stroke-linejoin="round" d=" M 977.733, 643.288 976.889, 653.253 976.045, 663.217 975.201, 673.181 974.358, 683.146 973.514, 693.110 972.670, 703.074 971.827, 713.039 970.983, 723.003 970.139, 732.967 969.296, 742.932 968.452, 752.896 967.608, 762.860 966.764, 772.825 965.921, 782.789 965.446, 788.394 " />
            <path fill="none" stroke-width="3.0" stroke-linecap="butt" stroke-opacity="1.0" stroke="rgb(0, 0, 0)" stroke-linejoin="round" d=" M 977.733, 643.288 967.733, 643.288 957.733, 643.288 947.733, 643.288 937.733, 643.288 927.733, 643.288 917.733, 643.288 907.733, 643.288 897.733, 643.288 887.733, 643.288 877.733, 643.288 867.733, 643.288 857.733, 643.288 847.733, 643.288 837.733, 643.288 827.733, 643.288 817.733, 643.288 807.733, 643.288 797.733, 643.288 787.733, 643.288 777.733, 643.288 767.733, 643.288 757.733, 643.288 746.256, 643.288 749.881, 633.968 753.506, 624.648 757.131, 615.328 760.755, 606.009 764.380, 596.689 768.005, 587.369 771.630, 578.049 775.255, 568.729 778.880, 559.409 782.505, 550.089 786.130, 540.769 789.755, 531.450 793.379, 522.130 797.004, 512.810 800.629, 503.490 804.254, 494.170 807.879, 484.850 811.504, 475.530 815.129, 466.210 818.754, 456.891 822.379, 447.571 826.003, 438.251 829.628, 428.931 833.253, 419.611 837.575, 408.500 " />
            <path fill="none" stroke-width="3.0" stroke-linecap="butt" stroke-opacity="1.0" stroke="rgb(0, 0, 0)" stroke-linejoin="round" d=" M 1113.201, 408.500 1108.204, 417.162 1103.206, 425.824 1098.209, 434.485 1093.211, 443.147 1088.213, 451.808 1083.216, 460.470 1078.218, 469.132 1073.220, 477.793 1068.223, 486.455 1063.225, 495.117 1058.228, 503.778 1053.230, 512.440 1048.232, 521.101 1043.235, 529.763 1038.237, 538.425 1033.240, 547.086 1028.242, 555.748 1023.244, 564.410 1018.247, 573.071 1013.249, 581.733 1008.251, 590.394 1003.254, 599.056 998.256, 607.718 993.259, 616.379 988.261, 625.041 983.263, 633.703 977.733, 643.288 972.607, 634.702 967.481, 626.115 962.355, 617.529 957.230, 608.942 952.104, 600.356 946.978, 591.770 941.852, 583.183 936.727, 574.597 931.601, 566.010 926.475, 557.424 921.350, 548.837 916.224, 540.251 911.098, 531.664 905.972, 523.078 900.847, 514.492 895.721, 505.905 890.595, 497.319 885.470, 488.732 880.344, 480.146 875.218, 471.559 870.092, 462.973 864.967, 454.386 859.841, 445.800 854.715, 437.214 849.589, 428.627 844.464, 420.041 839.338, 411.454 837.575, 408.500 " />
            <path fill="none" stroke-width="3.0" stroke-linecap="butt" stroke-opacity="1.0" stroke="rgb(0, 0, 0)" stroke-linejoin="round" d=" M 1184.636, 408.500 1174.636, 408.500 1164.636, 408.500 1154.636, 408.500 1144.636, 408.500 1134.636, 408.500 1124.636, 408.500 1114.636, 408.500 1113.201, 408.500 " />
            <path fill="none" stroke-width="3.0" stroke-linecap="butt" stroke-opacity="1.0" stroke="rgb(0, 0, 0)" stroke-linejoin="round" d=" M 738.660, 408.500 748.660, 408.500 758.660, 408.500 768.660, 408.500 778.660, 408.500 788.660, 408.500 798.660, 408.500 808.660, 408.500 818.660, 408.500 828.660, 408.500 837.575, 408.500 844.186, 400.998 850.798, 393.495 857.409, 385.993 864.021, 378.490 870.632, 370.987 877.243, 363.485 883.855, 355.982 890.466, 348.480 897.078, 340.977 903.689, 333.475 910.301, 325.972 916.912, 318.469 923.524, 310.967 930.135, 303.464 936.747, 295.962 943.358, 288.459 949.970, 280.957 956.581, 273.454 963.193, 265.952 965.446, 263.394 972.581, 270.401 979.716, 277.408 986.850, 284.415 993.985, 291.421 1001.120, 298.428 1008.255, 305.435 1015.389, 312.442 1022.524, 319.449 1029.659, 326.456 1036.794, 333.462 1043.928, 340.469 1051.063, 347.476 1058.198, 354.483 1065.333, 361.490 1072.467, 368.496 1079.602, 375.503 1086.737, 382.510 1093.871, 389.517 1101.006, 396.524 1108.141, 403.531 1113.201, 408.500 1103.201, 408.500 1093.201, 408.500 1083.201, 408.500 1073.201, 408.500 1063.201, 408.500 1053.201, 408.500 1043.201, 408.500 1033.201, 408.500 1023.201, 408.500 1013.201, 408.500 1003.201, 408.500 993.201, 408.500 983.201, 408.500 973.201, 408.500 963.201, 408.500 953.201, 408.500 943.201, 408.500 933.201, 408.500 923.201, 408.500 913.201, 408.500 903.201, 408.500 893.201, 408.500 883.201, 408.500 873.201, 408.500 863.201, 408.500 853.201, 408.500 843.201, 408.500 837.575, 408.500 " />
        </g>
    </g>
</svg>
