<?xml version='1.0' encoding='ascii'?>
<svg xmlns="http://www.w3.org/2000/svg" version="1.1" width="1920" height="1080">
    <g id="ViewLayer_LineSet" xmlns:inkscape="http://www.inkscape.org/namespaces/inkscape" inkscape:groupmode="lineset" inkscape:label="ViewLayer_LineSet">
        <g xmlns:inkscape="http://www.inkscape.org/namespaces/inkscape" inkscape:groupmode="layer" id="strokes" inkscape:label="strokes">
            <path fill="none" stroke-width="3.0" stroke-linecap="butt" stroke-opacity="1.0" stroke="rgb(0, 0, 0)" stroke-linejoin="round" d=" M 963.306, 788.395 956.415, 781.149 949.523, 773.903 942.632, 766.656 935.740, 759.410 928.849, 752.164 921.957, 744.918 915.066, 737.671 908.174, 730.425 901.283, 723.179 894.391, 715.933 887.500, 708.686 880.609, 701.440 873.717, 694.194 866.826, 686.948 859.934, 679.702 853.043, 672.455 846.151, 665.209 839.260, 657.963 832.368, 650.717 825.304, 643.289 " />
            <path fill="none" stroke-width="3.0" stroke-linecap="butt" stroke-opacity="1.0" stroke="rgb(0, 0, 0)" stroke-linejoin="round" d=" M 825.304, 643.289 815.304, 643.289 805.304, 643.289 795.304, 643.289 785.304, 643.289 775.304, 643.289 765.304, 643.289 755.304, 643.289 745.304, 643.289 740.013, 643.289 " />
            <path fill="none" stroke-width="3.0" stroke-linecap="butt" stroke-opacity="1.0" stroke="rgb(0, 0, 0)" stroke-linejoin="round" d=" M 740.013, 643.289 748.398, 648.738 756.783, 654.187 765.168, 659.636 773.553, 665.085 781.938, 670.534 790.323, 675.983 798.708, 681.432 807.093, 686.881 815.478, 692.330 823.863, 697.779 832.248, 703.228 840.633, 708.677 849.018, 714.126 857.403, 719.575 865.788, 725.024 874.173, 730.473 882.558, 735.922 890.943, 741.371 899.328, 746.819 907.714, 752.268 916.099, 757.717 924.484, 763.166 932.869, 768.615 941.254, 774.064 949.639, 779.513 958.024, 784.962 963.306, 788.395 971.691, 782.946 980.076, 777.497 988.461, 772.048 996.846, 766.599 1005.231, 761.150 1013.616, 755.701 1022.001, 750.252 1030.386, 744.803 1038.771, 739.354 1047.156, 733.905 1055.541, 728.456 1063.926, 723.007 1072.311, 717.558 1080.696, 712.109 1089.081, 706.660 1097.466, 701.211 1105.851, 695.762 1114.236, 690.313 1122.621, 684.864 1131.006, 679.415 1139.391, 673.967 1147.777, 668.518 1156.162, 663.069 1164.547, 657.620 1172.932, 652.171 1181.317, 646.722 1186.599, 643.289 1186.599, 633.289 1186.599, 623.289 1186.599, 613.289 1186.599, 603.289 1186.599, 593.289 1186.599, 583.289 1186.599, 573.289 1186.599, 563.289 1186.599, 553.289 1186.599, 543.289 1186.599, 533.289 1186.599, 523.289 1186.599, 513.289 1186.599, 503.289 1186.599, 493.289 1186.599, 483.289 1186.599, 473.289 1186.599, 463.289 1186.599, 453.289 1186.599, 443.289 1186.599, 433.289 1186.599, 423.289 1186.599, 413.289 1186.599, 408.501 1178.214, 403.052 1169.829, 397.603 1161.444, 392.154 1153.059, 386.705 1144.674, 381.256 1136.289, 375.807 1127.904, 370.358 1119.519, 364.909 1111.134, 359.460 1102.749, 354.011 1094.364, 348.562 1085.979, 343.113 1077.594, 337.664 1069.209, 332.215 1060.824, 326.766 1052.439, 321.317 1044.054, 315.868 1035.668, 310.419 1027.283, 304.971 1018.898, 299.522 1010.513, 294.073 1002.128, 288.624 993.743, 283.175 985.358, 277.726 976.973, 272.277 968.588, 266.828 963.306, 263.395 954.921, 268.844 946.536, 274.293 938.151, 279.742 929.766, 285.191 921.381, 290.640 912.996, 296.089 904.611, 301.538 896.226, 306.987 887.841, 312.436 879.456, 317.885 871.071, 323.334 862.686, 328.783 854.301, 334.232 845.916, 339.681 837.531, 345.130 829.146, 350.579 820.761, 356.028 812.375, 361.477 803.990, 366.926 795.605, 372.375 787.220, 377.823 778.835, 383.272 770.450, 388.721 762.065, 394.170 753.680, 399.619 745.295, 405.068 740.013, 408.501 740.013, 418.501 740.013, 428.501 740.013, 438.501 740.013, 448.501 740.013, 458.501 740.013, 468.501 740.013, 478.501 740.013, 488.501 740.013, 498.501 740.013, 508.501 740.013, 518.501 740.013, 528.501 740.013, 538.501 740.013, 548.501 740.013, 558.501 740.013, 568.501 740.013, 578.501 740.013, 588.501 740.013, 598.501 740.013, 608.501 740.013, 618.501 740.013, 628.501 740.013, 638.501 740.013, 643.289 " />
            <path fill="none" stroke-width="3.0" stroke-linecap="butt" stroke-opacity="1.0" stroke="rgb(0, 0, 0)" stroke-linejoin="round" d=" M 963.306, 788.395 970.197, 781.149 977.089, 773.903 983.980, 766.656 990.872, 759.410 997.763, 752.164 1004.655, 744.918 1011.546, 737.671 1018.438, 730.425 1025.329, 723.179 1032.220, 715.933 1039.112, 708.686 1046.003, 701.440 1052.895, 694.194 1059.786, 686.948 1066.678, 679.701 1073.569, 672.455 1080.461, 665.209 1087.352, 657.963 1094.244, 650.717 1101.307, 643.289 " />
            <path fill="none" stroke-width="3.0" stroke-linecap="butt" stroke-opacity="1.0" stroke="rgb(0, 0, 0)" stroke-linejoin="round" d=" M 1101.307, 643.289 1091.307, 643.289 1081.307, 643.289 1071.307, 643.289 1061.307, 643.289 1051.307, 643.289 1041.307, 643.289 1031.307, 643.289 1021.307, 643.289 1011.307, 643.289 1001.307, 643.289 991.307, 643.289 981.307, 643.289 971.307, 643.289 961.307, 643.289 951.307, 643.289 941.307, 643.289 931.307, 643.289 921.307, 643.289 911.307, 643.289 901.307, 643.289 891.307, 643.289 881.307, 643.289 871.307, 643.289 861.307, 643.289 851.307, 643.289 841.307, 643.289 831.307, 643.289 825.304, 643.289 " />
            <path fill="none" stroke-width="3.0" stroke-linecap="butt" stroke-opacity="1.0" stroke="rgb(0, 0, 0)" stroke-linejoin="round" d=" M 1186.599, 643.289 1176.599, 643.289 1166.599, 643.289 1156.599, 643.289 1146.599, 643.289 1136.599, 643.289 1126.599, 643.289 1116.599, 643.289 1106.599, 643.289 1101.307, 643.289 " />
            <path fill="none" stroke-width="3.0" stroke-linecap="butt" stroke-opacity="1.0" stroke="rgb(0, 0, 0)" stroke-linejoin="round" d=" M 963.306, 408.501 973.306, 408.501 983.306, 408.501 993.306, 408.501 1003.306, 408.501 1013.306, 408.501 1023.306, 408.501 1033.306, 408.501 1043.306, 408.501 1053.306, 408.501 1063.306, 408.501 1073.306, 408.501 1083.306, 408.501 1093.306, 408.501 1103.306, 408.501 1113.306, 408.501 1123.306, 408.501 1133.306, 408.501 1143.306, 408.501 1153.306, 408.501 1163.306, 408.501 1173.306, 408.501 1183.306, 408.501 1186.599, 408.501 1183.185, 417.900 1179.770, 427.299 1176.356, 436.698 1172.941, 446.097 1169.527, 455.496 1166.113, 464.895 1162.698, 474.294 1159.284, 483.693 1155.869, 493.092 1152.455, 502.491 1149.041, 511.891 1145.626, 521.289 1142.212, 530.689 1138.797, 540.088 1135.383, 549.487 1131.969, 558.886 1128.554, 568.285 1125.140, 577.684 1121.725, 587.083 1118.311, 596.482 1114.897, 605.881 1111.482, 615.280 1108.068, 624.679 1104.654, 634.078 1101.307, 643.289 1096.240, 634.668 1091.173, 626.047 1086.106, 617.426 1081.039, 608.805 1075.971, 600.183 1070.904, 591.562 1065.837, 582.941 1060.770, 574.320 1055.702, 565.699 1050.635, 557.078 1045.568, 548.457 1040.501, 539.836 1035.433, 531.215 1030.366, 522.594 1025.299, 513.973 1020.232, 505.351 1015.165, 496.730 1010.097, 488.109 1005.030, 479.488 999.963, 470.867 994.896, 462.246 989.828, 453.625 984.761, 445.004 979.694, 436.383 974.627, 427.762 969.560, 419.141 963.306, 408.501 " />
            <path fill="none" stroke-width="3.0" stroke-linecap="butt" stroke-opacity="1.0" stroke="rgb(0, 0, 0)" stroke-linejoin="round" d=" M 963.306, 408.501 958.239, 417.122 953.172, 425.743 948.104, 434.364 943.037, 442.985 937.970, 451.607 932.903, 460.228 927.835, 468.849 922.768, 477.470 917.701, 486.091 912.634, 494.712 907.566, 503.333 902.499, 511.954 897.432, 520.575 892.365, 529.196 887.298, 537.817 882.230, 546.438 877.163, 555.060 872.096, 563.681 867.029, 572.302 861.961, 580.923 856.894, 589.544 851.827, 598.165 846.760, 606.786 841.693, 615.407 836.625, 624.028 831.558, 632.649 825.304, 643.289 821.890, 633.890 818.476, 624.491 815.061, 615.092 811.647, 605.693 808.232, 596.294 804.818, 586.895 801.404, 577.496 797.989, 568.097 794.575, 558.698 791.161, 549.299 787.746, 539.899 784.332, 530.500 780.917, 521.101 777.503, 511.702 774.089, 502.303 770.674, 492.904 767.260, 483.505 763.845, 474.106 760.431, 464.707 757.017, 455.308 753.602, 445.909 750.188, 436.510 746.773, 427.111 743.359, 417.712 740.013, 408.501 750.013, 408.501 760.013, 408.501 770.013, 408.501 780.013, 408.501 790.013, 408.501 800.013, 408.501 810.013, 408.501 820.013, 408.501 830.013, 408.501 840.013, 408.501 850.013, 408.501 860.013, 408.501 870.013, 408.501 880.013, 408.501 890.013, 408.501 900.013, 408.501 910.013, 408.501 920.013, 408.501 930.013, 408.501 940.013, 408.501 950.013, 408.501 960.013, 408.501 963.306, 408.501 963.306, 398.501 963.306, 388.501 963.306, 378.501 963.306, 368.501 963.306, 358.501 963.306, 348.501 963.306, 338.501 963.306, 328.501 963.306, 318.501 963.306, 308.501 963.306, 298.501 963.306, 288.501 963.306, 278.501 963.306, 268.501 963.306, 263.395 " />
        </g>
    </g>
</svg>
