<?xml version='1.0' encoding='ascii'?>
<svg xmlns="http://www.w3.org/2000/svg" version="1.1" width="1920" height="1080">
    <g id="ViewLayer_LineSet" xmlns:inkscape="http://www.inkscape.org/namespaces/inkscape" inkscape:groupmode="lineset" inkscape:label="ViewLayer_LineSet">
        <g xmlns:inkscape="http://www.inkscape.org/namespaces/inkscape" inkscape:groupmode="layer" id="strokes" inkscape:label="strokes">
            <path fill="none" stroke-width="3.0" stroke-linecap="butt" stroke-opacity="1.0" stroke="rgb(0, 0, 0)" stroke-linejoin="round" d=" M 733.804, 643.289 742.298, 648.567 750.791, 653.845 759.285, 659.124 767.778, 664.402 776.272, 669.680 784.765, 674.958 793.259, 680.237 801.752, 685.515 810.246, 690.793 818.739, 696.071 827.233, 701.350 835.727, 706.628 844.220, 711.906 852.714, 717.184 861.207, 722.463 869.701, 727.741 878.194, 733.019 886.688, 738.297 895.181, 743.576 903.675, 748.854 912.168, 754.132 920.662, 759.410 929.155, 764.689 937.649, 769.967 946.142, 775.245 954.636, 780.523 963.129, 785.802 967.302, 788.395 975.442, 782.586 983.582, 776.777 991.722, 770.968 999.861, 765.159 1008.001, 759.350 1016.141, 753.541 1024.281, 747.732 1032.421, 741.923 1040.560, 736.115 1048.700, 730.306 1056.840, 724.497 1064.980, 718.688 1073.120, 712.879 1081.259, 707.070 1089.399, 701.261 1097.539, 695.452 1105.679, 689.643 1113.819, 683.834 1121.958, 678.025 1130.098, 672.216 1138.238, 666.407 1146.378, 660.599 1154.518, 654.790 1162.657, 648.981 1170.633, 643.289 1171.908, 633.370 1173.182, 623.452 1174.456, 613.533 1175.731, 603.615 1177.005, 593.696 1178.280, 583.778 1179.554, 573.860 1180.828, 563.941 1182.103, 554.023 1183.377, 544.104 1184.651, 534.186 1185.926, 524.267 1187.200, 514.349 1188.475, 504.430 1189.749, 494.512 1191.023, 484.593 1192.298, 474.675 1193.572, 464.756 1194.846, 454.838 1196.121, 444.919 1197.395, 435.001 1198.670, 425.083 1199.944, 415.164 1200.800, 408.501 1192.307, 403.223 1183.813, 397.944 1175.320, 392.666 1166.826, 387.388 1158.333, 382.110 1149.839, 376.831 1141.345, 371.553 1132.852, 366.275 1124.358, 360.997 1115.865, 355.718 1107.371, 350.440 1098.878, 345.162 1090.384, 339.884 1081.891, 334.605 1073.397, 329.327 1064.904, 324.049 1056.410, 318.771 1047.917, 313.492 1039.423, 308.214 1030.930, 302.936 1022.436, 297.657 1013.943, 292.379 1005.449, 287.101 996.955, 281.823 988.462, 276.544 979.968, 271.266 971.475, 265.988 967.302, 263.395 959.162, 269.204 951.023, 275.013 942.883, 280.822 934.743, 286.630 926.603, 292.439 918.463, 298.248 910.324, 304.057 902.184, 309.866 894.044, 315.675 885.904, 321.484 877.764, 327.293 869.625, 333.102 861.485, 338.911 853.345, 344.720 845.205, 350.529 837.065, 356.338 828.925, 362.147 820.786, 367.955 812.646, 373.764 804.506, 379.573 796.366, 385.382 788.226, 391.191 780.087, 397.000 771.947, 402.809 763.971, 408.501 762.697, 418.419 761.422, 428.338 760.148, 438.256 758.874, 448.175 757.599, 458.093 756.325, 468.012 755.050, 477.930 753.776, 487.849 752.502, 497.767 751.227, 507.686 749.953, 517.604 748.678, 527.522 747.404, 537.441 746.130, 547.359 744.855, 557.278 743.581, 567.196 742.307, 577.115 741.032, 587.033 739.758, 596.952 738.483, 606.870 737.209, 616.789 735.935, 626.707 734.660, 636.626 733.804, 643.289 " />
            <path fill="none" stroke-width="3.0" stroke-linecap="butt" stroke-opacity="1.0" stroke="rgb(0, 0, 0)" stroke-linejoin="round" d=" M 1141.780, 643.289 1134.091, 649.683 1126.403, 656.077 1118.714, 662.472 1111.026, 668.866 1103.337, 675.260 1095.649, 681.654 1087.960, 688.049 1080.271, 694.443 1072.583, 700.837 1064.894, 707.231 1057.206, 713.626 1049.517, 720.020 1041.829, 726.414 1034.140, 732.808 1026.452, 739.203 1018.763, 745.597 1011.075, 751.991 1003.386, 758.385 995.698, 764.780 988.009, 771.174 980.320, 777.568 972.632, 783.962 967.302, 788.395 961.805, 780.042 956.307, 771.688 950.810, 763.335 945.312, 754.982 939.815, 746.628 934.317, 738.275 928.820, 729.922 923.323, 721.568 917.825, 713.215 912.328, 704.862 906.830, 696.508 901.333, 688.155 895.835, 679.802 890.338, 671.448 884.840, 663.095 879.343, 654.742 873.846, 646.388 871.806, 643.289 " />
            <path fill="none" stroke-width="3.0" stroke-linecap="butt" stroke-opacity="1.0" stroke="rgb(0, 0, 0)" stroke-linejoin="round" d=" M 871.806, 643.289 861.806, 643.289 851.806, 643.289 841.806, 643.289 831.806, 643.289 821.806, 643.289 811.806, 643.289 801.806, 643.289 791.806, 643.289 781.806, 643.289 771.806, 643.289 761.806, 643.289 751.806, 643.289 741.806, 643.289 733.804, 643.289 " />
            <path fill="none" stroke-width="3.0" stroke-linecap="butt" stroke-opacity="1.0" stroke="rgb(0, 0, 0)" stroke-linejoin="round" d=" M 1170.633, 643.289 1160.633, 643.289 1150.633, 643.289 1141.780, 643.289 " />
            <path fill="none" stroke-width="3.0" stroke-linecap="butt" stroke-opacity="1.0" stroke="rgb(0, 0, 0)" stroke-linejoin="round" d=" M 1141.780, 643.289 1131.780, 643.289 1121.780, 643.289 1111.780, 643.289 1101.780, 643.289 1091.780, 643.289 1081.780, 643.289 1071.780, 643.289 1061.780, 643.289 1051.780, 643.289 1041.780, 643.289 1031.780, 643.289 1021.780, 643.289 1011.780, 643.289 1001.780, 643.289 991.780, 643.289 981.780, 643.289 971.780, 643.289 961.780, 643.289 951.780, 643.289 941.780, 643.289 931.780, 643.289 921.780, 643.289 911.780, 643.289 901.780, 643.289 891.780, 643.289 881.780, 643.289 871.806, 643.289 " />
            <path fill="none" stroke-width="3.0" stroke-linecap="butt" stroke-opacity="1.0" stroke="rgb(0, 0, 0)" stroke-linejoin="round" d=" M 1016.118, 408.501 1010.881, 417.020 1005.645, 425.540 1000.408, 434.059 995.172, 442.578 989.935, 451.098 984.699, 459.617 979.463, 468.137 974.226, 476.656 968.990, 485.175 963.753, 493.695 958.517, 502.214 953.281, 510.734 948.044, 519.253 942.808, 527.772 937.571, 536.292 932.335, 544.811 927.098, 553.330 921.862, 561.850 916.626, 570.369 911.389, 578.889 906.153, 587.408 900.916, 595.927 895.680, 604.447 890.443, 612.966 885.207, 621.486 879.971, 630.005 874.734, 638.524 871.806, 643.289 867.632, 634.201 863.458, 625.114 859.285, 616.027 855.111, 606.939 850.937, 597.852 846.764, 588.765 842.590, 579.677 838.416, 570.590 834.242, 561.502 830.069, 552.415 825.895, 543.328 821.721, 534.240 817.548, 525.153 813.374, 516.066 809.200, 506.978 805.027, 497.891 800.853, 488.804 796.679, 479.716 792.505, 470.629 788.332, 461.541 784.158, 452.454 779.984, 443.367 775.811, 434.279 771.637, 425.192 767.463, 416.105 763.971, 408.501 773.971, 408.501 783.971, 408.501 793.971, 408.501 803.971, 408.501 813.971, 408.501 823.971, 408.501 833.971, 408.501 843.971, 408.501 853.971, 408.501 863.971, 408.501 873.971, 408.501 883.971, 408.501 893.971, 408.501 903.971, 408.501 913.971, 408.501 923.971, 408.501 933.971, 408.501 943.971, 408.501 953.971, 408.501 963.971, 408.501 973.971, 408.501 983.971, 408.501 993.971, 408.501 1003.971, 408.501 1016.118, 408.501 " />
            <path fill="none" stroke-width="3.0" stroke-linecap="butt" stroke-opacity="1.0" stroke="rgb(0, 0, 0)" stroke-linejoin="round" d=" M 967.302, 263.395 970.491, 272.873 973.679, 282.351 976.868, 291.829 980.056, 301.307 983.245, 310.785 986.433, 320.263 989.622, 329.741 992.810, 339.219 995.999, 348.697 999.187, 358.175 1002.376, 367.653 1005.565, 377.131 1008.753, 386.609 1011.942, 396.087 1015.130, 405.565 1016.118, 408.501 1026.118, 408.501 1036.118, 408.501 1046.118, 408.501 1056.118, 408.501 1066.118, 408.501 1076.118, 408.501 1086.118, 408.501 1096.118, 408.501 1106.118, 408.501 1116.118, 408.501 1126.118, 408.501 1136.118, 408.501 1146.118, 408.501 1156.118, 408.501 1166.118, 408.501 1176.118, 408.501 1186.118, 408.501 1196.118, 408.501 1200.800, 408.501 1198.362, 418.199 1195.924, 427.897 1193.486, 437.596 1191.048, 447.294 1188.610, 456.992 1186.172, 466.691 1183.735, 476.389 1181.297, 486.087 1178.859, 495.785 1176.421, 505.484 1173.983, 515.182 1171.545, 524.880 1169.107, 534.578 1166.669, 544.277 1164.231, 553.975 1161.793, 563.673 1159.355, 573.372 1156.917, 583.070 1154.479, 592.768 1152.042, 602.466 1149.604, 612.165 1147.166, 621.863 1144.728, 631.561 1141.780, 643.289 1137.061, 634.472 1132.342, 625.656 1127.623, 616.839 1122.905, 608.022 1118.186, 599.206 1113.467, 590.389 1108.748, 581.572 1104.029, 572.756 1099.311, 563.939 1094.592, 555.122 1089.873, 546.306 1085.154, 537.489 1080.435, 528.673 1075.717, 519.856 1070.998, 511.039 1066.279, 502.223 1061.560, 493.406 1056.841, 484.589 1052.123, 475.773 1047.404, 466.956 1042.685, 458.140 1037.966, 449.323 1033.247, 440.506 1028.529, 431.690 1023.810, 422.873 1019.091, 414.056 1016.118, 408.501 " />
        </g>
    </g>
</svg>
