<?xml version='1.0' encoding='ascii'?>
<svg xmlns="http://www.w3.org/2000/svg" version="1.1" width="1920" height="1080">
    <g id="ViewLayer_LineSet" xmlns:inkscape="http://www.inkscape.org/namespaces/inkscape" inkscape:groupmode="lineset" inkscape:label="ViewLayer_LineSet">
        <g xmlns:inkscape="http://www.inkscape.org/namespaces/inkscape" inkscape:groupmode="layer" id="strokes" inkscape:label="strokes">
            <path fill="none" stroke-width="3.0" stroke-linecap="butt" stroke-opacity="1.0" stroke="rgb(0, 0, 0)" stroke-linejoin="round" d=" M 730.500, 643.288 738.993, 648.567 747.487, 653.845 755.980, 659.123 764.474, 664.401 772.967, 669.680 781.461, 674.958 789.954, 680.236 798.448, 685.515 806.941, 690.793 815.435, 696.071 823.928, 701.349 832.422, 706.628 840.915, 711.906 849.409, 717.184 857.902, 722.462 866.396, 727.741 874.889, 733.019 883.383, 738.297 891.877, 743.575 900.370, 748.854 908.864, 754.132 917.357, 759.410 925.851, 764.688 934.344, 769.967 942.838, 775.245 951.331, 780.523 959.825, 785.801 963.997, 788.395 972.137, 782.586 980.277, 776.777 988.417, 770.968 996.557, 765.159 1004.696, 759.350 1012.836, 753.541 1020.976, 747.732 1029.116, 741.923 1037.256, 736.114 1045.396, 730.305 1053.535, 724.496 1061.675, 718.687 1069.815, 712.879 1077.955, 707.070 1086.094, 701.261 1094.234, 695.452 1102.374, 689.643 1110.514, 683.834 1118.654, 678.025 1126.793, 672.216 1134.933, 666.407 1143.073, 660.598 1151.213, 654.789 1159.353, 648.980 1167.328, 643.288 1168.603, 633.370 1169.877, 623.452 1171.152, 613.533 1172.426, 603.615 1173.700, 593.696 1174.975, 583.778 1176.249, 573.859 1177.524, 563.941 1178.798, 554.022 1180.072, 544.104 1181.347, 534.185 1182.621, 524.267 1183.895, 514.348 1185.170, 504.430 1186.444, 494.511 1187.719, 484.593 1188.993, 474.675 1190.267, 464.756 1191.542, 454.838 1192.816, 444.919 1194.090, 435.001 1195.365, 425.082 1196.639, 415.164 1197.495, 408.501 1189.002, 403.222 1180.508, 397.944 1172.015, 392.666 1163.521, 387.388 1155.028, 382.109 1146.534, 376.831 1138.041, 371.553 1129.547, 366.275 1121.054, 360.996 1112.560, 355.718 1104.067, 350.440 1095.573, 345.161 1087.079, 339.883 1078.586, 334.605 1070.092, 329.327 1061.599, 324.048 1053.105, 318.770 1044.612, 313.492 1036.118, 308.214 1027.625, 302.935 1019.131, 297.657 1010.638, 292.379 1002.144, 287.101 993.651, 281.822 985.157, 276.544 976.664, 271.266 968.170, 265.988 963.997, 263.395 955.858, 269.203 947.718, 275.012 939.578, 280.821 931.438, 286.630 923.298, 292.439 915.159, 298.248 907.019, 304.057 898.879, 309.866 890.739, 315.675 882.599, 321.484 874.460, 327.293 866.320, 333.102 858.180, 338.911 850.040, 344.719 841.900, 350.528 833.761, 356.337 825.621, 362.146 817.481, 367.955 809.341, 373.764 801.201, 379.573 793.062, 385.382 784.922, 391.191 776.782, 397.000 768.642, 402.809 760.666, 408.501 759.392, 418.419 758.118, 428.338 756.843, 438.256 755.569, 448.174 754.294, 458.093 753.020, 468.011 751.746, 477.930 750.471, 487.848 749.197, 497.767 747.923, 507.685 746.648, 517.604 745.374, 527.522 744.099, 537.441 742.825, 547.359 741.551, 557.278 740.276, 567.196 739.002, 577.115 737.728, 587.033 736.453, 596.951 735.179, 606.870 733.904, 616.788 732.630, 626.707 731.356, 636.625 730.500, 643.288 " />
            <path fill="none" stroke-width="3.0" stroke-linecap="butt" stroke-opacity="1.0" stroke="rgb(0, 0, 0)" stroke-linejoin="round" d=" M 1059.494, 408.501 1063.667, 417.588 1067.841, 426.675 1072.015, 435.763 1076.189, 444.850 1080.362, 453.937 1084.536, 463.025 1088.710, 472.112 1092.883, 481.200 1097.057, 490.287 1101.231, 499.374 1105.405, 508.462 1109.578, 517.549 1113.752, 526.636 1117.926, 535.724 1122.099, 544.811 1126.273, 553.898 1130.447, 562.986 1134.620, 572.073 1138.794, 581.161 1142.968, 590.248 1147.141, 599.335 1151.315, 608.423 1155.489, 617.510 1159.663, 626.597 1163.836, 635.685 1167.328, 643.288 1157.328, 643.288 1147.328, 643.288 1137.328, 643.288 1127.328, 643.288 1117.328, 643.288 1107.328, 643.288 1097.328, 643.288 1087.328, 643.288 1077.328, 643.288 1067.328, 643.288 1057.328, 643.288 1047.328, 643.288 1037.328, 643.288 1027.328, 643.288 1017.328, 643.288 1007.328, 643.288 997.328, 643.288 987.328, 643.288 977.328, 643.288 967.328, 643.288 957.328, 643.288 947.328, 643.288 937.328, 643.288 927.328, 643.288 915.182, 643.288 " />
            <path fill="none" stroke-width="3.0" stroke-linecap="butt" stroke-opacity="1.0" stroke="rgb(0, 0, 0)" stroke-linejoin="round" d=" M 915.182, 643.288 918.370, 652.767 921.559, 662.245 924.748, 671.723 927.936, 681.201 931.125, 690.679 934.313, 700.157 937.502, 709.635 940.690, 719.113 943.879, 728.591 947.067, 738.069 950.256, 747.547 953.444, 757.025 956.633, 766.503 959.821, 775.981 963.010, 785.459 963.997, 788.395 " />
            <path fill="none" stroke-width="3.0" stroke-linecap="butt" stroke-opacity="1.0" stroke="rgb(0, 0, 0)" stroke-linejoin="round" d=" M 915.182, 643.288 905.182, 643.288 895.182, 643.288 885.182, 643.288 875.182, 643.288 865.182, 643.288 855.182, 643.288 845.182, 643.288 835.182, 643.288 825.182, 643.288 815.182, 643.288 805.182, 643.288 795.182, 643.288 785.182, 643.288 775.182, 643.288 765.182, 643.288 755.182, 643.288 745.182, 643.288 735.182, 643.288 730.500, 643.288 732.937, 633.590 735.375, 623.892 737.813, 614.194 740.251, 604.495 742.689, 594.797 745.127, 585.099 747.565, 575.401 750.003, 565.702 752.441, 556.004 754.879, 546.306 757.317, 536.607 759.755, 526.909 762.193, 517.211 764.630, 507.513 767.068, 497.814 769.506, 488.116 771.944, 478.418 774.382, 468.720 776.820, 459.021 779.258, 449.323 781.696, 439.625 784.134, 429.926 786.572, 420.228 789.520, 408.501 " />
            <path fill="none" stroke-width="3.0" stroke-linecap="butt" stroke-opacity="1.0" stroke="rgb(0, 0, 0)" stroke-linejoin="round" d=" M 1059.494, 408.501 1054.257, 417.020 1049.021, 425.539 1043.785, 434.059 1038.548, 442.578 1033.312, 451.098 1028.075, 459.617 1022.839, 468.136 1017.602, 476.656 1012.366, 485.175 1007.130, 493.694 1001.893, 502.214 996.657, 510.733 991.420, 519.253 986.184, 527.772 980.948, 536.291 975.711, 544.811 970.475, 553.330 965.238, 561.849 960.002, 570.369 954.765, 578.888 949.529, 587.408 944.293, 595.927 939.056, 604.446 933.820, 612.966 928.583, 621.485 923.347, 630.005 918.110, 638.524 915.182, 643.288 910.463, 634.472 905.744, 625.655 901.026, 616.839 896.307, 608.022 891.588, 599.205 886.869, 590.389 882.150, 581.572 877.432, 572.755 872.713, 563.939 867.994, 555.122 863.275, 546.306 858.556, 537.489 853.838, 528.672 849.119, 519.856 844.400, 511.039 839.681, 502.222 834.962, 493.406 830.244, 484.589 825.525, 475.773 820.806, 466.956 816.087, 458.139 811.368, 449.323 806.650, 440.506 801.931, 431.689 797.212, 422.873 792.493, 414.056 789.520, 408.501 " />
            <path fill="none" stroke-width="3.0" stroke-linecap="butt" stroke-opacity="1.0" stroke="rgb(0, 0, 0)" stroke-linejoin="round" d=" M 1197.495, 408.501 1187.495, 408.501 1177.495, 408.501 1167.495, 408.501 1157.495, 408.501 1147.495, 408.501 1137.495, 408.501 1127.495, 408.501 1117.495, 408.501 1107.495, 408.501 1097.495, 408.501 1087.495, 408.501 1077.495, 408.501 1067.495, 408.501 1059.494, 408.501 " />
            <path fill="none" stroke-width="3.0" stroke-linecap="butt" stroke-opacity="1.0" stroke="rgb(0, 0, 0)" stroke-linejoin="round" d=" M 760.666, 408.501 770.666, 408.501 780.666, 408.501 789.520, 408.501 797.208, 402.106 804.897, 395.712 812.585, 389.318 820.274, 382.924 827.963, 376.529 835.651, 370.135 843.340, 363.741 851.028, 357.347 858.717, 350.952 866.405, 344.558 874.094, 338.164 881.782, 331.770 889.471, 325.375 897.159, 318.981 904.848, 312.587 912.536, 306.193 920.225, 299.798 927.913, 293.404 935.602, 287.010 943.291, 280.616 950.979, 274.221 958.668, 267.827 963.997, 263.395 969.495, 271.748 974.992, 280.101 980.490, 288.454 985.987, 296.808 991.485, 305.161 996.982, 313.514 1002.480, 321.868 1007.977, 330.221 1013.474, 338.574 1018.972, 346.928 1024.469, 355.281 1029.967, 363.634 1035.464, 371.988 1040.962, 380.341 1046.459, 388.694 1051.957, 397.048 1057.454, 405.401 1059.494, 408.501 1049.494, 408.501 1039.494, 408.501 1029.494, 408.501 1019.494, 408.501 1009.494, 408.501 999.494, 408.501 989.494, 408.501 979.494, 408.501 969.494, 408.501 959.494, 408.501 949.494, 408.501 939.494, 408.501 929.494, 408.501 919.494, 408.501 909.494, 408.501 899.494, 408.501 889.494, 408.501 879.494, 408.501 869.494, 408.501 859.494, 408.501 849.494, 408.501 839.494, 408.501 829.494, 408.501 819.494, 408.501 809.494, 408.501 799.494, 408.501 789.520, 408.501 " />
        </g>
    </g>
</svg>
