<?xml version='1.0' encoding='ascii'?>
<svg xmlns="http://www.w3.org/2000/svg" version="1.1" width="1920" height="1080">
    <g id="ViewLayer_LineSet" xmlns:inkscape="http://www.inkscape.org/namespaces/inkscape" inkscape:groupmode="lineset" inkscape:label="ViewLayer_LineSet">
        <g xmlns:inkscape="http://www.inkscape.org/namespaces/inkscape" inkscape:groupmode="layer" id="strokes" inkscape:label="strokes">
            <path fill="none" stroke-width="3.0" stroke-linecap="butt" stroke-opacity="1.0" stroke="rgb(0, 0, 0)" stroke-linejoin="round" d=" M 962.275, 788.395 970.492, 782.695 978.709, 776.996 986.926, 771.296 995.142, 765.597 1003.359, 759.897 1011.576, 754.198 1019.793, 748.498 1028.009, 742.799 1036.226, 737.099 1044.443, 731.400 1052.660, 725.700 1060.876, 720.001 1069.093, 714.301 1077.310, 708.601 1085.527, 702.902 1093.744, 697.202 1101.960, 691.503 1110.177, 685.803 1118.394, 680.104 1126.611, 674.404 1134.827, 668.705 1143.044, 663.005 1151.261, 657.306 1159.478, 651.606 1167.695, 645.907 1171.469, 643.289 1172.431, 633.335 1173.393, 623.382 1174.356, 613.428 1175.318, 603.474 1176.280, 593.521 1177.243, 583.567 1178.205, 573.614 1179.167, 563.660 1180.130, 553.707 1181.092, 543.753 1182.054, 533.799 1183.017, 523.846 1183.979, 513.892 1184.941, 503.939 1185.904, 493.985 1186.866, 484.031 1187.828, 474.078 1188.791, 464.124 1189.753, 454.171 1190.715, 444.217 1191.678, 434.263 1192.640, 424.310 1193.602, 414.356 1194.168, 408.501 1185.691, 403.196 1177.214, 397.892 1168.737, 392.587 1160.260, 387.283 1151.783, 381.978 1143.306, 376.674 1134.828, 371.369 1126.351, 366.065 1117.874, 360.760 1109.397, 355.456 1100.920, 350.151 1092.443, 344.847 1083.966, 339.542 1075.488, 334.237 1067.011, 328.933 1058.534, 323.628 1050.057, 318.324 1041.580, 313.019 1033.103, 307.715 1024.625, 302.410 1016.148, 297.106 1007.671, 291.801 999.194, 286.497 990.717, 281.192 982.240, 275.888 973.763, 270.583 965.286, 265.279 962.275, 263.395 954.058, 269.094 945.842, 274.794 937.625, 280.493 929.408, 286.193 921.191, 291.893 912.975, 297.592 904.758, 303.292 896.541, 308.991 888.324, 314.691 880.107, 320.390 871.891, 326.090 863.674, 331.789 855.457, 337.489 847.240, 343.188 839.024, 348.888 830.807, 354.587 822.590, 360.287 814.373, 365.986 806.156, 371.686 797.940, 377.385 789.723, 383.085 781.506, 388.785 773.289, 394.484 765.073, 400.184 756.856, 405.883 753.082, 408.501 752.120, 418.455 751.157, 428.408 750.195, 438.362 749.233, 448.315 748.270, 458.269 747.308, 468.222 746.346, 478.176 745.383, 488.130 744.421, 498.083 743.458, 508.037 742.496, 517.990 741.534, 527.944 740.572, 537.898 739.609, 547.851 738.647, 557.805 737.685, 567.758 736.722, 577.712 735.760, 587.665 734.797, 597.619 733.835, 607.573 732.873, 617.526 731.910, 627.480 730.948, 637.433 730.382, 643.289 738.859, 648.593 747.336, 653.898 755.813, 659.202 764.291, 664.507 772.768, 669.811 781.245, 675.116 789.722, 680.421 798.199, 685.725 806.676, 691.030 815.153, 696.334 823.631, 701.639 832.108, 706.943 840.585, 712.248 849.062, 717.552 857.539, 722.857 866.016, 728.161 874.493, 733.466 882.971, 738.770 891.448, 744.075 899.925, 749.379 908.402, 754.684 916.879, 759.989 925.356, 765.293 933.833, 770.598 942.311, 775.902 950.788, 781.207 959.265, 786.511 962.275, 788.395 " />
            <path fill="none" stroke-width="3.0" stroke-linecap="butt" stroke-opacity="1.0" stroke="rgb(0, 0, 0)" stroke-linejoin="round" d=" M 1171.469, 643.289 1161.469, 643.289 1151.469, 643.289 1141.469, 643.289 1131.469, 643.289 1128.294, 643.289 " />
            <path fill="none" stroke-width="3.0" stroke-linecap="butt" stroke-opacity="1.0" stroke="rgb(0, 0, 0)" stroke-linejoin="round" d=" M 1128.294, 643.289 1120.765, 649.870 1113.236, 656.451 1105.706, 663.032 1098.177, 669.612 1090.647, 676.193 1083.118, 682.774 1075.589, 689.355 1068.059, 695.936 1060.530, 702.517 1053.001, 709.098 1045.471, 715.679 1037.942, 722.260 1030.412, 728.841 1022.883, 735.422 1015.354, 742.003 1007.824, 748.583 1000.295, 755.164 992.766, 761.745 985.236, 768.326 977.707, 774.907 970.177, 781.488 962.275, 788.395 956.355, 780.336 950.435, 772.276 944.515, 764.217 938.595, 756.158 932.675, 748.098 926.755, 740.039 920.834, 731.980 914.914, 723.921 908.994, 715.861 903.074, 707.802 897.154, 699.743 891.234, 691.683 885.314, 683.624 879.394, 675.565 873.473, 667.505 867.553, 659.446 861.633, 651.387 855.685, 643.289 " />
            <path fill="none" stroke-width="3.0" stroke-linecap="butt" stroke-opacity="1.0" stroke="rgb(0, 0, 0)" stroke-linejoin="round" d=" M 1128.294, 643.289 1118.294, 643.289 1108.294, 643.289 1098.294, 643.289 1088.294, 643.289 1078.294, 643.289 1068.294, 643.289 1058.294, 643.289 1048.294, 643.289 1038.294, 643.289 1028.294, 643.289 1018.294, 643.289 1008.294, 643.289 998.294, 643.289 988.294, 643.289 978.294, 643.289 968.294, 643.289 958.294, 643.289 948.294, 643.289 938.294, 643.289 928.294, 643.289 918.294, 643.289 908.294, 643.289 898.294, 643.289 888.294, 643.289 878.294, 643.289 868.294, 643.289 855.685, 643.289 " />
            <path fill="none" stroke-width="3.0" stroke-linecap="butt" stroke-opacity="1.0" stroke="rgb(0, 0, 0)" stroke-linejoin="round" d=" M 855.685, 643.289 845.685, 643.289 835.685, 643.289 825.685, 643.289 815.685, 643.289 805.685, 643.289 795.685, 643.289 785.685, 643.289 775.685, 643.289 765.685, 643.289 755.685, 643.289 745.685, 643.289 735.685, 643.289 730.382, 643.289 " />
            <path fill="none" stroke-width="3.0" stroke-linecap="butt" stroke-opacity="1.0" stroke="rgb(0, 0, 0)" stroke-linejoin="round" d=" M 999.005, 408.501 1009.005, 408.501 1019.005, 408.501 1029.005, 408.501 1039.005, 408.501 1049.005, 408.501 1059.005, 408.501 1069.005, 408.501 1079.005, 408.501 1089.005, 408.501 1099.005, 408.501 1109.005, 408.501 1119.005, 408.501 1129.005, 408.501 1139.005, 408.501 1149.005, 408.501 1159.005, 408.501 1169.005, 408.501 1179.005, 408.501 1189.005, 408.501 1194.168, 408.501 1191.467, 418.129 1188.766, 427.757 1186.064, 437.386 1183.363, 447.014 1180.661, 456.642 1177.960, 466.270 1175.259, 475.898 1172.557, 485.527 1169.856, 495.155 1167.155, 504.783 1164.453, 514.411 1161.752, 524.040 1159.051, 533.668 1156.349, 543.296 1153.648, 552.924 1150.946, 562.552 1148.245, 572.181 1145.544, 581.809 1142.842, 591.437 1140.141, 601.065 1137.440, 610.694 1134.738, 620.322 1132.037, 629.950 1129.335, 639.578 1128.294, 643.289 1123.471, 634.529 1118.647, 625.769 1113.823, 617.010 1109.000, 608.250 1104.176, 599.490 1099.352, 590.731 1094.529, 581.971 1089.705, 573.211 1084.881, 564.452 1080.058, 555.692 1075.234, 546.932 1070.410, 538.172 1065.587, 529.413 1060.763, 520.653 1055.939, 511.893 1051.116, 503.134 1046.292, 494.374 1041.469, 485.614 1036.645, 476.855 1031.821, 468.095 1026.997, 459.335 1022.174, 450.575 1017.350, 441.816 1012.526, 433.056 1007.703, 424.296 1002.879, 415.537 999.005, 408.501 " />
            <path fill="none" stroke-width="3.0" stroke-linecap="butt" stroke-opacity="1.0" stroke="rgb(0, 0, 0)" stroke-linejoin="round" d=" M 999.005, 408.501 993.795, 417.036 988.584, 425.572 983.374, 434.107 978.164, 442.643 972.954, 451.178 967.743, 459.714 962.533, 468.249 957.323, 476.784 952.113, 485.320 946.903, 493.855 941.692, 502.391 936.482, 510.926 931.272, 519.461 926.062, 527.997 920.851, 536.532 915.641, 545.068 910.431, 553.603 905.221, 562.139 900.010, 570.674 894.800, 579.209 889.590, 587.745 884.380, 596.280 879.169, 604.816 873.959, 613.351 868.749, 621.887 863.539, 630.422 858.329, 638.957 855.685, 643.289 851.680, 634.126 847.676, 624.962 843.672, 615.799 839.667, 606.636 835.663, 597.473 831.658, 588.309 827.654, 579.146 823.650, 569.983 819.645, 560.820 815.641, 551.656 811.637, 542.493 807.632, 533.330 803.628, 524.167 799.624, 515.003 795.619, 505.840 791.615, 496.677 787.611, 487.514 783.606, 478.350 779.602, 469.187 775.597, 460.024 771.593, 450.861 767.589, 441.697 763.584, 432.534 759.580, 423.371 755.576, 414.208 753.082, 408.501 763.082, 408.501 773.082, 408.501 783.082, 408.501 793.082, 408.501 803.082, 408.501 813.082, 408.501 823.082, 408.501 833.082, 408.501 843.082, 408.501 853.082, 408.501 863.082, 408.501 873.082, 408.501 883.082, 408.501 893.082, 408.501 903.082, 408.501 913.082, 408.501 923.082, 408.501 933.082, 408.501 943.082, 408.501 953.082, 408.501 963.082, 408.501 973.082, 408.501 983.082, 408.501 993.082, 408.501 999.005, 408.501 996.551, 398.807 994.097, 389.112 991.643, 379.418 989.189, 369.724 986.736, 360.030 984.282, 350.335 981.828, 340.641 979.374, 330.947 976.920, 321.253 974.466, 311.558 972.013, 301.864 969.559, 292.170 967.105, 282.476 964.651, 272.781 962.275, 263.395 " />
        </g>
    </g>
</svg>
