<?xml version='1.0' encoding='ascii'?>
<svg xmlns="http://www.w3.org/2000/svg" version="1.1" width="1920" height="1080">
    <g id="ViewLayer_LineSet" xmlns:inkscape="http://www.inkscape.org/namespaces/inkscape" inkscape:groupmode="lineset" inkscape:label="ViewLayer_LineSet">
        <g xmlns:inkscape="http://www.inkscape.org/namespaces/inkscape" inkscape:groupmode="layer" id="strokes" inkscape:label="strokes">
            <path fill="none" stroke-width="3.0" stroke-linecap="butt" stroke-opacity="1.0" stroke="rgb(0, 0, 0)" stroke-linejoin="round" d=" M 735.058, 643.289 743.535, 648.593 752.012, 653.898 760.489, 659.202 768.966, 664.507 777.443, 669.811 785.921, 675.116 794.398, 680.421 802.875, 685.725 811.352, 691.030 819.829, 696.334 828.306, 701.639 836.783, 706.943 845.261, 712.248 853.738, 717.552 862.215, 722.857 870.692, 728.161 879.169, 733.466 887.646, 738.770 896.123, 744.075 904.601, 749.379 913.078, 754.684 921.555, 759.989 930.032, 765.293 938.509, 770.598 946.986, 775.902 955.463, 781.207 963.941, 786.511 966.951, 788.395 975.168, 782.695 983.384, 776.996 991.601, 771.296 999.818, 765.597 1008.035, 759.897 1016.252, 754.198 1024.468, 748.498 1032.685, 742.799 1040.902, 737.099 1049.119, 731.400 1057.335, 725.700 1065.552, 720.001 1073.769, 714.301 1081.986, 708.601 1090.203, 702.902 1098.419, 697.202 1106.636, 691.503 1114.853, 685.803 1123.070, 680.104 1131.286, 674.404 1139.503, 668.705 1147.720, 663.005 1155.937, 657.306 1164.153, 651.606 1172.370, 645.907 1176.144, 643.289 1177.107, 633.335 1178.069, 623.382 1179.031, 613.428 1179.994, 603.474 1180.956, 593.521 1181.918, 583.567 1182.881, 573.614 1183.843, 563.660 1184.805, 553.707 1185.768, 543.753 1186.730, 533.799 1187.692, 523.846 1188.655, 513.892 1189.617, 503.939 1190.579, 493.985 1191.542, 484.031 1192.504, 474.078 1193.466, 464.124 1194.429, 454.171 1195.391, 444.217 1196.353, 434.263 1197.316, 424.310 1198.278, 414.356 1198.844, 408.501 1190.367, 403.196 1181.890, 397.892 1173.413, 392.587 1164.936, 387.283 1156.458, 381.978 1147.981, 376.674 1139.504, 371.369 1131.027, 366.065 1122.550, 360.760 1114.073, 355.456 1105.596, 350.151 1097.118, 344.847 1088.641, 339.542 1080.164, 334.237 1071.687, 328.933 1063.210, 323.628 1054.733, 318.324 1046.255, 313.019 1037.778, 307.715 1029.301, 302.410 1020.824, 297.106 1012.347, 291.801 1003.870, 286.497 995.393, 281.192 986.916, 275.888 978.438, 270.583 969.961, 265.279 966.951, 263.395 958.734, 269.094 950.517, 274.794 942.301, 280.493 934.084, 286.193 925.867, 291.893 917.650, 297.592 909.434, 303.292 901.217, 308.991 893.000, 314.691 884.783, 320.390 876.566, 326.090 868.350, 331.789 860.133, 337.489 851.916, 343.188 843.699, 348.888 835.483, 354.587 827.266, 360.287 819.049, 365.986 810.832, 371.686 802.615, 377.385 794.399, 383.085 786.182, 388.785 777.965, 394.484 769.748, 400.184 761.532, 405.883 757.758, 408.501 756.795, 418.455 755.833, 428.408 754.871, 438.362 753.908, 448.315 752.946, 458.269 751.984, 468.222 751.021, 478.176 750.059, 488.130 749.097, 498.083 748.134, 508.037 747.172, 517.990 746.210, 527.944 745.247, 537.898 744.285, 547.851 743.323, 557.805 742.360, 567.758 741.398, 577.712 740.436, 587.666 739.473, 597.619 738.511, 607.573 737.549, 617.526 736.586, 627.480 735.624, 637.433 735.058, 643.289 " />
            <path fill="none" stroke-width="3.0" stroke-linecap="butt" stroke-opacity="1.0" stroke="rgb(0, 0, 0)" stroke-linejoin="round" d=" M 966.951, 788.395 964.497, 778.701 962.043, 769.006 959.589, 759.312 957.136, 749.618 954.682, 739.924 952.228, 730.229 949.774, 720.535 947.320, 710.841 944.866, 701.147 942.413, 691.452 939.959, 681.758 937.505, 672.064 935.051, 662.370 932.597, 652.675 930.221, 643.289 " />
            <path fill="none" stroke-width="3.0" stroke-linecap="butt" stroke-opacity="1.0" stroke="rgb(0, 0, 0)" stroke-linejoin="round" d=" M 930.221, 643.289 920.221, 643.289 910.221, 643.289 900.221, 643.289 890.221, 643.289 880.221, 643.289 870.221, 643.289 860.221, 643.289 850.221, 643.289 840.221, 643.289 830.221, 643.289 820.221, 643.289 810.221, 643.289 800.221, 643.289 790.221, 643.289 780.221, 643.289 770.221, 643.289 760.221, 643.289 750.221, 643.289 740.221, 643.289 735.058, 643.289 737.759, 633.661 740.461, 624.032 743.162, 614.404 745.863, 604.776 748.565, 595.148 751.266, 585.520 753.967, 575.891 756.669, 566.263 759.370, 556.635 762.071, 547.007 764.773, 537.378 767.474, 527.750 770.176, 518.122 772.877, 508.494 775.578, 498.866 778.280, 489.237 780.981, 479.609 783.682, 469.981 786.384, 460.353 789.085, 450.724 791.786, 441.096 794.488, 431.468 797.189, 421.840 799.891, 412.212 800.932, 408.501 " />
            <path fill="none" stroke-width="3.0" stroke-linecap="butt" stroke-opacity="1.0" stroke="rgb(0, 0, 0)" stroke-linejoin="round" d=" M 1073.542, 408.501 1077.546, 417.664 1081.550, 426.827 1085.555, 435.991 1089.559, 445.154 1093.563, 454.317 1097.568, 463.480 1101.572, 472.644 1105.576, 481.807 1109.581, 490.970 1113.585, 500.133 1117.589, 509.297 1121.594, 518.460 1125.598, 527.623 1129.603, 536.786 1133.607, 545.950 1137.611, 555.113 1141.616, 564.276 1145.620, 573.439 1149.624, 582.603 1153.629, 591.766 1157.633, 600.929 1161.637, 610.092 1165.642, 619.256 1169.646, 628.419 1173.650, 637.582 1176.144, 643.289 1166.144, 643.289 1156.144, 643.289 1146.144, 643.289 1136.144, 643.289 1126.144, 643.289 1116.144, 643.289 1106.144, 643.289 1096.144, 643.289 1086.144, 643.289 1076.144, 643.289 1066.144, 643.289 1056.144, 643.289 1046.144, 643.289 1036.144, 643.289 1026.144, 643.289 1016.144, 643.289 1006.144, 643.289 996.144, 643.289 986.144, 643.289 976.144, 643.289 966.144, 643.289 956.144, 643.289 946.144, 643.289 936.144, 643.289 930.221, 643.289 " />
            <path fill="none" stroke-width="3.0" stroke-linecap="butt" stroke-opacity="1.0" stroke="rgb(0, 0, 0)" stroke-linejoin="round" d=" M 1073.542, 408.501 1068.331, 417.036 1063.121, 425.572 1057.911, 434.107 1052.701, 442.643 1047.490, 451.178 1042.280, 459.714 1037.070, 468.249 1031.860, 476.784 1026.649, 485.320 1021.439, 493.855 1016.229, 502.391 1011.019, 510.926 1005.809, 519.461 1000.598, 527.997 995.388, 536.532 990.178, 545.068 984.968, 553.603 979.757, 562.139 974.547, 570.674 969.337, 579.209 964.127, 587.745 958.916, 596.280 953.706, 604.816 948.496, 613.351 943.286, 621.887 938.076, 630.422 932.865, 638.957 930.221, 643.289 925.398, 634.529 920.574, 625.769 915.750, 617.010 910.927, 608.250 906.103, 599.490 901.279, 590.731 896.456, 581.971 891.632, 573.211 886.808, 564.452 881.985, 555.692 877.161, 546.932 872.337, 538.172 867.514, 529.413 862.690, 520.653 857.866, 511.893 853.043, 503.134 848.219, 494.374 843.395, 485.614 838.572, 476.855 833.748, 468.095 828.924, 459.335 824.101, 450.575 819.277, 441.816 814.453, 433.056 809.630, 424.296 804.806, 415.537 800.932, 408.501 " />
            <path fill="none" stroke-width="3.0" stroke-linecap="butt" stroke-opacity="1.0" stroke="rgb(0, 0, 0)" stroke-linejoin="round" d=" M 800.932, 408.501 790.932, 408.501 780.932, 408.501 770.932, 408.501 760.932, 408.501 757.758, 408.501 " />
            <path fill="none" stroke-width="3.0" stroke-linecap="butt" stroke-opacity="1.0" stroke="rgb(0, 0, 0)" stroke-linejoin="round" d=" M 1198.844, 408.501 1188.844, 408.501 1178.844, 408.501 1168.844, 408.501 1158.844, 408.501 1148.844, 408.501 1138.844, 408.501 1128.844, 408.501 1118.844, 408.501 1108.844, 408.501 1098.844, 408.501 1088.844, 408.501 1078.844, 408.501 1073.542, 408.501 " />
            <path fill="none" stroke-width="3.0" stroke-linecap="butt" stroke-opacity="1.0" stroke="rgb(0, 0, 0)" stroke-linejoin="round" d=" M 1073.542, 408.501 1063.542, 408.501 1053.542, 408.501 1043.542, 408.501 1033.542, 408.501 1023.542, 408.501 1013.542, 408.501 1003.542, 408.501 993.542, 408.501 983.542, 408.501 973.542, 408.501 963.542, 408.501 953.542, 408.501 943.542, 408.501 933.542, 408.501 923.542, 408.501 913.542, 408.501 903.542, 408.501 893.542, 408.501 883.542, 408.501 873.542, 408.501 863.542, 408.501 853.542, 408.501 843.542, 408.501 833.542, 408.501 823.542, 408.501 813.542, 408.501 800.932, 408.501 808.461, 401.920 815.990, 395.339 823.520, 388.758 831.049, 382.177 838.579, 375.596 846.108, 369.015 853.637, 362.435 861.167, 355.854 868.696, 349.273 876.226, 342.692 883.755, 336.111 891.284, 329.530 898.814, 322.949 906.343, 316.368 913.872, 309.787 921.402, 303.206 928.931, 296.625 936.461, 290.044 943.990, 283.464 951.519, 276.883 959.049, 270.302 966.951, 263.395 972.871, 271.454 978.791, 279.513 984.711, 287.573 990.631, 295.632 996.552, 303.691 1002.472, 311.751 1008.392, 319.810 1014.312, 327.869 1020.232, 335.929 1026.152, 343.988 1032.072, 352.047 1037.992, 360.106 1043.912, 368.166 1049.833, 376.225 1055.753, 384.284 1061.673, 392.344 1067.593, 400.403 1073.542, 408.501 " />
        </g>
    </g>
</svg>
