<?xml version='1.0' encoding='ascii'?>
<svg xmlns="http://www.w3.org/2000/svg" version="1.1" width="1920" height="1080">
    <g id="ViewLayer_LineSet" xmlns:inkscape="http://www.inkscape.org/namespaces/inkscape" inkscape:groupmode="lineset" inkscape:label="ViewLayer_LineSet">
        <g xmlns:inkscape="http://www.inkscape.org/namespaces/inkscape" inkscape:groupmode="layer" id="strokes" inkscape:label="strokes">
            <path fill="none" stroke-width="3.0" stroke-linecap="butt" stroke-opacity="1.0" stroke="rgb(0, 0, 0)" stroke-linejoin="round" d=" M 960.400, 788.394 968.853, 783.052 977.307, 777.711 985.761, 772.369 994.215, 767.027 1002.669, 761.686 1011.123, 756.344 1019.577, 751.003 1028.030, 745.661 1036.484, 740.320 1044.938, 734.978 1053.392, 729.637 1061.846, 724.295 1070.300, 718.953 1078.754, 713.612 1087.207, 708.270 1095.661, 702.929 1104.115, 697.587 1112.569, 692.246 1121.023, 686.904 1129.477, 681.562 1137.931, 676.221 1146.384, 670.879 1154.838, 665.538 1163.292, 660.196 1171.746, 654.855 1180.200, 649.513 1190.052, 643.288 1189.408, 633.308 1188.763, 623.329 1188.119, 613.350 1187.474, 603.371 1186.829, 593.392 1186.184, 583.412 1185.540, 573.433 1184.895, 563.454 1184.250, 553.475 1183.606, 543.496 1182.961, 533.516 1182.316, 523.537 1181.672, 513.558 1181.027, 503.579 1180.382, 493.600 1179.738, 483.620 1179.093, 473.641 1178.448, 463.662 1177.804, 453.683 1177.159, 443.704 1176.514, 433.724 1175.870, 423.745 1175.225, 413.766 1174.885, 408.500 1166.602, 402.896 1158.320, 397.293 1150.037, 391.689 1141.754, 386.086 1133.472, 380.483 1125.189, 374.879 1116.907, 369.276 1108.624, 363.672 1100.341, 358.069 1092.059, 352.465 1083.776, 346.862 1075.494, 341.258 1067.211, 335.655 1058.928, 330.052 1050.646, 324.448 1042.363, 318.845 1034.081, 313.241 1025.798, 307.638 1017.515, 302.034 1009.233, 296.431 1000.950, 290.828 992.668, 285.224 984.385, 279.621 976.102, 274.017 967.820, 268.414 960.400, 263.394 951.946, 268.735 943.492, 274.077 935.038, 279.418 926.584, 284.760 918.130, 290.102 909.676, 295.443 901.223, 300.785 892.769, 306.126 884.315, 311.468 875.861, 316.809 867.407, 322.151 858.953, 327.492 850.499, 332.834 842.046, 338.176 833.592, 343.517 825.138, 348.859 816.684, 354.200 808.230, 359.542 799.776, 364.883 791.322, 370.225 782.869, 375.567 774.415, 380.908 765.961, 386.250 757.507, 391.591 749.053, 396.933 740.599, 402.274 730.747, 408.500 731.391, 418.479 732.036, 428.458 732.681, 438.437 733.325, 448.417 733.970, 458.396 734.615, 468.375 735.259, 478.354 735.904, 488.333 736.549, 498.313 737.193, 508.292 737.838, 518.271 738.483, 528.250 739.127, 538.229 739.772, 548.209 740.417, 558.188 741.061, 568.167 741.706, 578.146 742.351, 588.125 742.995, 598.105 743.640, 608.084 744.285, 618.063 744.929, 628.042 745.574, 638.021 745.914, 643.288 754.197, 648.891 762.479, 654.495 770.762, 660.098 779.045, 665.701 787.327, 671.305 795.610, 676.908 803.892, 682.512 812.175, 688.115 820.458, 693.719 828.740, 699.322 837.023, 704.926 845.305, 710.529 853.588, 716.132 861.871, 721.736 870.153, 727.339 878.436, 732.943 886.718, 738.546 895.001, 744.150 903.284, 749.753 911.566, 755.356 919.849, 760.960 928.131, 766.563 936.414, 772.167 944.697, 777.770 952.979, 783.374 960.400, 788.394 " />
            <path fill="none" stroke-width="3.0" stroke-linecap="butt" stroke-opacity="1.0" stroke="rgb(0, 0, 0)" stroke-linejoin="round" d=" M 1190.052, 643.288 1180.052, 643.288 1170.052, 643.288 1160.052, 643.288 1150.052, 643.288 1140.052, 643.288 1130.052, 643.288 1120.052, 643.288 1110.052, 643.288 1100.052, 643.288 1090.052, 643.288 1080.052, 643.288 1077.793, 643.288 " />
            <path fill="none" stroke-width="3.0" stroke-linecap="butt" stroke-opacity="1.0" stroke="rgb(0, 0, 0)" stroke-linejoin="round" d=" M 1077.793, 643.288 1071.503, 651.062 1065.214, 658.836 1058.924, 666.611 1052.634, 674.385 1046.345, 682.160 1040.055, 689.934 1033.766, 697.708 1027.476, 705.483 1021.186, 713.257 1014.897, 721.031 1008.607, 728.806 1002.318, 736.580 996.028, 744.355 989.738, 752.129 983.449, 759.903 977.159, 767.678 970.870, 775.452 964.580, 783.226 960.400, 788.394 953.054, 781.609 945.708, 774.824 938.362, 768.039 931.016, 761.254 923.670, 754.469 916.324, 747.683 908.978, 740.898 901.632, 734.113 894.286, 727.328 886.940, 720.543 879.594, 713.758 872.248, 706.973 864.902, 700.188 857.556, 693.403 850.210, 686.618 842.864, 679.833 835.518, 673.048 828.172, 666.263 820.826, 659.478 813.480, 652.693 806.134, 645.908 803.298, 643.288 " />
            <path fill="none" stroke-width="3.0" stroke-linecap="butt" stroke-opacity="1.0" stroke="rgb(0, 0, 0)" stroke-linejoin="round" d=" M 1077.793, 643.288 1067.793, 643.288 1057.793, 643.288 1047.793, 643.288 1037.793, 643.288 1027.793, 643.288 1017.793, 643.288 1007.793, 643.288 997.793, 643.288 987.793, 643.288 977.793, 643.288 967.793, 643.288 957.793, 643.288 947.793, 643.288 937.793, 643.288 927.793, 643.288 917.793, 643.288 907.793, 643.288 897.793, 643.288 887.793, 643.288 877.793, 643.288 867.793, 643.288 857.793, 643.288 847.793, 643.288 837.793, 643.288 827.793, 643.288 817.793, 643.288 807.793, 643.288 803.298, 643.288 " />
            <path fill="none" stroke-width="3.0" stroke-linecap="butt" stroke-opacity="1.0" stroke="rgb(0, 0, 0)" stroke-linejoin="round" d=" M 803.298, 643.288 793.298, 643.288 783.298, 643.288 773.298, 643.288 763.298, 643.288 753.298, 643.288 745.914, 643.288 " />
            <path fill="none" stroke-width="3.0" stroke-linecap="butt" stroke-opacity="1.0" stroke="rgb(0, 0, 0)" stroke-linejoin="round" d=" M 935.859, 408.500 945.859, 408.500 955.859, 408.500 965.859, 408.500 975.859, 408.500 985.859, 408.500 995.859, 408.500 1005.859, 408.500 1015.859, 408.500 1025.859, 408.500 1035.859, 408.500 1045.859, 408.500 1055.859, 408.500 1065.859, 408.500 1075.859, 408.500 1085.859, 408.500 1095.859, 408.500 1105.859, 408.500 1115.859, 408.500 1125.859, 408.500 1135.859, 408.500 1145.859, 408.500 1155.859, 408.500 1165.859, 408.500 1174.885, 408.500 1171.063, 417.741 1167.242, 426.982 1163.420, 436.223 1159.599, 445.464 1155.778, 454.705 1151.956, 463.946 1148.135, 473.187 1144.313, 482.428 1140.492, 491.669 1136.670, 500.910 1132.849, 510.151 1129.027, 519.392 1125.206, 528.633 1121.385, 537.874 1117.563, 547.115 1113.742, 556.356 1109.920, 565.597 1106.099, 574.838 1102.277, 584.079 1098.456, 593.320 1094.634, 602.561 1090.813, 611.802 1086.991, 621.043 1083.170, 630.284 1079.349, 639.525 1077.793, 643.288 1072.619, 634.730 1067.446, 626.172 1062.273, 617.614 1057.099, 609.056 1051.926, 600.499 1046.753, 591.941 1041.579, 583.383 1036.406, 574.825 1031.233, 566.267 1026.059, 557.709 1020.886, 549.152 1015.712, 540.594 1010.539, 532.036 1005.366, 523.478 1000.192, 514.920 995.019, 506.363 989.846, 497.805 984.672, 489.247 979.499, 480.689 974.326, 472.131 969.152, 463.573 963.979, 455.016 958.805, 446.458 953.632, 437.900 948.459, 429.342 943.285, 420.784 938.112, 412.227 935.859, 408.500 " />
            <path fill="none" stroke-width="3.0" stroke-linecap="butt" stroke-opacity="1.0" stroke="rgb(0, 0, 0)" stroke-linejoin="round" d=" M 935.859, 408.500 930.943, 417.208 926.026, 425.916 921.110, 434.624 916.193, 443.332 911.277, 452.039 906.360, 460.747 901.444, 469.455 896.527, 478.163 891.611, 486.871 886.694, 495.579 881.778, 504.287 876.861, 512.995 871.945, 521.703 867.028, 530.411 862.112, 539.119 857.195, 547.827 852.279, 556.535 847.362, 565.242 842.446, 573.950 837.529, 582.658 832.613, 591.366 827.696, 600.074 822.780, 608.782 817.863, 617.490 812.947, 626.198 808.030, 634.906 803.298, 643.288 800.345, 633.733 797.393, 624.179 794.441, 614.625 791.488, 605.071 788.536, 595.516 785.584, 585.962 782.631, 576.408 779.679, 566.854 776.727, 557.299 773.774, 547.745 770.822, 538.191 767.870, 528.637 764.917, 519.082 761.965, 509.528 759.013, 499.974 756.060, 490.420 753.108, 480.865 750.156, 471.311 747.203, 461.757 744.251, 452.203 741.299, 442.648 738.346, 433.094 735.394, 423.540 732.442, 413.986 730.747, 408.500 740.747, 408.500 750.747, 408.500 760.747, 408.500 770.747, 408.500 780.747, 408.500 790.747, 408.500 800.747, 408.500 810.747, 408.500 820.747, 408.500 830.747, 408.500 840.747, 408.500 850.747, 408.500 860.747, 408.500 870.747, 408.500 880.747, 408.500 890.747, 408.500 900.747, 408.500 910.747, 408.500 920.747, 408.500 930.747, 408.500 935.859, 408.500 937.527, 398.640 939.194, 388.780 940.862, 378.920 942.529, 369.060 944.197, 359.200 945.864, 349.340 947.532, 339.480 949.199, 329.620 950.867, 319.760 952.534, 309.900 954.202, 300.040 955.869, 290.180 957.537, 280.320 959.204, 270.460 960.400, 263.394 " />
        </g>
    </g>
</svg>
