<?xml version='1.0' encoding='ascii'?>
<svg xmlns="http://www.w3.org/2000/svg" version="1.1" width="1920" height="1080">
    <g id="ViewLayer_LineSet" xmlns:inkscape="http://www.inkscape.org/namespaces/inkscape" inkscape:groupmode="lineset" inkscape:label="ViewLayer_LineSet">
        <g xmlns:inkscape="http://www.inkscape.org/namespaces/inkscape" inkscape:groupmode="layer" id="strokes" inkscape:label="strokes">
            <path fill="none" stroke-width="3.0" stroke-linecap="butt" stroke-opacity="1.0" stroke="rgb(0, 0, 0)" stroke-linejoin="round" d=" M 964.882, 788.395 957.055, 782.171 949.229, 775.946 941.402, 769.722 933.575, 763.498 925.749, 757.273 917.922, 751.049 910.095, 744.824 902.269, 738.600 894.442, 732.376 886.615, 726.151 878.788, 719.927 870.962, 713.703 863.135, 707.478 855.308, 701.254 847.482, 695.030 839.655, 688.805 831.828, 682.581 824.002, 676.356 816.175, 670.132 808.348, 663.908 800.521, 657.683 792.695, 651.459 784.868, 645.235 782.422, 643.289 " />
            <path fill="none" stroke-width="3.0" stroke-linecap="butt" stroke-opacity="1.0" stroke="rgb(0, 0, 0)" stroke-linejoin="round" d=" M 782.422, 643.289 772.422, 643.289 767.975, 643.289 " />
            <path fill="none" stroke-width="3.0" stroke-linecap="butt" stroke-opacity="1.0" stroke="rgb(0, 0, 0)" stroke-linejoin="round" d=" M 767.975, 643.289 776.026, 649.221 784.076, 655.154 792.126, 661.086 800.176, 667.019 808.227, 672.951 816.277, 678.884 824.327, 684.816 832.377, 690.748 840.427, 696.681 848.478, 702.613 856.528, 708.546 864.578, 714.478 872.628, 720.411 880.679, 726.343 888.729, 732.276 896.779, 738.208 904.829, 744.140 912.879, 750.073 920.930, 756.005 928.980, 761.938 937.030, 767.870 945.080, 773.803 953.131, 779.735 961.181, 785.667 964.882, 788.395 973.385, 783.132 981.889, 777.870 990.392, 772.607 998.895, 767.345 1007.398, 762.082 1015.902, 756.820 1024.405, 751.557 1032.908, 746.294 1041.411, 741.032 1049.915, 735.769 1058.418, 730.507 1066.921, 725.244 1075.424, 719.982 1083.928, 714.719 1092.431, 709.456 1100.934, 704.194 1109.438, 698.931 1117.941, 693.669 1126.444, 688.406 1134.947, 683.144 1143.451, 677.881 1151.954, 672.618 1160.457, 667.356 1168.960, 662.093 1177.464, 656.831 1185.967, 651.568 1194.470, 646.306 1199.344, 643.289 1197.765, 633.414 1196.185, 623.540 1194.606, 613.666 1193.026, 603.791 1191.447, 593.917 1189.868, 584.042 1188.288, 574.168 1186.709, 564.293 1185.129, 554.419 1183.550, 544.544 1181.970, 534.670 1180.391, 524.795 1178.811, 514.921 1177.232, 505.046 1175.652, 495.172 1174.073, 485.297 1172.493, 475.423 1170.914, 465.548 1169.334, 455.674 1167.755, 445.799 1166.176, 435.925 1164.596, 426.050 1163.017, 416.176 1161.789, 408.501 1153.739, 402.569 1145.689, 396.636 1137.638, 390.704 1129.588, 384.771 1121.538, 378.839 1113.488, 372.906 1105.437, 366.974 1097.387, 361.042 1089.337, 355.109 1081.287, 349.177 1073.236, 343.244 1065.186, 337.312 1057.136, 331.379 1049.086, 325.447 1041.036, 319.515 1032.985, 313.582 1024.935, 307.650 1016.885, 301.717 1008.835, 295.785 1000.784, 289.852 992.734, 283.920 984.684, 277.987 976.634, 272.055 968.583, 266.123 964.882, 263.395 956.379, 268.658 947.876, 273.920 939.372, 279.183 930.869, 284.445 922.366, 289.708 913.863, 294.970 905.359, 300.233 896.856, 305.496 888.353, 310.758 879.850, 316.021 871.346, 321.283 862.843, 326.546 854.340, 331.808 845.837, 337.071 837.333, 342.334 828.830, 347.596 820.327, 352.859 811.824, 358.121 803.320, 363.384 794.817, 368.646 786.314, 373.909 777.811, 379.172 769.307, 384.434 760.804, 389.697 752.301, 394.959 743.798, 400.222 735.294, 405.484 730.420, 408.501 732.000, 418.376 733.579, 428.250 735.158, 438.125 736.738, 447.999 738.317, 457.873 739.897, 467.748 741.476, 477.622 743.056, 487.497 744.635, 497.371 746.215, 507.246 747.794, 517.120 749.374, 526.995 750.953, 536.869 752.533, 546.744 754.112, 556.618 755.691, 566.493 757.271, 576.367 758.850, 586.242 760.430, 596.116 762.009, 605.991 763.589, 615.865 765.168, 625.740 766.748, 635.614 767.975, 643.289 " />
            <path fill="none" stroke-width="3.0" stroke-linecap="butt" stroke-opacity="1.0" stroke="rgb(0, 0, 0)" stroke-linejoin="round" d=" M 964.882, 788.395 969.898, 779.744 974.914, 771.093 979.931, 762.442 984.947, 753.791 989.963, 745.140 994.979, 736.489 999.995, 727.839 1005.011, 719.188 1010.027, 710.537 1015.043, 701.886 1020.060, 693.235 1025.076, 684.584 1030.092, 675.933 1035.108, 667.282 1040.124, 658.631 1045.140, 649.980 1049.020, 643.289 " />
            <path fill="none" stroke-width="3.0" stroke-linecap="butt" stroke-opacity="1.0" stroke="rgb(0, 0, 0)" stroke-linejoin="round" d=" M 1049.020, 643.289 1039.020, 643.289 1029.020, 643.289 1019.020, 643.289 1009.020, 643.289 999.020, 643.289 989.020, 643.289 979.020, 643.289 969.020, 643.289 959.020, 643.289 949.020, 643.289 939.020, 643.289 929.020, 643.289 919.020, 643.289 909.020, 643.289 899.020, 643.289 889.020, 643.289 879.020, 643.289 869.020, 643.289 859.020, 643.289 849.020, 643.289 839.020, 643.289 829.020, 643.289 819.020, 643.289 809.020, 643.289 799.020, 643.289 789.020, 643.289 782.422, 643.289 " />
            <path fill="none" stroke-width="3.0" stroke-linecap="butt" stroke-opacity="1.0" stroke="rgb(0, 0, 0)" stroke-linejoin="round" d=" M 1199.344, 643.289 1189.344, 643.289 1179.344, 643.289 1169.344, 643.289 1159.344, 643.289 1149.344, 643.289 1139.344, 643.289 1129.344, 643.289 1119.344, 643.289 1109.344, 643.289 1099.344, 643.289 1089.344, 643.289 1079.344, 643.289 1069.344, 643.289 1059.344, 643.289 1049.020, 643.289 " />
            <path fill="none" stroke-width="3.0" stroke-linecap="butt" stroke-opacity="1.0" stroke="rgb(0, 0, 0)" stroke-linejoin="round" d=" M 904.115, 408.501 914.115, 408.501 924.115, 408.501 934.115, 408.501 944.115, 408.501 954.115, 408.501 964.115, 408.501 974.115, 408.501 984.115, 408.501 994.115, 408.501 1004.115, 408.501 1014.115, 408.501 1024.115, 408.501 1034.115, 408.501 1044.115, 408.501 1054.115, 408.501 1064.115, 408.501 1074.115, 408.501 1084.115, 408.501 1094.115, 408.501 1104.115, 408.501 1114.115, 408.501 1124.115, 408.501 1134.115, 408.501 1144.115, 408.501 1154.115, 408.501 1161.789, 408.501 1157.459, 417.515 1153.130, 426.529 1148.800, 435.544 1144.471, 444.558 1140.141, 453.572 1135.812, 462.586 1131.482, 471.600 1127.153, 480.614 1122.823, 489.629 1118.494, 498.643 1114.164, 507.657 1109.835, 516.671 1105.505, 525.685 1101.176, 534.699 1096.846, 543.714 1092.517, 552.728 1088.187, 561.742 1083.858, 570.756 1079.528, 579.770 1075.199, 588.784 1070.869, 597.799 1066.540, 606.813 1062.210, 615.827 1057.880, 624.841 1053.551, 633.855 1049.020, 643.289 1043.768, 634.779 1038.516, 626.269 1033.264, 617.760 1028.012, 609.250 1022.760, 600.740 1017.508, 592.230 1012.256, 583.720 1007.004, 575.211 1001.752, 566.701 996.500, 558.191 991.248, 549.681 985.996, 541.172 980.744, 532.662 975.492, 524.152 970.240, 515.642 964.988, 507.133 959.736, 498.623 954.484, 490.113 949.232, 481.603 943.980, 473.093 938.728, 464.584 933.476, 456.074 928.224, 447.564 922.972, 439.054 917.720, 430.544 912.468, 422.035 907.216, 413.525 904.115, 408.501 " />
            <path fill="none" stroke-width="3.0" stroke-linecap="butt" stroke-opacity="1.0" stroke="rgb(0, 0, 0)" stroke-linejoin="round" d=" M 904.115, 408.501 899.513, 417.379 894.911, 426.258 890.310, 435.136 885.708, 444.014 881.106, 452.893 876.505, 461.771 871.903, 470.649 867.301, 479.527 862.699, 488.406 858.098, 497.284 853.496, 506.162 848.894, 515.041 844.292, 523.919 839.691, 532.797 835.089, 541.675 830.487, 550.554 825.886, 559.432 821.284, 568.310 816.682, 577.189 812.080, 586.067 807.479, 594.945 802.877, 603.824 798.275, 612.702 793.673, 621.580 789.072, 630.458 784.470, 639.337 782.422, 643.289 780.259, 633.526 778.097, 623.762 775.934, 613.999 773.772, 604.235 771.609, 594.472 769.447, 584.709 767.285, 574.945 765.122, 565.182 762.960, 555.418 760.797, 545.655 758.635, 535.892 756.472, 526.128 754.310, 516.365 752.148, 506.601 749.985, 496.838 747.823, 487.075 745.660, 477.311 743.498, 467.548 741.336, 457.784 739.173, 448.021 737.011, 438.258 734.848, 428.494 732.686, 418.731 730.420, 408.501 740.420, 408.501 750.420, 408.501 760.420, 408.501 770.420, 408.501 780.420, 408.501 790.420, 408.501 800.420, 408.501 810.420, 408.501 820.420, 408.501 830.420, 408.501 840.420, 408.501 850.420, 408.501 860.420, 408.501 870.420, 408.501 880.420, 408.501 890.420, 408.501 900.420, 408.501 904.115, 408.501 907.978, 399.277 911.840, 390.053 915.703, 380.830 919.566, 371.606 923.429, 362.382 927.291, 353.158 931.154, 343.934 935.017, 334.710 938.880, 325.487 942.742, 316.263 946.605, 307.039 950.468, 297.815 954.331, 288.591 958.193, 279.367 962.056, 270.143 964.882, 263.395 " />
        </g>
    </g>
</svg>
