<?xml version='1.0' encoding='ascii'?>
<svg xmlns="http://www.w3.org/2000/svg" version="1.1" width="1920" height="1080">
    <g id="ViewLayer_LineSet" xmlns:inkscape="http://www.inkscape.org/namespaces/inkscape" inkscape:groupmode="lineset" inkscape:label="ViewLayer_LineSet">
        <g xmlns:inkscape="http://www.inkscape.org/namespaces/inkscape" inkscape:groupmode="layer" id="strokes" inkscape:label="strokes">
            <path fill="none" stroke-width="3.0" stroke-linecap="butt" stroke-opacity="1.0" stroke="rgb(0, 0, 0)" stroke-linejoin="round" d=" M 751.639, 643.289 759.922, 648.892 768.205, 654.496 776.487, 660.099 784.770, 665.703 793.052, 671.306 801.335, 676.909 809.618, 682.513 817.900, 688.116 826.183, 693.720 834.465, 699.323 842.748, 704.927 851.031, 710.530 859.313, 716.134 867.596, 721.737 875.878, 727.340 884.161, 732.944 892.444, 738.547 900.726, 744.151 909.009, 749.754 917.291, 755.358 925.574, 760.961 933.857, 766.564 942.139, 772.168 950.422, 777.771 958.704, 783.375 966.125, 788.395 974.579, 783.053 983.032, 777.712 991.486, 772.370 999.940, 767.029 1008.394, 761.687 1016.848, 756.345 1025.302, 751.004 1033.756, 745.662 1042.209, 740.321 1050.663, 734.979 1059.117, 729.638 1067.571, 724.296 1076.025, 718.955 1084.479, 713.613 1092.933, 708.271 1101.386, 702.930 1109.840, 697.588 1118.294, 692.247 1126.748, 686.905 1135.202, 681.564 1143.656, 676.222 1152.110, 670.880 1160.563, 665.539 1169.017, 660.197 1177.471, 654.856 1185.925, 649.514 1195.778, 643.289 1195.133, 633.310 1194.488, 623.330 1193.844, 613.351 1193.199, 603.372 1192.554, 593.393 1191.910, 583.414 1191.265, 573.434 1190.620, 563.455 1189.976, 553.476 1189.331, 543.497 1188.686, 533.518 1188.042, 523.538 1187.397, 513.559 1186.752, 503.580 1186.108, 493.601 1185.463, 483.622 1184.818, 473.642 1184.174, 463.663 1183.529, 453.684 1182.884, 443.705 1182.240, 433.726 1181.595, 423.746 1180.950, 413.767 1180.610, 408.501 1172.328, 402.898 1164.045, 397.294 1155.762, 391.691 1147.480, 386.087 1139.197, 380.484 1130.915, 374.880 1122.632, 369.277 1114.349, 363.673 1106.067, 358.070 1097.784, 352.467 1089.502, 346.863 1081.219, 341.260 1072.936, 335.656 1064.654, 330.053 1056.371, 324.449 1048.089, 318.846 1039.806, 313.242 1031.523, 307.639 1023.241, 302.036 1014.958, 296.432 1006.676, 290.829 998.393, 285.225 990.110, 279.622 981.828, 274.018 973.545, 268.415 966.125, 263.395 957.671, 268.736 949.217, 274.078 940.763, 279.420 932.309, 284.761 923.856, 290.103 915.402, 295.444 906.948, 300.786 898.494, 306.127 890.040, 311.469 881.586, 316.810 873.132, 322.152 864.679, 327.494 856.225, 332.835 847.771, 338.177 839.317, 343.518 830.863, 348.860 822.409, 354.201 813.955, 359.543 805.502, 364.885 797.048, 370.226 788.594, 375.568 780.140, 380.909 771.686, 386.251 763.232, 391.592 754.778, 396.934 746.325, 402.276 736.472, 408.501 737.117, 418.480 737.761, 428.459 738.406, 438.438 739.051, 448.418 739.695, 458.397 740.340, 468.376 740.985, 478.355 741.629, 488.334 742.274, 498.314 742.919, 508.293 743.563, 518.272 744.208, 528.251 744.853, 538.230 745.497, 548.210 746.142, 558.189 746.787, 568.168 747.431, 578.147 748.076, 588.126 748.721, 598.106 749.365, 608.085 750.010, 618.064 750.655, 628.043 751.299, 638.022 751.639, 643.289 " />
            <path fill="none" stroke-width="3.0" stroke-linecap="butt" stroke-opacity="1.0" stroke="rgb(0, 0, 0)" stroke-linejoin="round" d=" M 966.125, 788.395 967.792, 778.535 969.460, 768.675 971.127, 758.815 972.795, 748.955 974.462, 739.095 976.130, 729.235 977.797, 719.375 979.465, 709.515 981.132, 699.655 982.800, 689.795 984.467, 679.935 986.135, 670.075 987.803, 660.215 989.470, 650.355 990.665, 643.289 " />
            <path fill="none" stroke-width="3.0" stroke-linecap="butt" stroke-opacity="1.0" stroke="rgb(0, 0, 0)" stroke-linejoin="round" d=" M 990.665, 643.289 980.665, 643.289 970.665, 643.289 960.665, 643.289 950.665, 643.289 940.665, 643.289 930.665, 643.289 920.665, 643.289 910.665, 643.289 900.665, 643.289 890.665, 643.289 880.665, 643.289 870.665, 643.289 860.665, 643.289 850.665, 643.289 840.665, 643.289 830.665, 643.289 820.665, 643.289 810.665, 643.289 800.665, 643.289 790.665, 643.289 780.665, 643.289 770.665, 643.289 760.665, 643.289 751.639, 643.289 755.461, 634.048 759.282, 624.807 763.104, 615.566 766.925, 606.325 770.747, 597.084 774.568, 587.843 778.390, 578.602 782.211, 569.361 786.033, 560.120 789.854, 550.879 793.675, 541.638 797.497, 532.396 801.318, 523.155 805.140, 513.914 808.961, 504.673 812.783, 495.432 816.604, 486.191 820.426, 476.950 824.247, 467.709 828.068, 458.468 831.890, 449.227 835.711, 439.986 839.533, 430.745 843.354, 421.504 847.176, 412.263 848.732, 408.501 " />
            <path fill="none" stroke-width="3.0" stroke-linecap="butt" stroke-opacity="1.0" stroke="rgb(0, 0, 0)" stroke-linejoin="round" d=" M 1123.227, 408.501 1126.179, 418.055 1129.131, 427.609 1132.084, 437.164 1135.036, 446.718 1137.988, 456.272 1140.941, 465.826 1143.893, 475.381 1146.845, 484.935 1149.798, 494.489 1152.750, 504.043 1155.702, 513.598 1158.655, 523.152 1161.607, 532.706 1164.559, 542.260 1167.512, 551.815 1170.464, 561.369 1173.416, 570.923 1176.369, 580.478 1179.321, 590.032 1182.273, 599.586 1185.226, 609.140 1188.178, 618.694 1191.130, 628.249 1194.083, 637.803 1195.778, 643.289 1185.778, 643.289 1175.778, 643.289 1165.778, 643.289 1155.778, 643.289 1145.778, 643.289 1135.778, 643.289 1125.778, 643.289 1115.778, 643.289 1105.778, 643.289 1095.778, 643.289 1085.778, 643.289 1075.778, 643.289 1065.778, 643.289 1055.778, 643.289 1045.778, 643.289 1035.778, 643.289 1025.778, 643.289 1015.778, 643.289 1005.778, 643.289 995.778, 643.289 990.665, 643.289 " />
            <path fill="none" stroke-width="3.0" stroke-linecap="butt" stroke-opacity="1.0" stroke="rgb(0, 0, 0)" stroke-linejoin="round" d=" M 1123.227, 408.501 1118.310, 417.209 1113.394, 425.917 1108.477, 434.625 1103.561, 443.333 1098.644, 452.041 1093.728, 460.748 1088.811, 469.456 1083.895, 478.164 1078.978, 486.872 1074.062, 495.580 1069.145, 504.288 1064.229, 512.996 1059.312, 521.704 1054.396, 530.412 1049.479, 539.120 1044.563, 547.828 1039.646, 556.536 1034.730, 565.244 1029.813, 573.952 1024.896, 582.659 1019.980, 591.367 1015.064, 600.075 1010.147, 608.783 1005.231, 617.491 1000.314, 626.199 995.398, 634.907 990.665, 643.289 985.492, 634.731 980.318, 626.173 975.145, 617.615 969.972, 609.057 964.798, 600.500 959.625, 591.942 954.452, 583.384 949.278, 574.826 944.105, 566.268 938.931, 557.711 933.758, 549.153 928.585, 540.595 923.411, 532.037 918.238, 523.479 913.065, 514.921 907.891, 506.364 902.718, 497.806 897.545, 489.248 892.371, 480.690 887.198, 472.132 882.025, 463.575 876.851, 455.017 871.678, 446.459 866.504, 437.901 861.331, 429.343 856.158, 420.785 850.984, 412.228 848.732, 408.501 " />
            <path fill="none" stroke-width="3.0" stroke-linecap="butt" stroke-opacity="1.0" stroke="rgb(0, 0, 0)" stroke-linejoin="round" d=" M 848.732, 408.501 838.732, 408.501 828.732, 408.501 818.732, 408.501 808.732, 408.501 798.732, 408.501 788.732, 408.501 778.732, 408.501 768.732, 408.501 758.732, 408.501 748.732, 408.501 738.732, 408.501 736.472, 408.501 " />
            <path fill="none" stroke-width="3.0" stroke-linecap="butt" stroke-opacity="1.0" stroke="rgb(0, 0, 0)" stroke-linejoin="round" d=" M 1180.610, 408.501 1170.610, 408.501 1160.610, 408.501 1150.610, 408.501 1140.610, 408.501 1130.610, 408.501 1123.227, 408.501 " />
            <path fill="none" stroke-width="3.0" stroke-linecap="butt" stroke-opacity="1.0" stroke="rgb(0, 0, 0)" stroke-linejoin="round" d=" M 1123.227, 408.501 1113.227, 408.501 1103.227, 408.501 1093.227, 408.501 1083.227, 408.501 1073.227, 408.501 1063.227, 408.501 1053.227, 408.501 1043.227, 408.501 1033.227, 408.501 1023.227, 408.501 1013.227, 408.501 1003.227, 408.501 993.227, 408.501 983.227, 408.501 973.227, 408.501 963.227, 408.501 953.227, 408.501 943.227, 408.501 933.227, 408.501 923.227, 408.501 913.227, 408.501 903.227, 408.501 893.227, 408.501 883.227, 408.501 873.227, 408.501 863.227, 408.501 853.227, 408.501 848.732, 408.501 855.021, 400.727 861.311, 392.952 867.600, 385.178 873.890, 377.403 880.180, 369.629 886.469, 361.855 892.759, 354.080 899.048, 346.306 905.338, 338.532 911.628, 330.757 917.917, 322.983 924.207, 315.208 930.496, 307.434 936.786, 299.660 943.076, 291.885 949.365, 284.111 955.655, 276.337 961.944, 268.562 966.125, 263.395 973.471, 270.180 980.817, 276.965 988.163, 283.750 995.509, 290.535 1002.855, 297.320 1010.201, 304.105 1017.547, 310.890 1024.892, 317.675 1032.239, 324.460 1039.584, 331.245 1046.930, 338.030 1054.276, 344.815 1061.622, 351.600 1068.968, 358.385 1076.314, 365.171 1083.660, 371.956 1091.006, 378.741 1098.352, 385.526 1105.698, 392.311 1113.044, 399.096 1120.390, 405.881 1123.227, 408.501 " />
        </g>
    </g>
</svg>
