<?xml version='1.0' encoding='ascii'?>
<svg xmlns="http://www.w3.org/2000/svg" version="1.1" width="1920" height="1080">
    <g id="ViewLayer_LineSet" xmlns:inkscape="http://www.inkscape.org/namespaces/inkscape" inkscape:groupmode="lineset" inkscape:label="ViewLayer_LineSet">
        <g xmlns:inkscape="http://www.inkscape.org/namespaces/inkscape" inkscape:groupmode="layer" id="strokes" inkscape:label="strokes">
            <path fill="none" stroke-width="3.0" stroke-linecap="butt" stroke-opacity="1.0" stroke="rgb(0, 0, 0)" stroke-linejoin="round" d=" M 709.348, 544.610 706.450, 554.181 703.552, 563.751 700.654, 573.322 697.756, 582.893 694.859, 592.464 691.961, 602.035 689.063, 611.606 687.663, 616.229 696.787, 620.321 705.911, 624.414 715.036, 628.506 724.160, 632.599 733.284, 636.691 742.408, 640.783 751.533, 644.876 760.657, 648.968 769.781, 653.061 778.905, 657.153 788.030, 661.246 797.154, 665.338 806.278, 669.431 815.402, 673.523 824.527, 677.615 833.651, 681.708 842.775, 685.800 851.899, 689.893 861.024, 693.985 870.148, 698.078 879.272, 702.170 881.346, 703.100 890.341, 698.730 899.335, 694.360 908.330, 689.990 917.324, 685.620 926.319, 681.250 935.314, 676.880 944.308, 672.510 953.303, 668.140 962.297, 663.770 971.292, 659.399 980.286, 655.029 989.281, 650.659 998.276, 646.289 1007.270, 641.919 1016.265, 637.549 1025.259, 633.179 1034.254, 628.809 1043.248, 624.439 1052.243, 620.069 1061.238, 615.699 1070.232, 611.328 1079.227, 606.958 1088.221, 602.588 1097.216, 598.218 1106.210, 593.848 1115.205, 589.478 1124.200, 585.108 1133.194, 580.738 1142.189, 576.368 1151.183, 571.998 1160.178, 567.628 1169.172, 563.258 1178.167, 558.887 1187.162, 554.517 1196.156, 550.147 1207.554, 544.610 1198.559, 540.240 1189.564, 535.870 1180.570, 531.500 1171.575, 527.129 1162.581, 522.759 1153.586, 518.389 1144.592, 514.019 1135.597, 509.649 1126.602, 505.279 1117.608, 500.909 1108.613, 496.539 1099.619, 492.169 1090.624, 487.799 1081.630, 483.429 1072.635, 479.058 1063.641, 474.688 1054.646, 470.318 1045.651, 465.948 1036.657, 461.578 1027.662, 457.208 1018.668, 452.838 1009.673, 448.468 1000.678, 444.098 991.684, 439.728 982.689, 435.358 973.695, 430.987 964.700, 426.617 955.706, 422.247 946.711, 417.877 937.716, 413.507 928.722, 409.137 919.727, 404.767 910.733, 400.397 901.738, 396.027 892.744, 391.657 881.346, 386.119 872.222, 390.212 863.098, 394.304 853.973, 398.396 844.849, 402.489 835.725, 406.581 826.601, 410.674 817.476, 414.766 808.352, 418.859 799.228, 422.951 790.104, 427.044 780.979, 431.136 771.855, 435.228 762.731, 439.321 753.607, 443.413 744.482, 447.506 735.358, 451.598 726.234, 455.691 717.110, 459.783 707.985, 463.875 698.861, 467.968 689.737, 472.060 687.663, 472.991 690.561, 482.562 693.459, 492.132 696.357, 501.703 699.255, 511.274 702.153, 520.845 705.051, 530.416 707.949, 539.987 709.348, 544.610 712.246, 554.181 715.144, 563.751 715.655, 565.438 718.553, 575.009 721.451, 584.580 724.349, 594.151 727.134, 603.348 737.134, 603.348 747.134, 603.348 757.134, 603.348 767.134, 603.348 777.134, 603.348 787.134, 603.348 797.134, 603.348 807.134, 603.348 817.134, 603.348 827.134, 603.348 837.134, 603.348 847.134, 603.348 857.134, 603.348 867.134, 603.348 877.134, 603.348 881.346, 603.348 881.346, 603.348 " />
            <path fill="none" stroke-width="3.0" stroke-linecap="butt" stroke-opacity="1.0" stroke="rgb(0, 0, 0)" stroke-linejoin="round" d=" M 727.134, 603.348 732.922, 595.194 738.711, 587.040 744.500, 578.886 750.288, 570.732 756.077, 562.577 761.866, 554.423 767.655, 546.269 773.443, 538.115 779.232, 529.961 785.021, 521.807 790.809, 513.652 796.598, 505.498 802.387, 497.344 808.176, 489.190 813.964, 481.036 819.753, 472.881 825.542, 464.727 831.330, 456.573 837.119, 448.419 842.908, 440.265 848.697, 432.110 854.485, 423.956 860.274, 415.802 866.063, 407.648 871.852, 399.494 877.640, 391.340 881.346, 386.119 881.346, 396.119 881.346, 406.119 881.346, 416.119 881.346, 426.119 881.346, 436.119 881.346, 446.119 881.346, 456.119 881.346, 466.119 881.346, 476.119 881.346, 486.119 881.346, 496.119 881.346, 506.119 881.346, 516.119 881.346, 526.119 881.346, 536.119 881.346, 546.119 881.346, 556.119 881.346, 566.119 881.346, 576.119 881.346, 586.119 881.346, 596.119 881.346, 603.348 " />
            <path fill="none" stroke-width="3.0" stroke-linecap="butt" stroke-opacity="1.0" stroke="rgb(0, 0, 0)" stroke-linejoin="round" d=" M 687.663, 616.229 697.169, 613.126 706.676, 610.024 716.183, 606.922 725.689, 603.820 727.134, 603.348 735.530, 608.780 743.927, 614.211 752.323, 619.642 760.720, 625.073 769.116, 630.505 777.513, 635.936 785.909, 641.367 794.306, 646.798 802.702, 652.230 811.099, 657.661 819.495, 663.092 827.892, 668.523 836.288, 673.955 844.685, 679.386 853.081, 684.817 861.478, 690.249 869.874, 695.680 878.271, 701.111 881.346, 703.100 881.346, 693.100 881.346, 683.100 881.346, 673.100 881.346, 663.100 881.346, 653.100 881.346, 643.100 881.346, 633.100 881.346, 623.100 881.346, 613.100 881.346, 603.348 891.188, 601.576 901.030, 599.804 910.871, 598.032 920.713, 596.260 930.555, 594.488 940.396, 592.715 950.238, 590.943 960.080, 589.171 969.922, 587.399 979.763, 585.627 989.605, 583.855 999.447, 582.083 1009.289, 580.310 1019.130, 578.538 1028.972, 576.766 1038.814, 574.994 1048.655, 573.222 1058.497, 571.450 1068.339, 569.677 1078.181, 567.905 1088.022, 566.133 1097.864, 564.361 1107.706, 562.589 1117.547, 560.817 1127.389, 559.045 1137.231, 557.272 1147.073, 555.500 1156.914, 553.728 1166.756, 551.956 1176.598, 550.184 1186.440, 548.412 1196.281, 546.640 1207.554, 544.610 " />
            <path fill="none" stroke-width="3.0" stroke-linecap="butt" stroke-opacity="1.0" stroke="rgb(0, 0, 0)" stroke-linejoin="round" d=" M 687.663, 616.229 692.490, 607.471 697.316, 598.713 702.143, 589.955 706.970, 581.197 711.796, 572.439 715.655, 565.438 " />
        </g>
    </g>
</svg>
