<?xml version='1.0' encoding='ascii'?>
<svg xmlns="http://www.w3.org/2000/svg" version="1.1" width="1920" height="1080">
    <g id="ViewLayer_LineSet" xmlns:inkscape="http://www.inkscape.org/namespaces/inkscape" inkscape:groupmode="lineset" inkscape:label="ViewLayer_LineSet">
        <g xmlns:inkscape="http://www.inkscape.org/namespaces/inkscape" inkscape:groupmode="layer" id="strokes" inkscape:label="strokes">
            <path fill="none" stroke-width="3.0" stroke-linecap="butt" stroke-opacity="1.0" stroke="rgb(0, 0, 0)" stroke-linejoin="round" d=" M 714.450, 542.529 711.529, 552.093 708.608, 561.657 705.688, 571.221 702.767, 580.785 699.846, 590.349 696.926, 599.913 694.005, 609.477 691.084, 619.041 688.164, 628.605 687.663, 630.244 696.428, 635.059 705.192, 639.873 713.957, 644.688 722.722, 649.503 731.486, 654.317 740.251, 659.132 749.016, 663.947 757.780, 668.761 766.545, 673.576 775.310, 678.391 784.074, 683.205 792.839, 688.020 801.604, 692.835 810.368, 697.649 819.133, 702.464 827.897, 707.279 836.662, 712.093 845.427, 716.908 854.191, 721.723 862.956, 726.537 871.721, 731.352 881.346, 736.639 889.940, 731.526 898.534, 726.412 907.127, 721.298 915.721, 716.185 924.314, 711.071 932.908, 705.958 941.502, 700.844 950.095, 695.730 958.689, 690.617 967.283, 685.503 975.876, 680.389 984.470, 675.276 993.063, 670.162 1001.657, 665.048 1010.251, 659.935 1018.844, 654.821 1027.438, 649.707 1036.032, 644.594 1044.625, 639.480 1053.219, 634.366 1061.812, 629.253 1070.406, 624.139 1079.000, 619.025 1087.593, 613.912 1096.187, 608.798 1104.781, 603.684 1113.374, 598.571 1121.968, 593.457 1130.562, 588.343 1139.155, 583.230 1147.749, 578.116 1156.342, 573.002 1164.936, 567.889 1173.530, 562.775 1182.123, 557.661 1190.717, 552.548 1199.311, 547.434 1207.554, 542.529 1198.960, 537.415 1190.366, 532.302 1181.773, 527.188 1173.179, 522.074 1164.586, 516.961 1155.992, 511.847 1147.398, 506.733 1138.805, 501.620 1130.211, 496.506 1121.617, 491.392 1113.024, 486.279 1104.430, 481.165 1095.837, 476.051 1087.243, 470.938 1078.649, 465.824 1070.056, 460.711 1061.462, 455.597 1052.868, 450.483 1044.275, 445.370 1035.681, 440.256 1027.088, 435.142 1018.494, 430.029 1009.900, 424.915 1001.307, 419.801 992.713, 414.688 984.119, 409.574 975.526, 404.460 966.932, 399.347 958.339, 394.233 949.745, 389.119 941.151, 384.006 932.558, 378.892 923.964, 373.778 915.370, 368.665 906.777, 363.551 898.183, 358.437 889.589, 353.324 881.346, 348.419 872.582, 353.233 863.817, 358.048 855.052, 362.862 846.288, 367.677 837.523, 372.492 828.758, 377.306 819.994, 382.121 811.229, 386.936 802.464, 391.750 793.700, 396.565 784.935, 401.380 776.171, 406.194 767.406, 411.009 758.641, 415.824 749.877, 420.638 741.112, 425.453 732.347, 430.268 723.583, 435.082 714.818, 439.897 706.053, 444.712 697.289, 449.526 687.663, 454.814 690.584, 464.378 693.504, 473.942 696.425, 483.506 699.346, 493.070 702.266, 502.634 705.187, 512.198 708.108, 521.762 711.029, 531.326 713.949, 540.890 714.450, 542.529 717.370, 552.093 719.578, 559.321 722.498, 568.885 725.419, 578.449 727.134, 584.064 737.134, 584.064 747.134, 584.064 757.134, 584.064 767.134, 584.064 777.134, 584.064 787.134, 584.064 797.134, 584.064 807.134, 584.064 817.134, 584.064 827.134, 584.064 837.134, 584.064 847.134, 584.064 857.134, 584.064 867.134, 584.064 877.134, 584.064 881.346, 584.064 881.346, 584.064 " />
            <path fill="none" stroke-width="3.0" stroke-linecap="butt" stroke-opacity="1.0" stroke="rgb(0, 0, 0)" stroke-linejoin="round" d=" M 727.134, 584.064 732.610, 575.696 738.086, 567.329 743.561, 558.961 749.037, 550.594 754.513, 542.226 759.989, 533.859 765.465, 525.491 770.941, 517.124 776.417, 508.756 781.893, 500.389 787.369, 492.021 792.845, 483.654 798.320, 475.286 803.796, 466.919 809.272, 458.552 814.748, 450.184 820.224, 441.817 825.700, 433.449 831.176, 425.082 836.652, 416.714 842.128, 408.347 847.604, 399.979 853.079, 391.612 858.555, 383.244 864.031, 374.877 869.507, 366.509 874.983, 358.142 881.346, 348.419 881.346, 358.419 881.346, 368.419 881.346, 378.419 881.346, 388.419 881.346, 398.419 881.346, 408.419 881.346, 418.419 881.346, 428.419 881.346, 438.419 881.346, 448.419 881.346, 458.419 881.346, 468.419 881.346, 478.419 881.346, 488.419 881.346, 498.419 881.346, 508.419 881.346, 518.419 881.346, 528.419 881.346, 538.419 881.346, 548.419 881.346, 558.419 881.346, 568.419 881.346, 578.419 881.346, 584.064 " />
            <path fill="none" stroke-width="3.0" stroke-linecap="butt" stroke-opacity="1.0" stroke="rgb(0, 0, 0)" stroke-linejoin="round" d=" M 687.663, 630.244 694.160, 622.642 700.657, 615.041 707.155, 607.439 713.652, 599.837 720.149, 592.235 726.646, 584.634 727.134, 584.064 734.242, 591.097 741.351, 598.130 748.460, 605.163 755.568, 612.197 762.677, 619.230 769.786, 626.263 776.895, 633.296 784.003, 640.329 791.112, 647.363 798.221, 654.396 805.329, 661.429 812.438, 668.462 819.547, 675.496 826.655, 682.529 833.764, 689.562 840.873, 696.595 847.981, 703.629 855.090, 710.662 862.199, 717.695 869.307, 724.728 876.416, 731.762 881.346, 736.639 881.346, 726.639 881.346, 716.639 881.346, 706.639 881.346, 696.639 881.346, 686.639 881.346, 676.639 881.346, 666.639 881.346, 656.639 881.346, 646.639 881.346, 636.639 881.346, 626.639 881.346, 616.639 881.346, 606.639 881.346, 596.639 881.346, 586.639 881.346, 584.064 891.266, 582.800 901.186, 581.537 911.106, 580.274 921.026, 579.011 930.946, 577.748 940.866, 576.485 950.786, 575.222 960.706, 573.959 970.626, 572.696 980.545, 571.433 990.465, 570.170 1000.385, 568.907 1010.305, 567.644 1020.225, 566.381 1030.145, 565.118 1040.065, 563.855 1049.985, 562.592 1059.905, 561.328 1069.825, 560.065 1079.745, 558.802 1089.665, 557.539 1099.584, 556.276 1109.504, 555.013 1119.424, 553.750 1129.344, 552.487 1139.264, 551.224 1149.184, 549.961 1159.104, 548.698 1169.024, 547.435 1178.944, 546.172 1188.864, 544.909 1198.784, 543.646 1207.554, 542.529 " />
            <path fill="none" stroke-width="3.0" stroke-linecap="butt" stroke-opacity="1.0" stroke="rgb(0, 0, 0)" stroke-linejoin="round" d=" M 687.663, 630.244 691.767, 621.125 695.870, 612.006 699.974, 602.886 704.077, 593.767 708.181, 584.648 712.284, 575.529 716.388, 566.409 719.578, 559.321 " />
        </g>
    </g>
</svg>
