<?xml version='1.0' encoding='ascii'?>
<svg xmlns="http://www.w3.org/2000/svg" version="1.1" width="1920" height="1080">
    <g id="ViewLayer_LineSet" xmlns:inkscape="http://www.inkscape.org/namespaces/inkscape" inkscape:groupmode="lineset" inkscape:label="ViewLayer_LineSet">
        <g xmlns:inkscape="http://www.inkscape.org/namespaces/inkscape" inkscape:groupmode="layer" id="strokes" inkscape:label="strokes">
            <path fill="none" stroke-width="3.0" stroke-linecap="butt" stroke-opacity="1.0" stroke="rgb(0, 0, 0)" stroke-linejoin="round" d=" M 953.477, 536.694 960.548, 529.623 967.619, 522.552 974.690, 515.481 981.761, 508.410 988.832, 501.339 995.903, 494.268 1002.974, 487.197 1010.045, 480.126 1017.116, 473.055 1024.187, 465.983 1031.258, 458.912 1038.329, 451.841 1045.400, 444.770 1052.471, 437.699 1059.543, 430.628 1066.614, 423.557 1073.685, 416.486 1080.756, 409.415 1087.827, 402.344 1094.898, 395.273 1101.969, 388.202 1109.040, 381.131 1116.111, 374.060 1123.182, 366.989 1130.253, 359.917 1139.092, 351.079 " />
            <path fill="none" stroke-width="3.0" stroke-linecap="butt" stroke-opacity="1.0" stroke="rgb(0, 0, 0)" stroke-linejoin="round" d=" M 953.477, 536.694 963.477, 536.694 973.477, 536.694 983.477, 536.694 993.477, 536.694 1003.477, 536.694 1013.477, 536.694 1023.477, 536.694 1033.477, 536.694 1043.477, 536.694 1053.477, 536.694 1063.477, 536.694 1073.477, 536.694 1083.477, 536.694 1093.477, 536.694 1103.477, 536.694 1113.477, 536.694 1123.477, 536.694 1133.477, 536.694 1143.477, 536.694 1153.477, 536.694 1163.477, 536.694 1173.477, 536.694 1183.477, 536.694 1193.477, 536.694 1203.477, 536.694 1215.977, 536.694 " />
            <path fill="none" stroke-width="3.0" stroke-linecap="butt" stroke-opacity="1.0" stroke="rgb(0, 0, 0)" stroke-linejoin="round" d=" M 953.477, 536.694 960.548, 543.765 967.619, 550.836 974.690, 557.907 981.761, 564.978 988.832, 572.049 995.903, 579.121 1002.974, 586.192 1010.045, 593.263 1017.116, 600.334 1024.187, 607.405 1031.258, 614.476 1038.329, 621.547 1045.400, 628.618 1052.471, 635.689 1059.543, 642.760 1066.614, 649.831 1073.685, 656.902 1080.756, 663.973 1087.827, 671.044 1094.898, 678.116 1101.969, 685.187 1109.040, 692.258 1116.111, 699.329 1123.182, 706.400 1130.253, 713.471 1139.092, 722.310 " />
            <path fill="none" stroke-width="3.0" stroke-linecap="butt" stroke-opacity="1.0" stroke="rgb(0, 0, 0)" stroke-linejoin="round" d=" M 1139.092, 722.310 1142.919, 713.071 1146.746, 703.832 1149.661, 696.794 " />
            <path fill="none" stroke-width="3.0" stroke-linecap="butt" stroke-opacity="1.0" stroke="rgb(0, 0, 0)" stroke-linejoin="round" d=" M 953.477, 536.694 953.477, 546.694 953.477, 556.694 953.477, 566.694 953.477, 576.694 953.477, 586.694 953.477, 596.694 953.477, 606.694 953.477, 616.694 953.477, 626.694 953.477, 636.694 953.477, 646.694 953.477, 656.694 953.477, 666.694 953.477, 676.694 953.477, 686.694 953.477, 696.694 953.477, 706.694 953.477, 716.694 953.477, 726.694 953.477, 736.694 953.477, 746.694 953.477, 756.694 953.477, 766.694 953.477, 776.694 953.477, 786.694 953.477, 799.194 " />
            <path fill="none" stroke-width="3.0" stroke-linecap="butt" stroke-opacity="1.0" stroke="rgb(0, 0, 0)" stroke-linejoin="round" d=" M 793.376, 732.879 802.615, 736.705 811.854, 740.532 821.093, 744.359 830.332, 748.186 837.922, 751.330 837.923, 751.330 847.161, 755.157 856.400, 758.984 865.639, 762.811 874.878, 766.638 884.117, 770.464 893.355, 774.291 902.594, 778.118 911.833, 781.945 921.072, 785.772 930.311, 789.599 939.549, 793.425 948.788, 797.252 953.477, 799.194 962.715, 795.367 971.954, 791.540 981.193, 787.714 990.432, 783.887 999.670, 780.060 1008.909, 776.233 1018.148, 772.406 1020.616, 771.384 1029.855, 767.557 1039.094, 763.730 1048.333, 759.903 1057.572, 756.077 1066.810, 752.250 1076.049, 748.423 1085.288, 744.596 1094.527, 740.769 1103.766, 736.942 1113.577, 732.879 " />
            <path fill="none" stroke-width="3.0" stroke-linecap="butt" stroke-opacity="1.0" stroke="rgb(0, 0, 0)" stroke-linejoin="round" d=" M 953.477, 536.694 946.405, 543.765 939.334, 550.836 932.263, 557.907 925.192, 564.978 918.121, 572.049 911.050, 579.121 903.979, 586.192 896.908, 593.263 889.837, 600.334 882.766, 607.405 875.695, 614.476 868.624, 621.547 861.553, 628.618 854.482, 635.689 847.411, 642.760 840.339, 649.831 833.268, 656.902 826.197, 663.973 819.126, 671.044 812.055, 678.116 804.984, 685.187 797.913, 692.258 790.842, 699.329 783.771, 706.400 776.700, 713.471 767.861, 722.310 764.034, 713.071 760.207, 703.832 757.292, 696.794 757.292, 696.794 " />
            <path fill="none" stroke-width="3.0" stroke-linecap="butt" stroke-opacity="1.0" stroke="rgb(0, 0, 0)" stroke-linejoin="round" d=" M 953.477, 536.694 943.477, 536.694 933.477, 536.694 923.477, 536.694 913.477, 536.694 903.477, 536.694 893.477, 536.694 883.477, 536.694 873.477, 536.694 863.477, 536.694 853.477, 536.694 843.477, 536.694 833.477, 536.694 823.477, 536.694 813.477, 536.694 803.477, 536.694 793.477, 536.694 783.477, 536.694 773.477, 536.694 763.477, 536.694 753.477, 536.694 743.477, 536.694 733.477, 536.694 723.477, 536.694 713.477, 536.694 703.477, 536.694 690.977, 536.694 " />
            <path fill="none" stroke-width="3.0" stroke-linecap="butt" stroke-opacity="1.0" stroke="rgb(0, 0, 0)" stroke-linejoin="round" d=" M 690.977, 536.694 694.803, 545.933 698.630, 555.172 702.457, 564.411 706.284, 573.649 710.111, 582.888 713.938, 592.127 717.764, 601.366 719.831, 606.354 723.658, 615.593 727.484, 624.832 731.311, 634.071 735.138, 643.310 738.965, 652.548 742.792, 661.787 746.619, 671.026 750.445, 680.265 754.272, 689.504 757.292, 696.794 " />
            <path fill="none" stroke-width="3.0" stroke-linecap="butt" stroke-opacity="1.0" stroke="rgb(0, 0, 0)" stroke-linejoin="round" d=" M 953.477, 274.194 953.477, 284.194 953.477, 294.194 953.477, 304.194 953.477, 314.194 953.477, 324.194 953.477, 334.194 953.477, 344.194 953.477, 354.194 953.477, 364.194 953.477, 374.194 953.477, 384.194 953.477, 394.194 953.477, 404.194 953.477, 414.194 953.477, 424.194 953.477, 434.194 953.477, 444.194 953.477, 454.194 953.477, 464.194 953.477, 474.194 953.477, 484.194 953.477, 494.194 953.477, 504.194 953.477, 514.194 953.477, 524.194 953.477, 536.694 946.405, 529.623 939.334, 522.552 932.263, 515.481 925.192, 508.410 918.121, 501.339 911.050, 494.268 903.979, 487.197 896.908, 480.126 889.837, 473.055 882.766, 465.983 875.695, 458.912 868.624, 451.841 861.553, 444.770 854.482, 437.699 847.410, 430.628 840.339, 423.557 833.268, 416.486 826.197, 409.415 819.126, 402.344 812.055, 395.273 804.984, 388.202 797.913, 381.131 790.842, 374.060 783.771, 366.989 776.700, 359.917 767.861, 351.079 " />
            <path fill="none" stroke-width="3.0" stroke-linecap="butt" stroke-opacity="1.0" stroke="rgb(0, 0, 0)" stroke-linejoin="round" d=" M 953.477, 274.194 944.238, 278.021 934.999, 281.848 925.760, 285.675 916.521, 289.501 907.283, 293.328 898.044, 297.155 888.805, 300.982 879.566, 304.809 870.327, 308.636 861.089, 312.462 851.850, 316.289 842.611, 320.116 840.789, 320.871 831.551, 324.698 822.312, 328.524 813.073, 332.351 803.834, 336.178 794.595, 340.005 793.376, 340.510 784.138, 344.337 774.899, 348.163 767.861, 351.079 " />
            <path fill="none" stroke-width="3.0" stroke-linecap="butt" stroke-opacity="1.0" stroke="rgb(0, 0, 0)" stroke-linejoin="round" d=" M 978.992, 284.763 969.753, 280.936 960.514, 277.109 953.477, 274.194 " />
            <path fill="none" stroke-width="3.0" stroke-linecap="butt" stroke-opacity="1.0" stroke="rgb(0, 0, 0)" stroke-linejoin="round" d=" M 1205.408, 562.210 1209.234, 552.971 1213.061, 543.732 1215.977, 536.694 1212.150, 527.455 1208.323, 518.217 1205.408, 511.179 " />
            <path fill="none" stroke-width="3.0" stroke-linecap="butt" stroke-opacity="1.0" stroke="rgb(0, 0, 0)" stroke-linejoin="round" d=" M 1205.408, 562.210 1201.581, 571.448 1197.754, 580.687 1193.927, 589.926 1190.100, 599.165 1186.274, 608.404 1182.447, 617.642 1178.620, 626.881 1174.793, 636.120 1170.966, 645.359 1169.604, 648.646 " />
            <path fill="none" stroke-width="3.0" stroke-linecap="butt" stroke-opacity="1.0" stroke="rgb(0, 0, 0)" stroke-linejoin="round" d=" M 927.961, 788.625 937.200, 792.452 946.439, 796.279 953.477, 799.194 962.715, 795.367 971.954, 791.540 978.992, 788.625 " />
            <path fill="none" stroke-width="3.0" stroke-linecap="butt" stroke-opacity="1.0" stroke="rgb(0, 0, 0)" stroke-linejoin="round" d=" M 927.961, 788.625 937.200, 792.452 946.439, 796.279 953.477, 799.194 962.715, 795.367 971.954, 791.540 978.992, 788.625 " />
            <path fill="none" stroke-width="3.0" stroke-linecap="butt" stroke-opacity="1.0" stroke="rgb(0, 0, 0)" stroke-linejoin="round" d=" M 531.077, 380.990 539.024, 387.060 546.972, 393.130 554.919, 399.199 562.867, 405.269 570.814, 411.338 578.761, 417.408 586.709, 423.477 594.656, 429.547 602.603, 435.616 610.551, 441.686 618.498, 447.755 626.445, 453.825 634.393, 459.894 642.340, 465.964 650.288, 472.034 658.235, 478.103 666.182, 484.173 674.130, 490.242 682.077, 496.312 690.025, 502.381 697.972, 508.451 701.545, 511.180 701.545, 511.181 697.718, 520.419 693.891, 529.658 690.977, 536.695 690.977, 536.696 694.804, 545.935 698.631, 555.174 701.545, 562.210 " />
            <path fill="none" stroke-width="3.0" stroke-linecap="butt" stroke-opacity="1.0" stroke="rgb(0, 0, 0)" stroke-linejoin="round" d=" M 701.545, 511.179 697.719, 520.418 693.892, 529.656 690.977, 536.695 690.977, 536.696 690.978, 536.697 694.805, 545.936 698.631, 555.174 701.545, 562.210 " />
            <path fill="none" stroke-width="3.0" stroke-linecap="butt" stroke-opacity="1.0" stroke="rgb(0, 0, 0)" stroke-linejoin="round" d=" M 953.477, 274.194 944.238, 278.021 934.999, 281.848 927.961, 284.763 " />
            <path fill="none" stroke-width="3.0" stroke-linecap="butt" stroke-opacity="1.0" stroke="rgb(0, 0, 0)" stroke-linejoin="round" d=" M 953.477, 274.194 944.238, 278.021 934.999, 281.848 927.961, 284.763 " />
            <path fill="none" stroke-width="3.0" stroke-linecap="butt" stroke-opacity="1.0" stroke="rgb(0, 0, 0)" stroke-linejoin="round" d=" M 1113.577, 340.509 1113.577, 340.508 1114.905, 330.596 1116.233, 320.685 1117.560, 310.773 1118.888, 300.862 1120.216, 290.951 1121.544, 281.039 1122.872, 271.128 1124.200, 261.216 1125.528, 251.305 1126.856, 241.393 1128.183, 231.482 1129.511, 221.570 1130.839, 211.659 1132.167, 201.748 1133.495, 191.836 1134.823, 181.925 1136.151, 172.013 1137.479, 162.102 1138.806, 152.190 1140.134, 142.279 1141.462, 132.367 1142.059, 127.914 1132.820, 124.087 1123.581, 120.260 1114.342, 116.433 1109.180, 114.295 " />
            <path fill="none" stroke-width="3.0" stroke-linecap="butt" stroke-opacity="1.0" stroke="rgb(0, 0, 0)" stroke-linejoin="round" d=" M 1205.408, 511.179 1213.355, 505.109 1221.302, 499.040 1229.250, 492.970 1237.197, 486.901 1245.145, 480.831 1253.092, 474.762 1261.039, 468.692 1268.987, 462.623 1276.934, 456.553 1284.882, 450.484 1292.829, 444.414 1300.776, 438.345 1308.724, 432.275 1316.671, 426.206 1324.619, 420.136 1332.566, 414.067 1340.513, 407.997 1348.461, 401.928 1356.408, 395.858 1364.356, 389.789 1372.303, 383.719 1375.876, 380.990 1372.049, 371.752 1368.222, 362.513 1364.395, 353.274 1362.257, 348.112 1352.346, 349.440 1342.434, 350.768 1332.523, 352.095 1322.611, 353.423 1312.700, 354.751 1302.788, 356.079 1292.877, 357.407 1282.966, 358.735 1273.054, 360.063 1263.143, 361.391 1253.231, 362.718 1243.320, 364.046 1233.408, 365.374 1223.497, 366.702 1213.585, 368.030 1203.674, 369.358 1192.180, 370.898 1182.269, 372.226 1172.357, 373.553 1162.446, 374.881 1152.534, 376.209 1149.663, 376.594 1149.662, 376.594 " />
            <path fill="none" stroke-width="3.0" stroke-linecap="butt" stroke-opacity="1.0" stroke="rgb(0, 0, 0)" stroke-linejoin="round" d=" M 1186.748, 466.131 1190.575, 475.370 1194.402, 484.608 1198.229, 493.847 1202.056, 503.086 1205.408, 511.179 1205.408, 511.179 " />
            <path fill="none" stroke-width="3.0" stroke-linecap="butt" stroke-opacity="1.0" stroke="rgb(0, 0, 0)" stroke-linejoin="round" d=" M 1149.662, 696.794 1149.663, 696.794 1159.574, 698.122 1169.486, 699.450 1179.397, 700.778 1189.309, 702.106 1199.220, 703.434 1209.132, 704.762 1219.043, 706.090 1228.954, 707.417 1238.866, 708.745 1248.777, 710.073 1258.689, 711.401 1268.600, 712.729 1278.512, 714.057 1288.423, 715.385 1298.335, 716.713 1308.246, 718.040 1318.157, 719.368 1328.069, 720.696 1337.980, 722.024 1347.892, 723.352 1357.803, 724.680 1362.257, 725.277 1366.084, 716.038 1369.911, 706.799 1373.738, 697.560 1375.876, 692.398 1367.928, 686.328 1359.981, 680.259 1352.034, 674.189 1344.086, 668.120 1336.139, 662.050 1328.192, 655.981 1320.244, 649.911 1312.297, 643.842 1304.349, 637.772 1296.402, 631.703 1288.455, 625.633 1280.507, 619.564 1272.560, 613.494 1264.612, 607.425 1256.665, 601.355 1248.718, 595.286 1240.770, 589.216 1232.823, 583.147 1224.875, 577.077 1216.928, 571.008 1208.981, 564.938 1205.408, 562.210 " />
            <path fill="none" stroke-width="3.0" stroke-linecap="butt" stroke-opacity="1.0" stroke="rgb(0, 0, 0)" stroke-linejoin="round" d=" M 978.992, 788.625 985.061, 796.573 991.131, 804.520 997.201, 812.467 1003.270, 820.415 1009.339, 828.362 1015.409, 836.310 1021.478, 844.257 1027.548, 852.204 1033.617, 860.152 1039.687, 868.099 1045.756, 876.047 1051.826, 883.994 1057.896, 891.941 1063.965, 899.889 1070.035, 907.836 1076.104, 915.784 1082.173, 923.731 1088.243, 931.678 1094.312, 939.626 1100.382, 947.573 1106.452, 955.521 1109.180, 959.094 1118.419, 955.267 1127.658, 951.440 1136.897, 947.613 1142.059, 945.475 1140.731, 935.563 1139.403, 925.652 1138.075, 915.741 1136.747, 905.829 1135.419, 895.918 1134.092, 886.006 1132.764, 876.095 1131.436, 866.183 1130.108, 856.272 1128.780, 846.360 1127.452, 836.449 1126.124, 826.538 1124.797, 816.626 1123.469, 806.715 1122.141, 796.803 1120.813, 786.892 1119.485, 776.980 1118.157, 767.069 1116.829, 757.157 1115.501, 747.246 1114.174, 737.335 1113.577, 732.881 1113.577, 732.880 " />
            <path fill="none" stroke-width="3.0" stroke-linecap="butt" stroke-opacity="1.0" stroke="rgb(0, 0, 0)" stroke-linejoin="round" d=" M 1020.616, 771.384 1011.378, 775.211 1002.139, 779.038 992.900, 782.864 983.661, 786.691 978.992, 788.625 978.992, 788.625 " />
            <path fill="none" stroke-width="3.0" stroke-linecap="butt" stroke-opacity="1.0" stroke="rgb(0, 0, 0)" stroke-linejoin="round" d=" M 797.773, 959.094 803.842, 951.146 809.912, 943.199 815.981, 935.251 822.051, 927.304 828.120, 919.357 834.190, 911.409 840.259, 903.462 846.329, 895.514 852.398, 887.567 858.468, 879.620 864.537, 871.672 870.607, 863.725 876.676, 855.777 882.746, 847.830 888.815, 839.883 894.885, 831.935 900.954, 823.988 907.024, 816.040 913.093, 808.093 919.163, 800.146 925.232, 792.198 927.961, 788.625 " />
            <path fill="none" stroke-width="3.0" stroke-linecap="butt" stroke-opacity="1.0" stroke="rgb(0, 0, 0)" stroke-linejoin="round" d=" M 701.545, 562.210 693.598, 568.279 685.651, 574.349 677.703, 580.418 669.756, 586.488 661.808, 592.557 653.861, 598.627 645.914, 604.696 637.966, 610.766 630.019, 616.835 622.071, 622.905 614.124, 628.974 606.177, 635.044 598.229, 641.113 590.282, 647.183 582.334, 653.252 574.387, 659.322 566.440, 665.391 558.492, 671.461 550.545, 677.530 542.597, 683.600 534.650, 689.669 531.077, 692.398 534.904, 701.637 538.731, 710.876 542.558, 720.114 544.696, 725.277 554.607, 723.949 564.519, 722.621 574.430, 721.293 584.342, 719.965 594.253, 718.637 604.165, 717.309 614.076, 715.981 623.987, 714.654 633.899, 713.326 643.810, 711.998 653.722, 710.670 663.633, 709.342 673.545, 708.014 683.456, 706.686 693.368, 705.358 703.279, 704.031 713.190, 702.703 723.102, 701.375 733.013, 700.047 742.925, 698.719 752.836, 697.391 757.290, 696.794 757.291, 696.794 " />
            <path fill="none" stroke-width="3.0" stroke-linecap="butt" stroke-opacity="1.0" stroke="rgb(0, 0, 0)" stroke-linejoin="round" d=" M 719.831, 606.354 716.004, 597.116 712.177, 587.877 708.350, 578.638 704.523, 569.399 701.545, 562.210 701.545, 562.210 " />
            <path fill="none" stroke-width="3.0" stroke-linecap="butt" stroke-opacity="1.0" stroke="rgb(0, 0, 0)" stroke-linejoin="round" d=" M 797.773, 114.295 788.534, 118.122 779.295, 121.948 770.056, 125.775 764.894, 127.914 766.222, 137.825 767.550, 147.737 768.878, 157.648 770.206, 167.559 771.533, 177.471 772.861, 187.382 774.189, 197.294 775.517, 207.205 776.845, 217.117 778.173, 227.028 779.501, 236.940 780.829, 246.851 782.156, 256.762 783.484, 266.674 784.812, 276.585 786.140, 286.497 787.468, 296.408 788.796, 306.320 790.124, 316.231 791.452, 326.143 792.779, 336.054 793.376, 340.508 793.376, 340.509 " />
            <path fill="none" stroke-width="3.0" stroke-linecap="butt" stroke-opacity="1.0" stroke="rgb(0, 0, 0)" stroke-linejoin="round" d=" M 544.696, 348.112 540.869, 357.351 537.042, 366.589 533.215, 375.828 531.077, 380.990 " />
            <path fill="none" stroke-width="3.0" stroke-linecap="butt" stroke-opacity="1.0" stroke="rgb(0, 0, 0)" stroke-linejoin="round" d=" M 757.292, 376.594 747.381, 375.266 737.469, 373.938 727.558, 372.610 717.646, 371.283 707.735, 369.955 697.823, 368.627 687.912, 367.299 678.001, 365.971 668.089, 364.643 658.178, 363.315 648.266, 361.988 638.355, 360.660 628.443, 359.332 618.532, 358.004 608.620, 356.676 598.709, 355.348 588.798, 354.020 578.886, 352.692 568.975, 351.365 559.063, 350.037 549.152, 348.709 544.696, 348.112 " />
            <path fill="none" stroke-width="3.0" stroke-linecap="butt" stroke-opacity="1.0" stroke="rgb(0, 0, 0)" stroke-linejoin="round" d=" M 719.927, 466.801 716.100, 476.039 712.274, 485.278 708.447, 494.517 704.620, 503.756 701.545, 511.179 " />
            <path fill="none" stroke-width="3.0" stroke-linecap="butt" stroke-opacity="1.0" stroke="rgb(0, 0, 0)" stroke-linejoin="round" d=" M 757.291, 376.594 757.290, 376.594 747.379, 375.266 737.467, 373.938 727.556, 372.610 717.644, 371.282 707.733, 369.954 697.821, 368.627 687.910, 367.299 677.999, 365.971 668.087, 364.643 658.176, 363.315 648.264, 361.987 638.353, 360.659 628.441, 359.332 618.530, 358.004 608.618, 356.676 598.707, 355.348 588.796, 354.020 578.884, 352.692 568.973, 351.364 559.061, 350.036 549.150, 348.709 544.696, 348.112 " />
            <path fill="none" stroke-width="3.0" stroke-linecap="butt" stroke-opacity="1.0" stroke="rgb(0, 0, 0)" stroke-linejoin="round" d=" M 757.292, 376.594 753.465, 385.833 749.638, 395.072 745.812, 404.310 741.985, 413.549 738.158, 422.788 734.331, 432.027 730.504, 441.266 726.677, 450.504 723.136, 459.055 719.927, 466.801 716.100, 476.039 712.274, 485.278 708.447, 494.517 704.620, 503.756 700.793, 512.995 696.966, 522.233 693.139, 531.472 690.977, 536.694 " />
            <path fill="none" stroke-width="3.0" stroke-linecap="butt" stroke-opacity="1.0" stroke="rgb(0, 0, 0)" stroke-linejoin="round" d=" M 767.861, 351.079 764.034, 360.317 760.207, 369.556 757.292, 376.594 " />
            <path fill="none" stroke-width="3.0" stroke-linecap="butt" stroke-opacity="1.0" stroke="rgb(0, 0, 0)" stroke-linejoin="round" d=" M 793.376, 732.880 793.376, 732.881 792.048, 742.792 790.720, 752.703 789.393, 762.615 788.065, 772.526 786.737, 782.438 785.409, 792.349 784.081, 802.261 782.753, 812.172 781.425, 822.084 780.098, 831.995 778.770, 841.906 777.442, 851.818 776.114, 861.729 774.786, 871.641 773.458, 881.552 772.130, 891.464 770.802, 901.375 769.475, 911.287 768.147, 921.198 766.819, 931.109 765.491, 941.021 764.894, 945.475 " />
            <path fill="none" stroke-width="3.0" stroke-linecap="butt" stroke-opacity="1.0" stroke="rgb(0, 0, 0)" stroke-linejoin="round" d=" M 764.894, 945.475 774.133, 949.302 783.372, 953.129 792.611, 956.955 797.773, 959.094 " />
            <path fill="none" stroke-width="3.0" stroke-linecap="butt" stroke-opacity="1.0" stroke="rgb(0, 0, 0)" stroke-linejoin="round" d=" M 927.961, 788.625 918.722, 784.798 909.483, 780.972 900.245, 777.145 891.006, 773.318 881.767, 769.491 872.528, 765.664 863.289, 761.837 854.051, 758.011 844.812, 754.184 837.921, 751.329 " />
            <path fill="none" stroke-width="3.0" stroke-linecap="butt" stroke-opacity="1.0" stroke="rgb(0, 0, 0)" stroke-linejoin="round" d=" M 840.789, 320.871 850.028, 317.044 859.267, 313.217 868.506, 309.390 877.745, 305.563 886.983, 301.737 896.222, 297.910 905.461, 294.083 914.700, 290.256 923.939, 286.429 927.961, 284.763 " />
            <path fill="none" stroke-width="3.0" stroke-linecap="butt" stroke-opacity="1.0" stroke="rgb(0, 0, 0)" stroke-linejoin="round" d=" M 840.789, 320.871 850.028, 317.044 859.267, 313.217 868.506, 309.390 877.745, 305.563 886.983, 301.737 896.222, 297.910 905.461, 294.083 914.700, 290.256 923.939, 286.429 927.961, 284.763 " />
            <path fill="none" stroke-width="3.0" stroke-linecap="butt" stroke-opacity="1.0" stroke="rgb(0, 0, 0)" stroke-linejoin="round" d=" M 927.961, 284.763 921.892, 276.816 915.822, 268.868 909.753, 260.921 903.683, 252.973 897.614, 245.026 891.544, 237.079 885.474, 229.131 879.405, 221.184 873.336, 213.236 867.266, 205.289 861.196, 197.342 855.127, 189.394 849.057, 181.447 842.988, 173.499 836.918, 165.552 830.849, 157.605 824.779, 149.657 818.710, 141.710 812.640, 133.762 806.571, 125.815 800.501, 117.868 797.773, 114.295 " />
            <path fill="none" stroke-width="3.0" stroke-linecap="butt" stroke-opacity="1.0" stroke="rgb(0, 0, 0)" stroke-linejoin="round" d=" M 767.861, 722.310 777.100, 726.137 786.339, 729.963 793.376, 732.879 " />
            <path fill="none" stroke-width="3.0" stroke-linecap="butt" stroke-opacity="1.0" stroke="rgb(0, 0, 0)" stroke-linejoin="round" d=" M 978.992, 284.763 969.753, 280.936 960.514, 277.109 953.477, 274.194 " />
            <path fill="none" stroke-width="3.0" stroke-linecap="butt" stroke-opacity="1.0" stroke="rgb(0, 0, 0)" stroke-linejoin="round" d=" M 1109.180, 114.295 1103.111, 122.242 1097.041, 130.190 1090.972, 138.137 1084.902, 146.084 1078.833, 154.032 1072.763, 161.979 1066.694, 169.927 1060.624, 177.874 1054.555, 185.821 1048.485, 193.769 1042.416, 201.716 1036.346, 209.664 1030.277, 217.611 1024.207, 225.558 1018.138, 233.506 1012.068, 241.453 1005.999, 249.401 999.929, 257.348 993.860, 265.295 987.790, 273.243 981.721, 281.190 978.992, 284.763 " />
            <path fill="none" stroke-width="3.0" stroke-linecap="butt" stroke-opacity="1.0" stroke="rgb(0, 0, 0)" stroke-linejoin="round" d=" M 1068.123, 321.682 1058.884, 317.855 1049.645, 314.029 1040.406, 310.202 1031.168, 306.375 1021.929, 302.548 1012.690, 298.721 1003.451, 294.894 994.212, 291.068 984.974, 287.241 978.992, 284.763 " />
            <path fill="none" stroke-width="3.0" stroke-linecap="butt" stroke-opacity="1.0" stroke="rgb(0, 0, 0)" stroke-linejoin="round" d=" M 1113.577, 732.879 1113.577, 732.879 1122.815, 729.052 1132.054, 725.225 1139.092, 722.310 " />
            <path fill="none" stroke-width="3.0" stroke-linecap="butt" stroke-opacity="1.0" stroke="rgb(0, 0, 0)" stroke-linejoin="round" d=" M 1068.123, 321.682 1058.884, 317.855 1049.645, 314.029 1040.406, 310.202 1031.168, 306.375 1021.929, 302.548 1012.690, 298.721 1003.451, 294.894 994.212, 291.068 984.974, 287.241 975.735, 283.414 966.496, 279.587 957.257, 275.760 953.477, 274.194 " />
            <path fill="none" stroke-width="3.0" stroke-linecap="butt" stroke-opacity="1.0" stroke="rgb(0, 0, 0)" stroke-linejoin="round" d=" M 1113.577, 340.510 1104.338, 336.683 1095.099, 332.856 1085.860, 329.029 1076.621, 325.202 1068.123, 321.682 " />
            <path fill="none" stroke-width="3.0" stroke-linecap="butt" stroke-opacity="1.0" stroke="rgb(0, 0, 0)" stroke-linejoin="round" d=" M 1139.092, 351.079 1129.853, 347.252 1120.615, 343.425 1113.577, 340.510 " />
            <path fill="none" stroke-width="3.0" stroke-linecap="butt" stroke-opacity="1.0" stroke="rgb(0, 0, 0)" stroke-linejoin="round" d=" M 1113.577, 340.510 1114.904, 330.598 1116.232, 320.687 1117.560, 310.775 1118.888, 300.864 1120.216, 290.953 1121.544, 281.041 1122.872, 271.130 1124.200, 261.218 1125.527, 251.307 1126.855, 241.395 1128.183, 231.484 1129.511, 221.572 1130.839, 211.661 1132.167, 201.750 1133.495, 191.838 1134.823, 181.927 1136.150, 172.015 1137.478, 162.104 1138.806, 152.192 1140.134, 142.281 1141.462, 132.369 1142.059, 127.914 " />
            <path fill="none" stroke-width="3.0" stroke-linecap="butt" stroke-opacity="1.0" stroke="rgb(0, 0, 0)" stroke-linejoin="round" d=" M 1149.661, 376.594 1145.834, 367.355 1142.007, 358.116 1139.092, 351.079 " />
            <path fill="none" stroke-width="3.0" stroke-linecap="butt" stroke-opacity="1.0" stroke="rgb(0, 0, 0)" stroke-linejoin="round" d=" M 1149.661, 376.594 1149.661, 376.594 1145.834, 367.355 1142.007, 358.116 1139.092, 351.079 " />
            <path fill="none" stroke-width="3.0" stroke-linecap="butt" stroke-opacity="1.0" stroke="rgb(0, 0, 0)" stroke-linejoin="round" d=" M 1215.977, 536.694 1212.150, 527.455 1208.323, 518.217 1204.496, 508.978 1200.669, 499.739 1196.842, 490.500 1193.016, 481.261 1189.189, 472.023 1186.748, 466.131 1182.921, 456.892 1179.094, 447.653 1175.268, 438.414 1171.441, 429.175 1167.614, 419.937 1163.787, 410.698 1159.960, 401.459 1156.134, 392.220 1152.307, 382.982 1149.661, 376.594 " />
            <path fill="none" stroke-width="3.0" stroke-linecap="butt" stroke-opacity="1.0" stroke="rgb(0, 0, 0)" stroke-linejoin="round" d=" M 1149.661, 696.794 1153.488, 687.555 1157.315, 678.317 1161.141, 669.078 1164.968, 659.839 1168.795, 650.600 1169.605, 648.645 1169.605, 648.645 1173.432, 639.406 1177.259, 630.167 1181.086, 620.928 1184.912, 611.689 1188.739, 602.451 1192.566, 593.212 1196.393, 583.973 1200.220, 574.734 1204.047, 565.495 1207.874, 556.257 1211.700, 547.018 1215.977, 536.694 1212.150, 545.933 1208.323, 555.172 1205.408, 562.210 " />
            <path fill="none" stroke-width="3.0" stroke-linecap="butt" stroke-opacity="1.0" stroke="rgb(0, 0, 0)" stroke-linejoin="round" d=" M 1215.977, 536.694 1212.150, 527.455 1208.323, 518.217 1205.408, 511.179 " />
            <path fill="none" stroke-width="3.0" stroke-linecap="butt" stroke-opacity="1.0" stroke="rgb(0, 0, 0)" stroke-linejoin="round" d=" M 1149.662, 696.794 1149.663, 696.794 1159.574, 698.122 1169.486, 699.450 1179.397, 700.778 1189.309, 702.106 1199.220, 703.434 1209.132, 704.762 1219.043, 706.090 1228.954, 707.417 1238.866, 708.745 1248.777, 710.073 1258.689, 711.401 1268.600, 712.729 1278.512, 714.057 1288.423, 715.385 1298.335, 716.713 1308.246, 718.040 1318.157, 719.368 1328.069, 720.696 1337.980, 722.024 1347.892, 723.352 1357.803, 724.680 1362.257, 725.277 " />
        </g>
    </g>
</svg>
