<?xml version='1.0' encoding='ascii'?>
<svg xmlns="http://www.w3.org/2000/svg" version="1.1" width="1920" height="1080">
    <g id="ViewLayer_LineSet" xmlns:inkscape="http://www.inkscape.org/namespaces/inkscape" inkscape:groupmode="lineset" inkscape:label="ViewLayer_LineSet">
        <g xmlns:inkscape="http://www.inkscape.org/namespaces/inkscape" inkscape:groupmode="layer" id="strokes" inkscape:label="strokes">
            <path fill="none" stroke-width="3.0" stroke-linecap="butt" stroke-opacity="1.0" stroke="rgb(0, 0, 0)" stroke-linejoin="round" d=" M 842.988, 245.249 851.327, 239.730 852.073, 239.236 860.411, 233.716 868.750, 228.196 877.089, 222.676 885.427, 217.157 893.766, 211.637 902.104, 206.117 910.443, 200.597 918.781, 195.077 927.120, 189.558 935.459, 184.038 943.797, 178.518 952.136, 172.998 953.477, 172.111 953.477, 182.111 953.477, 192.111 953.477, 202.111 953.477, 212.111 953.477, 222.111 953.477, 232.111 953.477, 242.111 953.477, 252.111 953.477, 262.111 953.477, 272.111 953.477, 282.111 953.477, 292.111 953.477, 302.111 953.477, 312.111 953.477, 322.111 953.477, 332.111 953.477, 342.111 953.477, 349.787 " />
            <path fill="none" stroke-width="3.0" stroke-linecap="butt" stroke-opacity="1.0" stroke="rgb(0, 0, 0)" stroke-linejoin="round" d=" M 953.477, 349.787 960.669, 356.735 967.862, 363.682 975.054, 370.630 982.247, 377.577 989.439, 384.524 996.632, 391.472 1003.824, 398.419 1011.017, 405.367 1018.209, 412.314 1025.402, 419.262 1032.595, 426.209 1039.787, 433.157 1046.980, 440.104 1054.172, 447.052 1061.365, 453.999 1068.557, 460.947 1075.750, 467.894 1082.942, 474.841 1090.135, 481.789 1097.328, 488.736 1104.520, 495.684 1111.713, 502.631 1118.905, 509.579 1126.098, 516.526 1133.290, 523.474 1140.483, 530.421 1147.675, 537.369 1154.868, 544.316 1162.060, 551.264 1169.253, 558.211 1176.445, 565.159 1183.638, 572.106 1190.831, 579.053 1198.023, 586.001 1205.216, 592.948 1212.408, 599.896 1219.601, 606.843 1223.125, 610.248 " />
            <path fill="none" stroke-width="3.0" stroke-linecap="butt" stroke-opacity="1.0" stroke="rgb(0, 0, 0)" stroke-linejoin="round" d=" M 1223.125, 610.248 1231.606, 604.949 1240.086, 599.650 1248.567, 594.351 1257.047, 589.052 1265.528, 583.752 1274.009, 578.453 1282.489, 573.154 1290.970, 567.855 1299.450, 562.556 1307.931, 557.257 1316.411, 551.958 1324.892, 546.659 1333.373, 541.360 1334.817, 540.457 " />
            <path fill="none" stroke-width="3.0" stroke-linecap="butt" stroke-opacity="1.0" stroke="rgb(0, 0, 0)" stroke-linejoin="round" d=" M 852.073, 841.679 860.411, 847.199 868.750, 852.719 877.089, 858.239 885.427, 863.758 893.766, 869.278 902.104, 874.798 910.443, 880.318 918.781, 885.838 927.120, 891.357 935.459, 896.877 943.797, 902.397 952.136, 907.917 953.477, 908.804 960.669, 901.857 967.862, 894.909 975.054, 887.962 982.247, 881.015 989.439, 874.067 996.632, 867.120 1003.824, 860.172 1011.017, 853.225 1018.209, 846.277 1025.402, 839.330 1032.594, 832.382 1039.787, 825.435 1046.980, 818.487 1054.172, 811.540 1061.365, 804.592 1068.557, 797.645 1075.750, 790.697 1082.942, 783.750 1090.135, 776.803 1097.327, 769.855 1104.520, 762.908 1111.713, 755.960 1118.905, 749.013 1126.098, 742.065 1133.290, 735.118 1140.483, 728.170 1147.675, 721.223 1154.868, 714.275 1162.060, 707.328 1169.253, 700.380 1176.445, 693.433 1183.638, 686.485 1190.831, 679.538 1198.023, 672.591 1205.216, 665.643 1212.408, 658.696 1219.601, 651.748 1226.793, 644.801 1233.986, 637.853 1241.178, 630.906 1248.371, 623.958 1255.563, 617.011 1262.756, 610.063 1269.949, 603.116 1277.141, 596.168 1284.334, 589.221 1291.526, 582.273 1298.719, 575.326 1305.911, 568.379 1313.104, 561.431 1320.296, 554.484 1327.489, 547.536 1334.817, 540.457 1327.625, 533.510 1320.432, 526.563 1313.240, 519.615 1306.047, 512.668 1298.855, 505.720 1291.662, 498.773 1284.469, 491.825 1277.277, 484.878 1270.084, 477.930 1262.892, 470.983 1255.699, 464.035 1248.507, 457.088 1241.314, 450.140 1234.122, 443.193 1226.929, 436.245 1219.737, 429.298 1212.544, 422.351 1205.351, 415.403 1198.159, 408.456 1190.966, 401.508 1183.774, 394.561 1176.581, 387.613 1169.389, 380.666 1162.196, 373.718 1155.004, 366.771 1147.811, 359.823 1140.619, 352.876 1133.426, 345.928 1126.234, 338.981 1119.041, 332.034 1111.848, 325.086 1104.656, 318.139 1097.463, 311.191 1090.271, 304.244 1083.078, 297.296 1075.886, 290.349 1068.693, 283.401 1061.500, 276.454 1054.308, 269.506 1047.115, 262.559 1039.923, 255.611 1032.730, 248.664 1025.538, 241.716 1018.345, 234.769 1011.153, 227.822 1003.960, 220.874 996.768, 213.927 989.575, 206.979 982.383, 200.032 975.190, 193.084 967.997, 186.137 960.805, 179.189 953.477, 172.111 " />
            <path fill="none" stroke-width="3.0" stroke-linecap="butt" stroke-opacity="1.0" stroke="rgb(0, 0, 0)" stroke-linejoin="round" d=" M 953.477, 349.787 953.477, 359.787 953.477, 369.787 953.477, 379.787 953.477, 389.787 953.477, 399.787 953.477, 409.787 953.477, 419.787 953.477, 429.787 953.477, 439.787 953.477, 449.787 953.477, 459.787 953.477, 469.787 953.477, 479.787 953.477, 489.787 953.477, 499.787 953.477, 509.787 953.477, 519.787 953.477, 529.787 953.477, 539.787 953.477, 549.787 953.477, 559.787 953.477, 569.787 953.477, 579.787 953.477, 589.787 953.477, 599.787 953.477, 609.787 953.477, 619.787 953.477, 629.787 953.477, 639.156 " />
            <path fill="none" stroke-width="3.0" stroke-linecap="butt" stroke-opacity="1.0" stroke="rgb(0, 0, 0)" stroke-linejoin="round" d=" M 953.477, 639.156 963.420, 638.090 973.363, 637.024 983.306, 635.958 993.249, 634.892 1003.192, 633.826 1013.135, 632.760 1023.078, 631.694 1033.021, 630.628 1042.964, 629.562 1052.907, 628.496 1062.850, 627.430 1072.793, 626.364 1082.736, 625.298 1092.679, 624.232 1102.622, 623.166 1112.565, 622.100 1122.508, 621.034 1132.451, 619.969 1142.394, 618.903 1152.337, 617.837 1162.280, 616.771 1172.223, 615.705 1182.166, 614.639 1192.109, 613.573 1202.052, 612.507 1211.995, 611.441 1223.125, 610.248 1215.933, 617.195 1208.740, 624.143 1201.547, 631.090 1194.355, 638.038 1187.162, 644.985 1179.970, 651.932 1172.777, 658.880 1165.585, 665.827 1158.392, 672.775 1151.200, 679.722 1144.007, 686.670 1136.815, 693.617 1129.622, 700.565 1122.430, 707.512 1115.237, 714.460 1108.044, 721.407 1100.852, 728.355 1093.659, 735.302 1086.467, 742.250 1079.274, 749.197 1072.082, 756.144 1064.889, 763.092 1057.697, 770.039 1050.504, 776.987 1043.312, 783.934 1036.119, 790.882 1028.926, 797.829 1021.734, 804.777 1014.541, 811.724 1007.349, 818.672 1000.156, 825.619 992.964, 832.567 985.771, 839.514 978.579, 846.462 971.386, 853.409 964.193, 860.356 957.001, 867.304 953.477, 870.708 " />
            <path fill="none" stroke-width="3.0" stroke-linecap="butt" stroke-opacity="1.0" stroke="rgb(0, 0, 0)" stroke-linejoin="round" d=" M 685.590, 494.245 694.071, 499.544 702.551, 504.843 711.032, 510.142 717.602, 514.248 723.274, 508.769 730.467, 501.822 736.278, 496.208 743.471, 489.261 750.663, 482.313 757.856, 475.366 765.048, 468.419 772.570, 461.154 779.762, 454.206 786.955, 447.259 794.147, 440.311 801.340, 433.364 808.532, 426.416 815.725, 419.469 822.917, 412.521 830.110, 405.574 837.303, 398.626 844.495, 391.679 851.688, 384.732 858.880, 377.784 866.073, 370.837 873.265, 363.889 879.862, 357.517 879.862, 352.519 879.862, 342.519 879.862, 332.519 879.862, 322.519 879.862, 313.650 879.862, 306.593 " />
            <path fill="none" stroke-width="3.0" stroke-linecap="butt" stroke-opacity="1.0" stroke="rgb(0, 0, 0)" stroke-linejoin="round" d=" M 733.136, 494.245 723.136, 494.245 713.136, 494.245 703.136, 494.245 693.136, 494.245 685.590, 494.245 692.783, 487.298 699.975, 480.350 707.168, 473.403 714.360, 466.455 721.553, 459.508 728.745, 452.560 735.938, 445.613 743.130, 438.665 744.458, 437.383 751.650, 430.436 758.843, 423.488 766.036, 416.541 773.228, 409.593 780.421, 402.646 787.613, 395.698 794.806, 388.751 801.998, 381.803 809.191, 374.856 816.383, 367.909 823.576, 360.961 830.768, 354.014 837.961, 347.066 845.154, 340.119 852.346, 333.171 859.539, 326.224 866.731, 319.276 873.924, 312.329 879.862, 306.593 " />
            <path fill="none" stroke-width="3.0" stroke-linecap="butt" stroke-opacity="1.0" stroke="rgb(0, 0, 0)" stroke-linejoin="round" d=" M 683.828, 610.248 693.771, 611.314 703.714, 612.380 713.657, 613.446 723.600, 614.511 733.543, 615.577 743.486, 616.643 753.429, 617.709 763.372, 618.775 772.570, 619.761 782.513, 620.827 792.456, 621.893 802.399, 622.959 812.342, 624.025 822.285, 625.091 826.051, 625.495 835.994, 626.561 845.937, 627.627 855.880, 628.693 865.823, 629.759 875.767, 630.825 885.710, 631.891 895.653, 632.957 905.596, 634.023 915.539, 635.089 925.482, 636.155 935.425, 637.220 945.368, 638.286 953.477, 639.156 953.477, 649.156 953.477, 659.156 953.477, 669.156 953.477, 679.156 953.477, 689.156 953.477, 699.156 953.477, 709.156 953.477, 719.156 953.477, 729.156 953.477, 739.156 953.477, 749.156 953.477, 759.156 953.477, 769.156 953.477, 779.156 953.477, 789.156 953.477, 799.156 953.477, 809.156 953.477, 819.156 953.477, 829.156 953.477, 839.156 953.477, 849.156 953.477, 859.156 953.477, 870.708 " />
            <path fill="none" stroke-width="3.0" stroke-linecap="butt" stroke-opacity="1.0" stroke="rgb(0, 0, 0)" stroke-linejoin="round" d=" M 879.862, 357.517 889.807, 356.473 899.753, 355.428 909.698, 354.384 919.643, 353.340 927.408, 352.524 937.353, 351.480 947.299, 350.436 953.477, 349.787 946.284, 356.735 939.091, 363.682 931.899, 370.629 924.706, 377.577 917.514, 384.524 910.321, 391.472 903.129, 398.419 895.936, 405.367 888.744, 412.314 881.551, 419.262 874.359, 426.209 867.166, 433.157 859.973, 440.104 852.781, 447.052 845.588, 453.999 838.396, 460.947 831.203, 467.894 824.011, 474.841 816.818, 481.789 809.626, 488.736 802.433, 495.684 795.241, 502.631 788.048, 509.579 780.855, 516.526 773.663, 523.474 766.470, 530.421 759.278, 537.369 752.085, 544.316 744.893, 551.264 737.700, 558.211 728.946, 566.667 723.274, 572.146 716.082, 579.093 708.889, 586.040 701.696, 592.988 694.504, 599.935 687.311, 606.883 683.828, 610.248 " />
            <path fill="none" stroke-width="3.0" stroke-linecap="butt" stroke-opacity="1.0" stroke="rgb(0, 0, 0)" stroke-linejoin="round" d=" M 572.136, 540.457 580.616, 545.757 589.097, 551.056 597.578, 556.355 606.058, 561.654 614.539, 566.953 623.019, 572.252 631.500, 577.551 639.980, 582.850 648.461, 588.149 656.942, 593.448 665.422, 598.747 673.903, 604.046 682.383, 609.345 683.828, 610.248 " />
            <path fill="none" stroke-width="3.0" stroke-linecap="butt" stroke-opacity="1.0" stroke="rgb(0, 0, 0)" stroke-linejoin="round" d=" M 683.828, 610.248 687.147, 600.814 690.465, 591.381 693.784, 581.948 697.103, 572.515 700.422, 563.082 703.741, 553.648 707.059, 544.215 710.378, 534.782 713.697, 525.349 717.016, 515.915 717.602, 514.248 " />
            <path fill="none" stroke-width="3.0" stroke-linecap="butt" stroke-opacity="1.0" stroke="rgb(0, 0, 0)" stroke-linejoin="round" d=" M 772.893, 381.126 766.783, 389.043 760.673, 396.959 754.563, 404.876 748.454, 412.792 742.344, 420.709 736.234, 428.625 730.124, 436.542 724.015, 444.458 717.905, 452.374 711.796, 460.291 705.686, 468.207 699.576, 476.124 693.466, 484.040 687.356, 491.956 685.590, 494.245 676.329, 498.017 667.068, 501.790 657.807, 505.562 648.545, 509.334 639.284, 513.107 630.023, 516.879 620.762, 520.651 611.501, 524.423 602.239, 528.196 592.978, 531.968 583.717, 535.740 574.456, 539.513 572.136, 540.457 " />
            <path fill="none" stroke-width="3.0" stroke-linecap="butt" stroke-opacity="1.0" stroke="rgb(0, 0, 0)" stroke-linejoin="round" d=" M 953.477, 172.111 948.675, 180.882 943.873, 189.654 939.072, 198.426 934.270, 207.198 929.468, 215.970 924.667, 224.741 919.865, 233.513 915.064, 242.285 910.262, 251.057 907.115, 256.805 902.314, 265.577 897.512, 274.349 892.710, 283.121 887.909, 291.893 883.107, 300.664 879.862, 306.593 876.314, 297.243 872.766, 287.894 871.867, 285.525 " />
            <path fill="none" stroke-width="3.0" stroke-linecap="butt" stroke-opacity="1.0" stroke="rgb(0, 0, 0)" stroke-linejoin="round" d=" M 871.867, 285.525 867.598, 279.571 861.770, 271.444 855.943, 263.317 850.116, 255.190 844.289, 247.064 842.988, 245.249 " />
            <path fill="none" stroke-width="3.0" stroke-linecap="butt" stroke-opacity="1.0" stroke="rgb(0, 0, 0)" stroke-linejoin="round" d=" M 842.988, 245.249 835.796, 238.302 828.603, 231.354 821.411, 224.407 814.218, 217.460 807.026, 210.512 799.833, 203.565 792.640, 196.617 785.448, 189.670 778.255, 182.722 771.063, 175.775 763.870, 168.827 756.678, 161.880 754.201, 159.487 " />
            <path fill="none" stroke-width="3.0" stroke-linecap="butt" stroke-opacity="1.0" stroke="rgb(0, 0, 0)" stroke-linejoin="round" d=" M 754.201, 159.487 760.028, 167.614 765.855, 175.741 771.682, 183.867 777.509, 191.994 783.079, 199.763 " />
            <path fill="none" stroke-width="3.0" stroke-linecap="butt" stroke-opacity="1.0" stroke="rgb(0, 0, 0)" stroke-linejoin="round" d=" M 484.293, 313.878 491.485, 306.930 498.678, 299.983 505.870, 293.035 513.063, 286.088 515.405, 283.825 522.598, 276.878 529.790, 269.930 534.723, 265.165 541.916, 258.218 549.108, 251.270 556.301, 244.323 563.493, 237.375 570.686, 230.428 577.878, 223.481 583.266, 218.276 593.224, 217.353 603.181, 216.431 613.138, 215.508 623.096, 214.586 633.053, 213.663 643.010, 212.741 652.968, 211.818 662.925, 210.895 672.883, 209.973 682.840, 209.050 692.797, 208.128 702.755, 207.205 712.712, 206.282 722.669, 205.360 732.627, 204.437 742.584, 203.515 752.541, 202.592 762.499, 201.669 772.456, 200.747 783.079, 199.763 790.272, 206.710 797.464, 213.658 804.657, 220.605 811.849, 227.552 819.042, 234.500 826.234, 241.447 833.427, 248.395 840.619, 255.342 847.812, 262.290 855.005, 269.237 862.197, 276.185 866.650, 280.486 871.867, 285.525 864.674, 292.472 857.482, 299.420 850.289, 306.367 843.097, 313.315 835.904, 320.262 828.711, 327.210 821.519, 334.157 814.326, 341.105 807.134, 348.052 799.941, 355.000 792.749, 361.947 785.556, 368.895 778.364, 375.842 772.893, 381.126 767.676, 376.087 762.024, 370.628 759.325, 368.021 752.133, 361.074 744.940, 354.126 738.304, 347.716 731.111, 340.769 723.919, 333.821 716.726, 326.874 709.534, 319.926 702.341, 312.979 695.149, 306.031 687.956, 299.084 684.105, 295.364 674.148, 296.287 664.190, 297.209 654.233, 298.132 644.276, 299.054 634.318, 299.977 624.361, 300.900 614.404, 301.822 604.446, 302.745 594.489, 303.667 584.532, 304.590 574.574, 305.513 564.617, 306.435 554.660, 307.358 544.702, 308.280 534.745, 309.203 524.788, 310.125 514.830, 311.048 504.873, 311.971 494.915, 312.893 484.293, 313.878 478.748, 305.555 473.204, 297.233 467.660, 288.910 462.116, 280.588 456.660, 272.398 463.853, 265.451 471.045, 258.503 478.238, 251.556 485.430, 244.608 492.623, 237.661 499.816, 230.713 507.008, 223.766 514.201, 216.818 521.393, 209.871 528.586, 202.924 535.778, 195.976 542.971, 189.029 550.163, 182.081 554.388, 178.001 564.345, 177.078 574.303, 176.155 584.260, 175.233 594.217, 174.310 604.175, 173.388 614.132, 172.465 624.089, 171.542 634.047, 170.620 644.004, 169.697 653.961, 168.775 663.919, 167.852 673.876, 166.930 683.833, 166.007 693.791, 165.084 703.748, 164.162 713.706, 163.239 723.663, 162.317 733.620, 161.394 743.578, 160.471 754.201, 159.487 763.307, 163.620 772.413, 167.752 781.519, 171.885 783.079, 172.593 790.272, 179.540 797.464, 186.488 804.657, 193.435 811.849, 200.383 819.042, 207.330 826.234, 214.278 833.427, 221.225 840.619, 228.173 847.812, 235.120 852.073, 239.236 " />
            <path fill="none" stroke-width="3.0" stroke-linecap="butt" stroke-opacity="1.0" stroke="rgb(0, 0, 0)" stroke-linejoin="round" d=" M 684.105, 295.364 691.298, 288.417 698.490, 281.469 705.683, 274.522 712.875, 267.574 720.068, 260.627 727.260, 253.679 734.453, 246.732 741.646, 239.784 748.838, 232.837 756.031, 225.889 763.223, 218.942 770.416, 211.995 777.608, 205.047 783.079, 199.763 " />
            <path fill="none" stroke-width="3.0" stroke-linecap="butt" stroke-opacity="1.0" stroke="rgb(0, 0, 0)" stroke-linejoin="round" d=" M 554.388, 178.001 560.215, 186.127 566.042, 194.254 571.869, 202.381 577.696, 210.508 583.266, 218.276 " />
            <path fill="none" stroke-width="3.0" stroke-linecap="butt" stroke-opacity="1.0" stroke="rgb(0, 0, 0)" stroke-linejoin="round" d=" M 953.477, 870.708 953.477, 880.708 953.477, 890.708 953.477, 900.708 953.477, 908.804 " />
            <path fill="none" stroke-width="3.0" stroke-linecap="butt" stroke-opacity="1.0" stroke="rgb(0, 0, 0)" stroke-linejoin="round" d=" M 685.590, 636.457 694.071, 641.756 702.551, 647.055 711.032, 652.354 717.602, 656.460 724.795, 663.408 731.988, 670.355 739.180, 677.302 746.373, 684.250 753.565, 691.197 760.758, 698.145 767.676, 704.827 768.808, 705.921 776.000, 712.868 783.193, 719.816 790.385, 726.763 797.578, 733.710 804.771, 740.658 811.963, 747.605 819.156, 754.553 826.348, 761.500 833.541, 768.448 840.733, 775.395 847.926, 782.343 855.118, 789.290 862.311, 796.238 866.650, 800.429 867.598, 801.344 874.790, 808.292 879.862, 813.191 879.862, 823.191 879.862, 824.110 " />
            <path fill="none" stroke-width="3.0" stroke-linecap="butt" stroke-opacity="1.0" stroke="rgb(0, 0, 0)" stroke-linejoin="round" d=" M 717.602, 656.460 711.702, 648.387 705.801, 640.313 702.983, 636.457 697.083, 628.384 691.182, 620.310 685.281, 612.237 683.828, 610.248 691.020, 617.195 698.213, 624.143 705.406, 631.090 710.962, 636.457 718.155, 643.405 725.347, 650.352 732.540, 657.300 739.732, 664.247 746.925, 671.195 754.117, 678.142 761.310, 685.090 768.503, 692.037 775.695, 698.985 782.888, 705.932 790.080, 712.879 797.273, 719.827 804.465, 726.774 811.658, 733.722 818.850, 740.669 826.043, 747.617 833.235, 754.564 840.428, 761.512 847.621, 768.459 854.813, 775.407 862.006, 782.354 869.198, 789.302 876.391, 796.249 883.583, 803.197 890.776, 810.144 897.968, 817.091 905.234, 824.110 912.427, 831.057 919.619, 838.005 926.812, 844.952 934.004, 851.899 941.197, 858.847 948.389, 865.794 953.477, 870.708 945.597, 864.551 937.717, 858.395 929.837, 852.238 921.957, 846.081 914.077, 839.924 906.197, 833.767 898.317, 827.610 893.837, 824.110 885.957, 817.953 879.862, 813.191 " />
            <path fill="none" stroke-width="3.0" stroke-linecap="butt" stroke-opacity="1.0" stroke="rgb(0, 0, 0)" stroke-linejoin="round" d=" M 572.136, 540.457 579.770, 546.917 587.404, 553.376 595.037, 559.836 602.671, 566.295 610.305, 572.755 617.939, 579.214 625.573, 585.673 633.207, 592.133 640.841, 598.592 648.474, 605.052 656.108, 611.511 663.742, 617.971 671.376, 624.430 679.010, 630.889 685.590, 636.457 " />
            <path fill="none" stroke-width="3.0" stroke-linecap="butt" stroke-opacity="1.0" stroke="rgb(0, 0, 0)" stroke-linejoin="round" d=" M 879.862, 824.110 886.422, 831.657 892.982, 839.205 899.542, 846.752 906.102, 854.300 912.663, 861.847 919.223, 869.395 925.783, 876.942 932.343, 884.490 938.903, 892.037 945.463, 899.585 952.023, 907.132 953.477, 908.804 " />
            <path fill="none" stroke-width="3.0" stroke-linecap="butt" stroke-opacity="1.0" stroke="rgb(0, 0, 0)" stroke-linejoin="round" d=" M 456.660, 808.517 463.853, 815.464 471.045, 822.412 478.238, 829.359 485.430, 836.307 492.623, 843.254 499.816, 850.202 507.008, 857.149 514.201, 864.096 521.393, 871.044 528.586, 877.991 535.778, 884.939 542.971, 891.886 550.163, 898.834 554.388, 902.914 564.345, 903.837 574.303, 904.760 584.260, 905.682 594.217, 906.605 604.175, 907.527 614.132, 908.450 624.089, 909.373 634.047, 910.295 644.004, 911.218 653.961, 912.140 663.919, 913.063 673.876, 913.986 683.833, 914.908 693.791, 915.831 703.748, 916.753 713.706, 917.676 723.663, 918.598 733.620, 919.521 743.578, 920.444 754.201, 921.428 763.307, 917.295 772.413, 913.163 781.519, 909.030 783.079, 908.322 790.272, 901.375 797.464, 894.427 804.657, 887.480 811.849, 880.532 819.042, 873.585 826.234, 866.637 833.427, 859.690 840.619, 852.742 847.812, 845.795 852.073, 841.679 859.265, 834.732 866.458, 827.784 871.867, 822.560 " />
            <path fill="none" stroke-width="3.0" stroke-linecap="butt" stroke-opacity="1.0" stroke="rgb(0, 0, 0)" stroke-linejoin="round" d=" M 684.105, 785.551 678.561, 793.873 673.017, 802.196 667.473, 810.518 667.058, 811.141 " />
            <path fill="none" stroke-width="3.0" stroke-linecap="butt" stroke-opacity="1.0" stroke="rgb(0, 0, 0)" stroke-linejoin="round" d=" M 685.590, 636.457 692.783, 643.405 699.975, 650.352 707.168, 657.300 714.360, 664.247 721.553, 671.195 728.745, 678.142 735.938, 685.090 743.131, 692.037 750.323, 698.985 757.516, 705.932 762.024, 710.287 764.382, 712.564 771.575, 719.512 778.767, 726.459 785.960, 733.407 793.152, 740.354 800.345, 747.302 807.537, 754.249 814.730, 761.197 821.922, 768.144 829.115, 775.092 836.307, 782.039 843.500, 788.987 850.693, 795.934 857.885, 802.881 865.078, 809.829 872.270, 816.776 879.862, 824.110 " />
            <path fill="none" stroke-width="3.0" stroke-linecap="butt" stroke-opacity="1.0" stroke="rgb(0, 0, 0)" stroke-linejoin="round" d=" M 772.893, 726.958 780.085, 733.906 787.278, 740.853 794.470, 747.801 801.663, 754.748 808.856, 761.696 816.048, 768.643 823.241, 775.591 830.433, 782.538 837.626, 789.486 844.818, 796.433 852.011, 803.380 859.203, 810.328 866.396, 817.275 871.867, 822.560 879.862, 824.110 " />
            <path fill="none" stroke-width="3.0" stroke-linecap="butt" stroke-opacity="1.0" stroke="rgb(0, 0, 0)" stroke-linejoin="round" d=" M 685.590, 636.457 692.533, 643.654 699.476, 650.852 706.418, 658.049 713.361, 665.246 720.304, 672.443 727.247, 679.640 734.189, 686.837 741.132, 694.034 748.075, 701.231 755.018, 708.428 759.325, 712.894 762.187, 715.860 769.129, 723.057 772.893, 726.958 " />
            <path fill="none" stroke-width="3.0" stroke-linecap="butt" stroke-opacity="1.0" stroke="rgb(0, 0, 0)" stroke-linejoin="round" d=" M 738.304, 347.716 731.774, 355.290 725.245, 362.864 718.715, 370.438 712.185, 378.012 705.656, 385.586 699.126, 393.159 692.596, 400.733 686.067, 408.307 679.537, 415.881 673.007, 423.455 666.478, 431.029 659.948, 438.603 653.418, 446.176 646.889, 453.750 640.359, 461.324 633.829, 468.898 627.300, 476.472 620.770, 484.046 614.240, 491.620 607.711, 499.193 601.181, 506.767 594.651, 514.341 588.122, 521.915 581.592, 529.489 575.062, 537.063 572.136, 540.457 578.665, 548.031 585.195, 555.605 591.725, 563.179 598.254, 570.753 604.784, 578.327 611.314, 585.901 617.843, 593.475 624.373, 601.048 630.903, 608.622 637.432, 616.196 643.962, 623.770 650.492, 631.344 657.021, 638.918 663.551, 646.492 670.081, 654.065 676.610, 661.639 683.140, 669.213 689.670, 676.787 696.199, 684.361 702.729, 691.935 709.259, 699.509 715.788, 707.083 722.318, 714.656 728.848, 722.230 735.377, 729.804 738.304, 733.199 744.834, 740.773 745.261, 741.268 " />
            <path fill="none" stroke-width="3.0" stroke-linecap="butt" stroke-opacity="1.0" stroke="rgb(0, 0, 0)" stroke-linejoin="round" d=" M 745.261, 741.268 754.141, 736.669 763.021, 732.071 771.900, 727.472 772.893, 726.958 765.700, 733.906 758.508, 740.853 751.315, 747.801 744.123, 754.748 736.930, 761.696 729.738, 768.643 722.545, 775.591 715.352, 782.538 708.160, 789.486 700.967, 796.433 693.775, 803.380 686.582, 810.328 684.105, 812.721 674.148, 811.798 672.409, 811.637 667.058, 811.141 657.100, 810.219 647.143, 809.296 637.186, 808.373 627.228, 807.451 617.271, 806.528 607.314, 805.606 597.356, 804.683 587.399, 803.760 577.442, 802.838 567.484, 801.915 557.527, 800.993 547.570, 800.070 537.612, 799.147 527.655, 798.225 517.698, 797.302 515.405, 797.090 505.448, 796.167 495.490, 795.245 485.533, 794.322 484.293, 794.207 475.413, 798.806 466.533, 803.404 457.653, 808.003 456.660, 808.517 462.204, 800.194 467.749, 791.872 473.293, 783.549 478.837, 775.227 484.292, 767.037 494.250, 767.960 504.207, 768.883 514.164, 769.805 524.122, 770.728 534.079, 771.650 544.037, 772.573 553.994, 773.496 563.951, 774.418 573.909, 775.341 583.866, 776.263 593.823, 777.186 603.781, 778.108 613.738, 779.031 623.695, 779.954 633.653, 780.876 643.610, 781.799 653.567, 782.721 663.525, 783.644 673.482, 784.567 684.105, 785.551 691.298, 778.603 698.490, 771.656 705.683, 764.708 712.875, 757.761 720.068, 750.814 727.260, 743.866 734.453, 736.919 738.304, 733.199 " />
            <path fill="none" stroke-width="3.0" stroke-linecap="butt" stroke-opacity="1.0" stroke="rgb(0, 0, 0)" stroke-linejoin="round" d=" M 484.293, 794.207 491.485, 801.155 498.678, 808.102 503.610, 812.867 510.803, 819.814 517.995, 826.762 525.188, 833.709 532.381, 840.657 539.573, 847.604 546.766, 854.552 553.958, 861.499 561.151, 868.447 568.343, 875.394 575.536, 882.342 583.266, 889.809 593.224, 890.731 603.181, 891.654 613.138, 892.576 623.096, 893.499 633.053, 894.422 643.010, 895.344 652.968, 896.267 662.925, 897.189 672.883, 898.112 682.840, 899.035 692.797, 899.957 702.755, 900.880 712.712, 901.802 722.669, 902.725 732.627, 903.648 742.584, 904.570 752.541, 905.493 762.499, 906.415 772.456, 907.338 783.079, 908.322 " />
            <path fill="none" stroke-width="3.0" stroke-linecap="butt" stroke-opacity="1.0" stroke="rgb(0, 0, 0)" stroke-linejoin="round" d=" M 783.079, 908.322 775.887, 901.375 768.694, 894.427 761.501, 887.480 754.309, 880.532 747.116, 873.585 739.924, 866.637 732.731, 859.690 725.539, 852.742 718.346, 845.795 711.154, 838.847 703.961, 831.900 696.769, 824.953 689.576, 818.005 684.105, 812.721 " />
            <path fill="none" stroke-width="3.0" stroke-linecap="butt" stroke-opacity="1.0" stroke="rgb(0, 0, 0)" stroke-linejoin="round" d=" M 583.266, 889.809 574.160, 893.941 565.054, 898.074 555.948, 902.206 554.388, 902.914 " />
            <path fill="none" stroke-width="3.0" stroke-linecap="butt" stroke-opacity="1.0" stroke="rgb(0, 0, 0)" stroke-linejoin="round" d=" M 672.409, 811.637 679.602, 804.690 686.794, 797.742 693.987, 790.795 701.179, 783.847 708.372, 776.900 715.565, 769.952 722.757, 763.005 729.950, 756.057 737.142, 749.110 744.335, 742.162 745.261, 741.268 " />
            <path fill="none" stroke-width="3.0" stroke-linecap="butt" stroke-opacity="1.0" stroke="rgb(0, 0, 0)" stroke-linejoin="round" d=" M 736.278, 496.208 733.136, 494.245 740.329, 487.298 747.521, 480.350 754.714, 473.403 761.906, 466.455 769.099, 459.508 776.291, 452.560 783.484, 445.613 790.676, 438.665 797.869, 431.718 805.062, 424.770 812.254, 417.823 819.447, 410.875 826.639, 403.928 833.832, 396.981 841.024, 390.033 848.217, 383.086 855.409, 376.138 862.602, 369.191 869.794, 362.243 876.987, 355.296 879.862, 352.519 " />
        </g>
    </g>
</svg>
