<?xml version='1.0' encoding='ascii'?>
<svg xmlns="http://www.w3.org/2000/svg" version="1.1" width="1920" height="1080">
    <g id="ViewLayer_LineSet" xmlns:inkscape="http://www.inkscape.org/namespaces/inkscape" inkscape:groupmode="lineset" inkscape:label="ViewLayer_LineSet">
        <g xmlns:inkscape="http://www.inkscape.org/namespaces/inkscape" inkscape:groupmode="layer" id="strokes" inkscape:label="strokes">
            <path fill="none" stroke-width="3.0" stroke-linecap="butt" stroke-opacity="1.0" stroke="rgb(0, 0, 0)" stroke-linejoin="round" d=" M 843.728, 230.565 851.977, 224.912 860.225, 219.259 868.474, 213.606 876.723, 207.953 884.972, 202.300 893.221, 196.647 901.470, 190.994 909.719, 185.341 917.967, 179.688 926.216, 174.035 934.465, 168.382 942.714, 162.729 950.963, 157.076 953.477, 155.353 953.477, 165.353 953.477, 175.353 953.477, 185.353 953.477, 195.353 953.477, 205.353 953.477, 215.353 953.477, 225.353 953.477, 235.353 953.477, 245.353 953.477, 255.353 953.477, 265.353 953.477, 267.046 " />
            <path fill="none" stroke-width="3.0" stroke-linecap="butt" stroke-opacity="1.0" stroke="rgb(0, 0, 0)" stroke-linejoin="round" d=" M 953.477, 267.046 960.548, 274.117 967.619, 281.188 974.690, 288.259 981.761, 295.330 988.832, 302.401 995.903, 309.472 1002.974, 316.543 1010.045, 323.614 1017.116, 330.685 1024.187, 337.756 1031.258, 344.827 1038.329, 351.898 1045.401, 358.969 1052.472, 366.040 1059.543, 373.112 1066.614, 380.183 1073.685, 387.254 1080.756, 394.325 1087.827, 401.396 1094.898, 408.467 1101.969, 415.538 1109.040, 422.609 1116.111, 429.680 1123.182, 436.751 1130.253, 443.822 1137.324, 450.893 1144.395, 457.964 1151.466, 465.035 1158.537, 472.107 1165.609, 479.178 1172.680, 486.249 1179.751, 493.320 1186.822, 500.391 1193.893, 507.462 1200.964, 514.533 1208.035, 521.604 1215.106, 528.675 1223.125, 536.694 " />
            <path fill="none" stroke-width="3.0" stroke-linecap="butt" stroke-opacity="1.0" stroke="rgb(0, 0, 0)" stroke-linejoin="round" d=" M 1223.125, 536.694 1233.125, 536.694 1243.125, 536.694 1253.125, 536.694 1263.125, 536.694 1273.125, 536.694 1283.125, 536.694 1293.125, 536.694 1303.125, 536.694 1313.125, 536.694 1323.125, 536.694 1333.125, 536.694 1334.817, 536.694 " />
            <path fill="none" stroke-width="3.0" stroke-linecap="butt" stroke-opacity="1.0" stroke="rgb(0, 0, 0)" stroke-linejoin="round" d=" M 843.728, 842.823 851.977, 848.476 860.225, 854.129 868.474, 859.782 876.723, 865.435 884.972, 871.088 893.221, 876.741 901.470, 882.394 909.719, 888.047 917.967, 893.700 926.216, 899.353 934.465, 905.006 942.714, 910.659 950.963, 916.312 953.477, 918.035 960.548, 910.964 967.619, 903.893 974.690, 896.822 981.761, 889.751 988.832, 882.680 995.903, 875.608 1002.974, 868.537 1010.045, 861.466 1017.116, 854.395 1024.187, 847.324 1031.258, 840.253 1038.329, 833.182 1045.400, 826.111 1052.471, 819.040 1059.542, 811.969 1066.614, 804.898 1073.685, 797.827 1080.756, 790.756 1087.827, 783.685 1094.898, 776.614 1101.969, 769.542 1109.040, 762.471 1116.111, 755.400 1123.182, 748.329 1130.253, 741.258 1137.324, 734.187 1144.395, 727.116 1151.466, 720.045 1158.537, 712.974 1165.609, 705.903 1172.680, 698.832 1179.751, 691.761 1186.822, 684.690 1193.893, 677.619 1200.964, 670.548 1208.035, 663.476 1215.106, 656.405 1222.177, 649.334 1229.248, 642.263 1236.319, 635.192 1243.390, 628.121 1250.461, 621.050 1257.532, 613.979 1264.604, 606.908 1271.675, 599.837 1278.746, 592.766 1285.817, 585.695 1292.888, 578.624 1299.959, 571.553 1307.030, 564.482 1314.101, 557.410 1321.172, 550.339 1328.243, 543.268 1334.817, 536.694 1327.746, 529.623 1320.675, 522.552 1313.604, 515.481 1306.533, 508.410 1299.462, 501.339 1292.391, 494.268 1285.320, 487.197 1278.249, 480.126 1271.178, 473.055 1264.107, 465.983 1257.036, 458.912 1249.964, 451.841 1242.893, 444.770 1235.822, 437.699 1228.751, 430.628 1221.680, 423.557 1214.609, 416.486 1207.538, 409.415 1200.467, 402.344 1193.396, 395.273 1186.325, 388.202 1179.254, 381.131 1172.183, 374.060 1165.112, 366.989 1158.041, 359.917 1150.969, 352.846 1143.898, 345.775 1136.827, 338.704 1129.756, 331.633 1122.685, 324.562 1115.614, 317.491 1108.543, 310.420 1101.472, 303.349 1094.401, 296.278 1087.330, 289.207 1080.259, 282.136 1073.188, 275.065 1066.117, 267.994 1059.046, 260.923 1051.975, 253.851 1044.904, 246.780 1037.833, 239.709 1030.761, 232.638 1023.690, 225.567 1016.619, 218.496 1009.548, 211.425 1002.477, 204.354 995.406, 197.283 988.335, 190.212 981.264, 183.141 974.193, 176.070 967.122, 168.999 960.051, 161.928 953.477, 155.353 " />
            <path fill="none" stroke-width="3.0" stroke-linecap="butt" stroke-opacity="1.0" stroke="rgb(0, 0, 0)" stroke-linejoin="round" d=" M 953.477, 267.046 953.477, 277.046 953.477, 287.046 953.477, 297.046 953.477, 307.046 953.477, 317.046 953.477, 327.046 953.477, 337.046 953.477, 347.046 953.477, 357.046 953.477, 367.046 953.477, 377.046 953.477, 387.046 953.477, 397.046 953.477, 407.046 953.477, 417.046 953.477, 427.046 953.477, 437.046 953.477, 447.046 953.477, 457.046 953.477, 467.046 953.477, 477.046 953.477, 487.046 953.477, 497.046 953.477, 507.046 953.477, 517.046 953.477, 527.046 953.477, 536.694 " />
            <path fill="none" stroke-width="3.0" stroke-linecap="butt" stroke-opacity="1.0" stroke="rgb(0, 0, 0)" stroke-linejoin="round" d=" M 953.477, 536.694 963.477, 536.694 973.477, 536.694 983.477, 536.694 993.477, 536.694 1003.477, 536.694 1013.477, 536.694 1023.477, 536.694 1033.477, 536.694 1043.477, 536.694 1053.477, 536.694 1063.477, 536.694 1073.477, 536.694 1083.477, 536.694 1093.477, 536.694 1103.477, 536.694 1113.477, 536.694 1123.477, 536.694 1133.477, 536.694 1143.477, 536.694 1153.477, 536.694 1163.477, 536.694 1173.477, 536.694 1183.477, 536.694 1193.477, 536.694 1203.477, 536.694 1213.477, 536.694 1223.125, 536.694 1216.054, 543.765 1208.983, 550.836 1201.912, 557.907 1194.841, 564.978 1187.770, 572.049 1180.699, 579.121 1173.628, 586.192 1166.557, 593.263 1159.486, 600.334 1152.414, 607.405 1145.343, 614.476 1138.272, 621.547 1131.201, 628.618 1124.130, 635.689 1117.059, 642.760 1109.988, 649.831 1102.917, 656.902 1095.846, 663.973 1088.775, 671.044 1081.704, 678.116 1074.633, 685.187 1067.562, 692.258 1060.491, 699.329 1053.420, 706.400 1046.349, 713.471 1039.277, 720.542 1032.206, 727.613 1025.135, 734.684 1018.064, 741.755 1010.993, 748.826 1003.922, 755.897 996.851, 762.968 989.780, 770.039 982.709, 777.110 975.638, 784.182 968.567, 791.253 961.496, 798.324 953.477, 806.343 " />
            <path fill="none" stroke-width="3.0" stroke-linecap="butt" stroke-opacity="1.0" stroke="rgb(0, 0, 0)" stroke-linejoin="round" d=" M 879.862, 300.820 872.791, 307.891 865.720, 314.962 858.649, 322.033 851.578, 329.104 844.507, 336.175 837.436, 343.247 830.365, 350.318 823.294, 357.389 816.222, 364.460 809.151, 371.531 802.080, 378.602 795.009, 385.673 787.938, 392.744 780.867, 399.815 773.796, 406.886 766.725, 413.957 759.654, 421.028 752.583, 428.099 745.512, 435.170 738.441, 442.241 731.370, 449.312 724.299, 456.384 717.602, 463.080 717.602, 463.080 717.601, 463.080 707.601, 463.080 697.601, 463.080 687.601, 463.080 685.590, 463.080 " />
            <path fill="none" stroke-width="3.0" stroke-linecap="butt" stroke-opacity="1.0" stroke="rgb(0, 0, 0)" stroke-linejoin="round" d=" M 683.828, 536.694 693.828, 536.694 703.828, 536.694 713.828, 536.694 723.828, 536.694 733.828, 536.694 743.828, 536.694 753.828, 536.694 763.828, 536.694 773.828, 536.694 783.828, 536.694 793.828, 536.694 803.828, 536.694 813.828, 536.694 823.828, 536.694 833.828, 536.694 843.828, 536.694 853.828, 536.694 863.828, 536.694 873.828, 536.694 883.828, 536.694 893.828, 536.694 903.828, 536.694 913.828, 536.694 923.828, 536.694 933.828, 536.694 943.828, 536.694 953.477, 536.694 953.477, 546.694 953.477, 556.694 953.477, 566.694 953.477, 576.694 953.477, 586.694 953.477, 596.694 953.477, 606.694 953.477, 616.694 953.477, 626.694 953.477, 636.694 953.477, 646.694 953.477, 656.694 953.477, 666.694 953.477, 676.694 953.477, 686.694 953.477, 696.694 953.477, 706.694 953.477, 716.694 953.477, 726.694 953.477, 736.694 953.477, 746.694 953.477, 756.694 953.477, 766.694 953.477, 776.694 953.477, 786.694 953.477, 796.694 953.477, 806.343 " />
            <path fill="none" stroke-width="3.0" stroke-linecap="butt" stroke-opacity="1.0" stroke="rgb(0, 0, 0)" stroke-linejoin="round" d=" M 879.862, 268.808 879.862, 278.808 879.862, 288.808 879.862, 298.808 879.862, 300.820 879.862, 300.820 888.951, 296.650 898.040, 292.480 907.129, 288.310 916.218, 284.140 925.307, 279.970 927.408, 279.006 927.408, 279.006 936.497, 274.836 945.586, 270.666 953.477, 267.046 946.406, 274.117 939.334, 281.188 932.263, 288.259 927.408, 293.114 927.408, 293.114 920.337, 300.185 913.266, 307.256 906.195, 314.327 899.124, 321.398 892.053, 328.469 884.982, 335.541 877.910, 342.612 870.839, 349.683 863.768, 356.754 856.697, 363.825 849.626, 370.896 842.555, 377.967 835.484, 385.038 828.413, 392.109 821.342, 399.180 814.271, 406.251 807.200, 413.322 800.129, 420.393 793.058, 427.464 785.987, 434.535 778.916, 441.607 771.844, 448.678 764.773, 455.749 757.442, 463.080 757.442, 463.080 750.371, 470.151 743.300, 477.222 736.229, 484.293 729.158, 491.364 722.087, 498.435 715.016, 505.506 707.945, 512.577 700.874, 519.648 693.803, 526.719 686.732, 533.790 683.828, 536.694 " />
            <path fill="none" stroke-width="3.0" stroke-linecap="butt" stroke-opacity="1.0" stroke="rgb(0, 0, 0)" stroke-linejoin="round" d=" M 572.136, 536.694 582.136, 536.694 592.136, 536.694 602.136, 536.694 612.136, 536.694 622.136, 536.694 632.136, 536.694 642.136, 536.694 652.136, 536.694 662.136, 536.694 672.136, 536.694 682.136, 536.694 683.828, 536.694 " />
            <path fill="none" stroke-width="3.0" stroke-linecap="butt" stroke-opacity="1.0" stroke="rgb(0, 0, 0)" stroke-linejoin="round" d=" M 683.828, 536.694 687.998, 527.605 692.168, 518.516 696.338, 509.427 700.508, 500.338 704.678, 491.249 708.848, 482.160 713.018, 473.071 717.189, 463.982 717.602, 463.080 717.602, 463.080 " />
            <path fill="none" stroke-width="3.0" stroke-linecap="butt" stroke-opacity="1.0" stroke="rgb(0, 0, 0)" stroke-linejoin="round" d=" M 685.590, 463.080 677.201, 468.523 668.812, 473.966 660.424, 479.409 652.035, 484.852 643.646, 490.295 635.257, 495.738 626.868, 501.181 618.479, 506.624 610.090, 512.067 601.702, 517.510 593.313, 522.954 584.924, 528.397 576.535, 533.840 572.136, 536.694 " />
            <path fill="none" stroke-width="3.0" stroke-linecap="butt" stroke-opacity="1.0" stroke="rgb(0, 0, 0)" stroke-linejoin="round" d=" M 953.477, 155.353 948.033, 163.742 942.590, 172.131 937.147, 180.520 931.704, 188.909 926.261, 197.298 920.818, 205.687 915.375, 214.075 909.932, 222.464 904.489, 230.853 899.046, 239.242 893.603, 247.631 888.160, 256.020 882.716, 264.409 879.862, 268.808 " />
            <path fill="none" stroke-width="3.0" stroke-linecap="butt" stroke-opacity="1.0" stroke="rgb(0, 0, 0)" stroke-linejoin="round" d=" M 871.867, 258.704 864.796, 251.633 857.725, 244.562 850.654, 237.491 843.728, 230.565 836.657, 223.494 829.586, 216.423 822.515, 209.352 815.443, 202.281 808.372, 195.210 801.301, 188.139 794.230, 181.068 787.159, 173.997 783.079, 169.917 " />
            <path fill="none" stroke-width="3.0" stroke-linecap="butt" stroke-opacity="1.0" stroke="rgb(0, 0, 0)" stroke-linejoin="round" d=" M 879.862, 268.808 879.862, 268.808 872.791, 275.879 865.720, 282.950 858.649, 290.021 851.578, 297.092 844.507, 304.163 837.436, 311.234 830.365, 318.305 823.294, 325.376 816.222, 332.447 809.151, 339.518 802.080, 346.590 795.009, 353.661 787.938, 360.732 780.867, 367.803 773.796, 374.874 766.725, 381.945 759.654, 389.016 752.583, 396.087 745.512, 403.158 738.441, 410.229 731.370, 417.300 724.299, 424.371 717.227, 431.442 710.156, 438.513 703.085, 445.584 696.014, 452.656 688.943, 459.727 685.590, 463.080 " />
            <path fill="none" stroke-width="3.0" stroke-linecap="butt" stroke-opacity="1.0" stroke="rgb(0, 0, 0)" stroke-linejoin="round" d=" M 871.867, 258.704 871.866, 258.705 871.865, 258.706 864.794, 265.777 857.723, 272.848 850.652, 279.919 843.581, 286.990 836.510, 294.061 829.439, 301.132 822.368, 308.203 815.297, 315.274 808.226, 322.345 801.155, 329.417 794.084, 336.488 787.013, 343.559 779.941, 350.630 772.893, 357.678 772.893, 357.678 772.892, 357.678 765.821, 350.607 758.750, 343.535 751.679, 336.464 744.694, 329.480 737.623, 322.409 730.552, 315.338 723.481, 308.267 716.410, 301.196 709.339, 294.125 702.268, 287.053 695.197, 279.982 688.126, 272.911 684.105, 268.891 684.105, 268.891 674.151, 269.846 664.196, 270.800 654.242, 271.755 644.288, 272.710 634.334, 273.665 624.379, 274.620 614.425, 275.575 604.471, 276.529 594.516, 277.484 584.562, 278.439 574.608, 279.394 564.653, 280.349 554.699, 281.304 544.745, 282.258 534.790, 283.213 524.836, 284.168 514.882, 285.123 504.928, 286.078 494.973, 287.033 484.293, 288.057 484.293, 288.057 484.292, 288.057 477.379, 280.832 470.466, 273.607 463.552, 266.381 456.660, 259.179 " />
            <path fill="none" stroke-width="3.0" stroke-linecap="butt" stroke-opacity="1.0" stroke="rgb(0, 0, 0)" stroke-linejoin="round" d=" M 772.893, 357.678 766.514, 365.380 760.135, 373.081 753.756, 380.782 747.377, 388.483 740.998, 396.185 734.620, 403.886 728.241, 411.587 721.862, 419.289 715.483, 426.990 709.104, 434.691 702.725, 442.393 696.346, 450.094 689.967, 457.795 685.590, 463.080 " />
            <path fill="none" stroke-width="3.0" stroke-linecap="butt" stroke-opacity="1.0" stroke="rgb(0, 0, 0)" stroke-linejoin="round" d=" M 684.105, 268.891 684.728, 268.268 691.799, 261.196 698.870, 254.125 705.941, 247.054 713.013, 239.983 720.084, 232.912 727.155, 225.841 734.226, 218.770 741.297, 211.699 748.368, 204.628 755.439, 197.557 762.510, 190.486 769.581, 183.415 776.652, 176.344 782.456, 170.540 783.079, 169.917 " />
            <path fill="none" stroke-width="3.0" stroke-linecap="butt" stroke-opacity="1.0" stroke="rgb(0, 0, 0)" stroke-linejoin="round" d=" M 783.079, 169.917 781.942, 170.026 771.988, 170.981 762.033, 171.935 752.079, 172.890 742.125, 173.845 732.170, 174.800 722.216, 175.755 712.262, 176.710 702.307, 177.665 692.353, 178.619 682.399, 179.574 672.444, 180.529 662.490, 181.484 652.536, 182.439 642.582, 183.394 632.627, 184.348 622.673, 185.303 612.719, 186.258 602.764, 187.213 592.810, 188.168 583.266, 189.083 576.195, 196.154 569.124, 203.225 562.053, 210.297 554.982, 217.368 547.911, 224.439 540.840, 231.510 533.769, 238.581 526.698, 245.652 519.167, 253.183 512.096, 260.254 505.025, 267.325 497.954, 274.396 490.882, 281.467 484.293, 288.057 484.293, 288.057 " />
            <path fill="none" stroke-width="3.0" stroke-linecap="butt" stroke-opacity="1.0" stroke="rgb(0, 0, 0)" stroke-linejoin="round" d=" M 783.079, 169.917 775.854, 163.003 768.629, 156.090 761.403, 149.176 754.201, 142.285 744.246, 143.239 734.292, 144.194 724.338, 145.149 714.383, 146.104 704.429, 147.059 694.475, 148.014 684.520, 148.968 674.566, 149.923 664.612, 150.878 654.658, 151.833 644.703, 152.788 634.749, 153.743 624.795, 154.698 614.840, 155.652 604.886, 156.607 594.932, 157.562 584.977, 158.517 575.023, 159.472 565.069, 160.427 554.388, 161.451 547.317, 168.522 540.246, 175.593 533.175, 182.664 526.104, 189.735 519.033, 196.806 511.962, 203.878 504.890, 210.949 497.819, 218.020 490.748, 225.091 483.677, 232.162 476.606, 239.233 469.535, 246.304 462.464, 253.375 456.660, 259.179 463.574, 266.404 470.487, 273.629 477.401, 280.855 484.292, 288.057 484.293, 288.057 " />
            <path fill="none" stroke-width="3.0" stroke-linecap="butt" stroke-opacity="1.0" stroke="rgb(0, 0, 0)" stroke-linejoin="round" d=" M 554.388, 161.451 561.613, 168.365 568.838, 175.278 576.064, 182.191 583.266, 189.083 " />
            <path fill="none" stroke-width="3.0" stroke-linecap="butt" stroke-opacity="1.0" stroke="rgb(0, 0, 0)" stroke-linejoin="round" d=" M 953.477, 806.343 953.477, 816.343 953.477, 826.343 953.477, 836.343 953.477, 846.343 953.477, 856.343 953.477, 866.343 953.477, 876.343 953.477, 886.343 953.477, 896.343 953.477, 906.343 953.477, 916.343 953.477, 918.035 " />
            <path fill="none" stroke-width="3.0" stroke-linecap="butt" stroke-opacity="1.0" stroke="rgb(0, 0, 0)" stroke-linejoin="round" d=" M 685.590, 610.309 695.590, 610.309 705.590, 610.309 715.590, 610.309 717.602, 610.309 " />
            <path fill="none" stroke-width="3.0" stroke-linecap="butt" stroke-opacity="1.0" stroke="rgb(0, 0, 0)" stroke-linejoin="round" d=" M 717.602, 610.309 717.602, 610.309 713.432, 601.220 709.262, 592.131 705.092, 583.042 700.922, 573.953 696.752, 564.863 692.582, 555.774 688.412, 546.685 684.242, 537.596 683.828, 536.694 690.899, 543.765 697.970, 550.836 705.041, 557.907 712.112, 564.978 719.183, 572.049 726.254, 579.121 733.325, 586.192 740.396, 593.263 747.468, 600.334 754.539, 607.405 757.442, 610.309 757.442, 610.309 764.513, 617.380 771.585, 624.451 778.656, 631.522 785.727, 638.593 792.798, 645.664 799.869, 652.735 806.940, 659.806 814.011, 666.877 821.082, 673.948 828.153, 681.019 835.224, 688.090 842.295, 695.161 849.366, 702.232 856.437, 709.304 863.508, 716.375 870.580, 723.446 877.651, 730.517 884.722, 737.588 891.793, 744.659 898.864, 751.730 905.935, 758.801 913.006, 765.872 920.077, 772.943 927.408, 780.274 927.408, 780.274 934.479, 787.345 941.550, 794.416 948.621, 801.487 953.477, 806.343 944.388, 802.173 935.299, 798.003 927.408, 794.382 927.408, 794.382 918.319, 790.212 909.230, 786.042 900.141, 781.872 891.052, 777.702 881.963, 773.532 879.862, 772.568 879.862, 772.568 879.862, 782.568 879.862, 792.568 879.862, 802.568 879.862, 804.581 " />
            <path fill="none" stroke-width="3.0" stroke-linecap="butt" stroke-opacity="1.0" stroke="rgb(0, 0, 0)" stroke-linejoin="round" d=" M 572.136, 536.694 580.525, 542.137 588.913, 547.580 597.302, 553.023 605.691, 558.466 614.080, 563.910 622.469, 569.353 630.858, 574.796 639.247, 580.239 647.635, 585.682 656.024, 591.125 664.413, 596.568 672.802, 602.011 681.191, 607.454 685.590, 610.309 " />
            <path fill="none" stroke-width="3.0" stroke-linecap="butt" stroke-opacity="1.0" stroke="rgb(0, 0, 0)" stroke-linejoin="round" d=" M 871.867, 814.684 878.072, 806.842 879.862, 804.581 885.305, 812.969 890.748, 821.358 896.191, 829.747 901.634, 838.136 907.077, 846.525 912.521, 854.914 917.964, 863.303 923.407, 871.691 928.850, 880.080 934.293, 888.469 939.736, 896.858 945.179, 905.247 950.622, 913.636 953.477, 918.035 " />
            <path fill="none" stroke-width="3.0" stroke-linecap="butt" stroke-opacity="1.0" stroke="rgb(0, 0, 0)" stroke-linejoin="round" d=" M 456.660, 814.210 463.731, 821.281 470.802, 828.352 477.874, 835.423 484.945, 842.494 492.016, 849.565 499.087, 856.636 506.158, 863.707 513.229, 870.778 520.300, 877.849 527.371, 884.920 534.442, 891.991 541.513, 899.062 548.584, 906.133 554.388, 911.937 564.342, 912.892 574.297, 913.847 584.251, 914.802 594.205, 915.757 604.159, 916.711 614.114, 917.666 624.068, 918.621 634.022, 919.576 643.977, 920.531 653.931, 921.486 663.885, 922.440 673.840, 923.395 683.794, 924.350 693.748, 925.305 703.703, 926.260 713.657, 927.215 723.611, 928.170 733.565, 929.124 743.520, 930.079 754.201, 931.104 761.426, 924.190 768.651, 917.277 775.876, 910.363 783.079, 903.472 " />
            <path fill="none" stroke-width="3.0" stroke-linecap="butt" stroke-opacity="1.0" stroke="rgb(0, 0, 0)" stroke-linejoin="round" d=" M 685.590, 610.309 692.661, 617.380 699.732, 624.451 706.803, 631.522 713.874, 638.593 720.945, 645.664 728.017, 652.735 735.088, 659.806 742.159, 666.877 749.230, 673.948 756.301, 681.019 763.372, 688.090 770.443, 695.161 777.514, 702.233 784.585, 709.304 791.656, 716.375 798.727, 723.446 805.798, 730.517 812.869, 737.588 819.940, 744.659 827.012, 751.730 834.083, 758.801 841.154, 765.872 848.225, 772.943 855.296, 780.014 862.367, 787.085 869.438, 794.156 876.509, 801.227 879.862, 804.581 879.862, 804.581 " />
            <path fill="none" stroke-width="3.0" stroke-linecap="butt" stroke-opacity="1.0" stroke="rgb(0, 0, 0)" stroke-linejoin="round" d=" M 685.590, 610.309 691.969, 618.010 698.348, 625.711 704.727, 633.413 711.106, 641.114 717.485, 648.815 723.863, 656.516 730.242, 664.218 736.621, 671.919 743.000, 679.620 749.379, 687.322 755.758, 695.023 762.137, 702.724 768.516, 710.425 772.893, 715.710 " />
            <path fill="none" stroke-width="3.0" stroke-linecap="butt" stroke-opacity="1.0" stroke="rgb(0, 0, 0)" stroke-linejoin="round" d=" M 484.293, 785.331 484.292, 785.331 477.379, 792.556 470.466, 799.782 463.552, 807.007 456.660, 814.210 463.574, 806.984 470.487, 799.759 477.401, 792.534 484.292, 785.331 484.293, 785.331 484.293, 785.331 494.247, 786.286 504.201, 787.241 514.155, 788.196 524.110, 789.150 534.064, 790.105 544.018, 791.060 553.973, 792.015 563.927, 792.970 573.881, 793.925 583.836, 794.880 593.790, 795.834 603.744, 796.789 613.699, 797.744 623.653, 798.699 633.607, 799.654 643.561, 800.609 653.516, 801.563 663.470, 802.518 673.424, 803.473 684.105, 804.498 684.105, 804.498 691.176, 797.427 698.247, 790.355 705.318, 783.284 712.389, 776.213 719.461, 769.142 726.532, 762.071 733.603, 755.000 740.674, 747.929 744.694, 743.908 751.765, 736.837 758.836, 729.766 765.908, 722.695 772.892, 715.711 772.893, 715.710 772.893, 715.710 779.964, 722.781 787.035, 729.852 794.106, 736.923 801.177, 743.994 808.248, 751.065 815.319, 758.136 822.390, 765.207 829.461, 772.279 836.532, 779.350 843.604, 786.421 850.675, 793.492 857.746, 800.563 864.817, 807.634 871.867, 814.684 871.867, 814.684 871.867, 814.684 864.796, 821.755 857.725, 828.826 850.654, 835.897 843.728, 842.823 836.657, 849.894 829.586, 856.965 822.515, 864.036 815.443, 871.107 808.372, 878.178 801.301, 885.249 794.230, 892.320 787.159, 899.391 783.079, 903.472 " />
            <path fill="none" stroke-width="3.0" stroke-linecap="butt" stroke-opacity="1.0" stroke="rgb(0, 0, 0)" stroke-linejoin="round" d=" M 744.694, 329.480 744.694, 329.480 738.295, 337.164 731.896, 344.849 725.497, 352.533 719.097, 360.218 712.698, 367.902 706.299, 375.586 699.900, 383.271 693.501, 390.955 687.101, 398.640 680.702, 406.324 674.303, 414.008 667.904, 421.693 661.505, 429.377 655.105, 437.062 648.706, 444.746 642.307, 452.430 635.908, 460.115 629.508, 467.799 623.109, 475.484 616.710, 483.168 610.311, 490.852 603.912, 498.537 597.512, 506.221 591.113, 513.906 584.714, 521.590 578.315, 529.274 572.136, 536.694 578.535, 544.379 584.934, 552.063 591.333, 559.747 597.733, 567.432 604.132, 575.116 610.531, 582.801 616.930, 590.485 623.330, 598.169 629.729, 605.854 636.128, 613.538 642.527, 621.223 648.926, 628.907 655.326, 636.591 661.725, 644.276 668.124, 651.960 674.523, 659.645 680.922, 667.329 687.322, 675.013 693.721, 682.698 700.120, 690.382 706.519, 698.067 712.919, 705.751 719.318, 713.435 725.717, 721.120 732.116, 728.804 738.515, 736.489 744.694, 743.908 744.694, 743.908 " />
            <path fill="none" stroke-width="3.0" stroke-linecap="butt" stroke-opacity="1.0" stroke="rgb(0, 0, 0)" stroke-linejoin="round" d=" M 484.293, 785.331 484.293, 785.331 491.364, 792.402 498.435, 799.473 505.506, 806.544 512.577, 813.615 519.167, 820.205 526.238, 827.276 533.309, 834.347 540.380, 841.419 547.451, 848.490 554.522, 855.561 561.593, 862.632 568.664, 869.703 575.735, 876.774 583.266, 884.305 593.221, 885.260 603.175, 886.215 613.129, 887.170 623.084, 888.124 633.038, 889.079 642.992, 890.034 652.947, 890.989 662.901, 891.944 672.855, 892.899 682.809, 893.853 692.764, 894.808 702.718, 895.763 712.672, 896.718 722.627, 897.673 732.581, 898.628 742.535, 899.582 752.490, 900.537 762.444, 901.492 772.398, 902.447 781.942, 903.362 783.079, 903.472 " />
            <path fill="none" stroke-width="3.0" stroke-linecap="butt" stroke-opacity="1.0" stroke="rgb(0, 0, 0)" stroke-linejoin="round" d=" M 583.266, 884.305 576.041, 891.218 568.816, 898.132 561.591, 905.045 554.388, 911.937 " />
            <path fill="none" stroke-width="3.0" stroke-linecap="butt" stroke-opacity="1.0" stroke="rgb(0, 0, 0)" stroke-linejoin="round" d=" M 744.694, 743.908 737.623, 750.979 730.552, 758.051 723.481, 765.122 716.410, 772.193 709.339, 779.264 702.268, 786.335 695.197, 793.406 688.126, 800.477 684.105, 804.498 " />
            <path fill="none" stroke-width="3.0" stroke-linecap="butt" stroke-opacity="1.0" stroke="rgb(0, 0, 0)" stroke-linejoin="round" d=" M 684.105, 268.891 691.176, 275.962 698.247, 283.033 705.318, 290.104 712.389, 297.175 719.460, 304.246 726.532, 311.317 733.603, 318.388 740.674, 325.459 744.694, 329.480 " />
            <path fill="none" stroke-width="3.0" stroke-linecap="butt" stroke-opacity="1.0" stroke="rgb(0, 0, 0)" stroke-linejoin="round" d=" M 783.079, 903.472 782.456, 902.848 775.385, 895.777 768.314, 888.706 761.243, 881.635 754.172, 874.564 747.101, 867.493 740.030, 860.422 732.958, 853.351 725.887, 846.280 718.816, 839.209 711.745, 832.138 704.674, 825.067 697.603, 817.996 690.532, 810.925 684.728, 805.121 684.105, 804.498 " />
            <path fill="none" stroke-width="3.0" stroke-linecap="butt" stroke-opacity="1.0" stroke="rgb(0, 0, 0)" stroke-linejoin="round" d=" M 879.862, 268.808 873.657, 260.966 871.867, 258.704 " />
            <path fill="none" stroke-width="3.0" stroke-linecap="butt" stroke-opacity="1.0" stroke="rgb(0, 0, 0)" stroke-linejoin="round" d=" M 717.602, 610.309 717.602, 610.309 724.674, 617.380 731.745, 624.451 738.816, 631.522 745.887, 638.593 752.958, 645.664 760.029, 652.735 767.100, 659.806 774.171, 666.877 781.242, 673.948 788.313, 681.019 795.384, 688.090 802.455, 695.161 809.526, 702.233 816.597, 709.304 823.669, 716.375 830.740, 723.446 837.811, 730.517 844.882, 737.588 851.953, 744.659 859.024, 751.730 866.095, 758.801 873.166, 765.872 879.862, 772.568 " />
        </g>
    </g>
</svg>
