<?xml version='1.0' encoding='ascii'?>
<svg xmlns="http://www.w3.org/2000/svg" version="1.1" width="1920" height="1080">
    <g id="ViewLayer_LineSet" xmlns:inkscape="http://www.inkscape.org/namespaces/inkscape" inkscape:groupmode="lineset" inkscape:label="ViewLayer_LineSet">
        <g xmlns:inkscape="http://www.inkscape.org/namespaces/inkscape" inkscape:groupmode="layer" id="strokes" inkscape:label="strokes">
            <path fill="none" stroke-width="3.0" stroke-linecap="butt" stroke-opacity="1.0" stroke="rgb(0, 0, 0)" stroke-linejoin="round" d=" M 953.477, 172.764 953.477, 182.764 953.477, 192.764 953.477, 202.764 953.477, 212.764 953.477, 222.764 953.477, 232.764 953.477, 242.764 953.477, 252.764 953.477, 262.764 953.477, 272.764 953.477, 282.764 953.477, 284.456 " />
            <path fill="none" stroke-width="3.0" stroke-linecap="butt" stroke-opacity="1.0" stroke="rgb(0, 0, 0)" stroke-linejoin="round" d=" M 953.477, 284.456 963.477, 284.456 973.477, 284.456 983.477, 284.456 993.477, 284.456 1003.477, 284.456 1013.477, 284.456 1023.477, 284.456 1033.477, 284.456 1043.477, 284.456 1053.477, 284.456 1063.477, 284.456 1073.477, 284.456 1083.477, 284.456 1093.477, 284.456 1103.477, 284.456 1113.477, 284.456 1123.477, 284.456 1133.477, 284.456 1143.477, 284.456 1153.477, 284.456 1163.477, 284.456 1173.477, 284.456 1183.477, 284.456 1193.477, 284.456 1203.477, 284.456 1213.477, 284.456 1223.125, 284.456 " />
            <path fill="none" stroke-width="3.0" stroke-linecap="butt" stroke-opacity="1.0" stroke="rgb(0, 0, 0)" stroke-linejoin="round" d=" M 593.877, 606.593 597.704, 615.832 601.531, 625.071 605.358, 634.309 609.184, 643.548 613.011, 652.787 616.838, 662.026 620.665, 671.265 624.492, 680.503 628.319, 689.742 632.145, 698.981 635.972, 708.220 639.799, 717.459 643.626, 726.697 647.453, 735.936 651.280, 745.175 655.106, 754.414 658.933, 763.653 662.760, 772.891 666.587, 782.130 670.414, 791.369 674.241, 800.608 678.067, 809.846 681.894, 819.085 683.828, 823.753 693.067, 827.580 702.305, 831.407 711.544, 835.234 720.783, 839.061 730.022, 842.888 739.261, 846.715 748.499, 850.541 757.738, 854.368 766.977, 858.195 776.216, 862.022 785.455, 865.849 794.693, 869.676 803.932, 873.502 813.171, 877.329 822.410, 881.156 831.649, 884.983 840.887, 888.810 850.126, 892.637 859.365, 896.463 868.604, 900.290 877.843, 904.117 887.081, 907.944 896.320, 911.771 905.559, 915.598 914.798, 919.424 924.037, 923.251 933.275, 927.078 942.514, 930.905 953.477, 935.446 962.715, 931.619 971.954, 927.792 981.193, 923.965 990.432, 920.138 999.671, 916.311 1008.909, 912.485 1018.148, 908.658 1027.387, 904.831 1036.626, 901.004 1045.865, 897.177 1055.103, 893.350 1064.342, 889.524 1073.581, 885.697 1082.820, 881.870 1092.058, 878.043 1101.297, 874.216 1110.536, 870.390 1119.775, 866.563 1129.014, 862.736 1138.252, 858.909 1147.491, 855.082 1156.730, 851.255 1165.969, 847.429 1175.208, 843.602 1184.446, 839.775 1193.685, 835.948 1202.924, 832.121 1212.163, 828.294 1223.125, 823.754 1226.952, 814.515 1230.779, 805.276 1234.606, 796.037 1238.432, 786.798 1242.259, 777.560 1246.086, 768.321 1249.913, 759.082 1253.740, 749.843 1257.567, 740.604 1261.394, 731.366 1265.220, 722.127 1269.047, 712.888 1272.874, 703.649 1276.701, 694.410 1280.528, 685.172 1284.354, 675.933 1288.181, 666.694 1292.008, 657.455 1295.835, 648.216 1299.662, 638.978 1303.489, 629.739 1307.316, 620.500 1311.142, 611.261 1314.969, 602.022 1318.796, 592.784 1322.623, 583.545 1326.450, 574.306 1330.276, 565.067 1334.817, 554.105 1330.990, 544.866 1327.164, 535.627 1323.337, 526.389 1319.510, 517.150 1315.683, 507.911 1311.856, 498.672 1308.029, 489.433 1304.203, 480.195 1300.376, 470.956 1296.549, 461.717 1292.722, 452.478 1288.895, 443.239 1285.068, 434.001 1281.242, 424.762 1277.415, 415.523 1273.588, 406.284 1269.761, 397.045 1265.934, 387.807 1262.107, 378.568 1258.281, 369.329 1254.454, 360.090 1250.627, 350.852 1246.800, 341.613 1242.973, 332.374 1239.146, 323.135 1235.320, 313.896 1231.493, 304.658 1227.666, 295.419 1223.125, 284.456 1213.886, 280.630 1204.648, 276.803 1195.409, 272.976 1186.170, 269.149 1176.931, 265.322 1167.692, 261.495 1158.454, 257.669 1149.215, 253.842 1139.976, 250.015 1130.737, 246.188 1121.498, 242.361 1112.260, 238.534 1103.021, 234.708 1093.782, 230.881 1084.543, 227.054 1075.304, 223.227 1066.066, 219.400 1056.827, 215.573 1047.588, 211.747 1038.349, 207.920 1029.110, 204.093 1019.872, 200.266 1010.633, 196.439 1001.394, 192.612 992.155, 188.786 982.916, 184.959 973.678, 181.132 964.439, 177.305 953.477, 172.764 944.238, 176.591 934.999, 180.418 925.760, 184.245 916.521, 188.072 907.283, 191.898 898.044, 195.725 888.805, 199.552 879.566, 203.379 870.327, 207.206 861.089, 211.033 851.850, 214.859 842.611, 218.686 833.372, 222.513 824.133, 226.340 814.895, 230.167 805.656, 233.994 796.417, 237.820 787.178, 241.647 777.939, 245.474 768.701, 249.301 759.462, 253.128 750.223, 256.955 740.984, 260.781 731.745, 264.608 722.507, 268.435 713.268, 272.262 704.029, 276.089 694.790, 279.916 683.828, 284.456 680.001, 293.695 676.174, 302.934 672.347, 312.173 668.521, 321.412 664.694, 330.650 660.867, 339.889 657.040, 349.128 653.213, 358.367 649.386, 367.606 645.560, 376.844 641.733, 386.083 637.906, 395.322 634.079, 404.561 630.252, 413.799 626.425, 423.038 622.599, 432.277 618.772, 441.516 614.945, 450.755 611.118, 459.993 607.291, 469.232 603.464, 478.471 599.638, 487.710 595.811, 496.949 593.877, 501.617 593.877, 501.617 593.877, 501.617 " />
            <path fill="none" stroke-width="3.0" stroke-linecap="butt" stroke-opacity="1.0" stroke="rgb(0, 0, 0)" stroke-linejoin="round" d=" M 953.477, 554.105 953.477, 564.105 953.477, 574.105 953.477, 584.105 953.477, 594.105 953.477, 604.105 953.477, 614.105 953.477, 624.105 953.477, 634.105 953.477, 644.105 953.477, 654.105 953.477, 664.105 953.477, 674.105 953.477, 684.105 953.477, 694.105 953.477, 704.105 953.477, 714.105 953.477, 724.105 953.477, 734.105 953.477, 744.105 953.477, 754.105 953.477, 764.105 953.477, 774.105 953.477, 784.105 953.477, 794.105 953.477, 804.105 953.477, 814.105 953.477, 823.753 " />
            <path fill="none" stroke-width="3.0" stroke-linecap="butt" stroke-opacity="1.0" stroke="rgb(0, 0, 0)" stroke-linejoin="round" d=" M 953.477, 823.753 963.477, 823.754 973.477, 823.754 983.477, 823.754 993.477, 823.754 1003.477, 823.754 1013.477, 823.754 1023.477, 823.754 1033.477, 823.754 1043.477, 823.754 1053.477, 823.754 1063.477, 823.754 1073.477, 823.754 1083.477, 823.754 1093.477, 823.754 1103.477, 823.754 1113.477, 823.754 1123.477, 823.754 1133.477, 823.754 1143.477, 823.754 1153.477, 823.754 1163.477, 823.754 1173.477, 823.754 1183.477, 823.754 1193.477, 823.754 1203.477, 823.754 1213.477, 823.754 1223.125, 823.754 " />
            <path fill="none" stroke-width="3.0" stroke-linecap="butt" stroke-opacity="1.0" stroke="rgb(0, 0, 0)" stroke-linejoin="round" d=" M 1334.817, 554.105 1324.817, 554.105 1314.817, 554.105 1304.817, 554.105 1294.817, 554.105 1284.817, 554.105 1274.817, 554.105 1264.817, 554.105 1254.817, 554.105 1244.817, 554.105 1234.817, 554.105 1224.817, 554.105 1214.817, 554.105 1204.817, 554.105 1194.817, 554.105 1184.817, 554.105 1174.817, 554.105 1164.817, 554.105 1154.817, 554.105 1144.817, 554.105 1134.817, 554.105 1124.817, 554.105 1114.817, 554.105 1104.817, 554.105 1094.817, 554.105 1084.817, 554.105 1074.817, 554.105 1064.817, 554.105 1054.817, 554.105 1044.817, 554.105 1034.817, 554.105 1024.817, 554.105 1014.817, 554.105 1004.817, 554.105 994.817, 554.105 984.817, 554.105 974.817, 554.105 964.817, 554.105 953.477, 554.105 " />
            <path fill="none" stroke-width="3.0" stroke-linecap="butt" stroke-opacity="1.0" stroke="rgb(0, 0, 0)" stroke-linejoin="round" d=" M 953.477, 284.456 953.477, 294.456 953.477, 304.456 953.477, 314.456 953.477, 324.456 953.477, 334.456 953.477, 344.456 953.477, 354.456 953.477, 364.456 953.477, 374.456 953.477, 384.456 953.477, 394.456 953.477, 404.456 953.477, 414.456 953.477, 424.456 953.477, 434.456 953.477, 444.456 953.477, 454.456 953.477, 464.456 953.477, 474.456 953.477, 484.456 953.477, 494.456 953.477, 504.456 953.477, 514.456 953.477, 524.456 953.477, 534.456 953.477, 544.456 953.477, 554.105 943.477, 554.105 933.477, 554.105 923.477, 554.105 913.477, 554.105 903.477, 554.105 893.477, 554.105 883.477, 554.105 873.477, 554.105 863.477, 554.105 853.477, 554.105 842.988, 554.105 " />
            <path fill="none" stroke-width="3.0" stroke-linecap="butt" stroke-opacity="1.0" stroke="rgb(0, 0, 0)" stroke-linejoin="round" d=" M 953.477, 823.753 953.477, 833.753 953.477, 843.753 953.477, 853.753 953.477, 863.753 953.477, 873.753 953.477, 883.753 953.477, 893.753 953.477, 903.753 953.477, 913.753 953.477, 923.753 953.477, 933.753 953.477, 935.446 " />
            <path fill="none" stroke-width="3.0" stroke-linecap="butt" stroke-opacity="1.0" stroke="rgb(0, 0, 0)" stroke-linejoin="round" d=" M 685.590, 650.287 689.417, 659.526 693.244, 668.764 697.071, 678.003 700.898, 687.242 704.724, 696.481 708.551, 705.720 712.378, 714.958 716.205, 724.197 717.602, 727.572 727.602, 727.572 737.602, 727.572 747.602, 727.572 757.602, 727.572 765.148, 727.572 775.148, 727.572 785.148, 727.572 795.148, 727.572 805.148, 727.572 815.148, 727.572 825.148, 727.572 835.148, 727.572 845.148, 727.572 855.148, 727.572 865.148, 727.572 875.148, 727.572 879.862, 727.572 879.862, 727.571 879.862, 727.571 879.862, 717.571 879.862, 707.571 879.862, 697.571 879.862, 687.571 879.862, 677.571 879.862, 667.571 879.862, 657.571 879.862, 650.287 869.862, 650.287 859.862, 650.287 849.862, 650.287 839.862, 650.287 829.862, 650.287 819.862, 650.287 809.862, 650.287 799.862, 650.287 789.862, 650.287 779.862, 650.287 769.862, 650.287 759.862, 650.287 749.862, 650.287 739.862, 650.287 733.136, 650.287 733.136, 650.287 723.136, 650.287 713.136, 650.287 703.136, 650.287 693.136, 650.287 685.590, 650.287 685.590, 650.287 " />
            <path fill="none" stroke-width="3.0" stroke-linecap="butt" stroke-opacity="1.0" stroke="rgb(0, 0, 0)" stroke-linejoin="round" d=" M 717.602, 380.638 714.289, 371.203 710.976, 361.768 707.663, 352.333 704.350, 342.898 701.036, 333.462 697.723, 324.027 694.410, 314.592 691.097, 305.157 687.784, 295.722 684.471, 286.286 683.828, 284.456 693.828, 284.456 703.828, 284.456 713.828, 284.456 723.828, 284.456 733.828, 284.456 743.828, 284.456 753.828, 284.456 763.828, 284.456 773.828, 284.456 783.828, 284.456 793.828, 284.456 803.828, 284.456 813.828, 284.456 823.828, 284.456 833.828, 284.456 843.828, 284.456 853.828, 284.456 863.828, 284.456 873.828, 284.456 883.828, 284.456 893.828, 284.456 903.828, 284.456 913.828, 284.456 923.828, 284.456 933.828, 284.456 943.828, 284.456 953.477, 284.456 947.399, 292.397 941.321, 300.339 935.243, 308.280 929.165, 316.221 923.087, 324.162 917.010, 332.103 910.932, 340.044 904.854, 347.985 898.776, 355.926 892.698, 363.867 886.621, 371.808 879.862, 380.638 879.862, 380.638 " />
            <path fill="none" stroke-width="3.0" stroke-linecap="butt" stroke-opacity="1.0" stroke="rgb(0, 0, 0)" stroke-linejoin="round" d=" M 879.862, 727.572 879.862, 727.572 885.940, 735.513 892.018, 743.454 898.096, 751.395 904.173, 759.336 910.251, 767.277 916.329, 775.218 922.407, 783.159 928.485, 791.100 934.562, 799.041 940.640, 806.982 946.718, 814.923 953.477, 823.753 943.477, 823.753 933.477, 823.753 923.477, 823.753 913.477, 823.753 903.477, 823.753 893.477, 823.753 883.477, 823.753 873.477, 823.753 863.477, 823.753 853.477, 823.753 843.477, 823.753 833.477, 823.753 823.477, 823.753 813.477, 823.753 803.477, 823.753 793.477, 823.753 783.477, 823.753 773.477, 823.753 763.477, 823.753 753.477, 823.753 743.477, 823.753 733.477, 823.753 723.477, 823.753 713.477, 823.753 703.477, 823.753 693.477, 823.753 683.828, 823.753 687.141, 814.318 690.454, 804.883 693.767, 795.448 697.081, 786.013 700.394, 776.578 703.707, 767.142 707.020, 757.707 710.333, 748.272 713.647, 738.837 716.960, 729.402 717.602, 727.572 " />
            <path fill="none" stroke-width="3.0" stroke-linecap="butt" stroke-opacity="1.0" stroke="rgb(0, 0, 0)" stroke-linejoin="round" d=" M 772.893, 606.593 763.950, 611.069 755.008, 615.544 746.065, 620.020 737.123, 624.496 728.180, 628.971 719.238, 633.447 710.295, 637.922 701.353, 642.398 692.410, 646.874 685.590, 650.287 677.962, 643.820 670.335, 637.354 662.707, 630.887 655.079, 624.421 647.451, 617.954 639.823, 611.488 634.050, 606.593 " />
            <path fill="none" stroke-width="3.0" stroke-linecap="butt" stroke-opacity="1.0" stroke="rgb(0, 0, 0)" stroke-linejoin="round" d=" M 879.862, 457.923 885.940, 465.864 892.018, 473.805 898.095, 481.746 904.173, 489.687 910.251, 497.628 916.329, 505.569 922.407, 513.510 928.485, 521.451 934.562, 529.392 940.640, 537.334 946.718, 545.275 953.477, 554.105 947.399, 562.046 941.321, 569.987 935.243, 577.928 929.165, 585.869 923.087, 593.810 917.010, 601.751 910.932, 609.692 904.854, 617.633 898.776, 625.574 892.698, 633.516 886.621, 641.457 879.862, 650.287 879.862, 650.287 879.862, 650.287 " />
            <path fill="none" stroke-width="3.0" stroke-linecap="butt" stroke-opacity="1.0" stroke="rgb(0, 0, 0)" stroke-linejoin="round" d=" M 456.660, 554.105 456.660, 554.105 456.660, 554.105 461.319, 562.954 465.977, 571.802 470.635, 580.651 475.294, 589.500 479.952, 598.348 484.293, 606.593 494.293, 606.593 504.293, 606.593 514.292, 606.593 524.292, 606.593 534.292, 606.593 544.292, 606.593 554.292, 606.593 564.292, 606.593 574.292, 606.593 583.266, 606.593 593.266, 606.593 593.877, 606.593 603.877, 606.593 613.877, 606.593 623.877, 606.593 634.050, 606.593 634.050, 606.593 644.050, 606.593 654.050, 606.593 664.050, 606.593 674.050, 606.593 684.050, 606.593 694.050, 606.593 704.050, 606.593 714.050, 606.593 724.050, 606.593 734.050, 606.593 744.050, 606.593 754.050, 606.593 764.050, 606.593 772.893, 606.593 772.893, 606.593 782.893, 606.593 783.079, 606.593 793.079, 606.593 803.079, 606.593 813.079, 606.593 823.079, 606.593 833.079, 606.593 843.079, 606.593 853.079, 606.593 863.079, 606.593 871.867, 606.593 867.046, 597.832 862.226, 589.070 857.405, 580.309 852.585, 571.547 847.764, 562.786 842.988, 554.105 847.809, 545.344 852.629, 536.582 857.450, 527.821 862.270, 519.059 867.091, 510.298 871.867, 501.617 " />
            <path fill="none" stroke-width="3.0" stroke-linecap="butt" stroke-opacity="1.0" stroke="rgb(0, 0, 0)" stroke-linejoin="round" d=" M 842.988, 554.105 832.988, 554.105 822.988, 554.105 812.988, 554.105 802.988, 554.105 792.988, 554.105 782.988, 554.105 772.988, 554.105 762.988, 554.105 754.201, 554.105 " />
            <path fill="none" stroke-width="3.0" stroke-linecap="butt" stroke-opacity="1.0" stroke="rgb(0, 0, 0)" stroke-linejoin="round" d=" M 754.201, 554.105 759.021, 562.866 763.842, 571.628 768.662, 580.389 773.483, 589.151 778.303, 597.912 783.079, 606.593 " />
            <path fill="none" stroke-width="3.0" stroke-linecap="butt" stroke-opacity="1.0" stroke="rgb(0, 0, 0)" stroke-linejoin="round" d=" M 685.590, 457.923 689.417, 448.684 693.244, 439.445 697.071, 430.207 700.897, 420.968 704.724, 411.729 708.551, 402.490 712.378, 393.251 716.205, 384.013 717.602, 380.638 727.602, 380.638 737.602, 380.638 747.602, 380.638 757.602, 380.638 765.148, 380.638 765.148, 380.638 775.148, 380.638 785.148, 380.638 795.148, 380.638 805.148, 380.638 815.148, 380.638 825.148, 380.638 835.148, 380.638 845.148, 380.638 855.148, 380.638 865.148, 380.638 875.148, 380.638 879.862, 380.638 " />
            <path fill="none" stroke-width="3.0" stroke-linecap="butt" stroke-opacity="1.0" stroke="rgb(0, 0, 0)" stroke-linejoin="round" d=" M 772.893, 501.617 772.893, 501.617 772.893, 501.617 772.893, 501.617 762.893, 501.617 752.893, 501.617 742.893, 501.617 732.893, 501.617 722.893, 501.617 712.893, 501.617 702.893, 501.617 692.893, 501.617 684.105, 501.617 684.105, 501.617 674.105, 501.617 664.105, 501.617 654.105, 501.617 644.105, 501.617 634.050, 501.617 634.049, 501.617 624.049, 501.617 614.049, 501.617 604.049, 501.617 593.877, 501.617 583.877, 501.617 583.266, 501.617 573.266, 501.617 563.266, 501.617 553.266, 501.617 543.266, 501.617 533.266, 501.617 523.266, 501.617 513.266, 501.617 503.266, 501.617 493.266, 501.617 484.292, 501.617 479.634, 510.466 474.976, 519.314 470.317, 528.163 465.659, 537.012 461.001, 545.860 456.660, 554.105 " />
            <path fill="none" stroke-width="3.0" stroke-linecap="butt" stroke-opacity="1.0" stroke="rgb(0, 0, 0)" stroke-linejoin="round" d=" M 879.862, 380.638 879.862, 390.638 879.862, 400.638 879.862, 410.638 879.862, 420.638 879.862, 430.638 879.862, 440.638 879.862, 450.638 879.862, 457.923 879.862, 457.923 " />
            <path fill="none" stroke-width="3.0" stroke-linecap="butt" stroke-opacity="1.0" stroke="rgb(0, 0, 0)" stroke-linejoin="round" d=" M 733.136, 457.923 743.136, 457.923 753.136, 457.923 763.136, 457.923 773.136, 457.923 783.136, 457.923 793.136, 457.923 803.136, 457.923 813.136, 457.923 823.136, 457.923 833.136, 457.923 843.136, 457.923 853.136, 457.923 863.136, 457.923 873.136, 457.923 879.862, 457.923 " />
            <path fill="none" stroke-width="3.0" stroke-linecap="butt" stroke-opacity="1.0" stroke="rgb(0, 0, 0)" stroke-linejoin="round" d=" M 879.862, 457.923 879.862, 457.923 879.862, 457.923 869.862, 457.923 859.862, 457.923 849.862, 457.923 839.862, 457.923 829.862, 457.923 819.862, 457.923 809.862, 457.923 799.862, 457.923 789.862, 457.923 779.862, 457.923 769.862, 457.923 759.862, 457.923 749.862, 457.923 739.862, 457.923 729.862, 457.923 719.862, 457.923 709.862, 457.923 699.862, 457.923 689.862, 457.923 685.590, 457.923 695.590, 457.923 705.590, 457.923 715.590, 457.923 725.590, 457.923 733.136, 457.923 736.963, 448.684 740.790, 439.445 744.617, 430.207 748.443, 420.968 752.270, 411.729 756.097, 402.490 759.924, 393.251 763.751, 384.013 765.148, 380.638 " />
            <path fill="none" stroke-width="3.0" stroke-linecap="butt" stroke-opacity="1.0" stroke="rgb(0, 0, 0)" stroke-linejoin="round" d=" M 879.862, 650.287 879.862, 650.287 878.062, 640.450 876.262, 630.614 874.462, 620.777 872.662, 610.940 871.867, 606.593 " />
            <path fill="none" stroke-width="3.0" stroke-linecap="butt" stroke-opacity="1.0" stroke="rgb(0, 0, 0)" stroke-linejoin="round" d=" M 772.893, 501.617 782.893, 501.617 792.893, 501.617 802.893, 501.617 812.893, 501.617 822.893, 501.617 832.893, 501.617 842.893, 501.617 852.893, 501.617 862.893, 501.617 871.867, 501.617 861.867, 501.617 851.867, 501.617 841.867, 501.617 831.867, 501.617 821.867, 501.617 811.867, 501.617 801.867, 501.617 791.867, 501.617 783.079, 501.617 " />
            <path fill="none" stroke-width="3.0" stroke-linecap="butt" stroke-opacity="1.0" stroke="rgb(0, 0, 0)" stroke-linejoin="round" d=" M 871.867, 501.617 873.667, 491.780 875.467, 481.944 877.267, 472.107 879.067, 462.270 879.862, 457.923 " />
            <path fill="none" stroke-width="3.0" stroke-linecap="butt" stroke-opacity="1.0" stroke="rgb(0, 0, 0)" stroke-linejoin="round" d=" M 634.050, 501.617 634.050, 501.617 641.677, 495.150 649.305, 488.684 656.933, 482.217 664.561, 475.751 672.189, 469.284 679.817, 462.818 685.590, 457.923 694.533, 462.399 703.475, 466.874 712.418, 471.350 721.360, 475.826 730.303, 480.301 739.245, 484.777 748.188, 489.252 757.130, 493.728 766.073, 498.204 772.893, 501.617 772.893, 501.617 772.893, 501.617 " />
            <path fill="none" stroke-width="3.0" stroke-linecap="butt" stroke-opacity="1.0" stroke="rgb(0, 0, 0)" stroke-linejoin="round" d=" M 484.292, 501.617 494.292, 501.617 504.292, 501.617 514.292, 501.617 524.292, 501.617 534.292, 501.617 544.292, 501.617 554.292, 501.617 564.292, 501.617 574.292, 501.617 583.266, 501.617 593.266, 501.617 593.877, 501.617 603.877, 501.617 613.877, 501.617 623.877, 501.617 633.877, 501.617 643.877, 501.617 653.877, 501.617 663.877, 501.617 673.877, 501.617 683.877, 501.617 693.877, 501.617 703.877, 501.617 713.877, 501.617 723.877, 501.617 733.877, 501.617 743.877, 501.617 753.877, 501.617 763.877, 501.617 772.893, 501.617 772.893, 501.617 782.893, 501.617 783.079, 501.617 778.259, 510.378 773.438, 519.140 768.618, 527.901 763.797, 536.663 758.977, 545.424 754.201, 554.105 745.261, 554.105 745.261, 554.105 735.261, 554.105 725.261, 554.105 715.261, 554.105 705.261, 554.105 695.261, 554.105 685.261, 554.105 675.261, 554.105 665.261, 554.105 655.261, 554.105 645.261, 554.105 635.261, 554.105 625.261, 554.105 615.261, 554.105 605.261, 554.105 595.261, 554.105 585.261, 554.105 575.261, 554.105 572.136, 554.105 562.136, 554.105 554.388, 554.105 544.388, 554.105 534.388, 554.105 524.388, 554.105 514.388, 554.105 504.388, 554.105 494.388, 554.105 484.388, 554.105 474.388, 554.105 464.388, 554.105 456.660, 554.105 456.660, 554.105 " />
            <path fill="none" stroke-width="3.0" stroke-linecap="butt" stroke-opacity="1.0" stroke="rgb(0, 0, 0)" stroke-linejoin="round" d=" M 583.266, 501.617 578.446, 510.378 573.625, 519.140 568.805, 527.901 563.984, 536.663 559.164, 545.424 554.388, 554.105 559.208, 562.866 564.029, 571.628 568.849, 580.389 573.670, 589.151 578.490, 597.912 583.266, 606.593 583.266, 606.593 " />
            <path fill="none" stroke-width="3.0" stroke-linecap="butt" stroke-opacity="1.0" stroke="rgb(0, 0, 0)" stroke-linejoin="round" d=" M 684.105, 501.617 694.105, 501.617 704.105, 501.617 714.105, 501.617 724.105, 501.617 734.105, 501.617 744.105, 501.617 754.105, 501.617 764.105, 501.617 772.893, 501.617 772.893, 501.617 782.893, 501.617 783.079, 501.617 " />
            <path fill="none" stroke-width="3.0" stroke-linecap="butt" stroke-opacity="1.0" stroke="rgb(0, 0, 0)" stroke-linejoin="round" d=" M 593.877, 501.617 583.877, 501.617 573.877, 501.617 563.877, 501.617 553.877, 501.617 543.877, 501.617 533.877, 501.617 523.877, 501.617 513.877, 501.617 503.877, 501.617 493.877, 501.617 484.292, 501.617 479.634, 510.466 474.976, 519.314 470.317, 528.163 465.659, 537.012 461.001, 545.860 456.660, 554.105 456.660, 554.105 " />
            <path fill="none" stroke-width="3.0" stroke-linecap="butt" stroke-opacity="1.0" stroke="rgb(0, 0, 0)" stroke-linejoin="round" d=" M 456.660, 554.105 456.660, 554.105 " />
            <path fill="none" stroke-width="3.0" stroke-linecap="butt" stroke-opacity="1.0" stroke="rgb(0, 0, 0)" stroke-linejoin="round" d=" M 765.148, 727.572 765.148, 727.572 765.148, 727.572 761.322, 718.333 757.495, 709.094 753.668, 699.855 749.841, 690.616 746.014, 681.378 742.187, 672.139 738.361, 662.900 734.534, 653.661 733.136, 650.287 " />
            <path fill="none" stroke-width="3.0" stroke-linecap="butt" stroke-opacity="1.0" stroke="rgb(0, 0, 0)" stroke-linejoin="round" d=" M 783.079, 606.593 783.079, 606.593 783.079, 606.593 " />
        </g>
    </g>
</svg>
