<?xml version='1.0' encoding='ascii'?>
<svg xmlns="http://www.w3.org/2000/svg" version="1.1" width="1920" height="1080">
    <g id="ViewLayer_LineSet" xmlns:inkscape="http://www.inkscape.org/namespaces/inkscape" inkscape:groupmode="lineset" inkscape:label="ViewLayer_LineSet">
        <g xmlns:inkscape="http://www.inkscape.org/namespaces/inkscape" inkscape:groupmode="layer" id="strokes" inkscape:label="strokes">
            <path fill="none" stroke-width="3.0" stroke-linecap="butt" stroke-opacity="1.0" stroke="rgb(0, 0, 0)" stroke-linejoin="round" d=" M 953.477, 184.422 953.477, 194.422 953.477, 204.422 953.477, 214.422 953.477, 222.518 " />
            <path fill="none" stroke-width="3.0" stroke-linecap="butt" stroke-opacity="1.0" stroke="rgb(0, 0, 0)" stroke-linejoin="round" d=" M 953.477, 222.518 963.158, 225.024 972.839, 227.530 982.520, 230.035 992.201, 232.541 1001.882, 235.047 1011.563, 237.552 1021.244, 240.058 1030.925, 242.563 1040.606, 245.069 1050.287, 247.575 1059.968, 250.080 1069.649, 252.586 1079.330, 255.092 1089.011, 257.597 1098.692, 260.103 1108.373, 262.608 1118.054, 265.114 1127.735, 267.620 1137.416, 270.125 1147.097, 272.631 1156.778, 275.137 1166.459, 277.642 1176.140, 280.148 1185.821, 282.654 1195.502, 285.159 1205.183, 287.665 1214.864, 290.170 1223.125, 292.309 " />
            <path fill="none" stroke-width="3.0" stroke-linecap="butt" stroke-opacity="1.0" stroke="rgb(0, 0, 0)" stroke-linejoin="round" d=" M 578.999, 536.765 575.057, 545.956 572.136, 552.769 576.077, 561.960 578.999, 568.773 582.940, 577.963 586.881, 587.154 589.037, 592.181 592.978, 601.372 596.919, 610.562 600.860, 619.753 604.511, 628.266 608.452, 637.457 612.393, 646.647 614.422, 651.380 618.364, 660.570 622.305, 669.761 622.949, 671.263 626.890, 680.454 630.831, 689.644 632.987, 694.671 636.928, 703.862 640.869, 713.053 644.811, 722.243 648.752, 731.434 652.693, 740.624 656.634, 749.815 660.575, 759.006 664.516, 768.196 668.458, 777.387 672.399, 786.577 676.340, 795.768 680.281, 804.959 683.828, 813.230 693.112, 816.944 702.397, 820.659 711.681, 824.374 720.966, 828.088 730.250, 831.803 739.535, 835.518 748.819, 839.233 758.103, 842.947 767.388, 846.662 776.672, 850.377 785.957, 854.091 795.241, 857.806 804.526, 861.521 813.810, 865.236 823.095, 868.950 832.379, 872.665 841.664, 876.380 850.948, 880.094 860.232, 883.809 869.517, 887.524 878.801, 891.238 888.086, 894.953 897.370, 898.668 906.655, 902.383 915.939, 906.097 925.224, 909.812 934.508, 913.527 943.792, 917.241 953.477, 921.116 962.761, 917.401 972.045, 913.687 981.330, 909.972 990.614, 906.257 999.899, 902.542 1009.183, 898.828 1018.468, 895.113 1027.752, 891.398 1037.037, 887.684 1046.321, 883.969 1055.605, 880.254 1064.890, 876.540 1074.174, 872.825 1083.459, 869.110 1092.743, 865.395 1102.028, 861.681 1111.312, 857.966 1120.597, 854.251 1129.881, 850.537 1139.166, 846.822 1148.450, 843.107 1157.734, 839.393 1167.019, 835.678 1176.303, 831.963 1185.588, 828.248 1194.872, 824.534 1204.157, 820.819 1213.441, 817.104 1223.125, 813.230 1227.066, 804.039 1231.007, 794.849 1234.949, 785.658 1238.890, 776.467 1242.831, 767.277 1246.772, 758.086 1250.713, 748.895 1254.655, 739.705 1258.596, 730.514 1262.537, 721.324 1266.478, 712.133 1270.419, 702.942 1274.360, 693.752 1278.302, 684.561 1282.243, 675.371 1286.184, 666.180 1290.125, 656.989 1294.066, 647.799 1298.007, 638.608 1301.948, 629.418 1305.890, 620.227 1309.831, 611.036 1313.772, 601.846 1317.713, 592.655 1321.654, 583.465 1325.595, 574.274 1329.537, 565.083 1333.478, 555.893 1334.817, 552.769 1330.876, 543.579 1326.935, 534.388 1322.994, 525.197 1319.053, 516.007 1315.111, 506.816 1311.170, 497.626 1307.229, 488.435 1303.288, 479.244 1299.347, 470.054 1295.406, 460.863 1291.464, 451.672 1287.523, 442.482 1283.582, 433.291 1279.641, 424.101 1275.700, 414.910 1271.759, 405.719 1267.818, 396.529 1263.876, 387.338 1259.935, 378.148 1255.994, 368.957 1252.053, 359.766 1248.112, 350.576 1244.171, 341.385 1240.229, 332.195 1236.288, 323.004 1232.347, 313.813 1228.406, 304.623 1224.465, 295.432 1223.125, 292.309 1213.841, 288.594 1204.556, 284.879 1195.272, 281.164 1185.987, 277.450 1176.703, 273.735 1167.418, 270.020 1158.134, 266.306 1148.850, 262.591 1139.565, 258.876 1130.281, 255.162 1120.996, 251.447 1111.712, 247.732 1102.427, 244.017 1093.143, 240.303 1083.858, 236.588 1074.574, 232.873 1065.290, 229.159 1056.005, 225.444 1046.721, 221.729 1037.436, 218.015 1028.152, 214.300 1018.867, 210.585 1009.583, 206.870 1000.298, 203.156 991.014, 199.441 981.729, 195.726 972.445, 192.012 963.161, 188.297 953.477, 184.422 944.192, 188.137 934.908, 191.852 925.623, 195.566 916.339, 199.281 907.054, 202.996 897.770, 206.711 888.485, 210.425 879.201, 214.140 869.917, 217.855 860.632, 221.569 851.348, 225.284 842.063, 228.999 832.779, 232.713 823.494, 236.428 814.210, 240.143 804.925, 243.858 795.641, 247.572 786.356, 251.287 777.072, 255.002 767.788, 258.716 758.503, 262.431 749.219, 266.146 739.934, 269.861 730.650, 273.575 721.365, 277.290 712.081, 281.005 702.796, 284.719 693.512, 288.434 683.828, 292.309 679.887, 301.499 675.946, 310.690 672.004, 319.880 668.063, 329.071 664.122, 338.262 660.181, 347.452 656.240, 356.643 652.299, 365.833 648.357, 375.024 644.416, 384.215 640.475, 393.405 636.534, 402.596 632.987, 410.867 " />
            <path fill="none" stroke-width="3.0" stroke-linecap="butt" stroke-opacity="1.0" stroke="rgb(0, 0, 0)" stroke-linejoin="round" d=" M 953.477, 454.071 953.477, 464.071 953.477, 474.071 953.477, 484.071 953.477, 494.071 953.477, 504.071 953.477, 514.071 953.477, 524.071 953.477, 534.071 953.477, 544.071 953.477, 554.071 953.477, 564.071 953.477, 574.071 953.477, 584.071 953.477, 594.071 953.477, 604.071 953.477, 614.071 953.477, 624.071 953.477, 634.071 953.477, 644.071 953.477, 654.071 953.477, 664.071 953.477, 674.071 953.477, 684.071 953.477, 694.071 953.477, 704.071 953.477, 714.071 953.477, 724.071 953.477, 734.071 953.477, 743.439 " />
            <path fill="none" stroke-width="3.0" stroke-linecap="butt" stroke-opacity="1.0" stroke="rgb(0, 0, 0)" stroke-linejoin="round" d=" M 953.477, 743.439 963.158, 745.945 972.839, 748.451 982.520, 750.956 992.201, 753.462 1001.882, 755.968 1011.563, 758.473 1021.244, 760.979 1030.925, 763.484 1040.606, 765.990 1050.287, 768.496 1059.968, 771.001 1069.649, 773.507 1079.330, 776.013 1089.011, 778.518 1098.692, 781.024 1108.373, 783.530 1118.054, 786.035 1127.735, 788.541 1137.416, 791.046 1147.097, 793.552 1156.778, 796.058 1166.459, 798.563 1176.140, 801.069 1185.821, 803.575 1195.502, 806.080 1205.183, 808.586 1214.864, 811.091 1223.125, 813.230 " />
            <path fill="none" stroke-width="3.0" stroke-linecap="butt" stroke-opacity="1.0" stroke="rgb(0, 0, 0)" stroke-linejoin="round" d=" M 1334.817, 552.769 1325.136, 550.264 1315.455, 547.758 1305.774, 545.252 1296.093, 542.747 1286.412, 540.241 1276.731, 537.735 1267.050, 535.230 1257.369, 532.724 1247.688, 530.219 1238.007, 527.713 1228.326, 525.207 1218.645, 522.702 1208.964, 520.196 1199.283, 517.690 1189.602, 515.185 1179.921, 512.679 1170.240, 510.173 1160.559, 507.668 1150.878, 505.162 1141.197, 502.657 1131.516, 500.151 1121.835, 497.645 1112.154, 495.140 1102.473, 492.634 1092.792, 490.128 1083.111, 487.623 1073.430, 485.117 1063.749, 482.612 1054.068, 480.106 1044.387, 477.600 1034.706, 475.095 1025.025, 472.589 1015.344, 470.083 1005.663, 467.578 995.982, 465.072 986.301, 462.567 976.620, 460.061 966.939, 457.555 953.477, 454.071 " />
            <path fill="none" stroke-width="3.0" stroke-linecap="butt" stroke-opacity="1.0" stroke="rgb(0, 0, 0)" stroke-linejoin="round" d=" M 953.477, 222.518 953.477, 232.518 953.477, 242.518 953.477, 252.518 953.477, 262.518 953.477, 272.518 953.477, 282.518 953.477, 292.518 953.477, 302.518 953.477, 312.518 953.477, 322.518 953.477, 332.518 953.477, 342.518 953.477, 352.518 953.477, 362.518 953.477, 372.518 953.477, 382.518 953.477, 392.518 953.477, 402.518 953.477, 412.518 953.477, 422.518 953.477, 432.518 953.477, 442.518 953.477, 454.071 943.630, 455.817 933.784, 457.564 927.408, 458.695 917.562, 460.441 907.715, 462.188 897.869, 463.934 888.023, 465.681 879.862, 467.128 870.016, 468.875 860.169, 470.621 850.323, 472.367 842.988, 473.668 " />
            <path fill="none" stroke-width="3.0" stroke-linecap="butt" stroke-opacity="1.0" stroke="rgb(0, 0, 0)" stroke-linejoin="round" d=" M 953.477, 743.439 953.477, 753.439 953.477, 763.439 953.477, 773.439 953.477, 783.439 953.477, 793.439 953.477, 803.439 953.477, 813.439 953.477, 823.439 953.477, 833.439 953.477, 843.439 953.477, 853.439 953.477, 863.439 953.477, 873.439 953.477, 883.439 953.477, 893.439 953.477, 903.439 953.477, 913.439 953.477, 921.116 " />
            <path fill="none" stroke-width="3.0" stroke-linecap="butt" stroke-opacity="1.0" stroke="rgb(0, 0, 0)" stroke-linejoin="round" d=" M 685.590, 626.621 689.531, 635.812 693.472, 645.002 697.414, 654.193 701.355, 663.383 701.931, 664.727 703.971, 669.484 707.912, 678.674 711.853, 687.865 715.652, 696.724 717.602, 701.272 727.284, 698.767 733.468, 697.166 743.149, 694.660 745.690, 694.003 755.371, 691.497 755.894, 691.362 760.399, 690.196 770.080, 687.690 772.197, 687.142 775.114, 686.387 784.795, 683.881 794.476, 681.376 795.970, 680.989 805.651, 678.484 815.332, 675.978 825.013, 673.472 834.694, 670.967 844.682, 668.382 854.363, 665.876 863.902, 663.407 873.583, 660.901 879.862, 659.276 879.862, 649.276 879.862, 639.276 879.862, 638.410 879.862, 628.410 879.862, 618.410 879.862, 608.410 879.862, 598.410 879.862, 588.645 879.862, 578.645 879.862, 576.340 " />
            <path fill="none" stroke-width="3.0" stroke-linecap="butt" stroke-opacity="1.0" stroke="rgb(0, 0, 0)" stroke-linejoin="round" d=" M 733.136, 626.621 723.136, 626.621 713.136, 626.621 703.136, 626.621 693.136, 626.621 685.590, 626.621 695.271, 624.115 704.952, 621.610 714.633, 619.104 724.314, 616.598 733.995, 614.093 743.676, 611.587 747.784, 610.524 757.465, 608.018 767.146, 605.513 776.827, 603.007 786.508, 600.501 796.189, 597.996 805.870, 595.490 815.551, 592.985 825.232, 590.479 834.913, 587.973 844.594, 585.468 854.275, 582.962 863.956, 580.456 873.637, 577.951 879.862, 576.340 " />
            <path fill="none" stroke-width="3.0" stroke-linecap="butt" stroke-opacity="1.0" stroke="rgb(0, 0, 0)" stroke-linejoin="round" d=" M 717.602, 366.160 713.443, 357.066 709.284, 347.972 705.125, 338.878 700.966, 329.784 696.807, 320.690 692.648, 311.596 688.490, 302.502 684.331, 293.408 683.828, 292.309 693.509, 289.803 703.190, 287.297 712.871, 284.792 722.552, 282.286 732.233, 279.780 741.914, 277.275 751.595, 274.769 761.276, 272.264 770.957, 269.758 780.638, 267.252 790.319, 264.747 800.000, 262.241 809.681, 259.735 819.362, 257.230 829.043, 254.724 838.724, 252.219 848.405, 249.713 858.086, 247.207 867.767, 244.702 877.448, 242.196 887.129, 239.690 896.810, 237.185 906.491, 234.679 916.172, 232.174 925.853, 229.668 935.534, 227.162 945.215, 224.657 953.477, 222.518 947.611, 230.617 941.745, 238.717 935.880, 246.816 930.014, 254.915 924.149, 263.014 918.283, 271.113 912.418, 279.212 906.552, 287.311 900.687, 295.410 894.821, 303.509 888.955, 311.608 883.090, 319.708 879.862, 324.165 " />
            <path fill="none" stroke-width="3.0" stroke-linecap="butt" stroke-opacity="1.0" stroke="rgb(0, 0, 0)" stroke-linejoin="round" d=" M 879.862, 659.276 886.446, 666.803 888.639, 669.311 895.222, 676.838 901.806, 684.365 908.390, 691.892 914.973, 699.419 921.557, 706.946 928.140, 714.473 934.724, 722.000 941.308, 729.527 947.891, 737.054 953.477, 743.439 943.796, 745.945 934.115, 748.451 927.408, 750.186 917.727, 752.692 908.046, 755.198 898.365, 757.703 888.684, 760.209 879.862, 762.492 870.181, 764.998 860.500, 767.503 850.819, 770.009 841.138, 772.515 831.457, 775.020 821.776, 777.526 812.095, 780.032 802.414, 782.537 792.733, 785.043 783.052, 787.549 773.371, 790.054 763.690, 792.560 754.009, 795.065 744.328, 797.571 734.647, 800.077 724.966, 802.582 715.285, 805.088 705.604, 807.594 695.923, 810.099 686.242, 812.605 683.828, 813.230 686.716, 803.656 689.604, 794.082 692.492, 784.508 695.381, 774.934 698.269, 765.360 701.157, 755.787 704.045, 746.213 706.933, 736.639 709.821, 727.065 712.710, 717.491 715.598, 707.917 717.602, 701.272 " />
            <path fill="none" stroke-width="3.0" stroke-linecap="butt" stroke-opacity="1.0" stroke="rgb(0, 0, 0)" stroke-linejoin="round" d=" M 772.893, 557.136 766.223, 562.445 758.398, 568.672 750.574, 574.900 742.750, 581.127 734.926, 587.354 727.101, 593.582 719.277, 599.809 711.453, 606.037 703.629, 612.264 695.804, 618.491 687.980, 624.719 685.590, 626.621 677.209, 621.166 668.828, 615.710 660.448, 610.255 652.067, 604.799 643.686, 599.344 635.305, 593.888 626.924, 588.433 618.543, 582.978 610.163, 577.522 601.782, 572.067 597.424, 569.230 589.043, 563.775 580.662, 558.319 572.136, 552.769 " />
            <path fill="none" stroke-width="3.0" stroke-linecap="butt" stroke-opacity="1.0" stroke="rgb(0, 0, 0)" stroke-linejoin="round" d=" M 879.862, 390.530 887.432, 397.065 890.830, 399.997 898.400, 406.532 905.970, 413.066 913.540, 419.600 921.110, 426.134 928.680, 432.668 936.250, 439.202 943.820, 445.736 951.390, 452.270 953.477, 454.071 948.319, 462.638 943.161, 471.205 938.003, 479.772 932.845, 488.339 927.687, 496.906 927.408, 497.369 922.250, 505.936 917.092, 514.503 911.934, 523.070 908.244, 529.199 903.086, 537.766 897.928, 546.333 892.770, 554.900 887.612, 563.467 882.454, 572.034 879.862, 576.340 878.106, 566.495 876.350, 556.651 874.594, 546.806 872.837, 536.961 871.867, 531.520 " />
            <path fill="none" stroke-width="3.0" stroke-linecap="butt" stroke-opacity="1.0" stroke="rgb(0, 0, 0)" stroke-linejoin="round" d=" M 871.867, 531.520 867.400, 522.572 862.934, 513.625 858.468, 504.678 854.002, 495.731 849.535, 486.784 845.069, 477.836 842.988, 473.668 848.515, 465.334 854.042, 457.000 859.568, 448.666 863.902, 442.131 869.429, 433.797 870.867, 431.628 871.867, 430.121 862.186, 427.615 852.505, 425.109 842.824, 422.604 833.143, 420.098 823.155, 417.513 813.474, 415.007 803.793, 412.502 799.382, 411.360 789.701, 408.855 783.079, 407.141 776.852, 407.295 766.855, 407.543 763.709, 407.622 753.713, 407.870 747.193, 408.032 737.196, 408.280 733.468, 408.372 723.471, 408.621 715.652, 408.815 705.655, 409.063 699.135, 409.225 689.138, 409.473 679.142, 409.721 669.145, 409.969 659.148, 410.217 649.151, 410.466 639.154, 410.714 632.987, 410.867 622.990, 411.115 612.993, 411.363 602.996, 411.612 592.999, 411.860 583.266, 412.101 573.585, 414.607 563.904, 417.113 554.223, 419.618 544.542, 422.124 534.861, 424.629 525.180, 427.135 515.499, 429.641 505.818, 432.146 496.137, 434.652 486.456, 437.158 484.292, 437.718 478.906, 446.143 473.520, 454.569 468.134, 462.994 462.748, 471.420 457.362, 479.845 456.660, 480.943 460.951, 489.976 465.241, 499.008 469.532, 508.041 473.822, 517.074 478.113, 526.107 482.403, 535.140 484.293, 539.117 494.289, 538.868 504.286, 538.620 514.283, 538.372 524.280, 538.124 534.277, 537.876 544.274, 537.628 554.271, 537.379 564.268, 537.131 574.265, 536.883 578.999, 536.765 588.595, 536.527 597.424, 536.308 607.421, 536.060 617.418, 535.812 627.502, 535.561 637.499, 535.313 647.496, 535.065 657.493, 534.817 667.490, 534.568 677.487, 534.320 684.105, 534.156 693.786, 536.662 703.467, 539.167 713.148, 541.673 722.829, 544.179 732.510, 546.684 742.191, 549.190 751.872, 551.695 756.021, 552.769 765.702, 555.275 769.199, 556.180 772.893, 557.136 " />
            <path fill="none" stroke-width="3.0" stroke-linecap="butt" stroke-opacity="1.0" stroke="rgb(0, 0, 0)" stroke-linejoin="round" d=" M 842.988, 473.668 833.307, 471.163 823.626, 468.657 813.945, 466.151 804.264, 463.646 794.583, 461.140 784.902, 458.635 775.221, 456.129 773.300, 455.632 763.619, 453.126 754.201, 450.688 " />
            <path fill="none" stroke-width="3.0" stroke-linecap="butt" stroke-opacity="1.0" stroke="rgb(0, 0, 0)" stroke-linejoin="round" d=" M 754.201, 450.688 758.667, 459.636 763.133, 468.583 763.812, 469.942 768.278, 478.890 772.744, 487.837 777.211, 496.784 781.677, 505.731 783.079, 508.540 " />
            <path fill="none" stroke-width="3.0" stroke-linecap="butt" stroke-opacity="1.0" stroke="rgb(0, 0, 0)" stroke-linejoin="round" d=" M 484.293, 539.117 493.974, 536.611 503.655, 534.105 513.336, 531.600 523.017, 529.094 532.698, 526.589 542.379, 524.083 552.060, 521.577 561.741, 519.072 571.422, 516.566 581.103, 514.060 583.266, 513.500 589.037, 513.357 599.034, 513.109 609.031, 512.861 619.027, 512.612 629.024, 512.364 639.021, 512.116 649.018, 511.868 659.015, 511.620 669.012, 511.372 679.009, 511.123 689.006, 510.875 699.003, 510.627 709.000, 510.379 718.997, 510.131 728.994, 509.882 738.990, 509.634 750.198, 509.356 760.195, 509.108 770.192, 508.860 780.188, 508.611 783.079, 508.540 792.760, 511.045 802.441, 513.551 812.122, 516.057 821.803, 518.562 831.484, 521.068 841.165, 523.573 850.846, 526.079 860.527, 528.585 870.208, 531.090 871.867, 531.520 862.186, 534.025 852.505, 536.531 842.824, 539.036 833.143, 541.542 823.462, 544.048 813.781, 546.553 804.100, 549.059 794.419, 551.565 784.738, 554.070 775.057, 556.576 772.893, 557.136 " />
            <path fill="none" stroke-width="3.0" stroke-linecap="butt" stroke-opacity="1.0" stroke="rgb(0, 0, 0)" stroke-linejoin="round" d=" M 627.502, 535.561 617.953, 538.529 608.404, 541.497 598.854, 544.465 589.305, 547.433 579.755, 550.401 572.136, 552.769 579.254, 545.745 586.372, 538.721 588.595, 536.527 " />
            <path fill="none" stroke-width="3.0" stroke-linecap="butt" stroke-opacity="1.0" stroke="rgb(0, 0, 0)" stroke-linejoin="round" d=" M 879.862, 324.165 879.862, 334.165 879.862, 336.470 879.862, 343.046 879.862, 353.046 879.862, 363.046 879.862, 373.046 879.862, 383.046 879.862, 390.530 870.181, 393.036 860.500, 395.542 850.819, 398.047 841.138, 400.553 831.457, 403.059 821.776, 405.564 812.095, 408.070 802.414, 410.575 799.382, 411.360 " />
            <path fill="none" stroke-width="3.0" stroke-linecap="butt" stroke-opacity="1.0" stroke="rgb(0, 0, 0)" stroke-linejoin="round" d=" M 717.602, 366.160 727.284, 363.655 736.964, 361.149 746.646, 358.644 756.327, 356.138 766.008, 353.632 775.689, 351.127 785.370, 348.621 795.051, 346.115 804.732, 343.610 814.413, 341.104 824.094, 338.599 833.775, 336.093 843.456, 333.587 853.137, 331.082 862.818, 328.576 872.499, 326.070 879.862, 324.165 " />
            <path fill="none" stroke-width="3.0" stroke-linecap="butt" stroke-opacity="1.0" stroke="rgb(0, 0, 0)" stroke-linejoin="round" d=" M 765.148, 366.160 761.207, 375.351 757.266, 384.542 753.325, 393.732 749.384, 402.923 748.808, 404.266 747.193, 408.032 " />
            <path fill="none" stroke-width="3.0" stroke-linecap="butt" stroke-opacity="1.0" stroke="rgb(0, 0, 0)" stroke-linejoin="round" d=" M 879.862, 336.470 870.181, 338.976 860.500, 341.482 850.819, 343.987 841.138, 346.493 831.457, 348.998 821.776, 351.504 812.095, 354.010 802.414, 356.515 792.733, 359.021 783.052, 361.527 773.371, 364.032 765.148, 366.160 755.148, 366.160 745.148, 366.160 735.148, 366.160 725.148, 366.160 717.602, 366.160 713.661, 375.351 709.720, 384.542 705.779, 393.732 701.838, 402.923 699.135, 409.225 " />
            <path fill="none" stroke-width="3.0" stroke-linecap="butt" stroke-opacity="1.0" stroke="rgb(0, 0, 0)" stroke-linejoin="round" d=" M 871.867, 430.121 873.846, 420.319 875.826, 410.516 877.240, 403.515 879.219, 393.713 879.862, 390.530 " />
            <path fill="none" stroke-width="3.0" stroke-linecap="butt" stroke-opacity="1.0" stroke="rgb(0, 0, 0)" stroke-linejoin="round" d=" M 684.105, 534.156 693.786, 531.650 703.467, 529.145 713.148, 526.639 722.829, 524.133 732.510, 521.628 742.191, 519.122 751.872, 516.617 753.452, 516.208 763.133, 513.702 772.814, 511.196 782.495, 508.691 783.079, 508.540 " />
            <path fill="none" stroke-width="3.0" stroke-linecap="butt" stroke-opacity="1.0" stroke="rgb(0, 0, 0)" stroke-linejoin="round" d=" M 783.079, 407.141 782.079, 408.648 776.553, 416.982 776.323, 417.328 775.114, 419.151 769.588, 427.485 766.472, 432.184 760.945, 440.518 755.419, 448.852 754.201, 450.688 744.204, 450.937 734.207, 451.185 724.210, 451.433 714.213, 451.681 704.216, 451.929 694.219, 452.178 684.222, 452.426 674.225, 452.674 664.228, 452.922 654.231, 453.170 644.234, 453.419 634.238, 453.667 624.241, 453.915 614.422, 454.159 604.426, 454.407 594.429, 454.655 584.432, 454.903 574.435, 455.151 564.438, 455.400 554.388, 455.649 544.707, 458.155 535.026, 460.660 525.345, 463.166 515.664, 465.672 505.983, 468.177 496.302, 470.683 486.621, 473.188 476.940, 475.694 467.259, 478.200 456.660, 480.943 " />
            <path fill="none" stroke-width="3.0" stroke-linecap="butt" stroke-opacity="1.0" stroke="rgb(0, 0, 0)" stroke-linejoin="round" d=" M 583.266, 412.101 577.740, 420.435 572.213, 428.769 566.686, 437.103 561.160, 445.437 555.633, 453.771 554.388, 455.649 558.854, 464.596 563.320, 473.543 567.787, 482.491 572.253, 491.438 576.719, 500.385 581.186, 509.332 583.266, 513.500 " />
            <path fill="none" stroke-width="3.0" stroke-linecap="butt" stroke-opacity="1.0" stroke="rgb(0, 0, 0)" stroke-linejoin="round" d=" M 578.999, 568.773 569.002, 568.525 559.005, 568.276 549.008, 568.028 539.011, 567.780 529.014, 567.532 519.017, 567.284 509.020, 567.035 499.023, 566.787 489.026, 566.539 484.292, 566.422 480.002, 575.454 475.711, 584.487 471.421, 593.520 467.130, 602.553 462.840, 611.586 458.549, 620.618 456.660, 624.595 462.046, 633.021 467.433, 641.446 472.819, 649.872 478.205, 658.298 483.591, 666.723 484.293, 667.821 493.974, 670.326 503.655, 672.832 513.336, 675.337 523.017, 677.843 532.698, 680.349 542.379, 682.854 552.060, 685.360 561.741, 687.866 571.422, 690.371 581.103, 692.877 583.266, 693.437 593.263, 693.685 603.260, 693.933 613.257, 694.182 623.254, 694.430 632.987, 694.671 " />
            <path fill="none" stroke-width="3.0" stroke-linecap="butt" stroke-opacity="1.0" stroke="rgb(0, 0, 0)" stroke-linejoin="round" d=" M 604.511, 628.266 594.514, 628.018 584.517, 627.770 574.520, 627.521 564.523, 627.273 554.526, 627.025 544.529, 626.777 534.532, 626.529 524.535, 626.280 514.539, 626.032 504.542, 625.784 494.545, 625.536 484.548, 625.288 474.551, 625.040 464.554, 624.791 456.660, 624.595 " />
            <path fill="none" stroke-width="3.0" stroke-linecap="butt" stroke-opacity="1.0" stroke="rgb(0, 0, 0)" stroke-linejoin="round" d=" M 622.949, 671.263 612.952, 671.015 602.955, 670.767 592.958, 670.518 582.961, 670.270 572.964, 670.022 562.967, 669.774 552.971, 669.526 542.974, 669.277 532.977, 669.029 522.980, 668.781 512.983, 668.533 502.986, 668.285 492.989, 668.036 484.293, 667.821 " />
            <path fill="none" stroke-width="3.0" stroke-linecap="butt" stroke-opacity="1.0" stroke="rgb(0, 0, 0)" stroke-linejoin="round" d=" M 760.399, 690.196 757.453, 683.326 753.511, 674.135 751.517, 669.484 747.576, 660.293 743.634, 651.103 739.693, 641.912 735.752, 632.721 733.136, 626.621 742.817, 624.115 752.498, 621.610 754.534, 621.083 764.215, 618.577 773.896, 616.071 783.577, 613.566 793.258, 611.060 802.939, 608.555 812.620, 606.049 822.301, 603.543 831.982, 601.038 841.663, 598.532 851.344, 596.026 861.025, 593.521 870.706, 591.015 879.862, 588.645 " />
        </g>
    </g>
</svg>
