<?xml version='1.0' encoding='ascii'?>
<svg xmlns="http://www.w3.org/2000/svg" version="1.1" width="1920" height="1080">
    <g id="ViewLayer_LineSet" xmlns:inkscape="http://www.inkscape.org/namespaces/inkscape" inkscape:groupmode="lineset" inkscape:label="ViewLayer_LineSet">
        <g xmlns:inkscape="http://www.inkscape.org/namespaces/inkscape" inkscape:groupmode="layer" id="strokes" inkscape:label="strokes">
            <path fill="none" stroke-width="3.0" stroke-linecap="butt" stroke-opacity="1.0" stroke="rgb(0, 0, 0)" stroke-linejoin="round" d=" M 660.380, 396.995 655.325, 405.623 650.271, 414.252 645.216, 422.880 640.162, 431.509 635.107, 440.137 630.053, 448.766 624.998, 457.394 619.944, 466.023 614.889, 474.652 609.835, 483.280 604.780, 491.909 599.726, 500.537 594.671, 509.166 589.617, 517.794 584.562, 526.423 579.508, 535.051 574.453, 543.680 572.136, 547.636 577.190, 556.265 582.245, 564.893 587.299, 573.522 592.354, 582.151 597.408, 590.779 602.463, 599.408 607.517, 608.036 612.572, 616.665 617.626, 625.293 622.681, 633.922 627.735, 642.550 632.790, 651.179 637.844, 659.808 642.899, 668.436 647.953, 677.065 653.008, 685.693 658.062, 694.322 660.380, 698.278 665.434, 706.907 670.489, 715.535 673.841, 721.258 678.896, 729.887 683.734, 738.146 683.828, 738.307 691.993, 744.080 700.158, 749.854 708.323, 755.627 709.288, 756.310 717.453, 762.083 722.675, 765.775 730.840, 771.549 739.005, 777.322 747.170, 783.096 755.335, 788.869 763.500, 794.643 768.610, 798.257 776.775, 804.030 781.395, 807.297 789.560, 813.070 797.725, 818.844 805.890, 824.617 808.262, 826.295 816.427, 832.068 824.592, 837.842 832.757, 843.615 840.922, 849.389 849.087, 855.162 857.252, 860.936 865.417, 866.709 873.582, 872.483 881.747, 878.256 889.912, 884.030 898.077, 889.803 906.242, 895.577 914.406, 901.350 922.571, 907.124 930.736, 912.897 938.901, 918.671 947.066, 924.444 953.477, 928.977 961.642, 923.203 969.807, 917.430 977.971, 911.656 986.136, 905.883 994.301, 900.109 1002.466, 894.336 1010.631, 888.562 1018.796, 882.789 1026.961, 877.015 1035.126, 871.242 1043.291, 865.468 1051.456, 859.695 1059.621, 853.921 1067.786, 848.148 1075.951, 842.374 1084.116, 836.601 1092.281, 830.827 1100.446, 825.054 1108.611, 819.280 1116.776, 813.507 1124.941, 807.733 1133.106, 801.960 1141.271, 796.186 1149.436, 790.413 1157.601, 784.639 1165.766, 778.866 1173.931, 773.092 1182.096, 767.319 1190.261, 761.545 1198.426, 755.772 1206.591, 749.998 1214.755, 744.225 1223.125, 738.307 1228.180, 729.678 1233.234, 721.050 1238.289, 712.421 1243.343, 703.792 1248.398, 695.164 1253.452, 686.535 1258.507, 677.907 1263.561, 669.278 1268.616, 660.650 1273.670, 652.021 1278.725, 643.393 1283.779, 634.764 1288.834, 626.135 1293.888, 617.507 1298.943, 608.878 1303.997, 600.250 1309.052, 591.621 1314.106, 582.993 1319.161, 574.364 1324.215, 565.735 1329.270, 557.107 1334.817, 547.636 1329.763, 539.008 1324.708, 530.379 1319.654, 521.751 1314.599, 513.122 1309.545, 504.494 1304.490, 495.865 1299.436, 487.236 1294.381, 478.608 1289.327, 469.979 1284.272, 461.351 1279.218, 452.722 1274.163, 444.094 1269.109, 435.465 1264.054, 426.836 1259.000, 418.208 1253.945, 409.579 1248.891, 400.951 1243.836, 392.322 1238.782, 383.694 1233.727, 375.065 1228.673, 366.437 1223.125, 356.966 1214.960, 351.193 1206.795, 345.419 1198.630, 339.645 1190.465, 333.872 1182.300, 328.098 1174.135, 322.325 1165.970, 316.551 1157.805, 310.778 1149.641, 305.004 1141.475, 299.231 1133.311, 293.457 1125.146, 287.684 1116.981, 281.910 1108.816, 276.137 1100.651, 270.363 1092.486, 264.590 1084.321, 258.816 1076.156, 253.043 1067.991, 247.269 1059.826, 241.496 1051.661, 235.722 1043.496, 229.949 1035.331, 224.175 1027.166, 218.402 1019.001, 212.628 1010.836, 206.855 1002.671, 201.081 994.506, 195.308 986.341, 189.534 978.176, 183.761 970.011, 177.987 961.846, 172.214 953.477, 166.296 945.312, 172.069 937.147, 177.843 928.982, 183.616 920.817, 189.390 912.652, 195.163 904.487, 200.937 896.322, 206.710 888.157, 212.484 879.992, 218.257 871.827, 224.031 863.662, 229.804 855.497, 235.578 847.332, 241.351 839.167, 247.125 831.002, 252.898 822.837, 258.672 814.672, 264.445 808.262, 268.978 " />
            <path fill="none" stroke-width="3.0" stroke-linecap="butt" stroke-opacity="1.0" stroke="rgb(0, 0, 0)" stroke-linejoin="round" d=" M 953.477, 277.988 953.477, 287.988 953.477, 297.988 953.477, 307.988 953.477, 317.988 953.477, 327.988 953.477, 337.988 953.477, 347.988 953.477, 357.988 953.477, 367.988 953.477, 377.988 953.477, 387.988 953.477, 397.988 953.477, 407.988 953.477, 417.988 953.477, 427.988 953.477, 437.988 953.477, 447.988 953.477, 457.988 953.477, 467.988 953.477, 477.988 953.477, 487.988 953.477, 497.988 953.477, 507.988 953.477, 517.988 953.477, 527.988 953.477, 537.988 953.477, 547.636 " />
            <path fill="none" stroke-width="3.0" stroke-linecap="butt" stroke-opacity="1.0" stroke="rgb(0, 0, 0)" stroke-linejoin="round" d=" M 953.477, 547.636 961.642, 553.410 969.807, 559.183 977.971, 564.957 986.136, 570.730 994.301, 576.504 1002.466, 582.277 1010.631, 588.051 1018.796, 593.824 1026.961, 599.598 1035.126, 605.371 1043.291, 611.145 1051.456, 616.918 1059.621, 622.692 1067.786, 628.465 1075.951, 634.239 1084.116, 640.012 1092.281, 645.786 1100.446, 651.559 1108.611, 657.333 1116.776, 663.106 1124.941, 668.880 1133.106, 674.653 1141.271, 680.427 1149.436, 686.200 1157.601, 691.974 1165.766, 697.747 1173.931, 703.521 1182.096, 709.294 1190.260, 715.068 1198.426, 720.841 1206.590, 726.615 1214.755, 732.388 1223.125, 738.307 1213.528, 741.118 1203.932, 743.928 1194.335, 746.739 1184.738, 749.550 1175.141, 752.361 1165.544, 755.172 1155.947, 757.983 1146.350, 760.793 1136.754, 763.604 1127.157, 766.415 1117.560, 769.226 1107.963, 772.037 1098.366, 774.848 1088.770, 777.659 1079.173, 780.469 1069.576, 783.280 1059.979, 786.091 1050.382, 788.902 1040.785, 791.713 1031.189, 794.524 1021.592, 797.334 1011.995, 800.145 1002.398, 802.956 992.801, 805.767 983.204, 808.578 973.608, 811.389 964.011, 814.200 953.477, 817.285 " />
            <path fill="none" stroke-width="3.0" stroke-linecap="butt" stroke-opacity="1.0" stroke="rgb(0, 0, 0)" stroke-linejoin="round" d=" M 1334.817, 547.636 1326.652, 541.863 1318.487, 536.089 1310.322, 530.316 1302.157, 524.542 1293.992, 518.769 1285.828, 512.995 1277.662, 507.222 1269.498, 501.448 1261.333, 495.675 1253.168, 489.901 1245.003, 484.128 1236.838, 478.354 1228.673, 472.581 1220.508, 466.807 1212.343, 461.034 1204.178, 455.260 1196.013, 449.487 1187.848, 443.713 1179.683, 437.940 1171.518, 432.166 1163.353, 426.393 1155.188, 420.619 1147.023, 414.846 1138.858, 409.072 1130.693, 403.299 1122.528, 397.525 1114.363, 391.752 1106.198, 385.978 1098.033, 380.205 1089.868, 374.431 1081.703, 368.658 1073.538, 362.884 1065.373, 357.111 1057.208, 351.337 1049.043, 345.564 1040.879, 339.790 1032.714, 334.017 1024.549, 328.243 1016.384, 322.470 1008.219, 316.696 1000.054, 310.923 991.889, 305.149 983.724, 299.376 975.559, 293.602 967.394, 287.829 959.229, 282.055 953.477, 277.988 " />
            <path fill="none" stroke-width="3.0" stroke-linecap="butt" stroke-opacity="1.0" stroke="rgb(0, 0, 0)" stroke-linejoin="round" d=" M 953.477, 166.296 953.477, 176.296 953.477, 186.296 953.477, 196.296 953.477, 206.296 953.477, 216.296 953.477, 226.296 953.477, 236.296 953.477, 246.296 953.477, 256.296 953.477, 266.296 953.477, 276.296 953.477, 277.988 944.477, 282.349 935.478, 286.709 926.479, 291.070 925.525, 291.533 916.526, 295.894 907.526, 300.255 898.527, 304.615 889.528, 308.976 880.529, 313.337 871.530, 317.698 862.531, 322.059 855.771, 325.334 846.772, 329.695 842.988, 331.529 " />
            <path fill="none" stroke-width="3.0" stroke-linecap="butt" stroke-opacity="1.0" stroke="rgb(0, 0, 0)" stroke-linejoin="round" d=" M 953.477, 547.636 953.477, 557.636 953.477, 567.636 953.477, 577.636 953.477, 587.636 953.477, 597.636 953.477, 607.636 953.477, 617.636 953.477, 627.636 953.477, 637.636 953.477, 647.636 953.477, 657.636 953.477, 667.636 953.477, 677.636 953.477, 687.636 953.477, 697.636 953.477, 707.636 953.477, 717.636 953.477, 727.636 953.477, 737.636 953.477, 747.636 953.477, 757.636 953.477, 767.636 953.477, 777.636 953.477, 787.636 953.477, 797.636 953.477, 807.636 953.477, 817.285 " />
            <path fill="none" stroke-width="3.0" stroke-linecap="butt" stroke-opacity="1.0" stroke="rgb(0, 0, 0)" stroke-linejoin="round" d=" M 685.590, 563.594 690.645, 572.222 695.699, 580.851 700.754, 589.480 705.808, 598.108 710.863, 606.737 715.917, 615.365 717.602, 618.242 725.767, 612.469 733.932, 606.695 742.097, 600.922 742.622, 600.551 750.787, 594.777 751.223, 594.469 759.388, 588.696 762.806, 586.279 770.971, 580.505 779.136, 574.732 786.579, 569.469 794.744, 563.695 802.909, 557.922 811.074, 552.148 817.455, 547.636 825.620, 541.863 833.785, 536.089 841.228, 530.826 849.393, 525.053 857.557, 519.279 865.722, 513.506 873.887, 507.732 879.862, 503.508 879.862, 495.583 879.862, 485.583 879.862, 475.583 879.862, 465.583 879.862, 459.843 879.862, 449.843 879.862, 439.843 879.862, 429.843 879.862, 426.223 " />
            <path fill="none" stroke-width="3.0" stroke-linecap="butt" stroke-opacity="1.0" stroke="rgb(0, 0, 0)" stroke-linejoin="round" d=" M 733.136, 563.594 723.136, 563.594 713.136, 563.594 703.136, 563.594 693.136, 563.594 685.590, 563.594 693.755, 557.820 701.920, 552.047 710.085, 546.273 718.250, 540.500 726.415, 534.726 734.580, 528.953 742.745, 523.179 750.910, 517.406 759.075, 511.632 762.806, 508.994 770.971, 503.220 779.136, 497.447 786.579, 492.184 794.744, 486.410 802.909, 480.637 811.074, 474.863 819.239, 469.090 827.404, 463.316 835.569, 457.543 843.734, 451.769 851.899, 445.996 860.064, 440.222 868.229, 434.449 876.394, 428.675 879.862, 426.223 " />
            <path fill="none" stroke-width="3.0" stroke-linecap="butt" stroke-opacity="1.0" stroke="rgb(0, 0, 0)" stroke-linejoin="round" d=" M 683.828, 738.307 693.425, 741.117 703.022, 743.928 712.618, 746.739 722.215, 749.550 731.812, 752.361 741.409, 755.172 751.006, 757.983 760.603, 760.793 770.199, 763.604 779.796, 766.415 789.393, 769.226 798.990, 772.037 808.587, 774.848 818.183, 777.659 827.780, 780.469 837.377, 783.280 846.974, 786.091 857.294, 789.114 859.804, 789.849 869.401, 792.660 878.998, 795.471 888.595, 798.281 898.191, 801.092 907.788, 803.903 917.385, 806.714 927.408, 809.650 937.005, 812.460 946.602, 815.271 953.477, 817.285 953.477, 827.285 953.477, 837.285 953.477, 847.285 953.477, 857.285 953.477, 867.285 953.477, 877.285 953.477, 887.285 953.477, 897.285 953.477, 907.285 953.477, 917.285 953.477, 927.285 953.477, 928.977 " />
            <path fill="none" stroke-width="3.0" stroke-linecap="butt" stroke-opacity="1.0" stroke="rgb(0, 0, 0)" stroke-linejoin="round" d=" M 879.862, 503.508 888.439, 508.649 897.016, 513.791 905.594, 518.933 914.171, 524.074 922.748, 529.216 931.325, 534.357 939.902, 539.499 948.479, 544.640 953.477, 547.636 945.312, 553.410 937.147, 559.183 928.982, 564.957 920.817, 570.730 912.652, 576.504 909.239, 578.917 901.074, 584.691 892.909, 590.464 884.744, 596.238 879.862, 599.690 871.697, 605.463 863.532, 611.237 855.367, 617.010 847.202, 622.784 839.037, 628.557 830.872, 634.331 822.707, 640.104 814.542, 645.878 806.377, 651.651 798.212, 657.425 790.047, 663.198 781.882, 668.972 773.717, 674.745 765.552, 680.519 758.408, 685.571 750.243, 691.344 749.244, 692.051 741.079, 697.824 734.635, 702.381 726.470, 708.154 718.305, 713.928 710.140, 719.701 701.975, 725.475 693.810, 731.248 685.645, 737.022 683.828, 738.307 686.536, 728.680 689.244, 719.054 691.952, 709.428 694.660, 699.801 697.250, 690.592 699.958, 680.966 700.687, 678.375 703.395, 668.749 703.690, 667.701 705.588, 660.953 706.617, 657.293 709.325, 647.667 712.033, 638.040 714.741, 628.414 717.449, 618.788 717.602, 618.242 " />
            <path fill="none" stroke-width="3.0" stroke-linecap="butt" stroke-opacity="1.0" stroke="rgb(0, 0, 0)" stroke-linejoin="round" d=" M 772.893, 458.168 766.515, 465.870 760.137, 473.572 757.273, 477.030 750.895, 484.732 744.517, 492.434 742.622, 494.722 736.244, 502.424 729.866, 510.126 723.488, 517.828 717.110, 525.530 710.732, 533.232 704.354, 540.934 697.977, 548.636 691.599, 556.338 685.590, 563.594 675.688, 562.201 665.785, 560.808 655.883, 559.415 645.980, 558.023 636.078, 556.630 626.175, 555.237 616.272, 553.844 606.370, 552.451 596.467, 551.059 586.565, 549.666 576.662, 548.273 572.136, 547.636 " />
            <path fill="none" stroke-width="3.0" stroke-linecap="butt" stroke-opacity="1.0" stroke="rgb(0, 0, 0)" stroke-linejoin="round" d=" M 879.862, 290.201 889.727, 288.564 899.592, 286.928 909.457, 285.291 919.323, 283.654 927.408, 282.313 937.273, 280.676 947.138, 279.039 953.477, 277.988 949.029, 286.944 944.581, 295.901 940.133, 304.857 935.685, 313.813 931.238, 322.770 926.790, 331.726 922.342, 340.682 917.894, 349.639 913.446, 358.595 908.999, 367.552 904.551, 376.508 900.103, 385.464 895.655, 394.421 891.207, 403.377 886.760, 412.334 882.312, 421.290 879.862, 426.223 877.805, 416.437 875.748, 406.651 873.691, 396.864 871.867, 388.182 " />
            <path fill="none" stroke-width="3.0" stroke-linecap="butt" stroke-opacity="1.0" stroke="rgb(0, 0, 0)" stroke-linejoin="round" d=" M 871.867, 388.182 867.325, 379.273 862.784, 370.364 858.242, 361.455 853.701, 352.545 849.870, 345.029 845.328, 336.120 844.054, 333.620 842.988, 331.529 851.531, 326.330 860.073, 321.131 868.615, 315.932 871.867, 313.953 863.702, 308.180 860.206, 305.708 859.804, 305.424 859.069, 304.904 850.904, 299.130 842.739, 293.357 836.433, 288.898 828.268, 283.124 820.103, 277.351 811.938, 271.577 808.262, 268.978 800.097, 263.204 791.932, 257.431 783.767, 251.657 783.079, 251.171 773.102, 251.848 763.125, 252.524 753.148, 253.201 743.171, 253.878 733.194, 254.555 723.217, 255.231 713.240, 255.908 703.262, 256.585 693.285, 257.261 683.308, 257.938 673.331, 258.615 663.354, 259.292 653.377, 259.968 643.400, 260.645 633.423, 261.322 623.446, 261.998 613.469, 262.675 603.492, 263.352 593.515, 264.029 583.266, 264.724 574.724, 269.923 566.182, 275.122 557.639, 280.320 554.388, 282.299 546.223, 288.073 538.058, 293.846 529.893, 299.620 521.728, 305.393 513.563, 311.167 505.398, 316.940 497.233, 322.714 489.068, 328.487 480.903, 334.261 472.738, 340.034 464.573, 345.808 456.660, 351.403 460.990, 360.418 465.319, 369.432 469.648, 378.446 473.977, 387.460 478.307, 396.475 482.636, 405.489 484.293, 408.938 494.270, 408.261 504.247, 407.585 514.224, 406.908 524.201, 406.231 534.178, 405.554 544.155, 404.878 554.132, 404.201 564.109, 403.524 574.086, 402.848 584.063, 402.171 594.040, 401.494 604.017, 400.817 613.995, 400.141 623.972, 399.464 633.949, 398.787 643.926, 398.111 653.903, 397.434 660.380, 396.995 670.357, 396.318 680.334, 395.641 684.105, 395.385 692.270, 401.159 697.250, 404.680 698.487, 405.555 706.652, 411.329 707.607, 412.004 711.389, 414.678 719.554, 420.451 720.845, 421.364 729.010, 427.138 729.624, 427.572 737.789, 433.346 745.954, 439.119 754.119, 444.893 762.284, 450.666 770.449, 456.440 772.893, 458.168 " />
            <path fill="none" stroke-width="3.0" stroke-linecap="butt" stroke-opacity="1.0" stroke="rgb(0, 0, 0)" stroke-linejoin="round" d=" M 842.988, 331.529 834.823, 325.755 832.202, 323.902 824.037, 318.128 815.872, 312.355 807.707, 306.581 799.542, 300.808 791.377, 295.034 783.212, 289.261 781.395, 287.976 773.230, 282.202 765.065, 276.429 756.900, 270.655 754.201, 268.747 " />
            <path fill="none" stroke-width="3.0" stroke-linecap="butt" stroke-opacity="1.0" stroke="rgb(0, 0, 0)" stroke-linejoin="round" d=" M 754.201, 268.747 758.742, 277.656 763.283, 286.565 767.825, 295.474 768.610, 297.016 773.152, 305.925 777.693, 314.834 782.235, 323.744 783.079, 325.400 " />
            <path fill="none" stroke-width="3.0" stroke-linecap="butt" stroke-opacity="1.0" stroke="rgb(0, 0, 0)" stroke-linejoin="round" d=" M 484.293, 408.938 492.457, 403.165 500.622, 397.391 508.787, 391.618 516.952, 385.844 525.117, 380.071 533.282, 374.297 541.447, 368.523 549.612, 362.750 557.777, 356.977 565.942, 351.203 574.107, 345.430 582.272, 339.656 583.266, 338.953 593.243, 338.276 603.221, 337.599 613.198, 336.923 623.175, 336.246 633.152, 335.569 643.129, 334.893 653.106, 334.216 663.083, 333.539 673.060, 332.862 683.037, 332.186 693.014, 331.509 702.991, 330.832 712.968, 330.156 722.675, 329.497 732.652, 328.820 742.629, 328.144 752.606, 327.467 762.583, 326.790 772.560, 326.114 783.079, 325.400 791.244, 331.174 799.409, 336.947 806.581, 342.019 814.746, 347.792 819.379, 351.068 827.544, 356.841 830.354, 358.829 838.519, 364.602 846.684, 370.376 854.849, 376.149 863.014, 381.923 871.179, 387.696 871.867, 388.182 863.702, 393.956 855.537, 399.729 847.372, 405.503 839.207, 411.276 831.042, 417.050 822.877, 422.824 814.712, 428.597 806.547, 434.371 798.382, 440.144 790.217, 445.918 782.052, 451.691 773.887, 457.465 772.893, 458.168 " />
            <path fill="none" stroke-width="3.0" stroke-linecap="butt" stroke-opacity="1.0" stroke="rgb(0, 0, 0)" stroke-linejoin="round" d=" M 720.845, 421.364 713.535, 427.572 705.912, 434.045 698.289, 440.517 690.666, 446.990 683.044, 453.462 675.421, 459.935 667.798, 466.408 660.176, 472.880 652.553, 479.353 644.930, 485.825 637.307, 492.298 629.685, 498.770 622.062, 505.243 614.439, 511.716 606.817, 518.188 599.194, 524.661 591.571, 531.133 583.948, 537.606 576.326, 544.078 572.136, 547.636 579.004, 540.368 585.872, 533.100 592.740, 525.831 599.608, 518.563 606.477, 511.295 613.345, 504.026 620.213, 496.758 627.081, 489.490 633.949, 482.222 640.817, 474.953 647.686, 467.685 654.554, 460.417 661.422, 453.148 668.290, 445.880 675.158, 438.612 682.026, 431.343 685.590, 427.572 " />
            <path fill="none" stroke-width="3.0" stroke-linecap="butt" stroke-opacity="1.0" stroke="rgb(0, 0, 0)" stroke-linejoin="round" d=" M 707.607, 412.004 700.687, 416.897 692.522, 422.671 685.590, 427.572 690.645, 418.943 695.699, 410.315 698.487, 405.555 " />
            <path fill="none" stroke-width="3.0" stroke-linecap="butt" stroke-opacity="1.0" stroke="rgb(0, 0, 0)" stroke-linejoin="round" d=" M 953.477, 166.296 947.224, 174.100 940.972, 181.905 934.720, 189.709 928.468, 197.514 922.216, 205.318 915.964, 213.123 909.712, 220.927 903.460, 228.732 897.207, 236.536 890.955, 244.341 884.703, 252.146 879.862, 258.189 " />
            <path fill="none" stroke-width="3.0" stroke-linecap="butt" stroke-opacity="1.0" stroke="rgb(0, 0, 0)" stroke-linejoin="round" d=" M 879.862, 258.189 879.862, 268.189 879.862, 278.189 879.862, 288.189 879.862, 290.201 871.697, 295.975 863.532, 301.748 859.069, 304.904 " />
            <path fill="none" stroke-width="3.0" stroke-linecap="butt" stroke-opacity="1.0" stroke="rgb(0, 0, 0)" stroke-linejoin="round" d=" M 871.867, 313.953 875.057, 304.476 878.247, 294.998 879.862, 290.201 " />
            <path fill="none" stroke-width="3.0" stroke-linecap="butt" stroke-opacity="1.0" stroke="rgb(0, 0, 0)" stroke-linejoin="round" d=" M 685.590, 427.572 694.535, 423.101 703.480, 418.631 711.389, 414.678 " />
            <path fill="none" stroke-width="3.0" stroke-linecap="butt" stroke-opacity="1.0" stroke="rgb(0, 0, 0)" stroke-linejoin="round" d=" M 684.105, 395.385 692.270, 389.612 700.435, 383.838 708.600, 378.065 716.765, 372.291 724.930, 366.518 733.095, 360.744 741.260, 354.971 749.425, 349.197 757.590, 343.424 765.755, 337.650 773.920, 331.877 782.085, 326.103 783.079, 325.400 " />
            <path fill="none" stroke-width="3.0" stroke-linecap="butt" stroke-opacity="1.0" stroke="rgb(0, 0, 0)" stroke-linejoin="round" d=" M 783.079, 251.171 774.537, 256.370 765.994, 261.569 757.452, 266.768 754.201, 268.747 744.224, 269.423 734.246, 270.100 724.269, 270.777 714.292, 271.453 704.315, 272.130 694.338, 272.807 684.361, 273.484 674.384, 274.160 664.407, 274.837 654.430, 275.514 644.453, 276.191 634.476, 276.867 624.499, 277.544 614.522, 278.221 604.544, 278.897 594.567, 279.574 584.590, 280.251 574.613, 280.928 564.636, 281.604 554.388, 282.299 " />
            <path fill="none" stroke-width="3.0" stroke-linecap="butt" stroke-opacity="1.0" stroke="rgb(0, 0, 0)" stroke-linejoin="round" d=" M 554.388, 282.299 558.929, 291.209 563.471, 300.118 568.012, 309.027 572.554, 317.937 577.095, 326.846 581.636, 335.755 583.266, 338.953 " />
            <path fill="none" stroke-width="3.0" stroke-linecap="butt" stroke-opacity="1.0" stroke="rgb(0, 0, 0)" stroke-linejoin="round" d=" M 660.380, 698.278 650.403, 697.601 640.426, 696.925 630.448, 696.248 620.471, 695.571 610.494, 694.895 600.517, 694.218 590.540, 693.541 580.563, 692.864 570.586, 692.188 560.609, 691.511 550.632, 690.834 540.655, 690.157 530.678, 689.481 520.701, 688.804 510.724, 688.127 500.746, 687.451 490.769, 686.774 484.292, 686.335 479.963, 695.349 475.634, 704.363 471.305, 713.377 466.975, 722.392 462.646, 731.406 458.317, 740.420 456.660, 743.869 464.825, 749.643 472.990, 755.416 481.155, 761.190 489.320, 766.963 497.485, 772.737 505.650, 778.510 513.815, 784.284 521.980, 790.057 530.145, 795.831 538.310, 801.604 546.475, 807.378 554.388, 812.973 562.930, 818.172 571.473, 823.371 580.015, 828.570 583.266, 830.549 593.243, 831.226 603.221, 831.902 613.198, 832.579 623.175, 833.256 633.152, 833.933 643.129, 834.609 653.106, 835.286 663.083, 835.963 673.060, 836.639 683.037, 837.316 693.014, 837.993 702.991, 838.670 712.968, 839.346 722.945, 840.023 732.923, 840.700 742.900, 841.376 752.877, 842.053 762.854, 842.730 772.831, 843.407 783.079, 844.102 791.244, 838.328 799.409, 832.555 807.574, 826.781 808.262, 826.295 " />
            <path fill="none" stroke-width="3.0" stroke-linecap="butt" stroke-opacity="1.0" stroke="rgb(0, 0, 0)" stroke-linejoin="round" d=" M 656.473, 757.422 664.638, 751.649 672.803, 745.875 680.968, 740.102 683.734, 738.146 " />
            <path fill="none" stroke-width="3.0" stroke-linecap="butt" stroke-opacity="1.0" stroke="rgb(0, 0, 0)" stroke-linejoin="round" d=" M 684.105, 774.117 674.128, 773.440 664.151, 772.763 654.174, 772.086 644.197, 771.410 634.220, 770.733 624.243, 770.056 614.266, 769.380 604.289, 768.703 594.311, 768.026 584.334, 767.349 574.357, 766.673 564.380, 765.996 554.403, 765.319 544.426, 764.642 534.449, 763.966 524.472, 763.289 514.495, 762.612 504.518, 761.936 494.541, 761.259 484.293, 760.564 " />
            <path fill="none" stroke-width="3.0" stroke-linecap="butt" stroke-opacity="1.0" stroke="rgb(0, 0, 0)" stroke-linejoin="round" d=" M 656.473, 757.422 646.496, 756.745 636.519, 756.069 626.542, 755.392 616.565, 754.715 606.588, 754.039 596.611, 753.362 586.633, 752.685 576.656, 752.008 566.679, 751.332 556.702, 750.655 546.725, 749.978 536.748, 749.301 526.771, 748.625 516.794, 747.948 506.817, 747.271 496.840, 746.595 486.863, 745.918 476.886, 745.241 466.909, 744.564 456.660, 743.869 465.219, 749.040 473.779, 754.212 482.338, 759.383 484.293, 760.564 492.457, 766.337 500.622, 772.111 508.787, 777.884 516.952, 783.658 525.117, 789.431 533.282, 795.205 541.447, 800.978 549.612, 806.752 557.777, 812.525 565.942, 818.299 574.107, 824.072 582.272, 829.846 583.266, 830.549 " />
            <path fill="none" stroke-width="3.0" stroke-linecap="butt" stroke-opacity="1.0" stroke="rgb(0, 0, 0)" stroke-linejoin="round" d=" M 783.079, 844.102 774.914, 838.328 766.749, 832.555 758.584, 826.781 750.419, 821.008 742.254, 815.234 734.089, 809.461 725.924, 803.687 717.759, 797.914 709.594, 792.140 701.429, 786.367 693.264, 780.593 685.099, 774.820 684.105, 774.117 " />
            <path fill="none" stroke-width="3.0" stroke-linecap="butt" stroke-opacity="1.0" stroke="rgb(0, 0, 0)" stroke-linejoin="round" d=" M 673.841, 721.258 669.512, 730.273 665.183, 739.287 660.853, 748.301 656.473, 757.422 665.032, 762.593 673.591, 767.764 682.150, 772.936 684.105, 774.117 692.270, 768.343 700.435, 762.570 708.600, 756.796 709.288, 756.310 " />
            <path fill="none" stroke-width="3.0" stroke-linecap="butt" stroke-opacity="1.0" stroke="rgb(0, 0, 0)" stroke-linejoin="round" d=" M 751.223, 594.469 746.168, 585.841 741.114, 577.212 736.059, 568.584 733.136, 563.594 741.301, 557.820 749.466, 552.047 757.631, 546.273 765.796, 540.500 773.961, 534.726 782.126, 528.953 786.579, 525.804 794.744, 520.031 802.909, 514.257 810.352, 508.994 818.517, 503.220 826.682, 497.447 834.847, 491.673 843.012, 485.900 851.177, 480.126 859.342, 474.353 867.507, 468.579 875.672, 462.806 879.862, 459.843 " />
            <path fill="none" stroke-width="3.0" stroke-linecap="butt" stroke-opacity="1.0" stroke="rgb(0, 0, 0)" stroke-linejoin="round" d=" M 836.433, 288.898 844.598, 283.124 852.763, 277.351 860.928, 271.577 869.093, 265.804 877.258, 260.030 879.862, 258.189 " />
        </g>
    </g>
</svg>
