<?xml version='1.0' encoding='ascii'?>
<svg xmlns="http://www.w3.org/2000/svg" version="1.1" width="1920" height="1080">
    <g id="ViewLayer_LineSet" xmlns:inkscape="http://www.inkscape.org/namespaces/inkscape" inkscape:groupmode="lineset" inkscape:label="ViewLayer_LineSet">
        <g xmlns:inkscape="http://www.inkscape.org/namespaces/inkscape" inkscape:groupmode="layer" id="strokes" inkscape:label="strokes">
            <path fill="none" stroke-width="3.0" stroke-linecap="butt" stroke-opacity="1.0" stroke="rgb(0, 0, 0)" stroke-linejoin="round" d=" M 612.803, 465.537 608.488, 474.558 604.174, 483.579 599.859, 492.600 595.544, 501.622 591.229, 510.643 586.914, 519.664 582.600, 528.685 578.285, 537.707 573.970, 546.728 572.136, 550.563 576.451, 559.584 580.765, 568.605 585.080, 577.626 589.395, 586.648 593.710, 595.669 598.024, 604.690 602.339, 613.711 606.654, 622.733 610.969, 631.754 612.803, 635.589 617.118, 644.610 621.433, 653.631 625.747, 662.653 630.062, 671.674 634.377, 680.695 634.704, 681.379 639.019, 690.401 642.772, 698.247 647.087, 707.268 651.401, 716.289 655.716, 725.310 657.307, 728.635 661.621, 737.656 664.397, 743.461 668.712, 752.482 673.027, 761.503 677.342, 770.524 679.208, 774.426 683.523, 783.447 683.828, 784.085 692.772, 788.557 701.716, 793.030 710.661, 797.502 719.605, 801.974 728.549, 806.446 737.494, 810.918 746.438, 815.390 755.382, 819.862 764.326, 824.334 773.271, 828.807 782.215, 833.279 791.159, 837.751 800.103, 842.223 809.048, 846.695 817.992, 851.167 826.936, 855.639 835.881, 860.112 844.825, 864.584 853.769, 869.056 862.713, 873.528 871.658, 878.000 880.602, 882.472 889.546, 886.944 898.490, 891.417 907.435, 895.889 916.379, 900.361 925.323, 904.833 934.268, 909.305 943.212, 913.777 953.477, 918.910 962.421, 914.437 971.365, 909.965 980.309, 905.493 989.254, 901.021 998.198, 896.549 1007.142, 892.077 1016.086, 887.605 1025.031, 883.132 1033.975, 878.660 1042.919, 874.188 1051.864, 869.716 1060.808, 865.244 1069.752, 860.772 1078.696, 856.300 1087.641, 851.828 1096.585, 847.355 1105.529, 842.883 1114.474, 838.411 1123.418, 833.939 1132.362, 829.467 1141.306, 824.995 1150.251, 820.523 1159.195, 816.050 1168.139, 811.578 1177.083, 807.106 1186.028, 802.634 1194.972, 798.162 1203.916, 793.690 1212.860, 789.218 1223.125, 784.085 1227.440, 775.064 1231.755, 766.043 1236.070, 757.022 1240.384, 748.000 1244.699, 738.979 1249.014, 729.958 1253.329, 720.937 1257.643, 711.915 1261.958, 702.894 1266.273, 693.873 1270.588, 684.852 1274.903, 675.831 1279.217, 666.809 1283.532, 657.788 1287.847, 648.767 1292.162, 639.746 1296.477, 630.724 1300.791, 621.703 1305.106, 612.682 1309.421, 603.661 1313.736, 594.639 1318.051, 585.618 1322.365, 576.597 1326.680, 567.576 1330.995, 558.555 1334.817, 550.563 1330.503, 541.542 1326.188, 532.520 1321.873, 523.499 1317.558, 514.478 1313.243, 505.457 1308.929, 496.435 1304.614, 487.414 1300.299, 478.393 1295.984, 469.372 1291.669, 460.350 1287.355, 451.329 1283.040, 442.308 1278.725, 433.287 1274.410, 424.266 1270.095, 415.244 1265.781, 406.223 1261.466, 397.202 1257.151, 388.181 1252.836, 379.159 1248.521, 370.138 1244.207, 361.117 1239.892, 352.096 1235.577, 343.074 1231.262, 334.053 1226.948, 325.032 1223.125, 317.040 1214.181, 312.568 1205.237, 308.096 1196.292, 303.624 1187.348, 299.152 1178.404, 294.680 1169.459, 290.207 1160.515, 285.735 1151.571, 281.263 1142.627, 276.791 1133.682, 272.319 1124.738, 267.847 1115.794, 263.375 1106.850, 258.903 1097.905, 254.430 1088.961, 249.958 1080.017, 245.486 1071.073, 241.014 1062.128, 236.542 1053.184, 232.070 1044.240, 227.598 1035.295, 223.125 1026.351, 218.653 1017.407, 214.181 1008.463, 209.709 999.518, 205.237 990.574, 200.765 981.630, 196.293 972.686, 191.820 963.741, 187.348 953.477, 182.216 944.532, 186.688 935.588, 191.160 926.644, 195.632 917.699, 200.104 908.755, 204.577 899.811, 209.049 890.867, 213.521 881.922, 217.993 872.978, 222.465 864.034, 226.937 855.090, 231.409 846.145, 235.882 837.201, 240.354 828.257, 244.826 819.312, 249.298 810.368, 253.770 801.424, 258.242 792.480, 262.714 783.535, 267.187 774.591, 271.659 765.647, 276.131 756.703, 280.603 747.758, 285.075 738.814, 289.547 729.870, 294.019 720.925, 298.491 711.981, 302.964 703.037, 307.436 694.093, 311.908 683.828, 317.040 679.513, 326.062 679.208, 326.700 " />
            <path fill="none" stroke-width="3.0" stroke-linecap="butt" stroke-opacity="1.0" stroke="rgb(0, 0, 0)" stroke-linejoin="round" d=" M 953.477, 359.892 953.477, 369.892 953.477, 379.892 953.477, 389.892 953.477, 399.892 953.477, 409.892 953.477, 419.892 953.477, 429.892 953.477, 439.892 953.477, 449.892 953.477, 459.892 953.477, 469.892 953.477, 479.892 953.477, 489.892 953.477, 499.892 953.477, 509.892 953.477, 519.892 953.477, 529.892 953.477, 539.892 953.477, 549.892 953.477, 559.892 953.477, 569.892 953.477, 579.892 953.477, 589.892 953.477, 599.892 953.477, 609.892 953.477, 619.892 953.477, 629.892 953.477, 639.892 953.477, 649.261 " />
            <path fill="none" stroke-width="3.0" stroke-linecap="butt" stroke-opacity="1.0" stroke="rgb(0, 0, 0)" stroke-linejoin="round" d=" M 953.477, 649.261 962.421, 653.733 971.365, 658.205 980.309, 662.677 989.254, 667.149 998.198, 671.622 1007.142, 676.094 1016.086, 680.566 1025.031, 685.038 1033.975, 689.510 1042.919, 693.982 1051.864, 698.454 1060.808, 702.927 1069.752, 707.399 1078.696, 711.871 1087.641, 716.343 1096.585, 720.815 1105.529, 725.287 1114.473, 729.759 1123.418, 734.232 1132.362, 738.704 1141.306, 743.176 1150.250, 747.648 1159.195, 752.120 1168.139, 756.592 1177.083, 761.064 1186.028, 765.537 1194.972, 770.009 1203.916, 774.481 1212.860, 778.953 1223.125, 784.085 1213.712, 787.462 1204.300, 790.838 1194.887, 794.215 1185.474, 797.591 1176.062, 800.968 1166.649, 804.344 1157.236, 807.721 1147.823, 811.098 1138.411, 814.474 1128.998, 817.851 1119.585, 821.227 1110.173, 824.604 1100.760, 827.980 1091.347, 831.357 1081.934, 834.733 1072.522, 838.110 1063.109, 841.486 1053.696, 844.863 1044.284, 848.239 1034.871, 851.616 1025.458, 854.992 1016.046, 858.369 1006.633, 861.745 997.220, 865.122 987.807, 868.498 978.395, 871.875 968.982, 875.251 959.569, 878.628 953.477, 880.814 " />
            <path fill="none" stroke-width="3.0" stroke-linecap="butt" stroke-opacity="1.0" stroke="rgb(0, 0, 0)" stroke-linejoin="round" d=" M 1334.817, 550.563 1325.873, 546.091 1316.929, 541.619 1307.984, 537.146 1299.040, 532.674 1290.096, 528.202 1281.152, 523.730 1272.207, 519.258 1263.263, 514.786 1254.319, 510.314 1245.375, 505.841 1236.430, 501.369 1227.486, 496.897 1218.542, 492.425 1209.598, 487.953 1200.653, 483.481 1191.709, 479.009 1182.765, 474.536 1173.820, 470.064 1164.876, 465.592 1155.932, 461.120 1146.988, 456.648 1138.043, 452.176 1129.099, 447.704 1120.155, 443.232 1111.210, 438.759 1102.266, 434.287 1093.322, 429.815 1084.378, 425.343 1075.433, 420.871 1066.489, 416.399 1057.545, 411.927 1048.601, 407.454 1039.656, 402.982 1030.712, 398.510 1021.768, 394.038 1012.823, 389.566 1003.879, 385.094 994.935, 380.622 985.991, 376.149 977.046, 371.677 968.102, 367.205 959.158, 362.733 953.477, 359.892 " />
            <path fill="none" stroke-width="3.0" stroke-linecap="butt" stroke-opacity="1.0" stroke="rgb(0, 0, 0)" stroke-linejoin="round" d=" M 953.477, 182.216 953.477, 192.216 953.477, 202.216 953.477, 212.216 953.477, 222.216 953.477, 232.216 953.477, 242.216 953.477, 252.216 953.477, 262.216 953.477, 272.216 953.477, 282.216 953.477, 292.216 953.477, 302.216 953.477, 312.216 953.477, 322.216 953.477, 332.216 953.477, 342.216 953.477, 352.216 953.477, 359.892 944.016, 363.134 934.556, 366.375 925.096, 369.617 915.636, 372.859 906.176, 376.100 896.716, 379.342 887.256, 382.583 877.796, 385.825 868.336, 389.066 858.876, 392.308 849.416, 395.549 842.988, 397.752 " />
            <path fill="none" stroke-width="3.0" stroke-linecap="butt" stroke-opacity="1.0" stroke="rgb(0, 0, 0)" stroke-linejoin="round" d=" M 953.477, 649.261 953.477, 659.261 953.477, 669.261 953.477, 679.261 953.477, 689.261 953.477, 699.261 953.477, 709.261 953.477, 719.261 953.477, 729.261 953.477, 739.261 953.477, 749.261 953.477, 759.261 953.477, 769.261 953.477, 779.261 953.477, 789.261 953.477, 799.261 953.477, 809.261 953.477, 819.261 953.477, 829.261 953.477, 839.261 953.477, 849.261 953.477, 859.261 953.477, 869.261 953.477, 880.814 " />
            <path fill="none" stroke-width="3.0" stroke-linecap="butt" stroke-opacity="1.0" stroke="rgb(0, 0, 0)" stroke-linejoin="round" d=" M 685.590, 597.052 689.905, 606.073 694.220, 615.094 698.535, 624.115 701.498, 630.312 705.813, 639.333 710.128, 648.354 714.443, 657.376 717.602, 663.982 725.827, 659.870 734.771, 655.397 741.301, 652.133 747.873, 648.847 755.972, 644.797 764.917, 640.325 773.861, 635.853 782.805, 631.381 791.749, 626.909 800.694, 622.436 809.638, 617.964 814.615, 615.476 823.559, 611.004 832.503, 606.532 841.448, 602.059 850.392, 597.587 859.336, 593.115 861.504, 592.031 870.449, 587.559 879.393, 583.087 879.862, 582.852 879.862, 582.852 879.862, 577.437 879.862, 567.437 879.862, 557.437 879.862, 547.437 879.862, 537.437 879.862, 527.437 879.862, 523.689 879.862, 518.273 879.862, 518.273 879.862, 508.273 879.862, 499.916 " />
            <path fill="none" stroke-width="3.0" stroke-linecap="butt" stroke-opacity="1.0" stroke="rgb(0, 0, 0)" stroke-linejoin="round" d=" M 733.136, 597.052 723.136, 597.052 713.136, 597.052 703.136, 597.052 693.136, 597.052 685.590, 597.052 694.534, 592.579 703.479, 588.107 712.423, 583.635 721.367, 579.163 730.312, 574.691 739.256, 570.219 748.200, 565.747 757.144, 561.274 766.089, 556.802 775.033, 552.330 783.977, 547.858 792.921, 543.386 801.866, 538.914 810.810, 534.442 819.754, 529.969 828.699, 525.497 837.643, 521.025 846.587, 516.553 855.531, 512.081 861.504, 509.094 870.449, 504.622 879.393, 500.150 879.862, 499.916 " />
            <path fill="none" stroke-width="3.0" stroke-linecap="butt" stroke-opacity="1.0" stroke="rgb(0, 0, 0)" stroke-linejoin="round" d=" M 683.828, 784.085 693.241, 787.462 702.653, 790.838 712.066, 794.215 721.479, 797.591 730.891, 800.968 740.304, 804.344 749.717, 807.721 759.130, 811.097 768.542, 814.474 777.955, 817.850 787.368, 821.227 796.780, 824.604 806.193, 827.980 815.606, 831.357 825.019, 834.733 834.431, 838.110 843.844, 841.486 853.257, 844.863 862.669, 848.239 872.082, 851.616 881.495, 854.992 890.907, 858.369 900.320, 861.745 909.733, 865.122 919.146, 868.498 928.558, 871.875 937.971, 875.251 947.384, 878.628 953.477, 880.814 953.477, 890.814 953.477, 900.814 953.477, 910.814 953.477, 918.910 " />
            <path fill="none" stroke-width="3.0" stroke-linecap="butt" stroke-opacity="1.0" stroke="rgb(0, 0, 0)" stroke-linejoin="round" d=" M 879.862, 582.852 887.287, 589.551 894.712, 596.249 896.817, 598.148 900.212, 601.210 907.637, 607.908 915.062, 614.607 922.487, 621.305 929.912, 628.003 937.337, 634.702 944.763, 641.400 952.188, 648.098 953.477, 649.261 944.532, 653.733 935.588, 658.205 926.644, 662.677 917.699, 667.149 908.755, 671.622 899.811, 676.094 890.867, 680.566 881.922, 685.038 872.978, 689.510 864.034, 693.982 855.090, 698.454 846.145, 702.927 837.201, 707.399 828.257, 711.871 826.919, 712.540 821.901, 715.049 812.957, 719.521 804.013, 723.993 798.128, 726.935 789.184, 731.407 780.240, 735.879 771.295, 740.352 762.351, 744.824 753.407, 749.296 744.463, 753.768 735.518, 758.240 726.574, 762.712 717.630, 767.184 708.685, 771.656 701.052, 775.473 692.108, 779.945 683.828, 784.085 686.447, 774.773 689.154, 765.146 691.861, 755.520 694.568, 745.893 697.275, 736.266 699.982, 726.640 702.689, 717.013 705.397, 707.387 708.104, 697.760 710.811, 688.133 712.008, 683.875 714.715, 674.249 715.723, 670.666 717.602, 663.982 " />
            <path fill="none" stroke-width="3.0" stroke-linecap="butt" stroke-opacity="1.0" stroke="rgb(0, 0, 0)" stroke-linejoin="round" d=" M 772.893, 506.511 765.952, 513.709 759.010, 520.908 752.069, 528.107 745.128, 535.305 738.187, 542.504 731.246, 549.703 724.305, 556.901 717.363, 564.100 710.422, 571.298 703.481, 578.497 696.540, 585.696 689.599, 592.894 685.590, 597.052 676.337, 593.260 667.084, 589.468 657.830, 585.677 648.577, 581.885 639.324, 578.093 630.070, 574.302 620.817, 570.510 611.564, 566.719 602.310, 562.927 593.057, 559.135 583.804, 555.344 574.550, 551.552 572.136, 550.563 " />
            <path fill="none" stroke-width="3.0" stroke-linecap="butt" stroke-opacity="1.0" stroke="rgb(0, 0, 0)" stroke-linejoin="round" d=" M 879.862, 333.324 889.268, 336.718 898.674, 340.113 907.476, 343.290 916.882, 346.685 926.288, 350.079 935.694, 353.474 945.100, 356.869 953.477, 359.892 948.823, 368.744 944.170, 377.595 939.516, 386.446 934.863, 395.298 930.209, 404.149 925.556, 413.000 920.903, 421.852 916.249, 430.703 911.596, 439.554 906.942, 448.406 902.289, 457.257 897.636, 466.108 892.982, 474.960 888.329, 483.811 883.675, 492.662 882.116, 495.628 879.862, 499.916 878.749, 493.944 876.916, 484.113 875.084, 474.282 873.251, 464.452 871.867, 457.024 " />
            <path fill="none" stroke-width="3.0" stroke-linecap="butt" stroke-opacity="1.0" stroke="rgb(0, 0, 0)" stroke-linejoin="round" d=" M 871.867, 457.024 867.487, 448.034 863.107, 439.044 858.727, 430.055 854.347, 421.065 849.967, 412.075 845.587, 403.085 842.988, 397.752 849.730, 390.366 856.471, 382.980 863.213, 375.594 869.954, 368.208 871.867, 366.112 866.849, 363.603 857.905, 359.131 848.960, 354.659 843.076, 351.717 834.132, 347.245 825.187, 342.772 816.243, 338.300 815.925, 338.141 806.980, 333.669 798.036, 329.197 792.152, 326.254 783.207, 321.782 783.079, 321.718 773.091, 322.197 763.102, 322.676 753.114, 323.155 743.125, 323.634 733.136, 324.113 723.148, 324.593 713.159, 325.072 703.171, 325.551 701.052, 325.652 691.063, 326.131 690.454, 326.161 686.447, 326.353 679.208, 326.700 669.219, 327.179 659.231, 327.658 649.242, 328.137 639.254, 328.616 629.265, 329.095 619.277, 329.574 609.288, 330.053 599.300, 330.532 589.311, 331.012 583.266, 331.301 574.322, 335.774 565.378, 340.246 556.434, 344.718 547.489, 349.190 538.545, 353.662 529.601, 358.134 520.656, 362.606 511.712, 367.078 502.768, 371.551 493.824, 376.023 484.292, 380.788 477.641, 388.255 470.989, 395.722 464.337, 403.188 457.685, 410.655 456.660, 411.805 460.849, 420.885 465.039, 429.966 469.228, 439.046 473.417, 448.126 477.606, 457.206 481.795, 466.287 484.293, 471.700 494.281, 471.221 504.270, 470.742 514.258, 470.263 524.247, 469.784 534.235, 469.305 544.224, 468.826 554.212, 468.347 564.201, 467.868 574.189, 467.389 584.178, 466.910 594.166, 466.431 604.155, 465.951 612.803, 465.537 622.792, 465.058 632.780, 464.579 642.769, 464.099 652.757, 463.620 654.337, 463.545 664.325, 463.066 674.314, 462.587 684.105, 462.117 693.049, 466.589 701.498, 470.814 703.386, 471.758 712.331, 476.230 721.275, 480.702 730.219, 485.174 739.164, 489.646 739.868, 489.998 748.812, 494.471 757.757, 498.943 766.701, 503.415 772.893, 506.511 " />
            <path fill="none" stroke-width="3.0" stroke-linecap="butt" stroke-opacity="1.0" stroke="rgb(0, 0, 0)" stroke-linejoin="round" d=" M 842.988, 397.752 834.044, 393.280 825.788, 389.151 820.770, 386.643 811.826, 382.170 802.881, 377.698 796.997, 374.756 788.053, 370.284 779.108, 365.812 770.164, 361.340 761.220, 356.868 754.201, 353.358 " />
            <path fill="none" stroke-width="3.0" stroke-linecap="butt" stroke-opacity="1.0" stroke="rgb(0, 0, 0)" stroke-linejoin="round" d=" M 754.201, 353.358 758.581, 362.348 762.961, 371.337 767.341, 380.327 770.967, 387.771 775.347, 396.761 779.727, 405.750 780.281, 406.887 782.247, 410.922 783.079, 412.630 " />
            <path fill="none" stroke-width="3.0" stroke-linecap="butt" stroke-opacity="1.0" stroke="rgb(0, 0, 0)" stroke-linejoin="round" d=" M 484.293, 471.700 493.237, 467.228 502.181, 462.756 511.125, 458.284 520.070, 453.812 529.014, 449.340 537.958, 444.867 546.902, 440.395 555.847, 435.923 564.791, 431.451 573.735, 426.979 583.266, 422.213 593.255, 421.734 603.243, 421.255 613.232, 420.776 623.220, 420.297 633.209, 419.818 634.704, 419.746 644.693, 419.267 654.681, 418.788 664.670, 418.309 674.658, 417.830 684.647, 417.351 694.635, 416.872 704.624, 416.393 714.689, 415.910 724.677, 415.431 734.666, 414.952 744.655, 414.473 754.643, 413.994 764.632, 413.515 767.279, 413.388 777.268, 412.909 778.380, 412.855 783.079, 412.630 792.023, 417.102 800.968, 421.574 809.912, 426.046 818.856, 430.519 827.800, 434.991 836.745, 439.463 845.689, 443.935 854.633, 448.407 863.578, 452.879 871.867, 457.024 862.922, 461.496 853.978, 465.968 845.034, 470.440 838.388, 473.763 829.444, 478.235 820.499, 482.708 814.615, 485.650 805.671, 490.122 796.726, 494.594 787.782, 499.066 778.838, 503.538 772.893, 506.511 " />
            <path fill="none" stroke-width="3.0" stroke-linecap="butt" stroke-opacity="1.0" stroke="rgb(0, 0, 0)" stroke-linejoin="round" d=" M 703.386, 471.758 694.813, 476.905 686.240, 482.053 677.666, 487.200 669.093, 492.348 660.520, 497.496 651.946, 502.643 643.373, 507.791 634.800, 512.938 626.226, 518.086 617.653, 523.233 609.080, 528.381 600.506, 533.529 591.933, 538.676 583.360, 543.824 574.786, 548.971 572.136, 550.563 579.003, 543.293 585.870, 536.024 592.737, 528.755 599.604, 521.485 606.471, 514.216 613.338, 506.946 620.205, 499.677 627.072, 492.407 633.939, 485.138 640.806, 477.869 647.673, 470.599 654.337, 463.545 " />
            <path fill="none" stroke-width="3.0" stroke-linecap="butt" stroke-opacity="1.0" stroke="rgb(0, 0, 0)" stroke-linejoin="round" d=" M 953.477, 182.216 947.555, 190.274 941.634, 198.333 935.713, 206.391 929.791, 214.450 923.870, 222.508 917.949, 230.566 912.027, 238.625 906.106, 246.683 900.185, 254.742 894.263, 262.800 888.342, 270.859 882.421, 278.917 879.862, 282.399 " />
            <path fill="none" stroke-width="3.0" stroke-linecap="butt" stroke-opacity="1.0" stroke="rgb(0, 0, 0)" stroke-linejoin="round" d=" M 879.862, 282.399 879.862, 292.399 879.862, 302.399 879.862, 306.172 879.862, 316.172 879.862, 326.172 879.862, 333.324 870.918, 337.796 861.974, 342.268 853.029, 346.740 844.085, 351.212 843.076, 351.717 " />
            <path fill="none" stroke-width="3.0" stroke-linecap="butt" stroke-opacity="1.0" stroke="rgb(0, 0, 0)" stroke-linejoin="round" d=" M 871.867, 366.112 873.260, 360.397 875.629, 350.682 877.998, 340.967 879.862, 333.324 " />
            <path fill="none" stroke-width="3.0" stroke-linecap="butt" stroke-opacity="1.0" stroke="rgb(0, 0, 0)" stroke-linejoin="round" d=" M 684.105, 462.117 693.049, 457.645 701.994, 453.173 710.938, 448.701 719.882, 444.228 725.827, 441.256 734.052, 437.144 742.996, 432.671 751.941, 428.199 760.885, 423.727 769.480, 419.429 778.425, 414.957 783.079, 412.630 " />
            <path fill="none" stroke-width="3.0" stroke-linecap="butt" stroke-opacity="1.0" stroke="rgb(0, 0, 0)" stroke-linejoin="round" d=" M 783.079, 321.718 776.338, 329.104 769.596, 336.490 762.855, 343.876 756.113, 351.262 754.201, 353.358 744.212, 353.837 734.224, 354.316 724.235, 354.795 714.247, 355.274 704.258, 355.753 694.270, 356.232 684.281, 356.711 674.292, 357.190 664.397, 357.665 654.409, 358.144 644.420, 358.623 634.432, 359.102 624.443, 359.581 614.455, 360.060 604.466, 360.539 594.478, 361.018 584.489, 361.498 574.501, 361.977 564.512, 362.456 554.388, 362.941 545.444, 367.413 536.499, 371.885 527.555, 376.358 518.611, 380.830 509.667, 385.302 500.722, 389.774 491.778, 394.246 482.834, 398.718 473.889, 403.190 464.945, 407.663 456.660, 411.805 " />
            <path fill="none" stroke-width="3.0" stroke-linecap="butt" stroke-opacity="1.0" stroke="rgb(0, 0, 0)" stroke-linejoin="round" d=" M 583.266, 331.301 576.525, 338.687 569.784, 346.073 563.042, 353.459 556.301, 360.846 554.388, 362.941 558.768, 371.931 563.148, 380.921 567.528, 389.911 571.908, 398.900 576.288, 407.890 580.668, 416.880 583.266, 422.213 " />
            <path fill="none" stroke-width="3.0" stroke-linecap="butt" stroke-opacity="1.0" stroke="rgb(0, 0, 0)" stroke-linejoin="round" d=" M 612.803, 635.589 602.815, 635.110 592.826, 634.631 582.838, 634.152 572.849, 633.673 562.861, 633.194 552.872, 632.714 542.883, 632.235 532.895, 631.756 522.906, 631.277 512.918, 630.798 502.929, 630.319 492.941, 629.840 484.292, 629.425 480.103, 638.506 475.914, 647.586 471.725, 656.666 467.536, 665.746 463.347, 674.827 459.158, 683.907 456.660, 689.320 463.312, 696.787 469.964, 704.254 476.616, 711.721 483.268, 719.187 484.293, 720.337 493.237, 724.809 502.181, 729.281 511.125, 733.754 520.070, 738.226 529.014, 742.698 537.958, 747.170 546.902, 751.642 555.847, 756.114 564.791, 760.586 573.735, 765.059 583.266, 769.824 593.255, 770.303 603.243, 770.782 613.232, 771.261 623.220, 771.740 633.209, 772.219 643.198, 772.699 653.186, 773.178 663.175, 773.657 673.163, 774.136 679.208, 774.426 " />
            <path fill="none" stroke-width="3.0" stroke-linecap="butt" stroke-opacity="1.0" stroke="rgb(0, 0, 0)" stroke-linejoin="round" d=" M 642.772, 698.247 632.783, 697.768 622.795, 697.288 612.806, 696.809 602.818, 696.330 592.829, 695.851 582.841, 695.372 572.852, 694.893 562.864, 694.414 552.875, 693.935 542.887, 693.456 532.898, 692.977 522.910, 692.498 512.921, 692.019 502.933, 691.540 492.944, 691.061 482.956, 690.582 472.967, 690.103 462.979, 689.623 456.660, 689.320 " />
            <path fill="none" stroke-width="3.0" stroke-linecap="butt" stroke-opacity="1.0" stroke="rgb(0, 0, 0)" stroke-linejoin="round" d=" M 657.307, 728.635 647.318, 728.156 637.329, 727.677 627.341, 727.198 617.352, 726.719 607.364, 726.240 597.375, 725.761 587.387, 725.282 577.398, 724.803 567.410, 724.324 557.421, 723.845 547.433, 723.365 537.444, 722.886 527.456, 722.407 517.467, 721.928 507.479, 721.449 497.490, 720.970 487.502, 720.491 484.293, 720.337 " />
            <path fill="none" stroke-width="3.0" stroke-linecap="butt" stroke-opacity="1.0" stroke="rgb(0, 0, 0)" stroke-linejoin="round" d=" M 690.454, 326.161 684.576, 318.070 683.828, 317.040 " />
            <path fill="none" stroke-width="3.0" stroke-linecap="butt" stroke-opacity="1.0" stroke="rgb(0, 0, 0)" stroke-linejoin="round" d=" M 755.972, 644.797 752.801, 638.166 748.486, 629.145 744.171, 620.124 739.868, 611.127 735.553, 602.106 733.136, 597.052 742.080, 592.579 751.025, 588.107 759.969, 583.635 768.913, 579.163 777.857, 574.691 786.802, 570.219 795.746, 565.747 804.690, 561.274 813.635, 556.802 822.579, 552.330 831.523, 547.858 840.467, 543.386 849.412, 538.914 858.356, 534.442 867.300, 529.970 876.244, 525.497 879.862, 523.689 879.862, 523.689 " />
            <path fill="none" stroke-width="3.0" stroke-linecap="butt" stroke-opacity="1.0" stroke="rgb(0, 0, 0)" stroke-linejoin="round" d=" M 792.152, 326.254 801.096, 321.782 810.040, 317.310 818.984, 312.838 827.929, 308.366 836.873, 303.894 845.817, 299.422 854.762, 294.950 863.706, 290.477 872.650, 286.005 879.862, 282.399 " />
            <path fill="none" stroke-width="3.0" stroke-linecap="butt" stroke-opacity="1.0" stroke="rgb(0, 0, 0)" stroke-linejoin="round" d=" M 879.862, 306.172 870.918, 310.644 861.974, 315.117 853.029, 319.589 844.085, 324.061 835.141, 328.533 826.196, 333.005 817.252, 337.477 815.925, 338.141 " />
        </g>
    </g>
</svg>
