<?xml version='1.0' encoding='ascii'?>
<svg xmlns="http://www.w3.org/2000/svg" version="1.1" width="1920" height="1080">
    <g id="ViewLayer_LineSet" xmlns:inkscape="http://www.inkscape.org/namespaces/inkscape" inkscape:groupmode="lineset" inkscape:label="ViewLayer_LineSet">
        <g xmlns:inkscape="http://www.inkscape.org/namespaces/inkscape" inkscape:groupmode="layer" id="strokes" inkscape:label="strokes">
            <path fill="none" stroke-width="3.0" stroke-linecap="butt" stroke-opacity="1.0" stroke="rgb(0, 0, 0)" stroke-linejoin="round" d=" M 572.136, 544.190 578.515, 551.890 584.895, 559.591 591.274, 567.292 597.654, 574.993 604.033, 582.693 610.413, 590.394 616.792, 598.095 623.172, 605.796 629.551, 613.496 635.931, 621.197 642.310, 628.898 648.690, 636.599 655.070, 644.300 661.449, 652.000 667.829, 659.701 674.208, 667.402 680.588, 675.103 683.828, 679.014 691.387, 685.560 698.946, 692.107 706.506, 698.654 714.065, 705.200 721.624, 711.747 724.875, 714.562 732.435, 721.109 739.994, 727.655 740.651, 728.224 748.210, 734.770 755.179, 740.806 762.739, 747.353 770.298, 753.899 777.857, 760.446 785.417, 766.992 792.976, 773.539 800.535, 780.085 808.094, 786.632 815.654, 793.178 823.849, 800.276 831.409, 806.823 838.378, 812.858 845.938, 819.405 853.497, 825.951 854.153, 826.520 861.713, 833.067 869.272, 839.613 876.831, 846.160 884.391, 852.706 891.950, 859.253 899.509, 865.799 907.068, 872.346 914.628, 878.892 922.187, 885.439 929.746, 891.985 937.306, 898.532 944.865, 905.078 952.424, 911.625 953.477, 912.536 961.036, 905.990 968.595, 899.443 976.154, 892.897 983.714, 886.350 991.273, 879.804 998.832, 873.257 1006.392, 866.711 1013.951, 860.164 1021.510, 853.618 1029.069, 847.071 1036.629, 840.525 1044.188, 833.978 1051.747, 827.432 1059.307, 820.885 1066.866, 814.338 1074.425, 807.792 1081.984, 801.245 1089.544, 794.699 1097.103, 788.152 1104.662, 781.606 1112.222, 775.059 1119.781, 768.513 1127.340, 761.966 1134.900, 755.420 1142.459, 748.873 1150.018, 742.327 1157.577, 735.780 1165.137, 729.233 1172.696, 722.687 1180.255, 716.140 1187.815, 709.594 1195.374, 703.047 1202.933, 696.501 1210.492, 689.954 1218.052, 683.408 1223.125, 679.014 1229.505, 671.313 1235.884, 663.612 1242.264, 655.912 1248.643, 648.211 1255.023, 640.510 1261.402, 632.809 1267.782, 625.109 1274.161, 617.408 1280.541, 609.707 1286.920, 602.006 1293.300, 594.306 1299.679, 586.605 1306.059, 578.904 1312.438, 571.203 1318.818, 563.503 1325.198, 555.802 1331.577, 548.101 1334.817, 544.190 1328.438, 536.489 1322.058, 528.788 1315.679, 521.087 1309.299, 513.387 1302.920, 505.686 1296.540, 497.985 1290.161, 490.284 1283.781, 482.584 1277.402, 474.883 1271.022, 467.182 1264.643, 459.481 1258.263, 451.781 1251.884, 444.080 1245.504, 436.379 1239.125, 428.678 1232.745, 420.977 1226.365, 413.277 1223.125, 409.365 1215.566, 402.819 1208.007, 396.272 1200.447, 389.726 1192.888, 383.179 1185.329, 376.633 1177.769, 370.086 1170.210, 363.540 1162.651, 356.993 1155.092, 350.447 1147.532, 343.900 1139.973, 337.353 1132.414, 330.807 1124.854, 324.260 1117.295, 317.714 1109.736, 311.167 1102.177, 304.621 1094.617, 298.074 1087.058, 291.528 1079.499, 284.981 1071.939, 278.435 1064.380, 271.888 1056.821, 265.342 1049.261, 258.795 1041.702, 252.248 1034.143, 245.702 1026.584, 239.155 1019.024, 232.609 1011.465, 226.062 1003.906, 219.516 996.346, 212.969 988.787, 206.423 981.228, 199.876 973.669, 193.330 966.109, 186.783 958.550, 180.237 953.477, 175.843 945.917, 182.389 938.358, 188.936 930.799, 195.482 923.239, 202.029 915.680, 208.576 908.121, 215.122 900.562, 221.669 893.002, 228.215 885.443, 234.762 877.884, 241.308 870.324, 247.855 862.765, 254.401 855.206, 260.948 854.153, 261.859 " />
            <path fill="none" stroke-width="3.0" stroke-linecap="butt" stroke-opacity="1.0" stroke="rgb(0, 0, 0)" stroke-linejoin="round" d=" M 953.477, 175.843 953.477, 185.843 953.477, 195.843 953.477, 205.843 953.477, 213.939 953.477, 223.939 953.477, 233.939 953.477, 243.939 953.477, 253.939 953.477, 263.939 953.477, 273.939 953.477, 283.939 953.477, 293.939 953.477, 303.939 953.477, 313.939 953.477, 323.939 953.477, 333.939 953.477, 343.939 953.477, 353.939 953.477, 363.939 953.477, 373.939 953.477, 383.939 953.477, 393.939 953.477, 403.939 953.477, 413.939 953.477, 423.939 953.477, 433.939 953.477, 445.491 " />
            <path fill="none" stroke-width="3.0" stroke-linecap="butt" stroke-opacity="1.0" stroke="rgb(0, 0, 0)" stroke-linejoin="round" d=" M 953.477, 445.491 961.036, 452.038 968.595, 458.584 976.154, 465.131 983.714, 471.677 991.273, 478.224 998.832, 484.771 1006.392, 491.317 1013.951, 497.864 1021.510, 504.410 1029.069, 510.957 1036.629, 517.503 1044.188, 524.050 1051.747, 530.596 1059.307, 537.143 1066.866, 543.689 1074.425, 550.236 1081.984, 556.783 1089.544, 563.329 1097.103, 569.876 1104.662, 576.422 1112.222, 582.969 1119.781, 589.515 1127.340, 596.062 1134.900, 602.608 1142.459, 609.155 1150.018, 615.701 1157.577, 622.248 1165.137, 628.794 1172.696, 635.341 1180.255, 641.888 1187.814, 648.434 1195.374, 654.981 1202.933, 661.527 1210.492, 668.074 1218.052, 674.620 1223.125, 679.014 1213.333, 681.042 1203.541, 683.070 1193.749, 685.098 1183.956, 687.126 1174.164, 689.154 1164.372, 691.182 1154.580, 693.210 1144.788, 695.238 1134.995, 697.266 1125.203, 699.294 1115.411, 701.322 1105.619, 703.350 1095.827, 705.378 1086.034, 707.406 1076.242, 709.434 1066.450, 711.462 1056.658, 713.490 1046.866, 715.519 1037.073, 717.547 1027.281, 719.575 1017.489, 721.603 1007.697, 723.631 997.905, 725.659 988.112, 727.687 978.320, 729.715 968.528, 731.743 958.736, 733.771 953.477, 734.860 " />
            <path fill="none" stroke-width="3.0" stroke-linecap="butt" stroke-opacity="1.0" stroke="rgb(0, 0, 0)" stroke-linejoin="round" d=" M 1334.817, 544.190 1327.258, 537.643 1319.699, 531.097 1312.139, 524.550 1304.580, 518.004 1297.021, 511.457 1289.462, 504.910 1281.902, 498.364 1274.343, 491.817 1266.784, 485.271 1259.224, 478.724 1251.665, 472.178 1244.106, 465.631 1236.547, 459.085 1228.987, 452.538 1221.428, 445.992 1213.869, 439.445 1206.309, 432.899 1198.750, 426.352 1191.191, 419.805 1183.631, 413.259 1176.072, 406.712 1168.513, 400.166 1160.954, 393.619 1153.394, 387.073 1145.835, 380.526 1138.276, 373.980 1130.716, 367.433 1123.157, 360.887 1115.598, 354.340 1108.039, 347.794 1100.479, 341.247 1092.920, 334.701 1085.361, 328.154 1077.801, 321.607 1070.242, 315.061 1062.683, 308.514 1055.124, 301.968 1047.564, 295.421 1040.005, 288.875 1032.446, 282.328 1024.886, 275.782 1017.327, 269.235 1009.768, 262.689 1002.209, 256.142 994.649, 249.596 987.090, 243.049 979.531, 236.502 971.971, 229.956 964.412, 223.409 953.477, 213.939 948.983, 222.872 944.489, 231.806 939.995, 240.739 935.502, 249.673 931.008, 258.606 926.514, 267.540 922.021, 276.473 917.527, 285.407 913.033, 294.340 908.540, 303.273 904.046, 312.207 899.552, 321.140 895.058, 330.074 890.565, 339.007 886.071, 347.941 881.577, 356.874 879.862, 360.284 " />
            <path fill="none" stroke-width="3.0" stroke-linecap="butt" stroke-opacity="1.0" stroke="rgb(0, 0, 0)" stroke-linejoin="round" d=" M 953.477, 445.491 953.477, 455.491 953.477, 465.491 953.477, 475.491 953.477, 485.491 953.477, 495.491 953.477, 505.491 953.477, 515.491 953.477, 525.491 953.477, 535.491 953.477, 545.491 953.477, 555.491 953.477, 565.491 953.477, 575.491 953.477, 585.491 953.477, 595.491 953.477, 605.491 953.477, 615.491 953.477, 625.491 953.477, 635.491 953.477, 645.491 953.477, 655.491 953.477, 665.491 953.477, 675.491 953.477, 685.491 953.477, 695.491 953.477, 705.491 953.477, 715.491 953.477, 725.491 953.477, 734.860 " />
            <path fill="none" stroke-width="3.0" stroke-linecap="butt" stroke-opacity="1.0" stroke="rgb(0, 0, 0)" stroke-linejoin="round" d=" M 685.590, 528.529 691.970, 536.229 698.349, 543.930 704.729, 551.631 711.108, 559.332 717.602, 567.171 725.162, 560.624 726.055, 559.851 733.615, 553.304 741.174, 546.758 744.139, 544.190 745.287, 543.196 751.115, 538.148 758.674, 531.602 766.233, 525.055 767.912, 523.602 775.471, 517.055 783.031, 510.509 790.590, 503.962 791.824, 502.893 799.384, 496.346 806.943, 489.800 814.502, 483.253 822.061, 476.707 829.621, 470.160 837.180, 463.614 844.739, 457.067 852.299, 450.521 859.858, 443.974 867.417, 437.428 874.977, 430.881 879.862, 426.650 879.862, 416.650 879.862, 406.650 879.862, 401.460 879.862, 391.460 879.862, 381.460 879.862, 371.460 879.862, 368.765 879.862, 360.284 " />
            <path fill="none" stroke-width="3.0" stroke-linecap="butt" stroke-opacity="1.0" stroke="rgb(0, 0, 0)" stroke-linejoin="round" d=" M 733.136, 528.529 726.055, 528.529 716.055, 528.529 706.055, 528.529 696.055, 528.529 686.055, 528.529 685.590, 528.529 693.149, 521.982 700.709, 515.436 708.268, 508.889 715.827, 502.342 723.387, 495.796 730.946, 489.249 738.505, 482.703 746.064, 476.156 753.624, 469.610 761.183, 463.063 768.742, 456.517 776.302, 449.970 783.861, 443.424 791.420, 436.877 798.979, 430.331 806.539, 423.784 814.098, 417.237 821.657, 410.691 829.217, 404.144 836.776, 397.598 844.335, 391.051 851.895, 384.505 859.454, 377.958 867.013, 371.412 874.572, 364.865 879.862, 360.284 " />
            <path fill="none" stroke-width="3.0" stroke-linecap="butt" stroke-opacity="1.0" stroke="rgb(0, 0, 0)" stroke-linejoin="round" d=" M 683.828, 679.014 693.620, 681.042 703.412, 683.070 706.245, 683.657 716.037, 685.685 721.021, 686.717 730.814, 688.745 732.646, 689.125 742.438, 691.153 750.079, 692.735 759.871, 694.763 761.020, 695.001 770.812, 697.029 780.604, 699.057 783.512, 699.659 793.304, 701.687 803.096, 703.715 812.888, 705.743 822.680, 707.771 832.473, 709.799 842.265, 711.827 852.057, 713.855 861.849, 715.883 871.641, 717.911 879.862, 719.614 889.654, 721.642 899.446, 723.670 909.239, 725.698 919.031, 727.726 920.812, 728.095 930.605, 730.123 940.397, 732.151 950.189, 734.179 953.477, 734.860 953.477, 744.860 953.477, 754.860 953.477, 764.860 953.477, 774.860 953.477, 784.860 953.477, 794.860 953.477, 804.860 953.477, 814.860 953.477, 824.860 953.477, 834.860 953.477, 844.860 953.477, 854.860 953.477, 864.860 953.477, 874.860 953.477, 884.860 953.477, 894.860 953.477, 904.860 953.477, 912.536 " />
            <path fill="none" stroke-width="3.0" stroke-linecap="butt" stroke-opacity="1.0" stroke="rgb(0, 0, 0)" stroke-linejoin="round" d=" M 879.862, 426.650 889.550, 429.130 899.238, 431.609 908.925, 434.089 916.562, 436.043 926.249, 438.523 935.937, 441.002 945.625, 443.482 953.477, 445.491 945.917, 452.038 938.358, 458.584 930.799, 465.131 923.239, 471.677 915.680, 478.224 908.121, 484.771 900.562, 491.317 893.002, 497.864 885.443, 504.410 877.884, 510.957 870.324, 517.503 862.765, 524.050 855.206, 530.596 847.646, 537.143 840.087, 543.689 832.528, 550.236 824.969, 556.782 817.409, 563.329 815.597, 564.898 808.038, 571.445 800.479, 577.991 792.919, 584.538 791.824, 585.486 784.265, 592.033 776.706, 598.579 769.146, 605.126 761.587, 611.672 754.028, 618.219 746.469, 624.766 738.909, 631.312 731.350, 637.859 723.791, 644.405 716.231, 650.952 710.364, 656.033 703.031, 662.383 697.977, 666.760 693.623, 670.531 686.064, 677.077 683.828, 679.014 686.719, 669.441 688.118, 664.806 689.694, 659.587 690.768, 656.033 691.888, 652.322 694.779, 642.749 697.670, 633.176 700.561, 623.603 703.452, 614.030 706.343, 604.457 709.234, 594.884 712.125, 585.311 715.016, 575.738 717.602, 567.171 " />
            <path fill="none" stroke-width="3.0" stroke-linecap="butt" stroke-opacity="1.0" stroke="rgb(0, 0, 0)" stroke-linejoin="round" d=" M 772.893, 415.401 766.783, 423.318 760.674, 431.235 754.564, 439.152 748.455, 447.068 742.345, 454.985 736.236, 462.902 730.126, 470.818 724.017, 478.735 717.907, 486.652 711.798, 494.568 705.688, 502.485 699.579, 510.402 693.469, 518.319 687.360, 526.235 685.590, 528.529 675.684, 529.896 665.778, 531.263 655.872, 532.631 645.966, 533.998 636.060, 535.366 626.154, 536.733 616.248, 538.101 606.342, 539.468 596.436, 540.835 586.529, 542.203 576.623, 543.570 572.136, 544.190 " />
            <path fill="none" stroke-width="3.0" stroke-linecap="butt" stroke-opacity="1.0" stroke="rgb(0, 0, 0)" stroke-linejoin="round" d=" M 871.867, 329.688 866.878, 321.021 865.151, 318.019 860.162, 309.352 855.174, 300.685 851.706, 294.659 849.335, 290.540 844.346, 281.873 842.988, 279.513 851.588, 274.410 860.187, 269.306 861.709, 268.403 863.550, 267.310 872.150, 262.206 879.862, 257.629 887.352, 253.183 895.952, 248.080 904.551, 242.976 913.151, 237.872 921.750, 232.768 930.350, 227.665 938.949, 222.561 947.549, 217.457 953.477, 213.939 " />
            <path fill="none" stroke-width="3.0" stroke-linecap="butt" stroke-opacity="1.0" stroke="rgb(0, 0, 0)" stroke-linejoin="round" d=" M 842.988, 279.513 838.378, 275.521 830.819, 268.974 823.260, 262.428 815.700, 255.881 808.141, 249.335 800.582, 242.788 793.022, 236.242 785.463, 229.695 777.904, 223.149 770.345, 216.602 762.785, 210.055 755.226, 203.509 754.201, 202.621 " />
            <path fill="none" stroke-width="3.0" stroke-linecap="butt" stroke-opacity="1.0" stroke="rgb(0, 0, 0)" stroke-linejoin="round" d=" M 754.201, 202.621 759.189, 211.288 764.177, 219.955 769.166, 228.622 774.154, 237.289 779.143, 245.956 783.079, 252.795 " />
            <path fill="none" stroke-width="3.0" stroke-linecap="butt" stroke-opacity="1.0" stroke="rgb(0, 0, 0)" stroke-linejoin="round" d=" M 484.293, 355.108 491.852, 348.561 499.411, 342.015 506.970, 335.468 514.530, 328.922 522.089, 322.375 529.648, 315.828 537.208, 309.282 544.767, 302.735 551.331, 297.051 552.686, 295.877 560.245, 289.331 567.805, 282.784 575.364, 276.238 582.923, 269.691 583.266, 269.394 593.232, 268.566 603.198, 267.738 613.163, 266.910 623.129, 266.082 633.095, 265.255 643.060, 264.427 653.026, 263.599 662.992, 262.771 672.957, 261.943 682.923, 261.115 692.889, 260.287 702.854, 259.459 712.820, 258.632 722.786, 257.804 732.751, 256.976 742.717, 256.148 752.683, 255.320 762.648, 254.492 772.614, 253.664 783.079, 252.795 790.638, 259.342 798.198, 265.888 805.757, 272.435 813.316, 278.981 820.875, 285.528 823.849, 288.103 831.409, 294.650 837.999, 300.357 841.563, 303.443 849.122, 309.990 856.681, 316.537 861.772, 320.945 869.331, 327.491 871.867, 329.688 864.307, 336.234 856.748, 342.781 849.189, 349.327 841.630, 355.874 834.070, 362.420 826.511, 368.967 818.952, 375.513 811.392, 382.060 803.833, 388.606 796.274, 395.153 788.715, 401.699 781.155, 408.246 772.893, 415.401 765.334, 408.855 762.798, 406.659 757.918, 402.433 750.358, 395.886 750.079, 395.644 747.839, 393.704 741.299, 388.040 739.025, 386.071 732.721, 380.611 730.925, 379.056 724.875, 373.817 717.316, 367.271 709.757, 360.724 702.198, 354.178 694.638, 347.631 687.079, 341.084 684.105, 338.509 674.139, 339.337 664.174, 340.165 654.208, 340.993 644.242, 341.820 634.277, 342.648 624.311, 343.476 614.345, 344.304 604.380, 345.132 594.414, 345.960 584.448, 346.788 574.483, 347.616 564.517, 348.443 554.551, 349.271 544.586, 350.099 534.620, 350.927 524.654, 351.755 514.689, 352.583 504.723, 353.411 494.757, 354.238 484.293, 355.108 479.547, 346.305 474.801, 337.503 470.056, 328.701 465.310, 319.899 460.565, 311.096 456.660, 303.854 464.220, 297.308 471.779, 290.761 479.338, 284.215 486.897, 277.668 494.457, 271.122 502.016, 264.575 509.575, 258.029 517.135, 251.482 524.694, 244.935 532.253, 238.389 539.812, 231.842 547.372, 225.296 554.388, 219.220 564.354, 218.392 574.319, 217.564 584.285, 216.736 594.251, 215.908 604.216, 215.080 614.182, 214.252 624.148, 213.425 634.113, 212.597 644.079, 211.769 654.045, 210.941 664.010, 210.113 673.976, 209.285 683.942, 208.457 693.907, 207.630 703.873, 206.802 713.839, 205.974 723.804, 205.146 733.770, 204.318 743.736, 203.490 754.201, 202.621 764.169, 201.822 774.137, 201.024 783.079, 200.307 790.638, 206.854 798.198, 213.400 805.757, 219.947 813.316, 226.493 820.875, 233.040 828.435, 239.586 835.994, 246.133 843.553, 252.679 851.113, 259.226 854.153, 261.859 861.709, 268.403 " />
            <path fill="none" stroke-width="3.0" stroke-linecap="butt" stroke-opacity="1.0" stroke="rgb(0, 0, 0)" stroke-linejoin="round" d=" M 724.875, 373.817 717.316, 380.364 709.757, 386.910 702.198, 393.457 694.638, 400.003 687.079, 406.550 683.828, 409.365 677.448, 417.066 671.069, 424.767 664.689, 432.468 658.310, 440.168 651.930, 447.869 645.551, 455.570 639.171, 463.271 632.792, 470.971 626.412, 478.672 620.033, 486.373 613.653, 494.074 607.274, 501.774 600.894, 509.475 594.515, 517.176 588.135, 524.877 581.756, 532.578 575.376, 540.278 572.136, 544.190 579.067, 536.981 585.998, 529.773 592.930, 522.565 599.861, 515.357 606.792, 508.149 613.723, 500.941 620.655, 493.732 627.586, 486.524 634.517, 479.316 641.448, 472.108 648.380, 464.900 655.311, 457.692 662.242, 450.483 669.173, 443.275 676.105, 436.067 683.036, 428.859 688.118, 423.573 693.623, 417.848 700.555, 410.640 706.245, 404.723 713.176, 397.515 716.226, 394.343 723.157, 387.134 730.089, 379.926 730.925, 379.056 " />
            <path fill="none" stroke-width="3.0" stroke-linecap="butt" stroke-opacity="1.0" stroke="rgb(0, 0, 0)" stroke-linejoin="round" d=" M 953.477, 175.843 946.582, 183.086 939.688, 190.330 932.793, 197.573 925.899, 204.816 919.004, 212.060 912.110, 219.303 905.216, 226.547 898.321, 233.790 891.427, 241.033 884.532, 248.277 879.862, 253.183 " />
            <path fill="none" stroke-width="3.0" stroke-linecap="butt" stroke-opacity="1.0" stroke="rgb(0, 0, 0)" stroke-linejoin="round" d=" M 879.862, 253.183 879.862, 257.629 " />
            <path fill="none" stroke-width="3.0" stroke-linecap="butt" stroke-opacity="1.0" stroke="rgb(0, 0, 0)" stroke-linejoin="round" d=" M 879.862, 360.284 877.334, 350.609 874.806, 340.934 872.277, 331.259 871.867, 329.688 " />
            <path fill="none" stroke-width="3.0" stroke-linecap="butt" stroke-opacity="1.0" stroke="rgb(0, 0, 0)" stroke-linejoin="round" d=" M 684.105, 338.509 691.664, 331.963 699.224, 325.416 706.783, 318.869 714.342, 312.323 721.902, 305.776 729.461, 299.230 737.020, 292.683 744.579, 286.137 752.139, 279.590 759.698, 273.044 767.257, 266.497 774.817, 259.951 783.079, 252.795 " />
            <path fill="none" stroke-width="3.0" stroke-linecap="butt" stroke-opacity="1.0" stroke="rgb(0, 0, 0)" stroke-linejoin="round" d=" M 554.388, 219.220 559.376, 227.887 564.365, 236.554 569.353, 245.220 574.341, 253.887 579.330, 262.554 583.266, 269.394 " />
            <path fill="none" stroke-width="3.0" stroke-linecap="butt" stroke-opacity="1.0" stroke="rgb(0, 0, 0)" stroke-linejoin="round" d=" M 456.660, 784.525 464.220, 791.072 471.779, 797.618 479.338, 804.165 486.897, 810.711 494.457, 817.258 502.016, 823.804 509.575, 830.351 517.135, 836.897 524.694, 843.444 532.253, 849.990 539.812, 856.537 547.372, 863.083 554.388, 869.160 564.354, 869.988 574.319, 870.815 584.285, 871.643 594.251, 872.471 604.216, 873.299 614.182, 874.127 624.148, 874.955 634.113, 875.783 644.079, 876.610 654.045, 877.438 664.010, 878.266 673.976, 879.094 683.942, 879.922 693.907, 880.750 703.873, 881.578 713.839, 882.405 723.804, 883.233 733.770, 884.061 743.736, 884.889 754.201, 885.758 764.169, 886.557 774.137, 887.356 783.079, 888.072 790.638, 881.526 798.198, 874.979 805.757, 868.433 813.316, 861.886 820.875, 855.340 828.435, 848.793 835.994, 842.246 843.553, 835.700 851.113, 829.153 854.153, 826.520 " />
            <path fill="none" stroke-width="3.0" stroke-linecap="butt" stroke-opacity="1.0" stroke="rgb(0, 0, 0)" stroke-linejoin="round" d=" M 684.105, 749.870 679.360, 758.673 674.614, 767.475 669.868, 776.277 665.123, 785.079 660.377, 793.882 657.020, 800.108 " />
            <path fill="none" stroke-width="3.0" stroke-linecap="butt" stroke-opacity="1.0" stroke="rgb(0, 0, 0)" stroke-linejoin="round" d=" M 684.105, 802.358 674.139, 801.530 664.174, 800.703 657.591, 800.156 657.020, 800.108 647.055, 799.280 637.089, 798.453 627.123, 797.625 617.158, 796.797 607.192, 795.969 597.226, 795.141 587.261, 794.313 577.295, 793.485 567.329, 792.658 557.364, 791.830 551.331, 791.328 541.365, 790.501 531.399, 789.673 521.434, 788.845 511.468, 788.017 501.502, 787.189 491.537, 786.361 484.293, 785.760 474.302, 785.313 464.312, 784.867 456.660, 784.525 461.406, 775.723 466.151, 766.920 470.897, 758.118 475.642, 749.316 480.388, 740.514 484.292, 733.272 494.258, 734.099 504.224, 734.927 514.189, 735.755 524.155, 736.583 534.121, 737.411 544.086, 738.239 554.052, 739.067 564.018, 739.894 573.984, 740.722 583.949, 741.550 593.915, 742.378 603.880, 743.206 613.846, 744.034 623.812, 744.862 633.778, 745.689 643.743, 746.517 653.709, 747.345 663.675, 748.173 673.640, 749.001 684.105, 749.870 691.664, 743.324 699.224, 736.777 706.783, 730.231 714.342, 723.684 721.902, 717.138 724.875, 714.562 " />
            <path fill="none" stroke-width="3.0" stroke-linecap="butt" stroke-opacity="1.0" stroke="rgb(0, 0, 0)" stroke-linejoin="round" d=" M 484.293, 785.760 485.648, 786.933 493.207, 793.480 500.766, 800.026 508.325, 806.573 515.885, 813.119 523.444, 819.666 531.003, 826.212 538.563, 832.759 546.122, 839.305 553.681, 845.852 561.240, 852.398 568.800, 858.945 576.359, 865.492 583.266, 871.473 593.232, 872.301 603.198, 873.129 613.163, 873.957 623.129, 874.785 633.095, 875.613 643.060, 876.441 653.026, 877.269 662.992, 878.096 672.957, 878.924 682.923, 879.752 692.889, 880.580 702.854, 881.408 712.820, 882.236 722.786, 883.064 732.751, 883.891 742.717, 884.719 752.683, 885.547 762.648, 886.375 772.614, 887.203 783.079, 888.072 " />
            <path fill="none" stroke-width="3.0" stroke-linecap="butt" stroke-opacity="1.0" stroke="rgb(0, 0, 0)" stroke-linejoin="round" d=" M 783.079, 888.072 775.520, 881.526 767.961, 874.979 760.401, 868.433 752.842, 861.886 745.283, 855.340 737.723, 848.793 730.164, 842.246 722.605, 835.700 715.045, 829.153 707.486, 822.607 699.927, 816.060 692.368, 809.514 684.105, 802.358 691.664, 795.812 699.224, 789.265 706.783, 782.719 714.342, 776.172 721.902, 769.626 729.461, 763.079 737.020, 756.533 744.579, 749.986 752.139, 743.439 755.179, 740.806 " />
            <path fill="none" stroke-width="3.0" stroke-linecap="butt" stroke-opacity="1.0" stroke="rgb(0, 0, 0)" stroke-linejoin="round" d=" M 583.266, 871.473 573.298, 870.675 563.330, 869.876 554.388, 869.160 " />
            <path fill="none" stroke-width="3.0" stroke-linecap="butt" stroke-opacity="1.0" stroke="rgb(0, 0, 0)" stroke-linejoin="round" d=" M 716.226, 394.343 707.154, 398.549 698.082, 402.756 689.010, 406.963 683.828, 409.365 " />
            <path fill="none" stroke-width="3.0" stroke-linecap="butt" stroke-opacity="1.0" stroke="rgb(0, 0, 0)" stroke-linejoin="round" d=" M 657.591, 800.156 665.150, 793.609 672.709, 787.063 680.269, 780.516 687.828, 773.970 695.387, 767.423 702.947, 760.876 710.506, 754.330 718.065, 747.783 725.624, 741.237 733.184, 734.690 740.651, 728.224 " />
            <path fill="none" stroke-width="3.0" stroke-linecap="butt" stroke-opacity="1.0" stroke="rgb(0, 0, 0)" stroke-linejoin="round" d=" M 745.287, 543.196 738.907, 535.495 733.136, 528.529 740.695, 521.982 741.589, 521.208 749.148, 514.662 756.707, 508.115 764.267, 501.569 771.826, 495.022 779.385, 488.476 786.945, 481.929 794.504, 475.383 802.063, 468.836 809.622, 462.290 817.182, 455.743 824.741, 449.196 832.300, 442.650 839.859, 436.103 847.419, 429.557 854.978, 423.010 862.537, 416.464 870.097, 409.917 877.656, 403.371 879.862, 401.460 " />
            <path fill="none" stroke-width="3.0" stroke-linecap="butt" stroke-opacity="1.0" stroke="rgb(0, 0, 0)" stroke-linejoin="round" d=" M 863.550, 267.310 871.110, 260.763 878.669, 254.217 879.862, 253.183 " />
        </g>
    </g>
</svg>
