<?xml version='1.0' encoding='ascii'?>
<svg xmlns="http://www.w3.org/2000/svg" version="1.1" width="1920" height="1080">
    <g id="ViewLayer_LineSet" xmlns:inkscape="http://www.inkscape.org/namespaces/inkscape" inkscape:groupmode="lineset" inkscape:label="ViewLayer_LineSet">
        <g xmlns:inkscape="http://www.inkscape.org/namespaces/inkscape" inkscape:groupmode="layer" id="strokes" inkscape:label="strokes">
            <path fill="none" stroke-width="3.0" stroke-linecap="butt" stroke-opacity="1.0" stroke="rgb(0, 0, 0)" stroke-linejoin="round" d=" M 813.140, 519.721 803.728, 523.100 794.316, 526.479 784.904, 529.857 775.492, 533.236 766.080, 536.615 756.668, 539.993 747.256, 543.372 737.844, 546.751 728.432, 550.129 723.517, 551.893 732.929, 555.272 742.341, 558.651 751.753, 562.029 761.165, 565.408 770.577, 568.787 779.989, 572.165 789.401, 575.544 798.813, 578.923 808.225, 582.301 813.140, 584.066 813.140, 584.066 " />
            <path fill="none" stroke-width="3.0" stroke-linecap="butt" stroke-opacity="1.0" stroke="rgb(0, 0, 0)" stroke-linejoin="round" d=" M 1153.057, 551.893 1153.057, 551.893 1143.104, 550.925 1133.151, 549.956 1123.198, 548.987 1113.245, 548.019 1103.292, 547.050 1093.339, 546.081 1083.386, 545.112 1073.433, 544.144 1068.947, 543.707 " />
            <path fill="none" stroke-width="3.0" stroke-linecap="butt" stroke-opacity="1.0" stroke="rgb(0, 0, 0)" stroke-linejoin="round" d=" M 949.119, 514.552 939.314, 512.583 929.510, 510.615 919.706, 508.647 909.901, 506.678 900.097, 504.710 890.293, 502.741 880.488, 500.773 875.130, 499.697 865.130, 499.697 855.130, 499.697 845.130, 499.697 835.130, 499.697 825.130, 499.697 815.130, 499.697 805.130, 499.697 795.130, 499.697 785.130, 499.697 775.130, 499.697 765.130, 499.697 755.130, 499.697 745.130, 499.697 735.130, 499.697 726.786, 499.697 726.787, 499.697 " />
            <path fill="none" stroke-width="3.0" stroke-linecap="butt" stroke-opacity="1.0" stroke="rgb(0, 0, 0)" stroke-linejoin="round" d=" M 726.786, 499.697 726.787, 499.697 " />
            <path fill="none" stroke-width="3.0" stroke-linecap="butt" stroke-opacity="1.0" stroke="rgb(0, 0, 0)" stroke-linejoin="round" d=" M 1042.114, 533.223 1033.620, 527.946 1025.125, 522.669 1016.631, 517.393 1012.058, 514.552 1002.058, 514.552 992.058, 514.552 982.058, 514.552 972.058, 514.552 962.058, 514.552 952.058, 514.552 949.119, 514.552 949.118, 514.552 " />
            <path fill="none" stroke-width="3.0" stroke-linecap="butt" stroke-opacity="1.0" stroke="rgb(0, 0, 0)" stroke-linejoin="round" d=" M 1153.057, 551.893 1153.056, 551.893 " />
            <path fill="none" stroke-width="3.0" stroke-linecap="butt" stroke-opacity="1.0" stroke="rgb(0, 0, 0)" stroke-linejoin="round" d=" M 813.140, 584.066 803.335, 586.034 793.531, 588.002 783.727, 589.971 773.922, 591.939 764.118, 593.908 759.901, 594.754 750.277, 597.468 740.652, 600.181 731.027, 602.894 726.786, 604.090 726.787, 604.090 " />
            <path fill="none" stroke-width="3.0" stroke-linecap="butt" stroke-opacity="1.0" stroke="rgb(0, 0, 0)" stroke-linejoin="round" d=" M 726.786, 604.090 726.787, 604.089 " />
            <path fill="none" stroke-width="3.0" stroke-linecap="butt" stroke-opacity="1.0" stroke="rgb(0, 0, 0)" stroke-linejoin="round" d=" M 847.829, 551.893 837.829, 551.893 827.829, 551.893 817.829, 551.893 807.829, 551.893 797.829, 551.893 787.829, 551.893 777.829, 551.893 767.829, 551.893 757.829, 551.893 747.829, 551.893 737.829, 551.893 727.829, 551.893 723.517, 551.893 " />
            <path fill="none" stroke-width="3.0" stroke-linecap="butt" stroke-opacity="1.0" stroke="rgb(0, 0, 0)" stroke-linejoin="round" d=" M 1057.142, 561.229 1067.095, 560.260 1068.947, 560.080 1078.900, 559.111 1088.853, 558.143 1098.806, 557.174 1108.759, 556.205 1118.712, 555.236 1128.665, 554.268 1138.618, 553.299 1148.571, 552.330 1153.057, 551.893 1153.057, 551.893 1153.056, 551.893 " />
            <path fill="none" stroke-width="3.0" stroke-linecap="butt" stroke-opacity="1.0" stroke="rgb(0, 0, 0)" stroke-linejoin="round" d=" M 1153.057, 551.893 1153.056, 551.893 1143.056, 551.893 1133.056, 551.893 1123.056, 551.893 1113.056, 551.893 1103.056, 551.893 1093.772, 551.893 1083.772, 551.893 1073.772, 551.893 1063.772, 551.893 1053.772, 551.893 1043.772, 551.893 1033.772, 551.893 1023.772, 551.893 1015.472, 551.893 1015.471, 551.893 1005.471, 551.893 995.471, 551.893 985.471, 551.893 975.471, 551.893 965.471, 551.893 960.000, 551.893 950.000, 551.893 940.000, 551.893 930.000, 551.893 920.000, 551.893 910.000, 551.893 900.000, 551.893 890.000, 551.893 880.000, 551.893 870.000, 551.893 860.000, 551.893 850.000, 551.893 847.829, 551.893 " />
            <path fill="none" stroke-width="3.0" stroke-linecap="butt" stroke-opacity="1.0" stroke="rgb(0, 0, 0)" stroke-linejoin="round" d=" M 926.885, 542.558 936.510, 545.271 946.135, 547.985 955.760, 550.698 960.000, 551.893 950.375, 554.607 940.750, 557.320 931.125, 560.034 926.885, 561.229 " />
            <path fill="none" stroke-width="3.0" stroke-linecap="butt" stroke-opacity="1.0" stroke="rgb(0, 0, 0)" stroke-linejoin="round" d=" M 926.885, 561.229 936.885, 561.229 946.885, 561.229 956.885, 561.229 966.885, 561.229 976.885, 561.229 986.885, 561.229 996.885, 561.229 1006.885, 561.229 1014.291, 561.229 1014.292, 561.229 1024.292, 561.229 1034.292, 561.229 1044.292, 561.229 1054.292, 561.229 1057.142, 561.229 1057.142, 561.229 1057.142, 561.229 1047.338, 563.197 1037.534, 565.166 1027.729, 567.134 1017.925, 569.103 1013.170, 570.057 1013.169, 570.057 1010.645, 570.564 1010.645, 570.564 1000.840, 572.533 991.036, 574.501 981.232, 576.470 971.427, 578.438 961.623, 580.406 951.818, 582.375 942.014, 584.343 932.210, 586.312 922.405, 588.280 912.601, 590.249 902.797, 592.217 892.992, 594.185 890.159, 594.754 880.159, 594.754 870.159, 594.754 860.159, 594.754 854.590, 594.754 844.590, 594.754 834.590, 594.754 824.590, 594.754 814.590, 594.754 804.590, 594.754 794.590, 594.754 784.590, 594.754 774.590, 594.754 764.590, 594.754 759.901, 594.754 750.277, 597.468 740.652, 600.181 731.027, 602.894 726.787, 604.089 726.787, 604.090 726.786, 604.090 736.786, 604.090 746.786, 604.090 756.786, 604.090 766.786, 604.090 776.786, 604.090 786.786, 604.090 796.786, 604.090 806.786, 604.090 816.786, 604.090 826.786, 604.090 836.786, 604.090 846.786, 604.090 856.786, 604.090 866.786, 604.090 875.130, 604.090 884.935, 602.121 887.838, 601.538 897.643, 599.570 905.206, 598.051 905.206, 598.051 915.010, 596.083 924.815, 594.115 934.619, 592.146 935.919, 591.885 935.919, 591.885 945.724, 589.917 955.528, 587.948 965.332, 585.980 975.137, 584.011 984.941, 582.043 994.745, 580.074 1004.550, 578.106 1012.350, 576.540 1012.351, 576.540 1022.156, 574.571 1023.864, 574.228 1023.864, 574.228 1029.434, 573.110 1039.238, 571.142 1042.114, 570.564 1042.114, 570.564 " />
            <path fill="none" stroke-width="3.0" stroke-linecap="butt" stroke-opacity="1.0" stroke="rgb(0, 0, 0)" stroke-linejoin="round" d=" M 926.885, 542.558 916.939, 541.517 906.994, 540.476 897.048, 539.435 887.102, 538.395 877.157, 537.354 867.211, 536.313 857.265, 535.272 847.320, 534.231 837.687, 533.223 " />
            <path fill="none" stroke-width="3.0" stroke-linecap="butt" stroke-opacity="1.0" stroke="rgb(0, 0, 0)" stroke-linejoin="round" d=" M 832.457, 523.600 837.232, 532.386 837.687, 533.223 842.460, 542.010 847.234, 550.797 847.829, 551.893 844.357, 561.271 840.884, 570.649 837.745, 579.125 837.745, 579.126 " />
            <path fill="none" stroke-width="3.0" stroke-linecap="butt" stroke-opacity="1.0" stroke="rgb(0, 0, 0)" stroke-linejoin="round" d=" M 1057.142, 542.558 1047.142, 542.558 1037.142, 542.558 1027.142, 542.558 1017.142, 542.558 1014.289, 542.558 1014.288, 542.558 1004.288, 542.558 994.288, 542.558 984.288, 542.558 974.288, 542.558 964.288, 542.558 954.288, 542.558 944.288, 542.558 934.288, 542.558 926.885, 542.558 " />
            <path fill="none" stroke-width="3.0" stroke-linecap="butt" stroke-opacity="1.0" stroke="rgb(0, 0, 0)" stroke-linejoin="round" d=" M 1042.114, 533.223 1042.114, 533.223 1032.310, 531.254 1029.434, 530.677 1023.864, 529.559 1023.864, 529.559 1014.060, 527.590 1012.348, 527.247 1012.347, 527.246 1002.543, 525.278 992.739, 523.310 982.934, 521.341 973.130, 519.373 963.326, 517.404 953.521, 515.436 949.118, 514.552 939.314, 512.583 929.510, 510.615 919.705, 508.647 909.901, 506.678 900.097, 504.710 890.292, 502.741 880.488, 500.773 875.131, 499.697 875.130, 499.697 865.130, 499.697 855.130, 499.697 845.130, 499.697 835.130, 499.697 825.130, 499.697 815.130, 499.697 805.130, 499.697 795.130, 499.697 785.130, 499.697 775.130, 499.697 765.130, 499.697 755.130, 499.697 745.130, 499.697 735.130, 499.697 726.787, 499.697 726.787, 499.697 726.786, 499.697 736.411, 502.411 746.036, 505.124 755.661, 507.837 759.901, 509.033 769.706, 511.001 779.510, 512.970 789.315, 514.938 799.119, 516.906 808.923, 518.875 813.140, 519.721 822.944, 521.690 832.456, 523.600 832.456, 523.600 832.457, 523.600 832.457, 523.600 842.262, 525.568 852.066, 527.537 861.870, 529.505 871.675, 531.473 881.479, 533.442 891.283, 535.410 901.088, 537.379 910.892, 539.347 920.696, 541.316 926.885, 542.558 926.885, 542.558 " />
            <path fill="none" stroke-width="3.0" stroke-linecap="butt" stroke-opacity="1.0" stroke="rgb(0, 0, 0)" stroke-linejoin="round" d=" M 1012.058, 514.552 1020.552, 519.829 1029.047, 525.105 1037.541, 530.382 1042.114, 533.223 1042.114, 533.223 1042.114, 533.223 1047.727, 536.709 1056.221, 541.986 1057.142, 542.558 " />
            <path fill="none" stroke-width="3.0" stroke-linecap="butt" stroke-opacity="1.0" stroke="rgb(0, 0, 0)" stroke-linejoin="round" d=" M 1057.142, 561.229 1057.142, 561.229 1048.648, 566.506 1047.727, 567.078 1042.114, 570.564 1035.998, 578.476 1029.882, 586.387 1023.766, 594.299 1017.649, 602.210 1011.533, 610.122 1005.417, 618.033 1000.411, 624.508 " />
            <path fill="none" stroke-width="3.0" stroke-linecap="butt" stroke-opacity="1.0" stroke="rgb(0, 0, 0)" stroke-linejoin="round" d=" M 926.885, 561.229 926.885, 561.229 926.860, 561.234 917.055, 563.202 907.251, 565.171 897.447, 567.139 887.642, 569.108 877.838, 571.076 868.033, 573.045 858.229, 575.013 848.425, 576.981 837.745, 579.126 837.745, 579.126 832.456, 580.187 832.456, 580.187 822.652, 582.156 813.140, 584.066 803.335, 586.034 793.531, 588.002 783.727, 589.971 773.922, 591.939 764.118, 593.908 759.902, 594.754 759.901, 594.754 " />
            <path fill="none" stroke-width="3.0" stroke-linecap="butt" stroke-opacity="1.0" stroke="rgb(0, 0, 0)" stroke-linejoin="round" d=" M 759.901, 509.033 759.902, 509.033 769.902, 509.033 779.902, 509.033 789.902, 509.033 799.902, 509.033 809.902, 509.033 819.902, 509.033 829.902, 509.033 839.902, 509.033 849.902, 509.033 859.902, 509.033 869.902, 509.033 879.902, 509.033 890.159, 509.033 899.963, 511.001 909.767, 512.970 917.649, 514.552 927.453, 516.520 937.258, 518.489 947.062, 520.457 956.866, 522.426 966.671, 524.394 976.475, 526.362 986.279, 528.331 996.084, 530.299 1005.888, 532.268 1010.644, 533.223 1010.645, 533.223 1013.172, 533.730 1013.173, 533.730 1022.977, 535.699 1032.781, 537.667 1042.586, 539.636 1052.390, 541.604 1057.142, 542.558 1067.095, 543.527 1068.947, 543.707 1078.900, 544.676 1088.853, 545.645 1098.806, 546.613 1108.759, 547.582 1118.712, 548.551 1128.665, 549.519 1138.618, 550.488 1148.571, 551.457 1153.056, 551.893 " />
            <path fill="none" stroke-width="3.0" stroke-linecap="butt" stroke-opacity="1.0" stroke="rgb(0, 0, 0)" stroke-linejoin="round" d=" M 890.159, 509.033 881.664, 503.756 875.130, 499.697 " />
            <path fill="none" stroke-width="3.0" stroke-linecap="butt" stroke-opacity="1.0" stroke="rgb(0, 0, 0)" stroke-linejoin="round" d=" M 875.130, 604.090 875.131, 604.090 881.364, 600.217 889.859, 594.941 890.159, 594.754 " />
            <path fill="none" stroke-width="3.0" stroke-linecap="butt" stroke-opacity="1.0" stroke="rgb(0, 0, 0)" stroke-linejoin="round" d=" M 1000.411, 624.508 991.488, 619.994 982.565, 615.480 973.641, 610.967 964.718, 606.453 955.795, 601.939 946.871, 597.425 937.948, 592.911 935.919, 591.885 " />
            <path fill="none" stroke-width="3.0" stroke-linecap="butt" stroke-opacity="1.0" stroke="rgb(0, 0, 0)" stroke-linejoin="round" d=" M 887.838, 601.538 897.636, 603.538 907.435, 605.537 917.233, 607.536 927.031, 609.535 936.829, 611.534 946.627, 613.534 956.425, 615.533 966.223, 617.532 976.021, 619.531 985.819, 621.531 995.618, 623.530 1000.411, 624.508 " />
            <path fill="none" stroke-width="3.0" stroke-linecap="butt" stroke-opacity="1.0" stroke="rgb(0, 0, 0)" stroke-linejoin="round" d=" M 905.206, 598.051 914.841, 600.729 924.476, 603.406 934.111, 606.084 943.745, 608.761 953.380, 611.439 963.015, 614.116 972.650, 616.793 982.285, 619.471 991.920, 622.148 1000.411, 624.508 " />
            <path fill="none" stroke-width="3.0" stroke-linecap="butt" stroke-opacity="1.0" stroke="rgb(0, 0, 0)" stroke-linejoin="round" d=" M 1042.114, 533.223 1042.114, 533.223 1047.727, 536.709 " />
            <path fill="none" stroke-width="3.0" stroke-linecap="butt" stroke-opacity="1.0" stroke="rgb(0, 0, 0)" stroke-linejoin="round" d=" M 1068.947, 543.707 1068.947, 543.707 1059.450, 540.575 1049.953, 537.443 1047.727, 536.709 1047.727, 536.709 1047.727, 536.709 " />
            <path fill="none" stroke-width="3.0" stroke-linecap="butt" stroke-opacity="1.0" stroke="rgb(0, 0, 0)" stroke-linejoin="round" d=" M 1053.650, 565.124 1063.147, 561.993 1068.947, 560.080 " />
        </g>
    </g>
</svg>
