<?xml version='1.0' encoding='ascii'?>
<svg xmlns="http://www.w3.org/2000/svg" version="1.1" width="1920" height="1080">
    <g id="ViewLayer_LineSet" xmlns:inkscape="http://www.inkscape.org/namespaces/inkscape" inkscape:groupmode="lineset" inkscape:label="ViewLayer_LineSet">
        <g xmlns:inkscape="http://www.inkscape.org/namespaces/inkscape" inkscape:groupmode="layer" id="strokes" inkscape:label="strokes">
            <path fill="none" stroke-width="3.0" stroke-linecap="butt" stroke-opacity="1.0" stroke="rgb(0, 0, 0)" stroke-linejoin="round" d=" M 827.540, 564.618 817.698, 562.851 807.855, 561.084 798.012, 559.318 788.169, 557.551 778.327, 555.784 768.484, 554.018 758.641, 552.251 748.799, 550.484 738.956, 548.718 729.113, 546.951 723.517, 545.947 " />
            <path fill="none" stroke-width="3.0" stroke-linecap="butt" stroke-opacity="1.0" stroke="rgb(0, 0, 0)" stroke-linejoin="round" d=" M 869.770, 448.140 863.206, 455.683 856.641, 463.227 850.076, 470.771 847.829, 473.352 839.194, 478.395 830.559, 483.438 821.923, 488.481 813.288, 493.524 804.652, 498.566 796.017, 503.609 787.382, 508.652 778.746, 513.695 770.111, 518.738 761.475, 523.780 752.840, 528.823 744.205, 533.866 735.569, 538.909 726.934, 543.952 723.517, 545.947 732.153, 550.990 740.788, 556.032 749.424, 561.075 758.059, 566.118 766.694, 571.161 775.330, 576.204 783.965, 581.246 792.601, 586.289 801.236, 591.332 809.871, 596.375 818.507, 601.418 827.142, 606.460 835.778, 611.503 844.413, 616.546 847.829, 618.541 " />
            <path fill="none" stroke-width="3.0" stroke-linecap="butt" stroke-opacity="1.0" stroke="rgb(0, 0, 0)" stroke-linejoin="round" d=" M 837.685, 595.941 841.780, 605.064 845.875, 614.187 847.829, 618.541 854.394, 626.085 860.959, 633.628 867.523, 641.172 869.770, 643.754 876.335, 651.297 882.900, 658.841 884.302, 660.453 " />
            <path fill="none" stroke-width="3.0" stroke-linecap="butt" stroke-opacity="1.0" stroke="rgb(0, 0, 0)" stroke-linejoin="round" d=" M 827.540, 564.618 830.621, 574.131 833.702, 583.645 836.784, 593.158 837.685, 595.941 840.434, 598.887 844.406, 603.142 844.407, 603.143 851.230, 610.453 858.054, 617.763 864.877, 625.074 871.701, 632.384 878.524, 639.694 879.815, 641.077 886.638, 648.387 893.461, 655.698 893.770, 656.028 884.710, 660.262 884.302, 660.453 875.242, 664.686 866.183, 668.920 857.123, 673.153 848.063, 677.386 845.748, 678.468 836.688, 682.702 827.628, 686.935 819.331, 690.812 810.271, 695.046 801.212, 699.279 792.152, 703.513 787.150, 705.850 778.090, 710.083 769.031, 714.317 759.971, 718.550 750.911, 722.784 741.852, 727.017 732.792, 731.251 726.786, 734.057 736.347, 736.988 745.908, 739.919 755.469, 742.849 759.901, 744.208 769.768, 745.838 779.634, 747.469 789.500, 749.099 799.366, 750.729 809.232, 752.360 819.099, 753.990 828.965, 755.620 838.831, 757.251 848.697, 758.881 858.564, 760.511 868.430, 762.142 878.296, 763.772 888.162, 765.402 890.159, 765.732 899.218, 761.499 908.278, 757.265 917.338, 753.032 926.398, 748.798 935.457, 744.565 944.517, 740.332 951.127, 737.243 955.090, 735.391 955.522, 735.189 964.582, 730.956 973.642, 726.722 982.701, 722.489 991.761, 718.255 1000.821, 714.022 1009.880, 709.789 1018.940, 705.555 1028.000, 701.322 1037.059, 697.088 1046.119, 692.855 1055.179, 688.621 1056.766, 687.880 1057.142, 687.704 1064.494, 694.482 1071.846, 701.261 1079.198, 708.040 1086.550, 714.818 1093.902, 721.597 1101.254, 728.375 1108.606, 735.154 1115.958, 741.932 1123.310, 748.711 1130.662, 755.489 1138.014, 762.268 1145.366, 769.046 1153.057, 776.138 " />
            <path fill="none" stroke-width="3.0" stroke-linecap="butt" stroke-opacity="1.0" stroke="rgb(0, 0, 0)" stroke-linejoin="round" d=" M 951.127, 737.243 957.691, 744.787 960.000, 747.439 969.891, 748.910 979.783, 750.380 989.674, 751.850 999.565, 753.321 1009.457, 754.791 1019.348, 756.262 1029.239, 757.732 1039.130, 759.202 1049.022, 760.673 1058.913, 762.143 1068.804, 763.614 1078.696, 765.084 1088.587, 766.554 1098.478, 768.025 1108.370, 769.495 1118.261, 770.965 1128.152, 772.436 1138.044, 773.906 1147.935, 775.377 1153.057, 776.138 1146.054, 769.000 1139.051, 761.861 1132.048, 754.723 1125.045, 747.584 1118.042, 740.446 1111.039, 733.307 1104.036, 726.169 1097.033, 719.030 1090.030, 711.892 1083.027, 704.754 1076.024, 697.615 1069.021, 690.477 1062.018, 683.338 1057.142, 678.368 " />
            <path fill="none" stroke-width="3.0" stroke-linecap="butt" stroke-opacity="1.0" stroke="rgb(0, 0, 0)" stroke-linejoin="round" d=" M 1042.114, 670.378 1045.453, 674.227 1047.690, 676.807 1050.565, 680.121 1057.142, 687.704 1054.142, 679.168 1053.659, 677.793 1050.344, 668.359 1047.028, 658.924 1043.712, 649.490 1040.397, 640.056 1037.081, 630.621 1033.765, 621.187 1030.450, 611.753 1027.134, 602.318 1023.818, 592.884 1020.503, 583.450 1017.187, 574.015 1015.856, 570.229 1012.541, 560.794 1012.058, 559.420 " />
            <path fill="none" stroke-width="3.0" stroke-linecap="butt" stroke-opacity="1.0" stroke="rgb(0, 0, 0)" stroke-linejoin="round" d=" M 1012.058, 559.420 1007.514, 568.328 1002.971, 577.237 1000.411, 582.254 " />
            <path fill="none" stroke-width="3.0" stroke-linecap="butt" stroke-opacity="1.0" stroke="rgb(0, 0, 0)" stroke-linejoin="round" d=" M 1000.411, 582.254 1004.689, 591.293 1008.966, 600.332 1013.244, 609.371 1017.521, 618.410 1021.799, 627.449 1026.076, 636.488 1030.354, 645.527 1034.631, 654.566 1038.909, 663.605 1042.114, 670.378 " />
            <path fill="none" stroke-width="3.0" stroke-linecap="butt" stroke-opacity="1.0" stroke="rgb(0, 0, 0)" stroke-linejoin="round" d=" M 869.770, 643.754 860.108, 646.329 850.445, 648.904 840.782, 651.480 831.119, 654.055 821.457, 656.630 811.794, 659.205 802.131, 661.780 792.468, 664.356 782.806, 666.931 773.143, 669.506 763.480, 672.081 753.818, 674.657 744.155, 677.232 734.492, 679.807 726.786, 681.861 735.405, 686.932 744.023, 692.004 752.642, 697.075 759.901, 701.347 769.768, 702.978 779.634, 704.608 787.150, 705.850 " />
            <path fill="none" stroke-width="3.0" stroke-linecap="butt" stroke-opacity="1.0" stroke="rgb(0, 0, 0)" stroke-linejoin="round" d=" M 875.130, 748.406 865.177, 747.443 855.223, 746.481 845.270, 745.518 835.316, 744.555 825.363, 743.592 815.409, 742.629 805.456, 741.666 795.502, 740.704 785.549, 739.741 775.595, 738.778 765.642, 737.815 755.688, 736.852 745.734, 735.890 735.781, 734.927 726.786, 734.057 " />
            <path fill="none" stroke-width="3.0" stroke-linecap="butt" stroke-opacity="1.0" stroke="rgb(0, 0, 0)" stroke-linejoin="round" d=" M 890.159, 765.732 883.606, 758.178 877.054, 750.624 875.130, 748.406 884.190, 744.173 893.250, 739.939 902.310, 735.706 911.369, 731.472 920.429, 727.239 929.489, 723.006 936.064, 719.933 945.123, 715.700 954.183, 711.466 963.243, 707.233 972.302, 703.000 981.362, 698.766 982.365, 698.297 991.425, 694.064 1000.484, 689.831 1009.544, 685.597 1018.648, 681.343 1027.708, 677.110 1033.407, 674.446 1042.114, 670.378 1032.161, 669.415 1022.207, 668.452 1012.254, 667.489 1002.300, 666.527 992.346, 665.564 982.393, 664.601 972.439, 663.638 961.729, 662.602 951.775, 661.639 941.822, 660.677 931.868, 659.714 925.895, 659.136 916.825, 658.259 906.872, 657.296 896.918, 656.333 893.770, 656.028 901.994, 650.339 904.535, 648.581 912.759, 642.892 914.999, 641.342 923.223, 635.653 931.447, 629.964 939.671, 624.274 947.895, 618.585 956.118, 612.896 964.342, 607.207 972.566, 601.517 980.790, 595.828 989.014, 590.139 997.238, 584.450 1000.411, 582.254 " />
            <path fill="none" stroke-width="3.0" stroke-linecap="butt" stroke-opacity="1.0" stroke="rgb(0, 0, 0)" stroke-linejoin="round" d=" M 759.901, 701.347 769.564, 698.772 779.227, 696.197 788.890, 693.622 798.552, 691.046 808.215, 688.471 817.878, 685.896 827.541, 683.321 837.203, 680.746 845.748, 678.468 " />
            <path fill="none" stroke-width="3.0" stroke-linecap="butt" stroke-opacity="1.0" stroke="rgb(0, 0, 0)" stroke-linejoin="round" d=" M 1000.411, 582.254 990.447, 583.092 980.482, 583.930 970.517, 584.769 960.552, 585.607 950.587, 586.445 940.623, 587.283 930.658, 588.121 920.693, 588.959 910.728, 589.797 900.763, 590.636 890.798, 591.474 880.834, 592.312 877.613, 592.583 867.649, 593.421 867.351, 593.446 857.386, 594.284 847.421, 595.122 839.276, 595.807 837.685, 595.941 " />
            <path fill="none" stroke-width="3.0" stroke-linecap="butt" stroke-opacity="1.0" stroke="rgb(0, 0, 0)" stroke-linejoin="round" d=" M 1000.411, 582.254 990.463, 581.239 980.515, 580.224 970.566, 579.209 960.618, 578.194 950.670, 577.179 940.721, 576.164 930.773, 575.149 920.825, 574.135 910.876, 573.120 900.928, 572.105 890.979, 571.090 881.031, 570.075 871.083, 569.060 861.134, 568.045 858.601, 567.786 851.476, 567.060 841.527, 566.045 831.579, 565.030 827.540, 564.618 829.927, 554.907 832.314, 545.196 834.057, 538.107 834.491, 536.341 836.878, 526.630 837.685, 523.347 " />
            <path fill="none" stroke-width="3.0" stroke-linecap="butt" stroke-opacity="1.0" stroke="rgb(0, 0, 0)" stroke-linejoin="round" d=" M 1015.473, 568.881 1021.669, 567.066 1022.658, 566.777 1023.749, 566.457 1033.346, 563.646 1042.943, 560.835 1052.539, 558.024 1062.136, 555.213 1071.733, 552.402 1081.330, 549.591 1090.927, 546.780 1093.772, 545.947 1084.175, 543.136 1074.578, 540.325 1064.981, 537.514 1055.385, 534.703 1045.788, 531.892 1036.191, 529.081 1026.594, 526.270 1022.658, 525.117 " />
            <path fill="none" stroke-width="3.0" stroke-linecap="butt" stroke-opacity="1.0" stroke="rgb(0, 0, 0)" stroke-linejoin="round" d=" M 1093.772, 545.947 1083.905, 547.574 1074.038, 549.201 1064.172, 550.827 1054.305, 552.454 1044.438, 554.081 1034.571, 555.708 1024.704, 557.335 1021.199, 557.913 1014.547, 559.010 1012.058, 559.420 " />
            <path fill="none" stroke-width="3.0" stroke-linecap="butt" stroke-opacity="1.0" stroke="rgb(0, 0, 0)" stroke-linejoin="round" d=" M 1057.142, 413.525 1054.142, 412.726 1054.027, 412.695 1050.565, 411.772 1048.903, 411.329 1048.811, 411.305 1039.148, 408.729 1035.520, 407.763 1025.858, 405.187 1016.195, 402.612 1006.532, 400.037 996.869, 397.462 987.207, 394.887 982.365, 393.596 972.702, 391.021 963.040, 388.446 953.377, 385.871 945.617, 383.802 944.127, 383.405 934.464, 380.830 929.497, 379.506 919.834, 376.931 910.171, 374.356 900.509, 371.781 890.846, 369.205 890.159, 369.022 880.292, 370.653 870.426, 372.283 860.560, 373.913 850.694, 375.543 840.828, 377.174 830.961, 378.804 827.663, 379.349 817.797, 380.979 807.931, 382.610 798.064, 384.240 788.198, 385.870 787.150, 386.044 777.284, 387.674 767.418, 389.304 759.901, 390.546 751.283, 395.618 742.664, 400.690 734.046, 405.761 726.786, 410.033 736.449, 412.608 746.112, 415.183 755.775, 417.759 765.437, 420.334 775.100, 422.909 784.763, 425.484 794.426, 428.060 804.088, 430.635 813.751, 433.210 823.414, 435.785 833.076, 438.360 842.739, 440.936 852.402, 443.511 862.065, 446.086 869.770, 448.140 879.433, 450.715 882.432, 451.514 892.095, 454.089 892.748, 454.264 893.770, 454.536 887.452, 462.287 881.134, 470.039 874.817, 477.790 869.174, 484.713 862.856, 492.465 856.538, 500.216 850.220, 507.968 843.902, 515.719 837.685, 523.347 839.334, 515.219 840.524, 509.356 842.512, 499.556 844.501, 489.756 846.490, 479.955 847.829, 473.352 " />
            <path fill="none" stroke-width="3.0" stroke-linecap="butt" stroke-opacity="1.0" stroke="rgb(0, 0, 0)" stroke-linejoin="round" d=" M 1012.058, 559.420 1013.997, 553.145 1016.221, 545.947 1016.416, 545.318 1016.937, 543.629 1019.890, 534.075 1019.981, 533.780 1022.658, 525.117 1025.611, 515.563 1028.563, 506.009 1031.516, 496.454 1034.468, 486.900 1037.420, 477.346 1040.373, 467.792 1043.325, 458.238 1046.278, 448.683 1049.230, 439.129 1052.183, 429.575 1055.135, 420.021 1057.142, 413.525 1064.145, 406.387 1071.148, 399.248 1078.151, 392.110 1085.155, 384.971 1092.158, 377.833 1099.161, 370.694 1106.164, 363.556 1113.167, 356.418 1120.170, 349.279 1127.173, 342.141 1134.176, 335.002 1141.179, 327.864 1148.182, 320.725 1153.057, 315.756 1143.166, 317.226 1133.275, 318.696 1123.383, 320.167 1113.492, 321.637 1103.601, 323.107 1093.709, 324.578 1083.818, 326.048 1073.927, 327.519 1064.036, 328.989 1054.144, 330.459 1044.253, 331.930 1034.362, 333.400 1024.470, 334.871 1014.579, 336.341 1004.688, 337.811 994.796, 339.282 984.905, 340.752 975.014, 342.222 965.122, 343.693 960.000, 344.454 953.435, 351.998 951.127, 354.651 944.562, 362.194 937.998, 369.738 936.064, 371.960 929.497, 379.506 " />
            <path fill="none" stroke-width="3.0" stroke-linecap="butt" stroke-opacity="1.0" stroke="rgb(0, 0, 0)" stroke-linejoin="round" d=" M 960.000, 344.454 956.567, 353.847 955.522, 356.705 952.089, 366.097 948.656, 375.489 945.617, 383.802 " />
            <path fill="none" stroke-width="3.0" stroke-linecap="butt" stroke-opacity="1.0" stroke="rgb(0, 0, 0)" stroke-linejoin="round" d=" M 951.127, 354.651 942.067, 350.417 933.007, 346.184 923.948, 341.950 914.888, 337.717 905.828, 333.484 896.769, 329.250 890.159, 326.161 880.292, 327.792 870.426, 329.422 860.560, 331.052 850.694, 332.683 840.828, 334.313 830.961, 335.943 821.095, 337.574 811.229, 339.204 801.363, 340.834 791.497, 342.465 781.630, 344.095 771.764, 345.725 761.898, 347.356 759.901, 347.685 750.341, 350.616 740.780, 353.547 731.219, 356.478 726.786, 357.837 735.846, 362.070 744.906, 366.304 753.966, 370.537 763.025, 374.771 772.085, 379.004 781.145, 383.237 787.150, 386.044 " />
            <path fill="none" stroke-width="3.0" stroke-linecap="butt" stroke-opacity="1.0" stroke="rgb(0, 0, 0)" stroke-linejoin="round" d=" M 1057.142, 413.525 1052.232, 422.237 1048.428, 428.985 1043.518, 437.696 1042.114, 440.187 " />
            <path fill="none" stroke-width="3.0" stroke-linecap="butt" stroke-opacity="1.0" stroke="rgb(0, 0, 0)" stroke-linejoin="round" d=" M 1042.114, 440.187 1039.298, 449.782 1036.481, 459.377 1033.664, 468.972 1030.848, 478.567 1030.062, 481.244 1027.246, 490.839 1024.429, 500.434 1021.612, 510.029 1018.796, 519.624 1017.617, 523.641 1014.800, 533.236 1014.379, 534.670 1014.322, 534.865 1012.776, 540.132 1009.960, 549.727 1007.143, 559.322 1004.326, 568.917 1001.510, 578.512 1000.411, 582.254 " />
            <path fill="none" stroke-width="3.0" stroke-linecap="butt" stroke-opacity="1.0" stroke="rgb(0, 0, 0)" stroke-linejoin="round" d=" M 875.130, 395.684 880.041, 386.972 884.951, 378.261 889.862, 369.549 890.159, 369.022 " />
            <path fill="none" stroke-width="3.0" stroke-linecap="butt" stroke-opacity="1.0" stroke="rgb(0, 0, 0)" stroke-linejoin="round" d=" M 726.786, 410.033 736.740, 409.070 746.694, 408.107 756.647, 407.145 766.601, 406.182 776.554, 405.219 786.508, 404.256 796.461, 403.293 806.415, 402.331 816.368, 401.368 819.331, 401.081 829.285, 400.118 839.238, 399.156 849.192, 398.193 859.145, 397.230 869.099, 396.267 875.130, 395.684 " />
            <path fill="none" stroke-width="3.0" stroke-linecap="butt" stroke-opacity="1.0" stroke="rgb(0, 0, 0)" stroke-linejoin="round" d=" M 837.685, 523.347 847.088, 526.751 856.491, 530.155 865.893, 533.558 875.296, 536.962 884.699, 540.366 894.102, 543.770 903.505, 547.174 912.908, 550.578 922.311, 553.982 931.714, 557.385 941.116, 560.789 950.519, 564.193 959.922, 567.597 969.325, 571.001 978.728, 574.405 988.131, 577.808 997.534, 581.212 1000.411, 582.254 994.002, 574.578 987.593, 566.902 981.184, 559.226 974.774, 551.550 968.365, 543.874 961.956, 536.198 955.547, 528.522 949.137, 520.846 942.728, 513.170 936.319, 505.494 929.909, 497.818 923.500, 490.142 917.091, 482.466 910.682, 474.790 904.272, 467.114 899.847, 461.814 896.037, 457.251 893.770, 454.536 899.207, 454.010 908.654, 453.096 918.607, 452.133 925.895, 451.429 935.848, 450.466 945.802, 449.503 955.755, 448.540 965.709, 447.577 975.663, 446.614 985.616, 445.652 995.570, 444.689 1005.523, 443.726 1015.477, 442.763 1025.430, 441.800 1035.384, 440.838 1038.787, 440.508 1042.114, 440.187 1039.113, 439.387 1029.450, 436.812 1019.788, 434.236 1010.125, 431.661 1000.462, 429.086 990.800, 426.511 986.114, 425.262 976.452, 422.687 966.789, 420.112 964.492, 419.500 954.829, 416.924 945.167, 414.349 935.504, 411.774 925.841, 409.199 916.179, 406.623 907.834, 404.400 898.171, 401.824 888.509, 399.249 878.846, 396.674 875.130, 395.684 " />
            <path fill="none" stroke-width="3.0" stroke-linecap="butt" stroke-opacity="1.0" stroke="rgb(0, 0, 0)" stroke-linejoin="round" d=" M 827.663, 379.349 818.603, 375.116 809.544, 370.882 800.484, 366.649 791.424, 362.415 782.365, 358.182 773.305, 353.949 764.245, 349.715 759.901, 347.685 " />
            <path fill="none" stroke-width="3.0" stroke-linecap="butt" stroke-opacity="1.0" stroke="rgb(0, 0, 0)" stroke-linejoin="round" d=" M 955.090, 735.391 958.864, 744.652 960.000, 747.439 " />
            <path fill="none" stroke-width="3.0" stroke-linecap="butt" stroke-opacity="1.0" stroke="rgb(0, 0, 0)" stroke-linejoin="round" d=" M 1022.658, 566.777 1025.611, 576.331 1028.563, 585.885 1031.516, 595.439 1034.468, 604.993 1037.420, 614.548 1040.373, 624.102 1043.325, 633.656 1046.278, 643.210 1049.230, 652.764 1052.183, 662.319 1055.135, 671.873 1057.142, 678.368 1053.901, 678.462 " />
        </g>
    </g>
</svg>
