<?xml version='1.0' encoding='ascii'?>
<svg xmlns="http://www.w3.org/2000/svg" version="1.1" width="1920" height="1080">
    <g id="ViewLayer_LineSet" xmlns:inkscape="http://www.inkscape.org/namespaces/inkscape" inkscape:groupmode="lineset" inkscape:label="ViewLayer_LineSet">
        <g xmlns:inkscape="http://www.inkscape.org/namespaces/inkscape" inkscape:groupmode="layer" id="strokes" inkscape:label="strokes">
            <path fill="none" stroke-width="3.0" stroke-linecap="butt" stroke-opacity="1.0" stroke="rgb(0, 0, 0)" stroke-linejoin="round" d=" M 847.829, 456.175 839.538, 461.766 831.247, 467.357 822.956, 472.948 814.665, 478.538 806.374, 484.129 798.083, 489.720 789.791, 495.311 781.500, 500.902 773.209, 506.492 764.918, 512.083 756.627, 517.674 748.336, 523.265 740.045, 528.856 731.753, 534.446 723.517, 540.000 731.808, 545.591 740.100, 551.182 748.391, 556.772 756.682, 562.363 764.973, 567.954 773.264, 573.545 781.555, 579.136 789.846, 584.726 798.138, 590.317 806.429, 595.908 814.720, 601.499 823.011, 607.089 831.302, 612.680 839.593, 618.271 847.829, 623.825 " />
            <path fill="none" stroke-width="3.0" stroke-linecap="butt" stroke-opacity="1.0" stroke="rgb(0, 0, 0)" stroke-linejoin="round" d=" M 837.685, 581.912 840.037, 591.632 842.390, 601.351 844.742, 611.070 847.095, 620.790 847.829, 623.825 853.848, 631.811 859.867, 639.797 865.885, 647.783 871.904, 655.769 877.517, 663.217 " />
            <path fill="none" stroke-width="3.0" stroke-linecap="butt" stroke-opacity="1.0" stroke="rgb(0, 0, 0)" stroke-linejoin="round" d=" M 837.685, 498.088 835.332, 507.807 832.980, 517.526 830.627, 527.246 828.275, 536.965 827.540, 540.000 829.893, 549.719 832.245, 559.439 834.598, 569.158 836.950, 578.877 837.685, 581.912 837.685, 581.912 " />
            <path fill="none" stroke-width="3.0" stroke-linecap="butt" stroke-opacity="1.0" stroke="rgb(0, 0, 0)" stroke-linejoin="round" d=" M 941.028, 747.490 947.047, 755.476 953.065, 763.462 959.084, 771.448 960.000, 772.664 969.856, 774.355 979.712, 776.047 989.568, 777.739 999.423, 779.431 1009.279, 781.122 1019.135, 782.814 1028.991, 784.506 1038.847, 786.198 1048.703, 787.889 1058.559, 789.581 1068.414, 791.273 1078.270, 792.965 1088.126, 794.656 1097.982, 796.348 1107.838, 798.040 1117.694, 799.732 1127.550, 801.424 1137.405, 803.115 1147.261, 804.807 1153.057, 805.802 1146.400, 798.340 1139.742, 790.878 1133.085, 783.416 1126.428, 775.955 1119.770, 768.493 1113.113, 761.031 1106.456, 753.569 1099.798, 746.107 1093.141, 738.645 1086.483, 731.184 1079.826, 723.722 1073.169, 716.260 1066.511, 708.798 1059.854, 701.336 1057.142, 698.297 " />
            <path fill="none" stroke-width="3.0" stroke-linecap="butt" stroke-opacity="1.0" stroke="rgb(0, 0, 0)" stroke-linejoin="round" d=" M 1000.411, 540.000 1003.405, 549.541 1006.399, 559.083 1009.393, 568.624 1012.387, 578.165 1015.381, 587.706 1018.375, 597.248 1021.369, 606.789 1024.363, 616.330 1027.357, 625.872 1030.351, 635.413 1033.345, 644.954 1036.339, 654.496 1039.333, 664.037 1040.188, 666.763 1042.114, 672.901 " />
            <path fill="none" stroke-width="3.0" stroke-linecap="butt" stroke-opacity="1.0" stroke="rgb(0, 0, 0)" stroke-linejoin="round" d=" M 1042.114, 672.901 1047.207, 681.507 1052.299, 690.113 1057.142, 698.297 " />
            <path fill="none" stroke-width="3.0" stroke-linecap="butt" stroke-opacity="1.0" stroke="rgb(0, 0, 0)" stroke-linejoin="round" d=" M 893.770, 656.332 884.562, 660.233 877.517, 663.217 868.310, 667.118 859.102, 671.019 849.894, 674.920 840.686, 678.821 831.478, 682.722 822.271, 686.623 813.063, 690.524 803.855, 694.425 794.647, 698.326 785.440, 702.227 776.232, 706.127 767.024, 710.028 757.816, 713.929 748.609, 717.830 739.401, 721.731 730.193, 725.632 726.786, 727.075 735.671, 731.666 744.555, 736.257 753.439, 740.847 759.901, 744.187 769.724, 746.061 779.547, 747.935 789.370, 749.810 799.193, 751.684 809.015, 753.558 818.838, 755.432 828.661, 757.307 838.484, 759.181 848.307, 761.055 858.129, 762.929 867.952, 764.803 877.775, 766.678 887.598, 768.552 890.159, 769.041 899.366, 765.140 908.574, 761.239 917.782, 757.338 926.990, 753.437 936.198, 749.536 941.028, 747.490 950.289, 743.566 " />
            <path fill="none" stroke-width="3.0" stroke-linecap="butt" stroke-opacity="1.0" stroke="rgb(0, 0, 0)" stroke-linejoin="round" d=" M 875.130, 743.644 865.192, 742.534 855.254, 741.424 845.316, 740.314 835.378, 739.204 825.440, 738.094 815.501, 736.984 805.563, 735.874 795.625, 734.764 785.687, 733.654 775.749, 732.544 765.810, 731.434 755.872, 730.324 745.934, 729.214 735.996, 728.104 726.786, 727.075 " />
            <path fill="none" stroke-width="3.0" stroke-linecap="butt" stroke-opacity="1.0" stroke="rgb(0, 0, 0)" stroke-linejoin="round" d=" M 890.159, 769.041 885.066, 760.435 879.973, 751.828 875.130, 743.644 884.338, 739.744 893.546, 735.843 902.754, 731.942 911.962, 728.041 921.169, 724.140 922.883, 723.414 932.091, 719.513 941.299, 715.612 950.507, 711.711 959.714, 707.810 968.922, 703.909 978.130, 700.008 987.338, 696.107 996.546, 692.206 1005.450, 688.434 " />
            <path fill="none" stroke-width="3.0" stroke-linecap="butt" stroke-opacity="1.0" stroke="rgb(0, 0, 0)" stroke-linejoin="round" d=" M 1005.450, 688.434 1014.658, 684.533 1023.865, 680.632 1033.073, 676.731 1041.740, 673.060 1042.114, 672.901 1041.689, 672.854 1031.751, 671.743 1021.813, 670.633 1011.875, 669.523 1001.936, 668.413 991.998, 667.303 982.060, 666.193 972.122, 665.083 962.184, 663.973 952.245, 662.863 942.307, 661.753 932.369, 660.643 925.895, 659.920 915.994, 658.814 912.217, 658.392 902.279, 657.282 893.770, 656.332 900.528, 648.960 901.738, 647.639 905.014, 644.066 911.772, 636.694 918.529, 629.323 925.286, 621.952 932.044, 614.580 938.801, 607.209 945.559, 599.837 952.316, 592.466 959.073, 585.094 965.831, 577.723 972.588, 570.352 979.346, 562.980 986.103, 555.609 992.860, 548.237 1000.411, 540.000 " />
            <path fill="none" stroke-width="3.0" stroke-linecap="butt" stroke-opacity="1.0" stroke="rgb(0, 0, 0)" stroke-linejoin="round" d=" M 890.159, 769.041 899.366, 765.140 908.574, 761.239 917.782, 757.338 926.990, 753.437 936.198, 749.536 941.028, 747.490 " />
            <path fill="none" stroke-width="3.0" stroke-linecap="butt" stroke-opacity="1.0" stroke="rgb(0, 0, 0)" stroke-linejoin="round" d=" M 1000.411, 540.000 990.727, 542.494 981.044, 544.988 971.360, 547.483 961.676, 549.977 951.992, 552.471 942.308, 554.965 932.624, 557.460 922.940, 559.954 913.256, 562.448 903.572, 564.942 893.888, 567.437 884.204, 569.931 874.520, 572.425 864.836, 574.919 855.355, 577.361 849.648, 578.831 839.964, 581.325 837.685, 581.912 837.685, 581.912 " />
            <path fill="none" stroke-width="3.0" stroke-linecap="butt" stroke-opacity="1.0" stroke="rgb(0, 0, 0)" stroke-linejoin="round" d=" M 1000.411, 540.000 990.411, 540.000 980.411, 540.000 970.411, 540.000 960.411, 540.000 950.411, 540.000 940.411, 540.000 930.411, 540.000 920.411, 540.000 910.411, 540.000 900.411, 540.000 890.411, 540.000 880.411, 540.000 870.411, 540.000 860.411, 540.000 850.411, 540.000 840.411, 540.000 830.411, 540.000 827.540, 540.000 " />
            <path fill="none" stroke-width="3.0" stroke-linecap="butt" stroke-opacity="1.0" stroke="rgb(0, 0, 0)" stroke-linejoin="round" d=" M 1093.772, 540.000 1083.772, 540.000 1073.772, 540.000 1063.772, 540.000 1053.772, 540.000 1043.772, 540.000 1033.772, 540.000 1023.772, 540.000 1013.772, 540.000 1012.058, 540.000 " />
            <path fill="none" stroke-width="3.0" stroke-linecap="butt" stroke-opacity="1.0" stroke="rgb(0, 0, 0)" stroke-linejoin="round" d=" M 877.517, 416.783 871.499, 424.769 865.480, 432.755 859.462, 440.741 853.443, 448.727 847.829, 456.175 845.477, 465.895 843.124, 475.614 840.772, 485.333 838.419, 495.053 837.685, 498.088 837.685, 498.088 " />
            <path fill="none" stroke-width="3.0" stroke-linecap="butt" stroke-opacity="1.0" stroke="rgb(0, 0, 0)" stroke-linejoin="round" d=" M 1057.142, 381.703 1063.800, 374.241 1070.457, 366.779 1077.115, 359.317 1083.772, 351.855 1090.429, 344.394 1097.087, 336.932 1103.744, 329.470 1110.401, 322.008 1117.059, 314.546 1123.716, 307.084 1130.374, 299.623 1137.031, 292.161 1143.688, 284.699 1150.346, 277.237 1153.057, 274.198 1143.201, 275.890 1133.346, 277.582 1123.490, 279.273 1113.634, 280.965 1103.778, 282.657 1093.922, 284.349 1084.066, 286.040 1074.210, 287.732 1064.355, 289.424 1054.499, 291.116 1044.643, 292.807 1034.787, 294.499 1024.931, 296.191 1015.075, 297.883 1005.219, 299.575 995.364, 301.266 985.508, 302.958 975.652, 304.650 965.796, 306.342 960.000, 307.336 953.981, 315.323 947.963, 323.309 941.944, 331.295 941.028, 332.510 " />
            <path fill="none" stroke-width="3.0" stroke-linecap="butt" stroke-opacity="1.0" stroke="rgb(0, 0, 0)" stroke-linejoin="round" d=" M 960.000, 307.336 956.834, 316.822 953.668, 326.308 950.502, 335.793 950.289, 336.434 " />
            <path fill="none" stroke-width="3.0" stroke-linecap="butt" stroke-opacity="1.0" stroke="rgb(0, 0, 0)" stroke-linejoin="round" d=" M 1042.114, 407.099 1040.188, 413.237 1037.194, 422.779 1034.200, 432.320 1031.206, 441.861 1028.212, 451.403 1025.218, 460.944 1022.224, 470.485 1019.230, 480.027 1016.236, 489.568 1013.242, 499.109 1010.249, 508.650 1007.255, 518.192 1004.261, 527.733 1001.267, 537.274 1000.411, 540.000 " />
            <path fill="none" stroke-width="3.0" stroke-linecap="butt" stroke-opacity="1.0" stroke="rgb(0, 0, 0)" stroke-linejoin="round" d=" M 950.289, 336.434 941.028, 332.510 931.820, 328.609 922.612, 324.709 913.405, 320.808 904.197, 316.907 894.989, 313.006 890.159, 310.959 880.336, 312.834 870.513, 314.708 860.690, 316.582 850.868, 318.456 841.045, 320.331 831.222, 322.205 821.399, 324.079 811.576, 325.953 801.754, 327.828 791.931, 329.702 782.108, 331.576 772.285, 333.450 762.462, 335.325 759.901, 335.813 " />
            <path fill="none" stroke-width="3.0" stroke-linecap="butt" stroke-opacity="1.0" stroke="rgb(0, 0, 0)" stroke-linejoin="round" d=" M 875.130, 336.356 880.223, 327.749 885.316, 319.143 890.159, 310.959 " />
            <path fill="none" stroke-width="3.0" stroke-linecap="butt" stroke-opacity="1.0" stroke="rgb(0, 0, 0)" stroke-linejoin="round" d=" M 893.770, 423.668 903.708, 422.558 912.217, 421.608 915.994, 421.186 925.895, 420.080 935.833, 418.970 945.771, 417.860 955.709, 416.750 965.648, 415.640 975.586, 414.530 985.524, 413.420 995.462, 412.310 1005.401, 411.200 1015.339, 410.090 1025.277, 408.980 1035.215, 407.870 1041.689, 407.146 1042.114, 407.099 " />
            <path fill="none" stroke-width="3.0" stroke-linecap="butt" stroke-opacity="1.0" stroke="rgb(0, 0, 0)" stroke-linejoin="round" d=" M 1057.142, 381.703 1052.050, 390.309 1046.957, 398.915 1042.114, 407.099 1041.740, 406.940 1032.532, 403.040 1023.324, 399.139 1014.117, 395.238 1005.450, 391.566 " />
            <path fill="none" stroke-width="3.0" stroke-linecap="butt" stroke-opacity="1.0" stroke="rgb(0, 0, 0)" stroke-linejoin="round" d=" M 837.685, 498.088 837.685, 498.088 847.369, 500.582 849.648, 501.169 855.355, 502.639 865.039, 505.133 874.723, 507.627 884.407, 510.121 894.090, 512.616 903.774, 515.110 913.458, 517.604 923.142, 520.098 932.826, 522.593 942.510, 525.087 952.194, 527.581 961.878, 530.075 971.562, 532.569 981.246, 535.064 990.930, 537.558 1000.411, 540.000 " />
            <path fill="none" stroke-width="3.0" stroke-linecap="butt" stroke-opacity="1.0" stroke="rgb(0, 0, 0)" stroke-linejoin="round" d=" M 1012.058, 540.000 1002.058, 540.000 1000.411, 540.000 993.654, 532.629 986.897, 525.257 980.139, 517.886 973.382, 510.514 966.625, 503.143 959.867, 495.771 953.110, 488.400 946.352, 481.029 939.595, 473.657 932.838, 466.286 926.080, 458.914 919.323, 451.543 912.565, 444.172 905.014, 435.934 901.738, 432.360 894.981, 424.989 893.770, 423.668 884.562, 419.767 877.517, 416.783 868.310, 412.882 859.102, 408.981 849.894, 405.080 840.686, 401.179 831.478, 397.278 822.271, 393.377 813.063, 389.476 803.855, 385.575 794.647, 381.674 785.440, 377.773 776.232, 373.873 767.024, 369.972 757.816, 366.071 748.609, 362.170 739.401, 358.269 730.193, 354.368 726.786, 352.925 " />
            <path fill="none" stroke-width="3.0" stroke-linecap="butt" stroke-opacity="1.0" stroke="rgb(0, 0, 0)" stroke-linejoin="round" d=" M 1019.237, 565.209 1028.710, 562.005 1038.183, 558.801 1047.656, 555.597 1057.129, 552.393 1066.602, 549.189 1076.075, 545.986 1085.547, 542.782 1093.772, 540.000 1084.299, 536.796 1074.826, 533.592 1065.353, 530.388 1055.880, 527.184 1046.408, 523.980 1036.935, 520.777 1027.462, 517.573 1019.237, 514.791 " />
            <path fill="none" stroke-width="3.0" stroke-linecap="butt" stroke-opacity="1.0" stroke="rgb(0, 0, 0)" stroke-linejoin="round" d=" M 759.901, 335.813 751.017, 340.404 742.133, 344.995 733.249, 349.585 726.786, 352.925 " />
            <path fill="none" stroke-width="3.0" stroke-linecap="butt" stroke-opacity="1.0" stroke="rgb(0, 0, 0)" stroke-linejoin="round" d=" M 827.540, 540.000 817.540, 540.000 807.540, 540.000 797.540, 540.000 787.540, 540.000 777.540, 540.000 767.540, 540.000 757.540, 540.000 747.540, 540.000 737.540, 540.000 727.540, 540.000 723.517, 540.000 " />
            <path fill="none" stroke-width="3.0" stroke-linecap="butt" stroke-opacity="1.0" stroke="rgb(0, 0, 0)" stroke-linejoin="round" d=" M 726.786, 352.925 736.725, 351.815 746.663, 350.705 756.601, 349.595 766.539, 348.485 776.477, 347.375 786.416, 346.265 796.354, 345.154 806.292, 344.044 816.230, 342.934 826.169, 341.824 836.107, 340.714 846.045, 339.604 855.983, 338.494 865.921, 337.384 875.130, 336.356 " />
            <path fill="none" stroke-width="3.0" stroke-linecap="butt" stroke-opacity="1.0" stroke="rgb(0, 0, 0)" stroke-linejoin="round" d=" M 837.685, 581.912 837.687, 581.915 843.706, 589.901 849.724, 597.887 855.743, 605.873 861.761, 613.859 867.780, 621.845 873.798, 629.831 879.817, 637.817 885.836, 645.803 891.854, 653.789 893.770, 656.332 " />
            <path fill="none" stroke-width="3.0" stroke-linecap="butt" stroke-opacity="1.0" stroke="rgb(0, 0, 0)" stroke-linejoin="round" d=" M 893.770, 423.668 887.752, 431.654 881.733, 439.640 875.714, 447.626 869.696, 455.612 863.677, 463.598 857.659, 471.584 851.640, 479.570 845.622, 487.557 839.603, 495.543 837.687, 498.085 837.685, 498.088 " />
            <path fill="none" stroke-width="3.0" stroke-linecap="butt" stroke-opacity="1.0" stroke="rgb(0, 0, 0)" stroke-linejoin="round" d=" M 950.289, 743.566 953.455, 753.052 956.620, 762.538 959.786, 772.023 960.000, 772.664 " />
            <path fill="none" stroke-width="3.0" stroke-linecap="butt" stroke-opacity="1.0" stroke="rgb(0, 0, 0)" stroke-linejoin="round" d=" M 1005.450, 391.566 996.242, 387.665 987.034, 383.764 977.827, 379.863 968.619, 375.962 959.411, 372.061 950.203, 368.161 940.996, 364.260 931.788, 360.359 922.883, 356.586 913.676, 352.685 904.468, 348.784 895.260, 344.884 886.052, 340.983 876.845, 337.082 875.130, 336.356 " />
            <path fill="none" stroke-width="3.0" stroke-linecap="butt" stroke-opacity="1.0" stroke="rgb(0, 0, 0)" stroke-linejoin="round" d=" M 1057.142, 698.297 1054.403, 688.680 1051.664, 679.062 1048.925, 669.445 1046.186, 659.827 1043.447, 650.210 1040.707, 640.592 1037.968, 630.974 1035.229, 621.357 1032.490, 611.739 1029.751, 602.122 1027.011, 592.504 1024.272, 582.887 1021.533, 573.269 1019.237, 565.209 1016.498, 555.591 1013.759, 545.974 1012.058, 540.000 " />
            <path fill="none" stroke-width="3.0" stroke-linecap="butt" stroke-opacity="1.0" stroke="rgb(0, 0, 0)" stroke-linejoin="round" d=" M 950.289, 743.566 959.497, 739.665 968.704, 735.764 977.912, 731.864 987.120, 727.963 996.328, 724.062 1005.535, 720.161 1014.743, 716.260 1023.951, 712.359 1033.159, 708.458 1042.366, 704.557 1051.574, 700.656 1053.099, 700.010 1057.142, 698.297 " />
            <path fill="none" stroke-width="3.0" stroke-linecap="butt" stroke-opacity="1.0" stroke="rgb(0, 0, 0)" stroke-linejoin="round" d=" M 1012.058, 540.000 1014.797, 530.382 1017.536, 520.765 1019.237, 514.791 1021.977, 505.173 1024.716, 495.556 1027.455, 485.938 1030.194, 476.321 1032.933, 466.703 1035.672, 457.086 1038.412, 447.468 1041.151, 437.851 1043.890, 428.233 1046.629, 418.616 1049.368, 408.998 1052.108, 399.381 1054.847, 389.763 1057.142, 381.703 " />
            <path fill="none" stroke-width="3.0" stroke-linecap="butt" stroke-opacity="1.0" stroke="rgb(0, 0, 0)" stroke-linejoin="round" d=" M 1057.142, 381.703 1053.099, 379.990 1043.891, 376.089 1034.684, 372.188 1025.476, 368.287 1016.268, 364.386 1007.060, 360.485 997.853, 356.584 988.645, 352.684 979.437, 348.783 970.229, 344.882 961.022, 340.981 951.814, 337.080 950.289, 336.434 " />
        </g>
    </g>
</svg>
