<?xml version='1.0' encoding='ascii'?>
<svg xmlns="http://www.w3.org/2000/svg" version="1.1" width="1920" height="1080">
    <g id="ViewLayer_LineSet" xmlns:inkscape="http://www.inkscape.org/namespaces/inkscape" inkscape:groupmode="lineset" inkscape:label="ViewLayer_LineSet">
        <g xmlns:inkscape="http://www.inkscape.org/namespaces/inkscape" inkscape:groupmode="layer" id="strokes" inkscape:label="strokes">
            <path fill="none" stroke-width="3.0" stroke-linecap="butt" stroke-opacity="1.0" stroke="rgb(0, 0, 0)" stroke-linejoin="round" d=" M 827.540, 574.815 817.848, 572.354 808.155, 569.894 798.462, 567.434 788.770, 564.973 779.077, 562.513 769.385, 560.053 759.692, 557.592 749.999, 555.132 740.307, 552.672 730.614, 550.212 723.517, 548.410 " />
            <path fill="none" stroke-width="3.0" stroke-linecap="butt" stroke-opacity="1.0" stroke="rgb(0, 0, 0)" stroke-linejoin="round" d=" M 863.364, 474.561 856.072, 481.404 848.779, 488.246 847.829, 489.137 838.803, 493.441 829.777, 497.745 820.750, 502.049 811.724, 506.353 802.697, 510.657 793.671, 514.960 784.644, 519.264 775.618, 523.568 766.591, 527.872 757.565, 532.176 748.539, 536.480 739.512, 540.784 730.486, 545.088 723.517, 548.410 732.544, 552.714 741.570, 557.018 750.597, 561.322 759.623, 565.626 768.650, 569.930 777.676, 574.233 786.702, 578.537 795.729, 582.841 804.755, 587.145 813.782, 591.449 822.808, 595.753 831.835, 600.057 840.861, 604.361 847.829, 607.683 " />
            <path fill="none" stroke-width="3.0" stroke-linecap="butt" stroke-opacity="1.0" stroke="rgb(0, 0, 0)" stroke-linejoin="round" d=" M 837.685, 597.418 844.714, 604.530 847.829, 607.683 855.122, 614.526 862.415, 621.368 863.364, 622.259 870.657, 629.101 877.950, 635.944 885.192, 642.739 888.758, 646.085 " />
            <path fill="none" stroke-width="3.0" stroke-linecap="butt" stroke-opacity="1.0" stroke="rgb(0, 0, 0)" stroke-linejoin="round" d=" M 827.540, 574.815 831.635, 583.938 835.730, 593.061 837.685, 597.418 845.386, 603.796 845.476, 603.871 847.281, 605.365 847.281, 605.366 854.982, 611.744 862.683, 618.123 866.987, 621.688 874.689, 628.067 882.390, 634.446 890.091, 640.824 891.250, 641.784 893.770, 643.871 888.758, 646.085 879.610, 650.124 870.462, 654.163 868.601, 654.985 859.453, 659.024 850.305, 663.063 841.157, 667.102 832.009, 671.141 830.148, 671.963 821.000, 676.002 811.852, 680.041 802.705, 684.080 793.557, 688.119 784.409, 692.158 775.261, 696.198 766.113, 700.237 756.965, 704.276 747.817, 708.315 738.669, 712.354 729.521, 716.393 726.786, 717.601 736.651, 719.239 746.516, 720.877 756.381, 722.515 759.901, 723.099 769.812, 724.436 779.722, 725.773 789.632, 727.110 799.542, 728.448 809.452, 729.785 819.363, 731.122 829.273, 732.459 839.183, 733.796 849.093, 735.133 859.003, 736.470 868.914, 737.807 878.824, 739.144 888.734, 740.481 890.159, 740.673 899.307, 736.634 908.455, 732.595 917.603, 728.556 926.751, 724.517 935.899, 720.478 945.047, 716.439 954.194, 712.399 957.759, 710.826 958.690, 710.414 958.880, 710.331 968.027, 706.292 977.175, 702.253 986.323, 698.213 995.471, 694.174 1004.619, 690.135 1013.767, 686.096 1022.915, 682.057 1032.063, 678.018 1041.211, 673.978 1050.359, 669.939 1057.142, 666.944 " />
            <path fill="none" stroke-width="3.0" stroke-linecap="butt" stroke-opacity="1.0" stroke="rgb(0, 0, 0)" stroke-linejoin="round" d=" M 957.759, 710.826 960.000, 712.928 969.927, 714.133 979.854, 715.338 989.781, 716.543 999.709, 717.748 1009.636, 718.953 1019.563, 720.158 1029.490, 721.362 1039.417, 722.567 1049.344, 723.772 1059.271, 724.977 1069.199, 726.182 1079.126, 727.387 1089.053, 728.592 1098.980, 729.797 1108.907, 731.002 1118.834, 732.207 1128.761, 733.412 1138.689, 734.617 1148.616, 735.821 1153.057, 736.361 1145.481, 729.834 1137.904, 723.308 1130.327, 716.781 1122.750, 710.255 1115.174, 703.729 1107.597, 697.202 1100.020, 690.676 1092.444, 684.150 1084.867, 677.623 1077.290, 671.097 1069.714, 664.570 1062.137, 658.044 1057.142, 653.742 " />
            <path fill="none" stroke-width="3.0" stroke-linecap="butt" stroke-opacity="1.0" stroke="rgb(0, 0, 0)" stroke-linejoin="round" d=" M 1055.707, 663.506 1063.713, 669.497 1071.719, 675.489 1079.725, 681.481 1087.732, 687.472 1095.738, 693.464 1103.744, 699.456 1111.750, 705.447 1119.757, 711.439 1127.763, 717.431 1135.769, 723.422 1143.775, 729.414 1151.782, 735.406 1153.057, 736.361 1144.956, 730.498 1136.855, 724.635 1128.754, 718.772 1120.653, 712.909 1112.552, 707.046 1104.451, 701.183 1096.350, 695.320 1088.249, 689.457 1080.148, 683.594 1072.047, 677.731 1063.946, 671.868 1057.142, 666.944 " />
            <path fill="none" stroke-width="3.0" stroke-linecap="butt" stroke-opacity="1.0" stroke="rgb(0, 0, 0)" stroke-linejoin="round" d=" M 1042.114, 655.588 1042.687, 656.020 1050.665, 662.049 1057.142, 666.944 1053.014, 657.836 1051.558, 654.622 1050.769, 652.882 1046.641, 643.774 1042.514, 634.666 1038.386, 625.557 1034.258, 616.449 1030.130, 607.341 1027.342, 601.190 1023.214, 592.082 1019.086, 582.973 1014.959, 573.865 1012.083, 567.521 " />
            <path fill="none" stroke-width="3.0" stroke-linecap="butt" stroke-opacity="1.0" stroke="rgb(0, 0, 0)" stroke-linejoin="round" d=" M 1000.411, 599.756 1006.396, 607.768 1012.380, 615.780 1018.364, 623.792 1024.349, 631.803 1030.333, 639.815 1036.317, 647.827 1038.897, 651.280 1042.114, 655.588 " />
            <path fill="none" stroke-width="3.0" stroke-linecap="butt" stroke-opacity="1.0" stroke="rgb(0, 0, 0)" stroke-linejoin="round" d=" M 863.364, 622.259 853.486, 623.816 843.608, 625.373 833.730, 626.929 823.852, 628.486 813.974, 630.043 804.096, 631.600 794.218, 633.157 784.340, 634.713 774.462, 636.270 764.584, 637.827 754.706, 639.384 744.828, 640.941 734.949, 642.498 726.786, 643.784 735.494, 648.701 744.201, 653.619 752.909, 658.536 759.901, 662.485 769.812, 663.822 779.722, 665.159 789.632, 666.496 799.542, 667.833 809.452, 669.170 819.363, 670.507 829.273, 671.844 830.148, 671.963 " />
            <path fill="none" stroke-width="3.0" stroke-linecap="butt" stroke-opacity="1.0" stroke="rgb(0, 0, 0)" stroke-linejoin="round" d=" M 875.130, 729.317 865.162, 728.529 855.193, 727.742 845.224, 726.955 835.255, 726.167 825.286, 725.380 815.317, 724.593 805.348, 723.805 795.379, 723.018 785.410, 722.231 775.441, 721.443 765.472, 720.656 755.503, 719.869 745.534, 719.081 735.565, 718.294 726.786, 717.601 " />
            <path fill="none" stroke-width="3.0" stroke-linecap="butt" stroke-opacity="1.0" stroke="rgb(0, 0, 0)" stroke-linejoin="round" d=" M 890.159, 740.673 882.181, 734.644 875.130, 729.317 884.279, 725.278 893.426, 721.238 902.574, 717.199 911.722, 713.160 920.870, 709.121 930.018, 705.082 939.166, 701.043 944.719, 698.591 953.867, 694.552 963.015, 690.513 972.163, 686.473 981.311, 682.434 990.459, 678.395 999.607, 674.356 1008.755, 670.317 1017.903, 666.278 1025.931, 662.733 1035.078, 658.694 1040.272, 656.401 1042.114, 655.588 1032.145, 654.800 1022.176, 654.013 1012.207, 653.226 1002.238, 652.438 992.269, 651.651 982.300, 650.863 972.331, 650.076 962.362, 649.289 952.394, 648.501 942.425, 647.714 932.456, 646.927 925.895, 646.409 921.158, 646.034 911.189, 645.247 901.220, 644.460 893.770, 643.871 903.011, 640.049 907.612, 638.145 916.853, 634.323 923.049, 631.759 932.289, 627.937 941.530, 624.114 950.771, 620.292 960.011, 616.469 969.252, 612.646 978.492, 608.824 987.733, 605.001 996.973, 601.179 1000.411, 599.756 " />
            <path fill="none" stroke-width="3.0" stroke-linecap="butt" stroke-opacity="1.0" stroke="rgb(0, 0, 0)" stroke-linejoin="round" d=" M 759.901, 662.485 769.780, 660.928 779.658, 659.371 789.536, 657.814 799.414, 656.258 809.292, 654.701 819.170, 653.144 829.048, 651.587 838.926, 650.030 848.804, 648.474 858.682, 646.917 868.560, 645.360 878.438, 643.803 885.192, 642.739 " />
            <path fill="none" stroke-width="3.0" stroke-linecap="butt" stroke-opacity="1.0" stroke="rgb(0, 0, 0)" stroke-linejoin="round" d=" M 1000.411, 599.756 990.412, 599.613 980.413, 599.469 970.414, 599.325 960.416, 599.182 950.417, 599.038 940.418, 598.894 930.419, 598.750 920.420, 598.607 910.421, 598.463 900.422, 598.319 893.867, 598.225 883.868, 598.081 880.285, 598.030 870.286, 597.886 860.287, 597.742 850.288, 597.599 841.527, 597.473 837.685, 597.418 " />
            <path fill="none" stroke-width="3.0" stroke-linecap="butt" stroke-opacity="1.0" stroke="rgb(0, 0, 0)" stroke-linejoin="round" d=" M 1000.411, 599.756 990.514, 598.328 980.616, 596.900 970.719, 595.472 960.821, 594.044 950.924, 592.616 941.026, 591.188 931.129, 589.760 921.231, 588.332 911.334, 586.904 901.436, 585.476 891.539, 584.048 881.641, 582.620 880.093, 582.397 870.196, 580.969 868.254, 580.689 858.356, 579.261 848.459, 577.833 838.561, 576.405 828.664, 574.977 827.540, 574.815 830.207, 565.177 832.873, 555.539 835.539, 545.901 837.685, 538.145 " />
            <path fill="none" stroke-width="3.0" stroke-linecap="butt" stroke-opacity="1.0" stroke="rgb(0, 0, 0)" stroke-linejoin="round" d=" M 1015.473, 567.136 1024.133, 565.065 1024.931, 564.874 1026.593, 564.477 1036.318, 562.151 1046.044, 559.825 1055.770, 557.499 1065.496, 555.173 1075.221, 552.847 1084.947, 550.521 1093.772, 548.410 1084.046, 546.084 1074.320, 543.758 1064.595, 541.432 1054.869, 539.106 1045.143, 536.780 1035.417, 534.454 1025.692, 532.128 1024.962, 531.954 " />
            <path fill="none" stroke-width="3.0" stroke-linecap="butt" stroke-opacity="1.0" stroke="rgb(0, 0, 0)" stroke-linejoin="round" d=" M 1093.772, 548.410 1084.033, 550.681 1074.294, 552.952 1064.556, 555.223 1054.817, 557.494 1045.078, 559.765 1035.339, 562.036 1026.465, 564.105 1016.727, 566.376 1015.431, 566.678 1012.108, 567.453 " />
            <path fill="none" stroke-width="3.0" stroke-linecap="butt" stroke-opacity="1.0" stroke="rgb(0, 0, 0)" stroke-linejoin="round" d=" M 919.962, 421.458 927.255, 414.616 934.547, 407.773 941.840, 400.931 944.719, 398.229 952.012, 391.387 957.759, 385.995 960.000, 383.892 969.927, 382.687 979.854, 381.482 989.781, 380.277 999.709, 379.073 1009.636, 377.868 1019.563, 376.663 1029.490, 375.458 1039.417, 374.253 1049.344, 373.048 1059.271, 371.843 1069.199, 370.638 1079.126, 369.433 1089.053, 368.228 1098.980, 367.023 1108.907, 365.818 1118.834, 364.614 1128.761, 363.409 1138.689, 362.204 1148.616, 360.999 1153.057, 360.460 1145.481, 366.986 1137.904, 373.513 1130.327, 380.039 1122.750, 386.565 1115.174, 393.092 1107.597, 399.618 1100.020, 406.144 1092.444, 412.671 1084.867, 419.197 1077.290, 425.723 1069.714, 432.250 1062.137, 438.776 1057.142, 443.078 1051.558, 442.198 1051.144, 442.133 1046.257, 441.363 1046.208, 441.355 1042.687, 440.800 1040.272, 440.419 1030.394, 438.863 1020.516, 437.306 1012.010, 435.965 1002.132, 434.408 992.254, 432.852 982.376, 431.295 972.498, 429.738 962.620, 428.181 952.742, 426.624 942.277, 424.975 938.874, 424.439 928.996, 422.882 919.962, 421.458 910.084, 419.901 900.206, 418.345 890.159, 416.761 880.249, 418.098 870.338, 419.435 865.051, 420.149 855.141, 421.486 845.231, 422.823 835.321, 424.160 830.148, 424.858 820.238, 426.195 810.328, 427.532 800.418, 428.869 790.508, 430.206 780.597, 431.543 770.687, 432.880 760.777, 434.217 759.901, 434.335 751.194, 439.253 742.487, 444.170 733.779, 449.087 726.786, 453.036 736.665, 454.593 746.543, 456.150 756.421, 457.707 766.299, 459.264 776.177, 460.820 786.055, 462.377 795.933, 463.934 805.811, 465.491 815.689, 467.048 825.567, 468.604 835.445, 470.161 845.323, 471.718 855.201, 473.275 863.364, 474.561 871.772, 475.886 881.009, 477.342 886.005, 478.130 893.770, 479.353 886.868, 486.589 879.965, 493.825 873.062, 501.060 866.160, 508.296 859.257, 515.531 853.081, 522.006 846.178, 529.241 839.724, 536.007 838.294, 537.506 837.685, 538.145 837.927, 536.976 838.434, 534.524 840.461, 524.732 842.488, 514.940 843.506, 510.024 844.737, 504.075 846.764, 494.282 847.829, 489.137 " />
            <path fill="none" stroke-width="3.0" stroke-linecap="butt" stroke-opacity="1.0" stroke="rgb(0, 0, 0)" stroke-linejoin="round" d=" M 960.000, 383.892 958.880, 386.490 954.918, 395.672 950.957, 404.853 946.996, 414.035 943.035, 423.217 942.277, 424.975 " />
            <path fill="none" stroke-width="3.0" stroke-linecap="butt" stroke-opacity="1.0" stroke="rgb(0, 0, 0)" stroke-linejoin="round" d=" M 957.759, 385.995 948.611, 381.956 939.463, 377.916 930.315, 373.877 921.167, 369.838 912.019, 365.799 902.871, 361.760 893.723, 357.721 890.159, 356.147 880.249, 357.484 870.338, 358.821 860.428, 360.158 850.518, 361.495 840.608, 362.832 830.697, 364.169 820.787, 365.506 810.877, 366.844 800.967, 368.181 791.057, 369.518 781.146, 370.855 771.236, 372.192 761.326, 373.529 759.901, 373.721 750.036, 375.359 740.172, 376.997 730.307, 378.635 726.786, 379.220 735.934, 383.259 745.082, 387.298 754.230, 391.337 763.378, 395.376 772.526, 399.416 781.674, 403.455 790.822, 407.494 799.970, 411.533 809.118, 415.572 818.266, 419.611 827.414, 423.650 830.148, 424.858 " />
            <path fill="none" stroke-width="3.0" stroke-linecap="butt" stroke-opacity="1.0" stroke="rgb(0, 0, 0)" stroke-linejoin="round" d=" M 1057.142, 443.078 1051.923, 451.608 1046.703, 460.138 1042.114, 467.637 " />
            <path fill="none" stroke-width="3.0" stroke-linecap="butt" stroke-opacity="1.0" stroke="rgb(0, 0, 0)" stroke-linejoin="round" d=" M 1042.114, 467.637 1039.104, 477.173 1036.094, 486.710 1033.084, 496.246 1030.074, 505.782 1027.064, 515.318 1024.054, 524.854 1022.034, 531.253 1019.024, 540.790 1018.766, 541.607 1015.756, 551.143 1014.412, 555.401 1012.641, 561.011 1009.631, 570.548 1006.621, 580.084 1003.611, 589.620 1000.601, 599.156 1000.411, 599.756 " />
            <path fill="none" stroke-width="3.0" stroke-linecap="butt" stroke-opacity="1.0" stroke="rgb(0, 0, 0)" stroke-linejoin="round" d=" M 875.130, 441.320 880.350, 432.790 885.570, 424.261 890.159, 416.761 " />
            <path fill="none" stroke-width="3.0" stroke-linecap="butt" stroke-opacity="1.0" stroke="rgb(0, 0, 0)" stroke-linejoin="round" d=" M 726.786, 453.036 736.755, 452.249 746.724, 451.462 756.693, 450.674 766.662, 449.887 776.631, 449.100 786.600, 448.312 796.569, 447.525 806.538, 446.737 816.507, 445.950 826.476, 445.163 836.445, 444.375 846.414, 443.588 856.383, 442.801 866.352, 442.013 868.601, 441.836 875.130, 441.320 " />
            <path fill="none" stroke-width="3.0" stroke-linecap="butt" stroke-opacity="1.0" stroke="rgb(0, 0, 0)" stroke-linejoin="round" d=" M 837.685, 538.145 839.112, 538.685 843.501, 540.347 852.853, 543.887 862.205, 547.428 871.557, 550.969 880.909, 554.510 890.261, 558.051 899.613, 561.592 908.965, 565.133 918.318, 568.674 927.670, 572.215 937.022, 575.756 946.374, 579.297 955.726, 582.837 965.078, 586.378 974.430, 589.919 983.782, 593.460 993.134, 597.001 1000.411, 599.756 993.781, 592.270 987.151, 584.784 980.521, 577.299 973.890, 569.813 967.260, 562.327 960.630, 554.841 953.999, 547.355 947.369, 539.869 940.739, 532.383 934.108, 524.897 927.478, 517.411 920.848, 509.925 914.217, 502.439 907.587, 494.953 900.957, 487.467 898.809, 485.043 893.770, 479.353 903.739, 478.566 906.518, 478.347 916.487, 477.559 925.895, 476.816 935.864, 476.029 945.833, 475.242 955.802, 474.454 965.771, 473.667 975.740, 472.879 985.709, 472.092 995.678, 471.305 1005.647, 470.517 1015.615, 469.730 1025.584, 468.943 1035.816, 468.135 1039.951, 467.808 1042.114, 467.637 1040.168, 467.330 1036.361, 466.730 1026.483, 465.174 1016.604, 463.617 1006.726, 462.060 996.848, 460.503 986.970, 458.946 977.092, 457.390 967.214, 455.833 965.090, 455.498 955.212, 453.941 945.334, 452.384 935.456, 450.828 925.578, 449.271 924.654, 449.125 914.776, 447.568 904.897, 446.011 895.390, 444.513 885.512, 442.956 875.634, 441.399 875.130, 441.320 " />
            <path fill="none" stroke-width="3.0" stroke-linecap="butt" stroke-opacity="1.0" stroke="rgb(0, 0, 0)" stroke-linejoin="round" d=" M 865.051, 420.149 855.903, 416.109 846.755, 412.070 837.608, 408.031 828.460, 403.992 819.312, 399.953 810.164, 395.914 801.016, 391.875 791.868, 387.835 782.720, 383.796 773.572, 379.757 764.424, 375.718 759.901, 373.721 " />
            <path fill="none" stroke-width="3.0" stroke-linecap="butt" stroke-opacity="1.0" stroke="rgb(0, 0, 0)" stroke-linejoin="round" d=" M 958.690, 710.414 960.000, 712.928 " />
            <path fill="none" stroke-width="3.0" stroke-linecap="butt" stroke-opacity="1.0" stroke="rgb(0, 0, 0)" stroke-linejoin="round" d=" M 1024.931, 564.874 1028.339, 574.275 1031.747, 583.677 1035.154, 593.078 1038.562, 602.480 1041.970, 611.881 1045.377, 621.283 1048.785, 630.684 1052.193, 640.086 1055.600, 649.487 1057.142, 653.742 1052.228, 655.173 " />
        </g>
    </g>
</svg>
