<?xml version='1.0' encoding='ascii'?>
<svg xmlns="http://www.w3.org/2000/svg" version="1.1" width="1920" height="1080">
    <g id="ViewLayer_LineSet" xmlns:inkscape="http://www.inkscape.org/namespaces/inkscape" inkscape:groupmode="lineset" inkscape:label="ViewLayer_LineSet">
        <g xmlns:inkscape="http://www.inkscape.org/namespaces/inkscape" inkscape:groupmode="layer" id="strokes" inkscape:label="strokes">
            <path fill="none" stroke-width="3.0" stroke-linecap="butt" stroke-opacity="1.0" stroke="rgb(0, 0, 0)" stroke-linejoin="round" d=" M 1057.142, 479.236 1065.547, 473.818 1073.952, 468.399 1082.356, 462.981 1090.761, 457.562 1099.166, 452.143 1107.571, 446.725 1115.975, 441.306 1124.380, 435.888 1132.785, 430.469 1141.189, 425.051 1149.594, 419.632 1153.057, 417.399 1143.094, 418.254 1133.130, 419.109 1123.167, 419.965 1113.204, 420.820 1103.240, 421.675 1093.277, 422.530 1083.314, 423.385 1073.350, 424.240 1063.387, 425.095 1053.424, 425.950 1043.460, 426.805 1033.497, 427.661 1023.533, 428.516 1013.570, 429.371 1003.607, 430.226 993.643, 431.081 983.680, 431.936 977.749, 432.445 " />
            <path fill="none" stroke-width="3.0" stroke-linecap="butt" stroke-opacity="1.0" stroke="rgb(0, 0, 0)" stroke-linejoin="round" d=" M 723.517, 550.300 733.067, 547.332 742.616, 544.363 752.165, 541.394 761.714, 538.426 771.263, 535.457 780.812, 532.488 790.362, 529.520 799.911, 526.551 809.460, 523.582 819.009, 520.614 827.540, 517.961 " />
            <path fill="none" stroke-width="3.0" stroke-linecap="butt" stroke-opacity="1.0" stroke="rgb(0, 0, 0)" stroke-linejoin="round" d=" M 875.130, 403.275 865.146, 403.832 855.162, 404.390 845.177, 404.948 835.193, 405.505 825.208, 406.063 815.224, 406.620 805.239, 407.178 794.745, 407.764 784.761, 408.322 774.776, 408.879 764.792, 409.437 754.807, 409.995 744.823, 410.552 734.839, 411.110 726.786, 411.559 736.117, 415.158 745.447, 418.757 754.777, 422.355 764.107, 425.954 773.437, 429.552 782.767, 433.151 792.097, 436.750 801.427, 440.348 810.757, 443.947 820.087, 447.545 829.417, 451.144 838.747, 454.743 848.077, 458.341 857.407, 461.940 866.737, 465.538 876.068, 469.137 886.680, 473.230 889.212, 474.207 893.770, 475.965 885.325, 481.320 883.005, 482.791 874.560, 488.146 872.282, 489.591 864.933, 494.251 856.488, 499.606 848.042, 504.961 845.651, 506.477 837.206, 511.833 836.744, 512.125 828.299, 517.480 827.540, 517.961 834.193, 525.428 840.845, 532.894 841.065, 533.142 841.977, 534.165 848.629, 541.631 850.036, 543.210 850.785, 544.051 857.437, 551.517 864.089, 558.983 869.189, 564.707 875.841, 572.174 882.494, 579.640 887.310, 585.045 893.770, 592.297 884.242, 592.658 874.249, 593.038 864.256, 593.417 854.263, 593.796 851.855, 593.888 850.435, 593.942 840.443, 594.321 840.049, 594.336 837.242, 594.442 827.249, 594.822 817.257, 595.201 807.264, 595.580 797.271, 595.959 787.278, 596.339 777.285, 596.718 767.293, 597.097 757.300, 597.477 747.307, 597.856 737.314, 598.235 726.786, 598.635 735.722, 603.125 744.657, 607.615 753.592, 612.105 759.901, 615.275 769.856, 616.225 779.811, 617.175 789.766, 618.124 799.721, 619.074 809.675, 620.024 819.630, 620.973 829.585, 621.923 839.540, 622.873 849.495, 623.823 859.449, 624.772 869.404, 625.722 879.359, 626.672 886.680, 627.370 890.159, 627.702 900.151, 627.323 900.718, 627.301 910.711, 626.922 920.703, 626.543 923.430, 626.439 925.001, 626.380 927.815, 626.273 935.895, 625.966 936.643, 625.938 946.636, 625.558 956.628, 625.179 966.621, 624.800 976.614, 624.421 986.607, 624.041 996.600, 623.662 1006.592, 623.283 1016.585, 622.904 1020.623, 622.750 1022.528, 622.678 1032.521, 622.299 1042.513, 621.919 1044.217, 621.855 1046.031, 621.786 1048.227, 621.703 1057.142, 621.364 1065.547, 626.783 1073.952, 632.201 1082.356, 637.620 1090.761, 643.038 1099.166, 648.457 1107.571, 653.876 1115.975, 659.294 1124.380, 664.713 1132.785, 670.131 1141.189, 675.550 1149.594, 680.968 1153.057, 683.201 1143.094, 682.346 1133.130, 681.491 1123.167, 680.636 1113.204, 679.781 1103.240, 678.926 1093.277, 678.071 1083.314, 677.215 1073.350, 676.360 1063.387, 675.505 1053.424, 674.650 1043.460, 673.795 1033.497, 672.940 1023.533, 672.085 1013.570, 671.230 1003.607, 670.375 993.643, 669.519 983.680, 668.664 977.749, 668.155 967.786, 667.300 960.000, 666.632 958.055, 665.342 949.722, 659.813 941.389, 654.285 933.057, 648.756 924.724, 643.228 916.391, 637.700 908.246, 632.296 900.718, 627.301 " />
            <path fill="none" stroke-width="3.0" stroke-linecap="butt" stroke-opacity="1.0" stroke="rgb(0, 0, 0)" stroke-linejoin="round" d=" M 794.745, 407.764 804.700, 406.814 814.655, 405.865 824.610, 404.915 834.564, 403.965 844.519, 403.016 854.474, 402.066 864.429, 401.116 874.384, 400.166 884.338, 399.217 890.159, 398.661 899.489, 402.260 908.819, 405.859 918.149, 409.457 927.479, 413.056 936.809, 416.654 946.139, 420.253 955.469, 423.852 964.799, 427.450 974.129, 431.049 977.749, 432.445 987.080, 436.044 996.410, 439.642 1005.740, 443.241 1015.070, 446.840 1024.400, 450.438 1033.730, 454.037 1043.060, 457.635 1052.390, 461.234 1057.142, 463.067 1066.171, 458.768 1075.200, 454.469 1084.229, 450.170 1093.258, 445.871 1102.286, 441.573 1111.315, 437.274 1120.344, 432.975 1129.373, 428.676 1138.402, 424.377 1147.431, 420.078 1153.057, 417.399 1144.219, 422.076 1135.380, 426.754 1126.541, 431.431 1117.702, 436.108 1108.864, 440.786 1100.025, 445.463 1091.186, 450.140 1082.348, 454.818 1073.509, 459.495 1064.670, 464.172 1055.831, 468.849 1051.412, 471.188 " />
            <path fill="none" stroke-width="3.0" stroke-linecap="butt" stroke-opacity="1.0" stroke="rgb(0, 0, 0)" stroke-linejoin="round" d=" M 893.770, 475.965 896.969, 475.786 906.953, 475.229 916.938, 474.671 925.001, 474.221 934.985, 473.663 944.970, 473.106 954.954, 472.548 961.729, 472.170 971.713, 471.612 981.698, 471.054 991.682, 470.497 1001.666, 469.939 1011.651, 469.382 1021.635, 468.824 1031.620, 468.266 1042.114, 467.680 " />
            <path fill="none" stroke-width="3.0" stroke-linecap="butt" stroke-opacity="1.0" stroke="rgb(0, 0, 0)" stroke-linejoin="round" d=" M 1042.114, 467.680 1035.505, 465.131 1026.175, 461.533 1016.845, 457.934 1007.515, 454.335 998.185, 450.737 988.855, 447.138 979.525, 443.540 970.195, 439.941 960.864, 436.342 958.055, 435.259 948.725, 431.660 939.395, 428.062 930.065, 424.463 920.735, 420.864 911.405, 417.266 902.075, 413.667 892.745, 410.069 883.415, 406.470 875.130, 403.275 884.690, 400.340 890.159, 398.661 " />
            <path fill="none" stroke-width="3.0" stroke-linecap="butt" stroke-opacity="1.0" stroke="rgb(0, 0, 0)" stroke-linejoin="round" d=" M 1014.484, 523.525 1020.249, 515.355 1026.014, 507.184 1030.616, 500.661 1031.358, 499.611 1037.123, 491.440 1039.899, 487.506 1044.910, 480.403 1046.031, 478.815 1048.855, 474.813 1051.412, 471.188 1057.142, 463.067 1047.583, 466.002 1042.114, 467.680 1036.983, 476.264 1035.693, 478.422 1033.880, 481.456 1028.749, 490.039 1023.618, 498.622 1018.487, 507.206 1013.356, 515.789 1012.058, 517.961 " />
            <path fill="none" stroke-width="3.0" stroke-linecap="butt" stroke-opacity="1.0" stroke="rgb(0, 0, 0)" stroke-linejoin="round" d=" M 1048.855, 474.813 1057.142, 479.236 1052.833, 488.260 1048.523, 497.284 1044.214, 506.307 1039.904, 515.331 1035.594, 524.355 1031.673, 532.566 " />
            <path fill="none" stroke-width="3.0" stroke-linecap="butt" stroke-opacity="1.0" stroke="rgb(0, 0, 0)" stroke-linejoin="round" d=" M 847.829, 592.213 845.194, 582.566 842.558, 572.920 839.923, 563.273 837.687, 555.088 835.050, 545.442 832.414, 535.796 829.778, 526.149 827.540, 517.961 837.540, 517.961 847.540, 517.961 857.540, 517.961 867.540, 517.961 877.540, 517.961 881.670, 517.961 888.683, 517.961 898.683, 517.961 908.683, 517.961 918.683, 517.961 928.683, 517.961 938.683, 517.961 948.683, 517.961 958.683, 517.961 968.683, 517.961 978.683, 517.961 988.683, 517.961 998.683, 517.961 1008.683, 517.961 1012.058, 517.961 1014.158, 523.735 1014.219, 523.901 1015.712, 528.007 1019.131, 537.405 1022.550, 546.802 1025.311, 554.394 1028.730, 563.791 1030.406, 568.397 1033.824, 577.794 1037.243, 587.192 1040.662, 596.589 1042.114, 600.581 " />
            <path fill="none" stroke-width="3.0" stroke-linecap="butt" stroke-opacity="1.0" stroke="rgb(0, 0, 0)" stroke-linejoin="round" d=" M 759.901, 485.325 769.894, 485.705 779.887, 486.084 789.880, 486.463 799.873, 486.842 809.865, 487.222 819.858, 487.601 829.851, 487.980 839.844, 488.360 849.837, 488.739 859.829, 489.118 869.822, 489.497 872.282, 489.591 " />
            <path fill="none" stroke-width="3.0" stroke-linecap="butt" stroke-opacity="1.0" stroke="rgb(0, 0, 0)" stroke-linejoin="round" d=" M 886.680, 473.230 876.725, 474.180 866.770, 475.130 856.816, 476.079 846.861, 477.029 836.906, 477.979 826.951, 478.929 816.996, 479.878 807.042, 480.828 797.087, 481.778 787.132, 482.727 777.177, 483.677 767.222, 484.627 759.901, 485.325 750.966, 489.815 742.031, 494.305 733.096, 498.795 726.786, 501.966 736.779, 502.345 746.772, 502.724 756.765, 503.104 766.758, 503.483 776.751, 503.862 786.743, 504.241 796.736, 504.621 806.729, 505.000 816.722, 505.379 826.715, 505.759 836.707, 506.138 845.651, 506.477 " />
            <path fill="none" stroke-width="3.0" stroke-linecap="butt" stroke-opacity="1.0" stroke="rgb(0, 0, 0)" stroke-linejoin="round" d=" M 1033.645, 567.472 1043.260, 564.726 1052.876, 561.980 1062.491, 559.234 1072.107, 556.487 1081.723, 553.741 1091.338, 550.995 1093.772, 550.300 1084.156, 547.554 1074.541, 544.808 1064.925, 542.062 1055.310, 539.316 1045.694, 536.570 1036.078, 533.824 1034.245, 533.300 1031.673, 532.566 1030.268, 532.164 1020.653, 529.418 1019.414, 529.064 1016.541, 528.244 " />
            <path fill="none" stroke-width="3.0" stroke-linecap="butt" stroke-opacity="1.0" stroke="rgb(0, 0, 0)" stroke-linejoin="round" d=" M 836.744, 512.125 827.268, 515.320 817.792, 518.515 808.316, 521.710 798.840, 524.905 789.365, 528.100 779.889, 531.294 770.413, 534.489 760.937, 537.684 751.461, 540.879 741.985, 544.074 732.509, 547.269 723.517, 550.300 732.993, 553.495 742.469, 556.690 751.945, 559.885 761.421, 563.080 770.897, 566.274 780.373, 569.469 789.849, 572.664 799.325, 575.859 808.801, 579.054 818.276, 582.249 827.752, 585.444 830.648, 586.420 840.124, 589.615 847.829, 592.213 850.435, 593.942 " />
            <path fill="none" stroke-width="3.0" stroke-linecap="butt" stroke-opacity="1.0" stroke="rgb(0, 0, 0)" stroke-linejoin="round" d=" M 960.000, 666.632 955.022, 657.959 950.044, 649.286 945.066, 640.613 940.088, 631.940 936.703, 626.043 936.643, 625.938 " />
            <path fill="none" stroke-width="3.0" stroke-linecap="butt" stroke-opacity="1.0" stroke="rgb(0, 0, 0)" stroke-linejoin="round" d=" M 726.786, 598.635 736.771, 599.192 746.755, 599.750 756.740, 600.307 766.724, 600.865 776.709, 601.423 786.693, 601.980 796.678, 602.538 806.662, 603.095 816.646, 603.653 826.631, 604.211 836.615, 604.768 846.600, 605.326 856.584, 605.883 858.508, 605.991 868.493, 606.549 869.525, 606.606 875.130, 606.919 " />
            <path fill="none" stroke-width="3.0" stroke-linecap="butt" stroke-opacity="1.0" stroke="rgb(0, 0, 0)" stroke-linejoin="round" d=" M 890.159, 627.702 889.212, 626.393 884.333, 619.646 879.865, 613.466 875.130, 606.919 882.502, 606.639 892.495, 606.260 902.488, 605.881 912.481, 605.502 922.709, 605.113 932.702, 604.734 942.695, 604.355 952.688, 603.976 962.681, 603.596 972.674, 603.217 982.666, 602.838 992.659, 602.458 1002.652, 602.079 1003.694, 602.040 1005.156, 601.984 1015.149, 601.605 1025.141, 601.226 1033.885, 600.894 1036.453, 600.796 1042.114, 600.581 " />
            <path fill="none" stroke-width="3.0" stroke-linecap="butt" stroke-opacity="1.0" stroke="rgb(0, 0, 0)" stroke-linejoin="round" d=" M 1057.142, 621.364 1051.283, 613.261 1045.423, 605.157 1042.114, 600.581 1036.145, 600.248 1033.493, 600.100 1023.509, 599.542 1013.524, 598.985 1006.590, 598.597 1004.738, 598.494 994.753, 597.936 984.769, 597.379 974.785, 596.821 964.800, 596.264 954.816, 595.706 944.831, 595.148 934.847, 594.591 924.862, 594.033 914.878, 593.476 909.684, 593.186 899.700, 592.628 893.770, 592.297 " />
            <path fill="none" stroke-width="3.0" stroke-linecap="butt" stroke-opacity="1.0" stroke="rgb(0, 0, 0)" stroke-linejoin="round" d=" M 759.901, 689.512 769.856, 690.462 779.811, 691.412 789.766, 692.361 794.745, 692.836 804.700, 693.786 814.655, 694.736 824.610, 695.685 834.564, 696.635 844.519, 697.585 854.474, 698.535 864.429, 699.484 874.384, 700.434 884.338, 701.384 890.159, 701.939 899.489, 698.340 908.819, 694.742 918.149, 691.143 927.479, 687.545 936.809, 683.946 946.139, 680.347 955.469, 676.749 964.799, 673.150 974.129, 669.552 977.749, 668.155 " />
            <path fill="none" stroke-width="3.0" stroke-linecap="butt" stroke-opacity="1.0" stroke="rgb(0, 0, 0)" stroke-linejoin="round" d=" M 759.901, 689.512 749.902, 689.370 739.903, 689.228 729.904, 689.085 726.786, 689.041 " />
            <path fill="none" stroke-width="3.0" stroke-linecap="butt" stroke-opacity="1.0" stroke="rgb(0, 0, 0)" stroke-linejoin="round" d=" M 886.680, 627.370 877.350, 630.969 868.020, 634.567 858.690, 638.166 849.360, 641.765 840.030, 645.363 830.700, 648.962 821.370, 652.560 812.039, 656.159 802.709, 659.758 793.379, 663.356 784.049, 666.955 774.719, 670.553 765.389, 674.152 756.059, 677.751 746.729, 681.349 737.399, 684.948 726.786, 689.041 736.771, 689.599 746.755, 690.156 756.740, 690.714 766.724, 691.271 776.709, 691.829 786.693, 692.387 794.745, 692.836 " />
            <path fill="none" stroke-width="3.0" stroke-linecap="butt" stroke-opacity="1.0" stroke="rgb(0, 0, 0)" stroke-linejoin="round" d=" M 830.648, 586.420 836.998, 594.145 837.242, 594.442 " />
            <path fill="none" stroke-width="3.0" stroke-linecap="butt" stroke-opacity="1.0" stroke="rgb(0, 0, 0)" stroke-linejoin="round" d=" M 840.049, 594.336 847.829, 592.213 " />
            <path fill="none" stroke-width="3.0" stroke-linecap="butt" stroke-opacity="1.0" stroke="rgb(0, 0, 0)" stroke-linejoin="round" d=" M 908.246, 632.296 898.916, 635.894 889.586, 639.493 880.256, 643.092 870.926, 646.690 861.596, 650.289 852.265, 653.887 842.935, 657.486 833.605, 661.085 824.275, 664.683 814.945, 668.282 805.615, 671.880 796.285, 675.479 786.955, 679.078 777.625, 682.676 768.295, 686.275 759.901, 689.512 " />
            <path fill="none" stroke-width="3.0" stroke-linecap="butt" stroke-opacity="1.0" stroke="rgb(0, 0, 0)" stroke-linejoin="round" d=" M 887.310, 585.045 878.749, 579.877 870.188, 574.709 861.627, 569.541 853.066, 564.372 844.505, 559.204 837.687, 555.088 " />
            <path fill="none" stroke-width="3.0" stroke-linecap="butt" stroke-opacity="1.0" stroke="rgb(0, 0, 0)" stroke-linejoin="round" d=" M 1019.414, 529.064 1023.835, 520.095 1028.256, 511.125 1032.677, 502.156 1037.099, 493.186 1039.899, 487.506 " />
            <path fill="none" stroke-width="3.0" stroke-linecap="butt" stroke-opacity="1.0" stroke="rgb(0, 0, 0)" stroke-linejoin="round" d=" M 1030.801, 560.949 1040.661, 559.282 1050.521, 557.614 1060.381, 555.947 1070.241, 554.280 1080.101, 552.612 1089.961, 550.945 1093.772, 550.300 " />
        </g>
    </g>
</svg>
