<?xml version='1.0' encoding='ascii'?>
<svg xmlns="http://www.w3.org/2000/svg" version="1.1" width="1920" height="1080">
    <g id="ViewLayer_LineSet" xmlns:inkscape="http://www.inkscape.org/namespaces/inkscape" inkscape:groupmode="lineset" inkscape:label="ViewLayer_LineSet">
        <g xmlns:inkscape="http://www.inkscape.org/namespaces/inkscape" inkscape:groupmode="layer" id="strokes" inkscape:label="strokes">
            <path fill="none" stroke-width="3.0" stroke-linecap="butt" stroke-opacity="1.0" stroke="rgb(0, 0, 0)" stroke-linejoin="round" d=" M 1015.345, 488.812 1005.776, 485.907 996.207, 483.002 986.638, 480.098 977.070, 477.193 967.501, 474.288 957.932, 471.383 948.363, 468.478 938.794, 465.573 929.226, 462.668 919.657, 459.763 910.088, 456.858 900.519, 453.954 890.159, 450.808 880.288, 449.203 875.130, 448.364 865.135, 448.653 855.139, 448.942 845.143, 449.231 835.147, 449.520 825.151, 449.809 815.156, 450.098 805.160, 450.387 795.164, 450.676 785.168, 450.965 775.172, 451.254 765.176, 451.543 755.181, 451.832 745.185, 452.121 735.189, 452.410 726.786, 452.652 736.355, 455.557 745.924, 458.462 755.493, 461.367 765.062, 464.272 774.630, 467.177 784.199, 470.082 793.768, 472.987 803.337, 475.892 812.906, 478.796 822.474, 481.701 832.043, 484.606 841.612, 487.511 851.181, 490.416 860.749, 493.321 870.318, 496.226 879.887, 499.131 889.456, 502.036 893.770, 503.345 883.932, 505.139 874.094, 506.932 864.257, 508.726 854.419, 510.519 844.581, 512.313 834.743, 514.106 827.540, 515.420 818.092, 518.696 808.644, 521.972 799.196, 525.248 789.748, 528.524 780.300, 531.800 770.851, 535.076 761.403, 538.352 751.955, 541.628 742.507, 544.904 733.059, 548.180 729.090, 549.556 728.794, 549.659 727.936, 549.957 723.517, 551.489 727.936, 553.021 " />
            <path fill="none" stroke-width="3.0" stroke-linecap="butt" stroke-opacity="1.0" stroke="rgb(0, 0, 0)" stroke-linejoin="round" d=" M 1153.057, 620.283 1143.244, 618.359 1133.431, 616.435 1123.618, 614.511 1113.805, 612.587 1103.992, 610.663 1094.178, 608.738 1084.365, 606.814 1074.552, 604.890 1064.739, 602.966 1057.142, 601.476 " />
            <path fill="none" stroke-width="3.0" stroke-linecap="butt" stroke-opacity="1.0" stroke="rgb(0, 0, 0)" stroke-linejoin="round" d=" M 1020.747, 614.405 1030.737, 614.849 1040.727, 615.293 1050.717, 615.737 1060.707, 616.181 1070.697, 616.624 1080.688, 617.068 1090.678, 617.512 1100.668, 617.956 1110.658, 618.400 1120.648, 618.844 1130.638, 619.287 1140.628, 619.731 1150.619, 620.175 1153.057, 620.283 1143.722, 616.698 1134.387, 613.112 1125.052, 609.526 1115.717, 605.941 1106.382, 602.355 1097.047, 598.769 1087.712, 595.184 1078.377, 591.598 1069.042, 588.012 1059.707, 584.427 1057.142, 583.442 " />
            <path fill="none" stroke-width="3.0" stroke-linecap="butt" stroke-opacity="1.0" stroke="rgb(0, 0, 0)" stroke-linejoin="round" d=" M 726.786, 549.490 728.794, 549.659 " />
            <path fill="none" stroke-width="3.0" stroke-linecap="butt" stroke-opacity="1.0" stroke="rgb(0, 0, 0)" stroke-linejoin="round" d=" M 1057.142, 601.476 1048.312, 596.784 1039.481, 592.091 1030.651, 587.398 1021.990, 582.796 " />
            <path fill="none" stroke-width="3.0" stroke-linecap="butt" stroke-opacity="1.0" stroke="rgb(0, 0, 0)" stroke-linejoin="round" d=" M 1153.057, 620.283 1143.413, 617.641 1133.768, 614.999 1124.123, 612.358 1114.479, 609.716 1104.834, 607.074 1095.189, 604.432 1085.544, 601.790 1075.900, 599.148 1066.255, 596.506 1056.610, 593.864 1047.334, 591.323 " />
            <path fill="none" stroke-width="3.0" stroke-linecap="butt" stroke-opacity="1.0" stroke="rgb(0, 0, 0)" stroke-linejoin="round" d=" M 891.815, 600.226 882.246, 603.131 872.677, 606.035 863.109, 608.940 853.540, 611.845 843.971, 614.750 834.402, 617.655 824.833, 620.560 815.265, 623.465 805.696, 626.370 796.127, 629.275 786.558, 632.179 776.990, 635.084 767.421, 637.989 757.852, 640.894 748.283, 643.799 738.714, 646.704 729.146, 649.609 726.786, 650.325 736.782, 650.614 746.778, 650.903 756.774, 651.192 766.770, 651.481 776.766, 651.770 786.761, 652.059 796.757, 652.348 806.753, 652.637 816.749, 652.926 826.745, 653.215 836.741, 653.504 846.736, 653.793 856.732, 654.082 866.728, 654.370 875.130, 654.613 885.001, 653.008 890.159, 652.169 899.727, 649.264 909.296, 646.359 918.865, 643.454 928.434, 640.550 938.003, 637.645 947.571, 634.740 957.140, 631.835 966.709, 628.930 976.278, 626.025 985.847, 623.120 994.559, 620.475 " />
            <path fill="none" stroke-width="3.0" stroke-linecap="butt" stroke-opacity="1.0" stroke="rgb(0, 0, 0)" stroke-linejoin="round" d=" M 729.090, 549.556 726.786, 549.490 727.936, 549.957 " />
            <path fill="none" stroke-width="3.0" stroke-linecap="butt" stroke-opacity="1.0" stroke="rgb(0, 0, 0)" stroke-linejoin="round" d=" M 875.130, 654.613 884.699, 651.708 894.268, 648.804 903.837, 645.899 913.406, 642.994 922.974, 640.089 932.543, 637.184 942.112, 634.279 951.681, 631.374 961.250, 628.469 970.818, 625.565 980.387, 622.660 990.328, 619.642 " />
            <path fill="none" stroke-width="3.0" stroke-linecap="butt" stroke-opacity="1.0" stroke="rgb(0, 0, 0)" stroke-linejoin="round" d=" M 729.090, 553.421 738.538, 556.697 747.987, 559.973 757.435, 563.249 766.883, 566.525 776.331, 569.801 785.779, 573.078 795.227, 576.354 804.675, 579.630 814.124, 582.906 823.572, 586.182 827.540, 587.558 837.352, 589.492 847.163, 591.425 856.974, 593.359 866.785, 595.293 876.597, 597.226 886.408, 599.160 891.815, 600.226 901.626, 602.159 902.729, 602.377 912.541, 604.311 922.352, 606.244 932.163, 608.178 941.974, 610.112 951.786, 612.045 961.597, 613.979 971.408, 615.913 981.220, 617.846 990.328, 619.642 994.559, 620.475 1000.411, 621.629 " />
            <path fill="none" stroke-width="3.0" stroke-linecap="butt" stroke-opacity="1.0" stroke="rgb(0, 0, 0)" stroke-linejoin="round" d=" M 1027.690, 572.538 1028.688, 572.220 1028.834, 572.173 1038.362, 569.138 1042.182, 567.922 1044.500, 567.183 1046.041, 566.693 1055.569, 563.657 1065.098, 560.622 1074.626, 557.587 1084.154, 554.552 1093.772, 551.489 1084.244, 548.454 1074.715, 545.419 1065.187, 542.384 1055.659, 539.348 1047.565, 536.770 " />
            <path fill="none" stroke-width="3.0" stroke-linecap="butt" stroke-opacity="1.0" stroke="rgb(0, 0, 0)" stroke-linejoin="round" d=" M 827.540, 587.558 831.983, 578.599 836.426, 569.640 836.548, 569.396 837.685, 567.102 " />
            <path fill="none" stroke-width="3.0" stroke-linecap="butt" stroke-opacity="1.0" stroke="rgb(0, 0, 0)" stroke-linejoin="round" d=" M 873.876, 549.236 865.253, 553.493 864.186, 554.019 855.219, 558.446 851.987, 560.042 844.510, 563.733 844.510, 563.733 838.284, 566.807 837.685, 567.102 840.309, 557.453 841.572, 552.808 842.295, 550.148 " />
            <path fill="none" stroke-width="3.0" stroke-linecap="butt" stroke-opacity="1.0" stroke="rgb(0, 0, 0)" stroke-linejoin="round" d=" M 847.829, 529.793 847.414, 529.866 837.563, 531.585 827.711, 533.304 817.860, 535.024 816.384, 535.281 " />
            <path fill="none" stroke-width="3.0" stroke-linecap="butt" stroke-opacity="1.0" stroke="rgb(0, 0, 0)" stroke-linejoin="round" d=" M 1057.142, 519.536 1066.477, 515.950 1075.812, 512.364 1085.147, 508.779 1094.483, 505.193 1103.818, 501.607 1113.153, 498.022 1122.488, 494.436 1131.823, 490.850 1141.158, 487.265 1150.493, 483.679 1153.057, 482.694 1143.067, 483.138 1133.077, 483.582 1123.087, 484.026 1113.097, 484.469 1103.107, 484.913 1093.116, 485.357 1083.126, 485.801 1073.136, 486.245 1063.146, 486.689 1053.156, 487.132 1043.166, 487.576 1033.176, 488.020 1023.185, 488.464 1015.345, 488.812 1009.259, 489.083 999.268, 489.526 989.278, 489.970 979.288, 490.414 969.298, 490.858 960.000, 491.271 950.542, 494.519 941.084, 497.767 931.627, 501.015 927.698, 502.364 918.709, 505.452 915.909, 506.413 907.151, 509.421 897.693, 512.669 897.320, 512.797 889.683, 515.420 880.226, 518.668 870.768, 521.916 861.310, 525.164 851.852, 528.412 849.693, 529.153 847.829, 529.793 " />
            <path fill="none" stroke-width="3.0" stroke-linecap="butt" stroke-opacity="1.0" stroke="rgb(0, 0, 0)" stroke-linejoin="round" d=" M 960.000, 491.271 953.096, 498.505 946.192, 505.739 944.949, 507.042 938.044, 514.276 931.140, 521.510 926.885, 525.968 " />
            <path fill="none" stroke-width="3.0" stroke-linecap="butt" stroke-opacity="1.0" stroke="rgb(0, 0, 0)" stroke-linejoin="round" d=" M 926.885, 525.968 936.873, 525.475 946.861, 524.982 956.849, 524.489 966.836, 523.995 976.824, 523.502 986.812, 523.009 996.800, 522.516 1006.788, 522.022 1012.058, 521.762 1016.128, 521.561 1026.116, 521.068 1036.104, 520.575 1046.092, 520.081 1056.080, 519.588 1057.142, 519.536 1047.178, 520.375 1037.213, 521.215 1027.248, 522.055 1017.027, 522.917 1012.058, 523.335 1002.093, 524.175 992.128, 525.015 982.164, 525.855 972.199, 526.695 962.234, 527.534 952.270, 528.374 942.305, 529.214 932.340, 530.054 922.376, 530.894 914.824, 531.530 904.859, 532.370 894.895, 533.210 890.159, 533.609 880.171, 534.102 870.183, 534.595 860.195, 535.089 859.335, 535.131 854.955, 535.347 844.967, 535.841 834.979, 536.334 824.991, 536.827 815.003, 537.320 805.016, 537.814 795.028, 538.307 785.040, 538.800 775.052, 539.293 765.064, 539.787 759.901, 540.042 750.636, 543.804 741.371, 547.566 737.885, 548.981 735.978, 549.755 734.940, 550.177 731.710, 551.489 729.247, 552.489 727.936, 553.021 726.786, 553.488 729.090, 553.421 733.808, 553.285 735.978, 553.222 745.974, 552.933 755.970, 552.644 762.108, 552.467 772.104, 552.178 782.100, 551.889 792.095, 551.600 795.935, 551.489 805.931, 551.200 815.926, 550.911 825.922, 550.622 835.918, 550.333 839.764, 550.222 839.765, 550.222 840.663, 550.196 842.295, 550.148 852.291, 549.860 852.802, 549.845 862.797, 549.556 872.793, 549.267 873.876, 549.236 874.053, 549.230 875.130, 549.199 876.816, 549.057 881.202, 548.688 891.167, 547.848 901.131, 547.008 903.375, 546.819 913.339, 545.979 923.304, 545.139 933.269, 544.299 943.233, 543.460 953.198, 542.620 963.163, 541.780 973.127, 540.940 983.092, 540.100 993.057, 539.260 1003.021, 538.421 1013.314, 537.553 1014.198, 537.479 1020.960, 536.909 1022.993, 536.737 1024.219, 536.634 1026.018, 536.483 1035.983, 535.643 1042.114, 535.126 " />
            <path fill="none" stroke-width="3.0" stroke-linecap="butt" stroke-opacity="1.0" stroke="rgb(0, 0, 0)" stroke-linejoin="round" d=" M 827.540, 515.420 835.701, 521.199 837.687, 522.606 845.846, 528.388 847.829, 529.793 847.744, 530.106 847.040, 532.698 " />
            <path fill="none" stroke-width="3.0" stroke-linecap="butt" stroke-opacity="1.0" stroke="rgb(0, 0, 0)" stroke-linejoin="round" d=" M 1057.142, 519.536 1050.202, 526.735 1043.262, 533.935 1042.182, 535.056 1042.114, 535.126 1037.771, 544.134 1034.958, 549.970 1030.615, 558.978 1026.953, 566.574 1026.554, 567.402 1025.779, 569.011 1025.729, 569.113 1023.423, 573.897 1019.080, 582.905 1014.737, 591.913 1011.220, 599.208 1009.404, 602.975 1005.062, 611.983 1004.247, 613.672 1002.066, 618.196 1000.411, 621.629 " />
            <path fill="none" stroke-width="3.0" stroke-linecap="butt" stroke-opacity="1.0" stroke="rgb(0, 0, 0)" stroke-linejoin="round" d=" M 926.885, 525.968 916.920, 526.808 906.956, 527.648 896.991, 528.488 887.026, 529.328 877.062, 530.167 867.097, 531.007 857.132, 531.847 854.408, 532.077 850.866, 532.375 847.040, 532.698 846.802, 532.718 836.838, 533.557 833.996, 533.797 833.995, 533.797 824.031, 534.637 816.384, 535.281 806.419, 536.121 796.454, 536.961 786.490, 537.801 776.525, 538.641 766.560, 539.480 759.901, 540.042 " />
            <path fill="none" stroke-width="3.0" stroke-linecap="butt" stroke-opacity="1.0" stroke="rgb(0, 0, 0)" stroke-linejoin="round" d=" M 726.786, 452.652 736.692, 454.025 746.597, 455.397 756.503, 456.770 759.901, 457.241 769.889, 456.748 779.877, 456.254 789.865, 455.761 799.853, 455.268 809.841, 454.775 819.828, 454.281 829.816, 453.788 839.804, 453.295 849.792, 452.802 859.780, 452.309 869.768, 451.815 879.755, 451.322 890.159, 450.808 " />
            <path fill="none" stroke-width="3.0" stroke-linecap="butt" stroke-opacity="1.0" stroke="rgb(0, 0, 0)" stroke-linejoin="round" d=" M 875.130, 549.199 876.203, 548.087 877.710, 546.523 884.650, 539.323 890.159, 533.609 " />
            <path fill="none" stroke-width="3.0" stroke-linecap="butt" stroke-opacity="1.0" stroke="rgb(0, 0, 0)" stroke-linejoin="round" d=" M 837.685, 567.102 847.211, 570.294 856.693, 573.471 866.175, 576.649 875.657, 579.826 885.138, 583.003 893.630, 585.848 903.112, 589.026 912.594, 592.203 922.076, 595.380 931.557, 598.557 938.636, 600.929 948.118, 604.106 957.600, 607.284 967.082, 610.461 972.450, 612.260 981.932, 615.437 991.414, 618.614 995.823, 620.092 1000.411, 621.629 997.684, 619.527 989.765, 613.421 989.225, 613.005 981.305, 606.899 974.922, 601.978 968.600, 597.104 960.680, 590.998 952.760, 584.892 944.841, 578.787 936.921, 572.681 929.001, 566.576 926.314, 564.504 918.394, 558.398 916.976, 557.305 909.056, 551.199 903.375, 546.819 " />
            <path fill="none" stroke-width="3.0" stroke-linecap="butt" stroke-opacity="1.0" stroke="rgb(0, 0, 0)" stroke-linejoin="round" d=" M 737.885, 548.981 733.808, 549.693 729.247, 550.489 723.517, 551.489 " />
            <path fill="none" stroke-width="3.0" stroke-linecap="butt" stroke-opacity="1.0" stroke="rgb(0, 0, 0)" stroke-linejoin="round" d=" M 897.320, 512.797 887.452, 514.420 877.585, 516.043 867.718, 517.666 857.850, 519.289 847.983, 520.912 838.829, 522.418 837.687, 522.606 " />
            <path fill="none" stroke-width="3.0" stroke-linecap="butt" stroke-opacity="1.0" stroke="rgb(0, 0, 0)" stroke-linejoin="round" d=" M 915.909, 506.413 906.004, 505.040 896.098, 503.668 893.770, 503.345 " />
            <path fill="none" stroke-width="3.0" stroke-linecap="butt" stroke-opacity="1.0" stroke="rgb(0, 0, 0)" stroke-linejoin="round" d=" M 918.709, 505.452 909.140, 502.547 899.571, 499.642 890.002, 496.737 880.433, 493.832 870.865, 490.927 861.296, 488.022 851.727, 485.117 842.158, 482.212 832.590, 479.308 823.021, 476.403 813.452, 473.498 803.883, 470.593 794.314, 467.688 784.746, 464.783 775.177, 461.878 765.608, 458.973 759.901, 457.241 " />
            <path fill="none" stroke-width="3.0" stroke-linecap="butt" stroke-opacity="1.0" stroke="rgb(0, 0, 0)" stroke-linejoin="round" d=" M 1044.500, 567.183 1050.639, 575.078 1056.777, 582.972 1057.142, 583.442 1049.103, 589.389 1046.982, 590.959 " />
            <path fill="none" stroke-width="3.0" stroke-linecap="butt" stroke-opacity="1.0" stroke="rgb(0, 0, 0)" stroke-linejoin="round" d=" M 1041.909, 546.949 1051.871, 547.821 1061.833, 548.693 1071.795, 549.565 1081.757, 550.437 1091.719, 551.309 1093.772, 551.489 " />
        </g>
    </g>
</svg>
