<?xml version='1.0' encoding='ascii'?>
<svg xmlns="http://www.w3.org/2000/svg" version="1.1" width="1920" height="1080">
    <g id="ViewLayer_LineSet" xmlns:inkscape="http://www.inkscape.org/namespaces/inkscape" inkscape:groupmode="lineset" inkscape:label="ViewLayer_LineSet">
        <g xmlns:inkscape="http://www.inkscape.org/namespaces/inkscape" inkscape:groupmode="layer" id="strokes" inkscape:label="strokes">
            <path fill="none" stroke-width="3.0" stroke-linecap="butt" stroke-opacity="1.0" stroke="rgb(0, 0, 0)" stroke-linejoin="round" d=" M 827.540, 582.639 817.991, 579.671 808.442, 576.702 798.893, 573.733 789.344, 570.765 779.794, 567.796 770.245, 564.827 760.696, 561.859 751.147, 558.890 741.598, 555.921 732.048, 552.953 723.517, 550.300 " />
            <path fill="none" stroke-width="3.0" stroke-linecap="butt" stroke-opacity="1.0" stroke="rgb(0, 0, 0)" stroke-linejoin="round" d=" M 850.435, 506.659 847.829, 508.388 838.354, 511.583 836.744, 512.126 827.268, 515.320 817.792, 518.515 808.316, 521.710 798.840, 524.905 789.365, 528.100 779.889, 531.295 770.413, 534.490 760.937, 537.684 751.461, 540.879 741.985, 544.074 732.509, 547.269 723.517, 550.300 732.993, 553.495 742.469, 556.690 751.945, 559.885 761.421, 563.080 770.897, 566.275 780.373, 569.470 789.849, 572.664 799.325, 575.859 808.801, 579.054 818.276, 582.249 827.752, 585.444 830.648, 586.420 " />
            <path fill="none" stroke-width="3.0" stroke-linecap="butt" stroke-opacity="1.0" stroke="rgb(0, 0, 0)" stroke-linejoin="round" d=" M 827.540, 582.639 830.648, 586.420 836.998, 594.145 837.242, 594.443 837.685, 594.981 846.525, 599.655 855.366, 604.330 858.508, 605.991 867.348, 610.665 868.287, 611.162 877.127, 615.836 884.333, 619.646 893.173, 624.320 893.770, 624.636 889.212, 626.394 886.680, 627.370 877.350, 630.969 868.020, 634.568 858.690, 638.166 849.360, 641.765 840.030, 645.363 830.700, 648.962 821.370, 652.561 812.039, 656.159 802.709, 659.758 793.379, 663.356 784.049, 666.955 774.719, 670.554 765.389, 674.152 756.059, 677.751 746.729, 681.349 737.399, 684.948 726.786, 689.041 736.771, 689.599 746.755, 690.156 756.740, 690.714 766.724, 691.272 776.709, 691.829 786.693, 692.387 794.745, 692.837 804.730, 693.394 814.714, 693.952 824.698, 694.509 834.683, 695.067 844.667, 695.625 854.652, 696.182 864.636, 696.740 875.130, 697.326 " />
            <path fill="none" stroke-width="3.0" stroke-linecap="butt" stroke-opacity="1.0" stroke="rgb(0, 0, 0)" stroke-linejoin="round" d=" M 1153.057, 683.201 1144.028, 678.903 1135.000, 674.604 1125.971, 670.305 1116.942, 666.006 1107.913, 661.707 1098.884, 657.408 1089.855, 653.109 1080.827, 648.811 1071.798, 644.512 1062.769, 640.213 1057.142, 637.534 1047.812, 641.132 1038.482, 644.731 1029.152, 648.330 1019.822, 651.928 1010.492, 655.527 1001.162, 659.125 991.832, 662.724 982.502, 666.323 977.749, 668.156 968.419, 671.754 959.089, 675.353 949.759, 678.951 940.429, 682.550 931.099, 686.149 921.769, 689.747 912.439, 693.346 903.109, 696.944 893.779, 700.543 890.159, 701.939 880.204, 700.990 870.249, 700.040 860.294, 699.090 850.340, 698.140 840.385, 697.191 830.430, 696.241 820.475, 695.291 810.520, 694.342 800.565, 693.392 794.745, 692.837 " />
            <path fill="none" stroke-width="3.0" stroke-linecap="butt" stroke-opacity="1.0" stroke="rgb(0, 0, 0)" stroke-linejoin="round" d=" M 977.749, 668.156 987.713, 669.011 997.676, 669.866 1007.640, 670.721 1017.603, 671.576 1027.566, 672.431 1037.530, 673.286 1047.493, 674.141 1057.456, 674.996 1067.420, 675.852 1077.383, 676.707 1087.347, 677.562 1097.310, 678.417 1107.273, 679.272 1117.237, 680.127 1127.200, 680.982 1137.163, 681.837 1147.127, 682.693 1153.057, 683.201 1144.653, 677.783 1136.248, 672.364 1127.843, 666.946 1119.438, 661.527 1111.034, 656.109 1102.629, 650.690 1094.224, 645.271 1085.820, 639.853 1077.415, 634.434 1069.010, 629.016 1060.606, 623.597 1057.142, 621.364 " />
            <path fill="none" stroke-width="3.0" stroke-linecap="butt" stroke-opacity="1.0" stroke="rgb(0, 0, 0)" stroke-linejoin="round" d=" M 1042.114, 632.920 1051.674, 635.855 1057.142, 637.534 1051.377, 629.363 1046.031, 621.786 1044.910, 620.197 1039.899, 613.095 1034.134, 604.924 1028.368, 596.754 1022.603, 588.583 1016.838, 580.412 1015.247, 578.157 " />
            <path fill="none" stroke-width="3.0" stroke-linecap="butt" stroke-opacity="1.0" stroke="rgb(0, 0, 0)" stroke-linejoin="round" d=" M 1000.411, 613.186 1007.732, 616.650 1016.771, 620.928 1020.623, 622.751 1029.662, 627.028 1038.701, 631.305 1042.114, 632.920 " />
            <path fill="none" stroke-width="3.0" stroke-linecap="butt" stroke-opacity="1.0" stroke="rgb(0, 0, 0)" stroke-linejoin="round" d=" M 1153.057, 683.201 1144.219, 678.524 1135.380, 673.847 1126.541, 669.170 1117.702, 664.492 1108.864, 659.815 1100.025, 655.138 1091.186, 650.460 1082.348, 645.783 1073.509, 641.106 1064.670, 636.429 1055.831, 631.751 1053.060, 630.285 " />
            <path fill="none" stroke-width="3.0" stroke-linecap="butt" stroke-opacity="1.0" stroke="rgb(0, 0, 0)" stroke-linejoin="round" d=" M 837.242, 594.443 827.249, 594.822 817.257, 595.201 807.264, 595.580 797.271, 595.960 787.278, 596.339 777.285, 596.718 767.293, 597.097 757.300, 597.477 747.307, 597.856 737.314, 598.235 726.786, 598.635 735.722, 603.125 744.657, 607.615 753.592, 612.105 759.901, 615.275 769.856, 616.225 779.811, 617.175 789.766, 618.125 799.721, 619.074 809.675, 620.024 819.630, 620.974 829.585, 621.923 839.540, 622.873 849.495, 623.823 859.449, 624.773 869.404, 625.722 879.359, 626.672 886.680, 627.370 " />
            <path fill="none" stroke-width="3.0" stroke-linecap="butt" stroke-opacity="1.0" stroke="rgb(0, 0, 0)" stroke-linejoin="round" d=" M 890.159, 701.939 880.599, 699.005 875.130, 697.326 884.461, 693.727 893.791, 690.129 903.121, 686.530 912.451, 682.931 921.781, 679.333 931.111, 675.734 940.441, 672.136 949.771, 668.537 958.055, 665.342 967.385, 661.743 976.715, 658.145 986.045, 654.546 995.375, 650.947 1004.705, 647.349 1014.035, 643.750 1023.366, 640.152 1032.696, 636.553 1035.505, 635.469 1042.114, 632.920 1032.130, 632.363 1022.145, 631.805 1012.161, 631.248 1002.176, 630.690 992.192, 630.132 982.208, 629.575 972.223, 629.017 961.729, 628.431 951.744, 627.873 941.760, 627.316 931.775, 626.758 925.895, 626.430 925.001, 626.380 915.016, 625.822 905.032, 625.265 896.969, 624.814 893.770, 624.636 896.292, 624.365 906.234, 623.298 916.177, 622.230 919.193, 621.906 929.136, 620.839 939.079, 619.771 949.022, 618.704 958.964, 617.636 968.907, 616.569 978.850, 615.501 986.772, 614.651 996.715, 613.583 1000.411, 613.186 " />
            <path fill="none" stroke-width="3.0" stroke-linecap="butt" stroke-opacity="1.0" stroke="rgb(0, 0, 0)" stroke-linejoin="round" d=" M 759.901, 615.275 769.894, 614.896 779.887, 614.517 789.880, 614.138 799.873, 613.758 809.865, 613.379 819.858, 613.000 829.851, 612.620 839.844, 612.241 849.837, 611.862 859.829, 611.483 868.287, 611.162 " />
            <path fill="none" stroke-width="3.0" stroke-linecap="butt" stroke-opacity="1.0" stroke="rgb(0, 0, 0)" stroke-linejoin="round" d=" M 1000.411, 613.186 990.473, 612.075 980.535, 610.963 970.597, 609.851 960.659, 608.739 950.721, 607.627 940.783, 606.515 930.845, 605.404 921.938, 604.407 912.000, 603.295 902.062, 602.183 892.124, 601.072 882.186, 599.960 872.248, 598.848 862.310, 597.736 860.660, 597.551 854.906, 596.908 844.968, 595.796 837.685, 594.981 " />
            <path fill="none" stroke-width="3.0" stroke-linecap="butt" stroke-opacity="1.0" stroke="rgb(0, 0, 0)" stroke-linejoin="round" d=" M 1000.411, 613.186 990.564, 611.446 980.717, 609.706 970.869, 607.966 961.022, 606.226 951.174, 604.486 941.327, 602.746 931.479, 601.006 921.632, 599.266 915.054, 598.103 905.207, 596.363 895.359, 594.623 885.512, 592.883 884.242, 592.659 874.394, 590.919 864.547, 589.178 854.699, 587.438 844.852, 585.698 835.005, 583.958 827.540, 582.639 830.785, 573.180 834.030, 563.721 837.275, 554.263 837.685, 553.069 " />
            <path fill="none" stroke-width="3.0" stroke-linecap="butt" stroke-opacity="1.0" stroke="rgb(0, 0, 0)" stroke-linejoin="round" d=" M 1017.864, 571.979 1019.414, 571.536 1019.897, 571.398 1029.513, 568.652 1030.406, 568.397 1031.673, 568.035 1033.645, 567.472 1043.260, 564.726 1052.876, 561.980 1062.491, 559.234 1072.107, 556.488 1081.723, 553.742 1091.338, 550.996 1093.772, 550.300 1084.156, 547.554 1074.541, 544.808 1064.925, 542.062 1055.310, 539.316 1045.694, 536.570 1036.078, 533.824 1034.245, 533.300 " />
            <path fill="none" stroke-width="3.0" stroke-linecap="butt" stroke-opacity="1.0" stroke="rgb(0, 0, 0)" stroke-linejoin="round" d=" M 900.718, 473.299 908.246, 468.305 916.579, 462.777 924.912, 457.248 933.244, 451.720 941.577, 446.191 949.910, 440.663 958.055, 435.259 960.000, 433.969 969.963, 433.114 977.749, 432.445 987.713, 431.590 997.676, 430.735 1007.640, 429.880 1017.603, 429.025 1027.566, 428.170 1037.530, 427.315 1047.493, 426.460 1057.456, 425.604 1067.420, 424.749 1077.383, 423.894 1087.347, 423.039 1097.310, 422.184 1107.273, 421.329 1117.237, 420.474 1127.200, 419.619 1137.163, 418.764 1147.127, 417.908 1153.057, 417.399 1144.653, 422.818 1136.248, 428.237 1127.843, 433.655 1119.438, 439.074 1111.034, 444.492 1102.629, 449.911 1094.224, 455.329 1085.820, 460.748 1077.415, 466.167 1069.010, 471.585 1060.606, 477.004 1057.142, 479.237 1047.150, 478.857 1046.031, 478.815 1044.264, 478.748 1044.217, 478.746 1043.437, 478.716 1035.693, 478.422 1025.700, 478.043 1015.707, 477.664 1005.715, 477.285 995.722, 476.905 985.729, 476.526 975.736, 476.147 965.743, 475.767 955.751, 475.388 945.758, 475.009 936.643, 474.663 935.895, 474.635 927.815, 474.328 925.001, 474.221 923.430, 474.161 913.437, 473.782 903.444, 473.403 900.718, 473.299 890.725, 472.920 890.159, 472.899 886.680, 473.231 876.725, 474.180 866.770, 475.130 856.816, 476.080 846.861, 477.029 836.906, 477.979 826.951, 478.929 816.996, 479.879 807.042, 480.828 797.087, 481.778 787.132, 482.728 777.177, 483.677 767.222, 484.627 759.901, 485.326 750.966, 489.816 742.031, 494.306 733.096, 498.796 726.786, 501.966 736.779, 502.345 746.772, 502.725 756.765, 503.104 766.758, 503.483 776.751, 503.862 786.743, 504.242 796.736, 504.621 806.729, 505.000 816.722, 505.380 826.715, 505.759 836.707, 506.138 845.651, 506.478 850.435, 506.659 852.889, 506.752 853.691, 506.783 863.684, 507.162 873.677, 507.541 883.670, 507.921 893.770, 508.304 885.954, 514.542 881.670, 517.962 873.854, 524.200 866.039, 530.438 858.223, 536.676 852.748, 541.046 850.036, 543.211 842.220, 549.449 837.685, 553.069 839.899, 543.317 841.977, 534.165 842.538, 531.696 844.752, 521.944 846.966, 512.192 847.603, 509.385 847.829, 508.388 " />
            <path fill="none" stroke-width="3.0" stroke-linecap="butt" stroke-opacity="1.0" stroke="rgb(0, 0, 0)" stroke-linejoin="round" d=" M 960.000, 433.969 955.022, 442.642 950.044, 451.315 945.066, 459.987 940.088, 468.660 936.703, 474.557 936.643, 474.663 " />
            <path fill="none" stroke-width="3.0" stroke-linecap="butt" stroke-opacity="1.0" stroke="rgb(0, 0, 0)" stroke-linejoin="round" d=" M 794.745, 407.764 784.761, 408.322 774.776, 408.880 764.792, 409.437 754.807, 409.995 744.823, 410.552 734.839, 411.110 726.786, 411.560 736.117, 415.158 745.447, 418.757 754.777, 422.355 764.107, 425.954 773.437, 429.553 782.767, 433.151 792.097, 436.750 801.427, 440.349 810.757, 443.947 820.087, 447.546 829.417, 451.144 838.747, 454.743 848.077, 458.341 857.407, 461.940 866.737, 465.539 876.068, 469.137 886.680, 473.231 " />
            <path fill="none" stroke-width="3.0" stroke-linecap="butt" stroke-opacity="1.0" stroke="rgb(0, 0, 0)" stroke-linejoin="round" d=" M 1057.142, 479.237 1051.283, 487.340 1045.423, 495.443 1042.114, 500.019 " />
            <path fill="none" stroke-width="3.0" stroke-linecap="butt" stroke-opacity="1.0" stroke="rgb(0, 0, 0)" stroke-linejoin="round" d=" M 1042.114, 500.019 1038.656, 509.403 1035.199, 518.786 1031.741, 528.169 1030.268, 532.165 1026.811, 541.548 1024.764, 547.103 1021.306, 556.486 1017.848, 565.869 1017.427, 567.012 1017.323, 567.295 1015.330, 572.703 1011.872, 582.086 1008.414, 591.469 1004.957, 600.852 1001.499, 610.235 1000.411, 613.186 " />
            <path fill="none" stroke-width="3.0" stroke-linecap="butt" stroke-opacity="1.0" stroke="rgb(0, 0, 0)" stroke-linejoin="round" d=" M 726.786, 411.560 736.785, 411.417 746.784, 411.275 756.783, 411.133 759.901, 411.089 769.856, 410.139 779.811, 409.189 789.766, 408.239 794.745, 407.764 804.700, 406.815 814.655, 405.865 824.610, 404.915 834.564, 403.965 844.519, 403.016 854.474, 402.066 864.429, 401.116 874.384, 400.167 884.338, 399.217 890.159, 398.662 899.489, 402.260 908.819, 405.859 918.149, 409.457 927.479, 413.056 936.809, 416.655 946.139, 420.253 955.469, 423.852 964.799, 427.450 974.129, 431.049 977.749, 432.445 " />
            <path fill="none" stroke-width="3.0" stroke-linecap="butt" stroke-opacity="1.0" stroke="rgb(0, 0, 0)" stroke-linejoin="round" d=" M 875.130, 493.681 879.865, 487.134 883.005, 482.791 888.865, 474.688 889.212, 474.207 890.159, 472.899 " />
            <path fill="none" stroke-width="3.0" stroke-linecap="butt" stroke-opacity="1.0" stroke="rgb(0, 0, 0)" stroke-linejoin="round" d=" M 726.786, 501.966 736.771, 501.408 746.755, 500.851 756.740, 500.293 766.724, 499.736 776.709, 499.178 786.693, 498.620 796.678, 498.063 806.662, 497.505 816.646, 496.948 826.631, 496.390 836.615, 495.832 846.600, 495.275 856.584, 494.717 864.933, 494.251 869.525, 493.995 875.130, 493.681 " />
            <path fill="none" stroke-width="3.0" stroke-linecap="butt" stroke-opacity="1.0" stroke="rgb(0, 0, 0)" stroke-linejoin="round" d=" M 837.685, 553.069 847.065, 556.534 856.446, 560.000 865.826, 563.465 869.189, 564.708 878.569, 568.173 884.941, 570.527 894.322, 573.993 903.702, 577.458 913.082, 580.924 922.463, 584.389 931.843, 587.854 941.223, 591.320 950.604, 594.785 959.984, 598.251 969.364, 601.716 978.745, 605.182 988.125, 608.647 997.505, 612.113 1000.411, 613.186 993.282, 606.174 986.152, 599.162 979.023, 592.150 971.893, 585.138 964.763, 578.126 957.634, 571.114 950.504, 564.102 943.375, 557.090 936.245, 550.078 929.115, 543.066 921.986, 536.054 914.856, 529.042 907.726, 522.030 900.597, 515.018 897.452, 511.925 893.770, 508.304 903.502, 507.760 913.486, 507.203 923.471, 506.645 925.895, 506.510 935.879, 505.952 945.864, 505.395 955.848, 504.837 965.833, 504.279 975.817, 503.722 985.802, 503.164 995.786, 502.607 1005.770, 502.049 1015.755, 501.491 1025.739, 500.934 1029.110, 500.746 1030.616, 500.661 1040.601, 500.104 1042.114, 500.019 1032.121, 499.640 1031.358, 499.611 1029.884, 499.555 1019.891, 499.176 1009.898, 498.797 999.906, 498.417 989.913, 498.038 979.920, 497.659 969.927, 497.279 959.934, 496.900 949.942, 496.521 939.949, 496.142 929.956, 495.762 921.402, 495.438 911.410, 495.058 901.417, 494.679 891.424, 494.300 883.588, 494.002 875.130, 493.681 " />
            <path fill="none" stroke-width="3.0" stroke-linecap="butt" stroke-opacity="1.0" stroke="rgb(0, 0, 0)" stroke-linejoin="round" d=" M 845.651, 506.478 837.206, 511.833 836.744, 512.126 " />
            <path fill="none" stroke-width="3.0" stroke-linecap="butt" stroke-opacity="1.0" stroke="rgb(0, 0, 0)" stroke-linejoin="round" d=" M 908.246, 468.305 898.916, 464.706 889.586, 461.108 880.256, 457.509 870.926, 453.911 861.596, 450.312 852.265, 446.713 842.935, 443.115 833.605, 439.516 824.275, 435.918 814.945, 432.319 805.615, 428.720 796.285, 425.122 786.955, 421.523 777.625, 417.924 768.295, 414.326 759.901, 411.089 " />
            <path fill="none" stroke-width="3.0" stroke-linecap="butt" stroke-opacity="1.0" stroke="rgb(0, 0, 0)" stroke-linejoin="round" d=" M 1031.673, 568.035 1035.983, 577.059 1040.292, 586.083 1044.602, 595.106 1048.911, 604.130 1053.221, 613.154 1057.142, 621.364 1050.141, 625.101 " />
            <path fill="none" stroke-width="3.0" stroke-linecap="butt" stroke-opacity="1.0" stroke="rgb(0, 0, 0)" stroke-linejoin="round" d=" M 1031.505, 539.771 1041.365, 541.438 1051.225, 543.105 1061.085, 544.773 1070.945, 546.440 1080.805, 548.108 1090.665, 549.775 1093.772, 550.300 " />
        </g>
    </g>
</svg>
