<?xml version='1.0' encoding='ascii'?>
<svg xmlns="http://www.w3.org/2000/svg" version="1.1" width="1920" height="1080">
    <g id="ViewLayer_LineSet" xmlns:inkscape="http://www.inkscape.org/namespaces/inkscape" inkscape:groupmode="lineset" inkscape:label="ViewLayer_LineSet">
        <g xmlns:inkscape="http://www.inkscape.org/namespaces/inkscape" inkscape:groupmode="layer" id="strokes" inkscape:label="strokes">
            <path fill="none" stroke-width="3.0" stroke-linecap="butt" stroke-opacity="1.0" stroke="rgb(0, 0, 0)" stroke-linejoin="round" d=" M 884.302, 431.440 877.737, 438.983 871.173, 446.527 869.770, 448.139 863.206, 455.682 856.641, 463.226 850.076, 470.769 847.829, 473.352 839.194, 478.394 830.559, 483.437 821.923, 488.480 813.288, 493.523 804.652, 498.565 796.017, 503.608 787.382, 508.651 778.746, 513.694 770.111, 518.737 761.475, 523.779 752.840, 528.822 744.205, 533.865 735.569, 538.908 726.934, 543.951 723.517, 545.946 732.153, 550.989 740.788, 556.031 749.424, 561.074 758.059, 566.117 766.694, 571.160 775.330, 576.203 783.965, 581.245 792.601, 586.288 801.236, 591.331 809.871, 596.374 818.507, 601.417 827.142, 606.459 835.778, 611.502 844.413, 616.545 847.829, 618.540 854.394, 626.084 860.959, 633.627 867.523, 641.171 869.770, 643.753 " />
            <path fill="none" stroke-width="3.0" stroke-linecap="butt" stroke-opacity="1.0" stroke="rgb(0, 0, 0)" stroke-linejoin="round" d=" M 1153.057, 315.755 1143.166, 317.225 1133.275, 318.695 1123.383, 320.166 1113.492, 321.636 1103.601, 323.106 1093.709, 324.577 1083.818, 326.047 1073.927, 327.518 1064.036, 328.988 1054.144, 330.458 1044.253, 331.929 1034.362, 333.399 1024.470, 334.870 1014.579, 336.340 1004.688, 337.810 994.796, 339.281 984.905, 340.751 975.014, 342.221 965.122, 343.692 960.000, 344.453 953.435, 351.997 951.127, 354.650 " />
            <path fill="none" stroke-width="3.0" stroke-linecap="butt" stroke-opacity="1.0" stroke="rgb(0, 0, 0)" stroke-linejoin="round" d=" M 1022.658, 525.116 1025.611, 515.562 1028.563, 506.008 1031.516, 496.453 1034.468, 486.899 1037.420, 477.345 1040.373, 467.791 1043.325, 458.237 1046.278, 448.682 1049.230, 439.128 1052.183, 429.574 1055.135, 420.020 1057.142, 413.524 1064.145, 406.386 1071.148, 399.247 1078.151, 392.109 1085.155, 384.970 1092.157, 377.832 1099.161, 370.693 1106.164, 363.555 1113.167, 356.417 1120.170, 349.278 1127.173, 342.140 1134.176, 335.001 1141.179, 327.863 1148.182, 320.724 1153.057, 315.755 1145.705, 322.533 1138.353, 329.312 1131.001, 336.090 1123.649, 342.869 1116.297, 349.647 1108.946, 356.426 1101.594, 363.204 1094.242, 369.983 1086.890, 376.761 1079.538, 383.540 1072.186, 390.319 1064.834, 397.097 1057.142, 404.189 " />
            <path fill="none" stroke-width="3.0" stroke-linecap="butt" stroke-opacity="1.0" stroke="rgb(0, 0, 0)" stroke-linejoin="round" d=" M 847.829, 473.352 844.308, 482.711 840.787, 492.071 837.687, 500.312 834.165, 509.671 830.643, 519.030 827.540, 527.275 " />
            <path fill="none" stroke-width="3.0" stroke-linecap="butt" stroke-opacity="1.0" stroke="rgb(0, 0, 0)" stroke-linejoin="round" d=" M 837.687, 500.312 845.358, 493.896 853.029, 487.481 860.699, 481.066 861.514, 480.384 " />
            <path fill="none" stroke-width="3.0" stroke-linecap="butt" stroke-opacity="1.0" stroke="rgb(0, 0, 0)" stroke-linejoin="round" d=" M 723.517, 545.946 733.360, 544.179 743.203, 542.413 753.045, 540.646 762.888, 538.879 772.731, 537.113 782.574, 535.346 792.416, 533.579 802.259, 531.813 812.102, 530.046 821.944, 528.279 827.540, 527.275 " />
            <path fill="none" stroke-width="3.0" stroke-linecap="butt" stroke-opacity="1.0" stroke="rgb(0, 0, 0)" stroke-linejoin="round" d=" M 1012.896, 530.086 1015.856, 521.664 1019.172, 512.230 1022.488, 502.795 1025.803, 493.361 1029.119, 483.927 1030.062, 481.243 1033.378, 471.808 1036.693, 462.374 1040.009, 452.940 1043.325, 443.505 1046.640, 434.071 1048.428, 428.984 1051.744, 419.549 1053.659, 414.100 1053.895, 413.430 1054.142, 412.725 1057.142, 404.189 1056.766, 404.013 1047.706, 399.779 1038.646, 395.546 1029.586, 391.312 1020.527, 387.079 1011.467, 382.846 1002.407, 378.612 993.348, 374.379 984.288, 370.145 975.228, 365.912 966.169, 361.678 957.109, 357.445 955.522, 356.704 955.090, 356.502 951.127, 354.650 942.067, 350.416 933.007, 346.183 923.948, 341.949 914.888, 337.716 905.828, 333.483 896.769, 329.249 890.159, 326.160 880.292, 327.791 870.426, 329.421 860.560, 331.051 850.694, 332.682 840.828, 334.312 830.961, 335.942 821.095, 337.573 811.229, 339.203 801.363, 340.833 791.497, 342.464 781.630, 344.094 771.764, 345.724 761.898, 347.355 759.901, 347.684 750.341, 350.615 740.780, 353.546 731.219, 356.477 726.786, 357.836 735.846, 362.069 744.906, 366.303 753.966, 370.536 763.025, 374.770 772.085, 379.003 781.145, 383.236 787.150, 386.043 796.210, 390.276 805.269, 394.509 814.329, 398.743 819.331, 401.080 828.391, 405.314 837.450, 409.547 845.748, 413.424 854.807, 417.658 863.867, 421.891 872.927, 426.124 881.986, 430.358 884.302, 431.440 893.362, 435.673 893.770, 435.864 887.903, 443.962 882.432, 451.513 876.565, 459.611 870.698, 467.709 864.830, 475.807 861.514, 480.384 855.647, 488.482 849.780, 496.580 843.912, 504.678 840.524, 509.355 839.516, 510.746 833.649, 518.844 827.782, 526.941 827.540, 527.275 832.696, 535.844 833.602, 537.350 834.057, 538.106 839.212, 546.675 844.367, 555.244 849.523, 563.812 851.476, 567.058 856.631, 575.627 861.786, 584.196 866.942, 592.765 867.351, 593.445 872.506, 602.014 877.582, 610.450 882.737, 619.019 887.893, 627.588 893.048, 636.156 893.770, 637.357 891.164, 638.051 881.501, 640.626 879.815, 641.076 870.152, 643.651 869.770, 643.753 860.108, 646.328 850.445, 648.903 840.782, 651.479 831.119, 654.054 821.457, 656.629 811.794, 659.204 802.131, 661.779 792.469, 664.355 782.806, 666.930 773.143, 669.505 763.480, 672.080 753.818, 674.656 744.155, 677.231 734.492, 679.806 726.786, 681.860 735.405, 686.931 744.023, 692.003 752.642, 697.075 759.901, 701.346 769.768, 702.977 779.634, 704.607 787.150, 705.849 797.016, 707.479 806.882, 709.110 816.749, 710.740 826.615, 712.370 827.663, 712.543 837.529, 714.174 847.395, 715.804 857.262, 717.434 867.128, 719.065 876.994, 720.695 886.860, 722.325 890.159, 722.870 899.821, 720.295 909.484, 717.720 919.147, 715.145 928.810, 712.570 929.497, 712.386 939.160, 709.811 944.127, 708.487 945.617, 708.090 955.280, 705.515 964.943, 702.940 974.605, 700.365 982.365, 698.297 992.028, 695.721 1001.690, 693.146 1011.353, 690.571 1021.016, 687.996 1030.679, 685.420 1035.520, 684.130 1045.183, 681.555 1048.811, 680.588 1048.903, 680.563 1050.565, 680.120 1052.750, 679.538 1054.142, 679.167 1054.148, 679.165 1057.142, 678.368 1064.145, 685.506 1071.148, 692.644 1078.151, 699.783 1085.155, 706.921 1092.157, 714.060 1099.161, 721.198 1106.164, 728.337 1113.167, 735.475 1120.170, 742.614 1127.173, 749.752 1134.176, 756.890 1141.179, 764.029 1148.182, 771.167 1153.057, 776.137 1143.166, 774.667 1133.275, 773.196 1123.383, 771.726 1113.492, 770.256 1103.601, 768.785 1093.709, 767.315 1083.818, 765.844 1073.927, 764.374 1064.036, 762.904 1054.144, 761.433 1044.253, 759.963 1034.362, 758.492 1024.470, 757.022 1014.579, 755.552 1004.688, 754.081 994.796, 752.611 984.905, 751.141 975.014, 749.670 965.122, 748.200 960.000, 747.438 953.435, 739.895 951.127, 737.242 944.562, 729.698 937.998, 722.155 936.064, 719.932 929.497, 712.386 " />
            <path fill="none" stroke-width="3.0" stroke-linecap="butt" stroke-opacity="1.0" stroke="rgb(0, 0, 0)" stroke-linejoin="round" d=" M 893.770, 435.864 903.724, 434.901 913.677, 433.939 919.378, 433.387 929.332, 432.424 939.285, 431.461 949.239, 430.499 959.193, 429.536 961.729, 429.291 971.682, 428.328 981.636, 427.365 991.589, 426.402 1001.543, 425.439 1011.496, 424.476 1021.450, 423.514 1031.404, 422.551 1042.114, 421.515 " />
            <path fill="none" stroke-width="3.0" stroke-linecap="butt" stroke-opacity="1.0" stroke="rgb(0, 0, 0)" stroke-linejoin="round" d=" M 1042.114, 421.515 1033.407, 417.446 1024.347, 413.213 1018.648, 410.550 1009.589, 406.316 1000.529, 402.083 991.469, 397.849 982.365, 393.595 973.305, 389.362 964.246, 385.128 955.186, 380.895 946.126, 376.661 937.067, 372.428 936.064, 371.959 927.004, 367.726 917.944, 363.492 908.884, 359.259 899.825, 355.026 890.765, 350.792 881.705, 346.559 875.130, 343.486 " />
            <path fill="none" stroke-width="3.0" stroke-linecap="butt" stroke-opacity="1.0" stroke="rgb(0, 0, 0)" stroke-linejoin="round" d=" M 875.130, 343.486 865.177, 344.449 855.223, 345.412 845.270, 346.375 835.316, 347.338 825.363, 348.301 815.409, 349.263 805.456, 350.226 795.502, 351.189 785.549, 352.152 775.595, 353.115 765.642, 354.077 755.688, 355.040 745.734, 356.003 735.781, 356.966 726.786, 357.836 " />
            <path fill="none" stroke-width="3.0" stroke-linecap="butt" stroke-opacity="1.0" stroke="rgb(0, 0, 0)" stroke-linejoin="round" d=" M 1057.142, 404.189 1050.565, 411.771 1047.690, 415.086 1045.413, 417.712 1042.114, 421.515 1039.380, 431.134 1036.647, 440.753 1033.913, 450.372 1031.179, 459.991 1028.446, 469.610 1025.712, 479.229 1022.978, 488.848 1020.245, 498.468 1017.511, 508.087 1014.777, 517.706 1012.058, 527.275 " />
            <path fill="none" stroke-width="3.0" stroke-linecap="butt" stroke-opacity="1.0" stroke="rgb(0, 0, 0)" stroke-linejoin="round" d=" M 847.829, 618.540 845.660, 608.778 844.407, 603.142 843.893, 600.828 841.723, 591.067 839.553, 581.305 837.687, 572.909 835.516, 563.148 833.346, 553.386 831.175, 543.624 829.005, 533.863 827.540, 527.275 837.540, 527.275 847.540, 527.275 857.540, 527.275 867.540, 527.275 877.540, 527.275 887.540, 527.275 897.540, 527.275 907.540, 527.275 917.540, 527.275 927.540, 527.275 937.540, 527.275 947.540, 527.275 957.540, 527.275 967.540, 527.275 977.540, 527.275 987.540, 527.275 997.540, 527.275 1007.540, 527.275 1012.058, 527.275 1012.743, 530.114 1012.802, 530.355 1014.230, 536.266 1016.416, 545.317 1018.764, 555.037 1021.112, 564.758 1021.669, 567.065 1024.017, 576.786 1026.365, 586.506 1028.713, 596.227 1031.061, 605.947 1033.409, 615.667 1035.757, 625.388 1036.792, 629.673 1039.140, 639.393 1041.488, 649.114 1042.114, 651.706 " />
            <path fill="none" stroke-width="3.0" stroke-linecap="butt" stroke-opacity="1.0" stroke="rgb(0, 0, 0)" stroke-linejoin="round" d=" M 1023.749, 566.456 1033.346, 563.645 1042.943, 560.834 1052.539, 558.023 1062.136, 555.212 1071.733, 552.401 1081.330, 549.590 1090.927, 546.779 1093.772, 545.946 1084.175, 543.135 1074.578, 540.324 1064.981, 537.513 1055.385, 534.702 1045.788, 531.891 1036.191, 529.080 1026.594, 526.269 1022.658, 525.116 1019.894, 524.307 1017.617, 523.640 1015.473, 523.011 1015.856, 521.664 " />
            <path fill="none" stroke-width="3.0" stroke-linecap="butt" stroke-opacity="1.0" stroke="rgb(0, 0, 0)" stroke-linejoin="round" d=" M 759.901, 390.545 769.564, 393.120 779.227, 395.696 788.890, 398.271 798.552, 400.846 808.215, 403.421 817.878, 405.997 827.541, 408.572 837.203, 411.147 845.748, 413.424 " />
            <path fill="none" stroke-width="3.0" stroke-linecap="butt" stroke-opacity="1.0" stroke="rgb(0, 0, 0)" stroke-linejoin="round" d=" M 875.130, 343.486 881.683, 335.932 888.235, 328.378 890.159, 326.160 " />
            <path fill="none" stroke-width="3.0" stroke-linecap="butt" stroke-opacity="1.0" stroke="rgb(0, 0, 0)" stroke-linejoin="round" d=" M 787.150, 386.043 777.284, 387.673 767.418, 389.303 759.901, 390.545 751.283, 395.617 742.664, 400.688 734.046, 405.760 726.786, 410.032 736.449, 412.607 746.112, 415.182 755.775, 417.758 765.437, 420.333 775.100, 422.908 784.763, 425.483 794.426, 428.059 804.088, 430.634 813.751, 433.209 823.414, 435.784 833.076, 438.359 842.739, 440.935 852.402, 443.510 862.065, 446.085 869.770, 448.139 " />
            <path fill="none" stroke-width="3.0" stroke-linecap="butt" stroke-opacity="1.0" stroke="rgb(0, 0, 0)" stroke-linejoin="round" d=" M 960.000, 747.438 956.567, 738.046 955.522, 735.188 952.089, 725.796 948.656, 716.404 945.617, 708.090 " />
            <path fill="none" stroke-width="3.0" stroke-linecap="butt" stroke-opacity="1.0" stroke="rgb(0, 0, 0)" stroke-linejoin="round" d=" M 726.786, 681.860 736.740, 682.822 746.694, 683.785 756.647, 684.748 766.601, 685.711 776.554, 686.674 786.508, 687.637 796.461, 688.599 806.415, 689.562 816.368, 690.525 819.331, 690.812 829.284, 691.774 839.238, 692.737 849.192, 693.700 859.145, 694.663 869.099, 695.626 875.130, 696.209 " />
            <path fill="none" stroke-width="3.0" stroke-linecap="butt" stroke-opacity="1.0" stroke="rgb(0, 0, 0)" stroke-linejoin="round" d=" M 890.159, 722.870 885.248, 714.159 880.338, 705.448 875.428, 696.736 875.130, 696.209 884.793, 693.634 894.456, 691.059 904.119, 688.483 907.834, 687.493 917.497, 684.918 927.160, 682.343 936.822, 679.767 946.485, 677.192 956.148, 674.617 964.492, 672.393 974.155, 669.818 983.818, 667.243 986.114, 666.631 995.777, 664.055 1005.440, 661.480 1015.102, 658.905 1024.765, 656.330 1034.428, 653.755 1039.260, 652.467 1042.114, 651.706 " />
            <path fill="none" stroke-width="3.0" stroke-linecap="butt" stroke-opacity="1.0" stroke="rgb(0, 0, 0)" stroke-linejoin="round" d=" M 1057.142, 678.368 1052.232, 669.656 1048.478, 662.996 1043.568, 654.285 1042.114, 651.706 1038.957, 651.401 1029.004, 650.438 1019.050, 649.475 1009.097, 648.512 999.143, 647.549 989.190, 646.587 979.236, 645.624 969.282, 644.661 959.329, 643.698 949.375, 642.735 939.422, 641.773 929.468, 640.810 919.515, 639.847 913.400, 639.255 903.446, 638.293 893.770, 637.357 " />
            <path fill="none" stroke-width="3.0" stroke-linecap="butt" stroke-opacity="1.0" stroke="rgb(0, 0, 0)" stroke-linejoin="round" d=" M 787.150, 705.849 778.090, 710.082 769.031, 714.316 759.971, 718.549 750.911, 722.783 741.852, 727.016 732.792, 731.250 726.786, 734.056 736.347, 736.987 745.908, 739.918 755.469, 742.848 759.901, 744.207 769.768, 745.837 779.634, 747.468 789.500, 749.098 799.366, 750.728 809.232, 752.359 819.099, 753.989 828.965, 755.619 838.831, 757.250 848.697, 758.880 858.564, 760.510 868.430, 762.141 878.296, 763.771 888.162, 765.401 890.159, 765.731 899.218, 761.498 908.278, 757.264 917.338, 753.031 926.398, 748.798 935.457, 744.564 944.517, 740.331 951.127, 737.242 " />
            <path fill="none" stroke-width="3.0" stroke-linecap="butt" stroke-opacity="1.0" stroke="rgb(0, 0, 0)" stroke-linejoin="round" d=" M 827.663, 712.543 818.603, 716.777 809.544, 721.010 800.484, 725.244 791.424, 729.477 782.364, 733.711 773.305, 737.944 764.245, 742.177 759.901, 744.207 " />
            <path fill="none" stroke-width="3.0" stroke-linecap="butt" stroke-opacity="1.0" stroke="rgb(0, 0, 0)" stroke-linejoin="round" d=" M 877.582, 610.450 870.299, 603.597 863.017, 596.744 855.734, 589.891 848.451, 583.038 841.168, 576.186 837.687, 572.909 " />
            <path fill="none" stroke-width="3.0" stroke-linecap="butt" stroke-opacity="1.0" stroke="rgb(0, 0, 0)" stroke-linejoin="round" d=" M 955.090, 356.502 958.864, 347.241 960.000, 344.453 " />
            <path fill="none" stroke-width="3.0" stroke-linecap="butt" stroke-opacity="1.0" stroke="rgb(0, 0, 0)" stroke-linejoin="round" d=" M 1053.895, 413.430 1057.142, 413.524 " />
            <path fill="none" stroke-width="3.0" stroke-linecap="butt" stroke-opacity="1.0" stroke="rgb(0, 0, 0)" stroke-linejoin="round" d=" M 1013.689, 532.741 1014.547, 532.883 1019.981, 533.779 1029.848, 535.406 1039.715, 537.033 1049.581, 538.660 1059.448, 540.286 1069.315, 541.913 1079.182, 543.540 1089.049, 545.167 1093.772, 545.946 " />
        </g>
    </g>
</svg>
