<?xml version='1.0' encoding='ascii'?>
<svg xmlns="http://www.w3.org/2000/svg" version="1.1" width="1920" height="1080">
    <g id="ViewLayer_LineSet" xmlns:inkscape="http://www.inkscape.org/namespaces/inkscape" inkscape:groupmode="lineset" inkscape:label="ViewLayer_LineSet">
        <g xmlns:inkscape="http://www.inkscape.org/namespaces/inkscape" inkscape:groupmode="layer" id="strokes" inkscape:label="strokes">
            <path fill="none" stroke-width="3.0" stroke-linecap="butt" stroke-opacity="1.0" stroke="rgb(0, 0, 0)" stroke-linejoin="round" d=" M 888.758, 450.737 885.192, 454.082 877.899, 460.925 870.607, 467.767 863.364, 474.562 856.072, 481.404 848.779, 488.247 847.829, 489.138 838.803, 493.442 829.777, 497.746 820.750, 502.050 811.724, 506.353 802.697, 510.657 793.671, 514.961 784.644, 519.265 775.618, 523.569 766.591, 527.873 757.565, 532.177 748.539, 536.481 739.512, 540.784 730.486, 545.088 723.517, 548.411 732.544, 552.715 741.570, 557.019 750.597, 561.323 759.623, 565.626 768.650, 569.930 777.676, 574.234 786.702, 578.538 795.729, 582.842 804.755, 587.146 813.782, 591.450 822.808, 595.754 831.835, 600.057 840.861, 604.361 847.829, 607.684 855.122, 614.526 862.415, 621.369 863.364, 622.260 " />
            <path fill="none" stroke-width="3.0" stroke-linecap="butt" stroke-opacity="1.0" stroke="rgb(0, 0, 0)" stroke-linejoin="round" d=" M 1057.142, 443.079 1064.719, 436.553 1072.296, 430.026 1079.872, 423.500 1087.449, 416.974 1095.026, 410.447 1102.603, 403.921 1110.179, 397.394 1117.756, 390.868 1125.333, 384.342 1132.909, 377.815 1140.486, 371.289 1148.063, 364.763 1153.057, 360.461 1143.130, 361.665 1133.203, 362.870 1123.276, 364.075 1113.349, 365.280 1103.422, 366.485 1093.494, 367.690 1083.567, 368.895 1073.640, 370.100 1063.713, 371.305 1053.786, 372.510 1043.859, 373.715 1033.932, 374.919 1024.004, 376.124 1014.077, 377.329 1004.150, 378.534 994.223, 379.739 984.296, 380.944 974.369, 382.149 964.442, 383.354 960.000, 383.893 957.759, 385.996 " />
            <path fill="none" stroke-width="3.0" stroke-linecap="butt" stroke-opacity="1.0" stroke="rgb(0, 0, 0)" stroke-linejoin="round" d=" M 847.829, 489.138 842.577, 497.648 837.687, 505.571 832.434, 514.080 827.540, 522.006 " />
            <path fill="none" stroke-width="3.0" stroke-linecap="butt" stroke-opacity="1.0" stroke="rgb(0, 0, 0)" stroke-linejoin="round" d=" M 837.687, 505.571 846.065, 500.112 852.660, 495.815 " />
            <path fill="none" stroke-width="3.0" stroke-linecap="butt" stroke-opacity="1.0" stroke="rgb(0, 0, 0)" stroke-linejoin="round" d=" M 723.517, 548.411 733.210, 545.951 742.903, 543.490 752.595, 541.030 762.288, 538.570 771.980, 536.109 781.673, 533.649 791.366, 531.189 801.058, 528.728 810.751, 526.268 820.444, 523.808 827.540, 522.006 " />
            <path fill="none" stroke-width="3.0" stroke-linecap="butt" stroke-opacity="1.0" stroke="rgb(0, 0, 0)" stroke-linejoin="round" d=" M 1013.491, 526.194 1017.619, 517.086 1021.747, 507.978 1025.875, 498.870 1027.342, 495.631 1031.470, 486.523 1035.598, 477.414 1039.726, 468.306 1039.951, 467.809 1040.168, 467.331 1044.296, 458.223 1048.424, 449.115 1050.769, 443.939 1051.558, 442.199 1051.857, 441.540 1055.521, 433.454 1057.142, 429.877 1047.994, 425.838 1038.846, 421.799 1029.698, 417.759 1020.550, 413.720 1011.403, 409.681 1002.255, 405.642 993.107, 401.603 983.959, 397.564 974.811, 393.524 965.663, 389.485 958.880, 386.490 958.690, 386.407 957.759, 385.996 948.611, 381.956 939.463, 377.917 930.315, 373.878 921.167, 369.839 912.019, 365.800 902.871, 361.761 893.723, 357.721 890.159, 356.148 880.248, 357.485 870.338, 358.822 860.428, 360.159 850.518, 361.496 840.608, 362.833 830.697, 364.170 820.787, 365.507 810.877, 366.844 800.967, 368.181 791.057, 369.518 781.146, 370.856 771.236, 372.193 761.326, 373.530 759.901, 373.722 750.036, 375.360 740.172, 376.998 730.307, 378.636 726.786, 379.221 735.934, 383.260 745.082, 387.299 754.230, 391.338 763.378, 395.377 772.526, 399.416 781.674, 403.455 790.822, 407.495 799.970, 411.534 809.118, 415.573 818.266, 419.612 827.414, 423.651 830.148, 424.859 839.296, 428.898 848.444, 432.937 857.592, 436.976 866.740, 441.015 868.601, 441.837 877.749, 445.876 886.897, 449.915 888.758, 450.737 893.770, 452.950 891.700, 455.108 884.778, 462.325 877.857, 469.543 871.772, 475.887 864.850, 483.104 857.928, 490.322 852.660, 495.815 845.738, 503.032 844.737, 504.075 844.146, 504.692 837.224, 511.909 830.303, 519.126 827.540, 522.006 833.241, 530.223 836.864, 535.445 837.927, 536.977 838.294, 537.507 838.341, 537.575 839.112, 538.686 844.812, 546.902 850.513, 555.118 856.213, 563.334 861.914, 571.551 867.614, 579.767 868.254, 580.690 873.954, 588.906 879.655, 597.122 880.285, 598.031 881.652, 600.000 887.352, 608.217 893.052, 616.433 893.770, 617.468 883.892, 619.024 876.722, 620.154 866.987, 621.689 863.364, 622.260 853.486, 623.816 843.608, 625.373 833.730, 626.930 823.852, 628.487 813.974, 630.044 804.096, 631.601 794.218, 633.157 784.340, 634.714 774.462, 636.271 764.584, 637.828 754.706, 639.385 744.828, 640.941 734.949, 642.498 726.786, 643.785 735.494, 648.702 744.201, 653.619 752.909, 658.537 759.901, 662.486 769.812, 663.823 779.722, 665.160 789.632, 666.497 799.542, 667.834 809.452, 669.171 819.363, 670.508 829.273, 671.845 830.148, 671.963 840.059, 673.300 849.969, 674.637 859.879, 675.975 865.051, 676.672 874.962, 678.010 884.872, 679.347 890.159, 680.060 900.037, 678.503 909.915, 676.946 919.962, 675.363 929.840, 673.806 938.874, 672.382 942.277, 671.846 952.155, 670.289 962.033, 668.732 971.911, 667.176 981.789, 665.619 991.667, 664.062 1001.545, 662.505 1012.010, 660.856 1021.888, 659.299 1031.766, 657.742 1040.272, 656.402 1042.687, 656.021 1046.257, 655.458 1047.304, 655.293 1051.558, 654.623 1051.971, 654.558 1057.142, 653.743 1064.719, 660.269 1072.296, 666.796 1079.872, 673.322 1087.449, 679.848 1095.026, 686.375 1102.603, 692.901 1110.179, 699.427 1117.756, 705.954 1125.333, 712.480 1132.909, 719.006 1140.486, 725.533 1148.063, 732.059 1153.057, 736.361 1143.130, 735.156 1133.203, 733.951 1123.276, 732.747 1113.349, 731.542 1103.422, 730.337 1093.494, 729.132 1083.567, 727.927 1073.640, 726.722 1063.713, 725.517 1053.786, 724.312 1043.859, 723.107 1033.932, 721.902 1024.004, 720.697 1014.077, 719.492 1004.150, 718.288 994.223, 717.083 984.296, 715.878 974.369, 714.673 964.442, 713.468 960.000, 712.929 957.759, 710.826 950.466, 703.984 944.719, 698.592 937.427, 691.749 930.134, 684.907 922.841, 678.065 919.962, 675.363 " />
            <path fill="none" stroke-width="3.0" stroke-linecap="butt" stroke-opacity="1.0" stroke="rgb(0, 0, 0)" stroke-linejoin="round" d=" M 1057.142, 429.877 1065.243, 424.014 1073.344, 418.151 1081.445, 412.288 1089.546, 406.425 1097.647, 400.562 1105.748, 394.699 1113.849, 388.836 1121.950, 382.974 1130.051, 377.111 1138.152, 371.248 1146.253, 365.385 1153.057, 360.461 1145.051, 366.452 1137.045, 372.444 1129.039, 378.436 1121.032, 384.427 1113.026, 390.419 1105.020, 396.411 1097.014, 402.402 1089.007, 408.394 1081.001, 414.386 1072.995, 420.377 1064.989, 426.369 1056.982, 432.361 1055.521, 433.454 " />
            <path fill="none" stroke-width="3.0" stroke-linecap="butt" stroke-opacity="1.0" stroke="rgb(0, 0, 0)" stroke-linejoin="round" d=" M 893.770, 452.950 903.739, 452.162 913.708, 451.375 922.591, 450.673 932.560, 449.886 942.529, 449.099 952.498, 448.311 962.467, 447.524 972.436, 446.737 982.405, 445.949 992.374, 445.162 1002.343, 444.375 1012.312, 443.587 1022.281, 442.800 1032.250, 442.013 1042.114, 441.234 " />
            <path fill="none" stroke-width="3.0" stroke-linecap="butt" stroke-opacity="1.0" stroke="rgb(0, 0, 0)" stroke-linejoin="round" d=" M 1042.114, 441.234 1040.272, 440.420 1031.124, 436.381 1025.931, 434.088 1016.783, 430.049 1007.635, 426.010 998.487, 421.970 989.339, 417.931 980.191, 413.892 971.043, 409.853 961.895, 405.814 952.747, 401.775 944.719, 398.230 935.571, 394.191 926.423, 390.152 917.275, 386.113 908.127, 382.074 898.979, 378.034 889.832, 373.995 880.684, 369.956 875.130, 367.504 " />
            <path fill="none" stroke-width="3.0" stroke-linecap="butt" stroke-opacity="1.0" stroke="rgb(0, 0, 0)" stroke-linejoin="round" d=" M 875.130, 367.504 865.162, 368.292 855.193, 369.079 845.224, 369.866 835.255, 370.654 825.286, 371.441 815.317, 372.228 805.348, 373.016 795.379, 373.803 785.410, 374.590 775.441, 375.378 765.472, 376.165 755.503, 376.953 745.534, 377.740 735.565, 378.527 726.786, 379.221 " />
            <path fill="none" stroke-width="3.0" stroke-linecap="butt" stroke-opacity="1.0" stroke="rgb(0, 0, 0)" stroke-linejoin="round" d=" M 1057.142, 429.877 1049.164, 435.906 1042.687, 440.801 1042.114, 441.234 1040.597, 445.311 1037.109, 454.684 1033.622, 464.056 1030.134, 473.428 1026.647, 482.800 1023.159, 492.172 1019.672, 501.544 1016.184, 510.917 1012.697, 520.289 1012.058, 522.006 " />
            <path fill="none" stroke-width="3.0" stroke-linecap="butt" stroke-opacity="1.0" stroke="rgb(0, 0, 0)" stroke-linejoin="round" d=" M 1051.857, 441.540 1057.142, 443.079 1053.735, 452.481 1050.327, 461.882 1046.919, 471.284 1043.512, 480.685 1040.104, 490.086 1036.697, 499.488 1033.289, 508.889 1029.881, 518.291 1026.474, 527.692 1024.931, 531.947 " />
            <path fill="none" stroke-width="3.0" stroke-linecap="butt" stroke-opacity="1.0" stroke="rgb(0, 0, 0)" stroke-linejoin="round" d=" M 847.829, 607.684 847.281, 605.366 846.633, 602.630 844.329, 592.899 842.025, 583.168 839.721, 573.437 837.687, 564.847 835.382, 555.116 833.077, 545.385 830.773, 535.654 828.468, 525.923 827.540, 522.006 837.540, 522.006 847.540, 522.006 853.081, 522.006 856.262, 522.006 866.262, 522.006 876.262, 522.006 886.262, 522.006 896.262, 522.006 906.262, 522.006 916.262, 522.006 926.262, 522.006 936.262, 522.006 946.262, 522.006 956.262, 522.006 966.262, 522.006 976.262, 522.006 986.262, 522.006 996.262, 522.006 1006.262, 522.006 1012.058, 522.006 1013.254, 526.273 1013.331, 526.547 1015.165, 533.088 1017.865, 542.716 1019.262, 547.696 1021.962, 557.325 1024.133, 565.066 1026.833, 574.694 1029.533, 584.323 1032.234, 593.951 1034.934, 603.580 1037.634, 613.208 1040.334, 622.837 1042.114, 629.184 " />
            <path fill="none" stroke-width="3.0" stroke-linecap="butt" stroke-opacity="1.0" stroke="rgb(0, 0, 0)" stroke-linejoin="round" d=" M 1026.593, 564.477 1036.318, 562.151 1046.044, 559.825 1055.770, 557.499 1065.496, 555.173 1075.221, 552.847 1084.947, 550.521 1093.772, 548.411 1084.046, 546.085 1074.320, 543.759 1064.595, 541.433 1054.869, 539.107 1045.143, 536.781 1035.417, 534.455 1025.692, 532.129 1024.962, 531.954 1024.931, 531.947 1022.034, 531.254 1015.473, 529.685 1018.764, 520.242 1022.055, 510.799 1025.347, 501.357 1027.342, 495.631 " />
            <path fill="none" stroke-width="3.0" stroke-linecap="butt" stroke-opacity="1.0" stroke="rgb(0, 0, 0)" stroke-linejoin="round" d=" M 759.901, 434.336 769.780, 435.893 779.658, 437.450 789.536, 439.007 799.414, 440.563 809.292, 442.120 819.170, 443.677 829.048, 445.234 838.926, 446.791 848.804, 448.348 858.682, 449.904 868.560, 451.461 878.438, 453.018 885.192, 454.082 " />
            <path fill="none" stroke-width="3.0" stroke-linecap="butt" stroke-opacity="1.0" stroke="rgb(0, 0, 0)" stroke-linejoin="round" d=" M 875.130, 367.504 883.109, 361.475 890.159, 356.148 " />
            <path fill="none" stroke-width="3.0" stroke-linecap="butt" stroke-opacity="1.0" stroke="rgb(0, 0, 0)" stroke-linejoin="round" d=" M 830.148, 424.859 820.238, 426.196 810.328, 427.533 800.418, 428.870 790.508, 430.207 780.597, 431.544 770.687, 432.881 760.777, 434.218 759.901, 434.336 751.194, 439.254 742.487, 444.171 733.779, 449.088 726.786, 453.037 736.665, 454.594 746.543, 456.151 756.421, 457.708 766.299, 459.264 776.177, 460.821 786.055, 462.378 795.933, 463.935 805.811, 465.492 815.689, 467.048 825.567, 468.605 835.445, 470.162 845.323, 471.719 855.201, 473.276 863.364, 474.562 " />
            <path fill="none" stroke-width="3.0" stroke-linecap="butt" stroke-opacity="1.0" stroke="rgb(0, 0, 0)" stroke-linejoin="round" d=" M 960.000, 712.929 958.880, 710.332 954.918, 701.150 950.957, 691.968 946.996, 682.786 943.035, 673.604 942.277, 671.846 " />
            <path fill="none" stroke-width="3.0" stroke-linecap="butt" stroke-opacity="1.0" stroke="rgb(0, 0, 0)" stroke-linejoin="round" d=" M 726.786, 643.785 736.755, 644.572 746.724, 645.359 756.693, 646.147 766.662, 646.934 776.631, 647.721 786.600, 648.509 796.569, 649.296 806.538, 650.084 816.507, 650.871 826.476, 651.658 836.445, 652.446 846.414, 653.233 856.383, 654.020 866.352, 654.808 868.601, 654.985 875.130, 655.501 " />
            <path fill="none" stroke-width="3.0" stroke-linecap="butt" stroke-opacity="1.0" stroke="rgb(0, 0, 0)" stroke-linejoin="round" d=" M 890.159, 680.060 884.939, 671.530 879.720, 663.000 875.130, 655.501 885.009, 653.944 894.887, 652.387 895.390, 652.308 905.268, 650.751 915.146, 649.194 924.147, 647.776 934.025, 646.219 943.903, 644.662 953.781, 643.105 963.659, 641.549 965.090, 641.323 974.968, 639.766 984.846, 638.209 994.724, 636.653 1004.602, 635.096 1014.480, 633.539 1024.359, 631.982 1034.237, 630.425 1037.360, 629.933 1041.423, 629.293 1042.114, 629.184 " />
            <path fill="none" stroke-width="3.0" stroke-linecap="butt" stroke-opacity="1.0" stroke="rgb(0, 0, 0)" stroke-linejoin="round" d=" M 1057.142, 653.743 1051.923, 645.213 1046.703, 636.683 1042.114, 629.184 1041.352, 629.124 1036.957, 628.777 1026.988, 627.989 1017.019, 627.202 1007.050, 626.415 997.081, 625.627 987.112, 624.840 977.144, 624.052 967.175, 623.265 957.206, 622.478 947.237, 621.690 937.268, 620.903 927.299, 620.116 917.330, 619.328 911.854, 618.896 901.885, 618.109 893.770, 617.468 " />
            <path fill="none" stroke-width="3.0" stroke-linecap="butt" stroke-opacity="1.0" stroke="rgb(0, 0, 0)" stroke-linejoin="round" d=" M 830.148, 671.963 821.000, 676.002 811.853, 680.042 802.705, 684.081 793.557, 688.120 784.409, 692.159 775.261, 696.198 766.113, 700.237 756.965, 704.277 747.817, 708.316 738.669, 712.355 729.521, 716.394 726.786, 717.601 736.651, 719.239 746.516, 720.877 756.381, 722.515 759.901, 723.100 769.812, 724.437 779.722, 725.774 789.632, 727.111 799.542, 728.448 809.452, 729.785 819.363, 731.122 829.273, 732.460 839.183, 733.797 849.093, 735.134 859.004, 736.471 868.914, 737.808 878.824, 739.145 888.734, 740.482 890.159, 740.674 899.307, 736.635 908.455, 732.596 917.603, 728.557 926.751, 724.518 935.899, 720.478 945.047, 716.439 954.194, 712.400 957.759, 710.826 " />
            <path fill="none" stroke-width="3.0" stroke-linecap="butt" stroke-opacity="1.0" stroke="rgb(0, 0, 0)" stroke-linejoin="round" d=" M 865.051, 676.672 855.904, 680.712 846.755, 684.751 837.608, 688.790 828.460, 692.829 819.312, 696.868 810.164, 700.907 801.016, 704.947 791.868, 708.986 782.720, 713.025 773.572, 717.064 764.424, 721.103 759.901, 723.100 " />
            <path fill="none" stroke-width="3.0" stroke-linecap="butt" stroke-opacity="1.0" stroke="rgb(0, 0, 0)" stroke-linejoin="round" d=" M 881.652, 600.000 873.841, 593.755 866.031, 587.510 858.221, 581.265 850.411, 575.020 842.600, 568.775 837.687, 564.847 " />
            <path fill="none" stroke-width="3.0" stroke-linecap="butt" stroke-opacity="1.0" stroke="rgb(0, 0, 0)" stroke-linejoin="round" d=" M 958.690, 386.407 960.000, 383.893 " />
            <path fill="none" stroke-width="3.0" stroke-linecap="butt" stroke-opacity="1.0" stroke="rgb(0, 0, 0)" stroke-linejoin="round" d=" M 1014.791, 529.994 1015.431, 530.143 1024.824, 532.334 1034.563, 534.605 1044.302, 536.875 1054.041, 539.146 1063.779, 541.417 1073.518, 543.688 1083.257, 545.959 1092.996, 548.230 1093.772, 548.411 " />
        </g>
    </g>
</svg>
