<?xml version='1.0' encoding='ascii'?>
<svg xmlns="http://www.w3.org/2000/svg" version="1.1" width="1920" height="1080">
    <g id="ViewLayer_LineSet" xmlns:inkscape="http://www.inkscape.org/namespaces/inkscape" inkscape:groupmode="lineset" inkscape:label="ViewLayer_LineSet">
        <g xmlns:inkscape="http://www.inkscape.org/namespaces/inkscape" inkscape:groupmode="layer" id="strokes" inkscape:label="strokes">
            <path fill="none" stroke-width="3.0" stroke-linecap="butt" stroke-opacity="1.0" stroke="rgb(0, 0, 0)" stroke-linejoin="round" d=" M 827.540, 552.743 817.583, 551.818 807.626, 550.893 797.669, 549.968 787.712, 549.043 777.755, 548.118 767.798, 547.193 757.840, 546.267 747.883, 545.342 737.926, 544.417 727.969, 543.492 723.517, 543.078 " />
            <path fill="none" stroke-width="3.0" stroke-linecap="butt" stroke-opacity="1.0" stroke="rgb(0, 0, 0)" stroke-linejoin="round" d=" M 874.053, 428.499 867.902, 436.383 861.751, 444.267 855.599, 452.152 849.448, 460.036 847.829, 462.110 839.450, 467.568 831.071, 473.025 822.691, 478.483 814.312, 483.941 805.933, 489.399 797.553, 494.856 789.174, 500.314 780.795, 505.772 772.415, 511.229 764.036, 516.687 755.657, 522.145 747.277, 527.603 738.898, 533.060 730.519, 538.518 723.517, 543.078 731.897, 548.536 740.276, 553.994 748.655, 559.452 757.035, 564.909 765.414, 570.367 773.793, 575.825 782.173, 581.283 790.552, 586.740 798.931, 592.198 807.311, 597.656 815.690, 603.113 824.069, 608.571 832.449, 614.029 840.828, 619.487 847.829, 624.047 " />
            <path fill="none" stroke-width="3.0" stroke-linecap="butt" stroke-opacity="1.0" stroke="rgb(0, 0, 0)" stroke-linejoin="round" d=" M 837.685, 590.653 840.592, 600.221 843.498, 609.789 846.405, 619.358 847.829, 624.047 853.981, 631.931 860.132, 639.815 866.284, 647.699 872.435, 655.584 874.053, 657.658 880.205, 665.542 880.774, 666.272 " />
            <path fill="none" stroke-width="3.0" stroke-linecap="butt" stroke-opacity="1.0" stroke="rgb(0, 0, 0)" stroke-linejoin="round" d=" M 827.540, 552.743 830.125, 562.403 832.710, 572.063 835.295, 581.723 837.685, 590.653 838.678, 591.886 841.381, 595.241 841.382, 595.243 847.655, 603.031 853.929, 610.818 860.202, 618.606 866.475, 626.394 872.748, 634.181 879.021, 641.969 885.294, 649.757 887.725, 652.774 893.770, 660.279 884.689, 664.467 880.774, 666.272 871.694, 670.460 862.613, 674.648 853.532, 678.836 844.451, 683.024 835.370, 687.212 826.290, 691.399 817.209, 695.587 808.128, 699.775 799.047, 703.963 789.966, 708.151 780.885, 712.339 774.265, 715.392 765.184, 719.580 756.103, 723.768 752.935, 725.229 743.854, 729.417 734.774, 733.605 726.786, 737.289 735.986, 741.209 745.185, 745.129 754.385, 749.050 759.901, 751.401 769.736, 753.213 779.570, 755.026 789.405, 756.838 799.239, 758.651 809.073, 760.463 818.908, 762.276 828.742, 764.089 838.576, 765.901 848.411, 767.714 858.245, 769.526 868.079, 771.339 877.914, 773.151 887.748, 774.964 890.159, 775.408 899.240, 771.220 908.320, 767.032 917.401, 762.844 926.482, 758.656 935.563, 754.468 944.644, 750.280 945.876, 749.712 952.501, 746.657 952.820, 746.510 961.901, 742.322 970.981, 738.134 980.062, 733.946 989.143, 729.758 998.224, 725.570 1007.305, 721.382 1016.386, 717.194 1025.466, 713.006 1034.547, 708.818 1043.628, 704.631 1052.709, 700.443 1054.870, 699.446 1057.142, 698.398 " />
            <path fill="none" stroke-width="3.0" stroke-linecap="butt" stroke-opacity="1.0" stroke="rgb(0, 0, 0)" stroke-linejoin="round" d=" M 945.876, 749.712 952.028, 757.596 958.179, 765.480 960.000, 767.814 969.865, 769.450 979.731, 771.085 989.596, 772.721 999.461, 774.357 1009.327, 775.993 1019.192, 777.628 1029.057, 779.264 1038.923, 780.900 1048.788, 782.535 1058.653, 784.171 1068.519, 785.807 1078.384, 787.442 1088.249, 789.078 1098.115, 790.714 1107.980, 792.349 1117.845, 793.985 1127.710, 795.621 1137.576, 797.257 1147.441, 798.892 1153.057, 799.823 " />
            <path fill="none" stroke-width="3.0" stroke-linecap="butt" stroke-opacity="1.0" stroke="rgb(0, 0, 0)" stroke-linejoin="round" d=" M 1057.142, 693.566 1063.843, 700.989 1070.543, 708.412 1077.244, 715.835 1083.945, 723.258 1090.645, 730.681 1097.346, 738.104 1104.046, 745.527 1110.747, 752.950 1117.447, 760.374 1124.148, 767.797 1130.849, 775.220 1137.549, 782.643 1144.250, 790.066 1150.950, 797.489 1153.057, 799.823 1146.186, 792.558 1139.315, 785.292 1132.444, 778.026 1125.573, 770.761 1118.703, 763.495 1111.832, 756.229 1104.961, 748.964 1098.090, 741.698 1091.219, 734.432 1084.348, 727.167 1077.477, 719.901 1070.606, 712.635 1063.735, 705.369 1057.142, 698.398 1055.818, 694.039 1055.587, 693.279 1055.561, 693.193 1053.915, 687.778 1051.007, 678.211 1048.099, 668.643 1045.191, 659.075 1042.284, 649.507 1039.376, 639.939 1036.468, 630.371 1033.560, 620.803 1030.652, 611.235 1027.744, 601.668 1026.635, 598.017 1023.727, 588.449 1020.819, 578.881 1017.911, 569.313 1017.510, 567.993 1014.602, 558.425 1014.292, 557.405 1012.058, 550.053 1013.129, 546.312 1014.055, 543.078 1014.157, 542.719 1014.420, 541.804 1015.956, 536.437 1018.709, 526.823 1020.874, 519.263 1023.626, 509.649 1026.379, 500.036 1029.131, 490.422 1031.884, 480.808 1034.637, 471.194 1037.389, 461.581 1040.142, 451.967 1042.894, 442.353 1045.647, 432.740 1048.400, 423.126 1051.152, 413.512 1053.905, 403.899 1056.657, 394.285 1057.142, 392.591 " />
            <path fill="none" stroke-width="3.0" stroke-linecap="butt" stroke-opacity="1.0" stroke="rgb(0, 0, 0)" stroke-linejoin="round" d=" M 1093.772, 543.078 1083.808, 543.929 1073.844, 544.779 1063.880, 545.630 1053.917, 546.480 1043.953, 547.331 1033.989, 548.181 1024.025, 549.031 1016.632, 549.662 1013.508, 549.929 1012.058, 550.053 1005.039, 557.176 1000.411, 561.872 " />
            <path fill="none" stroke-width="3.0" stroke-linecap="butt" stroke-opacity="1.0" stroke="rgb(0, 0, 0)" stroke-linejoin="round" d=" M 1000.411, 561.872 1003.836, 571.268 1007.261, 580.663 1010.685, 590.058 1014.110, 599.454 1017.534, 608.849 1020.959, 618.244 1024.384, 627.640 1027.808, 637.035 1031.233, 646.430 1034.657, 655.826 1038.082, 665.221 1041.507, 674.616 1042.114, 676.283 " />
            <path fill="none" stroke-width="3.0" stroke-linecap="butt" stroke-opacity="1.0" stroke="rgb(0, 0, 0)" stroke-linejoin="round" d=" M 1042.114, 676.283 1043.427, 678.215 1049.047, 686.486 1053.388, 692.874 1054.500, 694.510 1057.142, 698.398 " />
            <path fill="none" stroke-width="3.0" stroke-linecap="butt" stroke-opacity="1.0" stroke="rgb(0, 0, 0)" stroke-linejoin="round" d=" M 874.053, 657.658 864.636, 661.022 855.219, 664.386 845.802, 667.751 836.385, 671.115 826.968, 674.479 817.551, 677.844 808.134, 681.208 798.717, 684.572 789.300, 687.937 779.883, 691.301 770.466, 694.665 761.049, 698.030 751.631, 701.394 742.214, 704.758 732.797, 708.122 726.786, 710.270 735.466, 715.236 744.146, 720.201 752.935, 725.229 " />
            <path fill="none" stroke-width="3.0" stroke-linecap="butt" stroke-opacity="1.0" stroke="rgb(0, 0, 0)" stroke-linejoin="round" d=" M 875.130, 753.293 865.188, 752.221 855.246, 751.148 845.304, 750.075 835.361, 749.003 825.419, 747.930 815.477, 746.857 805.534, 745.785 795.592, 744.712 785.650, 743.639 775.707, 742.567 765.765, 741.494 755.823, 740.421 745.881, 739.349 735.938, 738.276 726.786, 737.289 " />
            <path fill="none" stroke-width="3.0" stroke-linecap="butt" stroke-opacity="1.0" stroke="rgb(0, 0, 0)" stroke-linejoin="round" d=" M 890.159, 775.408 884.538, 767.137 878.917, 758.866 875.130, 753.293 879.533, 751.263 888.613, 747.075 897.694, 742.887 906.775, 738.699 915.856, 734.511 924.937, 730.323 929.211, 728.352 938.292, 724.164 947.373, 719.976 956.453, 715.789 965.534, 711.601 974.615, 707.413 983.696, 703.225 992.777, 699.037 1001.858, 694.849 1010.938, 690.661 1012.145, 690.105 1019.631, 686.652 1028.712, 682.464 1037.793, 678.276 1042.114, 676.283 1032.172, 675.211 1022.230, 674.138 1012.287, 673.065 1002.345, 671.993 992.403, 670.920 982.460, 669.847 972.518, 668.775 962.576, 667.702 952.633, 666.629 942.691, 665.557 932.749, 664.484 925.895, 663.745 922.365, 663.364 914.200, 662.483 904.258, 661.410 894.316, 660.337 893.770, 660.279 901.119, 653.497 902.889, 651.864 909.513, 645.751 916.862, 638.970 924.211, 632.188 931.560, 625.407 938.910, 618.625 946.259, 611.843 953.608, 605.062 960.957, 598.280 968.306, 591.499 975.655, 584.717 983.004, 577.935 990.353, 571.154 997.703, 564.372 1000.411, 561.872 " />
            <path fill="none" stroke-width="3.0" stroke-linecap="butt" stroke-opacity="1.0" stroke="rgb(0, 0, 0)" stroke-linejoin="round" d=" M 1000.411, 561.872 990.564, 563.614 980.717, 565.356 970.870, 567.097 961.023, 568.839 951.176, 570.580 941.328, 572.322 931.481, 574.064 921.634, 575.805 911.787, 577.547 901.940, 579.289 892.093, 581.030 882.245, 582.772 872.398, 584.513 865.693, 585.699 857.869, 587.083 848.022, 588.825 838.297, 590.545 837.685, 590.653 " />
            <path fill="none" stroke-width="3.0" stroke-linecap="butt" stroke-opacity="1.0" stroke="rgb(0, 0, 0)" stroke-linejoin="round" d=" M 1000.411, 561.872 990.425, 561.345 980.439, 560.818 970.453, 560.290 960.467, 559.763 950.481, 559.236 940.495, 558.708 930.509, 558.181 920.523, 557.654 910.537, 557.126 900.551, 556.599 890.564, 556.071 880.578, 555.544 870.592, 555.017 860.606, 554.489 850.620, 553.962 842.210, 553.518 838.799, 553.338 828.813, 552.810 827.540, 552.743 829.833, 543.010 830.754, 539.101 830.983, 538.131 833.276, 528.398 833.941, 525.576 834.916, 521.439 837.209, 511.705 837.685, 509.684 " />
            <path fill="none" stroke-width="3.0" stroke-linecap="butt" stroke-opacity="1.0" stroke="rgb(0, 0, 0)" stroke-linejoin="round" d=" M 935.872, 349.267 942.024, 341.383 945.876, 336.445 952.028, 328.561 958.179, 320.677 960.000, 318.343 969.865, 316.707 979.731, 315.071 989.596, 313.436 999.461, 311.800 1009.327, 310.164 1019.192, 308.529 1029.057, 306.893 1038.923, 305.257 1048.788, 303.622 1058.653, 301.986 1068.519, 300.350 1078.384, 298.714 1088.249, 297.079 1098.115, 295.443 1107.980, 293.807 1117.845, 292.172 1127.710, 290.536 1137.576, 288.900 1147.441, 287.265 1153.057, 286.333 1146.357, 293.757 1139.656, 301.180 1132.956, 308.603 1126.255, 316.026 1119.554, 323.449 1112.854, 330.872 1106.153, 338.295 1099.453, 345.718 1092.752, 353.141 1086.052, 360.565 1079.351, 367.988 1072.651, 375.411 1065.950, 382.834 1059.250, 390.257 1057.142, 392.591 1055.818, 392.118 1055.796, 392.110 1054.500, 391.647 1052.567, 390.957 1051.196, 390.467 1048.219, 389.403 1038.802, 386.039 1029.385, 382.675 1019.968, 379.311 1010.551, 375.946 1001.134, 372.582 991.717, 369.218 982.300, 365.853 972.883, 362.489 963.466, 359.125 954.049, 355.760 948.105, 353.637 947.559, 353.442 938.142, 350.078 935.872, 349.267 926.455, 345.903 917.038, 342.538 907.621, 339.174 898.204, 335.810 890.159, 332.935 880.324, 334.748 879.533, 334.894 869.698, 336.706 859.864, 338.519 850.029, 340.331 840.195, 342.144 830.361, 343.956 820.526, 345.769 810.692, 347.581 800.858, 349.394 794.273, 350.607 784.439, 352.420 774.604, 354.233 764.770, 356.045 759.901, 356.942 752.935, 360.928 744.255, 365.893 735.575, 370.859 726.786, 375.887 736.204, 379.251 745.621, 382.616 755.038, 385.980 764.455, 389.344 773.872, 392.709 783.289, 396.073 792.706, 399.437 802.123, 402.802 811.540, 406.166 820.957, 409.530 830.374, 412.894 839.792, 416.259 849.209, 419.623 858.626, 422.987 868.043, 426.352 874.053, 428.499 883.471, 431.863 888.891, 433.800 893.770, 435.543 887.737, 443.518 881.704, 451.493 875.671, 459.469 871.001, 465.643 864.968, 473.618 861.739, 477.886 855.706, 485.861 849.673, 493.837 843.640, 501.812 837.685, 509.684 839.770, 499.904 841.856, 490.124 843.941, 480.344 846.027, 470.564 847.829, 462.110 " />
            <path fill="none" stroke-width="3.0" stroke-linecap="butt" stroke-opacity="1.0" stroke="rgb(0, 0, 0)" stroke-linejoin="round" d=" M 960.000, 318.343 956.806, 327.819 953.612, 337.295 952.820, 339.647 949.626, 349.123 948.105, 353.637 " />
            <path fill="none" stroke-width="3.0" stroke-linecap="butt" stroke-opacity="1.0" stroke="rgb(0, 0, 0)" stroke-linejoin="round" d=" M 945.876, 336.445 936.795, 332.257 927.715, 328.069 918.634, 323.881 909.553, 319.693 900.472, 315.505 891.391, 311.317 890.159, 310.749 880.324, 312.561 870.490, 314.374 860.656, 316.187 850.821, 317.999 840.987, 319.812 831.153, 321.624 821.318, 323.437 811.484, 325.249 801.649, 327.062 791.815, 328.874 781.981, 330.687 772.146, 332.499 762.312, 334.312 759.901, 334.756 750.702, 338.676 741.503, 342.597 732.303, 346.517 726.786, 348.868 735.867, 353.056 744.948, 357.244 752.935, 360.928 " />
            <path fill="none" stroke-width="3.0" stroke-linecap="butt" stroke-opacity="1.0" stroke="rgb(0, 0, 0)" stroke-linejoin="round" d=" M 1057.142, 392.591 1053.915, 398.378 1049.044, 407.112 1044.173, 415.846 1042.114, 419.538 " />
            <path fill="none" stroke-width="3.0" stroke-linecap="butt" stroke-opacity="1.0" stroke="rgb(0, 0, 0)" stroke-linejoin="round" d=" M 1042.114, 419.538 1039.302, 429.135 1036.491, 438.731 1033.679, 448.328 1030.867, 457.925 1029.366, 463.048 1026.554, 472.645 1023.743, 482.241 1020.931, 491.838 1018.119, 501.435 1015.307, 511.031 1012.496, 520.628 1009.684, 530.224 1006.872, 539.821 1004.061, 549.417 1001.249, 559.014 1000.411, 561.872 " />
            <path fill="none" stroke-width="3.0" stroke-linecap="butt" stroke-opacity="1.0" stroke="rgb(0, 0, 0)" stroke-linejoin="round" d=" M 875.130, 359.882 880.001, 351.149 884.872, 342.415 889.743, 333.681 890.159, 332.935 " />
            <path fill="none" stroke-width="3.0" stroke-linecap="butt" stroke-opacity="1.0" stroke="rgb(0, 0, 0)" stroke-linejoin="round" d=" M 726.786, 375.887 736.729, 374.814 746.671, 373.742 756.613, 372.669 766.556, 371.596 774.265, 370.765 784.207, 369.692 794.150, 368.619 804.092, 367.547 814.034, 366.474 823.977, 365.401 833.919, 364.329 843.861, 363.256 853.804, 362.183 863.746, 361.111 873.688, 360.038 875.130, 359.882 " />
            <path fill="none" stroke-width="3.0" stroke-linecap="butt" stroke-opacity="1.0" stroke="rgb(0, 0, 0)" stroke-linejoin="round" d=" M 837.685, 509.684 841.418, 510.882 845.002, 512.031 854.525, 515.085 864.047, 518.139 873.569, 521.193 883.092, 524.247 892.614, 527.301 902.136, 530.355 911.658, 533.409 921.181, 536.462 930.703, 539.516 940.225, 542.570 949.747, 545.624 959.270, 548.678 968.792, 551.732 978.314, 554.786 987.837, 557.840 997.359, 560.893 1000.411, 561.872 993.961, 554.231 987.510, 546.590 981.060, 538.948 974.609, 531.307 968.159, 523.665 961.708, 516.024 955.258, 508.383 948.807, 500.741 942.357, 493.100 935.906, 485.458 929.456, 477.817 923.005, 470.176 916.555, 462.534 910.104, 454.893 903.654, 447.251 900.777, 443.844 900.732, 443.790 894.282, 436.149 893.770, 435.543 903.712, 434.470 908.791, 433.922 910.456, 433.743 920.399, 432.670 925.895, 432.077 935.837, 431.004 945.779, 429.932 955.722, 428.859 965.664, 427.786 975.606, 426.714 985.549, 425.641 995.491, 424.568 1005.433, 423.496 1015.376, 422.423 1025.318, 421.350 1035.260, 420.278 1040.421, 419.721 1042.114, 419.538 1040.605, 418.999 1031.188, 415.635 1021.771, 412.271 1012.354, 408.906 1002.937, 405.542 997.470, 403.589 988.547, 400.401 979.130, 397.037 969.713, 393.673 960.296, 390.308 950.879, 386.944 941.462, 383.580 932.045, 380.215 922.628, 376.851 916.155, 374.539 906.738, 371.174 897.321, 367.810 887.904, 364.446 878.486, 361.081 875.130, 359.882 " />
            <path fill="none" stroke-width="3.0" stroke-linecap="butt" stroke-opacity="1.0" stroke="rgb(0, 0, 0)" stroke-linejoin="round" d=" M 1017.510, 567.993 1019.699, 567.278 1020.874, 566.894 1021.432, 566.712 1030.937, 563.606 1040.443, 560.501 1049.948, 557.395 1059.454, 554.290 1068.959, 551.185 1078.465, 548.079 1087.971, 544.974 1093.772, 543.078 1084.266, 539.973 1074.761, 536.868 1065.255, 533.762 1055.750, 530.657 1046.244, 527.551 1036.738, 524.446 1027.233, 521.340 1020.874, 519.263 " />
            <path fill="none" stroke-width="3.0" stroke-linecap="butt" stroke-opacity="1.0" stroke="rgb(0, 0, 0)" stroke-linejoin="round" d=" M 794.273, 350.607 785.192, 346.420 776.111, 342.232 767.031, 338.044 759.901, 334.756 " />
            <path fill="none" stroke-width="3.0" stroke-linecap="butt" stroke-opacity="1.0" stroke="rgb(0, 0, 0)" stroke-linejoin="round" d=" M 952.501, 746.657 955.841, 756.082 959.182, 765.508 960.000, 767.814 " />
            <path fill="none" stroke-width="3.0" stroke-linecap="butt" stroke-opacity="1.0" stroke="rgb(0, 0, 0)" stroke-linejoin="round" d=" M 1020.874, 566.894 1023.626, 576.508 1026.379, 586.121 1029.131, 595.735 1031.884, 605.349 1034.637, 614.962 1037.389, 624.576 1040.142, 634.190 1042.894, 643.804 1045.647, 653.417 1048.400, 663.031 1051.152, 672.645 1053.905, 682.258 1056.657, 691.872 1057.142, 693.566 1055.561, 693.193 " />
        </g>
    </g>
</svg>
