<?xml version="1.0" encoding="utf-8"?>
<!-- Generator: Adobe Illustrator 27.0.0, SVG Export Plug-In . SVG Version: 6.00 Build 0)  -->
<svg version="1.1" id="Layer_1" xmlns="http://www.w3.org/2000/svg" xmlns:xlink="http://www.w3.org/1999/xlink" x="0px" y="0px"
	 viewBox="0 0 1920 1080" style="enable-background:new 0 0 1920 1080;" xml:space="preserve">
<style type="text/css">
	.st0{fill:none;stroke:#000000;stroke-width:7;stroke-linejoin:round;}
</style>
<g id="ViewLayer_LineSet" xmlns:inkscape="http://www.inkscape.org/namespaces/inkscape" inkscape:groupmode="lineset">
	
		<g id="strokes" xmlns:inkscape="http://www.inkscape.org/namespaces/inkscape" inkscape:groupmode="layer" inkscape:label="strokes">
		<path class="st0" d="M727.1,538l-3.6,9.3l-3.6,9.3l-3.6,9.3l-3.6,9.3l-3.6,9.3l-3.6,9.3l-3.6,9.3l-3.6,9.3l-3.6,9.3l-3.6,9.3
			l-3.2,8.1l8.4,5.4l8.4,5.4l8.4,5.4l8.4,5.4l8.4,5.4l8.4,5.4l8.4,5.4l8.4,5.4l8.4,5.4l8.4,5.4l8.4,5.4l8.4,5.4l8.4,5.4l8.4,5.4
			l8.4,5.4l8.4,5.4l8.4,5.4l8.4,5.4l8.4,5.4l8.4,5.4l8.4,5.4l8.4,5.4l7.9,5l8.2-5.7l8.2-5.7l8.2-5.7l8.2-5.7l8.2-5.7l8.2-5.7
			l8.2-5.7l8.2-5.7l8.2-5.7l8.2-5.7l8.2-5.7l8.2-5.7l8.2-5.7l8.2-5.7l8.2-5.7l8.2-5.7l8.2-5.7l8.2-5.7l8.2-5.7l8.2-5.7l8.2-5.7
			l8.2-5.7l8.2-5.7l8.2-5.7l8.2-5.7l8.2-5.7l8.2-5.7l8.2-5.7l8.2-5.7l8.2-5.7l8.2-5.7l8.2-5.7l8.2-5.7l8.2-5.7l8.2-5.7l8.2-5.7
			l8.2-5.7l8.2-5.7l8.2-5.7l4.8-3.3l-8.2-5.7l-8.2-5.7l-8.2-5.7l-8.2-5.7l-8.2-5.7l-8.2-5.7l-8.2-5.7l-8.2-5.7l-8.2-5.7l-8.2-5.7
			l-8.2-5.7l-8.2-5.7l-8.2-5.7l-8.2-5.7l-8.2-5.7l-8.2-5.7l-8.2-5.7l-8.2-5.7l-8.2-5.7l-8.2-5.7l-8.2-5.7l-8.2-5.7l-8.2-5.7
			l-8.2-5.7l-8.2-5.7l-8.2-5.7l-8.2-5.7l-8.2-5.7l-8.2-5.7l-8.2-5.7l-8.2-5.7l-8.2-5.7l-8.2-5.7l-8.2-5.7l-8.2-5.7l-8.2-5.7
			l-8.2-5.7l-8.2-5.7l-8.2-5.7l-4.8-3.3l-8.4,5.4l-8.4,5.4l-8.4,5.4l-8.4,5.4l-8.4,5.4l-8.4,5.4l-8.4,5.4l-8.4,5.4l-8.4,5.4
			l-8.4,5.4l-8.4,5.4l-8.4,5.4l-8.4,5.4l-8.4,5.4l-8.4,5.4l-8.4,5.4l-8.4,5.4l-8.4,5.4l-8.4,5.4l-8.4,5.4l-8.4,5.4l-8.4,5.4l-7.9,5
			l3.6,9.3l3.6,9.3l3.6,9.3l3.6,9.3l3.6,9.3l3.6,9.3l3.6,9.3l3.6,9.3l3.6,9.3l3.6,9.3L727.1,538"/>
		<path class="st0" d="M727.1,538l5.7-8.2l5.7-8.2l5.7-8.2l5.7-8.2l5.7-8.2l5.7-8.2l5.7-8.2l5.7-8.2l5.7-8.2l5.7-8.2l5.7-8.2
			l5.7-8.2l5.7-8.2l5.7-8.2l5.7-8.2l5.7-8.2l5.7-8.2l5.7-8.2l5.7-8.2l5.7-8.2l5.7-8.2l5.7-8.2l5.7-8.2l5.7-8.2l5.7-8.2l5.7-8.2
			l6.8-9.9v10v10v10v10v10v10v10v10v10v10v10v10v10v10v10v10v10v10v10v10v10v10v4.1"/>
		<path class="st0" d="M881.3,538h-10h-10h-10h-10h-10h-10h-10h-10h-10h-10h-10h-10h-10h-10h-10h-4.2l5.7,8.2l5.7,8.2l5.7,8.2
			l5.7,8.2l5.7,8.2l5.7,8.2l5.7,8.2l5.7,8.2l5.7,8.2l5.7,8.2l5.7,8.2l5.7,8.2l5.7,8.2l5.7,8.2l5.7,8.2l5.7,8.2l5.7,8.2l5.7,8.2
			l5.7,8.2l5.7,8.2l5.7,8.2l5.7,8.2l5.7,8.2l5.7,8.2l5.7,8.2l5.7,8.2l6.8,9.9v-10v-10v-10v-10v-10v-10v-10v-10v-10v-10v-10v-10v-10
			v-10v-10v-10v-10v-10v-10v-10v-10v-10V538h10h10h10h10h10h10h10h10h10h10h10h10h10h10h10h10h10h10h10h10h10h10h10h10h10h10h10h10
			h10h10h10h10h6.2"/>
		<path class="st0" d="M727.1,538l-3.6-9.3l-3.6-9.3l-3.6-9.3l-3.6-9.3l-3.6-9.3l-3.6-9.3l-3.6-9.3l-3.6-9.3l-3.6-9.3l-3.6-9.3
			l-3.2-8.1"/>
		<path class="st0" d="M727.1,538l-3.6-9.3l-3.6-9.3l-3.6-9.3l-3.6-9.3l-3.6-9.3l-3.6-9.3l-3.6-9.3l-3.6-9.3l-3.6-9.3l-3.6-9.3
			l-3.2-8.1"/>
	</g>
</g>
</svg>
