<?xml version='1.0' encoding='ascii'?>
<svg xmlns="http://www.w3.org/2000/svg" version="1.1" width="1920" height="1080">
    <g id="ViewLayer_LineSet" xmlns:inkscape="http://www.inkscape.org/namespaces/inkscape" inkscape:groupmode="lineset" inkscape:label="ViewLayer_LineSet">
        <g xmlns:inkscape="http://www.inkscape.org/namespaces/inkscape" inkscape:groupmode="layer" id="strokes" inkscape:label="strokes">
            <path fill="none" stroke-width="3.0" stroke-linecap="butt" stroke-opacity="1.0" stroke="rgb(0, 0, 0)" stroke-linejoin="round" d=" M 912.269, 623.474 922.115, 625.223 931.961, 626.971 941.807, 628.720 951.653, 630.469 954.696, 631.009 964.085, 627.567 973.474, 624.126 982.863, 620.684 992.253, 617.242 1001.642, 613.800 1011.031, 610.359 1020.420, 606.917 1029.809, 603.475 1039.198, 600.033 1048.587, 596.591 1057.976, 593.150 1067.365, 589.708 1076.754, 586.266 1086.143, 582.824 1095.532, 579.383 1104.921, 575.941 1114.310, 572.499 1123.699, 569.057 1133.088, 565.615 1142.477, 562.174 1151.866, 558.732 1161.255, 555.290 1170.644, 551.848 1179.611, 548.562 1170.458, 544.532 1161.306, 540.503 1152.154, 536.474 1143.002, 532.444 1133.849, 528.415 1124.697, 524.386 1115.545, 520.356 1106.392, 516.327 1097.240, 512.298 1088.088, 508.268 1078.936, 504.239 1069.783, 500.210 1060.631, 496.180 1051.479, 492.151 1042.326, 488.122 1033.174, 484.092 1024.022, 480.063 1014.869, 476.034 1005.717, 472.004 996.565, 467.975 987.412, 463.946 978.260, 459.916 971.491, 456.936 " />
            <path fill="none" stroke-width="3.0" stroke-linecap="butt" stroke-opacity="1.0" stroke="rgb(0, 0, 0)" stroke-linejoin="round" d=" M 764.801, 473.106 759.482, 481.574 754.164, 490.042 748.845, 498.510 743.526, 506.978 738.207, 515.446 732.888, 523.914 727.569, 532.382 727.134, 533.075 727.134, 540.276 727.134, 550.276 727.134, 560.276 727.134, 561.776 " />
            <path fill="none" stroke-width="3.0" stroke-linecap="butt" stroke-opacity="1.0" stroke="rgb(0, 0, 0)" stroke-linejoin="round" d=" M 727.134, 561.776 737.134, 561.776 739.266, 561.776 741.836, 561.776 751.836, 561.776 761.836, 561.776 771.836, 561.776 781.836, 561.776 791.836, 561.776 801.836, 561.776 811.836, 561.776 821.836, 561.776 831.836, 561.776 841.836, 561.776 851.836, 561.776 861.836, 561.776 871.836, 561.776 881.346, 561.776 881.346, 561.776 " />
            <path fill="none" stroke-width="3.0" stroke-linecap="butt" stroke-opacity="1.0" stroke="rgb(0, 0, 0)" stroke-linejoin="round" d=" M 727.134, 540.276 732.048, 531.567 736.963, 522.858 741.878, 514.149 746.792, 505.440 751.707, 496.731 756.621, 488.022 761.536, 479.313 765.037, 473.108 " />
            <path fill="none" stroke-width="3.0" stroke-linecap="butt" stroke-opacity="1.0" stroke="rgb(0, 0, 0)" stroke-linejoin="round" d=" M 727.134, 561.776 731.107, 552.599 735.081, 543.422 739.054, 534.246 743.028, 525.069 747.001, 515.892 750.975, 506.716 754.948, 497.539 758.921, 488.362 762.895, 479.185 765.524, 473.113 " />
            <path fill="none" stroke-width="3.0" stroke-linecap="butt" stroke-opacity="1.0" stroke="rgb(0, 0, 0)" stroke-linejoin="round" d=" M 955.967, 384.921 960.885, 376.214 965.804, 367.508 970.723, 358.801 975.641, 350.094 980.560, 341.387 985.479, 332.681 990.397, 323.974 994.662, 316.425 999.580, 307.719 1004.499, 299.012 1009.417, 290.305 1014.336, 281.599 1019.255, 272.892 1024.173, 264.185 1029.092, 255.478 1034.011, 246.772 1038.929, 238.065 1043.848, 229.358 1048.767, 220.652 1053.685, 211.945 1058.604, 203.238 1063.522, 194.531 1068.441, 185.825 1073.360, 177.118 1078.278, 168.411 1083.812, 158.616 1074.662, 162.652 1065.513, 166.688 1056.363, 170.724 1047.214, 174.759 1038.064, 178.795 1028.915, 182.831 1019.766, 186.867 1010.616, 190.902 1001.467, 194.938 992.317, 198.974 983.168, 203.010 974.018, 207.046 971.704, 208.066 966.017, 216.292 960.329, 224.517 954.642, 232.742 948.955, 240.967 943.268, 249.193 937.580, 257.418 931.893, 265.643 926.206, 273.868 920.518, 282.094 914.831, 290.319 909.144, 298.544 903.456, 306.769 901.393, 309.753 895.706, 317.979 890.018, 326.204 884.331, 334.429 878.644, 342.654 872.957, 350.880 867.269, 359.105 861.582, 367.330 855.895, 375.555 850.207, 383.781 849.419, 384.921 " />
            <path fill="none" stroke-width="3.0" stroke-linecap="butt" stroke-opacity="1.0" stroke="rgb(0, 0, 0)" stroke-linejoin="round" d=" M 881.346, 561.776 891.336, 561.333 901.327, 560.890 911.317, 560.448 921.307, 560.005 931.297, 559.563 941.287, 559.120 951.278, 558.677 961.268, 558.235 971.258, 557.792 981.248, 557.350 991.238, 556.907 1001.229, 556.464 1011.219, 556.022 1021.209, 555.579 1031.199, 555.137 1041.189, 554.694 1051.180, 554.251 1061.170, 553.809 1071.160, 553.366 1081.150, 552.924 1091.141, 552.481 1101.131, 552.038 1111.121, 551.596 1121.111, 551.153 1131.101, 550.711 1141.091, 550.268 1151.082, 549.825 1161.072, 549.383 1171.062, 548.940 1179.611, 548.562 " />
            <path fill="none" stroke-width="3.0" stroke-linecap="butt" stroke-opacity="1.0" stroke="rgb(0, 0, 0)" stroke-linejoin="round" d=" M 1030.587, 208.066 1037.913, 201.260 1045.240, 194.453 1052.566, 187.647 1059.892, 180.840 1067.218, 174.034 1074.544, 167.227 1081.870, 160.421 1083.812, 158.616 " />
            <path fill="none" stroke-width="3.0" stroke-linecap="butt" stroke-opacity="1.0" stroke="rgb(0, 0, 0)" stroke-linejoin="round" d=" M 971.704, 208.066 981.704, 208.066 991.704, 208.066 1001.704, 208.066 1011.704, 208.066 1021.704, 208.066 1030.587, 208.066 1026.700, 217.280 1022.812, 226.493 1018.925, 235.707 1015.038, 244.920 1011.150, 254.134 1007.263, 263.347 1003.375, 272.560 999.488, 281.774 995.600, 290.987 991.713, 300.201 987.825, 309.414 986.525, 312.497 982.637, 321.711 978.750, 330.924 974.862, 340.138 970.975, 349.351 967.087, 358.565 963.200, 367.778 959.312, 376.992 955.967, 384.921 " />
            <path fill="none" stroke-width="3.0" stroke-linecap="butt" stroke-opacity="1.0" stroke="rgb(0, 0, 0)" stroke-linejoin="round" d=" M 849.419, 384.921 859.419, 384.921 869.419, 384.921 879.419, 384.921 889.419, 384.921 899.419, 384.921 909.419, 384.921 919.419, 384.921 929.419, 384.921 939.419, 384.921 949.419, 384.921 955.967, 384.921 " />
            <path fill="none" stroke-width="3.0" stroke-linecap="butt" stroke-opacity="1.0" stroke="rgb(0, 0, 0)" stroke-linejoin="round" d=" M 788.276, 473.348 798.276, 473.348 808.276, 473.348 818.276, 473.348 828.276, 473.348 838.276, 473.348 848.276, 473.348 858.276, 473.348 864.591, 473.348 874.591, 473.348 881.346, 473.348 891.346, 473.348 901.346, 473.348 911.346, 473.348 918.657, 473.348 " />
            <path fill="none" stroke-width="3.0" stroke-linecap="butt" stroke-opacity="1.0" stroke="rgb(0, 0, 0)" stroke-linejoin="round" d=" M 918.657, 473.348 922.544, 464.135 926.431, 454.921 926.595, 454.533 930.483, 445.320 934.370, 436.106 938.258, 426.893 942.145, 417.679 946.032, 408.466 949.920, 399.252 953.807, 390.039 955.967, 384.921 965.948, 385.530 975.930, 386.140 985.911, 386.749 995.892, 387.358 1005.874, 387.968 1015.855, 388.577 1025.837, 389.186 1035.818, 389.795 1045.800, 390.405 1055.781, 391.014 1065.762, 391.623 1073.651, 392.105 " />
            <path fill="none" stroke-width="3.0" stroke-linecap="butt" stroke-opacity="1.0" stroke="rgb(0, 0, 0)" stroke-linejoin="round" d=" M 725.626, 383.641 735.625, 383.744 745.625, 383.848 755.624, 383.951 765.623, 384.055 775.623, 384.158 785.622, 384.261 795.622, 384.365 805.621, 384.468 815.621, 384.571 825.620, 384.675 835.620, 384.778 845.619, 384.882 849.419, 384.921 843.732, 393.146 838.044, 401.371 832.357, 409.597 826.670, 417.822 820.982, 426.047 815.295, 434.272 809.608, 442.498 803.920, 450.723 798.233, 458.948 792.045, 467.898 788.276, 473.348 " />
            <path fill="none" stroke-width="3.0" stroke-linecap="butt" stroke-opacity="1.0" stroke="rgb(0, 0, 0)" stroke-linejoin="round" d=" M 1057.580, 664.268 1047.778, 662.289 1037.976, 660.310 1028.173, 658.331 1018.371, 656.352 1008.569, 654.372 998.767, 652.393 988.965, 650.414 979.162, 648.435 969.360, 646.456 959.558, 644.476 949.756, 642.497 939.954, 640.518 930.152, 638.539 920.349, 636.560 918.656, 636.218 914.176, 627.278 912.269, 623.474 907.789, 614.534 903.308, 605.594 898.827, 596.654 894.347, 587.714 889.866, 578.774 885.385, 569.834 881.346, 561.776 885.234, 552.562 889.121, 543.349 893.009, 534.135 894.031, 531.712 897.919, 522.498 901.806, 513.285 905.693, 504.071 909.581, 494.858 913.468, 485.645 917.356, 476.431 918.657, 473.348 928.206, 470.382 937.756, 467.415 947.306, 464.449 956.856, 461.482 966.406, 458.516 969.393, 457.588 971.491, 456.936 981.041, 453.970 990.590, 451.003 1000.140, 448.037 1009.690, 445.070 1019.240, 442.104 1028.790, 439.137 1038.340, 436.171 1047.890, 433.204 1057.580, 430.194 1061.468, 420.980 1065.355, 411.767 1069.242, 402.553 1073.130, 393.340 1073.651, 392.105 1077.022, 382.690 1080.393, 373.276 1083.763, 363.861 1085.114, 360.089 1076.108, 355.742 1067.103, 351.395 1058.097, 347.047 1049.091, 342.700 1040.086, 338.353 1031.080, 334.006 1022.074, 329.658 1013.069, 325.311 1004.063, 320.964 994.662, 316.425 " />
            <path fill="none" stroke-width="3.0" stroke-linecap="butt" stroke-opacity="1.0" stroke="rgb(0, 0, 0)" stroke-linejoin="round" d=" M 901.393, 309.753 891.394, 309.650 881.394, 309.547 871.395, 309.443 861.395, 309.340 858.786, 309.313 850.054, 314.187 841.322, 319.061 832.590, 323.935 823.859, 328.809 815.127, 333.683 806.395, 338.557 797.663, 343.431 788.931, 348.305 780.199, 353.179 771.468, 358.053 762.736, 362.927 754.004, 367.800 745.272, 372.674 736.540, 377.548 727.809, 382.422 725.626, 383.641 719.938, 391.866 714.251, 400.091 708.564, 408.317 702.876, 416.542 697.189, 424.767 691.502, 432.992 685.814, 441.218 680.127, 449.443 674.440, 457.668 668.753, 465.893 664.483, 472.068 674.482, 472.172 684.482, 472.275 694.481, 472.378 704.481, 472.482 714.480, 472.585 724.480, 472.689 734.479, 472.792 744.479, 472.895 754.478, 472.999 764.801, 473.106 765.037, 473.108 765.524, 473.113 775.524, 473.216 785.523, 473.320 788.276, 473.348 782.589, 481.574 776.902, 489.799 771.214, 498.024 765.527, 506.249 759.840, 514.474 754.152, 522.700 748.465, 530.925 747.144, 532.836 742.000, 540.276 736.312, 548.501 735.579, 549.561 733.814, 552.114 728.127, 560.339 727.134, 561.776 " />
            <path fill="none" stroke-width="3.0" stroke-linecap="butt" stroke-opacity="1.0" stroke="rgb(0, 0, 0)" stroke-linejoin="round" d=" M 886.358, 755.635 876.358, 755.672 866.358, 755.709 858.786, 755.737 849.304, 752.560 839.822, 749.382 830.340, 746.205 820.858, 743.028 811.376, 739.851 801.894, 736.674 792.413, 733.497 782.931, 730.319 773.449, 727.142 763.967, 723.965 754.485, 720.788 745.003, 717.611 735.521, 714.434 725.625, 711.118 719.279, 703.390 712.932, 695.663 706.585, 687.935 700.238, 680.207 693.891, 672.480 687.544, 664.752 681.197, 657.025 674.850, 649.297 668.503, 641.569 664.483, 636.675 674.483, 636.638 684.483, 636.602 694.483, 636.565 704.483, 636.528 714.483, 636.491 724.483, 636.454 734.482, 636.417 744.482, 636.380 754.482, 636.343 764.482, 636.306 774.482, 636.269 784.482, 636.232 788.276, 636.218 781.929, 628.490 775.582, 620.763 769.235, 613.035 767.730, 611.202 766.207, 609.348 765.904, 608.980 759.557, 601.252 753.210, 593.524 746.863, 585.797 740.516, 578.069 734.169, 570.342 727.822, 562.614 727.134, 561.776 733.428, 569.546 739.722, 577.317 746.016, 585.088 752.310, 592.859 758.604, 600.630 764.898, 608.400 767.139, 611.167 767.730, 611.202 " />
            <path fill="none" stroke-width="3.0" stroke-linecap="butt" stroke-opacity="1.0" stroke="rgb(0, 0, 0)" stroke-linejoin="round" d=" M 849.419, 710.660 855.766, 718.388 862.113, 726.115 868.460, 733.843 874.807, 741.571 881.154, 749.298 886.358, 755.635 892.705, 763.362 899.052, 771.090 905.399, 778.818 911.746, 786.545 918.093, 794.273 924.440, 802.000 930.787, 809.728 937.134, 817.456 943.481, 825.183 949.828, 832.911 956.175, 840.638 962.522, 848.366 968.869, 856.094 971.704, 859.545 981.296, 862.371 990.889, 865.198 1000.481, 868.024 1010.073, 870.850 1019.665, 873.676 1029.258, 876.503 1038.850, 879.329 1048.442, 882.155 1058.035, 884.981 1067.627, 887.808 1077.219, 890.634 1083.812, 892.576 1078.062, 884.395 1072.312, 876.213 1066.562, 868.031 1060.812, 859.850 1055.063, 851.668 1049.313, 843.486 1043.563, 835.305 1037.813, 827.123 1032.063, 818.941 1026.313, 810.760 1020.564, 802.578 1014.814, 794.396 1009.064, 786.215 1003.314, 778.033 997.564, 769.851 991.815, 761.670 986.308, 753.834 980.558, 745.653 974.808, 737.471 969.059, 729.289 963.309, 721.108 957.559, 712.926 955.967, 710.660 " />
            <path fill="none" stroke-width="3.0" stroke-linecap="butt" stroke-opacity="1.0" stroke="rgb(0, 0, 0)" stroke-linejoin="round" d=" M 1030.587, 859.545 1020.587, 859.545 1010.587, 859.545 1000.587, 859.545 990.587, 859.545 980.587, 859.545 971.704, 859.545 " />
            <path fill="none" stroke-width="3.0" stroke-linecap="butt" stroke-opacity="1.0" stroke="rgb(0, 0, 0)" stroke-linejoin="round" d=" M 1083.812, 892.576 1075.315, 887.303 1066.818, 882.030 1058.322, 876.757 1049.825, 871.484 1041.328, 866.211 1032.831, 860.938 1030.587, 859.545 1026.107, 850.605 1021.626, 841.665 1017.145, 832.725 1012.664, 823.785 1008.184, 814.845 1003.703, 805.905 999.222, 796.965 994.742, 788.025 990.261, 779.085 985.780, 770.145 981.300, 761.205 978.337, 755.295 977.472, 753.568 972.991, 744.628 968.510, 735.688 964.030, 726.748 959.549, 717.808 955.967, 710.660 " />
            <path fill="none" stroke-width="3.0" stroke-linecap="butt" stroke-opacity="1.0" stroke="rgb(0, 0, 0)" stroke-linejoin="round" d=" M 955.967, 710.660 945.967, 710.660 935.967, 710.660 925.967, 710.660 915.967, 710.660 905.967, 710.660 895.967, 710.660 885.967, 710.660 875.967, 710.660 865.967, 710.660 855.967, 710.660 849.419, 710.660 " />
            <path fill="none" stroke-width="3.0" stroke-linecap="butt" stroke-opacity="1.0" stroke="rgb(0, 0, 0)" stroke-linejoin="round" d=" M 1073.651, 696.333 1063.724, 697.542 1053.797, 698.750 1043.871, 699.959 1033.944, 701.167 1024.017, 702.376 1014.091, 703.584 1004.164, 704.793 994.237, 706.001 984.310, 707.210 974.384, 708.418 964.457, 709.627 955.967, 710.660 951.486, 701.720 947.005, 692.780 942.525, 683.840 938.044, 674.900 933.563, 665.960 929.083, 657.020 924.602, 648.080 920.121, 639.140 918.656, 636.218 908.656, 636.218 898.656, 636.218 888.656, 636.218 878.656, 636.218 868.656, 636.218 858.656, 636.218 848.656, 636.218 838.656, 636.218 828.656, 636.218 818.656, 636.218 808.656, 636.218 798.656, 636.218 788.276, 636.218 794.623, 643.945 800.970, 651.673 807.317, 659.401 813.664, 667.128 820.011, 674.856 826.358, 682.583 832.705, 690.311 839.052, 698.039 845.399, 705.766 849.419, 710.660 839.419, 710.697 829.419, 710.734 819.419, 710.771 809.419, 710.808 799.419, 710.845 789.419, 710.882 779.419, 710.919 769.419, 710.956 759.419, 710.993 749.419, 711.030 739.420, 711.067 729.420, 711.104 725.625, 711.118 " />
            <path fill="none" stroke-width="3.0" stroke-linecap="butt" stroke-opacity="1.0" stroke="rgb(0, 0, 0)" stroke-linejoin="round" d=" M 1057.580, 664.268 1062.061, 673.208 1066.541, 682.148 1071.022, 691.088 1073.651, 696.333 1078.773, 704.922 1083.896, 713.510 1085.114, 715.552 1075.789, 719.165 1066.464, 722.778 1057.140, 726.391 1047.815, 730.003 1038.491, 733.616 1029.166, 737.229 1019.842, 740.842 1010.517, 744.455 1001.193, 748.067 991.868, 751.680 986.308, 753.834 " />
        </g>
    </g>
</svg>
