<?xml version='1.0' encoding='ascii'?>
<svg xmlns="http://www.w3.org/2000/svg" version="1.1" width="1920" height="1080">
    <g id="ViewLayer_LineSet" xmlns:inkscape="http://www.inkscape.org/namespaces/inkscape" inkscape:groupmode="lineset" inkscape:label="ViewLayer_LineSet">
        <g xmlns:inkscape="http://www.inkscape.org/namespaces/inkscape" inkscape:groupmode="layer" id="strokes" inkscape:label="strokes">
            <path fill="none" stroke-width="3.0" stroke-linecap="butt" stroke-opacity="1.0" stroke="rgb(0, 0, 0)" stroke-linejoin="round" d=" M 1179.610, 567.247 1170.313, 563.565 1161.015, 559.884 1151.718, 556.202 1142.420, 552.521 1133.122, 548.839 1123.825, 545.158 1114.527, 541.476 1105.229, 537.794 1095.932, 534.113 1086.634, 530.431 1077.336, 526.750 1068.039, 523.068 1058.741, 519.387 1049.443, 515.705 1040.146, 512.024 1030.848, 508.342 1021.551, 504.661 1012.253, 500.979 1001.586, 496.755 " />
            <path fill="none" stroke-width="3.0" stroke-linecap="butt" stroke-opacity="1.0" stroke="rgb(0, 0, 0)" stroke-linejoin="round" d=" M 728.567, 523.782 727.133, 524.937 727.133, 534.937 727.133, 544.610 727.133, 554.610 727.133, 564.610 727.133, 574.610 727.133, 584.610 727.133, 594.610 727.133, 603.349 " />
            <path fill="none" stroke-width="3.0" stroke-linecap="butt" stroke-opacity="1.0" stroke="rgb(0, 0, 0)" stroke-linejoin="round" d=" M 727.133, 603.349 737.133, 603.349 747.133, 603.349 757.133, 603.349 767.133, 603.349 777.133, 603.349 787.133, 603.349 797.133, 603.349 807.133, 603.349 817.133, 603.349 827.133, 603.349 837.133, 603.349 847.133, 603.349 857.133, 603.349 867.133, 603.349 877.133, 603.349 881.346, 603.349 " />
            <path fill="none" stroke-width="3.0" stroke-linecap="butt" stroke-opacity="1.0" stroke="rgb(0, 0, 0)" stroke-linejoin="round" d=" M 727.133, 544.610 733.239, 536.690 739.344, 528.770 743.031, 523.987 " />
            <path fill="none" stroke-width="3.0" stroke-linecap="butt" stroke-opacity="1.0" stroke="rgb(0, 0, 0)" stroke-linejoin="round" d=" M 727.133, 603.349 730.534, 593.944 733.934, 584.540 737.335, 575.136 740.735, 565.732 744.136, 556.328 747.536, 546.924 750.937, 537.520 754.337, 528.116 755.765, 524.168 " />
            <path fill="none" stroke-width="3.0" stroke-linecap="butt" stroke-opacity="1.0" stroke="rgb(0, 0, 0)" stroke-linejoin="round" d=" M 955.966, 445.912 961.166, 437.370 966.365, 428.828 967.184, 427.482 972.383, 418.940 977.582, 410.397 982.781, 401.855 987.980, 393.313 993.179, 384.771 998.378, 376.228 1001.891, 370.456 1007.090, 361.913 1012.289, 353.371 1017.488, 344.829 1022.687, 336.287 1027.886, 327.744 1033.085, 319.202 1038.284, 310.660 1043.484, 302.118 1048.682, 293.575 1053.882, 285.033 1059.081, 276.491 1064.280, 267.949 1069.479, 259.406 1074.678, 250.864 1079.877, 242.322 1083.812, 235.857 1074.759, 240.106 1065.707, 244.354 1056.654, 248.603 1047.602, 252.852 1038.549, 257.101 1029.497, 261.350 1020.444, 265.599 1011.392, 269.848 1002.339, 274.096 993.287, 278.345 984.234, 282.594 975.182, 286.843 971.704, 288.475 965.570, 296.373 959.435, 304.271 953.301, 312.168 947.167, 320.066 941.033, 327.963 934.898, 335.861 928.764, 343.758 922.630, 351.656 916.496, 359.553 915.498, 360.837 909.364, 368.735 903.230, 376.633 897.096, 384.530 890.961, 392.428 884.827, 400.325 878.693, 408.223 872.559, 416.120 866.571, 423.828 860.437, 431.726 854.303, 439.624 849.419, 445.912 " />
            <path fill="none" stroke-width="3.0" stroke-linecap="butt" stroke-opacity="1.0" stroke="rgb(0, 0, 0)" stroke-linejoin="round" d=" M 1001.891, 370.456 1011.015, 374.549 1020.139, 378.643 1029.263, 382.736 1038.386, 386.829 1047.510, 390.923 1056.634, 395.016 1065.758, 399.110 1074.882, 403.203 1084.005, 407.297 1085.113, 407.794 1082.097, 417.328 1079.081, 426.863 1076.065, 436.397 1073.651, 444.028 1069.368, 453.064 1065.085, 462.101 1060.802, 471.137 1057.580, 477.935 1048.101, 481.121 1038.622, 484.307 1029.143, 487.493 1019.664, 490.679 1010.185, 493.865 1001.586, 496.755 1001.282, 496.858 991.803, 500.044 982.324, 503.230 972.846, 506.416 963.367, 509.602 953.888, 512.788 944.409, 515.974 934.930, 519.160 925.451, 522.346 920.642, 523.963 918.656, 524.630 914.373, 533.667 910.090, 542.703 905.807, 551.739 901.524, 560.776 897.241, 569.812 892.958, 578.849 888.675, 587.885 884.392, 596.921 882.275, 601.388 882.174, 601.602 881.973, 602.026 881.346, 603.349 883.259, 603.117 888.730, 602.455 898.657, 601.253 908.585, 600.052 918.512, 598.850 928.440, 597.648 938.368, 596.447 948.295, 595.245 958.223, 594.043 968.150, 592.842 978.078, 591.640 988.005, 590.439 997.933, 589.237 1007.860, 588.035 1013.904, 587.304 1023.832, 586.102 1033.759, 584.901 1043.687, 583.699 1053.614, 582.497 1063.542, 581.296 1073.469, 580.094 1083.397, 578.892 1093.325, 577.691 1103.252, 576.489 1113.180, 575.288 1123.107, 574.086 1133.035, 572.884 1142.962, 571.683 1152.890, 570.481 1162.817, 569.279 1172.745, 568.078 1179.610, 567.247 1169.795, 569.158 1159.979, 571.069 1150.163, 572.979 1140.348, 574.890 1130.532, 576.801 1120.716, 578.712 1110.900, 580.623 1101.085, 582.534 1091.269, 584.444 1081.453, 586.355 1071.637, 588.266 1061.822, 590.177 1052.006, 592.088 1042.190, 593.999 1032.375, 595.910 1022.559, 597.820 1012.743, 599.731 1002.927, 601.642 993.112, 603.553 983.296, 605.464 973.480, 607.375 963.664, 609.285 954.696, 611.031 944.779, 609.742 934.863, 608.453 924.946, 607.163 915.030, 605.874 905.113, 604.585 895.197, 603.296 888.730, 602.455 " />
            <path fill="none" stroke-width="3.0" stroke-linecap="butt" stroke-opacity="1.0" stroke="rgb(0, 0, 0)" stroke-linejoin="round" d=" M 1030.587, 288.475 1037.698, 281.445 1044.810, 274.414 1051.921, 267.384 1059.033, 260.354 1066.144, 253.323 1073.256, 246.293 1080.367, 239.262 1083.812, 235.857 " />
            <path fill="none" stroke-width="3.0" stroke-linecap="butt" stroke-opacity="1.0" stroke="rgb(0, 0, 0)" stroke-linejoin="round" d=" M 971.704, 288.475 981.704, 288.475 991.704, 288.475 1001.704, 288.475 1011.704, 288.475 1021.704, 288.475 1030.587, 288.475 1026.304, 297.512 1022.021, 306.548 1017.738, 315.585 1013.455, 324.621 1009.172, 333.657 1004.889, 342.694 1000.606, 351.730 996.323, 360.766 993.513, 366.696 989.229, 375.733 984.947, 384.769 980.664, 393.805 976.381, 402.842 972.098, 411.878 967.815, 420.915 963.532, 429.951 959.249, 438.987 955.966, 445.912 " />
            <path fill="none" stroke-width="3.0" stroke-linecap="butt" stroke-opacity="1.0" stroke="rgb(0, 0, 0)" stroke-linejoin="round" d=" M 849.419, 445.912 859.419, 445.912 869.419, 445.912 879.419, 445.912 889.419, 445.912 899.419, 445.912 909.419, 445.912 919.419, 445.912 929.419, 445.912 939.419, 445.912 949.419, 445.912 955.966, 445.912 " />
            <path fill="none" stroke-width="3.0" stroke-linecap="butt" stroke-opacity="1.0" stroke="rgb(0, 0, 0)" stroke-linejoin="round" d=" M 788.276, 524.630 798.276, 524.630 808.276, 524.630 818.276, 524.630 828.276, 524.630 832.124, 524.630 842.124, 524.630 852.124, 524.630 862.124, 524.630 872.124, 524.630 881.346, 524.630 881.346, 524.630 891.346, 524.630 901.346, 524.630 911.346, 524.630 918.656, 524.630 922.939, 515.594 927.222, 506.558 931.505, 497.521 935.788, 488.485 939.747, 480.132 944.030, 471.096 948.313, 462.059 952.596, 453.023 955.966, 445.912 965.965, 445.752 975.964, 445.592 985.963, 445.432 995.961, 445.272 1005.960, 445.112 1015.959, 444.952 1025.958, 444.792 1035.956, 444.631 1045.955, 444.471 1055.954, 444.311 1065.952, 444.151 1073.651, 444.028 " />
            <path fill="none" stroke-width="3.0" stroke-linecap="butt" stroke-opacity="1.0" stroke="rgb(0, 0, 0)" stroke-linejoin="round" d=" M 725.625, 444.152 735.624, 444.295 745.623, 444.437 755.622, 444.579 765.621, 444.721 775.620, 444.863 785.619, 445.005 795.618, 445.147 805.617, 445.289 815.616, 445.432 825.615, 445.574 835.614, 445.716 845.613, 445.858 849.419, 445.912 843.284, 453.810 837.150, 461.707 831.016, 469.605 824.882, 477.502 818.747, 485.400 814.679, 490.637 808.545, 498.535 802.411, 506.432 796.277, 514.330 790.142, 522.227 788.276, 524.630 " />
            <path fill="none" stroke-width="3.0" stroke-linecap="butt" stroke-opacity="1.0" stroke="rgb(0, 0, 0)" stroke-linejoin="round" d=" M 915.498, 360.837 905.499, 360.695 895.500, 360.553 885.501, 360.411 875.502, 360.269 865.503, 360.127 858.785, 360.031 850.331, 365.372 841.877, 370.713 833.422, 376.054 824.968, 381.395 816.514, 386.735 808.060, 392.076 799.605, 397.417 791.151, 402.758 782.697, 408.099 774.242, 413.440 765.788, 418.781 757.334, 424.121 748.879, 429.462 740.425, 434.803 731.971, 440.144 725.625, 444.152 719.491, 452.050 713.357, 459.948 707.223, 467.845 701.088, 475.743 694.954, 483.640 688.820, 491.538 682.686, 499.435 676.551, 507.333 670.417, 515.230 664.483, 522.871 674.482, 523.013 684.481, 523.155 694.480, 523.297 704.479, 523.439 714.478, 523.581 724.477, 523.723 728.567, 523.782 738.566, 523.924 743.031, 523.987 752.216, 524.118 755.765, 524.168 765.764, 524.310 775.763, 524.452 785.762, 524.595 788.276, 524.630 782.142, 532.528 776.008, 540.425 772.757, 544.610 766.623, 552.507 760.489, 560.405 754.355, 568.302 752.621, 570.534 749.859, 574.090 743.725, 581.988 737.591, 589.885 731.456, 597.783 727.133, 603.349 735.470, 608.872 743.806, 614.395 752.142, 619.918 760.479, 625.442 768.815, 630.965 777.151, 636.488 785.487, 642.011 788.255, 643.845 788.276, 643.859 " />
            <path fill="none" stroke-width="3.0" stroke-linecap="butt" stroke-opacity="1.0" stroke="rgb(0, 0, 0)" stroke-linejoin="round" d=" M 849.419, 684.370 852.946, 686.707 861.282, 692.230 869.618, 697.753 877.955, 703.277 886.291, 708.800 894.627, 714.323 902.963, 719.846 911.300, 725.370 919.636, 730.893 927.972, 736.416 936.308, 741.940 944.645, 747.463 952.981, 752.986 961.317, 758.509 969.654, 764.033 971.704, 765.391 981.680, 766.082 991.656, 766.772 1001.632, 767.463 1011.608, 768.154 1021.584, 768.845 1031.560, 769.535 1041.536, 770.226 1051.513, 770.917 1061.489, 771.607 1071.465, 772.298 1081.441, 772.989 1083.811, 773.153 1076.184, 766.686 1068.556, 760.219 1060.929, 753.752 1053.301, 747.285 1045.674, 740.818 1038.046, 734.351 1030.419, 727.885 1022.791, 721.418 1015.164, 714.951 1007.536, 708.484 999.909, 702.017 992.281, 695.550 984.654, 689.083 982.579, 687.324 992.406, 685.473 1002.233, 683.622 1012.060, 681.771 1021.887, 679.920 1031.715, 678.069 1041.542, 676.218 1051.369, 674.367 1061.196, 672.516 1071.023, 670.665 1080.851, 668.814 1085.113, 668.011 1077.486, 661.544 1069.858, 655.077 1063.311, 649.526 1057.580, 649.289 1047.587, 648.899 1037.595, 648.508 1027.603, 648.117 1017.610, 647.727 1007.618, 647.336 997.625, 646.946 987.633, 646.555 977.641, 646.165 967.648, 645.774 957.656, 645.384 947.664, 644.993 937.671, 644.602 931.925, 644.378 921.933, 643.987 918.656, 643.859 " />
            <path fill="none" stroke-width="3.0" stroke-linecap="butt" stroke-opacity="1.0" stroke="rgb(0, 0, 0)" stroke-linejoin="round" d=" M 1030.587, 765.391 1020.587, 765.391 1010.587, 765.391 1000.587, 765.391 990.587, 765.391 980.587, 765.391 971.704, 765.391 " />
            <path fill="none" stroke-width="3.0" stroke-linecap="butt" stroke-opacity="1.0" stroke="rgb(0, 0, 0)" stroke-linejoin="round" d=" M 982.579, 687.324 972.640, 686.221 962.701, 685.117 955.966, 684.370 959.482, 686.811 960.093, 687.235 968.306, 692.939 976.520, 698.643 984.734, 704.347 992.947, 710.051 1001.161, 715.756 1009.375, 721.460 1017.588, 727.164 1025.802, 732.868 1034.016, 738.572 1042.229, 744.276 1050.443, 749.980 1058.656, 755.684 1066.870, 761.388 1075.084, 767.092 1083.811, 773.153 1073.916, 771.710 1064.021, 770.267 1054.125, 768.824 1044.230, 767.381 1034.335, 765.938 1030.587, 765.391 1023.812, 758.035 1017.038, 750.680 1010.263, 743.324 1003.489, 735.968 996.714, 728.613 989.940, 721.257 983.165, 713.901 976.391, 706.546 969.616, 699.190 962.841, 691.834 958.600, 687.229 958.189, 686.783 955.966, 684.370 " />
            <path fill="none" stroke-width="3.0" stroke-linecap="butt" stroke-opacity="1.0" stroke="rgb(0, 0, 0)" stroke-linejoin="round" d=" M 955.966, 684.370 945.966, 684.370 935.966, 684.370 925.966, 684.370 915.966, 684.370 905.966, 684.370 895.966, 684.370 885.966, 684.370 875.966, 684.370 865.966, 684.370 855.966, 684.370 849.419, 684.370 " />
            <path fill="none" stroke-width="3.0" stroke-linecap="butt" stroke-opacity="1.0" stroke="rgb(0, 0, 0)" stroke-linejoin="round" d=" M 788.276, 643.859 796.612, 649.382 804.948, 654.906 813.285, 660.429 821.621, 665.952 829.957, 671.476 838.294, 676.999 846.630, 682.522 849.419, 684.370 839.419, 684.330 829.419, 684.291 819.419, 684.252 809.419, 684.212 799.419, 684.173 789.419, 684.133 779.419, 684.094 769.419, 684.055 759.419, 684.015 749.419, 683.976 739.419, 683.936 729.419, 683.897 725.625, 683.882 " />
            <path fill="none" stroke-width="3.0" stroke-linecap="butt" stroke-opacity="1.0" stroke="rgb(0, 0, 0)" stroke-linejoin="round" d=" M 1073.651, 666.738 1063.761, 668.220 1053.871, 669.702 1043.982, 671.183 1034.092, 672.665 1024.202, 674.147 1014.313, 675.628 1004.423, 677.110 994.534, 678.592 984.644, 680.073 974.754, 681.555 964.865, 683.037 955.966, 684.370 949.192, 677.014 942.417, 669.658 935.643, 662.303 928.868, 654.947 922.094, 647.592 919.118, 644.360 919.116, 644.359 918.656, 643.859 " />
            <path fill="none" stroke-width="3.0" stroke-linecap="butt" stroke-opacity="1.0" stroke="rgb(0, 0, 0)" stroke-linejoin="round" d=" M 881.346, 603.349 888.121, 610.704 894.895, 618.060 901.670, 625.415 908.444, 632.771 915.219, 640.127 918.656, 643.859 908.656, 643.859 898.656, 643.859 888.656, 643.859 878.656, 643.859 868.656, 643.859 858.656, 643.859 848.656, 643.859 838.656, 643.859 828.656, 643.859 818.656, 643.859 808.656, 643.859 798.656, 643.859 791.813, 643.859 788.276, 643.859 778.276, 643.820 768.276, 643.780 758.276, 643.741 748.276, 643.702 738.276, 643.662 728.276, 643.623 718.276, 643.583 708.277, 643.544 698.277, 643.505 688.277, 643.465 678.277, 643.426 668.277, 643.386 664.483, 643.372 " />
            <path fill="none" stroke-width="3.0" stroke-linecap="butt" stroke-opacity="1.0" stroke="rgb(0, 0, 0)" stroke-linejoin="round" d=" M 1057.580, 649.289 1064.354, 656.645 1071.129, 664.000 1073.651, 666.738 1083.589, 667.842 1085.113, 668.011 " />
            <path fill="none" stroke-width="3.0" stroke-linecap="butt" stroke-opacity="1.0" stroke="rgb(0, 0, 0)" stroke-linejoin="round" d=" M 788.255, 643.845 778.255, 643.807 768.256, 643.769 758.256, 643.731 748.256, 643.692 738.256, 643.654 728.256, 643.616 718.256, 643.577 708.256, 643.539 698.256, 643.501 688.256, 643.463 678.256, 643.424 668.256, 643.386 664.483, 643.372 672.819, 648.895 681.155, 654.418 689.491, 659.941 697.828, 665.465 706.164, 670.988 714.500, 676.511 722.837, 682.034 725.625, 683.882 735.623, 684.104 745.620, 684.326 755.618, 684.548 765.615, 684.769 775.613, 684.991 785.610, 685.213 795.608, 685.435 805.606, 685.656 815.603, 685.878 825.601, 686.100 835.598, 686.322 845.596, 686.544 852.946, 686.707 " />
            <path fill="none" stroke-width="3.0" stroke-linecap="butt" stroke-opacity="1.0" stroke="rgb(0, 0, 0)" stroke-linejoin="round" d=" M 931.925, 644.378 924.298, 637.911 916.670, 631.444 909.043, 624.977 901.415, 618.510 893.787, 612.043 886.160, 605.576 883.259, 603.117 " />
        </g>
    </g>
</svg>
