<?xml version='1.0' encoding='ascii'?>
<svg xmlns="http://www.w3.org/2000/svg" version="1.1" width="1920" height="1080">
    <g id="ViewLayer_LineSet" xmlns:inkscape="http://www.inkscape.org/namespaces/inkscape" inkscape:groupmode="lineset" inkscape:label="ViewLayer_LineSet">
        <g xmlns:inkscape="http://www.inkscape.org/namespaces/inkscape" inkscape:groupmode="layer" id="strokes" inkscape:label="strokes">
            <path fill="none" stroke-width="3.0" stroke-linecap="butt" stroke-opacity="1.0" stroke="rgb(0, 0, 0)" stroke-linejoin="round" d=" M 900.944, 615.319 910.820, 616.892 920.695, 618.464 930.571, 620.037 940.446, 621.609 950.322, 623.182 954.696, 623.878 964.299, 621.088 973.902, 618.299 983.505, 615.509 993.108, 612.719 1002.711, 609.929 1012.314, 607.139 1021.917, 604.349 1031.520, 601.559 1041.123, 598.770 1050.726, 595.980 1060.329, 593.190 1069.932, 590.400 1079.534, 587.610 1089.137, 584.820 1098.740, 582.030 1108.343, 579.240 1117.946, 576.451 1127.549, 573.661 1137.152, 570.871 1146.755, 568.081 1156.358, 565.291 1165.961, 562.501 1175.564, 559.711 1179.611, 558.536 1170.433, 554.563 1161.256, 550.591 1152.079, 546.619 1142.902, 542.646 1133.725, 538.674 1124.548, 534.701 1115.371, 530.729 1106.193, 526.757 1097.016, 522.784 1087.839, 518.812 1078.662, 514.839 1069.485, 510.867 1060.308, 506.895 1051.131, 502.922 1041.953, 498.950 1032.776, 494.977 1023.599, 491.005 1014.422, 487.032 1005.245, 483.060 996.068, 479.088 986.348, 474.880 " />
            <path fill="none" stroke-width="3.0" stroke-linecap="butt" stroke-opacity="1.0" stroke="rgb(0, 0, 0)" stroke-linejoin="round" d=" M 752.539, 497.088 746.265, 504.875 739.990, 512.662 733.716, 520.449 727.442, 528.235 727.134, 528.618 727.134, 538.618 727.134, 542.529 727.134, 552.529 727.134, 562.529 727.134, 572.529 727.134, 582.529 727.134, 584.064 " />
            <path fill="none" stroke-width="3.0" stroke-linecap="butt" stroke-opacity="1.0" stroke="rgb(0, 0, 0)" stroke-linejoin="round" d=" M 727.134, 584.064 737.134, 584.064 747.134, 584.064 753.276, 584.064 755.765, 584.064 765.765, 584.064 775.765, 584.064 785.765, 584.064 795.765, 584.064 805.765, 584.064 815.765, 584.064 825.765, 584.064 835.765, 584.064 845.765, 584.064 855.765, 584.064 865.765, 584.064 875.765, 584.064 881.346, 584.064 881.346, 584.064 " />
            <path fill="none" stroke-width="3.0" stroke-linecap="butt" stroke-opacity="1.0" stroke="rgb(0, 0, 0)" stroke-linejoin="round" d=" M 727.134, 542.529 732.460, 534.066 737.787, 525.603 743.114, 517.140 748.441, 508.676 753.768, 500.213 755.709, 497.129 " />
            <path fill="none" stroke-width="3.0" stroke-linecap="butt" stroke-opacity="1.0" stroke="rgb(0, 0, 0)" stroke-linejoin="round" d=" M 727.134, 584.064 730.691, 574.718 734.249, 565.372 737.806, 556.026 741.364, 546.680 744.921, 537.335 748.479, 527.989 752.036, 518.643 755.594, 509.297 759.152, 499.951 760.204, 497.186 " />
            <path fill="none" stroke-width="3.0" stroke-linecap="butt" stroke-opacity="1.0" stroke="rgb(0, 0, 0)" stroke-linejoin="round" d=" M 955.967, 411.022 960.630, 402.783 965.555, 394.081 970.481, 385.378 975.407, 376.675 980.332, 367.972 985.258, 359.270 990.184, 350.567 995.109, 341.864 998.142, 336.506 1003.068, 327.803 1007.994, 319.100 1012.919, 310.398 1017.845, 301.695 1022.771, 292.992 1027.697, 284.289 1032.622, 275.587 1037.548, 266.884 1042.474, 258.181 1047.399, 249.479 1052.325, 240.776 1057.251, 232.073 1062.176, 223.370 1067.102, 214.668 1072.028, 205.965 1076.953, 197.262 1081.879, 188.559 1083.812, 185.145 1074.766, 189.408 1065.720, 193.671 1056.674, 197.935 1047.629, 202.198 1038.583, 206.461 1029.537, 210.724 1020.491, 214.987 1011.446, 219.250 1002.400, 223.513 993.354, 227.776 984.308, 232.040 975.263, 236.303 971.704, 237.980 965.933, 246.146 960.162, 254.313 954.390, 262.480 948.619, 270.646 942.848, 278.813 937.077, 286.979 931.306, 295.146 925.534, 303.313 919.763, 311.479 913.992, 319.646 908.050, 328.055 902.278, 336.222 896.507, 344.388 890.736, 352.555 884.965, 360.721 879.194, 368.888 873.422, 377.055 867.651, 385.221 861.880, 393.388 857.221, 399.981 851.450, 408.148 849.419, 411.022 " />
            <path fill="none" stroke-width="3.0" stroke-linecap="butt" stroke-opacity="1.0" stroke="rgb(0, 0, 0)" stroke-linejoin="round" d=" M 881.346, 584.064 891.310, 583.211 901.273, 582.358 911.237, 581.505 921.200, 580.652 931.164, 579.800 941.128, 578.947 951.091, 578.094 961.055, 577.241 971.018, 576.389 980.982, 575.536 990.945, 574.683 1000.909, 573.830 1010.873, 572.978 1020.836, 572.125 1030.800, 571.272 1040.763, 570.419 1050.727, 569.567 1060.690, 568.714 1070.654, 567.861 1080.618, 567.008 1090.581, 566.156 1100.545, 565.303 1110.508, 564.450 1120.472, 563.597 1130.435, 562.745 1140.399, 561.892 1150.363, 561.039 1160.326, 560.186 1170.290, 559.333 1179.611, 558.536 " />
            <path fill="none" stroke-width="3.0" stroke-linecap="butt" stroke-opacity="1.0" stroke="rgb(0, 0, 0)" stroke-linejoin="round" d=" M 1030.587, 237.980 1037.684, 230.935 1044.781, 223.890 1051.878, 216.845 1058.975, 209.800 1066.072, 202.755 1073.169, 195.710 1080.266, 188.665 1083.812, 185.145 " />
            <path fill="none" stroke-width="3.0" stroke-linecap="butt" stroke-opacity="1.0" stroke="rgb(0, 0, 0)" stroke-linejoin="round" d=" M 971.704, 237.980 981.704, 237.980 991.704, 237.980 1001.704, 237.980 1011.704, 237.980 1021.704, 237.980 1030.587, 237.980 1026.627, 247.162 1022.668, 256.345 1018.708, 265.528 1014.748, 274.710 1010.788, 283.893 1006.828, 293.075 1002.869, 302.258 998.909, 311.441 994.949, 320.623 990.989, 329.806 989.828, 332.498 985.869, 341.680 981.909, 350.863 977.949, 360.045 973.989, 369.228 970.030, 378.411 966.070, 387.593 962.110, 396.776 958.150, 405.958 955.967, 411.022 " />
            <path fill="none" stroke-width="3.0" stroke-linecap="butt" stroke-opacity="1.0" stroke="rgb(0, 0, 0)" stroke-linejoin="round" d=" M 849.419, 411.022 859.419, 411.022 869.419, 411.022 879.419, 411.022 889.419, 411.022 899.419, 411.022 909.419, 411.022 919.419, 411.022 929.419, 411.022 939.419, 411.022 949.419, 411.022 955.967, 411.022 " />
            <path fill="none" stroke-width="3.0" stroke-linecap="butt" stroke-opacity="1.0" stroke="rgb(0, 0, 0)" stroke-linejoin="round" d=" M 788.276, 497.543 798.276, 497.543 808.276, 497.543 818.276, 497.543 828.276, 497.543 838.276, 497.543 847.117, 497.543 857.117, 497.543 867.117, 497.543 877.117, 497.543 881.346, 497.543 891.346, 497.543 901.346, 497.543 911.346, 497.543 918.656, 497.543 " />
            <path fill="none" stroke-width="3.0" stroke-linecap="butt" stroke-opacity="1.0" stroke="rgb(0, 0, 0)" stroke-linejoin="round" d=" M 918.656, 497.543 922.616, 488.360 926.576, 479.177 930.536, 469.995 932.836, 464.661 936.796, 455.478 940.756, 446.295 944.715, 437.113 948.675, 427.930 952.635, 418.748 955.967, 411.022 965.964, 411.255 975.961, 411.488 985.958, 411.721 995.956, 411.954 1005.953, 412.187 1015.950, 412.420 1025.948, 412.653 1035.945, 412.886 1045.942, 413.119 1055.939, 413.352 1065.937, 413.585 1073.651, 413.765 " />
            <path fill="none" stroke-width="3.0" stroke-linecap="butt" stroke-opacity="1.0" stroke="rgb(0, 0, 0)" stroke-linejoin="round" d=" M 725.625, 409.448 735.625, 409.575 745.624, 409.702 755.623, 409.830 765.622, 409.957 775.621, 410.084 785.621, 410.211 795.620, 410.338 805.619, 410.465 815.618, 410.592 825.617, 410.719 835.617, 410.846 845.616, 410.973 849.419, 411.022 843.648, 419.188 837.876, 427.355 832.105, 435.521 826.334, 443.688 820.563, 451.855 814.792, 460.021 809.021, 468.188 803.249, 476.355 802.748, 477.065 796.976, 485.231 791.205, 493.398 788.276, 497.543 " />
            <path fill="none" stroke-width="3.0" stroke-linecap="butt" stroke-opacity="1.0" stroke="rgb(0, 0, 0)" stroke-linejoin="round" d=" M 1057.580, 660.898 1047.657, 659.660 1037.734, 658.422 1027.811, 657.185 1017.888, 655.947 1007.964, 654.709 998.041, 653.471 988.118, 652.233 978.195, 650.995 968.272, 649.757 958.349, 648.519 948.426, 647.281 938.503, 646.043 928.580, 644.805 918.656, 643.568 913.344, 635.095 908.032, 626.623 902.719, 618.151 900.944, 615.319 895.632, 606.847 890.319, 598.375 885.007, 589.902 881.346, 584.064 885.306, 574.881 889.266, 565.698 893.225, 556.516 897.185, 547.333 901.145, 538.151 905.105, 528.968 906.014, 526.860 909.974, 517.678 913.933, 508.495 917.893, 499.312 918.656, 497.543 928.139, 494.368 937.622, 491.193 947.104, 488.019 956.587, 484.844 966.070, 481.669 975.552, 478.495 984.126, 475.624 986.348, 474.880 995.831, 471.706 1005.313, 468.531 1014.796, 465.356 1024.279, 462.182 1033.761, 459.007 1043.244, 455.832 1052.727, 452.658 1057.580, 451.033 1061.540, 441.850 1065.500, 432.668 1069.459, 423.485 1073.419, 414.302 1073.651, 413.765 1076.737, 404.253 1079.823, 394.741 1082.909, 385.230 1085.114, 378.436 1076.106, 374.094 1067.098, 369.751 1058.090, 365.408 1049.083, 361.065 1040.075, 356.722 1031.067, 352.380 1022.059, 348.037 1013.052, 343.694 1004.044, 339.351 998.142, 336.506 " />
            <path fill="none" stroke-width="3.0" stroke-linecap="butt" stroke-opacity="1.0" stroke="rgb(0, 0, 0)" stroke-linejoin="round" d=" M 908.050, 328.055 898.050, 327.928 888.051, 327.801 878.052, 327.674 868.053, 327.547 858.786, 327.429 850.271, 332.673 841.757, 337.918 833.242, 343.162 824.728, 348.407 816.213, 353.651 807.699, 358.896 799.184, 364.140 790.670, 369.384 782.156, 374.629 773.641, 379.873 765.127, 385.118 756.612, 390.362 748.098, 395.607 739.583, 400.851 731.069, 406.095 725.625, 409.448 719.854, 417.615 714.083, 425.781 708.312, 433.948 702.541, 442.115 696.770, 450.281 690.998, 458.448 685.227, 466.615 679.456, 474.781 673.685, 482.948 667.914, 491.114 664.483, 495.969 674.482, 496.096 684.481, 496.223 694.480, 496.350 704.480, 496.478 714.479, 496.605 724.478, 496.732 734.477, 496.859 744.476, 496.986 752.539, 497.088 755.709, 497.129 760.204, 497.186 770.204, 497.313 780.203, 497.440 788.276, 497.543 782.505, 505.709 776.734, 513.876 770.963, 522.042 766.966, 527.698 761.194, 535.865 756.485, 542.529 750.714, 550.696 744.943, 558.862 743.677, 560.654 740.961, 564.497 735.189, 572.664 729.418, 580.830 727.134, 584.064 734.300, 591.038 741.466, 598.012 748.633, 604.987 755.799, 611.961 762.966, 618.935 770.132, 625.910 777.299, 632.884 784.465, 639.859 788.276, 643.568 778.276, 643.566 768.276, 643.565 758.276, 643.564 748.276, 643.562 738.276, 643.561 728.276, 643.560 718.276, 643.559 708.276, 643.557 698.276, 643.556 688.276, 643.555 678.276, 643.554 668.276, 643.552 664.483, 643.552 671.649, 650.526 678.816, 657.501 685.982, 664.475 693.149, 671.449 700.315, 678.424 707.481, 685.398 714.648, 692.373 721.814, 699.347 725.625, 703.056 735.459, 704.874 745.292, 706.693 755.125, 708.511 764.958, 710.330 774.792, 712.148 784.625, 713.967 794.458, 715.785 804.291, 717.604 814.125, 719.422 823.958, 721.241 833.791, 723.059 843.625, 724.878 853.458, 726.696 858.786, 727.682 868.786, 727.683 874.708, 727.684 " />
            <path fill="none" stroke-width="3.0" stroke-linecap="butt" stroke-opacity="1.0" stroke="rgb(0, 0, 0)" stroke-linejoin="round" d=" M 849.419, 703.072 856.585, 710.046 863.752, 717.020 870.918, 723.995 874.708, 727.684 881.875, 734.658 889.041, 741.632 896.208, 748.607 903.374, 755.581 910.541, 762.556 917.707, 769.530 924.874, 776.504 932.040, 783.479 939.206, 790.453 946.373, 797.427 953.539, 804.402 960.706, 811.376 967.872, 818.351 971.704, 822.080 981.531, 823.931 991.358, 825.782 1001.185, 827.633 1011.013, 829.484 1020.840, 831.335 1030.667, 833.186 1040.494, 835.037 1050.321, 836.888 1060.149, 838.739 1069.976, 840.590 1079.803, 842.441 1083.812, 843.196 1077.220, 835.676 1070.629, 828.155 1064.037, 820.635 1057.446, 813.115 1050.855, 805.595 1044.263, 798.074 1037.672, 790.554 1031.081, 783.034 1024.489, 775.514 1017.898, 767.993 1011.307, 760.473 1004.715, 752.953 998.124, 745.433 991.532, 737.913 984.941, 730.392 982.579, 727.697 992.162, 724.841 1001.746, 721.984 1011.329, 719.128 1020.912, 716.272 1030.496, 713.415 1040.079, 710.559 1049.662, 707.702 1059.246, 704.846 1068.829, 701.990 1078.412, 699.133 1085.114, 697.136 " />
            <path fill="none" stroke-width="3.0" stroke-linecap="butt" stroke-opacity="1.0" stroke="rgb(0, 0, 0)" stroke-linejoin="round" d=" M 1030.587, 822.080 1020.587, 822.080 1010.587, 822.080 1000.587, 822.080 990.587, 822.080 980.587, 822.080 971.704, 822.080 " />
            <path fill="none" stroke-width="3.0" stroke-linecap="butt" stroke-opacity="1.0" stroke="rgb(0, 0, 0)" stroke-linejoin="round" d=" M 982.579, 727.697 975.239, 720.905 967.899, 714.114 960.560, 707.322 955.967, 703.072 962.707, 710.459 969.447, 717.846 976.187, 725.234 977.593, 726.775 978.434, 727.697 985.174, 735.084 991.914, 742.471 998.654, 749.859 1005.394, 757.246 1012.134, 764.633 1018.874, 772.021 1025.614, 779.408 1032.354, 786.795 1039.094, 794.183 1045.833, 801.570 1052.573, 808.957 1059.313, 816.345 1066.053, 823.732 1072.793, 831.119 1079.533, 838.507 1083.812, 843.196 1074.516, 839.508 1065.221, 835.820 1055.926, 832.133 1046.631, 828.445 1037.336, 824.757 1030.587, 822.080 1025.275, 813.607 1019.963, 805.135 1014.650, 796.663 1009.338, 788.190 1004.026, 779.718 998.713, 771.246 993.401, 762.774 988.089, 754.301 982.776, 745.829 977.464, 737.357 972.152, 728.885 971.406, 727.696 969.942, 725.360 964.630, 716.888 959.317, 708.416 955.967, 703.072 " />
            <path fill="none" stroke-width="3.0" stroke-linecap="butt" stroke-opacity="1.0" stroke="rgb(0, 0, 0)" stroke-linejoin="round" d=" M 955.967, 703.072 945.967, 703.072 935.967, 703.072 925.967, 703.072 915.967, 703.072 905.967, 703.072 895.967, 703.072 885.967, 703.072 875.967, 703.072 865.967, 703.072 855.967, 703.072 849.419, 703.072 " />
            <path fill="none" stroke-width="3.0" stroke-linecap="butt" stroke-opacity="1.0" stroke="rgb(0, 0, 0)" stroke-linejoin="round" d=" M 1073.651, 686.529 1063.748, 687.921 1053.845, 689.313 1043.943, 690.705 1034.040, 692.097 1024.137, 693.489 1014.235, 694.881 1004.332, 696.273 994.430, 697.665 984.527, 699.057 974.624, 700.449 964.722, 701.841 955.967, 703.072 950.654, 694.599 945.342, 686.127 940.030, 677.655 934.717, 669.182 929.405, 660.710 924.093, 652.238 918.656, 643.568 908.656, 643.568 898.656, 643.568 888.656, 643.568 878.656, 643.568 868.656, 643.568 858.656, 643.568 848.656, 643.568 838.656, 643.568 828.656, 643.568 818.656, 643.568 808.656, 643.568 798.656, 643.568 788.276, 643.568 795.443, 650.542 802.609, 657.516 809.775, 664.491 816.942, 671.465 824.108, 678.439 831.275, 685.414 838.441, 692.388 845.608, 699.363 849.419, 703.072 839.419, 703.070 829.419, 703.069 819.419, 703.068 809.419, 703.066 799.419, 703.065 789.419, 703.064 779.419, 703.063 769.419, 703.061 759.419, 703.060 749.419, 703.059 739.419, 703.058 729.419, 703.056 725.625, 703.056 " />
            <path fill="none" stroke-width="3.0" stroke-linecap="butt" stroke-opacity="1.0" stroke="rgb(0, 0, 0)" stroke-linejoin="round" d=" M 1057.580, 660.898 1062.892, 669.371 1068.204, 677.843 1073.651, 686.529 1080.990, 693.321 1085.114, 697.136 " />
        </g>
    </g>
</svg>
