<?xml version='1.0' encoding='ascii'?>
<svg xmlns="http://www.w3.org/2000/svg" version="1.1" width="1920" height="1080">
    <g id="ViewLayer_LineSet" xmlns:inkscape="http://www.inkscape.org/namespaces/inkscape" inkscape:groupmode="lineset" inkscape:label="ViewLayer_LineSet">
        <g xmlns:inkscape="http://www.inkscape.org/namespaces/inkscape" inkscape:groupmode="layer" id="strokes" inkscape:label="strokes">
            <path fill="none" stroke-width="3.0" stroke-linecap="butt" stroke-opacity="1.0" stroke="rgb(0, 0, 0)" stroke-linejoin="round" d=" M 954.791, 631.898 964.019, 628.044 973.246, 624.191 982.474, 620.337 991.702, 616.483 1000.929, 612.629 1010.157, 608.775 1019.384, 604.921 1028.612, 601.068 1037.839, 597.214 1047.067, 593.360 1056.294, 589.506 1065.522, 585.652 1074.750, 581.798 1083.977, 577.945 1093.205, 574.091 1102.432, 570.237 1111.660, 566.383 1120.887, 562.529 1130.115, 558.675 1139.343, 554.822 1148.570, 550.968 1157.798, 547.114 1167.025, 543.260 1176.253, 539.406 1179.611, 538.004 1170.383, 534.150 1161.156, 530.296 1151.928, 526.442 1142.701, 522.589 1133.473, 518.735 1124.246, 514.881 1115.018, 511.027 1105.790, 507.173 1096.563, 503.319 1087.335, 499.465 1078.108, 495.612 1068.880, 491.758 1059.653, 487.904 1050.425, 484.050 1041.198, 480.196 1031.970, 476.342 1022.742, 472.489 1013.515, 468.635 1004.287, 464.781 995.060, 460.927 985.832, 457.073 976.605, 453.219 967.377, 449.366 958.149, 445.512 954.791, 444.109 " />
            <path fill="none" stroke-width="3.0" stroke-linecap="butt" stroke-opacity="1.0" stroke="rgb(0, 0, 0)" stroke-linejoin="round" d=" M 780.980, 463.757 770.999, 464.373 767.139, 464.612 762.353, 473.392 757.567, 482.172 752.781, 490.953 747.995, 499.733 743.209, 508.513 738.423, 517.294 733.637, 526.074 728.851, 534.854 727.134, 538.004 733.005, 529.909 738.876, 521.813 744.747, 513.718 750.617, 505.623 756.488, 497.528 762.359, 489.432 768.230, 481.337 774.101, 473.242 779.972, 465.147 780.980, 463.757 786.851, 455.661 788.276, 453.696 778.277, 453.624 768.277, 453.551 758.277, 453.478 748.278, 453.406 738.278, 453.333 728.278, 453.260 718.278, 453.188 708.279, 453.115 698.279, 453.042 688.279, 452.970 678.279, 452.897 668.280, 452.824 664.483, 452.797 670.354, 444.702 676.225, 436.606 682.096, 428.511 687.967, 420.416 693.838, 412.321 699.709, 404.226 705.580, 396.130 711.450, 388.035 717.321, 379.940 723.192, 371.845 725.626, 368.489 734.702, 364.292 743.779, 360.095 752.856, 355.898 761.932, 351.702 771.009, 347.505 780.086, 343.308 789.162, 339.111 798.239, 334.914 807.316, 330.717 816.392, 326.520 825.469, 322.323 834.546, 318.126 843.622, 313.929 852.699, 309.732 858.786, 306.918 868.786, 306.990 878.785, 307.063 888.785, 307.136 894.537, 307.178 " />
            <path fill="none" stroke-width="3.0" stroke-linecap="butt" stroke-opacity="1.0" stroke="rgb(0, 0, 0)" stroke-linejoin="round" d=" M 955.967, 369.389 961.143, 360.833 966.320, 352.277 971.496, 343.721 976.673, 335.165 981.849, 326.609 987.026, 318.053 990.940, 311.583 996.116, 303.027 1001.293, 294.471 1006.469, 285.915 1011.646, 277.359 1016.822, 268.803 1021.999, 260.247 1027.175, 251.691 1032.351, 243.135 1037.528, 234.580 1042.704, 226.024 1047.881, 217.468 1053.057, 208.912 1058.234, 200.356 1063.410, 191.800 1068.587, 183.244 1073.763, 174.688 1078.939, 166.132 1083.812, 158.078 1074.467, 161.637 1065.122, 165.196 1055.776, 168.755 1046.431, 172.314 1037.086, 175.873 1027.741, 179.432 1018.395, 182.992 1009.050, 186.551 999.705, 190.110 990.360, 193.669 981.015, 197.228 971.704, 200.774 965.833, 208.869 959.962, 216.964 954.091, 225.059 948.221, 233.154 942.350, 241.250 936.479, 249.345 930.608, 257.440 924.737, 265.535 918.866, 273.630 912.995, 281.726 907.124, 289.821 901.253, 297.916 895.382, 306.011 894.537, 307.178 888.666, 315.273 882.795, 323.368 876.924, 331.463 871.053, 339.558 865.182, 347.654 859.311, 355.749 853.440, 363.844 849.419, 369.389 " />
            <path fill="none" stroke-width="3.0" stroke-linecap="butt" stroke-opacity="1.0" stroke="rgb(0, 0, 0)" stroke-linejoin="round" d=" M 881.346, 538.004 891.346, 538.004 901.346, 538.004 911.346, 538.004 921.346, 538.004 931.346, 538.004 941.346, 538.004 951.346, 538.004 961.346, 538.004 971.346, 538.004 981.346, 538.004 991.346, 538.004 1001.346, 538.004 1011.346, 538.004 1021.346, 538.004 1031.346, 538.004 1041.346, 538.004 1051.346, 538.004 1061.346, 538.004 1071.346, 538.004 1081.346, 538.004 1091.346, 538.004 1101.346, 538.004 1111.346, 538.004 1121.346, 538.004 1131.346, 538.004 1141.346, 538.004 1151.346, 538.004 1161.346, 538.004 1171.346, 538.004 1179.611, 538.004 " />
            <path fill="none" stroke-width="3.0" stroke-linecap="butt" stroke-opacity="1.0" stroke="rgb(0, 0, 0)" stroke-linejoin="round" d=" M 1030.588, 200.774 1038.388, 194.516 1046.188, 188.259 1053.989, 182.002 1061.789, 175.744 1069.589, 169.487 1077.390, 163.230 1083.812, 158.078 " />
            <path fill="none" stroke-width="3.0" stroke-linecap="butt" stroke-opacity="1.0" stroke="rgb(0, 0, 0)" stroke-linejoin="round" d=" M 971.704, 200.774 981.704, 200.774 991.704, 200.774 1001.704, 200.774 1011.704, 200.774 1021.704, 200.774 1030.588, 200.774 1026.541, 209.918 1022.494, 219.063 1018.447, 228.207 1014.400, 237.352 1010.353, 246.496 1006.306, 255.641 1002.259, 264.785 998.212, 273.930 994.165, 283.074 990.118, 292.219 986.072, 301.364 983.110, 308.056 979.063, 317.201 975.016, 326.345 970.969, 335.490 966.922, 344.634 962.875, 353.779 958.828, 362.923 955.967, 369.389 " />
            <path fill="none" stroke-width="3.0" stroke-linecap="butt" stroke-opacity="1.0" stroke="rgb(0, 0, 0)" stroke-linejoin="round" d=" M 849.419, 369.389 859.419, 369.389 869.419, 369.389 879.419, 369.389 889.419, 369.389 899.419, 369.389 909.419, 369.389 919.419, 369.389 929.419, 369.389 939.419, 369.389 949.419, 369.389 955.967, 369.389 " />
            <path fill="none" stroke-width="3.0" stroke-linecap="butt" stroke-opacity="1.0" stroke="rgb(0, 0, 0)" stroke-linejoin="round" d=" M 725.626, 368.489 735.625, 368.562 745.625, 368.635 755.625, 368.707 765.625, 368.780 775.624, 368.853 785.624, 368.925 795.624, 368.998 805.624, 369.070 815.623, 369.143 825.623, 369.216 835.623, 369.288 845.623, 369.361 849.419, 369.389 843.548, 377.484 837.677, 385.579 831.806, 393.674 825.935, 401.770 820.065, 409.865 814.194, 417.960 808.323, 426.055 802.452, 434.150 796.581, 442.246 790.710, 450.341 788.276, 453.696 798.276, 453.696 808.276, 453.696 818.276, 453.696 828.276, 453.696 838.276, 453.696 848.276, 453.696 858.276, 453.696 868.276, 453.696 878.276, 453.696 888.276, 453.696 898.276, 453.696 902.340, 453.696 912.340, 453.696 918.657, 453.696 " />
            <path fill="none" stroke-width="3.0" stroke-linecap="butt" stroke-opacity="1.0" stroke="rgb(0, 0, 0)" stroke-linejoin="round" d=" M 918.657, 453.696 920.102, 450.430 924.149, 441.286 928.196, 432.141 932.243, 422.997 936.290, 413.852 940.337, 404.708 944.383, 395.563 948.430, 386.419 952.477, 377.274 955.967, 369.389 965.922, 370.331 975.878, 371.273 985.834, 372.215 995.789, 373.157 1005.745, 374.099 1015.700, 375.041 1025.656, 375.982 1035.611, 376.924 1045.567, 377.866 1055.522, 378.808 1065.478, 379.750 1073.651, 380.524 " />
            <path fill="none" stroke-width="3.0" stroke-linecap="butt" stroke-opacity="1.0" stroke="rgb(0, 0, 0)" stroke-linejoin="round" d=" M 881.346, 538.004 885.393, 528.859 889.440, 519.715 893.487, 510.570 897.534, 501.426 901.581, 492.281 905.628, 483.137 909.675, 473.992 913.722, 464.847 917.769, 455.703 918.657, 453.696 928.322, 451.132 937.988, 448.567 947.654, 446.003 954.774, 444.114 954.791, 444.109 964.457, 441.545 974.122, 438.980 983.788, 436.416 993.454, 433.852 1003.119, 431.287 1012.785, 428.723 1022.450, 426.158 1032.116, 423.594 1041.782, 421.030 1051.447, 418.465 1057.580, 416.838 1061.627, 407.693 1065.674, 398.549 1069.721, 389.404 1073.651, 380.524 1077.619, 371.344 1081.586, 362.165 1085.114, 354.003 1075.996, 349.896 1066.878, 345.789 1057.761, 341.682 1048.643, 337.575 1039.525, 333.468 1030.408, 329.361 1021.290, 325.254 1012.172, 321.147 1003.054, 317.040 993.937, 312.933 990.940, 311.583 " />
            <path fill="none" stroke-width="3.0" stroke-linecap="butt" stroke-opacity="1.0" stroke="rgb(0, 0, 0)" stroke-linejoin="round" d=" M 727.134, 538.004 731.920, 546.784 736.706, 555.564 741.492, 564.345 746.278, 573.125 751.064, 581.905 755.850, 590.686 760.636, 599.466 765.422, 608.246 767.139, 611.396 777.120, 612.012 780.980, 612.251 " />
            <path fill="none" stroke-width="3.0" stroke-linecap="butt" stroke-opacity="1.0" stroke="rgb(0, 0, 0)" stroke-linejoin="round" d=" M 849.419, 706.619 855.290, 714.714 861.161, 722.809 867.032, 730.904 872.903, 739.000 878.773, 747.095 884.644, 755.190 890.515, 763.285 894.537, 768.830 900.407, 776.925 906.278, 785.020 912.149, 793.116 918.020, 801.211 923.891, 809.306 929.762, 817.401 935.633, 825.496 941.504, 833.592 947.375, 841.687 953.246, 849.782 959.117, 857.877 964.987, 865.973 970.858, 874.068 971.704, 875.234 981.049, 878.793 990.395, 882.352 999.740, 885.911 1009.085, 889.470 1018.430, 893.029 1027.775, 896.588 1037.121, 900.147 1046.466, 903.706 1055.811, 907.266 1065.156, 910.825 1074.501, 914.384 1083.812, 917.930 1078.635, 909.374 1073.459, 900.818 1068.282, 892.262 1063.106, 883.706 1057.930, 875.150 1052.753, 866.594 1047.577, 858.038 1042.400, 849.482 1037.224, 840.926 1032.047, 832.370 1026.871, 823.814 1021.695, 815.258 1016.518, 806.702 1011.342, 798.146 1006.165, 789.590 1000.989, 781.034 995.812, 772.478 990.940, 764.424 985.763, 755.868 980.587, 747.312 975.411, 738.757 970.234, 730.201 965.058, 721.645 959.881, 713.089 955.967, 706.619 " />
            <path fill="none" stroke-width="3.0" stroke-linecap="butt" stroke-opacity="1.0" stroke="rgb(0, 0, 0)" stroke-linejoin="round" d=" M 1030.587, 875.234 1020.587, 875.234 1010.587, 875.234 1000.587, 875.234 990.587, 875.234 980.587, 875.234 971.704, 875.234 " />
            <path fill="none" stroke-width="3.0" stroke-linecap="butt" stroke-opacity="1.0" stroke="rgb(0, 0, 0)" stroke-linejoin="round" d=" M 1083.812, 917.930 1076.011, 911.672 1068.211, 905.415 1060.411, 899.158 1052.610, 892.900 1044.810, 886.643 1037.010, 880.386 1030.587, 875.234 1026.541, 866.089 1022.494, 856.945 1018.447, 847.800 1014.400, 838.656 1010.353, 829.511 1006.306, 820.367 1002.259, 811.222 998.212, 802.078 994.165, 792.933 990.118, 783.789 986.071, 774.644 983.110, 767.951 979.063, 758.807 975.016, 749.662 970.969, 740.518 966.922, 731.373 962.875, 722.229 958.828, 713.084 955.967, 706.619 " />
            <path fill="none" stroke-width="3.0" stroke-linecap="butt" stroke-opacity="1.0" stroke="rgb(0, 0, 0)" stroke-linejoin="round" d=" M 955.967, 706.619 945.967, 706.619 935.967, 706.619 925.967, 706.619 915.967, 706.619 905.967, 706.619 895.967, 706.619 885.967, 706.619 875.967, 706.619 865.967, 706.619 855.967, 706.619 849.419, 706.619 " />
            <path fill="none" stroke-width="3.0" stroke-linecap="butt" stroke-opacity="1.0" stroke="rgb(0, 0, 0)" stroke-linejoin="round" d=" M 788.276, 622.311 794.147, 630.406 800.018, 638.502 805.889, 646.597 811.760, 654.692 817.631, 662.787 823.502, 670.883 829.373, 678.978 835.244, 687.073 841.115, 695.168 846.985, 703.263 849.419, 706.619 839.419, 706.691 829.419, 706.764 819.420, 706.837 809.420, 706.909 799.420, 706.982 789.421, 707.055 779.421, 707.127 769.421, 707.200 759.421, 707.273 749.422, 707.345 739.422, 707.418 729.422, 707.491 725.626, 707.518 " />
            <path fill="none" stroke-width="3.0" stroke-linecap="butt" stroke-opacity="1.0" stroke="rgb(0, 0, 0)" stroke-linejoin="round" d=" M 1073.651, 695.484 1063.695, 696.426 1053.740, 697.368 1043.784, 698.310 1033.829, 699.252 1023.873, 700.194 1013.918, 701.136 1003.962, 702.078 994.007, 703.020 984.051, 703.962 974.096, 704.904 964.140, 705.846 955.967, 706.619 951.920, 697.474 947.873, 688.330 943.826, 679.185 939.779, 670.041 935.732, 660.896 931.685, 651.752 927.639, 642.607 923.592, 633.463 920.102, 625.577 918.657, 622.311 " />
            <path fill="none" stroke-width="3.0" stroke-linecap="butt" stroke-opacity="1.0" stroke="rgb(0, 0, 0)" stroke-linejoin="round" d=" M 918.657, 622.311 908.657, 622.311 902.340, 622.311 892.340, 622.311 882.340, 622.311 872.340, 622.311 862.340, 622.311 852.340, 622.311 842.340, 622.311 832.340, 622.311 822.340, 622.311 812.340, 622.311 802.340, 622.311 792.340, 622.311 788.276, 622.311 " />
            <path fill="none" stroke-width="3.0" stroke-linecap="butt" stroke-opacity="1.0" stroke="rgb(0, 0, 0)" stroke-linejoin="round" d=" M 990.940, 764.424 1000.058, 760.317 1009.175, 756.210 1018.293, 752.104 1027.411, 747.997 1036.528, 743.890 1045.646, 739.783 1054.764, 735.676 1063.882, 731.569 1072.999, 727.462 1082.117, 723.355 1085.114, 722.005 1081.146, 712.826 1077.179, 703.646 1073.651, 695.484 1069.604, 686.339 1065.557, 677.195 1061.510, 668.050 1057.580, 659.170 1047.915, 656.605 1038.249, 654.041 1028.583, 651.476 1018.918, 648.912 1009.252, 646.348 999.587, 643.783 989.921, 641.219 980.255, 638.654 970.590, 636.090 960.924, 633.525 954.791, 631.898 954.774, 631.894 945.109, 629.329 935.443, 626.765 925.777, 624.201 918.657, 622.311 914.610, 613.167 910.563, 604.022 906.516, 594.878 902.469, 585.733 898.422, 576.589 894.375, 567.444 890.328, 558.300 886.281, 549.155 882.234, 540.010 881.346, 538.004 " />
            <path fill="none" stroke-width="3.0" stroke-linecap="butt" stroke-opacity="1.0" stroke="rgb(0, 0, 0)" stroke-linejoin="round" d=" M 727.134, 538.004 733.005, 546.099 738.876, 554.194 744.747, 562.289 750.617, 570.385 756.488, 578.480 762.359, 586.575 768.230, 594.670 774.101, 602.765 779.972, 610.861 780.980, 612.251 786.851, 620.346 788.276, 622.311 778.277, 622.384 768.277, 622.457 758.277, 622.529 748.277, 622.602 738.278, 622.675 728.278, 622.747 718.278, 622.820 708.279, 622.892 698.279, 622.965 688.279, 623.038 678.279, 623.110 668.280, 623.183 664.483, 623.211 670.354, 631.306 676.225, 639.401 682.096, 647.496 687.967, 655.592 693.838, 663.687 699.709, 671.782 705.579, 679.877 711.450, 687.972 717.321, 696.068 723.192, 704.163 725.626, 707.518 734.702, 711.715 743.779, 715.912 752.856, 720.109 761.932, 724.306 771.009, 728.503 780.086, 732.700 789.162, 736.897 798.239, 741.094 807.316, 745.291 816.392, 749.488 825.469, 753.684 834.546, 757.881 843.622, 762.078 852.699, 766.275 858.786, 769.090 868.786, 769.017 878.785, 768.944 888.785, 768.872 894.537, 768.830 " />
            <path fill="none" stroke-width="3.0" stroke-linecap="butt" stroke-opacity="1.0" stroke="rgb(0, 0, 0)" stroke-linejoin="round" d=" M 727.134, 538.004 737.134, 538.004 747.134, 538.004 757.134, 538.004 767.134, 538.004 777.134, 538.004 787.134, 538.004 797.134, 538.004 807.134, 538.004 817.134, 538.004 827.134, 538.004 837.134, 538.004 847.134, 538.004 857.134, 538.004 867.134, 538.004 877.134, 538.004 881.346, 538.004 " />
        </g>
    </g>
</svg>
