<?xml version='1.0' encoding='ascii'?>
<svg xmlns="http://www.w3.org/2000/svg" version="1.1" width="1920" height="1080">
    <g id="ViewLayer_LineSet" xmlns:inkscape="http://www.inkscape.org/namespaces/inkscape" inkscape:groupmode="lineset" inkscape:label="ViewLayer_LineSet">
        <g xmlns:inkscape="http://www.inkscape.org/namespaces/inkscape" inkscape:groupmode="layer" id="strokes" inkscape:label="strokes">
            <path fill="none" stroke-width="3.0" stroke-linecap="butt" stroke-opacity="1.0" stroke="rgb(0, 0, 0)" stroke-linejoin="round" d=" M 1150.033, 630.667 1150.034, 630.666 " />
            <path fill="none" stroke-width="3.0" stroke-linecap="butt" stroke-opacity="1.0" stroke="rgb(0, 0, 0)" stroke-linejoin="round" d=" M 1150.033, 356.154 1140.208, 358.014 1130.382, 359.874 1120.557, 361.734 1110.731, 363.594 1100.906, 365.454 1091.080, 367.314 1081.255, 369.174 1071.429, 371.034 1061.604, 372.894 1060.371, 373.128 1050.545, 374.988 1040.720, 376.848 1030.894, 378.708 1021.069, 380.568 1011.243, 382.428 1001.418, 384.288 991.543, 386.157 " />
            <path fill="none" stroke-width="3.0" stroke-linecap="butt" stroke-opacity="1.0" stroke="rgb(0, 0, 0)" stroke-linejoin="round" d=" M 1150.033, 356.154 1140.208, 358.014 1130.382, 359.874 1120.557, 361.734 1110.731, 363.594 1100.906, 365.454 1091.080, 367.314 1081.255, 369.174 1071.429, 371.034 1061.604, 372.894 1060.371, 373.128 " />
            <path fill="none" stroke-width="3.0" stroke-linecap="butt" stroke-opacity="1.0" stroke="rgb(0, 0, 0)" stroke-linejoin="round" d=" M 1150.033, 356.154 1155.033, 364.814 1160.033, 373.474 1165.033, 382.134 1170.033, 390.795 1175.033, 399.455 1180.033, 408.115 1185.033, 416.775 1190.033, 425.436 1195.033, 434.096 1200.033, 442.756 1205.033, 451.416 1210.033, 460.077 1215.033, 468.737 1220.033, 477.397 1225.033, 486.057 1229.278, 493.410 1224.278, 502.071 1219.278, 510.731 1214.278, 519.391 1209.278, 528.051 1204.278, 536.712 1199.278, 545.372 1194.278, 554.032 1189.278, 562.692 1184.278, 571.353 1179.278, 580.013 1174.278, 588.673 1169.278, 597.333 1164.278, 605.994 1159.278, 614.654 1154.278, 623.314 1150.033, 630.667 " />
            <path fill="none" stroke-width="3.0" stroke-linecap="butt" stroke-opacity="1.0" stroke="rgb(0, 0, 0)" stroke-linejoin="round" d=" M 1229.278, 493.410 1229.278, 493.409 1229.278, 493.410 " />
            <path fill="none" stroke-width="3.0" stroke-linecap="butt" stroke-opacity="1.0" stroke="rgb(0, 0, 0)" stroke-linejoin="round" d=" M 818.679, 750.560 827.642, 754.995 836.605, 759.429 845.567, 763.864 854.530, 768.299 863.493, 772.734 872.456, 777.169 881.419, 781.604 890.381, 786.039 899.373, 790.488 " />
            <path fill="none" stroke-width="3.0" stroke-linecap="butt" stroke-opacity="1.0" stroke="rgb(0, 0, 0)" stroke-linejoin="round" d=" M 818.679, 790.488 828.679, 790.488 838.679, 790.488 848.679, 790.488 858.679, 790.488 868.679, 790.488 878.679, 790.488 888.679, 790.488 899.373, 790.488 906.106, 783.095 912.839, 775.701 919.572, 768.307 926.305, 760.914 933.038, 753.520 939.771, 746.126 946.504, 738.733 953.237, 731.339 959.970, 723.945 966.703, 716.552 973.436, 709.158 980.169, 701.764 986.902, 694.371 993.635, 686.977 1000.368, 679.583 1007.101, 672.190 1013.834, 664.796 1020.567, 657.402 1027.300, 650.009 1034.033, 642.615 1040.766, 635.221 1047.499, 627.828 1054.232, 620.434 1060.371, 613.693 " />
            <path fill="none" stroke-width="3.0" stroke-linecap="butt" stroke-opacity="1.0" stroke="rgb(0, 0, 0)" stroke-linejoin="round" d=" M 1150.033, 356.154 1143.219, 363.473 1136.405, 370.792 1129.592, 378.111 1122.778, 385.431 1115.964, 392.750 1109.150, 400.069 1102.336, 407.388 1095.522, 414.708 1088.708, 422.027 1081.895, 429.346 1075.081, 436.665 1068.267, 443.985 1061.453, 451.304 1054.639, 458.623 1047.825, 465.942 1041.011, 473.262 1034.198, 480.581 1027.384, 487.900 1022.254, 493.410 " />
            <path fill="none" stroke-width="3.0" stroke-linecap="butt" stroke-opacity="1.0" stroke="rgb(0, 0, 0)" stroke-linejoin="round" d=" M 1022.254, 493.410 1032.254, 493.410 1042.254, 493.410 1052.254, 493.410 1062.254, 493.410 1072.254, 493.410 1082.254, 493.410 1092.254, 493.410 1102.254, 493.410 1112.254, 493.410 1122.254, 493.410 1132.254, 493.410 1142.254, 493.410 1152.254, 493.410 1162.254, 493.410 1172.254, 493.410 1182.254, 493.410 1192.254, 493.410 1202.254, 493.410 1212.254, 493.410 1222.254, 493.410 1229.278, 493.410 " />
            <path fill="none" stroke-width="3.0" stroke-linecap="butt" stroke-opacity="1.0" stroke="rgb(0, 0, 0)" stroke-linejoin="round" d=" M 604.589, 493.410 613.281, 498.355 621.973, 503.301 630.664, 508.246 639.356, 513.191 648.048, 518.136 656.740, 523.081 665.431, 528.026 674.123, 532.971 682.815, 537.917 691.506, 542.862 700.198, 547.807 708.890, 552.752 717.581, 557.697 726.273, 562.642 734.965, 567.587 743.656, 572.532 752.348, 577.478 761.040, 582.423 769.732, 587.368 778.423, 592.313 787.115, 597.258 795.807, 602.203 804.498, 607.148 813.190, 612.093 816.545, 614.002 " />
            <path fill="none" stroke-width="3.0" stroke-linecap="butt" stroke-opacity="1.0" stroke="rgb(0, 0, 0)" stroke-linejoin="round" d=" M 912.297, 493.410 902.297, 493.410 892.297, 493.410 882.297, 493.410 872.297, 493.410 862.297, 493.410 852.297, 493.410 842.297, 493.410 832.297, 493.410 822.297, 493.410 812.297, 493.410 802.297, 493.410 792.297, 493.410 782.297, 493.410 774.981, 493.410 " />
            <path fill="none" stroke-width="3.0" stroke-linecap="butt" stroke-opacity="1.0" stroke="rgb(0, 0, 0)" stroke-linejoin="round" d=" M 827.908, 602.813 831.433, 602.767 841.432, 602.636 851.432, 602.504 861.431, 602.373 871.430, 602.242 881.429, 602.110 891.428, 601.979 901.427, 601.847 911.426, 601.716 921.426, 601.585 931.425, 601.453 941.424, 601.322 951.423, 601.191 961.422, 601.059 971.421, 600.928 981.420, 600.797 991.542, 600.664 " />
            <path fill="none" stroke-width="3.0" stroke-linecap="butt" stroke-opacity="1.0" stroke="rgb(0, 0, 0)" stroke-linejoin="round" d=" M 818.679, 790.488 808.679, 790.488 798.679, 790.488 788.679, 790.488 778.679, 790.488 768.679, 790.488 758.679, 790.488 748.679, 790.488 738.679, 790.488 728.679, 790.488 718.679, 790.488 708.679, 790.488 698.679, 790.488 688.679, 790.488 678.679, 790.488 668.679, 790.488 658.679, 790.488 648.679, 790.488 637.306, 790.488 " />
            <path fill="none" stroke-width="3.0" stroke-linecap="butt" stroke-opacity="1.0" stroke="rgb(0, 0, 0)" stroke-linejoin="round" d=" M 912.297, 493.410 918.240, 485.368 924.182, 477.325 930.125, 469.282 936.067, 461.239 942.010, 453.196 947.952, 445.154 953.895, 437.111 959.837, 429.068 965.780, 421.025 971.722, 412.982 977.665, 404.940 983.607, 396.897 989.550, 388.854 991.543, 386.157 " />
            <path fill="none" stroke-width="3.0" stroke-linecap="butt" stroke-opacity="1.0" stroke="rgb(0, 0, 0)" stroke-linejoin="round" d=" M 991.543, 386.157 981.543, 386.026 971.544, 385.895 961.545, 385.763 951.546, 385.632 941.547, 385.500 931.548, 385.369 921.549, 385.238 911.549, 385.106 901.550, 384.975 891.551, 384.844 881.552, 384.712 871.553, 384.581 861.554, 384.450 851.555, 384.318 841.555, 384.187 831.433, 384.054 827.908, 384.008 " />
            <path fill="none" stroke-width="3.0" stroke-linecap="butt" stroke-opacity="1.0" stroke="rgb(0, 0, 0)" stroke-linejoin="round" d=" M 1060.371, 373.128 1053.638, 365.734 1046.905, 358.340 1040.172, 350.946 1033.439, 343.553 1026.706, 336.159 1019.973, 328.765 1013.240, 321.372 1006.506, 313.978 999.773, 306.584 993.040, 299.191 986.307, 291.797 979.574, 284.403 972.841, 277.010 966.108, 269.616 959.375, 262.222 952.642, 254.829 945.909, 247.435 939.176, 240.041 932.443, 232.648 925.710, 225.254 918.977, 217.860 912.244, 210.467 905.511, 203.073 899.373, 196.332 889.373, 196.332 879.373, 196.332 869.373, 196.332 859.373, 196.332 849.373, 196.332 839.373, 196.332 829.373, 196.332 819.373, 196.332 809.373, 196.332 799.373, 196.332 789.373, 196.332 779.373, 196.332 769.373, 196.332 759.373, 196.332 749.373, 196.332 739.373, 196.332 729.373, 196.332 719.373, 196.332 709.373, 196.332 699.373, 196.332 689.373, 196.332 679.373, 196.332 669.373, 196.332 659.373, 196.332 649.373, 196.332 637.306, 196.332 " />
            <path fill="none" stroke-width="3.0" stroke-linecap="butt" stroke-opacity="1.0" stroke="rgb(0, 0, 0)" stroke-linejoin="round" d=" M 991.542, 600.664 983.987, 607.215 976.432, 613.766 968.877, 620.318 961.322, 626.869 953.767, 633.420 946.212, 639.972 938.656, 646.523 931.101, 653.074 923.546, 659.626 915.991, 666.177 908.436, 672.728 900.881, 679.280 893.326, 685.831 885.771, 692.382 878.215, 698.934 870.660, 705.485 863.105, 712.036 855.550, 718.587 847.995, 725.139 840.440, 731.690 832.885, 738.241 825.330, 744.793 818.679, 750.560 808.913, 752.710 799.147, 754.860 789.381, 757.010 779.615, 759.160 769.848, 761.309 760.082, 763.459 750.316, 765.609 740.550, 767.759 730.784, 769.909 721.018, 772.059 711.252, 774.209 701.485, 776.359 691.719, 778.509 681.953, 780.659 672.187, 782.809 662.421, 784.959 652.655, 787.109 642.888, 789.259 637.306, 790.488 " />
            <path fill="none" stroke-width="3.0" stroke-linecap="butt" stroke-opacity="1.0" stroke="rgb(0, 0, 0)" stroke-linejoin="round" d=" M 774.981, 493.410 779.336, 502.412 783.691, 511.414 788.046, 520.416 792.401, 529.418 796.756, 538.420 801.111, 547.422 805.466, 556.424 809.821, 565.426 814.176, 574.428 818.531, 583.430 822.886, 592.431 827.241, 601.433 827.908, 602.813 820.783, 609.829 820.123, 610.479 816.545, 614.002 810.491, 619.962 803.366, 626.979 796.240, 633.995 789.115, 641.011 781.989, 648.027 774.864, 655.043 767.738, 662.059 760.612, 669.075 753.487, 676.092 746.361, 683.108 739.236, 690.124 732.110, 697.140 724.984, 704.156 717.859, 711.172 710.733, 718.188 703.608, 725.204 696.482, 732.221 689.357, 739.237 682.231, 746.253 675.105, 753.269 667.980, 760.285 660.854, 767.301 653.729, 774.317 646.603, 781.333 639.478, 788.350 637.306, 790.488 " />
            <path fill="none" stroke-width="3.0" stroke-linecap="butt" stroke-opacity="1.0" stroke="rgb(0, 0, 0)" stroke-linejoin="round" d=" M 818.679, 236.261 808.913, 234.111 799.147, 231.961 789.381, 229.811 779.615, 227.661 769.848, 225.511 760.082, 223.361 750.316, 221.211 740.550, 219.061 730.784, 216.911 721.018, 214.761 711.252, 212.611 701.485, 210.461 691.719, 208.311 681.953, 206.161 672.187, 204.011 662.421, 201.861 652.655, 199.711 642.889, 197.562 637.306, 196.332 " />
            <path fill="none" stroke-width="3.0" stroke-linecap="butt" stroke-opacity="1.0" stroke="rgb(0, 0, 0)" stroke-linejoin="round" d=" M 637.306, 196.332 646.120, 201.056 654.934, 205.779 663.748, 210.502 672.563, 215.226 681.377, 219.949 690.191, 224.672 699.005, 229.395 707.819, 234.119 716.634, 238.842 725.448, 243.565 734.262, 248.289 743.076, 253.012 751.891, 257.735 760.705, 262.458 769.519, 267.182 778.333, 271.905 787.148, 276.628 795.962, 281.351 804.776, 286.075 813.590, 290.798 822.404, 295.521 831.219, 300.245 840.033, 304.968 848.847, 309.691 857.661, 314.414 866.476, 319.138 875.290, 323.861 884.104, 328.584 892.918, 333.307 901.732, 338.031 910.547, 342.754 919.361, 347.477 928.175, 352.201 936.989, 356.924 945.804, 361.647 954.618, 366.370 963.432, 371.094 972.246, 375.817 981.061, 380.540 991.543, 386.157 " />
            <path fill="none" stroke-width="3.0" stroke-linecap="butt" stroke-opacity="1.0" stroke="rgb(0, 0, 0)" stroke-linejoin="round" d=" M 991.542, 600.664 985.600, 592.621 979.657, 584.578 973.715, 576.535 967.772, 568.492 961.830, 560.450 955.887, 552.407 949.945, 544.364 944.002, 536.321 938.060, 528.278 932.117, 520.236 926.175, 512.193 920.232, 504.150 914.290, 496.107 912.297, 493.410 922.297, 493.410 932.297, 493.410 942.297, 493.410 952.297, 493.410 962.297, 493.410 972.297, 493.410 982.297, 493.410 992.297, 493.410 1002.297, 493.410 1012.297, 493.410 1022.254, 493.410 1029.068, 500.730 1035.882, 508.049 1042.695, 515.368 1049.509, 522.687 1056.323, 530.007 1063.137, 537.326 1069.951, 544.645 1076.765, 551.964 1083.578, 559.284 1090.392, 566.603 1097.206, 573.922 1104.020, 581.241 1110.834, 588.561 1117.648, 595.880 1124.462, 603.199 1131.276, 610.518 1138.089, 617.838 1144.903, 625.157 1150.033, 630.667 " />
            <path fill="none" stroke-width="3.0" stroke-linecap="butt" stroke-opacity="1.0" stroke="rgb(0, 0, 0)" stroke-linejoin="round" d=" M 991.543, 386.157 983.987, 379.606 976.432, 373.055 968.877, 366.503 961.322, 359.952 953.767, 353.401 946.212, 346.849 938.657, 340.298 931.101, 333.747 923.546, 327.195 915.991, 320.644 908.436, 314.093 900.881, 307.541 893.326, 300.990 885.771, 294.439 878.216, 287.887 870.660, 281.336 863.105, 274.785 855.550, 268.233 847.995, 261.682 840.440, 255.131 832.885, 248.579 825.330, 242.028 818.679, 236.261 827.642, 231.826 836.605, 227.391 845.568, 222.956 854.530, 218.521 863.493, 214.086 872.456, 209.652 881.419, 205.217 890.381, 200.782 899.373, 196.332 " />
            <path fill="none" stroke-width="3.0" stroke-linecap="butt" stroke-opacity="1.0" stroke="rgb(0, 0, 0)" stroke-linejoin="round" d=" M 774.981, 493.410 764.981, 493.410 754.981, 493.410 744.981, 493.410 734.981, 493.410 724.981, 493.410 714.981, 493.410 704.981, 493.410 694.981, 493.410 684.981, 493.410 674.981, 493.410 664.981, 493.410 654.981, 493.410 644.981, 493.410 634.981, 493.410 624.981, 493.410 614.981, 493.410 604.589, 493.410 613.281, 488.465 621.973, 483.520 630.664, 478.575 639.356, 473.630 648.048, 468.685 656.740, 463.740 665.431, 458.794 674.123, 453.849 682.815, 448.904 691.506, 443.959 700.198, 439.014 708.890, 434.069 717.581, 429.124 726.273, 424.179 734.965, 419.233 743.657, 414.288 752.348, 409.343 761.040, 404.398 769.732, 399.453 778.423, 394.508 787.115, 389.563 795.807, 384.618 804.498, 379.672 813.190, 374.727 816.545, 372.819 " />
            <path fill="none" stroke-width="3.0" stroke-linecap="butt" stroke-opacity="1.0" stroke="rgb(0, 0, 0)" stroke-linejoin="round" d=" M 774.981, 493.410 779.336, 484.408 783.691, 475.407 788.046, 466.405 792.401, 457.403 796.756, 448.401 801.111, 439.399 805.466, 430.397 809.821, 421.395 814.176, 412.393 818.531, 403.391 822.886, 394.389 827.241, 385.387 827.908, 384.008 820.783, 376.991 820.123, 376.342 816.545, 372.819 809.419, 365.803 802.294, 358.786 795.168, 351.770 788.043, 344.754 780.917, 337.738 773.791, 330.722 766.666, 323.706 759.540, 316.690 752.415, 309.673 745.289, 302.657 738.164, 295.641 731.038, 288.625 723.912, 281.609 716.787, 274.593 709.661, 267.577 702.536, 260.561 695.410, 253.544 688.284, 246.528 681.159, 239.512 674.033, 232.496 666.908, 225.480 659.782, 218.464 652.657, 211.448 645.531, 204.432 637.306, 196.332 " />
            <path fill="none" stroke-width="3.0" stroke-linecap="butt" stroke-opacity="1.0" stroke="rgb(0, 0, 0)" stroke-linejoin="round" d=" M 818.679, 790.488 818.679, 790.488 " />
            <path fill="none" stroke-width="3.0" stroke-linecap="butt" stroke-opacity="1.0" stroke="rgb(0, 0, 0)" stroke-linejoin="round" d=" M 637.306, 790.488 646.120, 785.765 654.934, 781.042 663.748, 776.318 672.562, 771.595 681.377, 766.872 690.191, 762.149 699.005, 757.425 707.819, 752.702 716.634, 747.979 725.448, 743.255 734.262, 738.532 743.076, 733.809 751.891, 729.086 760.705, 724.362 769.519, 719.639 778.333, 714.916 787.147, 710.193 795.962, 705.469 804.776, 700.746 813.590, 696.023 822.404, 691.299 831.219, 686.576 840.033, 681.853 848.847, 677.130 857.661, 672.406 866.476, 667.683 875.290, 662.960 884.104, 658.237 892.918, 653.513 901.732, 648.790 910.547, 644.067 919.361, 639.343 928.175, 634.620 936.989, 629.897 945.804, 625.174 954.618, 620.450 963.432, 615.727 972.246, 611.004 981.061, 606.280 991.542, 600.664 " />
            <path fill="none" stroke-width="3.0" stroke-linecap="butt" stroke-opacity="1.0" stroke="rgb(0, 0, 0)" stroke-linejoin="round" d=" M 1060.371, 613.693 1070.196, 615.553 1080.022, 617.413 1089.847, 619.273 1099.673, 621.134 1109.498, 622.994 1119.323, 624.854 1129.149, 626.714 1138.974, 628.574 1148.800, 630.434 1150.033, 630.667 " />
            <path fill="none" stroke-width="3.0" stroke-linecap="butt" stroke-opacity="1.0" stroke="rgb(0, 0, 0)" stroke-linejoin="round" d=" M 991.542, 600.664 1001.368, 602.524 1011.193, 604.384 1021.019, 606.244 1030.844, 608.104 1040.670, 609.964 1050.495, 611.824 1060.371, 613.693 1070.196, 615.553 1080.022, 617.413 1089.847, 619.273 1099.673, 621.134 1109.498, 622.994 1119.323, 624.854 1129.149, 626.714 1138.974, 628.574 1148.800, 630.434 1150.033, 630.667 " />
            <path fill="none" stroke-width="3.0" stroke-linecap="butt" stroke-opacity="1.0" stroke="rgb(0, 0, 0)" stroke-linejoin="round" d=" M 1150.033, 630.667 1150.034, 630.666 " />
            <path fill="none" stroke-width="3.0" stroke-linecap="butt" stroke-opacity="1.0" stroke="rgb(0, 0, 0)" stroke-linejoin="round" d=" M 1229.278, 493.410 1224.278, 502.071 1219.278, 510.731 1214.278, 519.391 1209.278, 528.051 1204.278, 536.712 1199.278, 545.372 1194.278, 554.032 1189.278, 562.692 1184.278, 571.353 1179.278, 580.013 1174.278, 588.673 1169.278, 597.333 1164.278, 605.994 1159.278, 614.654 1154.278, 623.314 1150.033, 630.667 " />
        </g>
    </g>
</svg>
