<?xml version='1.0' encoding='ascii'?>
<svg xmlns="http://www.w3.org/2000/svg" version="1.1" width="1920" height="1080">
    <g id="ViewLayer_LineSet" xmlns:inkscape="http://www.inkscape.org/namespaces/inkscape" inkscape:groupmode="lineset" inkscape:label="ViewLayer_LineSet">
        <g xmlns:inkscape="http://www.inkscape.org/namespaces/inkscape" inkscape:groupmode="layer" id="strokes" inkscape:label="strokes">
            <path fill="none" stroke-width="3.0" stroke-linecap="butt" stroke-opacity="1.0" stroke="rgb(0, 0, 0)" stroke-linejoin="round" d=" M 991.542, 596.731 1001.470, 597.932 1011.397, 599.134 1021.325, 600.335 1031.252, 601.537 1041.180, 602.738 1046.696, 603.406 1056.623, 604.608 1066.551, 605.809 1076.478, 607.011 1086.406, 608.212 1096.333, 609.414 1106.261, 610.615 1116.188, 611.817 1126.116, 613.018 1136.043, 614.220 1145.971, 615.421 1150.033, 615.913 1155.580, 607.592 1161.127, 599.272 1166.674, 590.951 1172.221, 582.631 1177.768, 574.310 1183.315, 565.990 1188.862, 557.669 1194.409, 549.349 1199.956, 541.028 1205.503, 532.708 1211.050, 524.387 1216.597, 516.067 1222.144, 507.746 1227.691, 499.426 1229.278, 497.045 " />
            <path fill="none" stroke-width="3.0" stroke-linecap="butt" stroke-opacity="1.0" stroke="rgb(0, 0, 0)" stroke-linejoin="round" d=" M 827.908, 418.716 820.434, 412.072 812.961, 405.428 812.463, 404.986 804.990, 398.342 800.929, 394.731 797.137, 391.360 789.663, 384.716 782.190, 378.072 774.716, 371.428 767.243, 364.784 759.769, 358.139 752.295, 351.495 744.822, 344.851 737.348, 338.207 729.875, 331.563 722.401, 324.918 714.927, 318.274 707.454, 311.630 699.980, 304.986 692.506, 298.342 685.033, 291.698 677.559, 285.053 670.086, 278.409 662.612, 271.765 655.138, 265.121 647.665, 258.477 640.191, 251.832 637.305, 249.267 637.305, 239.267 637.305, 229.267 637.305, 228.956 637.305, 218.956 637.305, 208.956 637.305, 208.646 647.261, 209.590 657.216, 210.535 667.171, 211.479 677.126, 212.424 687.082, 213.369 697.037, 214.313 706.992, 215.258 716.948, 216.202 726.903, 217.147 736.858, 218.092 746.813, 219.036 756.769, 219.981 766.724, 220.925 776.679, 221.870 786.635, 222.815 796.590, 223.759 806.545, 224.704 816.500, 225.648 818.679, 225.855 828.672, 226.239 838.664, 226.623 848.657, 227.007 858.649, 227.391 868.642, 227.775 878.635, 228.159 888.627, 228.543 899.373, 228.956 906.619, 235.848 913.865, 242.739 921.112, 249.630 928.358, 256.521 935.604, 263.413 942.851, 270.304 950.097, 277.195 957.344, 284.087 964.590, 290.978 971.836, 297.869 979.083, 304.761 986.329, 311.652 993.575, 318.543 1000.822, 325.434 1008.068, 332.326 1015.315, 339.217 1022.561, 346.108 1029.807, 353.000 1037.054, 359.891 1044.300, 366.782 1046.696, 369.060 1053.942, 375.952 1061.188, 382.843 1068.435, 389.734 1072.236, 393.349 1062.466, 395.482 1052.696, 397.614 1042.926, 399.747 1033.156, 401.880 1023.386, 404.012 1013.616, 406.145 1003.846, 408.277 994.076, 410.410 991.542, 410.963 1001.335, 408.937 1011.128, 406.911 1020.920, 404.886 1030.713, 402.860 1040.505, 400.834 1050.298, 398.808 1060.091, 396.783 1069.884, 394.757 1079.676, 392.731 1089.469, 390.706 1099.262, 388.680 1109.054, 386.654 1118.847, 384.628 1128.640, 382.603 1138.432, 380.577 1148.225, 378.551 1150.033, 378.177 " />
            <path fill="none" stroke-width="3.0" stroke-linecap="butt" stroke-opacity="1.0" stroke="rgb(0, 0, 0)" stroke-linejoin="round" d=" M 1046.696, 369.060 1056.623, 367.859 1066.551, 366.657 1076.478, 365.456 1086.406, 364.254 1096.333, 363.053 1106.261, 361.851 1116.188, 360.650 1126.116, 359.448 1136.044, 358.247 1145.971, 357.045 1150.033, 356.554 1155.580, 364.874 1161.127, 373.195 1166.674, 381.515 1172.221, 389.836 1177.768, 398.156 1183.315, 406.477 1188.862, 414.797 1194.409, 423.118 1199.956, 431.438 1205.503, 439.759 1211.050, 448.079 1216.597, 456.400 1222.144, 464.720 1227.691, 473.041 1229.278, 475.421 1229.277, 485.421 1229.277, 486.232 1229.278, 496.232 1229.278, 497.045 1223.731, 488.725 1218.184, 480.404 1212.637, 472.084 1207.090, 463.763 1201.543, 455.443 1195.996, 447.122 1190.449, 438.802 1184.902, 430.481 1179.355, 422.161 1173.808, 413.840 1168.261, 405.520 1162.714, 397.199 1157.167, 388.878 1151.620, 380.558 1150.033, 378.177 1150.031, 368.177 1150.031, 367.366 1150.033, 357.366 1150.033, 356.554 " />
            <path fill="none" stroke-width="3.0" stroke-linecap="butt" stroke-opacity="1.0" stroke="rgb(0, 0, 0)" stroke-linejoin="round" d=" M 991.542, 596.731 983.458, 602.617 975.375, 608.504 967.291, 614.391 959.207, 620.277 951.123, 626.164 943.040, 632.051 934.956, 637.937 926.872, 643.824 918.788, 649.711 910.704, 655.597 902.621, 661.484 894.537, 667.371 886.453, 673.257 878.369, 679.144 870.286, 685.031 862.202, 690.917 854.118, 696.804 846.034, 702.690 837.951, 708.577 829.867, 714.464 821.783, 720.350 818.679, 722.611 " />
            <path fill="none" stroke-width="3.0" stroke-linecap="butt" stroke-opacity="1.0" stroke="rgb(0, 0, 0)" stroke-linejoin="round" d=" M 637.305, 763.821 647.057, 761.605 656.808, 759.389 666.560, 757.174 676.311, 754.958 686.063, 752.743 695.814, 750.527 705.565, 748.311 715.317, 746.096 725.068, 743.880 734.820, 741.664 744.571, 739.449 754.323, 737.233 764.074, 735.018 773.826, 732.802 783.577, 730.586 793.329, 728.371 803.080, 726.155 812.832, 723.939 818.679, 722.611 828.359, 725.118 838.040, 727.625 847.721, 730.133 857.401, 732.640 867.082, 735.147 876.762, 737.654 886.443, 740.161 896.124, 742.669 899.372, 743.510 906.619, 736.619 913.865, 729.728 921.112, 722.836 928.358, 715.945 935.604, 709.054 942.851, 702.162 950.097, 695.271 957.344, 688.380 964.590, 681.488 971.836, 674.597 979.083, 667.706 986.329, 660.815 993.575, 653.923 1000.822, 647.032 1008.068, 640.141 1015.315, 633.249 1022.561, 626.358 1029.807, 619.467 1037.054, 612.575 1044.300, 605.684 1046.696, 603.406 " />
            <path fill="none" stroke-width="3.0" stroke-linecap="butt" stroke-opacity="1.0" stroke="rgb(0, 0, 0)" stroke-linejoin="round" d=" M 1150.033, 378.177 1143.193, 385.472 1136.353, 392.767 1129.513, 400.062 1122.673, 407.357 1115.833, 414.651 1108.993, 421.946 1102.153, 429.241 1095.313, 436.536 1088.473, 443.831 1081.633, 451.126 1074.793, 458.420 1067.953, 465.715 1061.113, 473.010 1054.273, 480.305 1047.433, 487.600 1040.593, 494.895 1033.753, 502.190 1026.913, 509.484 1022.254, 514.454 " />
            <path fill="none" stroke-width="3.0" stroke-linecap="butt" stroke-opacity="1.0" stroke="rgb(0, 0, 0)" stroke-linejoin="round" d=" M 1022.254, 514.454 1032.218, 513.616 1042.183, 512.778 1052.148, 511.940 1062.113, 511.102 1072.078, 510.264 1082.042, 509.426 1092.007, 508.588 1101.972, 507.750 1111.937, 506.912 1121.902, 506.075 1131.867, 505.237 1141.832, 504.399 1151.796, 503.561 1161.761, 502.723 1171.726, 501.885 1181.691, 501.047 1191.656, 500.209 1201.620, 499.371 1211.585, 498.533 1221.550, 497.695 1229.278, 497.045 " />
            <path fill="none" stroke-width="3.0" stroke-linecap="butt" stroke-opacity="1.0" stroke="rgb(0, 0, 0)" stroke-linejoin="round" d=" M 774.981, 525.227 780.358, 533.658 785.736, 542.089 791.113, 550.520 796.491, 558.951 801.700, 567.118 807.077, 575.549 812.455, 583.980 814.890, 587.798 816.802, 590.796 822.179, 599.227 827.557, 607.658 827.908, 608.208 " />
            <path fill="none" stroke-width="3.0" stroke-linecap="butt" stroke-opacity="1.0" stroke="rgb(0, 0, 0)" stroke-linejoin="round" d=" M 774.981, 525.227 765.233, 522.996 755.485, 520.765 745.737, 518.535 735.989, 516.304 726.241, 514.073 716.493, 511.842 706.745, 509.611 696.997, 507.380 687.249, 505.150 677.501, 502.919 667.753, 500.688 658.005, 498.457 648.257, 496.227 638.509, 493.996 628.761, 491.765 619.013, 489.534 609.265, 487.303 604.589, 486.233 613.559, 481.813 622.529, 477.393 631.500, 472.974 640.470, 468.554 649.440, 464.134 658.410, 459.714 667.381, 455.294 676.351, 450.874 685.321, 446.455 694.291, 442.035 703.261, 437.615 712.232, 433.195 721.202, 428.775 730.172, 424.355 739.142, 419.936 748.113, 415.516 757.083, 411.096 766.053, 406.676 775.023, 402.256 783.994, 397.836 792.964, 393.417 797.137, 391.360 " />
            <path fill="none" stroke-width="3.0" stroke-linecap="butt" stroke-opacity="1.0" stroke="rgb(0, 0, 0)" stroke-linejoin="round" d=" M 604.589, 486.233 613.559, 490.653 622.529, 495.073 631.500, 499.493 640.470, 503.913 649.440, 508.332 658.410, 512.752 667.381, 517.172 676.351, 521.592 685.321, 526.012 694.291, 530.432 703.261, 534.851 712.232, 539.271 721.202, 543.691 730.172, 548.111 739.142, 552.531 748.113, 556.951 757.083, 561.370 766.053, 565.790 775.023, 570.210 783.994, 574.630 792.964, 579.050 801.934, 583.470 810.904, 587.890 813.252, 589.047 816.802, 590.796 " />
            <path fill="none" stroke-width="3.0" stroke-linecap="butt" stroke-opacity="1.0" stroke="rgb(0, 0, 0)" stroke-linejoin="round" d=" M 912.297, 521.333 902.301, 521.616 892.305, 521.900 882.309, 522.183 872.313, 522.467 862.317, 522.750 852.321, 523.034 842.325, 523.317 832.329, 523.601 822.333, 523.884 812.337, 524.167 802.341, 524.451 792.345, 524.734 782.349, 525.018 774.981, 525.227 779.431, 516.272 783.881, 507.316 788.331, 498.361 792.781, 489.406 797.231, 480.451 801.681, 471.495 806.131, 462.540 810.581, 453.585 815.031, 444.629 819.481, 435.674 823.931, 426.719 827.908, 418.716 837.897, 418.243 847.886, 417.770 857.874, 417.296 867.863, 416.823 877.852, 416.350 887.841, 415.877 897.830, 415.403 907.818, 414.930 917.807, 414.457 927.796, 413.983 937.785, 413.510 947.773, 413.037 957.762, 412.563 967.751, 412.090 977.740, 411.617 987.729, 411.144 991.542, 410.963 " />
            <path fill="none" stroke-width="3.0" stroke-linecap="butt" stroke-opacity="1.0" stroke="rgb(0, 0, 0)" stroke-linejoin="round" d=" M 991.542, 596.731 984.297, 589.838 977.053, 582.945 969.808, 576.052 962.563, 569.159 955.318, 562.266 948.074, 555.373 940.829, 548.480 933.584, 541.586 926.340, 534.693 919.095, 527.800 912.297, 521.333 " />
            <path fill="none" stroke-width="3.0" stroke-linecap="butt" stroke-opacity="1.0" stroke="rgb(0, 0, 0)" stroke-linejoin="round" d=" M 813.252, 589.047 805.300, 595.110 797.348, 601.173 789.396, 607.236 781.444, 613.299 773.491, 619.363 765.539, 625.426 757.587, 631.489 749.635, 637.552 741.683, 643.616 733.731, 649.679 725.778, 655.742 717.826, 661.805 709.874, 667.869 701.922, 673.932 693.970, 679.995 686.018, 686.058 678.065, 692.122 670.113, 698.185 662.161, 704.248 654.209, 710.311 646.257, 716.375 637.305, 723.200 637.305, 733.200 637.305, 743.200 637.305, 743.510 637.305, 753.510 637.305, 763.510 637.305, 763.821 645.052, 757.496 652.798, 751.172 660.544, 744.848 668.290, 738.524 676.036, 732.200 683.783, 725.875 691.529, 719.551 699.275, 713.227 707.021, 706.903 714.768, 700.578 722.514, 694.254 730.260, 687.930 738.006, 681.606 745.753, 675.282 753.499, 668.957 761.245, 662.633 768.991, 656.309 770.323, 655.222 778.069, 648.897 785.815, 642.573 793.562, 636.249 801.308, 629.925 809.054, 623.600 816.800, 617.276 824.547, 610.952 827.908, 608.208 837.883, 607.508 842.720, 607.169 852.696, 606.469 862.671, 605.770 872.647, 605.070 882.622, 604.370 892.598, 603.671 902.573, 602.971 912.549, 602.271 922.524, 601.572 932.500, 600.872 942.475, 600.172 952.451, 599.473 962.426, 598.773 972.402, 598.073 982.377, 597.374 991.542, 596.731 982.498, 600.997 973.453, 605.263 964.409, 609.529 955.365, 613.795 946.320, 618.061 937.276, 622.327 928.232, 626.594 919.187, 630.860 910.143, 635.126 901.099, 639.392 892.054, 643.658 883.010, 647.924 873.966, 652.190 864.921, 656.456 855.877, 660.723 846.833, 664.989 837.788, 669.255 828.744, 673.521 819.700, 677.787 810.655, 682.053 801.611, 686.319 792.567, 690.586 783.522, 694.852 774.478, 699.118 765.434, 703.384 756.389, 707.650 747.345, 711.916 738.300, 716.182 729.256, 720.448 720.212, 724.715 711.167, 728.981 702.123, 733.247 693.079, 737.513 684.034, 741.779 674.990, 746.045 665.946, 750.311 656.901, 754.577 647.857, 758.844 637.305, 763.821 " />
            <path fill="none" stroke-width="3.0" stroke-linecap="butt" stroke-opacity="1.0" stroke="rgb(0, 0, 0)" stroke-linejoin="round" d=" M 1150.033, 615.913 1142.201, 609.695 1134.370, 603.476 1126.538, 597.258 1118.707, 591.040 1110.875, 584.821 1103.044, 578.603 1095.212, 572.385 1087.381, 566.166 1079.549, 559.948 1071.718, 553.730 1063.886, 547.511 1056.055, 541.293 1048.223, 535.075 1040.392, 528.856 1032.560, 522.638 1024.729, 516.419 1022.254, 514.454 1012.273, 515.078 1002.293, 515.703 992.312, 516.327 982.332, 516.951 972.351, 517.576 962.371, 518.200 952.390, 518.825 942.410, 519.449 932.429, 520.073 922.449, 520.698 912.297, 521.333 918.129, 513.210 923.962, 505.086 929.794, 496.963 935.626, 488.840 941.459, 480.717 947.291, 472.594 953.123, 464.471 958.956, 456.348 964.788, 448.225 970.620, 440.102 976.453, 431.979 982.285, 423.856 988.117, 415.733 991.542, 410.963 " />
            <path fill="none" stroke-width="3.0" stroke-linecap="butt" stroke-opacity="1.0" stroke="rgb(0, 0, 0)" stroke-linejoin="round" d=" M 637.305, 228.956 647.305, 228.956 657.305, 228.956 667.305, 228.956 677.305, 228.956 687.305, 228.956 697.305, 228.956 707.305, 228.956 717.305, 228.956 727.305, 228.956 737.305, 228.956 747.305, 228.956 757.305, 228.956 767.305, 228.956 777.305, 228.956 787.305, 228.956 797.305, 228.956 807.305, 228.956 817.305, 228.956 827.305, 228.956 837.305, 228.956 847.305, 228.956 857.305, 228.956 867.305, 228.956 877.305, 228.956 887.305, 228.956 899.373, 228.956 " />
            <path fill="none" stroke-width="3.0" stroke-linecap="butt" stroke-opacity="1.0" stroke="rgb(0, 0, 0)" stroke-linejoin="round" d=" M 818.679, 277.215 808.796, 275.693 798.912, 274.169 789.029, 272.647 779.146, 271.124 769.262, 269.601 759.379, 268.078 749.495, 266.555 739.612, 265.032 729.729, 263.509 719.845, 261.986 709.962, 260.463 700.079, 258.940 690.195, 257.417 680.312, 255.894 670.429, 254.371 660.545, 252.848 650.662, 251.325 640.779, 249.802 637.305, 249.267 646.402, 253.419 655.500, 257.572 664.597, 261.724 673.694, 265.877 682.791, 270.029 691.888, 274.182 700.985, 278.334 710.082, 282.487 719.179, 286.639 728.276, 290.792 737.373, 294.944 746.470, 299.097 755.567, 303.249 764.664, 307.401 773.762, 311.554 782.859, 315.706 791.956, 319.859 801.053, 324.011 810.150, 328.164 819.247, 332.316 828.344, 336.469 837.441, 340.621 846.538, 344.774 855.635, 348.926 864.732, 353.079 873.829, 357.231 882.927, 361.384 892.024, 365.536 901.121, 369.689 910.218, 373.841 919.315, 377.994 928.412, 382.146 937.509, 386.299 946.606, 390.451 955.703, 394.604 964.800, 398.756 973.897, 402.909 982.994, 407.061 991.542, 410.963 983.633, 404.843 975.724, 398.724 967.815, 392.605 959.906, 386.485 951.997, 380.366 944.088, 374.247 936.179, 368.127 928.270, 362.008 920.361, 355.888 912.452, 349.769 904.543, 343.650 896.633, 337.530 888.724, 331.411 880.815, 325.292 872.906, 319.172 864.997, 313.053 857.088, 306.933 849.179, 300.814 841.270, 294.695 833.361, 288.575 825.452, 282.456 818.679, 277.215 " />
            <path fill="none" stroke-width="3.0" stroke-linecap="butt" stroke-opacity="1.0" stroke="rgb(0, 0, 0)" stroke-linejoin="round" d=" M 818.679, 277.215 827.261, 272.083 835.843, 266.950 844.426, 261.817 853.008, 256.685 861.590, 251.552 870.173, 246.419 878.755, 241.287 887.337, 236.154 895.919, 231.021 899.373, 228.956 " />
        </g>
    </g>
</svg>
