<?xml version='1.0' encoding='ascii'?>
<svg xmlns="http://www.w3.org/2000/svg" version="1.1" width="1920" height="1080">
    <g id="ViewLayer_LineSet" xmlns:inkscape="http://www.inkscape.org/namespaces/inkscape" inkscape:groupmode="lineset" inkscape:label="ViewLayer_LineSet">
        <g xmlns:inkscape="http://www.inkscape.org/namespaces/inkscape" inkscape:groupmode="layer" id="strokes" inkscape:label="strokes">
            <path fill="none" stroke-width="3.0" stroke-linecap="butt" stroke-opacity="1.0" stroke="rgb(0, 0, 0)" stroke-linejoin="round" d=" M 991.542, 600.768 1001.416, 602.354 1011.289, 603.940 1021.163, 605.526 1031.036, 607.112 1040.909, 608.698 1050.783, 610.284 1054.157, 610.827 1064.031, 612.413 1073.904, 613.999 1083.777, 615.585 1093.651, 617.171 1103.524, 618.757 1113.398, 620.343 1123.271, 621.929 1133.145, 623.515 1143.018, 625.101 1150.033, 626.228 1155.163, 617.645 1160.294, 609.061 1165.424, 600.478 1170.555, 591.894 1175.686, 583.311 1180.816, 574.727 1185.947, 566.143 1191.077, 557.560 1196.208, 548.976 1201.338, 540.393 1206.469, 531.809 1211.599, 523.226 1216.730, 514.642 1221.860, 506.059 1226.991, 497.475 1229.278, 493.648 " />
            <path fill="none" stroke-width="3.0" stroke-linecap="butt" stroke-opacity="1.0" stroke="rgb(0, 0, 0)" stroke-linejoin="round" d=" M 1150.033, 361.069 1140.237, 363.077 1130.441, 365.086 1120.645, 367.095 1110.848, 369.104 1101.052, 371.113 1091.256, 373.122 1081.460, 375.131 1071.664, 377.140 1066.366, 378.226 1056.569, 380.235 1048.874, 381.814 1039.078, 383.823 1029.281, 385.831 1019.485, 387.840 1009.689, 389.849 999.893, 391.858 991.542, 393.571 " />
            <path fill="none" stroke-width="3.0" stroke-linecap="butt" stroke-opacity="1.0" stroke="rgb(0, 0, 0)" stroke-linejoin="round" d=" M 1054.157, 365.277 1064.031, 363.691 1073.904, 362.105 1083.778, 360.519 1093.651, 358.933 1103.524, 357.347 1113.398, 355.760 1123.271, 354.174 1133.145, 352.588 1143.018, 351.002 1150.033, 349.875 1155.163, 358.459 1160.294, 367.042 1165.425, 375.626 1170.555, 384.210 1175.686, 392.793 1180.816, 401.377 1185.947, 409.960 1191.077, 418.544 1196.208, 427.127 1201.338, 435.711 1206.469, 444.295 1211.599, 452.878 1216.730, 461.462 1221.860, 470.045 1226.991, 478.629 1229.278, 482.455 1229.277, 488.051 1229.278, 493.648 1224.148, 485.065 1219.017, 476.481 1213.887, 467.898 1208.756, 459.314 1203.625, 450.731 1198.495, 442.147 1193.364, 433.564 1188.234, 424.980 1183.103, 416.396 1177.973, 407.813 1172.842, 399.229 1167.712, 390.646 1162.581, 382.062 1157.451, 373.479 1152.320, 364.895 1150.033, 361.069 1150.031, 355.472 1150.033, 349.875 " />
            <path fill="none" stroke-width="3.0" stroke-linecap="butt" stroke-opacity="1.0" stroke="rgb(0, 0, 0)" stroke-linejoin="round" d=" M 991.542, 600.768 983.832, 607.135 976.121, 613.503 968.410, 619.870 960.700, 626.238 952.989, 632.606 945.278, 638.973 937.568, 645.341 929.857, 651.708 922.146, 658.076 914.436, 664.443 906.725, 670.811 899.014, 677.178 891.304, 683.546 883.593, 689.913 875.882, 696.281 868.172, 702.649 860.461, 709.016 852.750, 715.384 845.040, 721.751 837.329, 728.119 829.618, 734.486 821.908, 740.854 818.679, 743.520 " />
            <path fill="none" stroke-width="3.0" stroke-linecap="butt" stroke-opacity="1.0" stroke="rgb(0, 0, 0)" stroke-linejoin="round" d=" M 637.305, 785.520 647.048, 783.264 656.790, 781.009 666.532, 778.753 676.274, 776.497 686.016, 774.241 695.759, 771.985 705.501, 769.729 715.243, 767.473 724.985, 765.217 734.727, 762.961 744.470, 760.705 754.212, 758.449 763.954, 756.193 773.696, 753.937 783.438, 751.681 793.181, 749.425 802.923, 747.169 812.665, 744.913 818.679, 743.520 827.995, 747.155 837.311, 750.790 846.627, 754.425 855.943, 758.060 865.258, 761.696 874.574, 765.331 883.890, 768.966 893.206, 772.601 899.373, 775.007 906.232, 767.731 913.092, 760.455 919.952, 753.178 926.812, 745.902 933.672, 738.626 940.531, 731.350 947.391, 724.074 954.251, 716.797 961.111, 709.521 967.971, 702.245 974.830, 694.969 981.690, 687.693 988.550, 680.416 995.410, 673.140 1002.270, 665.864 1009.129, 658.588 1015.989, 651.312 1022.849, 644.035 1029.709, 636.759 1036.569, 629.483 1043.428, 622.207 1050.288, 614.930 1054.157, 610.827 " />
            <path fill="none" stroke-width="3.0" stroke-linecap="butt" stroke-opacity="1.0" stroke="rgb(0, 0, 0)" stroke-linejoin="round" d=" M 1150.033, 361.069 1143.333, 368.492 1136.634, 375.916 1129.934, 383.340 1123.234, 390.764 1116.534, 398.188 1109.835, 405.612 1103.135, 413.036 1096.435, 420.460 1089.736, 427.884 1083.036, 435.307 1076.336, 442.731 1069.637, 450.155 1062.937, 457.579 1056.237, 465.003 1049.538, 472.427 1042.838, 479.851 1036.138, 487.275 1029.438, 494.699 1022.254, 502.660 " />
            <path fill="none" stroke-width="3.0" stroke-linecap="butt" stroke-opacity="1.0" stroke="rgb(0, 0, 0)" stroke-linejoin="round" d=" M 1022.254, 502.660 1032.244, 502.225 1042.235, 501.790 1052.225, 501.355 1062.216, 500.921 1072.206, 500.486 1082.197, 500.051 1092.188, 499.616 1102.178, 499.181 1112.169, 498.746 1122.159, 498.311 1132.150, 497.876 1142.140, 497.442 1152.131, 497.007 1162.121, 496.572 1172.112, 496.137 1182.102, 495.702 1192.093, 495.267 1202.083, 494.832 1212.074, 494.397 1222.064, 493.962 1229.278, 493.648 " />
            <path fill="none" stroke-width="3.0" stroke-linecap="butt" stroke-opacity="1.0" stroke="rgb(0, 0, 0)" stroke-linejoin="round" d=" M 1066.366, 378.226 1059.506, 370.950 1054.157, 365.277 1047.297, 358.001 1040.438, 350.725 1033.578, 343.448 1026.718, 336.172 1019.858, 328.896 1012.999, 321.620 1006.139, 314.344 999.279, 307.067 992.419, 299.791 985.559, 292.515 978.700, 285.239 971.840, 277.963 964.980, 270.686 958.120, 263.410 951.260, 256.134 944.401, 248.858 937.541, 241.582 930.681, 234.305 923.821, 227.029 916.961, 219.753 910.102, 212.477 903.242, 205.201 899.373, 201.097 889.375, 200.898 879.377, 200.699 869.379, 200.500 859.381, 200.301 849.383, 200.102 839.385, 199.903 829.387, 199.704 818.679, 199.491 808.691, 199.001 798.703, 198.510 788.715, 198.020 778.727, 197.529 768.739, 197.039 758.751, 196.548 748.763, 196.057 738.775, 195.567 728.787, 195.076 718.799, 194.586 708.811, 194.095 698.824, 193.605 688.836, 193.114 678.848, 192.623 668.860, 192.133 658.872, 191.642 648.884, 191.152 637.305, 190.583 637.305, 200.583 637.305, 201.097 637.305, 211.097 637.305, 211.610 644.484, 218.572 651.662, 225.534 658.841, 232.496 666.019, 239.459 673.197, 246.421 680.376, 253.383 687.554, 260.345 694.732, 267.307 701.911, 274.269 709.089, 281.231 716.267, 288.193 723.446, 295.156 730.624, 302.118 737.802, 309.080 744.981, 316.042 752.159, 323.004 759.337, 329.966 766.516, 336.928 773.694, 343.891 780.873, 350.853 788.051, 357.815 795.229, 364.777 802.408, 371.739 807.409, 376.590 811.510, 380.567 818.688, 387.529 822.994, 391.705 827.908, 396.471 " />
            <path fill="none" stroke-width="3.0" stroke-linecap="butt" stroke-opacity="1.0" stroke="rgb(0, 0, 0)" stroke-linejoin="round" d=" M 774.981, 508.236 779.674, 517.067 784.367, 525.897 789.060, 534.727 793.753, 543.558 798.447, 552.388 803.140, 561.219 807.833, 570.049 812.526, 578.879 817.219, 587.710 821.912, 596.540 826.957, 606.033 827.434, 606.930 827.908, 607.822 " />
            <path fill="none" stroke-width="3.0" stroke-linecap="butt" stroke-opacity="1.0" stroke="rgb(0, 0, 0)" stroke-linejoin="round" d=" M 774.981, 508.236 765.051, 507.060 755.120, 505.884 745.189, 504.707 735.259, 503.531 725.328, 502.355 715.398, 501.178 705.467, 500.002 695.537, 498.825 685.606, 497.649 675.675, 496.473 665.745, 495.296 655.814, 494.120 645.884, 492.944 635.953, 491.767 626.023, 490.591 616.092, 489.414 604.589, 488.052 613.353, 483.236 622.117, 478.419 630.880, 473.603 639.644, 468.787 648.408, 463.971 657.172, 459.154 665.936, 454.338 674.699, 449.522 683.463, 444.706 692.227, 439.889 700.991, 435.073 709.755, 430.257 718.518, 425.441 727.282, 420.625 736.046, 415.808 744.810, 410.992 753.573, 406.176 762.337, 401.360 771.101, 396.543 779.865, 391.727 788.629, 386.911 797.392, 382.095 807.409, 376.590 " />
            <path fill="none" stroke-width="3.0" stroke-linecap="butt" stroke-opacity="1.0" stroke="rgb(0, 0, 0)" stroke-linejoin="round" d=" M 604.589, 488.052 613.353, 492.868 622.117, 497.684 630.880, 502.500 639.644, 507.317 648.408, 512.133 657.172, 516.949 665.936, 521.765 674.699, 526.582 683.463, 531.398 692.227, 536.214 700.991, 541.030 709.754, 545.847 718.518, 550.663 727.282, 555.479 736.046, 560.295 744.810, 565.112 753.573, 569.928 762.337, 574.744 771.101, 579.560 779.865, 584.377 788.628, 589.193 797.392, 594.009 806.156, 598.825 814.920, 603.641 824.830, 609.088 825.835, 609.640 " />
            <path fill="none" stroke-width="3.0" stroke-linecap="butt" stroke-opacity="1.0" stroke="rgb(0, 0, 0)" stroke-linejoin="round" d=" M 912.297, 506.221 902.298, 506.367 892.299, 506.514 882.300, 506.661 872.301, 506.808 862.302, 506.955 852.304, 507.101 842.305, 507.248 832.306, 507.395 822.307, 507.542 812.308, 507.688 802.309, 507.835 792.310, 507.982 782.311, 508.129 774.981, 508.236 779.261, 499.199 783.541, 490.161 787.821, 481.123 792.101, 472.085 796.381, 463.047 800.661, 454.010 804.941, 444.972 809.220, 435.934 813.500, 426.896 817.780, 417.858 822.060, 408.820 826.340, 399.783 827.908, 396.471 837.907, 396.294 847.905, 396.117 857.903, 395.940 867.902, 395.762 877.900, 395.585 887.899, 395.408 897.897, 395.231 907.896, 395.053 917.894, 394.876 927.892, 394.699 937.891, 394.522 947.889, 394.345 957.888, 394.167 967.886, 393.990 977.885, 393.813 987.883, 393.636 991.542, 393.571 " />
            <path fill="none" stroke-width="3.0" stroke-linecap="butt" stroke-opacity="1.0" stroke="rgb(0, 0, 0)" stroke-linejoin="round" d=" M 991.542, 600.768 985.119, 593.104 978.695, 585.440 972.271, 577.776 965.848, 570.112 959.424, 562.448 953.001, 554.784 946.577, 547.120 940.153, 539.456 933.730, 531.792 927.306, 524.128 920.882, 516.464 914.459, 508.800 912.297, 506.221 " />
            <path fill="none" stroke-width="3.0" stroke-linecap="butt" stroke-opacity="1.0" stroke="rgb(0, 0, 0)" stroke-linejoin="round" d=" M 824.830, 609.088 817.130, 615.469 809.431, 621.849 801.731, 628.230 794.031, 634.611 786.332, 640.992 778.632, 647.373 770.933, 653.754 763.233, 660.135 755.533, 666.516 747.834, 672.896 740.134, 679.277 732.434, 685.658 724.735, 692.039 717.035, 698.420 709.335, 704.801 701.636, 711.182 693.936, 717.562 686.236, 723.943 678.537, 730.324 670.837, 736.705 663.137, 743.086 655.438, 749.467 647.738, 755.848 640.039, 762.228 637.305, 764.493 637.305, 774.493 637.305, 775.007 637.305, 785.007 637.305, 785.520 644.620, 778.701 651.934, 771.882 659.248, 765.063 666.563, 758.244 673.877, 751.425 681.191, 744.606 688.506, 737.786 692.063, 734.470 699.378, 727.650 706.692, 720.831 714.006, 714.012 721.321, 707.193 728.635, 700.374 735.949, 693.555 743.264, 686.736 750.578, 679.916 757.892, 673.097 765.207, 666.278 772.521, 659.459 779.835, 652.640 787.150, 645.821 794.464, 639.002 801.778, 632.182 809.093, 625.363 816.407, 618.544 823.721, 611.725 825.912, 609.682 827.908, 607.822 829.457, 607.755 837.500, 607.408 847.490, 606.977 857.481, 606.547 867.472, 606.116 877.463, 605.685 887.453, 605.255 897.444, 604.824 907.435, 604.393 917.425, 603.963 927.416, 603.532 937.407, 603.101 947.398, 602.671 957.388, 602.240 967.379, 601.809 977.370, 601.379 987.360, 600.948 991.542, 600.768 982.676, 605.392 973.809, 610.017 964.943, 614.641 956.076, 619.265 947.210, 623.890 938.343, 628.514 929.477, 633.138 920.610, 637.763 911.744, 642.387 902.877, 647.011 894.010, 651.636 885.144, 656.260 876.277, 660.884 867.411, 665.509 858.544, 670.133 849.678, 674.757 840.811, 679.382 831.945, 684.006 823.078, 688.630 814.212, 693.255 805.345, 697.879 796.479, 702.504 787.612, 707.128 778.746, 711.752 769.879, 716.377 761.012, 721.001 752.146, 725.625 743.279, 730.250 734.413, 734.874 725.546, 739.498 716.680, 744.123 707.813, 748.747 698.947, 753.371 690.080, 757.996 681.214, 762.620 672.347, 767.244 663.481, 771.869 654.614, 776.493 645.748, 781.117 637.305, 785.520 " />
            <path fill="none" stroke-width="3.0" stroke-linecap="butt" stroke-opacity="1.0" stroke="rgb(0, 0, 0)" stroke-linejoin="round" d=" M 1150.033, 626.228 1142.844, 619.277 1135.656, 612.325 1135.343, 612.023 1133.238, 609.987 1126.049, 603.035 1118.861, 596.084 1111.672, 589.132 1104.484, 582.180 1097.295, 575.229 1090.107, 568.277 1082.918, 561.325 1075.730, 554.374 1068.541, 547.422 1061.353, 540.470 1054.164, 533.519 1046.976, 526.567 1039.787, 519.616 1032.599, 512.664 1025.410, 505.712 1022.254, 502.660 1012.259, 502.984 1002.264, 503.307 992.269, 503.631 982.275, 503.955 972.280, 504.278 962.285, 504.602 952.290, 504.926 942.296, 505.249 932.301, 505.573 922.306, 505.896 912.297, 506.221 918.051, 498.042 923.804, 489.863 929.558, 481.684 935.312, 473.505 941.065, 465.326 946.819, 457.147 952.572, 448.968 958.326, 440.789 964.080, 432.610 969.833, 424.431 975.587, 416.252 981.341, 408.073 987.094, 399.894 991.542, 393.571 " />
            <path fill="none" stroke-width="3.0" stroke-linecap="butt" stroke-opacity="1.0" stroke="rgb(0, 0, 0)" stroke-linejoin="round" d=" M 637.305, 201.097 647.305, 201.097 657.305, 201.097 667.305, 201.097 677.305, 201.097 687.305, 201.097 697.305, 201.097 707.305, 201.097 717.305, 201.097 727.305, 201.097 737.305, 201.097 747.305, 201.097 757.305, 201.097 767.305, 201.097 777.305, 201.097 787.305, 201.097 797.305, 201.097 807.305, 201.097 817.305, 201.097 827.305, 201.097 837.305, 201.097 847.305, 201.097 857.305, 201.097 867.305, 201.097 877.305, 201.097 887.305, 201.097 899.373, 201.097 " />
            <path fill="none" stroke-width="3.0" stroke-linecap="butt" stroke-opacity="1.0" stroke="rgb(0, 0, 0)" stroke-linejoin="round" d=" M 818.679, 246.746 808.862, 244.844 799.044, 242.942 789.227, 241.040 779.409, 239.139 769.592, 237.237 759.774, 235.335 749.957, 233.433 740.139, 231.531 730.322, 229.629 720.504, 227.727 710.687, 225.826 700.869, 223.924 691.052, 222.022 681.234, 220.120 671.417, 218.218 661.599, 216.316 651.782, 214.414 641.964, 212.513 637.305, 211.610 646.201, 216.179 655.096, 220.748 663.991, 225.318 672.886, 229.887 681.781, 234.456 690.676, 239.025 699.571, 243.594 708.466, 248.163 717.361, 252.732 726.257, 257.302 735.152, 261.871 744.047, 266.440 752.942, 271.009 761.837, 275.578 770.732, 280.147 779.627, 284.716 788.522, 289.286 797.417, 293.855 806.312, 298.424 815.208, 302.993 824.103, 307.562 832.998, 312.131 841.893, 316.700 850.788, 321.270 859.683, 325.839 868.578, 330.408 877.473, 334.977 886.368, 339.546 895.264, 344.115 904.159, 348.684 913.054, 353.254 921.949, 357.823 930.844, 362.392 939.739, 366.961 948.634, 371.530 957.529, 376.099 966.424, 380.668 975.320, 385.238 984.215, 389.807 991.542, 393.571 983.921, 387.097 976.299, 380.623 968.677, 374.150 961.055, 367.676 953.434, 361.202 945.812, 354.729 938.190, 348.255 930.568, 341.781 922.946, 335.307 915.325, 328.834 907.703, 322.360 900.081, 315.886 892.459, 309.413 884.838, 302.939 877.216, 296.465 869.594, 289.992 861.972, 283.518 854.351, 277.044 846.729, 270.571 839.107, 264.097 831.485, 257.623 823.863, 251.150 818.679, 246.746 " />
            <path fill="none" stroke-width="3.0" stroke-linecap="butt" stroke-opacity="1.0" stroke="rgb(0, 0, 0)" stroke-linejoin="round" d=" M 818.679, 246.746 827.383, 241.822 836.087, 236.898 844.790, 231.974 853.494, 227.051 862.198, 222.127 870.902, 217.203 879.606, 212.279 888.309, 207.355 897.013, 202.432 899.373, 201.097 " />
        </g>
    </g>
</svg>
