<?xml version='1.0' encoding='ascii'?>
<svg xmlns="http://www.w3.org/2000/svg" version="1.1" width="1920" height="1080">
    <g id="ViewLayer_LineSet" xmlns:inkscape="http://www.inkscape.org/namespaces/inkscape" inkscape:groupmode="lineset" inkscape:label="ViewLayer_LineSet">
        <g xmlns:inkscape="http://www.inkscape.org/namespaces/inkscape" inkscape:groupmode="layer" id="strokes" inkscape:label="strokes">
            <path fill="none" stroke-width="3.0" stroke-linecap="butt" stroke-opacity="1.0" stroke="rgb(0, 0, 0)" stroke-linejoin="round" d=" M 991.542, 588.828 1001.515, 589.557 1011.489, 590.287 1021.462, 591.017 1031.435, 591.747 1035.970, 592.078 1045.943, 592.808 1055.916, 593.538 1065.890, 594.268 1075.863, 594.997 1085.836, 595.727 1095.810, 596.457 1105.783, 597.187 1115.756, 597.916 1125.730, 598.646 1135.703, 599.376 1145.676, 600.106 1150.033, 600.424 1156.357, 592.678 1162.682, 584.932 1169.006, 577.186 1175.331, 569.440 1181.655, 561.695 1187.980, 553.949 1194.304, 546.203 1200.629, 538.457 1206.954, 530.711 1213.278, 522.965 1219.603, 515.219 1225.927, 507.473 1229.278, 503.369 " />
            <path fill="none" stroke-width="3.0" stroke-linecap="butt" stroke-opacity="1.0" stroke="rgb(0, 0, 0)" stroke-linejoin="round" d=" M 827.908, 449.227 819.898, 443.239 811.889, 437.252 803.880, 431.264 803.505, 430.984 795.496, 424.996 792.361, 422.653 785.247, 417.335 783.564, 416.076 775.554, 410.089 767.545, 404.101 759.536, 398.113 751.526, 392.126 743.517, 386.138 735.508, 380.151 727.499, 374.163 719.489, 368.175 711.480, 362.188 703.471, 356.200 695.461, 350.213 687.452, 344.225 679.443, 338.238 671.433, 332.250 663.424, 326.262 655.415, 320.275 647.406, 314.287 639.396, 308.300 637.305, 306.737 637.305, 296.737 637.305, 286.737 637.305, 278.013 637.305, 268.013 637.305, 258.013 637.305, 249.290 647.216, 250.620 657.128, 251.949 667.039, 253.279 676.950, 254.609 686.861, 255.939 696.772, 257.269 706.683, 258.599 716.595, 259.929 726.506, 261.259 736.417, 262.589 746.328, 263.919 756.239, 265.249 766.150, 266.579 776.062, 267.909 785.973, 269.239 795.884, 270.569 805.795, 271.899 815.706, 273.229 818.679, 273.627 828.664, 274.170 838.649, 274.713 848.635, 275.255 858.620, 275.798 868.605, 276.341 878.590, 276.884 888.576, 277.426 898.561, 277.969 899.372, 278.013 907.271, 284.146 915.169, 290.279 923.068, 296.412 930.966, 302.545 938.865, 308.678 946.763, 314.811 954.662, 320.944 962.560, 327.078 970.459, 333.211 978.357, 339.344 986.255, 345.477 994.154, 351.610 1002.052, 357.743 1009.951, 363.876 1017.849, 370.009 1025.748, 376.142 1033.646, 382.275 1035.970, 384.079 1043.868, 390.212 1051.767, 396.345 1059.665, 402.479 1067.564, 408.612 1072.236, 412.239 1062.681, 415.189 1053.125, 418.139 1043.570, 421.088 1034.015, 424.038 1024.460, 426.987 1014.905, 429.937 1005.350, 432.886 995.795, 435.836 991.542, 437.149 1001.358, 435.239 1011.174, 433.329 1020.990, 431.420 1030.806, 429.510 1040.622, 427.600 1050.438, 425.690 1060.254, 423.781 1070.070, 421.871 1079.886, 419.961 1089.702, 418.052 1099.518, 416.142 1109.333, 414.232 1119.149, 412.322 1128.965, 410.413 1138.781, 408.503 1150.033, 406.314 " />
            <path fill="none" stroke-width="3.0" stroke-linecap="butt" stroke-opacity="1.0" stroke="rgb(0, 0, 0)" stroke-linejoin="round" d=" M 1035.970, 384.079 1045.943, 383.350 1055.917, 382.620 1065.890, 381.890 1075.863, 381.160 1085.836, 380.431 1095.810, 379.701 1105.783, 378.971 1115.756, 378.241 1125.730, 377.512 1135.703, 376.782 1145.677, 376.052 1150.033, 375.733 1156.357, 383.479 1162.682, 391.225 1169.006, 398.971 1175.331, 406.717 1181.655, 414.463 1187.980, 422.209 1194.304, 429.955 1200.629, 437.701 1206.954, 445.447 1213.278, 453.193 1219.603, 460.939 1225.927, 468.685 1229.278, 472.789 1229.277, 482.789 1229.277, 488.078 1229.278, 498.078 1229.278, 503.369 1222.953, 495.623 1216.629, 487.877 1210.304, 480.131 1203.980, 472.385 1197.655, 464.639 1191.331, 456.893 1185.006, 449.147 1178.681, 441.401 1172.357, 433.655 1166.032, 425.909 1159.708, 418.163 1153.383, 410.417 1150.033, 406.314 1150.032, 396.314 1150.031, 391.024 1150.032, 381.024 1150.033, 375.733 " />
            <path fill="none" stroke-width="3.0" stroke-linecap="butt" stroke-opacity="1.0" stroke="rgb(0, 0, 0)" stroke-linejoin="round" d=" M 991.542, 588.828 982.895, 593.851 974.249, 598.875 965.602, 603.898 956.955, 608.922 948.309, 613.945 939.662, 618.969 931.016, 623.992 922.369, 629.016 913.722, 634.039 905.076, 639.063 896.429, 644.086 887.782, 649.110 879.136, 654.133 870.489, 659.157 861.842, 664.180 853.196, 669.204 844.549, 674.227 835.902, 679.251 827.256, 684.274 818.679, 689.257 " />
            <path fill="none" stroke-width="3.0" stroke-linecap="butt" stroke-opacity="1.0" stroke="rgb(0, 0, 0)" stroke-linejoin="round" d=" M 637.305, 726.868 647.097, 724.838 656.888, 722.807 666.680, 720.777 676.472, 718.746 686.264, 716.716 696.055, 714.685 705.847, 712.655 715.639, 710.624 725.430, 708.594 735.222, 706.563 745.014, 704.533 754.805, 702.502 764.597, 700.472 774.389, 698.441 784.180, 696.411 793.972, 694.381 803.764, 692.350 813.556, 690.320 818.679, 689.257 828.619, 690.352 838.558, 691.447 848.498, 692.542 858.438, 693.636 868.378, 694.731 878.318, 695.826 888.258, 696.921 898.198, 698.015 899.372, 698.145 907.271, 692.012 915.169, 685.879 923.068, 679.745 930.966, 673.612 938.865, 667.479 946.763, 661.346 954.662, 655.213 962.560, 649.080 970.458, 642.947 978.357, 636.814 986.255, 630.681 994.154, 624.548 1002.052, 618.415 1009.951, 612.282 1017.849, 606.149 1025.748, 600.016 1033.646, 593.883 1035.970, 592.078 " />
            <path fill="none" stroke-width="3.0" stroke-linecap="butt" stroke-opacity="1.0" stroke="rgb(0, 0, 0)" stroke-linejoin="round" d=" M 1150.033, 406.314 1142.791, 413.210 1135.549, 420.106 1128.307, 427.002 1121.065, 433.898 1113.823, 440.794 1106.581, 447.690 1099.339, 454.586 1092.097, 461.482 1084.855, 468.378 1077.613, 475.274 1070.371, 482.170 1063.130, 489.066 1055.888, 495.962 1048.646, 502.858 1041.404, 509.754 1034.162, 516.650 1026.920, 523.546 1022.253, 527.989 " />
            <path fill="none" stroke-width="3.0" stroke-linecap="butt" stroke-opacity="1.0" stroke="rgb(0, 0, 0)" stroke-linejoin="round" d=" M 1022.253, 527.989 1032.183, 526.808 1042.114, 525.627 1052.043, 524.446 1061.974, 523.266 1071.904, 522.085 1081.834, 520.904 1091.764, 519.723 1101.694, 518.542 1111.624, 517.361 1121.554, 516.180 1131.484, 514.999 1141.414, 513.818 1151.344, 512.637 1161.274, 511.456 1171.204, 510.276 1181.134, 509.095 1191.064, 507.914 1200.994, 506.733 1210.924, 505.552 1220.854, 504.371 1229.278, 503.369 " />
            <path fill="none" stroke-width="3.0" stroke-linecap="butt" stroke-opacity="1.0" stroke="rgb(0, 0, 0)" stroke-linejoin="round" d=" M 774.981, 543.224 781.552, 550.763 788.122, 558.301 792.974, 563.868 795.913, 567.239 802.484, 574.777 809.054, 582.316 815.625, 589.854 822.196, 597.392 822.523, 597.768 827.908, 603.946 " />
            <path fill="none" stroke-width="3.0" stroke-linecap="butt" stroke-opacity="1.0" stroke="rgb(0, 0, 0)" stroke-linejoin="round" d=" M 774.981, 543.224 765.467, 540.145 755.953, 537.066 746.438, 533.987 736.924, 530.908 727.410, 527.829 717.896, 524.749 708.382, 521.670 698.868, 518.591 689.354, 515.512 679.839, 512.433 670.325, 509.354 660.811, 506.275 651.297, 503.195 641.783, 500.116 632.269, 497.037 622.755, 493.958 613.240, 490.879 604.589, 488.079 613.866, 484.346 623.144, 480.614 632.421, 476.882 641.698, 473.149 650.976, 469.417 660.253, 465.685 669.530, 461.952 678.808, 458.220 688.085, 454.488 697.362, 450.755 706.640, 447.023 715.917, 443.291 725.195, 439.558 734.472, 435.826 743.749, 432.094 753.027, 428.361 762.304, 424.629 771.581, 420.897 780.859, 417.164 783.564, 416.076 " />
            <path fill="none" stroke-width="3.0" stroke-linecap="butt" stroke-opacity="1.0" stroke="rgb(0, 0, 0)" stroke-linejoin="round" d=" M 604.589, 488.079 613.866, 491.811 623.144, 495.544 632.421, 499.276 641.698, 503.008 650.976, 506.741 660.253, 510.473 669.530, 514.205 678.808, 517.938 688.085, 521.670 697.362, 525.402 706.640, 529.135 715.917, 532.867 725.195, 536.599 734.472, 540.332 743.749, 544.064 753.027, 547.796 762.304, 551.529 771.581, 555.261 780.859, 558.993 790.136, 562.726 792.974, 563.868 " />
            <path fill="none" stroke-width="3.0" stroke-linecap="butt" stroke-opacity="1.0" stroke="rgb(0, 0, 0)" stroke-linejoin="round" d=" M 912.297, 537.717 902.305, 538.118 892.313, 538.518 882.321, 538.919 872.329, 539.320 862.337, 539.721 852.345, 540.121 842.353, 540.522 832.361, 540.923 822.369, 541.324 812.377, 541.724 802.385, 542.125 792.393, 542.526 782.401, 542.927 774.981, 543.224 779.887, 534.511 784.794, 525.797 789.700, 517.083 794.606, 508.370 799.513, 499.656 804.419, 490.943 809.325, 482.229 814.232, 473.515 819.138, 464.802 824.044, 456.088 827.908, 449.227 837.881, 448.491 847.854, 447.755 857.826, 447.018 867.799, 446.282 877.772, 445.546 887.745, 444.810 897.718, 444.074 907.691, 443.338 917.664, 442.602 927.637, 441.866 937.609, 441.130 947.582, 440.393 957.555, 439.657 967.528, 438.921 977.501, 438.185 987.474, 437.449 991.542, 437.149 " />
            <path fill="none" stroke-width="3.0" stroke-linecap="butt" stroke-opacity="1.0" stroke="rgb(0, 0, 0)" stroke-linejoin="round" d=" M 991.542, 588.828 983.138, 583.408 974.735, 577.987 966.331, 572.567 957.927, 567.147 949.523, 561.727 941.120, 556.307 932.716, 550.887 924.312, 545.467 915.909, 540.046 912.297, 537.717 " />
            <path fill="none" stroke-width="3.0" stroke-linecap="butt" stroke-opacity="1.0" stroke="rgb(0, 0, 0)" stroke-linejoin="round" d=" M 795.913, 567.239 787.506, 572.655 779.100, 578.071 770.693, 583.487 762.287, 588.902 753.880, 594.318 745.474, 599.734 737.068, 605.150 728.661, 610.566 720.255, 615.981 711.848, 621.397 703.442, 626.813 695.035, 632.229 686.629, 637.645 678.222, 643.061 669.816, 648.476 661.409, 653.892 653.003, 659.308 644.596, 664.724 637.305, 669.421 637.305, 679.421 637.305, 689.421 637.305, 698.145 637.305, 708.145 637.305, 718.145 637.305, 726.868 645.709, 721.448 654.113, 716.029 662.517, 710.609 670.921, 705.189 679.325, 699.769 687.729, 694.349 696.133, 688.930 704.536, 683.510 712.940, 678.090 721.344, 672.670 729.748, 667.250 738.152, 661.831 746.556, 656.411 754.960, 650.991 763.364, 645.571 771.768, 640.151 780.172, 634.732 788.576, 629.312 796.979, 623.892 805.383, 618.472 813.787, 613.052 822.191, 607.633 827.908, 603.946 837.865, 603.026 847.823, 602.106 857.781, 601.186 867.738, 600.266 877.696, 599.346 887.653, 598.426 897.611, 597.506 907.568, 596.586 917.526, 595.666 927.484, 594.746 937.441, 593.826 947.399, 592.906 957.356, 591.986 967.314, 591.066 977.272, 590.146 987.229, 589.226 991.542, 588.828 982.224, 592.459 972.907, 596.089 963.589, 599.720 954.272, 603.351 944.954, 606.982 935.637, 610.613 926.319, 614.244 917.002, 617.875 907.684, 621.506 898.367, 625.137 889.049, 628.768 879.732, 632.398 870.414, 636.029 861.096, 639.660 851.779, 643.291 842.461, 646.922 833.144, 650.553 823.826, 654.184 814.509, 657.815 805.191, 661.446 795.874, 665.076 786.556, 668.707 777.239, 672.338 767.921, 675.969 758.603, 679.600 749.286, 683.231 739.968, 686.862 730.651, 690.493 721.333, 694.124 712.016, 697.755 702.698, 701.385 693.381, 705.016 684.063, 708.647 674.746, 712.278 665.428, 715.909 656.111, 719.540 646.793, 723.171 637.305, 726.868 " />
            <path fill="none" stroke-width="3.0" stroke-linecap="butt" stroke-opacity="1.0" stroke="rgb(0, 0, 0)" stroke-linejoin="round" d=" M 1150.033, 600.424 1141.333, 595.493 1132.634, 590.561 1123.934, 585.630 1115.235, 580.698 1106.535, 575.767 1097.836, 570.835 1089.136, 565.904 1080.437, 560.972 1071.738, 556.041 1063.038, 551.109 1054.339, 546.178 1045.639, 541.246 1036.940, 536.315 1028.240, 531.383 1022.253, 527.989 1012.292, 528.870 1002.331, 529.752 992.370, 530.633 982.409, 531.514 972.448, 532.395 962.487, 533.277 952.526, 534.158 942.565, 535.039 932.604, 535.920 922.642, 536.802 912.297, 537.717 918.486, 529.862 924.675, 522.008 930.864, 514.153 937.054, 506.299 943.243, 498.444 949.432, 490.590 955.621, 482.735 961.810, 474.881 968.000, 467.026 974.189, 459.171 980.378, 451.317 986.567, 443.462 991.542, 437.149 " />
            <path fill="none" stroke-width="3.0" stroke-linecap="butt" stroke-opacity="1.0" stroke="rgb(0, 0, 0)" stroke-linejoin="round" d=" M 637.305, 278.013 647.305, 278.013 657.305, 278.013 667.305, 278.013 677.305, 278.013 687.305, 278.013 697.305, 278.013 707.305, 278.013 717.305, 278.013 727.305, 278.013 737.305, 278.013 747.305, 278.013 757.305, 278.013 767.305, 278.013 777.305, 278.013 787.305, 278.013 797.305, 278.013 807.305, 278.013 817.305, 278.013 827.305, 278.013 837.305, 278.013 847.305, 278.013 857.305, 278.013 867.305, 278.013 877.305, 278.013 887.305, 278.013 899.372, 278.013 " />
            <path fill="none" stroke-width="3.0" stroke-linecap="butt" stroke-opacity="1.0" stroke="rgb(0, 0, 0)" stroke-linejoin="round" d=" M 818.679, 325.593 808.732, 324.559 798.786, 323.525 788.840, 322.491 778.893, 321.457 768.947, 320.423 759.000, 319.389 749.054, 318.355 739.108, 317.321 729.161, 316.286 719.215, 315.252 709.268, 314.218 699.322, 313.184 689.376, 312.150 679.429, 311.116 669.483, 310.082 659.536, 309.048 649.590, 308.014 639.644, 306.980 637.305, 306.737 646.689, 310.191 656.074, 313.646 665.458, 317.101 674.842, 320.556 684.226, 324.011 693.611, 327.465 702.995, 330.920 712.379, 334.375 721.763, 337.830 731.148, 341.285 740.532, 344.739 749.916, 348.194 759.300, 351.649 768.685, 355.104 778.069, 358.559 787.453, 362.014 796.838, 365.468 806.222, 368.923 814.986, 372.150 824.370, 375.604 833.754, 379.059 841.612, 381.952 850.997, 385.407 860.381, 388.862 869.765, 392.317 879.149, 395.771 888.534, 399.226 897.918, 402.681 907.302, 406.136 916.686, 409.591 926.071, 413.045 935.455, 416.500 944.839, 419.955 954.223, 423.410 963.608, 426.865 972.992, 430.320 982.376, 433.774 991.542, 437.149 983.140, 431.727 974.737, 426.304 966.335, 420.882 957.933, 415.460 949.531, 410.037 941.128, 404.615 932.726, 399.193 924.324, 393.770 915.922, 388.348 907.519, 382.926 899.117, 377.503 890.715, 372.081 882.312, 366.659 873.910, 361.236 865.508, 355.814 857.106, 350.392 848.703, 344.969 840.301, 339.547 831.899, 334.125 823.496, 328.702 818.679, 325.593 " />
            <path fill="none" stroke-width="3.0" stroke-linecap="butt" stroke-opacity="1.0" stroke="rgb(0, 0, 0)" stroke-linejoin="round" d=" M 637.305, 698.145 646.097, 693.380 654.889, 688.615 663.681, 683.851 672.473, 679.086 681.265, 674.321 690.057, 669.557 698.849, 664.792 707.641, 660.027 716.432, 655.263 725.224, 650.498 734.016, 645.733 742.808, 640.969 751.600, 636.204 760.392, 631.439 769.184, 626.675 777.976, 621.910 786.768, 617.145 795.560, 612.380 804.352, 607.616 813.144, 602.851 822.523, 597.768 " />
            <path fill="none" stroke-width="3.0" stroke-linecap="butt" stroke-opacity="1.0" stroke="rgb(0, 0, 0)" stroke-linejoin="round" d=" M 818.679, 325.593 827.293, 320.514 835.907, 315.435 844.521, 310.356 853.135, 305.277 861.749, 300.197 870.363, 295.118 878.977, 290.039 887.591, 284.960 896.205, 279.881 899.372, 278.013 " />
        </g>
    </g>
</svg>
