<?xml version='1.0' encoding='ascii'?>
<svg xmlns="http://www.w3.org/2000/svg" version="1.1" width="1920" height="1080">
    <g id="ViewLayer_LineSet" xmlns:inkscape="http://www.inkscape.org/namespaces/inkscape" inkscape:groupmode="lineset" inkscape:label="ViewLayer_LineSet">
        <g xmlns:inkscape="http://www.inkscape.org/namespaces/inkscape" inkscape:groupmode="layer" id="strokes" inkscape:label="strokes">
            <path fill="none" stroke-width="3.0" stroke-linecap="butt" stroke-opacity="1.0" stroke="rgb(0, 0, 0)" stroke-linejoin="round" d=" M 1009.196, 112.692 1002.580, 105.193 996.577, 98.391 996.577, 108.391 996.577, 118.391 996.577, 128.391 996.577, 138.391 996.577, 148.391 996.577, 158.391 996.577, 168.391 996.577, 178.391 996.577, 188.391 996.577, 198.391 996.577, 208.391 996.577, 218.391 996.577, 228.391 996.577, 238.391 996.577, 248.391 996.577, 258.391 996.577, 268.391 996.577, 278.391 996.577, 288.391 996.577, 298.391 996.577, 308.391 996.577, 318.391 996.577, 328.391 996.577, 338.391 996.577, 348.391 996.577, 358.391 996.577, 368.391 996.577, 378.391 996.577, 388.391 996.577, 398.391 996.577, 408.391 996.577, 418.391 996.577, 428.391 996.577, 438.391 996.577, 448.391 996.577, 458.391 996.577, 468.391 996.577, 478.391 996.577, 488.391 996.577, 498.391 996.577, 508.391 996.577, 518.391 996.577, 528.391 996.577, 538.391 996.577, 548.391 996.577, 558.391 996.577, 568.391 996.577, 578.391 996.577, 588.391 996.577, 598.391 996.577, 608.391 996.577, 618.391 996.577, 628.391 996.577, 638.391 996.577, 648.391 996.577, 658.391 996.577, 668.391 996.577, 678.391 996.577, 688.391 996.577, 698.391 996.577, 708.391 996.577, 718.391 996.577, 728.391 996.577, 738.391 996.577, 748.391 996.577, 758.391 996.577, 768.391 996.577, 778.391 996.577, 788.391 996.577, 798.391 996.577, 808.391 996.577, 818.391 996.577, 828.391 996.577, 838.391 996.577, 848.391 996.577, 858.391 996.577, 868.391 996.577, 878.391 996.577, 888.391 996.577, 898.391 996.577, 908.391 996.577, 918.391 996.577, 928.391 996.577, 938.391 996.577, 948.391 996.577, 958.391 996.577, 968.391 996.577, 980.296 " />
            <path fill="none" stroke-width="3.0" stroke-linecap="butt" stroke-opacity="1.0" stroke="rgb(0, 0, 0)" stroke-linejoin="round" d=" M 1009.196, 965.995 1009.196, 955.995 1009.196, 945.995 1009.196, 935.995 1009.196, 925.995 1009.196, 915.995 1009.196, 905.995 1009.196, 895.995 1009.196, 885.995 1009.196, 875.995 1009.196, 865.995 1009.196, 855.995 1009.196, 845.995 1009.196, 835.995 1009.196, 825.995 1009.196, 815.995 1009.196, 805.995 1009.196, 795.995 1009.196, 785.995 1009.196, 775.995 1009.196, 765.995 1009.196, 755.995 1009.196, 745.995 1009.196, 735.995 1009.196, 725.995 1009.196, 715.995 1009.196, 705.995 1009.196, 695.995 1009.196, 685.995 1009.196, 675.995 1009.196, 665.995 1009.196, 655.995 1009.196, 645.995 1009.196, 635.995 1009.196, 625.995 1009.196, 615.995 1009.196, 605.995 1009.196, 595.995 1009.196, 585.995 1009.196, 575.995 1009.196, 565.995 1009.196, 555.995 1009.196, 545.995 1009.196, 535.995 1009.196, 525.995 1009.196, 515.995 1009.196, 505.995 1009.196, 495.995 1009.196, 485.995 1009.196, 475.995 1009.196, 465.995 1009.196, 455.995 1009.196, 445.995 1009.196, 435.995 1009.196, 425.995 1009.196, 415.995 1009.196, 405.995 1009.196, 395.995 1009.196, 385.995 1009.196, 375.995 1009.196, 365.995 1009.196, 355.995 1009.196, 345.995 1009.196, 335.995 1009.196, 325.995 1009.196, 315.995 1009.196, 305.995 1009.196, 295.995 1009.196, 285.995 1009.196, 275.995 1009.196, 265.995 1009.196, 255.995 1009.196, 245.995 1009.196, 235.995 1009.196, 225.995 1009.196, 215.995 1009.196, 205.995 1009.196, 195.995 1009.196, 185.995 1009.196, 175.995 1009.196, 165.995 1009.196, 155.995 1009.196, 145.995 1009.196, 135.995 1009.196, 125.995 1009.196, 112.692 " />
            <path fill="none" stroke-width="3.0" stroke-linecap="butt" stroke-opacity="1.0" stroke="rgb(0, 0, 0)" stroke-linejoin="round" d=" M 920.830, 591.497 922.743, 601.312 924.655, 611.128 926.567, 620.943 928.479, 630.759 930.392, 640.574 932.304, 650.390 933.455, 656.297 933.455, 656.297 936.529, 665.812 939.603, 675.328 942.677, 684.844 945.752, 694.360 948.826, 703.875 951.921, 713.456 " />
            <path fill="none" stroke-width="3.0" stroke-linecap="butt" stroke-opacity="1.0" stroke="rgb(0, 0, 0)" stroke-linejoin="round" d=" M 983.952, 915.496 985.865, 925.311 987.777, 935.127 989.689, 944.942 991.602, 954.758 993.514, 964.573 995.426, 974.389 996.577, 980.296 " />
            <path fill="none" stroke-width="3.0" stroke-linecap="butt" stroke-opacity="1.0" stroke="rgb(0, 0, 0)" stroke-linejoin="round" d=" M 983.952, 915.496 983.952, 915.496 983.952, 915.496 " />
            <path fill="none" stroke-width="3.0" stroke-linecap="butt" stroke-opacity="1.0" stroke="rgb(0, 0, 0)" stroke-linejoin="round" d=" M 933.455, 422.390 933.455, 422.390 933.455, 422.390 931.542, 432.205 929.630, 442.021 927.718, 451.836 925.806, 461.652 923.893, 471.467 921.981, 481.283 920.830, 487.190 " />
            <path fill="none" stroke-width="3.0" stroke-linecap="butt" stroke-opacity="1.0" stroke="rgb(0, 0, 0)" stroke-linejoin="round" d=" M 951.921, 713.456 948.847, 703.940 945.773, 694.424 942.698, 684.908 939.624, 675.393 936.550, 665.877 933.455, 656.297 933.455, 646.297 933.455, 636.297 933.455, 626.297 933.455, 616.297 933.455, 606.297 933.455, 596.297 933.455, 586.297 933.455, 576.297 933.455, 566.297 933.455, 556.297 933.455, 546.297 933.455, 536.297 933.455, 526.297 933.455, 516.297 933.455, 506.297 933.455, 496.297 933.455, 486.297 933.455, 476.297 933.455, 466.297 933.455, 456.297 933.455, 446.297 933.455, 436.297 933.455, 426.297 933.455, 422.390 " />
            <path fill="none" stroke-width="3.0" stroke-linecap="butt" stroke-opacity="1.0" stroke="rgb(0, 0, 0)" stroke-linejoin="round" d=" M 983.953, 163.191 983.953, 173.191 983.953, 183.191 983.953, 193.191 983.953, 203.191 983.953, 213.191 983.953, 223.191 983.953, 233.191 983.953, 243.191 983.953, 253.191 983.953, 263.191 983.953, 273.191 983.953, 283.191 983.953, 293.191 983.953, 303.191 983.953, 313.191 983.953, 323.191 983.953, 333.191 983.953, 343.191 983.953, 353.191 983.953, 363.191 983.953, 373.191 983.953, 383.191 983.953, 393.191 983.953, 403.191 983.953, 413.191 983.953, 423.191 983.953, 433.191 983.953, 443.191 983.953, 453.191 983.953, 463.191 983.953, 473.191 983.953, 483.191 983.953, 493.191 983.953, 503.191 983.953, 513.191 983.953, 523.191 983.953, 533.191 983.953, 543.191 983.953, 553.191 983.953, 563.191 983.953, 573.191 983.953, 583.191 983.953, 593.191 983.953, 603.191 983.953, 613.191 983.953, 623.191 983.953, 633.191 983.953, 643.191 983.953, 653.191 983.953, 663.191 983.953, 673.191 983.953, 683.191 983.953, 693.191 983.953, 703.191 983.953, 713.191 983.952, 723.191 983.952, 733.191 983.952, 743.191 983.952, 753.191 983.952, 763.191 983.952, 773.191 983.952, 783.191 983.952, 793.191 983.952, 803.191 983.952, 813.191 983.952, 823.191 983.952, 833.191 983.952, 843.191 983.952, 853.191 983.952, 863.191 983.952, 873.191 983.952, 883.191 983.952, 893.191 983.952, 903.191 983.952, 915.496 " />
            <path fill="none" stroke-width="3.0" stroke-linecap="butt" stroke-opacity="1.0" stroke="rgb(0, 0, 0)" stroke-linejoin="round" d=" M 983.952, 915.496 983.952, 915.496 985.865, 925.311 987.777, 935.127 989.689, 944.942 991.602, 954.758 993.514, 964.573 995.426, 974.389 996.577, 980.296 " />
            <path fill="none" stroke-width="3.0" stroke-linecap="butt" stroke-opacity="1.0" stroke="rgb(0, 0, 0)" stroke-linejoin="round" d=" M 996.577, 98.391 994.665, 108.206 992.753, 118.022 990.840, 127.837 988.928, 137.653 987.016, 147.468 985.103, 157.284 983.953, 163.191 983.298, 173.169 982.644, 183.148 981.989, 193.126 981.335, 203.105 980.680, 213.083 980.025, 223.062 979.371, 233.041 978.716, 243.019 978.268, 249.852 " />
            <path fill="none" stroke-width="3.0" stroke-linecap="butt" stroke-opacity="1.0" stroke="rgb(0, 0, 0)" stroke-linejoin="round" d=" M 958.704, 292.790 962.850, 283.690 966.996, 274.590 971.143, 265.491 975.289, 256.391 978.268, 249.852 978.268, 249.852 978.268, 259.852 978.268, 269.852 978.268, 279.852 978.268, 289.852 978.268, 299.852 978.268, 309.852 978.268, 319.852 978.268, 329.852 978.268, 339.852 978.268, 349.852 978.268, 359.852 978.268, 369.852 978.268, 379.852 978.268, 389.852 978.268, 399.852 978.268, 409.852 978.268, 419.852 978.268, 429.852 978.268, 439.852 978.268, 449.852 978.268, 459.852 978.268, 469.852 978.268, 479.852 978.268, 489.852 978.268, 499.852 978.268, 509.852 978.268, 519.852 978.268, 529.852 978.268, 539.852 978.268, 549.852 978.268, 559.852 978.268, 569.852 978.268, 579.852 978.268, 589.852 978.268, 599.852 978.268, 609.852 978.268, 619.852 978.268, 629.852 978.268, 639.852 978.268, 649.852 978.268, 659.852 978.268, 669.852 978.268, 679.852 978.268, 689.852 978.268, 699.852 978.268, 709.852 978.268, 719.852 978.268, 729.852 978.268, 739.852 978.268, 749.852 978.268, 759.852 978.268, 769.852 978.268, 779.852 978.268, 789.852 978.268, 799.852 978.268, 809.852 978.268, 819.852 978.268, 828.834 974.122, 819.734 969.975, 810.634 965.829, 801.534 961.683, 792.435 958.704, 785.896 " />
            <path fill="none" stroke-width="3.0" stroke-linecap="butt" stroke-opacity="1.0" stroke="rgb(0, 0, 0)" stroke-linejoin="round" d=" M 978.268, 828.834 978.268, 828.834 978.923, 838.813 979.577, 848.791 980.232, 858.770 980.886, 868.748 981.541, 878.727 982.195, 888.705 982.850, 898.684 983.504, 908.663 983.952, 915.496 " />
            <path fill="none" stroke-width="3.0" stroke-linecap="butt" stroke-opacity="1.0" stroke="rgb(0, 0, 0)" stroke-linejoin="round" d=" M 958.704, 292.790 958.704, 302.790 958.704, 312.790 958.704, 322.790 958.704, 332.790 958.704, 342.790 958.704, 352.790 958.704, 362.790 958.704, 372.790 958.704, 382.790 958.704, 392.790 958.704, 402.790 958.704, 412.790 958.704, 422.790 958.704, 432.790 958.704, 442.790 958.704, 452.790 958.704, 462.790 958.704, 472.790 958.704, 482.790 958.704, 492.790 958.704, 502.790 958.704, 512.790 958.704, 522.790 958.704, 532.790 958.704, 542.790 958.704, 552.790 958.704, 562.790 958.704, 572.790 958.704, 582.790 958.704, 592.790 958.704, 602.790 958.704, 612.790 958.704, 622.790 958.704, 632.790 958.704, 642.790 958.704, 652.790 958.704, 662.790 958.704, 672.790 958.704, 682.790 958.704, 692.790 958.704, 702.790 958.704, 712.790 958.704, 722.790 958.704, 732.790 958.704, 742.790 958.704, 752.790 958.704, 762.790 958.704, 772.790 958.704, 785.896 957.771, 775.940 956.839, 765.983 955.907, 756.027 954.975, 746.070 954.043, 736.114 953.110, 726.158 952.178, 716.201 951.921, 713.458 951.921, 713.457 " />
            <path fill="none" stroke-width="3.0" stroke-linecap="butt" stroke-opacity="1.0" stroke="rgb(0, 0, 0)" stroke-linejoin="round" d=" M 951.921, 365.231 952.853, 355.275 953.786, 345.318 954.718, 335.362 955.650, 325.405 956.582, 315.449 957.514, 305.492 958.447, 295.536 958.704, 292.790 958.704, 292.790 957.771, 302.747 956.839, 312.703 955.907, 322.660 954.975, 332.616 954.043, 342.573 953.110, 352.529 952.178, 362.485 951.921, 365.231 " />
            <path fill="none" stroke-width="3.0" stroke-linecap="butt" stroke-opacity="1.0" stroke="rgb(0, 0, 0)" stroke-linejoin="round" d=" M 920.830, 487.190 922.743, 477.374 924.655, 467.559 926.567, 457.743 928.479, 447.928 930.392, 438.112 932.304, 428.297 933.455, 422.390 933.455, 422.390 936.529, 412.874 939.603, 403.358 942.678, 393.843 945.752, 384.327 948.826, 374.811 951.921, 365.231 951.921, 365.231 951.921, 375.231 951.921, 385.231 951.921, 395.231 951.921, 405.231 951.921, 415.231 951.921, 425.231 951.921, 435.231 951.921, 445.231 951.921, 455.231 951.921, 465.231 951.921, 475.231 951.921, 485.231 951.921, 495.231 951.921, 505.231 951.921, 515.231 951.921, 525.231 951.921, 535.231 951.921, 545.231 951.921, 555.231 951.921, 565.231 951.921, 575.231 951.921, 585.231 951.921, 595.231 951.921, 605.231 951.921, 615.231 951.921, 625.231 951.921, 635.231 951.921, 645.231 951.921, 655.231 951.921, 665.231 951.921, 675.231 951.921, 685.231 951.921, 695.231 951.921, 705.231 951.921, 713.456 " />
            <path fill="none" stroke-width="3.0" stroke-linecap="butt" stroke-opacity="1.0" stroke="rgb(0, 0, 0)" stroke-linejoin="round" d=" M 933.455, 422.390 933.455, 422.390 933.455, 422.390 " />
            <path fill="none" stroke-width="3.0" stroke-linecap="butt" stroke-opacity="1.0" stroke="rgb(0, 0, 0)" stroke-linejoin="round" d=" M 920.830, 487.190 920.830, 497.190 920.830, 507.190 920.830, 517.190 920.830, 527.190 920.830, 537.190 920.830, 547.190 920.830, 557.190 920.830, 567.190 920.830, 577.190 920.830, 587.190 920.830, 591.497 " />
            <path fill="none" stroke-width="3.0" stroke-linecap="butt" stroke-opacity="1.0" stroke="rgb(0, 0, 0)" stroke-linejoin="round" d=" M 978.268, 828.834 974.122, 819.734 969.975, 810.634 965.829, 801.534 961.683, 792.435 958.704, 785.896 " />
            <path fill="none" stroke-width="3.0" stroke-linecap="butt" stroke-opacity="1.0" stroke="rgb(0, 0, 0)" stroke-linejoin="round" d=" M 978.268, 249.852 978.923, 239.874 979.577, 229.895 980.232, 219.917 980.886, 209.938 981.541, 199.960 982.195, 189.981 982.850, 180.003 983.504, 170.024 983.953, 163.191 " />
            <path fill="none" stroke-width="3.0" stroke-linecap="butt" stroke-opacity="1.0" stroke="rgb(0, 0, 0)" stroke-linejoin="round" d=" M 996.577, 980.296 1003.193, 972.797 1009.196, 965.995 " />
        </g>
    </g>
</svg>
