<?xml version='1.0' encoding='ascii'?>
<svg xmlns="http://www.w3.org/2000/svg" version="1.1" width="1920" height="1080">
    <g id="ViewLayer_LineSet" xmlns:inkscape="http://www.inkscape.org/namespaces/inkscape" inkscape:groupmode="lineset" inkscape:label="ViewLayer_LineSet">
        <g xmlns:inkscape="http://www.inkscape.org/namespaces/inkscape" inkscape:groupmode="layer" id="strokes" inkscape:label="strokes">
            <path fill="none" stroke-width="3.0" stroke-linecap="butt" stroke-opacity="1.0" stroke="rgb(0, 0, 0)" stroke-linejoin="round" d=" M 920.830, 538.365 920.830, 548.365 920.830, 558.365 920.830, 568.365 920.830, 573.706 925.769, 582.400 930.709, 591.095 933.454, 595.928 940.415, 603.107 947.377, 610.286 951.920, 614.972 954.500, 624.633 957.080, 634.295 958.703, 640.373 966.876, 646.135 975.049, 651.897 978.267, 654.165 980.091, 663.998 981.914, 673.830 983.737, 683.662 983.952, 684.818 988.891, 693.513 993.831, 702.208 996.576, 707.040 1006.172, 704.226 1009.195, 703.339 1009.195, 693.339 1009.195, 683.339 1009.195, 673.339 1009.195, 663.339 1009.195, 653.339 1009.195, 643.339 1009.195, 633.339 1009.195, 623.339 1009.195, 613.339 1009.195, 603.339 1009.195, 593.339 1009.195, 583.339 1009.195, 573.339 1009.195, 563.339 1009.195, 553.339 1009.195, 543.339 1009.195, 533.339 1009.195, 523.339 1009.195, 513.339 1009.195, 503.339 1009.195, 493.339 1009.195, 482.488 1009.195, 472.488 1009.195, 462.488 1009.195, 452.488 1009.195, 442.488 1009.195, 432.488 1009.195, 422.488 1009.195, 412.488 1009.195, 402.488 1009.195, 392.488 1009.195, 381.735 999.600, 378.920 996.576, 378.033 991.637, 386.728 986.697, 395.423 983.952, 400.256 982.128, 410.088 980.305, 419.921 978.482, 429.753 978.267, 430.908 970.094, 436.670 961.921, 442.432 958.703, 444.701 956.123, 454.362 953.543, 464.024 951.920, 470.102 944.959, 477.281 937.998, 484.460 933.454, 489.146 928.515, 497.841 923.575, 506.535 920.830, 511.368 920.830, 521.368 920.830, 531.368 920.830, 538.365 " />
            <path fill="none" stroke-width="3.0" stroke-linecap="butt" stroke-opacity="1.0" stroke="rgb(0, 0, 0)" stroke-linejoin="round" d=" M 920.830, 573.706 920.830, 563.706 920.830, 553.706 920.830, 546.709 928.275, 540.033 933.454, 535.388 942.138, 530.430 950.822, 525.472 951.920, 524.844 " />
            <path fill="none" stroke-width="3.0" stroke-linecap="butt" stroke-opacity="1.0" stroke="rgb(0, 0, 0)" stroke-linejoin="round" d=" M 920.830, 546.709 920.830, 536.709 920.830, 526.709 920.830, 516.709 920.830, 511.368 " />
            <path fill="none" stroke-width="3.0" stroke-linecap="butt" stroke-opacity="1.0" stroke="rgb(0, 0, 0)" stroke-linejoin="round" d=" M 983.952, 400.256 983.952, 410.256 983.952, 420.256 983.952, 430.256 983.952, 440.256 983.952, 450.256 983.952, 460.256 983.952, 470.256 983.952, 480.256 983.952, 490.107 " />
            <path fill="none" stroke-width="3.0" stroke-linecap="butt" stroke-opacity="1.0" stroke="rgb(0, 0, 0)" stroke-linejoin="round" d=" M 983.952, 490.107 991.397, 483.431 996.576, 478.786 " />
            <path fill="none" stroke-width="3.0" stroke-linecap="butt" stroke-opacity="1.0" stroke="rgb(0, 0, 0)" stroke-linejoin="round" d=" M 1009.195, 482.488 999.600, 479.673 996.576, 478.786 996.576, 468.786 996.576, 458.786 996.576, 448.786 996.576, 438.786 996.576, 428.786 996.576, 418.786 996.576, 408.786 996.576, 398.786 996.576, 388.786 996.576, 378.033 " />
            <path fill="none" stroke-width="3.0" stroke-linecap="butt" stroke-opacity="1.0" stroke="rgb(0, 0, 0)" stroke-linejoin="round" d=" M 996.576, 478.786 996.576, 488.786 996.576, 498.786 996.576, 508.786 996.576, 518.786 996.576, 528.786 996.576, 538.786 996.576, 548.786 996.576, 558.786 996.576, 568.786 996.576, 578.786 996.576, 588.786 996.576, 598.786 996.576, 608.786 996.576, 618.786 996.576, 628.786 996.576, 638.786 996.576, 648.786 996.576, 658.786 996.576, 668.786 996.576, 678.786 996.576, 688.786 996.576, 698.786 996.576, 707.040 " />
            <path fill="none" stroke-width="3.0" stroke-linecap="butt" stroke-opacity="1.0" stroke="rgb(0, 0, 0)" stroke-linejoin="round" d=" M 933.454, 595.928 933.454, 585.928 933.454, 575.928 933.454, 565.928 933.454, 555.928 933.454, 545.928 933.454, 535.388 933.454, 525.388 933.454, 515.388 933.454, 505.388 933.454, 495.388 933.454, 489.146 " />
            <path fill="none" stroke-width="3.0" stroke-linecap="butt" stroke-opacity="1.0" stroke="rgb(0, 0, 0)" stroke-linejoin="round" d=" M 978.267, 504.314 981.982, 495.029 983.952, 490.107 983.952, 500.107 983.952, 510.107 983.952, 520.107 983.952, 530.107 983.952, 540.107 983.952, 550.107 983.952, 560.107 983.952, 570.107 983.952, 580.107 983.952, 590.107 983.952, 600.107 983.952, 610.107 983.952, 620.107 983.952, 630.107 983.952, 640.107 983.952, 650.107 983.952, 660.107 983.952, 670.107 983.952, 680.107 983.952, 684.818 " />
            <path fill="none" stroke-width="3.0" stroke-linecap="butt" stroke-opacity="1.0" stroke="rgb(0, 0, 0)" stroke-linejoin="round" d=" M 958.703, 512.748 967.886, 508.789 977.069, 504.830 978.267, 504.314 978.267, 514.314 978.267, 524.314 978.267, 534.314 978.267, 544.314 978.267, 554.314 978.267, 564.314 978.267, 574.314 978.267, 584.314 978.267, 594.314 978.267, 604.314 978.267, 614.314 978.267, 624.314 978.267, 634.314 978.267, 644.314 978.267, 654.165 " />
            <path fill="none" stroke-width="3.0" stroke-linecap="butt" stroke-opacity="1.0" stroke="rgb(0, 0, 0)" stroke-linejoin="round" d=" M 958.703, 512.748 958.703, 522.748 958.703, 532.748 958.703, 542.748 958.703, 552.748 958.703, 562.748 958.703, 572.748 958.703, 582.748 958.703, 592.748 958.703, 602.748 958.703, 612.748 958.703, 622.748 958.703, 632.748 958.703, 640.373 " />
            <path fill="none" stroke-width="3.0" stroke-linecap="butt" stroke-opacity="1.0" stroke="rgb(0, 0, 0)" stroke-linejoin="round" d=" M 958.703, 444.701 958.703, 454.701 958.703, 464.701 958.703, 474.701 958.703, 484.701 958.703, 494.701 958.703, 504.701 958.703, 512.748 953.812, 521.470 951.920, 524.844 " />
            <path fill="none" stroke-width="3.0" stroke-linecap="butt" stroke-opacity="1.0" stroke="rgb(0, 0, 0)" stroke-linejoin="round" d=" M 951.920, 470.102 951.920, 480.102 951.920, 490.102 951.920, 500.102 951.920, 510.102 951.920, 520.102 951.920, 524.844 951.920, 534.844 951.920, 544.844 951.920, 554.844 951.920, 564.844 951.920, 574.845 951.920, 584.845 951.920, 594.845 951.920, 604.845 951.920, 614.972 " />
            <path fill="none" stroke-width="3.0" stroke-linecap="butt" stroke-opacity="1.0" stroke="rgb(0, 0, 0)" stroke-linejoin="round" d=" M 978.267, 504.314 978.267, 494.314 978.267, 484.314 978.267, 474.314 978.267, 464.314 978.267, 454.314 978.267, 444.314 978.267, 434.314 978.267, 430.908 " />
        </g>
    </g>
</svg>
