<?xml version='1.0' encoding='ascii'?>
<svg xmlns="http://www.w3.org/2000/svg" version="1.1" width="1920" height="1080">
    <g id="ViewLayer_LineSet" xmlns:inkscape="http://www.inkscape.org/namespaces/inkscape" inkscape:groupmode="lineset" inkscape:label="ViewLayer_LineSet">
        <g xmlns:inkscape="http://www.inkscape.org/namespaces/inkscape" inkscape:groupmode="layer" id="strokes" inkscape:label="strokes">
            <path fill="none" stroke-width="3.0" stroke-linecap="butt" stroke-opacity="1.0" stroke="rgb(0, 0, 0)" stroke-linejoin="round" d=" M 978.267, 580.799 983.821, 589.116 983.952, 589.312 983.952, 589.312 993.081, 593.393 996.576, 594.956 1006.576, 594.956 1009.195, 594.956 1009.195, 584.956 1009.195, 574.956 1009.195, 564.956 1009.195, 554.956 1009.195, 544.956 1009.195, 534.956 1009.195, 524.956 1009.195, 514.956 1009.195, 504.956 1009.195, 494.956 1009.195, 490.648 1009.195, 490.648 999.195, 490.648 996.576, 490.648 987.447, 494.729 983.952, 496.292 978.399, 504.608 978.267, 504.804 968.366, 506.208 958.703, 507.578 951.920, 514.465 942.193, 516.783 933.454, 518.865 924.325, 522.946 920.830, 524.508 920.830, 534.508 920.830, 544.508 920.830, 554.508 920.830, 561.096 920.830, 561.096 929.959, 565.177 933.454, 566.739 943.182, 569.057 951.920, 571.139 951.920, 571.139 " />
            <path fill="none" stroke-width="3.0" stroke-linecap="butt" stroke-opacity="1.0" stroke="rgb(0, 0, 0)" stroke-linejoin="round" d=" M 920.830, 561.096 920.830, 551.096 920.830, 541.096 920.830, 531.096 920.830, 524.508 " />
            <path fill="none" stroke-width="3.0" stroke-linecap="butt" stroke-opacity="1.0" stroke="rgb(0, 0, 0)" stroke-linejoin="round" d=" M 951.920, 514.465 942.193, 516.783 933.454, 518.865 924.325, 522.946 920.830, 524.508 920.830, 524.508 " />
            <path fill="none" stroke-width="3.0" stroke-linecap="butt" stroke-opacity="1.0" stroke="rgb(0, 0, 0)" stroke-linejoin="round" d=" M 983.952, 496.292 983.952, 506.292 983.952, 516.292 983.952, 526.292 983.952, 536.292 983.952, 546.292 983.952, 556.292 983.952, 566.292 983.952, 576.292 983.952, 586.292 983.952, 589.312 978.399, 580.996 978.267, 580.799 " />
            <path fill="none" stroke-width="3.0" stroke-linecap="butt" stroke-opacity="1.0" stroke="rgb(0, 0, 0)" stroke-linejoin="round" d=" M 996.576, 594.956 996.576, 584.956 996.576, 574.956 996.576, 564.956 996.576, 554.956 996.576, 544.956 996.576, 534.956 996.576, 524.956 996.576, 514.956 996.576, 504.956 996.576, 494.956 996.576, 490.648 " />
            <path fill="none" stroke-width="3.0" stroke-linecap="butt" stroke-opacity="1.0" stroke="rgb(0, 0, 0)" stroke-linejoin="round" d=" M 1009.195, 490.648 999.195, 490.648 996.576, 490.648 987.447, 494.729 983.952, 496.292 " />
            <path fill="none" stroke-width="3.0" stroke-linecap="butt" stroke-opacity="1.0" stroke="rgb(0, 0, 0)" stroke-linejoin="round" d=" M 996.576, 490.648 996.576, 490.648 " />
            <path fill="none" stroke-width="3.0" stroke-linecap="butt" stroke-opacity="1.0" stroke="rgb(0, 0, 0)" stroke-linejoin="round" d=" M 983.952, 496.292 983.952, 496.292 978.399, 504.608 978.267, 504.804 " />
            <path fill="none" stroke-width="3.0" stroke-linecap="butt" stroke-opacity="1.0" stroke="rgb(0, 0, 0)" stroke-linejoin="round" d=" M 951.920, 571.139 958.703, 578.026 958.703, 578.026 968.604, 579.429 978.267, 580.799 978.267, 580.799 " />
            <path fill="none" stroke-width="3.0" stroke-linecap="butt" stroke-opacity="1.0" stroke="rgb(0, 0, 0)" stroke-linejoin="round" d=" M 958.703, 507.578 958.703, 517.578 958.703, 527.578 958.703, 537.578 958.703, 547.578 958.703, 557.578 958.703, 567.578 958.703, 578.026 951.920, 571.139 951.920, 561.139 951.920, 551.139 951.920, 541.139 951.920, 531.139 951.920, 521.139 951.920, 514.465 " />
            <path fill="none" stroke-width="3.0" stroke-linecap="butt" stroke-opacity="1.0" stroke="rgb(0, 0, 0)" stroke-linejoin="round" d=" M 933.454, 566.739 933.454, 556.739 933.454, 546.739 933.454, 536.739 933.454, 526.739 933.454, 518.865 933.454, 518.865 " />
            <path fill="none" stroke-width="3.0" stroke-linecap="butt" stroke-opacity="1.0" stroke="rgb(0, 0, 0)" stroke-linejoin="round" d=" M 958.703, 507.578 951.920, 514.465 951.920, 514.465 " />
            <path fill="none" stroke-width="3.0" stroke-linecap="butt" stroke-opacity="1.0" stroke="rgb(0, 0, 0)" stroke-linejoin="round" d=" M 978.267, 504.804 978.267, 504.804 968.366, 506.208 958.703, 507.578 958.703, 507.578 " />
            <path fill="none" stroke-width="3.0" stroke-linecap="butt" stroke-opacity="1.0" stroke="rgb(0, 0, 0)" stroke-linejoin="round" d=" M 978.267, 580.799 978.267, 570.799 978.267, 560.799 978.267, 550.799 978.267, 540.799 978.267, 530.799 978.267, 520.799 978.267, 510.799 978.267, 504.804 " />
        </g>
    </g>
</svg>
