<?xml version='1.0' encoding='ascii'?>
<svg xmlns="http://www.w3.org/2000/svg" version="1.1" width="1920" height="1080">
    <g id="ViewLayer_LineSet" xmlns:inkscape="http://www.inkscape.org/namespaces/inkscape" inkscape:groupmode="lineset" inkscape:label="ViewLayer_LineSet">
        <g xmlns:inkscape="http://www.inkscape.org/namespaces/inkscape" inkscape:groupmode="layer" id="strokes" inkscape:label="strokes">
            <path fill="none" stroke-width="3.0" stroke-linecap="butt" stroke-opacity="1.0" stroke="rgb(0, 0, 0)" stroke-linejoin="round" d=" M 920.830, 576.852 920.830, 586.852 920.830, 595.145 922.924, 604.924 925.019, 614.702 927.113, 624.480 929.208, 634.258 931.302, 644.037 933.454, 654.085 936.818, 663.503 940.182, 672.920 943.545, 682.337 946.909, 691.755 950.273, 701.172 951.921, 705.786 952.940, 715.734 953.960, 725.682 954.979, 735.630 955.999, 745.578 957.018, 755.526 958.038, 765.474 958.703, 771.965 963.227, 780.884 967.750, 789.802 972.274, 798.720 976.797, 807.639 978.268, 810.537 978.983, 820.512 979.698, 830.486 980.412, 840.461 981.127, 850.435 981.842, 860.409 982.557, 870.384 983.272, 880.358 983.952, 889.845 986.047, 899.623 988.141, 909.402 990.235, 919.180 992.330, 928.958 994.424, 938.736 996.576, 948.785 1003.714, 941.781 1009.196, 936.400 1009.196, 926.400 1009.196, 916.400 1009.196, 906.400 1009.196, 896.400 1009.196, 886.400 1009.196, 876.400 1009.196, 866.400 1009.196, 856.400 1009.196, 846.400 1009.196, 836.400 1009.196, 826.400 1009.196, 816.400 1009.196, 806.400 1009.196, 796.400 1009.196, 786.400 1009.196, 776.400 1009.196, 766.400 1009.196, 756.400 1009.196, 746.400 1009.196, 736.400 1009.196, 726.400 1009.196, 716.400 1009.196, 706.400 1009.196, 696.400 1009.196, 686.400 1009.196, 676.400 1009.196, 666.400 1009.196, 656.400 1009.196, 646.400 1009.196, 636.400 1009.196, 626.400 1009.196, 616.400 1009.196, 606.400 1009.196, 596.400 1009.196, 586.400 1009.196, 576.400 1009.196, 566.400 1009.196, 556.400 1009.196, 546.400 1009.196, 536.400 1009.196, 526.400 1009.196, 516.400 1009.196, 506.400 1009.196, 496.400 1009.196, 486.400 1009.196, 476.400 1009.196, 466.400 1009.196, 456.400 1009.196, 446.400 1009.196, 436.400 1009.196, 426.400 1009.196, 416.400 1009.196, 406.400 1009.196, 396.400 1009.196, 386.400 1009.196, 376.400 1009.196, 366.400 1009.196, 356.400 1009.196, 346.400 1009.196, 336.400 1009.196, 326.400 1009.196, 316.400 1009.196, 306.400 1009.196, 296.400 1009.196, 286.400 1009.196, 276.400 1009.196, 266.400 1009.196, 256.400 1009.196, 246.400 1009.196, 236.400 1009.196, 226.400 1009.196, 216.400 1009.196, 206.400 1009.196, 197.418 1009.196, 187.418 1009.196, 177.418 1009.196, 167.418 1009.196, 157.418 1009.196, 147.418 1009.196, 145.264 1002.059, 138.260 996.577, 132.879 994.482, 142.658 992.388, 152.436 990.293, 162.214 988.199, 171.992 986.105, 181.770 983.952, 191.819 983.237, 201.794 982.522, 211.768 981.807, 221.743 981.093, 231.717 980.378, 241.691 979.663, 251.666 978.948, 261.640 978.268, 271.127 973.744, 280.045 969.221, 288.964 964.697, 297.882 960.174, 306.801 958.703, 309.699 957.684, 319.647 956.664, 329.595 955.645, 339.543 954.625, 349.491 953.606, 359.439 952.586, 369.386 951.921, 375.878 948.557, 385.295 945.193, 394.713 941.830, 404.130 938.466, 413.547 935.102, 422.965 933.454, 427.579 931.360, 437.357 929.266, 447.135 927.171, 456.914 925.077, 466.692 922.982, 476.470 920.830, 486.519 920.830, 496.519 920.830, 506.519 920.830, 516.519 920.830, 526.519 920.830, 536.519 920.830, 546.519 920.830, 556.519 920.830, 566.519 920.830, 576.852 " />
            <path fill="none" stroke-width="3.0" stroke-linecap="butt" stroke-opacity="1.0" stroke="rgb(0, 0, 0)" stroke-linejoin="round" d=" M 920.830, 595.145 920.830, 585.145 920.830, 575.145 920.830, 565.146 920.830, 555.146 920.830, 545.146 920.830, 535.146 920.830, 525.146 920.830, 515.146 920.830, 504.813 923.135, 495.082 925.440, 485.351 927.745, 475.620 930.050, 465.890 932.355, 456.159 933.454, 451.516 937.091, 442.201 940.728, 432.885 944.364, 423.570 948.001, 414.255 951.638, 404.940 951.921, 404.215 " />
            <path fill="none" stroke-width="3.0" stroke-linecap="butt" stroke-opacity="1.0" stroke="rgb(0, 0, 0)" stroke-linejoin="round" d=" M 920.830, 504.813 920.830, 494.813 920.830, 486.519 " />
            <path fill="none" stroke-width="3.0" stroke-linecap="butt" stroke-opacity="1.0" stroke="rgb(0, 0, 0)" stroke-linejoin="round" d=" M 983.952, 191.819 983.952, 201.819 983.952, 211.819 983.952, 221.819 983.952, 231.819 983.952, 238.330 " />
            <path fill="none" stroke-width="3.0" stroke-linecap="butt" stroke-opacity="1.0" stroke="rgb(0, 0, 0)" stroke-linejoin="round" d=" M 983.952, 238.330 986.257, 228.599 988.562, 218.868 990.867, 209.137 993.172, 199.407 995.477, 189.676 996.577, 185.033 " />
            <path fill="none" stroke-width="3.0" stroke-linecap="butt" stroke-opacity="1.0" stroke="rgb(0, 0, 0)" stroke-linejoin="round" d=" M 1009.196, 197.418 1002.059, 190.413 996.577, 185.033 996.577, 175.033 996.577, 165.033 996.577, 155.033 996.577, 145.033 996.577, 135.033 996.577, 132.879 " />
            <path fill="none" stroke-width="3.0" stroke-linecap="butt" stroke-opacity="1.0" stroke="rgb(0, 0, 0)" stroke-linejoin="round" d=" M 996.577, 185.033 996.577, 195.033 996.577, 205.033 996.577, 215.033 996.577, 225.033 996.577, 235.033 996.577, 245.033 996.577, 255.033 996.577, 265.033 996.577, 275.033 996.577, 285.033 996.577, 295.033 996.577, 305.033 996.577, 315.033 996.577, 325.033 996.577, 335.033 996.577, 345.033 996.577, 355.033 996.577, 365.033 996.577, 375.033 996.577, 385.033 996.577, 395.033 996.577, 405.033 996.577, 415.033 996.577, 425.033 996.577, 435.033 996.577, 445.033 996.577, 455.033 996.577, 465.033 996.577, 475.033 996.577, 485.033 996.577, 495.033 996.577, 505.033 996.577, 515.033 996.577, 525.033 996.577, 535.033 996.577, 545.033 996.577, 555.033 996.577, 565.033 996.577, 575.033 996.577, 585.033 996.577, 595.033 996.577, 605.033 996.577, 615.033 996.577, 625.033 996.577, 635.033 996.577, 645.033 996.577, 655.033 996.577, 665.033 996.577, 675.033 996.577, 685.033 996.577, 695.033 996.577, 705.033 996.577, 715.033 996.577, 725.033 996.577, 735.033 996.577, 745.033 996.577, 755.033 996.577, 765.033 996.577, 775.033 996.577, 785.033 996.577, 795.033 996.577, 805.033 996.577, 815.033 996.577, 825.033 996.577, 835.033 996.577, 845.033 996.577, 855.033 996.577, 865.033 996.577, 875.033 996.577, 885.033 996.577, 895.033 996.577, 905.033 996.577, 915.033 996.576, 925.033 996.576, 935.033 996.576, 948.785 " />
            <path fill="none" stroke-width="3.0" stroke-linecap="butt" stroke-opacity="1.0" stroke="rgb(0, 0, 0)" stroke-linejoin="round" d=" M 933.454, 654.085 933.454, 644.085 933.454, 634.085 933.454, 624.085 933.454, 614.085 933.454, 604.085 933.454, 594.085 933.454, 584.085 933.454, 574.085 933.454, 564.085 933.454, 554.085 933.454, 544.085 933.454, 534.085 933.454, 524.085 933.454, 514.085 933.454, 504.085 933.454, 494.085 933.454, 484.085 933.454, 474.085 933.454, 464.085 933.454, 454.085 933.454, 451.516 933.454, 441.516 933.454, 431.516 933.454, 427.579 " />
            <path fill="none" stroke-width="3.0" stroke-linecap="butt" stroke-opacity="1.0" stroke="rgb(0, 0, 0)" stroke-linejoin="round" d=" M 978.268, 309.125 979.068, 299.157 979.869, 289.189 980.669, 279.221 981.469, 269.253 982.270, 259.285 983.070, 249.317 983.870, 239.349 983.952, 238.330 983.952, 248.330 983.952, 258.330 983.952, 268.330 983.952, 278.330 983.952, 288.330 983.952, 298.330 983.952, 308.330 983.952, 318.330 983.952, 328.330 983.952, 338.330 983.952, 348.330 983.952, 358.330 983.952, 368.330 983.952, 378.330 983.952, 388.330 983.952, 398.330 983.952, 408.330 983.952, 418.330 983.952, 428.330 983.952, 438.330 983.952, 448.330 983.952, 458.330 983.952, 468.330 983.952, 478.330 983.952, 488.330 983.952, 498.330 983.952, 508.330 983.952, 518.330 983.952, 528.330 983.952, 538.330 983.952, 548.330 983.952, 558.330 983.952, 568.330 983.952, 578.330 983.952, 588.330 983.952, 598.330 983.952, 608.330 983.952, 618.330 983.952, 628.330 983.952, 638.330 983.952, 648.330 983.952, 658.330 983.952, 668.330 983.952, 678.330 983.952, 688.330 983.952, 698.330 983.952, 708.330 983.952, 718.330 983.952, 728.330 983.952, 738.330 983.952, 748.330 983.952, 758.330 983.952, 768.330 983.952, 778.330 983.952, 788.330 983.952, 798.330 983.952, 808.330 983.952, 818.330 983.952, 828.330 983.952, 838.330 983.952, 848.330 983.952, 858.330 983.952, 868.330 983.952, 878.330 983.952, 889.845 " />
            <path fill="none" stroke-width="3.0" stroke-linecap="butt" stroke-opacity="1.0" stroke="rgb(0, 0, 0)" stroke-linejoin="round" d=" M 958.703, 344.923 963.499, 336.148 968.295, 327.373 973.091, 318.598 977.886, 309.823 978.268, 309.125 978.268, 319.125 978.268, 329.125 978.268, 339.125 978.268, 349.125 978.268, 359.125 978.268, 369.125 978.268, 379.125 978.268, 389.125 978.268, 399.125 978.268, 409.125 978.268, 419.125 978.268, 429.125 978.268, 439.125 978.268, 449.125 978.268, 459.125 978.268, 469.125 978.268, 479.125 978.268, 489.125 978.268, 499.125 978.268, 509.125 978.268, 519.125 978.268, 529.125 978.268, 539.125 978.268, 549.125 978.268, 559.125 978.268, 569.125 978.268, 579.125 978.268, 589.125 978.268, 599.125 978.268, 609.125 978.268, 619.125 978.268, 629.125 978.268, 639.125 978.268, 649.125 978.268, 659.125 978.268, 669.125 978.268, 679.125 978.268, 689.125 978.268, 699.125 978.268, 709.125 978.268, 719.125 978.268, 729.125 978.268, 739.125 978.268, 749.125 978.268, 759.125 978.268, 769.125 978.268, 779.125 978.268, 789.125 978.268, 799.125 978.268, 810.537 " />
            <path fill="none" stroke-width="3.0" stroke-linecap="butt" stroke-opacity="1.0" stroke="rgb(0, 0, 0)" stroke-linejoin="round" d=" M 958.703, 344.923 958.703, 354.923 958.703, 364.923 958.703, 374.923 958.703, 384.923 958.703, 394.923 958.703, 404.923 958.703, 414.923 958.703, 424.923 958.703, 434.923 958.703, 444.923 958.703, 454.923 958.703, 464.923 958.703, 474.923 958.703, 484.923 958.703, 494.923 958.703, 504.923 958.703, 514.923 958.703, 524.923 958.703, 534.923 958.703, 544.923 958.703, 554.923 958.703, 564.923 958.703, 574.923 958.703, 584.923 958.703, 594.923 958.703, 604.923 958.703, 614.923 958.703, 624.923 958.703, 634.923 958.703, 644.923 958.703, 654.923 958.703, 664.923 958.703, 674.923 958.703, 684.923 958.703, 694.923 958.703, 704.923 958.703, 714.923 958.703, 724.923 958.703, 734.923 958.703, 744.923 958.703, 754.923 958.703, 764.923 958.703, 771.965 " />
            <path fill="none" stroke-width="3.0" stroke-linecap="butt" stroke-opacity="1.0" stroke="rgb(0, 0, 0)" stroke-linejoin="round" d=" M 958.703, 309.699 958.703, 319.699 958.703, 329.699 958.703, 339.699 958.703, 344.923 957.567, 354.858 956.430, 364.793 955.294, 374.729 954.157, 384.664 953.021, 394.599 951.921, 404.215 " />
            <path fill="none" stroke-width="3.0" stroke-linecap="butt" stroke-opacity="1.0" stroke="rgb(0, 0, 0)" stroke-linejoin="round" d=" M 951.921, 375.878 951.921, 385.878 951.921, 395.878 951.921, 404.215 951.921, 414.215 951.921, 424.215 951.921, 434.215 951.921, 444.215 951.921, 454.215 951.921, 464.215 951.921, 474.215 951.921, 484.215 951.921, 494.215 951.921, 504.215 951.921, 514.215 951.921, 524.215 951.921, 534.215 951.921, 544.215 951.921, 554.215 951.921, 564.215 951.921, 574.215 951.921, 584.215 951.921, 594.215 951.921, 604.215 951.921, 614.215 951.921, 624.215 951.921, 634.215 951.921, 644.215 951.921, 654.215 951.921, 664.215 951.921, 674.215 951.921, 684.215 951.921, 694.215 951.921, 705.786 " />
            <path fill="none" stroke-width="3.0" stroke-linecap="butt" stroke-opacity="1.0" stroke="rgb(0, 0, 0)" stroke-linejoin="round" d=" M 978.268, 309.125 978.268, 299.125 978.268, 289.125 978.268, 279.125 978.268, 271.127 " />
        </g>
    </g>
</svg>
