<?xml version="1.0" encoding="UTF-8" standalone="no"?>
<svg
   version="1.1"
   width="1920"
   height="1080"
   id="svg343"
   sodipodi:docname="paddle frame 9.svg"
   inkscape:version="1.2.1 (9c6d41e410, 2022-07-14)"
   xml:space="preserve"
   xmlns:inkscape="http://www.inkscape.org/namespaces/inkscape"
   xmlns:sodipodi="http://sodipodi.sourceforge.net/DTD/sodipodi-0.dtd"
   xmlns="http://www.w3.org/2000/svg"
   xmlns:svg="http://www.w3.org/2000/svg"><defs
     id="defs347" /><sodipodi:namedview
     id="namedview345"
     pagecolor="#ffffff"
     bordercolor="#000000"
     borderopacity="0.25"
     inkscape:showpageshadow="2"
     inkscape:pageopacity="0.0"
     inkscape:pagecheckerboard="0"
     inkscape:deskcolor="#d1d1d1"
     showgrid="false"
     inkscape:zoom="0.63020833"
     inkscape:cx="943.33884"
     inkscape:cy="541.09091"
     inkscape:window-width="1920"
     inkscape:window-height="1017"
     inkscape:window-x="1912"
     inkscape:window-y="-8"
     inkscape:window-maximized="1"
     inkscape:current-layer="svg343" /><g
     id="strokes"
     inkscape:label="strokes"
     transform="matrix(1,0,0,-1,-5.013,1080.832)"><path
       fill="none"
       stroke-width="3"
       stroke-linecap="butt"
       stroke-opacity="1"
       stroke="#000000"
       stroke-linejoin="round"
       d="m 920.83,576.852 v 10 8.293 l 2.094,9.779 2.095,9.778 2.094,9.778 2.095,9.778 2.094,9.779 2.152,10.048 3.364,9.418 3.364,9.417 3.363,9.417 3.364,9.418 3.364,9.417 1.648,4.614 1.019,9.948 1.02,9.948 1.019,9.948 1.02,9.948 1.019,9.948 1.02,9.948 0.665,6.491 4.524,8.919 4.523,8.918 4.524,8.918 4.523,8.919 1.471,2.898 0.715,9.975 0.715,9.974 0.714,9.975 0.715,9.974 0.715,9.974 0.715,9.975 0.715,9.974 0.68,9.487 2.095,9.778 2.094,9.779 2.094,9.778 2.095,9.778 2.094,9.778 2.152,10.049 7.138,-7.004 5.482,-5.381 v -10 -10 -10 -10 -10 -10 -10 -10 -10 -10 -10 -10 -10 -10 -10 -10 -10 -10 -10 -10 -10 -10 -10 -10 -10 -10 -10 -10 -10 -10 -10 -10 -10 -10 -10 -10 -10 -10 -10 -10 -10 -10 -10 -10 -10 -10 -10 -10 -10 -10 -10 -10 -10 -10 -10 -10 -10 -10 -10 -10 -10 -10 -10 -10 -10 -10 -10 -10 -10 -10 -10 -10 -10 -8.982 -10 -10 -10 -10 -10 -2.154 l -7.137,-7.004 -5.482,-5.381 -2.095,9.779 -2.094,9.778 -2.095,9.778 -2.094,9.778 -2.094,9.778 -2.153,10.049 -0.715,9.975 -0.715,9.974 -0.715,9.975 -0.714,9.974 -0.715,9.974 -0.715,9.975 -0.715,9.974 -0.68,9.487 -4.524,8.918 -4.523,8.919 -4.524,8.918 -4.523,8.919 -1.471,2.898 -1.019,9.948 -1.02,9.948 -1.019,9.948 -1.02,9.948 -1.019,9.948 -1.02,9.947 -0.665,6.492 -3.364,9.417 -3.364,9.418 -3.363,9.417 -3.364,9.417 -3.364,9.418 -1.648,4.614 -2.094,9.778 -2.094,9.778 -2.095,9.779 -2.094,9.778 -2.095,9.778 -2.152,10.049 v 10 10 10 10 10 10 10 10 10.333"
       id="path539" /><path
       fill="none"
       stroke-width="3"
       stroke-linecap="butt"
       stroke-opacity="1"
       stroke="#000000"
       stroke-linejoin="round"
       d="m 920.83,595.145 v -10 -10 -9.999 -10 -10 -10 -10 -10 -10.333 l 2.305,-9.731 2.305,-9.731 2.305,-9.731 2.305,-9.73 2.305,-9.731 1.099,-4.643 3.637,-9.315 3.637,-9.316 3.636,-9.315 3.637,-9.315 3.637,-9.315 0.283,-0.725"
       id="path541" /><path
       fill="none"
       stroke-width="3"
       stroke-linecap="butt"
       stroke-opacity="1"
       stroke="#000000"
       stroke-linejoin="round"
       d="m 920.83,504.813 v -10 -8.294"
       id="path543" /><path
       fill="none"
       stroke-width="3"
       stroke-linecap="butt"
       stroke-opacity="1"
       stroke="#000000"
       stroke-linejoin="round"
       d="m 983.952,191.819 v 10 10 10 10 6.511"
       id="path545" /><path
       fill="none"
       stroke-width="3"
       stroke-linecap="butt"
       stroke-opacity="1"
       stroke="#000000"
       stroke-linejoin="round"
       d="m 983.952,238.33 2.305,-9.731 2.305,-9.731 2.305,-9.731 2.305,-9.73 2.305,-9.731 1.1,-4.643"
       id="path547" /><path
       fill="none"
       stroke-width="3"
       stroke-linecap="butt"
       stroke-opacity="1"
       stroke="#000000"
       stroke-linejoin="round"
       d="m 1009.196,197.418 -7.137,-7.005 -5.482,-5.38 v -10 -10 -10 -10 -10 -2.154"
       id="path549" /><path
       fill="none"
       stroke-width="3"
       stroke-linecap="butt"
       stroke-opacity="1"
       stroke="#000000"
       stroke-linejoin="round"
       d="m 996.577,185.033 v 10 10 10 10 10 10 10 10 10 10 10 10 10 10 10 10 10 10 10 10 10 10 10 10 10 10 10 10 10 10 10 10 10 10 10 10 10 10 10 10 10 10 10 10 10 10 10 10 10 10 10 10 10 10 10 10 10 10 10 10 10 10 10 10 10 10 10 10 10 10 10 10 10 l -10e-4,10 v 10 13.752"
       id="path551" /><path
       fill="none"
       stroke-width="3"
       stroke-linecap="butt"
       stroke-opacity="1"
       stroke="#000000"
       stroke-linejoin="round"
       d="m 933.454,654.085 v -10 -10 -10 -10 -10 -10 -10 -10 -10 -10 -10 -10 -10 -10 -10 -10 -10 -10 -10 -10 -2.569 -10 -10 -3.937"
       id="path553" /><path
       fill="none"
       stroke-width="3"
       stroke-linecap="butt"
       stroke-opacity="1"
       stroke="#000000"
       stroke-linejoin="round"
       d="m 978.268,309.125 0.8,-9.968 0.801,-9.968 0.8,-9.968 0.8,-9.968 0.801,-9.968 0.8,-9.968 0.8,-9.968 0.082,-1.019 v 10 10 10 10 10 10 10 10 10 10 10 10 10 10 10 10 10 10 10 10 10 10 10 10 10 10 10 10 10 10 10 10 10 10 10 10 10 10 10 10 10 10 10 10 10 10 10 10 10 10 10 10 10 10 10 10 10 10 10 10 10 10 10 10 11.515"
       id="path555" /><path
       fill="none"
       stroke-width="3"
       stroke-linecap="butt"
       stroke-opacity="1"
       stroke="#000000"
       stroke-linejoin="round"
       d="m 958.703,344.923 4.796,-8.775 4.796,-8.775 4.796,-8.775 4.795,-8.775 0.382,-0.698 v 10 10 10 10 10 10 10 10 10 10 10 10 10 10 10 10 10 10 10 10 10 10 10 10 10 10 10 10 10 10 10 10 10 10 10 10 10 10 10 10 10 10 10 10 10 10 10 10 10 11.412"
       id="path557" /><path
       fill="none"
       stroke-width="3"
       stroke-linecap="butt"
       stroke-opacity="1"
       stroke="#000000"
       stroke-linejoin="round"
       d="m 958.703,344.923 v 10 10 10 10 10 10 10 10 10 10 10 10 10 10 10 10 10 10 10 10 10 10 10 10 10 10 10 10 10 10 10 10 10 10 10 10 10 10 10 10 10 10 7.042"
       id="path559" /><path
       fill="none"
       stroke-width="3"
       stroke-linecap="butt"
       stroke-opacity="1"
       stroke="#000000"
       stroke-linejoin="round"
       d="m 958.703,309.699 v 10 10 10 5.224 l -1.136,9.935 -1.137,9.935 -1.136,9.936 -1.137,9.935 -1.136,9.935 -1.1,9.616"
       id="path561" /><path
       fill="none"
       stroke-width="3"
       stroke-linecap="butt"
       stroke-opacity="1"
       stroke="#000000"
       stroke-linejoin="round"
       d="m 951.921,375.878 v 10 10 8.337 10 10 10 10 10 10 10 10 10 10 10 10 10 10 10 10 10 10 10 10 10 10 10 10 10 10 10 10 10 11.571"
       id="path563" /><path
       fill="none"
       stroke-width="3"
       stroke-linecap="butt"
       stroke-opacity="1"
       stroke="#000000"
       stroke-linejoin="round"
       d="m 978.268,309.125 v -10 -10 -10 -7.998"
       id="path565" /></g></svg>
