<?xml version='1.0' encoding='ascii'?>
<svg xmlns="http://www.w3.org/2000/svg" version="1.1" width="1920" height="1080">
    <g id="ViewLayer_LineSet" xmlns:inkscape="http://www.inkscape.org/namespaces/inkscape" inkscape:groupmode="lineset" inkscape:label="ViewLayer_LineSet">
        <g xmlns:inkscape="http://www.inkscape.org/namespaces/inkscape" inkscape:groupmode="layer" id="strokes" inkscape:label="strokes">
            <path fill="none" stroke-width="3.0" stroke-linecap="butt" stroke-opacity="1.0" stroke="rgb(0, 0, 0)" stroke-linejoin="round" d=" M 920.830, 552.332 920.830, 562.332 920.830, 572.332 920.830, 582.332 920.830, 584.018 924.037, 593.490 927.243, 602.962 930.450, 612.434 933.454, 621.305 938.407, 629.992 943.360, 638.680 948.313, 647.367 951.920, 653.695 953.508, 663.568 955.095, 673.441 956.683, 683.314 958.270, 693.188 958.703, 695.879 965.042, 703.614 971.381, 711.348 977.720, 719.082 978.267, 719.751 979.382, 729.688 980.496, 739.626 981.610, 749.564 982.724, 759.502 983.838, 769.439 983.952, 770.454 987.159, 779.926 990.366, 789.397 993.573, 798.869 996.576, 807.741 1005.277, 802.811 1009.195, 800.591 1009.195, 790.591 1009.195, 780.591 1009.195, 770.591 1009.195, 760.591 1009.195, 750.591 1009.195, 740.591 1009.195, 730.591 1009.195, 720.591 1009.195, 710.591 1009.195, 700.591 1009.195, 690.591 1009.195, 680.591 1009.195, 670.591 1009.195, 660.591 1009.195, 650.591 1009.195, 640.591 1009.195, 630.591 1009.195, 620.591 1009.195, 610.591 1009.195, 600.591 1009.195, 590.591 1009.195, 580.591 1009.195, 570.591 1009.195, 560.591 1009.195, 550.591 1009.195, 540.591 1009.195, 530.591 1009.195, 520.591 1009.195, 510.591 1009.195, 500.591 1009.195, 490.591 1009.195, 480.591 1009.195, 470.591 1009.195, 460.591 1009.195, 450.591 1009.195, 440.591 1009.195, 430.591 1009.195, 420.591 1009.195, 410.591 1009.195, 400.591 1009.195, 390.591 1009.195, 380.591 1009.195, 373.939 1009.195, 363.939 1009.195, 353.939 1009.195, 343.939 1009.195, 333.939 1009.195, 323.939 1009.195, 313.939 1009.195, 303.939 1009.195, 293.939 1009.195, 283.606 1000.495, 278.676 996.576, 276.456 993.369, 285.928 990.163, 295.399 986.956, 304.871 983.952, 313.743 982.838, 323.681 981.724, 333.618 980.610, 343.556 979.495, 353.494 978.381, 363.432 978.268, 364.446 971.929, 372.180 965.590, 379.915 959.251, 387.649 958.703, 388.317 957.116, 398.190 955.528, 408.064 953.941, 417.937 952.353, 427.810 951.921, 430.502 946.968, 439.189 942.015, 447.876 937.062, 456.564 933.454, 462.891 930.247, 472.363 927.040, 481.835 923.833, 491.307 920.830, 500.179 920.830, 510.179 920.830, 520.179 920.830, 530.179 920.830, 540.179 920.830, 550.179 920.830, 552.332 " />
            <path fill="none" stroke-width="3.0" stroke-linecap="butt" stroke-opacity="1.0" stroke="rgb(0, 0, 0)" stroke-linejoin="round" d=" M 920.830, 584.018 920.830, 574.018 920.830, 564.018 920.830, 554.018 920.830, 544.018 920.830, 534.018 920.830, 531.864 925.000, 522.776 929.171, 513.687 933.454, 504.352 939.431, 496.335 945.408, 488.317 951.385, 480.300 951.921, 479.583 " />
            <path fill="none" stroke-width="3.0" stroke-linecap="butt" stroke-opacity="1.0" stroke="rgb(0, 0, 0)" stroke-linejoin="round" d=" M 920.830, 531.864 920.830, 521.864 920.830, 511.864 920.830, 501.864 920.830, 500.179 " />
            <path fill="none" stroke-width="3.0" stroke-linecap="butt" stroke-opacity="1.0" stroke="rgb(0, 0, 0)" stroke-linejoin="round" d=" M 983.952, 313.743 983.952, 323.743 983.952, 333.743 983.952, 343.743 983.952, 353.743 983.952, 363.743 983.952, 373.743 983.952, 383.743 983.952, 394.301 " />
            <path fill="none" stroke-width="3.0" stroke-linecap="butt" stroke-opacity="1.0" stroke="rgb(0, 0, 0)" stroke-linejoin="round" d=" M 983.952, 394.301 988.122, 385.212 992.293, 376.123 996.576, 366.789 " />
            <path fill="none" stroke-width="3.0" stroke-linecap="butt" stroke-opacity="1.0" stroke="rgb(0, 0, 0)" stroke-linejoin="round" d=" M 1009.195, 373.939 1000.495, 369.009 996.576, 366.789 996.576, 356.789 996.576, 346.789 996.576, 336.789 996.576, 326.789 996.576, 316.789 996.576, 306.789 996.576, 296.789 996.576, 286.789 996.576, 276.456 " />
            <path fill="none" stroke-width="3.0" stroke-linecap="butt" stroke-opacity="1.0" stroke="rgb(0, 0, 0)" stroke-linejoin="round" d=" M 996.576, 366.789 996.576, 376.789 996.576, 386.789 996.576, 396.789 996.576, 406.789 996.576, 416.789 996.576, 426.789 996.576, 436.789 996.576, 446.789 996.576, 456.789 996.576, 466.789 996.576, 476.789 996.576, 486.789 996.576, 496.789 996.576, 506.789 996.576, 516.789 996.576, 526.789 996.576, 536.789 996.576, 546.789 996.576, 556.789 996.576, 566.789 996.576, 576.789 996.576, 586.789 996.576, 596.789 996.576, 606.789 996.576, 616.789 996.576, 626.789 996.576, 636.788 996.576, 646.789 996.576, 656.789 996.576, 666.789 996.576, 676.788 996.576, 686.789 996.576, 696.789 996.576, 706.789 996.576, 716.789 996.576, 726.789 996.576, 736.789 996.576, 746.789 996.576, 756.789 996.576, 766.789 996.576, 776.789 996.576, 786.789 996.576, 796.789 996.576, 807.741 " />
            <path fill="none" stroke-width="3.0" stroke-linecap="butt" stroke-opacity="1.0" stroke="rgb(0, 0, 0)" stroke-linejoin="round" d=" M 933.454, 621.305 933.454, 611.305 933.454, 601.305 933.454, 591.305 933.454, 581.305 933.454, 571.305 933.454, 561.305 933.454, 551.305 933.454, 541.305 933.454, 531.305 933.454, 521.305 933.454, 511.305 933.454, 504.352 933.454, 494.352 933.454, 484.352 933.454, 474.352 933.454, 464.352 933.454, 462.891 " />
            <path fill="none" stroke-width="3.0" stroke-linecap="butt" stroke-opacity="1.0" stroke="rgb(0, 0, 0)" stroke-linejoin="round" d=" M 978.268, 430.260 979.829, 420.382 981.390, 410.505 982.952, 400.628 983.952, 394.301 983.952, 404.301 983.952, 414.301 983.952, 424.301 983.952, 434.301 983.952, 444.301 983.952, 454.301 983.952, 464.301 983.952, 474.301 983.952, 484.301 983.952, 494.301 983.952, 504.301 983.952, 514.301 983.952, 524.301 983.952, 534.301 983.952, 544.301 983.952, 554.301 983.952, 564.301 983.952, 574.301 983.952, 584.301 983.952, 594.301 983.952, 604.301 983.952, 614.301 983.952, 624.301 983.952, 634.301 983.952, 644.301 983.952, 654.301 983.952, 664.301 983.952, 674.301 983.952, 684.301 983.952, 694.301 983.952, 704.301 983.952, 714.301 983.952, 724.301 983.952, 734.301 983.952, 744.301 983.952, 754.301 983.952, 764.301 983.952, 770.454 " />
            <path fill="none" stroke-width="3.0" stroke-linecap="butt" stroke-opacity="1.0" stroke="rgb(0, 0, 0)" stroke-linejoin="round" d=" M 958.703, 449.326 965.865, 442.347 973.026, 435.368 978.268, 430.260 978.268, 440.260 978.268, 450.260 978.268, 460.260 978.268, 470.260 978.268, 480.260 978.268, 490.260 978.268, 500.260 978.268, 510.260 978.268, 520.260 978.268, 530.260 978.268, 540.260 978.268, 550.260 978.268, 560.260 978.268, 570.260 978.268, 580.260 978.268, 590.260 978.268, 600.260 978.268, 610.260 978.268, 620.260 978.267, 630.260 978.267, 640.260 978.267, 650.260 978.267, 660.260 978.267, 670.260 978.267, 680.260 978.267, 690.260 978.267, 700.260 978.267, 710.260 978.267, 719.751 " />
            <path fill="none" stroke-width="3.0" stroke-linecap="butt" stroke-opacity="1.0" stroke="rgb(0, 0, 0)" stroke-linejoin="round" d=" M 958.703, 449.326 958.703, 459.326 958.703, 469.326 958.703, 479.326 958.703, 489.326 958.703, 499.326 958.703, 509.326 958.703, 519.326 958.703, 529.326 958.703, 539.326 958.703, 549.326 958.703, 559.326 958.703, 569.326 958.703, 579.326 958.703, 589.326 958.703, 599.326 958.703, 609.326 958.703, 619.326 958.703, 629.326 958.703, 639.326 958.703, 649.326 958.703, 659.326 958.703, 669.326 958.703, 679.326 958.703, 689.326 958.703, 695.879 " />
            <path fill="none" stroke-width="3.0" stroke-linecap="butt" stroke-opacity="1.0" stroke="rgb(0, 0, 0)" stroke-linejoin="round" d=" M 958.703, 388.317 958.703, 398.317 958.703, 408.317 958.703, 418.317 958.703, 428.317 958.703, 438.317 958.703, 448.317 958.703, 449.326 956.516, 459.084 954.328, 468.842 952.141, 478.600 951.921, 479.583 " />
            <path fill="none" stroke-width="3.0" stroke-linecap="butt" stroke-opacity="1.0" stroke="rgb(0, 0, 0)" stroke-linejoin="round" d=" M 951.921, 430.502 951.921, 440.502 951.921, 450.502 951.921, 460.502 951.921, 470.502 951.921, 479.583 951.921, 489.583 951.920, 499.583 951.920, 509.583 951.920, 519.583 951.920, 529.583 951.920, 539.583 951.920, 549.583 951.920, 559.583 951.920, 569.583 951.920, 579.583 951.920, 589.583 951.920, 599.583 951.920, 609.583 951.920, 619.583 951.920, 629.583 951.920, 639.583 951.920, 649.583 951.920, 653.695 " />
            <path fill="none" stroke-width="3.0" stroke-linecap="butt" stroke-opacity="1.0" stroke="rgb(0, 0, 0)" stroke-linejoin="round" d=" M 978.268, 430.260 978.268, 420.260 978.268, 410.260 978.268, 400.260 978.268, 390.260 978.268, 380.260 978.268, 370.260 978.268, 364.446 " />
        </g>
    </g>
</svg>
