<?xml version="1.0" encoding="UTF-8" standalone="no"?>
<svg
   version="1.1"
   width="1920"
   height="1080"
   id="svg343"
   sodipodi:docname="paddle frame 8.svg"
   inkscape:version="1.2.1 (9c6d41e410, 2022-07-14)"
   xmlns:inkscape="http://www.inkscape.org/namespaces/inkscape"
   xmlns:sodipodi="http://sodipodi.sourceforge.net/DTD/sodipodi-0.dtd"
   xmlns="http://www.w3.org/2000/svg"
   xmlns:svg="http://www.w3.org/2000/svg">
  <defs
     id="defs347" />
  <sodipodi:namedview
     id="namedview345"
     pagecolor="#ffffff"
     bordercolor="#000000"
     borderopacity="0.25"
     inkscape:showpageshadow="2"
     inkscape:pageopacity="0.0"
     inkscape:pagecheckerboard="0"
     inkscape:deskcolor="#d1d1d1"
     showgrid="false"
     inkscape:zoom="0.63020833"
     inkscape:cx="759.27273"
     inkscape:cy="541.09091"
     inkscape:window-width="1920"
     inkscape:window-height="1017"
     inkscape:window-x="1912"
     inkscape:window-y="-8"
     inkscape:window-maximized="1"
     inkscape:current-layer="svg343" />
  <g
     id="ViewLayer_LineSet"
     inkscape:label="ViewLayer_LineSet"
     transform="matrix(1,0,0,-1,0,1080.182)">
    <g
       inkscape:groupmode="layer"
       id="strokes"
       inkscape:label="strokes">
      <path
         fill="none"
         stroke-width="3"
         stroke-linecap="butt"
         stroke-opacity="1"
         stroke="#000000"
         stroke-linejoin="round"
         d="m 920.83,585.733 v 9.469 l 1.934,9.812 1.934,9.811 1.933,9.811 1.934,9.811 1.934,9.812 1.934,9.811 1.022,5.185 3.114,9.502 3.114,9.503 3.114,9.503 3.114,9.503 3.114,9.502 2.896,8.837 0.941,9.955 0.941,9.956 0.941,9.955 0.941,9.956 0.941,9.956 0.941,9.955 0.941,9.956 0.195,2.065 4.207,9.073 4.207,9.072 4.206,9.072 4.207,9.072 2.738,5.904 0.66,9.978 0.66,9.978 0.661,9.979 0.66,9.978 0.66,9.978 0.66,9.978 0.66,9.978 0.66,9.979 0.403,6.086 1.934,9.811 1.934,9.812 1.934,9.811 1.933,9.811 1.934,9.811 1.934,9.812 1.022,5.185 6.744,-7.383 5.875,-6.431 v -10 -10 -10 -10 -10 -10 -10 -10 -10 -10 -10 -10 -10 -10 -10 -10 -10 -10 -10 -10 -10 -10 -10 -10 -10 -10 -10 -10 -10 -10 -10 -10 -10 -10 -10 -10 -10 -10 -10 -10 -10 -10 -10 -10 -10 -10 -10 -10 -10 -10 -10 -10 -10 -10 -10 -10 -10 -10 -10 -10 -10 -10 -10 -10 -10 -10 -10 -10 -10 -10 -10 -10 -10 -10 -10 -10 -10 -10 -10 -10 -10 -14.228 -10 -10 -6.996 l -6.745,-7.383 -5.874,-6.431 -1.934,9.812 -1.934,9.811 -1.933,9.811 -1.934,9.811 -1.934,9.811 -1.934,9.812 -1.022,5.185 -0.66,9.978 -0.66,9.978 -0.66,9.978 -0.66,9.978 -0.661,9.979 -0.66,9.978 -0.66,9.978 -0.66,9.978 -0.403,6.087 -4.207,9.072 -4.206,9.072 -4.207,9.072 -4.207,9.072 -2.738,5.904 -0.941,9.956 -0.941,9.956 -0.941,9.955 -0.941,9.956 -0.941,9.956 -0.941,9.955 -0.941,9.956 -0.195,2.065 -3.114,9.503 -3.114,9.503 -3.114,9.503 -3.115,9.502 -3.114,9.503 -2.895,8.836 -1.934,9.811 -1.934,9.812 -1.934,9.811 -1.933,9.811 -1.934,9.811 -1.934,9.812 -1.022,5.185 v 10 10 10 10 10 10 10 10 10 10.753"
         id="path313" />
      <path
         fill="none"
         stroke-width="3"
         stroke-linecap="butt"
         stroke-opacity="1"
         stroke="#000000"
         stroke-linejoin="round"
         d="m 920.83,595.202 v -10 -10 -10 -10 -10 -10 -10 -10 -10 -10.753 l 2.023,-9.793 2.022,-9.794 2.023,-9.793 2.022,-9.793 2.022,-9.794 2.023,-9.793 0.49,-2.371 3.231,-9.463 3.232,-9.464 3.232,-9.463 3.232,-9.464 3.232,-9.463 2.307,-6.756"
         id="path315" />
      <path
         fill="none"
         stroke-width="3"
         stroke-linecap="butt"
         stroke-opacity="1"
         stroke="#000000"
         stroke-linejoin="round"
         d="M 920.83,494.449 V 484.98"
         id="path317" />
      <path
         fill="none"
         stroke-width="3"
         stroke-linecap="butt"
         stroke-opacity="1"
         stroke="#000000"
         stroke-linejoin="round"
         d="m 983.952,164.718 v 10 10 4.075"
         id="path319" />
      <path
         fill="none"
         stroke-width="3"
         stroke-linecap="butt"
         stroke-opacity="1"
         stroke="#000000"
         stroke-linejoin="round"
         d="m 983.952,188.793 2.023,-9.793 2.022,-9.794 2.023,-9.793 2.022,-9.793 2.023,-9.794 2.022,-9.793 0.49,-2.371"
         id="path321" />
      <path
         fill="none"
         stroke-width="3"
         stroke-linecap="butt"
         stroke-opacity="1"
         stroke="#000000"
         stroke-linejoin="round"
         d="m 1009.196,141.475 -6.745,-7.383 -5.874,-6.43 v -10 -10 -6.997"
         id="path323" />
      <path
         fill="none"
         stroke-width="3"
         stroke-linecap="butt"
         stroke-opacity="1"
         stroke="#000000"
         stroke-linejoin="round"
         d="m 996.577,127.662 v 10 10 10 10 10 10 10 10 10 10 10 10 10 10 10 10 10 10 10 10 10 10 10 10 10 10 10 10 10 10 10 10 10 10 10 10 10 10 10 10 10 10 10 10 10 10 10 10 10 10 10 10 10 10 10 10 10 10 10 10 10 10 10 10 10 10 10 10 10 10 10 10 10 10 10 10 10 10 10 10 10 10 10 10 11.855"
         id="path325" />
      <path
         fill="none"
         stroke-width="3"
         stroke-linecap="butt"
         stroke-opacity="1"
         stroke="#000000"
         stroke-linejoin="round"
         d="m 933.455,659.255 v -10 -10 -10 -10 -10 -10 -10 -10 -10 -10 -10 -10 -10 -10 -10 -10 -10 -10 -10 -10 -10 -10 -5.937 -10 -2.391"
         id="path327" />
      <path
         fill="none"
         stroke-width="3"
         stroke-linecap="butt"
         stroke-opacity="1"
         stroke="#000000"
         stroke-linejoin="round"
         d="m 978.268,270.299 0.696,-9.976 0.695,-9.976 0.696,-9.976 0.696,-9.975 0.696,-9.976 0.695,-9.976 0.696,-9.976 0.696,-9.975 0.118,-1.7 v 10 10 10 10 10 10 10 10 10 10 10 10 10 10 10 10 10 10 10 10 10 10 10 10 10 10 10 10 10 10 10 10 10 10 10 10 10 10 10 10 10 10 10 10 10 10 10 10 10 10 10 10 10 10 10 10 10 10 10 10 10 10 10 10 10 10 10 10 10 10 10 16.671"
         id="path329" />
      <path
         fill="none"
         stroke-width="3"
         stroke-linecap="butt"
         stroke-opacity="1"
         stroke="#000000"
         stroke-linejoin="round"
         d="m 958.703,311.056 4.328,-9.016 4.328,-9.015 4.327,-9.015 4.328,-9.015 2.254,-4.696 v 10 10 10 10 10 10 10 10 10 10 10 10 10 10 10 10 10 10 10 10 10 10 10 10 10 10 10 10 10 10 10 10 10 10 10 10 10 10 10 10 10 10 10 10 10 10 10 10 10 10 10 10 10 10 10 9.253"
         id="path331" />
      <path
         fill="none"
         stroke-width="3"
         stroke-linecap="butt"
         stroke-opacity="1"
         stroke="#000000"
         stroke-linejoin="round"
         d="m 958.703,311.056 v 10 10 10 10 10 10 10 10 10 10 10 10 10 10 10 10 10 10 10 10 10 10 10 10 10 10 10 10 10 10 10 10 10 10 10 10 10 10 10 10 10 10 10 10 10 10 10 6.303"
         id="path333" />
      <path
         fill="none"
         stroke-width="3"
         stroke-linecap="butt"
         stroke-opacity="1"
         stroke="#000000"
         stroke-linejoin="round"
         d="m 958.703,292.822 v 10 8.234 l -0.989,9.95 -0.99,9.951 -0.99,9.951 -0.99,9.951 -0.989,9.951 -0.99,9.951 -0.844,8.484"
         id="path335" />
      <path
         fill="none"
         stroke-width="3"
         stroke-linecap="butt"
         stroke-opacity="1"
         stroke="#000000"
         stroke-linejoin="round"
         d="m 951.921,364.577 v 10 4.668 10 10 10 10 10 10 10 10 10 10 10 10 10 10 10 10 10 10 10 10 10 10 10 10 10 10 10 10 10 10 10 10 10 6.36"
         id="path337" />
      <path
         fill="none"
         stroke-width="3"
         stroke-linecap="butt"
         stroke-opacity="1"
         stroke="#000000"
         stroke-linejoin="round"
         d="m 978.268,270.299 v -10 -9.669"
         id="path339" />
    </g>
  </g>
</svg>
