<?xml version="1.0" encoding="UTF-8" standalone="no"?>
<svg
   version="1.1"
   width="1920"
   height="1080"
   id="svg343"
   sodipodi:docname="paddle frame 11.svg"
   inkscape:version="1.2.1 (9c6d41e410, 2022-07-14)"
   xml:space="preserve"
   xmlns:inkscape="http://www.inkscape.org/namespaces/inkscape"
   xmlns:sodipodi="http://sodipodi.sourceforge.net/DTD/sodipodi-0.dtd"
   xmlns="http://www.w3.org/2000/svg"
   xmlns:svg="http://www.w3.org/2000/svg"><defs
     id="defs347" /><sodipodi:namedview
     id="namedview345"
     pagecolor="#ffffff"
     bordercolor="#000000"
     borderopacity="0.25"
     inkscape:showpageshadow="2"
     inkscape:pageopacity="0.0"
     inkscape:pagecheckerboard="0"
     inkscape:deskcolor="#d1d1d1"
     showgrid="false"
     inkscape:zoom="0.63020833"
     inkscape:cx="943.33884"
     inkscape:cy="541.09091"
     inkscape:window-width="1920"
     inkscape:window-height="1017"
     inkscape:window-x="1912"
     inkscape:window-y="-8"
     inkscape:window-maximized="1"
     inkscape:current-layer="svg343" /><g
     id="strokes"
     inkscape:label="strokes"
     transform="matrix(1,0,0,-1,-5.0125,1082.0985)"><path
       fill="none"
       stroke-width="3"
       stroke-linecap="butt"
       stroke-opacity="1"
       stroke="#000000"
       stroke-linejoin="round"
       d="m 920.83,552.332 v 10 10 10 1.686 l 3.207,9.472 3.206,9.472 3.207,9.472 3.004,8.871 4.953,8.687 4.953,8.688 4.953,8.687 3.607,6.328 1.588,9.873 1.587,9.873 1.588,9.873 1.587,9.874 0.433,2.691 6.339,7.735 6.339,7.734 6.339,7.734 0.547,0.669 1.115,9.937 1.114,9.938 1.114,9.938 1.114,9.938 1.114,9.937 0.114,1.015 3.207,9.472 3.207,9.471 3.207,9.472 3.003,8.872 8.701,-4.93 3.918,-2.22 v -10 -10 -10 -10 -10 -10 -10 -10 -10 -10 -10 -10 -10 -10 -10 -10 -10 -10 -10 -10 -10 -10 -10 -10 -10 -10 -10 -10 -10 -10 -10 -10 -10 -10 -10 -10 -10 -10 -10 -10 -10 -10 -6.652 -10 -10 -10 -10 -10 -10 -10 -10 -10.333 l -8.7,-4.93 -3.919,-2.22 -3.207,9.472 -3.206,9.471 -3.207,9.472 -3.004,8.872 -1.114,9.938 -1.114,9.937 -1.114,9.938 -1.115,9.938 -1.114,9.938 -0.113,1.014 -6.339,7.734 -6.339,7.735 -6.339,7.734 -0.548,0.668 -1.587,9.873 -1.588,9.874 -1.587,9.873 -1.588,9.873 -0.432,2.692 -4.953,8.687 -4.953,8.687 -4.953,8.688 -3.608,6.327 -3.207,9.472 -3.207,9.472 -3.207,9.472 -3.003,8.872 v 10 10 10 10 10 2.153"
       id="path1261" /><path
       fill="none"
       stroke-width="3"
       stroke-linecap="butt"
       stroke-opacity="1"
       stroke="#000000"
       stroke-linejoin="round"
       d="m 920.83,584.018 v -10 -10 -10 -10 -10 -2.154 l 4.17,-9.088 4.171,-9.089 4.283,-9.335 5.977,-8.017 5.977,-8.018 5.977,-8.017 0.536,-0.717"
       id="path1263" /><path
       fill="none"
       stroke-width="3"
       stroke-linecap="butt"
       stroke-opacity="1"
       stroke="#000000"
       stroke-linejoin="round"
       d="m 920.83,531.864 v -10 -10 -10 -1.685"
       id="path1265" /><path
       fill="none"
       stroke-width="3"
       stroke-linecap="butt"
       stroke-opacity="1"
       stroke="#000000"
       stroke-linejoin="round"
       d="m 983.952,313.743 v 10 10 10 10 10 10 10 10.558"
       id="path1267" /><path
       fill="none"
       stroke-width="3"
       stroke-linecap="butt"
       stroke-opacity="1"
       stroke="#000000"
       stroke-linejoin="round"
       d="m 983.952,394.301 4.17,-9.089 4.171,-9.089 4.283,-9.334"
       id="path1269" /><path
       fill="none"
       stroke-width="3"
       stroke-linecap="butt"
       stroke-opacity="1"
       stroke="#000000"
       stroke-linejoin="round"
       d="m 1009.195,373.939 -8.7,-4.93 -3.919,-2.22 v -10 -10 -10 -10 -10 -10 -10 -10 -10.333"
       id="path1271" /><path
       fill="none"
       stroke-width="3"
       stroke-linecap="butt"
       stroke-opacity="1"
       stroke="#000000"
       stroke-linejoin="round"
       d="m 996.576,366.789 v 10 10 10 10 10 10 10 10 10 10 10 10 10 10 10 10 10 10 10 10 10 10 10 10 10 10 9.999 10.001 10 10 9.999 10.001 10 10 10 10 10 10 10 10 10 10 10 10.952"
       id="path1273" /><path
       fill="none"
       stroke-width="3"
       stroke-linecap="butt"
       stroke-opacity="1"
       stroke="#000000"
       stroke-linejoin="round"
       d="m 933.454,621.305 v -10 -10 -10 -10 -10 -10 -10 -10 -10 -10 -10 -6.953 -10 -10 -10 -10 -1.461"
       id="path1275" /><path
       fill="none"
       stroke-width="3"
       stroke-linecap="butt"
       stroke-opacity="1"
       stroke="#000000"
       stroke-linejoin="round"
       d="m 978.268,430.26 1.561,-9.878 1.561,-9.877 1.562,-9.877 1,-6.327 v 10 10 10 10 10 10 10 10 10 10 10 10 10 10 10 10 10 10 10 10 10 10 10 10 10 10 10 10 10 10 10 10 10 10 10 10 10 6.153"
       id="path1277" /><path
       fill="none"
       stroke-width="3"
       stroke-linecap="butt"
       stroke-opacity="1"
       stroke="#000000"
       stroke-linejoin="round"
       d="m 958.703,449.326 7.162,-6.979 7.161,-6.979 5.242,-5.108 v 10 10 10 10 10 10 10 10 10 10 10 10 10 10 10 10 10 10 10 l -10e-4,10 v 10 10 10 10 10 10 10 10 9.491"
       id="path1279" /><path
       fill="none"
       stroke-width="3"
       stroke-linecap="butt"
       stroke-opacity="1"
       stroke="#000000"
       stroke-linejoin="round"
       d="m 958.703,449.326 v 10 10 10 10 10 10 10 10 10 10 10 10 10 10 10 10 10 10 10 10 10 10 10 10 6.553"
       id="path1281" /><path
       fill="none"
       stroke-width="3"
       stroke-linecap="butt"
       stroke-opacity="1"
       stroke="#000000"
       stroke-linejoin="round"
       d="m 958.703,388.317 v 10 10 10 10 10 10 1.009 l -2.187,9.758 -2.188,9.758 -2.187,9.758 -0.22,0.983"
       id="path1283" /><path
       fill="none"
       stroke-width="3"
       stroke-linecap="butt"
       stroke-opacity="1"
       stroke="#000000"
       stroke-linejoin="round"
       d="m 951.921,430.502 v 10 10 10 10 9.081 10 l -0.001,10 v 10 10 10 10 10 10 10 10 10 10 10 10 10 10 10 4.112"
       id="path1285" /><path
       fill="none"
       stroke-width="3"
       stroke-linecap="butt"
       stroke-opacity="1"
       stroke="#000000"
       stroke-linejoin="round"
       d="m 978.268,430.26 v -10 -10 -10 -10 -10 -10 -5.814"
       id="path1287" /></g></svg>
