<?xml version="1.0" encoding="UTF-8" standalone="no"?>
<svg
   version="1.1"
   width="1920"
   height="1080"
   id="svg343"
   sodipodi:docname="paddle frame 10.svg"
   inkscape:version="1.2.1 (9c6d41e410, 2022-07-14)"
   xml:space="preserve"
   xmlns:inkscape="http://www.inkscape.org/namespaces/inkscape"
   xmlns:sodipodi="http://sodipodi.sourceforge.net/DTD/sodipodi-0.dtd"
   xmlns="http://www.w3.org/2000/svg"
   xmlns:svg="http://www.w3.org/2000/svg"><defs
     id="defs347" /><sodipodi:namedview
     id="namedview345"
     pagecolor="#ffffff"
     bordercolor="#000000"
     borderopacity="0.25"
     inkscape:showpageshadow="2"
     inkscape:pageopacity="0.0"
     inkscape:pagecheckerboard="0"
     inkscape:deskcolor="#d1d1d1"
     showgrid="false"
     inkscape:zoom="0.63020833"
     inkscape:cx="943.33884"
     inkscape:cy="541.09091"
     inkscape:window-width="1920"
     inkscape:window-height="1017"
     inkscape:window-x="1912"
     inkscape:window-y="-8"
     inkscape:window-maximized="1"
     inkscape:current-layer="svg343" /><g
     id="strokes"
     inkscape:label="strokes"
     transform="matrix(1,0,0,-1,-5.013,1081.5165)"><path
       fill="none"
       stroke-width="3"
       stroke-linecap="butt"
       stroke-opacity="1"
       stroke="#000000"
       stroke-linejoin="round"
       d="m 920.83,565.459 v 10 10 5.872 l 2.457,9.693 2.456,9.694 2.457,9.693 2.457,9.694 2.457,9.693 0.34,1.343 3.906,9.206 3.905,9.206 3.906,9.206 3.905,9.206 2.845,6.705 1.2,9.928 1.2,9.927 1.201,9.928 1.2,9.928 1.201,9.927 0.78,6.455 5.178,8.555 5.178,8.555 5.178,8.555 4.031,6.658 0.841,9.965 0.842,9.964 0.842,9.965 0.841,9.964 0.842,9.965 0.841,9.964 0.635,7.512 2.457,9.693 2.456,9.694 2.457,9.693 2.457,9.694 2.457,9.693 0.34,1.343 7.804,-6.253 4.815,-3.859 v -10 -10 -10 -10 -10 -10 -10 -10 -10 -10 -10 -10 -10 -10 -10 -10 -10 -10 -10 -10 -10 -10 -10 -10 -10 -10 -10 -10 -10 -10 -10 -10 -10 -10 -10 -10 -10 -10 -10 -10 -10 -10 -10 -10 -10 -10 -10 -10 -10 -10 -10 -10 -10 -10 -10 l 10e-4,-10 v -10 -10 -10 -13.376 -10 -10 -10 -10 -10 -10 -10 -3.757 l -7.804,-6.253 -4.816,-3.859 -2.456,9.694 -2.457,9.693 -2.457,9.694 -2.457,9.693 -2.457,9.694 -0.34,1.343 -0.842,9.964 -0.841,9.965 -0.842,9.964 -0.842,9.965 -0.841,9.965 -0.842,9.964 -0.634,7.512 -5.178,8.555 -5.179,8.554 -5.178,8.555 -4.03,6.659 -1.2,9.927 -1.201,9.928 -1.2,9.928 -1.201,9.927 -1.2,9.928 -0.78,6.455 -3.906,9.206 -3.905,9.205 -3.906,9.206 -3.905,9.206 -2.845,6.705 -2.457,9.694 -2.456,9.693 -2.457,9.694 -2.457,9.693 -2.457,9.694 -0.34,1.343 v 10 10 10 10 10 10 10 3.756"
       id="path1177" /><path
       fill="none"
       stroke-width="3"
       stroke-linecap="butt"
       stroke-opacity="1"
       stroke="#000000"
       stroke-linejoin="round"
       d="m 920.83,591.331 v -10 -10 -10 -10 -10 -10 -10 -3.757 l 2.889,-9.573 2.889,-9.574 2.89,-9.573 2.889,-9.574 1.067,-3.536 4.436,-8.962 4.437,-8.962 4.436,-8.962 4.436,-8.962 0.722,-1.458"
       id="path1179" /><path
       fill="none"
       stroke-width="3"
       stroke-linecap="butt"
       stroke-opacity="1"
       stroke="#000000"
       stroke-linejoin="round"
       d="m 920.83,517.574 v -10 -10 -5.871"
       id="path1181" /><path
       fill="none"
       stroke-width="3"
       stroke-linecap="butt"
       stroke-opacity="1"
       stroke="#000000"
       stroke-linejoin="round"
       d="m 983.952,242.649 v 10 10 10 10 10 10 5.775"
       id="path1183" /><path
       fill="none"
       stroke-width="3"
       stroke-linecap="butt"
       stroke-opacity="1"
       stroke="#000000"
       stroke-linejoin="round"
       d="m 983.952,308.424 2.889,-9.573 2.89,-9.573 2.889,-9.574 2.889,-9.574 1.067,-3.535"
       id="path1185" /><path
       fill="none"
       stroke-width="3"
       stroke-linecap="butt"
       stroke-opacity="1"
       stroke="#000000"
       stroke-linejoin="round"
       d="m 1009.196,276.707 -7.804,-6.254 -4.816,-3.858 v -10 -10 -10 -10 -10 -10 -10 -3.757"
       id="path1187" /><path
       fill="none"
       stroke-width="3"
       stroke-linecap="butt"
       stroke-opacity="1"
       stroke="#000000"
       stroke-linejoin="round"
       d="m 996.576,266.595 v 10 10 10 10 10 10 10 10 10 10 10 10 10 10 10 10 10 10 10 10 10 10 10 10 10 10 10 10 10 10 10 10 10 10 10 10 10 10 10 10 10 10 10 10 10 10 10 10 10 10 10 10 10 10 10 10 10 10 10 10 10 13.6"
       id="path1189" /><path
       fill="none"
       stroke-width="3"
       stroke-linecap="butt"
       stroke-opacity="1"
       stroke="#000000"
       stroke-linejoin="round"
       d="m 933.454,641.141 v -10 -10 -10 -10 -10 -10 -10 -10 -10 -10 -10 -10 -10 -10 -10 -10 -5.397 -10 -10 -10 -3.852"
       id="path1191" /><path
       fill="none"
       stroke-width="3"
       stroke-linecap="butt"
       stroke-opacity="1"
       stroke="#000000"
       stroke-linejoin="round"
       d="m 978.268,363.684 1.023,-9.947 1.023,-9.948 1.023,-9.947 1.024,-9.948 1.023,-9.947 0.568,-5.523 v 10 10 10 10 10 10 10 10 10 10 10 10 10 10 10 10 10 10 10 10 10 10 10 10 10 10 10 10 10 10 10.001 10 9.999 10 10 10 10.001 10 9.999 10 10 10.001 10 10 9.999 10 10 10.001 10 10 9.999 10.001 11.96"
       id="path1193" /><path
       fill="none"
       stroke-width="3"
       stroke-linecap="butt"
       stroke-opacity="1"
       stroke="#000000"
       stroke-linejoin="round"
       d="m 958.703,392.084 5.673,-8.235 5.673,-8.235 5.673,-8.235 2.546,-3.695 v 10 10 10 10 10 10 10 10 10 10 10 10 10 10 10 10 10 10 10 10 10 10 10 10 10 10 10 10 10 10 10 10 10 10 10 10 10 10 10 10 9.402"
       id="path1195" /><path
       fill="none"
       stroke-width="3"
       stroke-linecap="butt"
       stroke-opacity="1"
       stroke="#000000"
       stroke-linejoin="round"
       d="m 958.703,392.084 v 10 10 10 10 10 10 10 10 10 10 10 10 10 10 10 10 10 10 10 10 10 10 10 10 10 10 10 10 10 10 10 10 10 10 8.679"
       id="path1197" /><path
       fill="none"
       stroke-width="3"
       stroke-linecap="butt"
       stroke-opacity="1"
       stroke="#000000"
       stroke-linejoin="round"
       d="m 958.703,342.271 v 10 10 10 10 9.813 l -1.448,9.895 -1.447,9.895 -1.448,9.894 -1.448,9.895 -0.991,6.775"
       id="path1199" /><path
       fill="none"
       stroke-width="3"
       stroke-linecap="butt"
       stroke-opacity="1"
       stroke="#000000"
       stroke-linejoin="round"
       d="m 951.921,398.364 v 10 10 10 10.074 10 10 10 10 10 10 10 10 10 10 10 10 10 10 10 10 10 10 10 10 10 10 10 10 6.232"
       id="path1201" /><path
       fill="none"
       stroke-width="3"
       stroke-linecap="butt"
       stroke-opacity="1"
       stroke="#000000"
       stroke-linejoin="round"
       d="m 978.268,363.684 v -10 -10 -10 -10 -10 -3.736"
       id="path1203" /></g></svg>
