<?xml version='1.0' encoding='ascii'?>
<svg xmlns="http://www.w3.org/2000/svg" version="1.1" width="1920" height="1080">
    <g id="ViewLayer_LineSet" xmlns:inkscape="http://www.inkscape.org/namespaces/inkscape" inkscape:groupmode="lineset" inkscape:label="ViewLayer_LineSet">
        <g xmlns:inkscape="http://www.inkscape.org/namespaces/inkscape" inkscape:groupmode="layer" id="strokes" inkscape:label="strokes">
            <path fill="none" stroke-width="3.0" stroke-linecap="butt" stroke-opacity="1.0" stroke="rgb(0, 0, 0)" stroke-linejoin="round" d=" M 920.830, 585.733 920.830, 595.202 922.764, 605.014 924.698, 614.825 926.631, 624.636 928.565, 634.447 930.499, 644.259 932.433, 654.070 933.455, 659.255 936.569, 668.757 939.683, 678.260 942.797, 687.763 945.911, 697.266 949.025, 706.768 951.921, 715.605 952.862, 725.560 953.803, 735.516 954.744, 745.471 955.685, 755.427 956.626, 765.383 957.567, 775.338 958.508, 785.294 958.703, 787.359 962.910, 796.432 967.117, 805.504 971.323, 814.576 975.530, 823.648 978.268, 829.552 978.928, 839.530 979.588, 849.508 980.249, 859.487 980.909, 869.465 981.569, 879.443 982.229, 889.421 982.889, 899.399 983.549, 909.378 983.952, 915.464 985.886, 925.275 987.820, 935.087 989.754, 944.898 991.687, 954.709 993.621, 964.520 995.555, 974.332 996.577, 979.517 1003.321, 972.134 1009.196, 965.703 1009.196, 955.703 1009.196, 945.703 1009.196, 935.703 1009.196, 925.703 1009.196, 915.703 1009.196, 905.703 1009.196, 895.703 1009.196, 885.703 1009.196, 875.703 1009.196, 865.703 1009.196, 855.703 1009.196, 845.703 1009.196, 835.703 1009.196, 825.703 1009.196, 815.703 1009.196, 805.703 1009.196, 795.703 1009.196, 785.703 1009.196, 775.703 1009.196, 765.703 1009.196, 755.703 1009.196, 745.703 1009.196, 735.703 1009.196, 725.703 1009.196, 715.703 1009.196, 705.703 1009.196, 695.703 1009.196, 685.703 1009.196, 675.703 1009.196, 665.703 1009.196, 655.703 1009.196, 645.703 1009.196, 635.703 1009.196, 625.703 1009.196, 615.703 1009.196, 605.703 1009.196, 595.703 1009.196, 585.703 1009.196, 575.703 1009.196, 565.703 1009.196, 555.703 1009.196, 545.703 1009.196, 535.703 1009.196, 525.703 1009.196, 515.703 1009.196, 505.703 1009.196, 495.703 1009.196, 485.703 1009.196, 475.703 1009.196, 465.703 1009.196, 455.703 1009.196, 445.703 1009.196, 435.703 1009.196, 425.703 1009.196, 415.703 1009.196, 405.703 1009.196, 395.703 1009.196, 385.703 1009.196, 375.703 1009.196, 365.703 1009.196, 355.703 1009.196, 345.703 1009.196, 335.703 1009.196, 325.703 1009.196, 315.703 1009.196, 305.703 1009.196, 295.703 1009.196, 285.703 1009.196, 275.703 1009.196, 265.703 1009.196, 255.703 1009.196, 245.703 1009.196, 235.703 1009.196, 225.703 1009.196, 215.703 1009.196, 205.703 1009.196, 195.703 1009.196, 185.703 1009.196, 175.703 1009.196, 165.703 1009.196, 155.703 1009.196, 141.475 1009.196, 131.475 1009.196, 121.475 1009.196, 114.479 1002.451, 107.096 996.577, 100.665 994.643, 110.477 992.709, 120.288 990.776, 130.099 988.842, 139.910 986.908, 149.721 984.974, 159.533 983.952, 164.718 983.292, 174.696 982.632, 184.674 981.972, 194.652 981.312, 204.630 980.651, 214.609 979.991, 224.587 979.331, 234.565 978.671, 244.543 978.268, 250.630 974.061, 259.702 969.855, 268.774 965.648, 277.846 961.441, 286.918 958.703, 292.822 957.762, 302.778 956.821, 312.734 955.880, 322.689 954.939, 332.645 953.998, 342.601 953.057, 352.556 952.116, 362.512 951.921, 364.577 948.807, 374.080 945.693, 383.583 942.579, 393.086 939.464, 402.588 936.350, 412.091 933.455, 420.927 931.521, 430.738 929.587, 440.550 927.653, 450.361 925.720, 460.172 923.786, 469.983 921.852, 479.795 920.830, 484.980 920.830, 494.980 920.830, 504.980 920.830, 514.980 920.830, 524.980 920.830, 534.980 920.830, 544.980 920.830, 554.980 920.830, 564.980 920.830, 574.980 920.830, 585.733 " />
            <path fill="none" stroke-width="3.0" stroke-linecap="butt" stroke-opacity="1.0" stroke="rgb(0, 0, 0)" stroke-linejoin="round" d=" M 920.830, 595.202 920.830, 585.202 920.830, 575.202 920.830, 565.202 920.830, 555.202 920.830, 545.202 920.830, 535.202 920.830, 525.202 920.830, 515.202 920.830, 505.202 920.830, 494.449 922.853, 484.656 924.875, 474.862 926.898, 465.069 928.920, 455.276 930.942, 445.482 932.965, 435.689 933.455, 433.318 936.686, 423.855 939.918, 414.391 943.150, 404.928 946.382, 395.464 949.614, 386.001 951.921, 379.245 " />
            <path fill="none" stroke-width="3.0" stroke-linecap="butt" stroke-opacity="1.0" stroke="rgb(0, 0, 0)" stroke-linejoin="round" d=" M 920.830, 494.449 920.830, 484.980 " />
            <path fill="none" stroke-width="3.0" stroke-linecap="butt" stroke-opacity="1.0" stroke="rgb(0, 0, 0)" stroke-linejoin="round" d=" M 983.952, 164.718 983.952, 174.718 983.952, 184.718 983.952, 188.793 " />
            <path fill="none" stroke-width="3.0" stroke-linecap="butt" stroke-opacity="1.0" stroke="rgb(0, 0, 0)" stroke-linejoin="round" d=" M 983.952, 188.793 985.975, 179.000 987.997, 169.206 990.020, 159.413 992.042, 149.620 994.065, 139.826 996.087, 130.033 996.577, 127.662 " />
            <path fill="none" stroke-width="3.0" stroke-linecap="butt" stroke-opacity="1.0" stroke="rgb(0, 0, 0)" stroke-linejoin="round" d=" M 1009.196, 141.475 1002.451, 134.092 996.577, 127.662 996.577, 117.662 996.577, 107.662 996.577, 100.665 " />
            <path fill="none" stroke-width="3.0" stroke-linecap="butt" stroke-opacity="1.0" stroke="rgb(0, 0, 0)" stroke-linejoin="round" d=" M 996.577, 127.662 996.577, 137.662 996.577, 147.662 996.577, 157.662 996.577, 167.662 996.577, 177.662 996.577, 187.662 996.577, 197.662 996.577, 207.662 996.577, 217.662 996.577, 227.662 996.577, 237.662 996.577, 247.662 996.577, 257.662 996.577, 267.662 996.577, 277.662 996.577, 287.662 996.577, 297.662 996.577, 307.662 996.577, 317.662 996.577, 327.662 996.577, 337.662 996.577, 347.662 996.577, 357.662 996.577, 367.662 996.577, 377.662 996.577, 387.662 996.577, 397.662 996.577, 407.662 996.577, 417.662 996.577, 427.662 996.577, 437.662 996.577, 447.662 996.577, 457.662 996.577, 467.662 996.577, 477.662 996.577, 487.662 996.577, 497.662 996.577, 507.662 996.577, 517.662 996.577, 527.662 996.577, 537.662 996.577, 547.662 996.577, 557.662 996.577, 567.662 996.577, 577.662 996.577, 587.662 996.577, 597.662 996.577, 607.662 996.577, 617.662 996.577, 627.662 996.577, 637.662 996.577, 647.662 996.577, 657.662 996.577, 667.662 996.577, 677.662 996.577, 687.662 996.577, 697.662 996.577, 707.662 996.577, 717.662 996.577, 727.662 996.577, 737.662 996.577, 747.662 996.577, 757.662 996.577, 767.662 996.577, 777.662 996.577, 787.662 996.577, 797.662 996.577, 807.662 996.577, 817.662 996.577, 827.662 996.577, 837.662 996.577, 847.662 996.577, 857.662 996.577, 867.662 996.577, 877.662 996.577, 887.662 996.577, 897.662 996.577, 907.662 996.577, 917.662 996.577, 927.662 996.577, 937.662 996.577, 947.662 996.577, 957.662 996.577, 967.662 996.577, 979.517 " />
            <path fill="none" stroke-width="3.0" stroke-linecap="butt" stroke-opacity="1.0" stroke="rgb(0, 0, 0)" stroke-linejoin="round" d=" M 933.455, 659.255 933.455, 649.255 933.455, 639.255 933.455, 629.255 933.455, 619.255 933.455, 609.255 933.455, 599.255 933.455, 589.255 933.455, 579.255 933.455, 569.255 933.455, 559.255 933.455, 549.255 933.455, 539.255 933.455, 529.255 933.455, 519.255 933.455, 509.255 933.455, 499.255 933.455, 489.255 933.455, 479.255 933.455, 469.255 933.455, 459.255 933.455, 449.255 933.455, 439.255 933.455, 433.318 933.455, 423.318 933.455, 420.927 " />
            <path fill="none" stroke-width="3.0" stroke-linecap="butt" stroke-opacity="1.0" stroke="rgb(0, 0, 0)" stroke-linejoin="round" d=" M 978.268, 270.299 978.964, 260.323 979.659, 250.347 980.355, 240.371 981.051, 230.396 981.747, 220.420 982.442, 210.444 983.138, 200.468 983.834, 190.493 983.952, 188.793 983.952, 198.793 983.952, 208.793 983.952, 218.793 983.952, 228.793 983.952, 238.793 983.952, 248.793 983.952, 258.793 983.952, 268.793 983.952, 278.793 983.952, 288.793 983.952, 298.793 983.952, 308.793 983.952, 318.793 983.952, 328.793 983.952, 338.793 983.952, 348.793 983.952, 358.793 983.952, 368.793 983.952, 378.793 983.952, 388.793 983.952, 398.793 983.952, 408.793 983.952, 418.793 983.952, 428.793 983.952, 438.793 983.952, 448.793 983.952, 458.793 983.952, 468.793 983.952, 478.793 983.952, 488.793 983.952, 498.793 983.952, 508.793 983.952, 518.793 983.952, 528.793 983.952, 538.793 983.952, 548.793 983.952, 558.793 983.952, 568.793 983.952, 578.793 983.952, 588.793 983.952, 598.793 983.952, 608.793 983.952, 618.793 983.952, 628.793 983.952, 638.793 983.952, 648.793 983.952, 658.793 983.952, 668.793 983.952, 678.793 983.952, 688.793 983.952, 698.793 983.952, 708.793 983.952, 718.793 983.952, 728.793 983.952, 738.793 983.952, 748.793 983.952, 758.793 983.952, 768.793 983.952, 778.793 983.952, 788.793 983.952, 798.793 983.952, 808.793 983.952, 818.793 983.952, 828.793 983.952, 838.793 983.952, 848.793 983.952, 858.793 983.952, 868.793 983.952, 878.793 983.952, 888.793 983.952, 898.793 983.952, 915.464 " />
            <path fill="none" stroke-width="3.0" stroke-linecap="butt" stroke-opacity="1.0" stroke="rgb(0, 0, 0)" stroke-linejoin="round" d=" M 958.703, 311.056 963.031, 302.040 967.359, 293.025 971.686, 284.010 976.014, 274.995 978.268, 270.299 978.268, 280.299 978.268, 290.299 978.268, 300.299 978.268, 310.299 978.268, 320.299 978.268, 330.299 978.268, 340.299 978.268, 350.299 978.268, 360.299 978.268, 370.299 978.268, 380.299 978.268, 390.299 978.268, 400.299 978.268, 410.299 978.268, 420.299 978.268, 430.299 978.268, 440.299 978.268, 450.299 978.268, 460.299 978.268, 470.299 978.268, 480.299 978.268, 490.299 978.268, 500.299 978.268, 510.299 978.268, 520.299 978.268, 530.299 978.268, 540.299 978.268, 550.299 978.268, 560.299 978.268, 570.299 978.268, 580.299 978.268, 590.299 978.268, 600.299 978.268, 610.299 978.268, 620.299 978.268, 630.299 978.268, 640.299 978.268, 650.299 978.268, 660.299 978.268, 670.299 978.268, 680.299 978.268, 690.299 978.268, 700.299 978.268, 710.299 978.268, 720.299 978.268, 730.299 978.268, 740.299 978.268, 750.299 978.268, 760.299 978.268, 770.299 978.268, 780.299 978.268, 790.299 978.268, 800.299 978.268, 810.299 978.268, 820.299 978.268, 829.552 " />
            <path fill="none" stroke-width="3.0" stroke-linecap="butt" stroke-opacity="1.0" stroke="rgb(0, 0, 0)" stroke-linejoin="round" d=" M 958.703, 311.056 958.703, 321.056 958.703, 331.056 958.703, 341.056 958.703, 351.056 958.703, 361.056 958.703, 371.056 958.703, 381.056 958.703, 391.056 958.703, 401.056 958.703, 411.056 958.703, 421.056 958.703, 431.056 958.703, 441.056 958.703, 451.056 958.703, 461.056 958.703, 471.056 958.703, 481.056 958.703, 491.056 958.703, 501.056 958.703, 511.056 958.703, 521.056 958.703, 531.056 958.703, 541.056 958.703, 551.056 958.703, 561.056 958.703, 571.056 958.703, 581.056 958.703, 591.056 958.703, 601.056 958.703, 611.056 958.703, 621.056 958.703, 631.056 958.703, 641.056 958.703, 651.056 958.703, 661.056 958.703, 671.056 958.703, 681.056 958.703, 691.056 958.703, 701.056 958.703, 711.056 958.703, 721.056 958.703, 731.056 958.703, 741.056 958.703, 751.056 958.703, 761.056 958.703, 771.056 958.703, 781.056 958.703, 787.359 " />
            <path fill="none" stroke-width="3.0" stroke-linecap="butt" stroke-opacity="1.0" stroke="rgb(0, 0, 0)" stroke-linejoin="round" d=" M 958.703, 292.822 958.703, 302.822 958.703, 311.056 957.714, 321.006 956.724, 330.957 955.734, 340.908 954.744, 350.859 953.755, 360.810 952.765, 370.761 951.921, 379.245 " />
            <path fill="none" stroke-width="3.0" stroke-linecap="butt" stroke-opacity="1.0" stroke="rgb(0, 0, 0)" stroke-linejoin="round" d=" M 951.921, 364.577 951.921, 374.577 951.921, 379.245 951.921, 389.245 951.921, 399.245 951.921, 409.245 951.921, 419.245 951.921, 429.245 951.921, 439.245 951.921, 449.245 951.921, 459.245 951.921, 469.245 951.921, 479.245 951.921, 489.245 951.921, 499.245 951.921, 509.245 951.921, 519.245 951.921, 529.245 951.921, 539.245 951.921, 549.245 951.921, 559.245 951.921, 569.245 951.921, 579.245 951.921, 589.245 951.921, 599.245 951.921, 609.245 951.921, 619.245 951.921, 629.245 951.921, 639.245 951.921, 649.245 951.921, 659.245 951.921, 669.245 951.921, 679.245 951.921, 689.245 951.921, 699.245 951.921, 709.245 951.921, 715.605 " />
            <path fill="none" stroke-width="3.0" stroke-linecap="butt" stroke-opacity="1.0" stroke="rgb(0, 0, 0)" stroke-linejoin="round" d=" M 978.268, 270.299 978.268, 260.299 978.268, 250.630 " />
        </g>
    </g>
</svg>
