<?xml version="1.0" encoding="UTF-8" standalone="no"?>
<svg
   version="1.1"
   width="1920"
   height="1080"
   id="svg343"
   sodipodi:docname="paddle frame 12.svg"
   inkscape:version="1.2.1 (9c6d41e410, 2022-07-14)"
   xml:space="preserve"
   xmlns:inkscape="http://www.inkscape.org/namespaces/inkscape"
   xmlns:sodipodi="http://sodipodi.sourceforge.net/DTD/sodipodi-0.dtd"
   xmlns="http://www.w3.org/2000/svg"
   xmlns:svg="http://www.w3.org/2000/svg"><defs
     id="defs347" /><sodipodi:namedview
     id="namedview345"
     pagecolor="#ffffff"
     bordercolor="#000000"
     borderopacity="0.25"
     inkscape:showpageshadow="2"
     inkscape:pageopacity="0.0"
     inkscape:pagecheckerboard="0"
     inkscape:deskcolor="#d1d1d1"
     showgrid="false"
     inkscape:zoom="0.63020833"
     inkscape:cx="943.33884"
     inkscape:cy="541.09091"
     inkscape:window-width="1920"
     inkscape:window-height="1017"
     inkscape:window-x="1912"
     inkscape:window-y="-8"
     inkscape:window-maximized="1"
     inkscape:current-layer="svg343" /><g
     id="strokes"
     inkscape:label="strokes"
     transform="translate(-5.0125,-2.5365)"><path
       fill="none"
       stroke-width="3"
       stroke-linecap="butt"
       stroke-opacity="1"
       stroke="#000000"
       stroke-linejoin="round"
       d="m 920.83,538.365 v 10 10 10 5.341 l 4.939,8.694 4.94,8.695 2.745,4.833 6.961,7.179 6.962,7.179 4.543,4.686 2.58,9.661 2.58,9.662 1.623,6.078 8.173,5.762 8.173,5.762 3.218,2.268 1.824,9.833 1.823,9.832 1.823,9.832 0.215,1.156 4.939,8.695 4.94,8.695 2.745,4.832 9.596,-2.814 3.023,-0.887 v -10 -10 -10 -10 -10 -10 -10 -10 -10 -10 -10 -10 -10 -10 -10 -10 -10 -10 -10 -10 -10 -10.851 -10 -10 -10 -10 -10 -10 -10 -10 -10 -10.753 l -9.595,-2.815 -3.024,-0.887 -4.939,8.695 -4.94,8.695 -2.745,4.833 -1.824,9.832 -1.823,9.833 -1.823,9.832 -0.215,1.155 -8.173,5.762 -8.173,5.762 -3.218,2.269 -2.58,9.661 -2.58,9.662 -1.623,6.078 -6.961,7.179 -6.961,7.179 -4.544,4.686 -4.939,8.695 -4.94,8.694 -2.745,4.833 v 10 10 6.997"
       id="path1345" /><path
       fill="none"
       stroke-width="3"
       stroke-linecap="butt"
       stroke-opacity="1"
       stroke="#000000"
       stroke-linejoin="round"
       d="m 920.83,573.706 v -10 -10 -6.997 l 7.445,-6.676 5.179,-4.645 8.684,-4.958 8.684,-4.958 1.098,-0.628"
       id="path1347" /><path
       fill="none"
       stroke-width="3"
       stroke-linecap="butt"
       stroke-opacity="1"
       stroke="#000000"
       stroke-linejoin="round"
       d="m 920.83,546.709 v -10 -10 -10 -5.341"
       id="path1349" /><path
       fill="none"
       stroke-width="3"
       stroke-linecap="butt"
       stroke-opacity="1"
       stroke="#000000"
       stroke-linejoin="round"
       d="m 983.952,400.256 v 10 10 10 10 10 10 10 10 9.851"
       id="path1351" /><path
       fill="none"
       stroke-width="3"
       stroke-linecap="butt"
       stroke-opacity="1"
       stroke="#000000"
       stroke-linejoin="round"
       d="m 983.952,490.107 7.445,-6.676 5.179,-4.645"
       id="path1353" /><path
       fill="none"
       stroke-width="3"
       stroke-linecap="butt"
       stroke-opacity="1"
       stroke="#000000"
       stroke-linejoin="round"
       d="m 1009.195,482.488 -9.595,-2.815 -3.024,-0.887 v -10 -10 -10 -10 -10 -10 -10 -10 -10 -10.753"
       id="path1355" /><path
       fill="none"
       stroke-width="3"
       stroke-linecap="butt"
       stroke-opacity="1"
       stroke="#000000"
       stroke-linejoin="round"
       d="m 996.576,478.786 v 10 10 10 10 10 10 10 10 10 10 10 10 10 10 10 10 10 10 10 10 10 10 8.254"
       id="path1357" /><path
       fill="none"
       stroke-width="3"
       stroke-linecap="butt"
       stroke-opacity="1"
       stroke="#000000"
       stroke-linejoin="round"
       d="m 933.454,595.928 v -10 -10 -10 -10 -10 -10.54 -10 -10 -10 -10 -6.242"
       id="path1359" /><path
       fill="none"
       stroke-width="3"
       stroke-linecap="butt"
       stroke-opacity="1"
       stroke="#000000"
       stroke-linejoin="round"
       d="m 978.267,504.314 3.715,-9.285 1.97,-4.922 v 10 10 10 10 10 10 10 10 10 10 10 10 10 10 10 10 10 10 10 4.711"
       id="path1361" /><path
       fill="none"
       stroke-width="3"
       stroke-linecap="butt"
       stroke-opacity="1"
       stroke="#000000"
       stroke-linejoin="round"
       d="m 958.703,512.748 9.183,-3.959 9.183,-3.959 1.198,-0.516 v 10 10 10 10 10 10 10 10 10 10 10 10 10 10 9.851"
       id="path1363" /><path
       fill="none"
       stroke-width="3"
       stroke-linecap="butt"
       stroke-opacity="1"
       stroke="#000000"
       stroke-linejoin="round"
       d="m 958.703,512.748 v 10 10 10 10 10 10 10 10 10 10 10 10 7.625"
       id="path1365" /><path
       fill="none"
       stroke-width="3"
       stroke-linecap="butt"
       stroke-opacity="1"
       stroke="#000000"
       stroke-linejoin="round"
       d="m 958.703,444.701 v 10 10 10 10 10 10 8.047 l -4.891,8.722 -1.892,3.374"
       id="path1367" /><path
       fill="none"
       stroke-width="3"
       stroke-linecap="butt"
       stroke-opacity="1"
       stroke="#000000"
       stroke-linejoin="round"
       d="m 951.92,470.102 v 10 10 10 10 10 4.742 10 10 10 10 10.001 10 10 10 10.127"
       id="path1369" /><path
       fill="none"
       stroke-width="3"
       stroke-linecap="butt"
       stroke-opacity="1"
       stroke="#000000"
       stroke-linejoin="round"
       d="m 978.267,504.314 v -10 -10 -10 -10 -10 -10 -10 -3.406"
       id="path1371" /></g></svg>
