<?xml version='1.0' encoding='ascii'?>
<svg xmlns="http://www.w3.org/2000/svg" version="1.1" width="1920" height="1080">
    <g id="ViewLayer_LineSet" xmlns:inkscape="http://www.inkscape.org/namespaces/inkscape" inkscape:groupmode="lineset" inkscape:label="ViewLayer_LineSet">
        <g xmlns:inkscape="http://www.inkscape.org/namespaces/inkscape" inkscape:groupmode="layer" id="strokes" inkscape:label="strokes">
            <path fill="none" stroke-width="3.0" stroke-linecap="butt" stroke-opacity="1.0" stroke="rgb(0, 0, 0)" stroke-linejoin="round" d=" M 920.830, 565.459 920.830, 575.459 920.830, 585.459 920.830, 591.331 923.287, 601.024 925.743, 610.718 928.200, 620.411 930.657, 630.105 933.114, 639.798 933.454, 641.141 937.360, 650.347 941.265, 659.553 945.171, 668.759 949.076, 677.965 951.921, 684.670 953.121, 694.598 954.321, 704.525 955.522, 714.453 956.722, 724.381 957.923, 734.308 958.703, 740.763 963.881, 749.318 969.059, 757.873 974.237, 766.428 978.268, 773.086 979.109, 783.051 979.951, 793.015 980.793, 802.980 981.634, 812.944 982.476, 822.909 983.317, 832.873 983.952, 840.385 986.409, 850.078 988.865, 859.772 991.322, 869.465 993.779, 879.159 996.236, 888.852 996.576, 890.195 1004.380, 883.942 1009.195, 880.083 1009.195, 870.083 1009.195, 860.083 1009.195, 850.083 1009.195, 840.083 1009.195, 830.083 1009.195, 820.083 1009.195, 810.083 1009.195, 800.083 1009.195, 790.083 1009.195, 780.083 1009.195, 770.083 1009.195, 760.083 1009.195, 750.083 1009.195, 740.083 1009.195, 730.083 1009.195, 720.083 1009.195, 710.083 1009.195, 700.083 1009.195, 690.083 1009.195, 680.083 1009.195, 670.083 1009.195, 660.083 1009.195, 650.083 1009.195, 640.083 1009.195, 630.083 1009.195, 620.083 1009.195, 610.083 1009.195, 600.083 1009.195, 590.083 1009.195, 580.083 1009.195, 570.083 1009.195, 560.083 1009.195, 550.083 1009.195, 540.083 1009.195, 530.083 1009.195, 520.083 1009.195, 510.083 1009.195, 500.083 1009.195, 490.083 1009.195, 480.083 1009.195, 470.083 1009.195, 460.083 1009.195, 450.083 1009.195, 440.083 1009.195, 430.083 1009.195, 420.083 1009.195, 410.083 1009.195, 400.083 1009.195, 390.083 1009.195, 380.083 1009.195, 370.083 1009.195, 360.083 1009.195, 350.083 1009.195, 340.083 1009.195, 330.083 1009.196, 320.083 1009.196, 310.083 1009.196, 300.083 1009.196, 290.083 1009.196, 276.707 1009.196, 266.707 1009.196, 256.707 1009.196, 246.707 1009.196, 236.707 1009.196, 226.707 1009.196, 216.707 1009.196, 206.707 1009.196, 202.950 1001.392, 196.697 996.576, 192.838 994.120, 202.532 991.663, 212.225 989.206, 221.919 986.749, 231.612 984.292, 241.306 983.952, 242.649 983.110, 252.613 982.269, 262.578 981.427, 272.542 980.585, 282.507 979.744, 292.472 978.902, 302.436 978.268, 309.948 973.090, 318.503 967.911, 327.057 962.733, 335.612 958.703, 342.271 957.503, 352.198 956.302, 362.126 955.102, 372.054 953.901, 381.981 952.701, 391.909 951.921, 398.364 948.015, 407.570 944.110, 416.775 940.204, 425.981 936.299, 435.187 933.454, 441.892 930.997, 451.586 928.541, 461.279 926.084, 470.973 923.627, 480.666 921.170, 490.360 920.830, 491.703 920.830, 501.703 920.830, 511.703 920.830, 521.703 920.830, 531.703 920.830, 541.703 920.830, 551.703 920.830, 561.703 920.830, 565.459 " />
            <path fill="none" stroke-width="3.0" stroke-linecap="butt" stroke-opacity="1.0" stroke="rgb(0, 0, 0)" stroke-linejoin="round" d=" M 920.830, 591.331 920.830, 581.331 920.830, 571.331 920.830, 561.331 920.830, 551.331 920.830, 541.331 920.830, 531.331 920.830, 521.331 920.830, 517.574 923.719, 508.001 926.608, 498.427 929.498, 488.854 932.387, 479.280 933.454, 475.744 937.890, 466.782 942.327, 457.820 946.763, 448.858 951.199, 439.896 951.921, 438.438 " />
            <path fill="none" stroke-width="3.0" stroke-linecap="butt" stroke-opacity="1.0" stroke="rgb(0, 0, 0)" stroke-linejoin="round" d=" M 920.830, 517.574 920.830, 507.574 920.830, 497.574 920.830, 491.703 " />
            <path fill="none" stroke-width="3.0" stroke-linecap="butt" stroke-opacity="1.0" stroke="rgb(0, 0, 0)" stroke-linejoin="round" d=" M 983.952, 242.649 983.952, 252.649 983.952, 262.649 983.952, 272.649 983.952, 282.649 983.952, 292.649 983.952, 302.649 983.952, 308.424 " />
            <path fill="none" stroke-width="3.0" stroke-linecap="butt" stroke-opacity="1.0" stroke="rgb(0, 0, 0)" stroke-linejoin="round" d=" M 983.952, 308.424 986.841, 298.851 989.731, 289.278 992.620, 279.704 995.509, 270.130 996.576, 266.595 " />
            <path fill="none" stroke-width="3.0" stroke-linecap="butt" stroke-opacity="1.0" stroke="rgb(0, 0, 0)" stroke-linejoin="round" d=" M 1009.196, 276.707 1001.392, 270.453 996.576, 266.595 996.576, 256.595 996.576, 246.595 996.576, 236.595 996.576, 226.595 996.576, 216.595 996.576, 206.595 996.576, 196.595 996.576, 192.838 " />
            <path fill="none" stroke-width="3.0" stroke-linecap="butt" stroke-opacity="1.0" stroke="rgb(0, 0, 0)" stroke-linejoin="round" d=" M 996.576, 266.595 996.576, 276.595 996.576, 286.595 996.576, 296.595 996.576, 306.595 996.576, 316.595 996.576, 326.595 996.576, 336.595 996.576, 346.595 996.576, 356.595 996.576, 366.595 996.576, 376.595 996.576, 386.595 996.576, 396.595 996.576, 406.595 996.576, 416.595 996.576, 426.595 996.576, 436.595 996.576, 446.595 996.576, 456.595 996.576, 466.595 996.576, 476.595 996.576, 486.595 996.576, 496.595 996.576, 506.595 996.576, 516.595 996.576, 526.595 996.576, 536.595 996.576, 546.595 996.576, 556.595 996.576, 566.595 996.576, 576.595 996.576, 586.595 996.576, 596.595 996.576, 606.595 996.576, 616.595 996.576, 626.595 996.576, 636.595 996.576, 646.595 996.576, 656.595 996.576, 666.595 996.576, 676.595 996.576, 686.595 996.576, 696.595 996.576, 706.595 996.576, 716.595 996.576, 726.595 996.576, 736.595 996.576, 746.595 996.576, 756.595 996.576, 766.595 996.576, 776.595 996.576, 786.595 996.576, 796.595 996.576, 806.595 996.576, 816.595 996.576, 826.595 996.576, 836.595 996.576, 846.595 996.576, 856.595 996.576, 866.595 996.576, 876.595 996.576, 890.195 " />
            <path fill="none" stroke-width="3.0" stroke-linecap="butt" stroke-opacity="1.0" stroke="rgb(0, 0, 0)" stroke-linejoin="round" d=" M 933.454, 641.141 933.454, 631.141 933.454, 621.141 933.454, 611.141 933.454, 601.141 933.454, 591.141 933.454, 581.141 933.454, 571.141 933.454, 561.141 933.454, 551.141 933.454, 541.141 933.454, 531.141 933.454, 521.141 933.454, 511.141 933.454, 501.141 933.454, 491.141 933.454, 481.141 933.454, 475.744 933.454, 465.744 933.454, 455.744 933.454, 445.744 933.454, 441.892 " />
            <path fill="none" stroke-width="3.0" stroke-linecap="butt" stroke-opacity="1.0" stroke="rgb(0, 0, 0)" stroke-linejoin="round" d=" M 978.268, 363.684 979.291, 353.737 980.314, 343.789 981.337, 333.842 982.361, 323.894 983.384, 313.947 983.952, 308.424 983.952, 318.424 983.952, 328.424 983.952, 338.424 983.952, 348.424 983.952, 358.424 983.952, 368.424 983.952, 378.424 983.952, 388.424 983.952, 398.424 983.952, 408.424 983.952, 418.424 983.952, 428.424 983.952, 438.424 983.952, 448.424 983.952, 458.424 983.952, 468.424 983.952, 478.424 983.952, 488.424 983.952, 498.424 983.952, 508.424 983.952, 518.424 983.952, 528.424 983.952, 538.424 983.952, 548.424 983.952, 558.424 983.952, 568.424 983.952, 578.424 983.952, 588.424 983.952, 598.424 983.952, 608.424 983.952, 618.425 983.952, 628.425 983.952, 638.424 983.952, 648.424 983.952, 658.424 983.952, 668.424 983.952, 678.425 983.952, 688.425 983.952, 698.424 983.952, 708.424 983.952, 718.424 983.952, 728.425 983.952, 738.425 983.952, 748.425 983.952, 758.424 983.952, 768.424 983.952, 778.424 983.952, 788.425 983.952, 798.425 983.952, 808.425 983.952, 818.424 983.952, 828.425 983.952, 840.385 " />
            <path fill="none" stroke-width="3.0" stroke-linecap="butt" stroke-opacity="1.0" stroke="rgb(0, 0, 0)" stroke-linejoin="round" d=" M 958.703, 392.084 964.376, 383.849 970.049, 375.614 975.722, 367.379 978.268, 363.684 978.268, 373.684 978.268, 383.684 978.268, 393.684 978.268, 403.684 978.268, 413.684 978.268, 423.684 978.268, 433.684 978.268, 443.684 978.268, 453.684 978.268, 463.684 978.268, 473.684 978.268, 483.684 978.268, 493.684 978.268, 503.684 978.268, 513.684 978.268, 523.684 978.268, 533.684 978.268, 543.684 978.268, 553.684 978.268, 563.684 978.268, 573.684 978.268, 583.684 978.268, 593.684 978.268, 603.684 978.268, 613.684 978.268, 623.684 978.268, 633.684 978.268, 643.684 978.268, 653.684 978.268, 663.684 978.268, 673.684 978.268, 683.684 978.268, 693.684 978.268, 703.684 978.268, 713.684 978.268, 723.684 978.268, 733.684 978.268, 743.684 978.268, 753.684 978.268, 763.684 978.268, 773.086 " />
            <path fill="none" stroke-width="3.0" stroke-linecap="butt" stroke-opacity="1.0" stroke="rgb(0, 0, 0)" stroke-linejoin="round" d=" M 958.703, 392.084 958.703, 402.084 958.703, 412.084 958.703, 422.084 958.703, 432.084 958.703, 442.084 958.703, 452.084 958.703, 462.084 958.703, 472.084 958.703, 482.084 958.703, 492.084 958.703, 502.084 958.703, 512.084 958.703, 522.084 958.703, 532.084 958.703, 542.084 958.703, 552.084 958.703, 562.084 958.703, 572.084 958.703, 582.084 958.703, 592.084 958.703, 602.084 958.703, 612.084 958.703, 622.084 958.703, 632.084 958.703, 642.084 958.703, 652.084 958.703, 662.084 958.703, 672.084 958.703, 682.084 958.703, 692.084 958.703, 702.084 958.703, 712.084 958.703, 722.084 958.703, 732.084 958.703, 740.763 " />
            <path fill="none" stroke-width="3.0" stroke-linecap="butt" stroke-opacity="1.0" stroke="rgb(0, 0, 0)" stroke-linejoin="round" d=" M 958.703, 342.271 958.703, 352.271 958.703, 362.271 958.703, 372.271 958.703, 382.271 958.703, 392.084 957.255, 401.979 955.808, 411.874 954.360, 421.768 952.912, 431.663 951.921, 438.438 " />
            <path fill="none" stroke-width="3.0" stroke-linecap="butt" stroke-opacity="1.0" stroke="rgb(0, 0, 0)" stroke-linejoin="round" d=" M 951.921, 398.364 951.921, 408.364 951.921, 418.364 951.921, 428.364 951.921, 438.438 951.921, 448.438 951.921, 458.438 951.921, 468.438 951.921, 478.438 951.921, 488.438 951.921, 498.438 951.921, 508.438 951.921, 518.438 951.921, 528.438 951.921, 538.438 951.921, 548.438 951.921, 558.438 951.921, 568.438 951.921, 578.438 951.921, 588.438 951.921, 598.438 951.921, 608.438 951.921, 618.438 951.921, 628.438 951.921, 638.438 951.921, 648.438 951.921, 658.438 951.921, 668.438 951.921, 678.438 951.921, 684.670 " />
            <path fill="none" stroke-width="3.0" stroke-linecap="butt" stroke-opacity="1.0" stroke="rgb(0, 0, 0)" stroke-linejoin="round" d=" M 978.268, 363.684 978.268, 353.684 978.268, 343.684 978.268, 333.684 978.268, 323.684 978.268, 313.684 978.268, 309.948 " />
        </g>
    </g>
</svg>
