<?xml version='1.0' encoding='ascii'?>
<svg xmlns="http://www.w3.org/2000/svg" version="1.1" width="1920" height="1080">
    <g id="ViewLayer_LineSet" xmlns:inkscape="http://www.inkscape.org/namespaces/inkscape" inkscape:groupmode="lineset" inkscape:label="ViewLayer_LineSet">
        <g xmlns:inkscape="http://www.inkscape.org/namespaces/inkscape" inkscape:groupmode="layer" id="strokes" inkscape:label="strokes">
            <path fill="none" stroke-width="3.0" stroke-linecap="butt" stroke-opacity="1.0" stroke="rgb(0, 0, 0)" stroke-linejoin="round" d=" M 727.134, 538.004 723.503, 547.321 719.872, 556.639 716.241, 565.956 712.610, 575.274 708.979, 584.591 705.348, 593.909 701.717, 603.226 698.086, 612.544 694.455, 621.861 690.824, 631.178 687.663, 639.288 696.108, 644.645 704.552, 650.001 712.997, 655.357 721.441, 660.714 729.886, 666.070 738.330, 671.427 746.775, 676.783 755.219, 682.139 763.664, 687.496 772.108, 692.852 780.553, 698.209 788.997, 703.565 797.442, 708.921 805.886, 714.278 814.330, 719.634 822.775, 724.991 831.219, 730.347 839.664, 735.703 848.108, 741.060 856.553, 746.416 864.997, 751.773 873.442, 757.129 881.347, 762.143 889.589, 756.480 897.831, 750.817 906.072, 745.154 914.314, 739.491 922.556, 733.828 930.798, 728.165 939.040, 722.501 947.282, 716.838 955.524, 711.175 963.766, 705.512 972.008, 699.849 980.250, 694.186 988.492, 688.523 996.734, 682.860 1004.976, 677.197 1013.218, 671.534 1021.459, 665.871 1029.701, 660.208 1037.943, 654.544 1046.185, 648.881 1054.427, 643.218 1062.669, 637.555 1070.911, 631.892 1079.153, 626.229 1087.395, 620.566 1095.637, 614.903 1103.879, 609.240 1112.121, 603.577 1120.363, 597.914 1128.605, 592.250 1136.847, 586.587 1145.089, 580.924 1153.330, 575.261 1161.572, 569.598 1169.814, 563.935 1178.056, 558.272 1186.298, 552.609 1194.540, 546.946 1202.782, 541.283 1207.554, 538.004 1199.312, 532.341 1191.070, 526.677 1182.828, 521.014 1174.586, 515.351 1166.344, 509.688 1158.103, 504.025 1149.861, 498.362 1141.619, 492.699 1133.377, 487.036 1125.135, 481.373 1116.893, 475.710 1108.651, 470.047 1100.409, 464.383 1092.167, 458.720 1083.925, 453.057 1075.683, 447.394 1067.441, 441.731 1059.199, 436.068 1050.958, 430.405 1042.716, 424.742 1034.474, 419.079 1026.232, 413.416 1017.990, 407.753 1009.748, 402.089 1001.506, 396.426 993.264, 390.763 985.022, 385.100 976.780, 379.437 968.538, 373.774 960.296, 368.111 952.054, 362.448 943.812, 356.785 935.570, 351.122 927.329, 345.459 919.087, 339.795 910.845, 334.132 902.603, 328.469 894.361, 322.806 886.119, 317.143 881.347, 313.864 872.902, 319.221 864.458, 324.577 856.013, 329.933 847.569, 335.290 839.124, 340.646 830.680, 346.003 822.235, 351.359 813.791, 356.715 805.346, 362.072 796.902, 367.428 788.458, 372.784 780.013, 378.141 771.569, 383.497 763.124, 388.854 754.680, 394.210 746.235, 399.566 737.791, 404.923 729.346, 410.279 720.902, 415.636 712.457, 420.992 704.013, 426.348 695.568, 431.705 687.664, 436.719 691.294, 446.036 694.926, 455.354 698.557, 464.671 702.188, 473.989 705.819, 483.306 709.450, 492.624 713.081, 501.941 716.712, 511.259 720.343, 520.576 723.974, 529.894 727.134, 538.004 " />
            <path fill="none" stroke-width="3.0" stroke-linecap="butt" stroke-opacity="1.0" stroke="rgb(0, 0, 0)" stroke-linejoin="round" d=" M 727.134, 538.004 732.802, 529.765 738.471, 521.527 744.139, 513.288 749.807, 505.050 755.475, 496.812 761.143, 488.573 766.812, 480.335 772.480, 472.096 778.148, 463.858 783.816, 455.619 789.484, 447.381 795.153, 439.143 800.821, 430.904 806.489, 422.666 812.157, 414.427 817.825, 406.189 823.494, 397.951 829.162, 389.712 834.830, 381.474 840.498, 373.235 846.166, 364.997 851.835, 356.758 857.503, 348.520 863.171, 340.282 868.839, 332.043 874.507, 323.805 881.347, 313.864 881.347, 323.864 881.347, 333.864 881.347, 343.864 881.347, 353.864 881.347, 363.864 881.347, 373.864 881.347, 383.864 881.347, 393.864 881.347, 403.864 881.347, 413.864 881.347, 423.864 881.347, 433.864 881.347, 443.864 881.347, 453.864 881.347, 463.864 881.347, 473.864 881.347, 483.864 881.347, 493.864 881.347, 503.864 881.347, 513.864 881.347, 523.864 881.347, 533.864 881.347, 538.004 " />
            <path fill="none" stroke-width="3.0" stroke-linecap="butt" stroke-opacity="1.0" stroke="rgb(0, 0, 0)" stroke-linejoin="round" d=" M 881.347, 538.004 871.347, 538.004 861.347, 538.004 851.347, 538.004 841.347, 538.004 831.347, 538.004 821.347, 538.004 811.347, 538.004 801.347, 538.004 791.347, 538.004 781.347, 538.004 771.347, 538.004 761.347, 538.004 751.347, 538.004 741.347, 538.004 731.347, 538.004 727.134, 538.004 732.802, 546.242 738.471, 554.480 744.139, 562.719 749.807, 570.957 755.475, 579.196 761.143, 587.434 766.812, 595.673 772.480, 603.911 778.148, 612.149 783.816, 620.388 789.484, 628.626 795.153, 636.865 800.821, 645.103 806.489, 653.341 812.157, 661.580 817.825, 669.818 823.494, 678.057 829.162, 686.295 834.830, 694.534 840.498, 702.772 846.166, 711.010 851.834, 719.249 857.503, 727.487 863.171, 735.726 868.839, 743.964 874.507, 752.202 881.347, 762.143 881.347, 752.143 881.347, 742.143 881.347, 732.143 881.347, 722.143 881.347, 712.143 881.347, 702.143 881.347, 692.143 881.347, 682.143 881.347, 672.143 881.347, 662.143 881.347, 652.143 881.347, 642.143 881.347, 632.143 881.347, 622.143 881.347, 612.143 881.347, 602.143 881.347, 592.143 881.347, 582.143 881.347, 572.143 881.347, 562.143 881.347, 552.143 881.347, 542.143 881.347, 538.004 891.347, 538.004 901.347, 538.004 911.347, 538.004 921.347, 538.004 931.347, 538.004 941.347, 538.004 951.347, 538.004 961.347, 538.004 971.347, 538.004 981.347, 538.004 991.347, 538.004 1001.347, 538.004 1011.347, 538.004 1021.347, 538.004 1031.347, 538.004 1041.347, 538.004 1051.347, 538.004 1061.347, 538.004 1071.347, 538.004 1081.347, 538.004 1091.347, 538.004 1101.347, 538.004 1111.347, 538.004 1121.347, 538.004 1131.347, 538.004 1141.347, 538.004 1151.347, 538.004 1161.347, 538.004 1171.347, 538.004 1181.347, 538.004 1191.347, 538.004 1201.347, 538.004 1207.554, 538.004 " />
            <path fill="none" stroke-width="3.0" stroke-linecap="butt" stroke-opacity="1.0" stroke="rgb(0, 0, 0)" stroke-linejoin="round" d=" M 727.134, 538.004 723.503, 528.686 719.872, 519.369 716.241, 510.051 712.610, 500.734 708.979, 491.416 705.348, 482.099 701.717, 472.781 698.086, 463.464 694.455, 454.146 690.824, 444.829 687.664, 436.719 " />
            <path fill="none" stroke-width="3.0" stroke-linecap="butt" stroke-opacity="1.0" stroke="rgb(0, 0, 0)" stroke-linejoin="round" d=" M 727.134, 538.004 723.503, 528.686 719.872, 519.369 716.241, 510.051 712.610, 500.734 708.979, 491.416 705.348, 482.099 701.717, 472.781 698.086, 463.464 694.455, 454.146 690.824, 444.829 687.664, 436.719 " />
        </g>
    </g>
</svg>
