<?xml version='1.0' encoding='ascii'?>
<svg xmlns="http://www.w3.org/2000/svg" version="1.1" width="1920" height="1080">
    <g id="ViewLayer_LineSet" xmlns:inkscape="http://www.inkscape.org/namespaces/inkscape" inkscape:groupmode="lineset" inkscape:label="ViewLayer_LineSet">
        <g xmlns:inkscape="http://www.inkscape.org/namespaces/inkscape" inkscape:groupmode="layer" id="strokes" inkscape:label="strokes">
            <path fill="none" stroke-width="3.0" stroke-linecap="butt" stroke-opacity="1.0" stroke="rgb(0, 0, 0)" stroke-linejoin="round" d=" M 720.023, 540.276 716.882, 549.770 713.742, 559.264 710.602, 568.758 707.461, 578.252 704.321, 587.746 701.181, 597.240 698.041, 606.735 694.900, 616.229 691.760, 625.723 688.620, 635.217 687.663, 638.109 696.190, 643.333 704.717, 648.558 713.244, 653.782 721.770, 659.006 730.297, 664.231 738.824, 669.455 747.351, 674.679 755.878, 679.904 764.404, 685.128 772.931, 690.352 781.458, 695.577 789.985, 700.801 798.512, 706.025 807.039, 711.250 815.565, 716.474 824.092, 721.698 832.619, 726.923 841.146, 732.147 849.673, 737.371 858.199, 742.596 866.726, 747.820 875.253, 753.044 881.346, 756.778 889.678, 751.248 898.010, 745.718 906.342, 740.188 914.674, 734.658 923.006, 729.129 931.338, 723.599 939.670, 718.069 948.002, 712.539 956.334, 707.009 964.666, 701.479 972.997, 695.949 981.329, 690.420 989.661, 684.890 997.993, 679.360 1006.325, 673.830 1014.657, 668.300 1022.989, 662.770 1031.321, 657.241 1039.653, 651.711 1047.985, 646.181 1056.317, 640.651 1064.649, 635.121 1072.980, 629.591 1081.312, 624.062 1089.644, 618.532 1097.976, 613.002 1106.308, 607.472 1114.640, 601.942 1122.972, 596.412 1131.304, 590.882 1139.636, 585.353 1147.968, 579.823 1156.300, 574.293 1164.632, 568.763 1172.964, 563.233 1181.295, 557.703 1189.627, 552.174 1197.959, 546.644 1207.554, 540.276 1199.222, 534.746 1190.890, 529.216 1182.558, 523.686 1174.226, 518.156 1165.894, 512.627 1157.562, 507.097 1149.231, 501.567 1140.899, 496.037 1132.567, 490.507 1124.235, 484.977 1115.903, 479.447 1107.571, 473.918 1099.239, 468.388 1090.907, 462.858 1082.575, 457.328 1074.243, 451.798 1065.911, 446.268 1057.579, 440.738 1049.248, 435.209 1040.916, 429.679 1032.584, 424.149 1024.252, 418.619 1015.920, 413.089 1007.588, 407.559 999.256, 402.030 990.924, 396.500 982.592, 390.970 974.260, 385.440 965.928, 379.910 957.597, 374.380 949.265, 368.850 940.933, 363.321 932.601, 357.791 924.269, 352.261 915.937, 346.731 907.605, 341.201 899.273, 335.671 890.941, 330.142 881.346, 323.774 872.820, 328.998 864.293, 334.222 855.766, 339.447 847.239, 344.671 838.713, 349.895 830.186, 355.120 821.659, 360.344 813.132, 365.568 804.605, 370.792 796.078, 376.017 787.552, 381.241 779.025, 386.465 770.498, 391.690 761.971, 396.914 753.444, 402.138 744.918, 407.363 736.391, 412.587 727.864, 417.811 719.337, 423.036 710.810, 428.260 702.284, 433.484 693.757, 438.709 687.663, 442.442 690.804, 451.936 693.944, 461.430 697.084, 470.925 700.224, 480.419 703.365, 489.913 706.505, 499.407 709.645, 508.901 712.786, 518.395 715.926, 527.889 719.066, 537.384 720.023, 540.276 723.163, 549.770 723.226, 549.961 726.367, 559.455 727.134, 561.776 737.134, 561.776 747.134, 561.776 757.134, 561.776 767.134, 561.776 777.134, 561.776 787.134, 561.776 797.134, 561.776 807.134, 561.776 817.134, 561.776 827.134, 561.776 837.134, 561.776 847.134, 561.776 857.134, 561.776 867.134, 561.776 877.134, 561.776 881.346, 561.776 881.346, 561.776 " />
            <path fill="none" stroke-width="3.0" stroke-linecap="butt" stroke-opacity="1.0" stroke="rgb(0, 0, 0)" stroke-linejoin="round" d=" M 727.134, 561.776 732.572, 553.383 738.009, 544.991 743.447, 536.599 748.885, 528.206 754.323, 519.814 759.760, 511.422 765.198, 503.029 770.636, 494.637 776.074, 486.245 781.512, 477.852 786.949, 469.460 792.387, 461.068 797.825, 452.676 803.263, 444.283 808.700, 435.891 814.138, 427.499 819.576, 419.106 825.014, 410.714 830.451, 402.322 835.889, 393.930 841.327, 385.537 846.765, 377.145 852.203, 368.753 857.640, 360.360 863.078, 351.968 868.516, 343.576 873.954, 335.183 879.391, 326.791 881.346, 323.774 881.346, 333.774 881.346, 343.774 881.346, 353.774 881.346, 363.774 881.346, 373.774 881.346, 383.774 881.346, 393.774 881.346, 403.774 881.346, 413.774 881.346, 423.774 881.346, 433.774 881.346, 443.774 881.346, 453.774 881.346, 463.774 881.346, 473.774 881.346, 483.774 881.346, 493.774 881.346, 503.774 881.346, 513.774 881.346, 523.774 881.346, 533.774 881.346, 543.774 881.346, 553.774 881.346, 561.776 " />
            <path fill="none" stroke-width="3.0" stroke-linecap="butt" stroke-opacity="1.0" stroke="rgb(0, 0, 0)" stroke-linejoin="round" d=" M 687.663, 638.109 692.256, 629.226 696.849, 620.344 701.443, 611.461 706.036, 602.578 710.629, 593.695 715.222, 584.813 719.815, 575.930 724.408, 567.047 727.134, 561.776 733.337, 569.619 739.540, 577.463 745.743, 585.307 751.946, 593.150 758.149, 600.994 764.352, 608.838 770.555, 616.681 776.758, 624.525 782.961, 632.369 789.164, 640.212 795.367, 648.056 801.570, 655.900 807.772, 663.743 813.975, 671.587 820.178, 679.431 826.381, 687.274 832.584, 695.118 838.787, 702.962 844.990, 710.805 851.193, 718.649 857.396, 726.493 863.599, 734.336 869.802, 742.180 876.005, 750.024 881.346, 756.778 881.346, 746.778 881.346, 736.778 881.346, 726.778 881.346, 716.778 881.346, 706.778 881.346, 696.778 881.346, 686.778 881.346, 676.778 881.346, 666.778 881.346, 656.778 881.346, 646.778 881.346, 636.778 881.346, 626.778 881.346, 616.778 881.346, 606.778 881.346, 596.778 881.346, 586.778 881.346, 576.778 881.346, 566.778 881.346, 561.776 891.325, 561.118 901.303, 560.460 911.282, 559.803 921.260, 559.145 931.238, 558.487 941.217, 557.830 951.195, 557.172 961.173, 556.514 971.152, 555.857 981.130, 555.199 991.108, 554.541 1001.087, 553.884 1011.065, 553.226 1021.043, 552.568 1031.022, 551.911 1041.000, 551.253 1050.979, 550.595 1060.957, 549.938 1070.935, 549.280 1080.913, 548.622 1090.892, 547.965 1100.870, 547.307 1110.849, 546.649 1120.827, 545.992 1130.805, 545.334 1140.784, 544.676 1150.762, 544.019 1160.740, 543.361 1170.719, 542.703 1180.697, 542.046 1190.675, 541.388 1200.654, 540.731 1207.554, 540.276 " />
            <path fill="none" stroke-width="3.0" stroke-linecap="butt" stroke-opacity="1.0" stroke="rgb(0, 0, 0)" stroke-linejoin="round" d=" M 687.663, 638.109 691.405, 628.835 695.146, 619.562 698.888, 610.288 702.629, 601.014 706.370, 591.741 710.112, 582.467 713.853, 573.193 717.595, 563.919 721.336, 554.646 723.226, 549.961 " />
        </g>
    </g>
</svg>
