<?xml version='1.0' encoding='ascii'?>
<svg xmlns="http://www.w3.org/2000/svg" version="1.1" width="1920" height="1080">
    <g id="ViewLayer_LineSet" xmlns:inkscape="http://www.inkscape.org/namespaces/inkscape" inkscape:groupmode="lineset" inkscape:label="ViewLayer_LineSet">
        <g xmlns:inkscape="http://www.inkscape.org/namespaces/inkscape" inkscape:groupmode="layer" id="strokes" inkscape:label="strokes">
            <path fill="none" stroke-width="3.0" stroke-linecap="butt" stroke-opacity="1.0" stroke="rgb(0, 0, 0)" stroke-linejoin="round" d=" M 836.394, 465.252 826.412, 465.848 816.430, 466.443 806.448, 467.039 796.465, 467.635 786.483, 468.230 776.501, 468.826 767.139, 469.385 761.820, 477.853 756.501, 486.321 751.182, 494.789 745.863, 503.257 740.544, 511.725 735.225, 520.193 729.906, 528.661 727.134, 533.075 727.134, 540.276 727.134, 550.276 727.134, 560.276 727.134, 561.776 " />
            <path fill="none" stroke-width="3.0" stroke-linecap="butt" stroke-opacity="1.0" stroke="rgb(0, 0, 0)" stroke-linejoin="round" d=" M 944.126, 629.132 953.972, 630.880 954.697, 631.009 964.086, 627.567 973.475, 624.126 982.864, 620.684 992.253, 617.242 1001.642, 613.800 1011.031, 610.358 1020.420, 606.917 1029.809, 603.475 1039.198, 600.033 1048.587, 596.591 1057.976, 593.150 1067.365, 589.708 1076.754, 586.266 1086.143, 582.824 1095.532, 579.382 1104.921, 575.941 1114.310, 572.499 1123.699, 569.057 1133.089, 565.615 1142.478, 562.174 1151.867, 558.732 1161.256, 555.290 1170.645, 551.848 1179.611, 548.561 1170.459, 544.532 1161.307, 540.503 1152.154, 536.473 1143.002, 532.444 1133.850, 528.415 1124.697, 524.385 1115.545, 520.356 1106.393, 516.327 1097.240, 512.298 1088.088, 508.268 1078.936, 504.239 1069.784, 500.210 1060.631, 496.180 1051.479, 492.151 1042.327, 488.122 1033.174, 484.092 1024.022, 480.063 1014.870, 476.034 1005.717, 472.004 996.565, 467.975 987.413, 463.946 978.261, 459.916 969.108, 455.887 957.897, 450.951 " />
            <path fill="none" stroke-width="3.0" stroke-linecap="butt" stroke-opacity="1.0" stroke="rgb(0, 0, 0)" stroke-linejoin="round" d=" M 727.134, 561.776 737.134, 561.776 739.267, 561.776 741.837, 561.776 751.837, 561.776 761.837, 561.776 771.837, 561.776 781.837, 561.776 791.837, 561.776 801.837, 561.776 811.837, 561.776 821.837, 561.776 831.837, 561.776 841.837, 561.776 851.837, 561.776 861.837, 561.776 871.837, 561.776 881.347, 561.776 881.347, 561.776 " />
            <path fill="none" stroke-width="3.0" stroke-linecap="butt" stroke-opacity="1.0" stroke="rgb(0, 0, 0)" stroke-linejoin="round" d=" M 727.134, 540.276 732.049, 531.567 736.963, 522.858 741.878, 514.149 746.792, 505.440 751.707, 496.731 756.622, 488.022 761.536, 479.313 766.451, 470.604 767.139, 469.385 763.166, 478.561 759.192, 487.738 755.219, 496.915 751.245, 506.091 747.272, 515.268 743.298, 524.445 739.325, 533.621 735.351, 542.798 731.378, 551.975 727.134, 561.776 " />
            <path fill="none" stroke-width="3.0" stroke-linecap="butt" stroke-opacity="1.0" stroke="rgb(0, 0, 0)" stroke-linejoin="round" d=" M 1030.588, 721.896 1023.769, 714.581 1023.100, 713.862 1016.281, 706.547 1009.463, 699.232 1002.645, 691.917 995.827, 684.601 989.009, 677.286 982.190, 669.971 975.372, 662.656 968.554, 655.341 961.736, 648.025 954.918, 640.710 948.100, 633.395 944.126, 629.132 937.308, 621.817 930.490, 614.501 923.672, 607.186 916.853, 599.871 910.035, 592.556 903.217, 585.240 896.399, 577.925 889.581, 570.610 882.763, 563.295 881.347, 561.776 887.030, 553.548 892.713, 545.320 898.397, 537.092 901.907, 532.010 907.590, 523.782 913.274, 515.554 918.957, 507.326 924.640, 499.098 930.324, 490.870 936.007, 482.642 941.691, 474.414 947.374, 466.186 953.057, 457.958 957.725, 451.200 957.897, 450.951 963.580, 442.723 969.264, 434.495 974.947, 426.267 980.630, 418.039 986.314, 409.811 991.997, 401.583 997.681, 393.356 1003.364, 385.128 1009.047, 376.900 1014.731, 368.672 1020.414, 360.444 1026.097, 352.216 1030.588, 345.715 1037.914, 338.908 1045.240, 332.102 1052.566, 325.295 1059.892, 318.489 1067.218, 311.682 1074.544, 304.876 1081.870, 298.069 1083.812, 296.265 1074.663, 300.301 1065.513, 304.336 1056.364, 308.372 1047.214, 312.408 1038.065, 316.444 1028.915, 320.479 1019.766, 324.515 1010.616, 328.551 1001.467, 332.587 992.318, 336.623 983.168, 340.658 974.019, 344.694 971.704, 345.715 964.210, 352.336 956.716, 358.956 949.221, 365.577 941.727, 372.198 934.232, 378.819 926.738, 385.439 919.244, 392.060 911.749, 398.681 904.255, 405.302 896.761, 411.922 889.266, 418.543 881.772, 425.164 874.277, 431.785 866.783, 438.405 859.289, 445.026 851.794, 451.647 844.300, 458.268 836.394, 465.252 828.900, 471.873 821.405, 478.493 813.911, 485.114 806.417, 491.735 798.922, 498.356 791.428, 504.976 783.934, 511.597 776.439, 518.218 768.945, 524.839 761.451, 531.459 760.067, 532.681 752.573, 539.302 751.471, 540.276 743.976, 546.896 737.256, 552.833 735.230, 554.623 727.736, 561.244 727.134, 561.776 " />
            <path fill="none" stroke-width="3.0" stroke-linecap="butt" stroke-opacity="1.0" stroke="rgb(0, 0, 0)" stroke-linejoin="round" d=" M 881.347, 561.776 891.337, 561.333 901.327, 560.890 911.317, 560.448 921.307, 560.005 931.298, 559.563 941.288, 559.120 951.278, 558.677 961.268, 558.235 971.258, 557.792 981.249, 557.350 991.239, 556.907 1001.229, 556.464 1011.219, 556.022 1021.209, 555.579 1031.200, 555.137 1041.190, 554.694 1051.180, 554.251 1061.170, 553.809 1071.160, 553.366 1081.151, 552.924 1091.141, 552.481 1101.131, 552.038 1111.121, 551.596 1121.111, 551.153 1131.102, 550.711 1141.092, 550.268 1151.082, 549.825 1161.072, 549.383 1171.062, 548.940 1179.611, 548.561 " />
            <path fill="none" stroke-width="3.0" stroke-linecap="butt" stroke-opacity="1.0" stroke="rgb(0, 0, 0)" stroke-linejoin="round" d=" M 971.704, 345.715 981.704, 345.715 991.704, 345.715 1001.704, 345.715 1011.704, 345.715 1021.704, 345.715 1030.588, 345.715 " />
            <path fill="none" stroke-width="3.0" stroke-linecap="butt" stroke-opacity="1.0" stroke="rgb(0, 0, 0)" stroke-linejoin="round" d=" M 1023.100, 713.862 1031.383, 719.465 1039.666, 725.068 1047.949, 730.670 1056.232, 736.273 1064.515, 741.876 1072.798, 747.478 1081.082, 753.081 1083.812, 754.928 1074.220, 752.101 1064.627, 749.275 1055.035, 746.449 1045.443, 743.623 1035.851, 740.796 1026.258, 737.970 1016.666, 735.144 1007.074, 732.318 997.481, 729.491 987.889, 726.665 978.297, 723.839 971.704, 721.896 963.338, 716.419 954.971, 710.941 946.605, 705.464 938.239, 699.986 929.872, 694.509 921.506, 689.031 913.139, 683.554 904.773, 678.076 896.407, 672.599 888.040, 667.121 879.674, 661.644 871.307, 656.166 862.941, 650.689 854.575, 645.211 846.208, 639.734 837.842, 634.256 829.475, 628.779 821.109, 623.301 812.742, 617.824 806.129, 613.493 797.762, 608.016 789.396, 602.538 781.029, 597.061 772.663, 591.583 764.297, 586.106 755.930, 580.628 749.256, 576.259 746.376, 574.373 738.009, 568.896 729.643, 563.418 727.134, 561.776 733.428, 569.546 739.722, 577.317 746.016, 585.088 752.310, 592.859 758.604, 600.629 764.898, 608.400 767.139, 611.167 777.121, 611.763 787.103, 612.358 797.086, 612.954 806.129, 613.493 " />
            <path fill="none" stroke-width="3.0" stroke-linecap="butt" stroke-opacity="1.0" stroke="rgb(0, 0, 0)" stroke-linejoin="round" d=" M 1083.812, 754.928 1075.315, 749.655 1066.819, 744.381 1058.322, 739.108 1049.825, 733.835 1041.328, 728.562 1032.832, 723.289 1030.588, 721.896 1020.588, 721.896 1010.588, 721.896 1000.588, 721.896 990.588, 721.896 980.588, 721.896 971.704, 721.896 " />
        </g>
    </g>
</svg>
