<?xml version='1.0' encoding='ascii'?>
<svg xmlns="http://www.w3.org/2000/svg" version="1.1" width="1920" height="1080">
    <g id="ViewLayer_LineSet" xmlns:inkscape="http://www.inkscape.org/namespaces/inkscape" inkscape:groupmode="lineset" inkscape:label="ViewLayer_LineSet">
        <g xmlns:inkscape="http://www.inkscape.org/namespaces/inkscape" inkscape:groupmode="layer" id="strokes" inkscape:label="strokes">
            <path fill="none" stroke-width="3.0" stroke-linecap="butt" stroke-opacity="1.0" stroke="rgb(0, 0, 0)" stroke-linejoin="round" d=" M 847.272, 474.682 837.287, 475.217 827.301, 475.751 817.315, 476.285 807.329, 476.819 797.344, 477.354 787.358, 477.888 777.372, 478.422 767.139, 478.970 760.865, 486.756 754.590, 494.543 748.316, 502.330 742.042, 510.117 735.767, 517.903 729.493, 525.690 727.134, 528.618 727.134, 538.618 727.134, 542.529 727.134, 552.529 727.134, 562.529 727.134, 572.529 727.134, 582.529 727.134, 584.064 " />
            <path fill="none" stroke-width="3.0" stroke-linecap="butt" stroke-opacity="1.0" stroke="rgb(0, 0, 0)" stroke-linejoin="round" d=" M 927.570, 619.559 937.445, 621.131 947.321, 622.704 954.697, 623.878 964.299, 621.088 973.902, 618.299 983.505, 615.509 993.108, 612.719 1002.711, 609.929 1012.314, 607.139 1021.917, 604.349 1031.520, 601.559 1041.123, 598.770 1050.726, 595.980 1060.329, 593.190 1069.932, 590.400 1079.535, 587.610 1089.138, 584.820 1098.741, 582.030 1108.344, 579.240 1117.947, 576.451 1127.550, 573.661 1137.153, 570.871 1146.755, 568.081 1156.359, 565.291 1165.961, 562.501 1175.564, 559.711 1179.611, 558.536 1170.434, 554.563 1161.257, 550.591 1152.080, 546.619 1142.902, 542.646 1133.725, 538.674 1124.548, 534.701 1115.371, 530.729 1106.194, 526.757 1097.017, 522.784 1087.840, 518.812 1078.662, 514.839 1069.485, 510.867 1060.308, 506.895 1051.131, 502.922 1041.954, 498.950 1032.777, 494.977 1023.600, 491.005 1014.422, 487.032 1005.245, 483.060 996.068, 479.088 986.891, 475.115 977.714, 471.143 968.537, 467.170 961.681, 464.203 " />
            <path fill="none" stroke-width="3.0" stroke-linecap="butt" stroke-opacity="1.0" stroke="rgb(0, 0, 0)" stroke-linejoin="round" d=" M 727.134, 584.064 737.134, 584.064 747.134, 584.064 753.276, 584.064 755.766, 584.064 765.766, 584.064 775.766, 584.064 785.766, 584.064 795.766, 584.064 805.766, 584.064 815.766, 584.064 825.766, 584.064 835.766, 584.064 845.766, 584.064 855.766, 584.064 865.766, 584.064 875.766, 584.064 881.346, 584.064 881.346, 584.064 " />
            <path fill="none" stroke-width="3.0" stroke-linecap="butt" stroke-opacity="1.0" stroke="rgb(0, 0, 0)" stroke-linejoin="round" d=" M 727.134, 542.529 732.461, 534.066 737.788, 525.603 743.114, 517.140 748.441, 508.676 753.768, 500.213 759.095, 491.750 764.422, 483.287 767.139, 478.970 763.581, 488.315 760.024, 497.661 756.466, 507.007 752.909, 516.353 749.351, 525.699 745.794, 535.044 742.236, 544.390 738.678, 553.736 735.121, 563.082 731.563, 572.428 728.006, 581.773 727.134, 584.064 " />
            <path fill="none" stroke-width="3.0" stroke-linecap="butt" stroke-opacity="1.0" stroke="rgb(0, 0, 0)" stroke-linejoin="round" d=" M 1030.588, 698.667 1022.656, 692.577 1014.725, 686.486 1006.794, 680.396 1000.293, 675.403 992.361, 669.313 984.430, 663.222 976.499, 657.132 968.567, 651.041 960.636, 644.951 952.705, 638.860 944.773, 632.770 936.842, 626.679 928.911, 620.589 927.570, 619.559 919.638, 613.468 911.707, 607.378 903.776, 601.287 895.845, 595.197 887.913, 589.106 881.346, 584.064 886.914, 575.757 892.481, 567.450 898.049, 559.143 903.616, 550.836 909.184, 542.529 914.751, 534.223 919.048, 527.813 924.615, 519.506 930.182, 511.199 935.750, 502.892 941.317, 494.585 946.885, 486.279 952.452, 477.972 958.020, 469.665 961.477, 464.507 961.681, 464.203 967.248, 455.896 972.816, 447.589 978.383, 439.282 983.951, 430.976 989.518, 422.669 995.086, 414.362 1000.653, 406.055 1006.221, 397.748 1011.788, 389.442 1017.356, 381.135 1022.923, 372.828 1028.490, 364.521 1030.588, 361.392 1037.685, 354.347 1044.782, 347.302 1051.879, 340.257 1058.976, 333.212 1066.073, 326.167 1073.170, 319.122 1080.267, 312.077 1083.812, 308.558 1074.766, 312.821 1065.720, 317.084 1056.675, 321.347 1047.629, 325.610 1038.583, 329.873 1029.537, 334.136 1020.492, 338.399 1011.446, 342.663 1002.400, 346.926 993.354, 351.189 984.309, 355.452 975.263, 359.715 971.704, 361.392 964.310, 368.125 956.916, 374.857 949.521, 381.589 942.127, 388.321 934.732, 395.054 927.338, 401.786 919.944, 408.518 912.549, 415.250 905.155, 421.983 897.761, 428.715 890.366, 435.447 882.972, 442.179 875.578, 448.912 868.183, 455.644 860.789, 462.376 853.394, 469.108 847.272, 474.682 839.878, 481.415 832.484, 488.147 825.089, 494.879 817.695, 501.612 810.300, 508.344 802.906, 515.076 795.512, 521.808 789.617, 527.175 782.222, 533.908 774.828, 540.640 772.753, 542.529 765.359, 549.261 757.965, 555.994 750.570, 562.726 746.609, 566.332 743.753, 568.933 736.358, 575.665 728.964, 582.397 727.134, 584.064 " />
            <path fill="none" stroke-width="3.0" stroke-linecap="butt" stroke-opacity="1.0" stroke="rgb(0, 0, 0)" stroke-linejoin="round" d=" M 881.346, 584.064 891.310, 583.211 901.274, 582.358 911.237, 581.505 921.201, 580.652 931.164, 579.800 941.128, 578.947 951.092, 578.094 961.055, 577.241 971.019, 576.389 980.982, 575.536 990.946, 574.683 1000.909, 573.830 1010.873, 572.978 1020.837, 572.125 1030.800, 571.272 1040.764, 570.419 1050.727, 569.567 1060.691, 568.714 1070.654, 567.861 1080.618, 567.008 1090.582, 566.156 1100.545, 565.303 1110.509, 564.450 1120.472, 563.597 1130.436, 562.745 1140.399, 561.892 1150.363, 561.039 1160.327, 560.186 1170.290, 559.333 1179.611, 558.536 " />
            <path fill="none" stroke-width="3.0" stroke-linecap="butt" stroke-opacity="1.0" stroke="rgb(0, 0, 0)" stroke-linejoin="round" d=" M 971.704, 361.392 981.704, 361.392 991.704, 361.392 1001.704, 361.392 1011.704, 361.392 1021.704, 361.392 1030.588, 361.392 " />
            <path fill="none" stroke-width="3.0" stroke-linecap="butt" stroke-opacity="1.0" stroke="rgb(0, 0, 0)" stroke-linejoin="round" d=" M 1000.293, 675.403 1009.123, 680.096 1017.954, 684.788 1026.785, 689.481 1035.615, 694.173 1044.446, 698.865 1053.277, 703.558 1062.107, 708.250 1070.938, 712.943 1079.769, 717.635 1083.812, 719.783 1073.985, 717.932 1064.158, 716.081 1054.330, 714.230 1044.503, 712.379 1034.676, 710.528 1024.849, 708.677 1015.022, 706.826 1005.194, 704.975 995.367, 703.124 985.540, 701.273 975.713, 699.422 971.704, 698.667 962.649, 694.424 953.594, 690.181 944.539, 685.938 935.484, 681.695 926.429, 677.451 917.373, 673.208 908.318, 668.965 899.263, 664.722 890.208, 660.479 881.153, 656.236 872.098, 651.992 863.043, 647.749 853.987, 643.506 844.932, 639.263 835.877, 635.020 826.822, 630.777 817.767, 626.533 808.712, 622.290 799.657, 618.047 790.601, 613.804 781.546, 609.561 775.038, 606.511 765.983, 602.268 764.905, 601.763 764.212, 601.438 755.157, 597.195 746.102, 592.952 737.047, 588.708 727.991, 584.465 727.134, 584.064 735.894, 588.886 744.654, 593.709 753.414, 598.532 762.174, 603.355 767.139, 606.088 775.038, 606.511 " />
            <path fill="none" stroke-width="3.0" stroke-linecap="butt" stroke-opacity="1.0" stroke="rgb(0, 0, 0)" stroke-linejoin="round" d=" M 1083.812, 719.783 1074.517, 716.096 1065.222, 712.408 1055.926, 708.720 1046.631, 705.032 1037.336, 701.345 1030.588, 698.667 1020.588, 698.667 1010.588, 698.667 1000.588, 698.667 990.588, 698.667 980.588, 698.667 971.704, 698.667 " />
        </g>
    </g>
</svg>
