<?xml version='1.0' encoding='ascii'?>
<svg xmlns="http://www.w3.org/2000/svg" version="1.1" width="1920" height="1080">
    <g id="ViewLayer_LineSet" xmlns:inkscape="http://www.inkscape.org/namespaces/inkscape" inkscape:groupmode="lineset" inkscape:label="ViewLayer_LineSet">
        <g xmlns:inkscape="http://www.inkscape.org/namespaces/inkscape" inkscape:groupmode="layer" id="strokes" inkscape:label="strokes">
            <path fill="none" stroke-width="3.0" stroke-linecap="butt" stroke-opacity="1.0" stroke="rgb(0, 0, 0)" stroke-linejoin="round" d=" M 953.117, 631.647 954.697, 631.938 963.924, 628.084 973.152, 624.230 982.379, 620.376 991.607, 616.522 1000.835, 612.669 1010.062, 608.815 1019.290, 604.961 1028.517, 601.107 1037.745, 597.253 1046.972, 593.399 1056.200, 589.546 1065.427, 585.692 1074.655, 581.838 1083.883, 577.984 1093.110, 574.130 1102.338, 570.276 1111.565, 566.423 1120.793, 562.569 1130.021, 558.715 1139.248, 554.861 1148.476, 551.007 1157.703, 547.153 1166.931, 543.300 1176.158, 539.446 1179.611, 538.004 1170.384, 534.150 1161.156, 530.296 1151.928, 526.442 1142.701, 522.588 1133.473, 518.734 1124.246, 514.881 1115.018, 511.027 1105.791, 507.173 1096.563, 503.319 1087.336, 499.465 1078.108, 495.611 1068.880, 491.758 1059.653, 487.904 1050.425, 484.050 1041.198, 480.196 1031.970, 476.342 1022.743, 472.488 1013.515, 468.635 1004.287, 464.781 995.060, 460.927 985.832, 457.073 976.605, 453.219 967.377, 449.365 958.150, 445.512 954.697, 444.070 953.117, 444.360 " />
            <path fill="none" stroke-width="3.0" stroke-linecap="butt" stroke-opacity="1.0" stroke="rgb(0, 0, 0)" stroke-linejoin="round" d=" M 823.701, 461.117 813.720, 461.734 803.739, 462.351 793.758, 462.967 783.777, 463.584 773.796, 464.200 767.139, 464.612 762.353, 473.392 757.567, 482.172 752.781, 490.953 747.995, 499.733 743.209, 508.513 738.423, 517.294 733.637, 526.074 728.851, 534.854 727.134, 538.004 " />
            <path fill="none" stroke-width="3.0" stroke-linecap="butt" stroke-opacity="1.0" stroke="rgb(0, 0, 0)" stroke-linejoin="round" d=" M 881.347, 538.004 887.430, 530.067 893.513, 522.130 899.596, 514.193 905.679, 506.256 911.762, 498.318 917.845, 490.381 923.928, 482.444 930.011, 474.507 936.094, 466.570 942.177, 458.633 948.260, 450.696 953.117, 444.360 959.200, 436.423 965.283, 428.486 971.366, 420.549 977.449, 412.612 983.532, 404.675 989.615, 396.738 995.698, 388.801 1001.781, 380.864 1007.864, 372.927 1013.947, 364.990 1020.030, 357.053 1026.114, 349.116 1030.588, 343.278 1038.388, 337.021 1046.188, 330.763 1053.989, 324.506 1061.789, 318.249 1069.590, 311.991 1077.390, 305.734 1083.812, 300.582 1074.467, 304.141 1065.122, 307.700 1055.777, 311.259 1046.431, 314.819 1037.086, 318.378 1027.741, 321.937 1018.396, 325.496 1009.050, 329.055 999.705, 332.614 990.360, 336.173 981.015, 339.732 971.704, 343.278 963.881, 349.507 956.058, 355.735 948.235, 361.964 940.412, 368.193 932.589, 374.422 924.765, 380.651 916.942, 386.879 909.119, 393.108 901.296, 399.337 893.473, 405.566 885.649, 411.794 877.826, 418.023 870.003, 424.252 862.180, 430.481 854.357, 436.710 846.533, 442.938 838.710, 449.167 830.887, 455.396 823.701, 461.117 815.878, 467.346 808.055, 473.575 800.232, 479.804 792.408, 486.033 784.585, 492.261 776.762, 498.490 768.939, 504.719 761.116, 510.948 753.292, 517.176 745.469, 523.405 737.646, 529.634 729.823, 535.863 727.134, 538.004 " />
            <path fill="none" stroke-width="3.0" stroke-linecap="butt" stroke-opacity="1.0" stroke="rgb(0, 0, 0)" stroke-linejoin="round" d=" M 881.347, 538.004 891.347, 538.004 901.347, 538.004 911.347, 538.004 921.347, 538.004 931.347, 538.004 941.347, 538.004 951.347, 538.004 961.347, 538.004 971.347, 538.004 981.347, 538.004 991.347, 538.004 1001.347, 538.004 1011.347, 538.004 1021.347, 538.004 1031.347, 538.004 1041.347, 538.004 1051.347, 538.004 1061.347, 538.004 1071.347, 538.004 1081.347, 538.004 1091.347, 538.004 1101.347, 538.004 1111.347, 538.004 1121.347, 538.004 1131.347, 538.004 1141.347, 538.004 1151.347, 538.004 1161.347, 538.004 1171.347, 538.004 1179.611, 538.004 " />
            <path fill="none" stroke-width="3.0" stroke-linecap="butt" stroke-opacity="1.0" stroke="rgb(0, 0, 0)" stroke-linejoin="round" d=" M 971.704, 343.278 981.704, 343.278 991.704, 343.278 1001.704, 343.278 1011.704, 343.278 1021.704, 343.278 1030.588, 343.278 " />
            <path fill="none" stroke-width="3.0" stroke-linecap="butt" stroke-opacity="1.0" stroke="rgb(0, 0, 0)" stroke-linejoin="round" d=" M 727.134, 538.004 731.920, 546.784 736.706, 555.564 741.492, 564.345 746.278, 573.125 751.064, 581.905 755.850, 590.685 760.636, 599.466 765.422, 608.246 767.139, 611.396 777.120, 612.012 787.101, 612.629 797.082, 613.245 807.063, 613.862 817.044, 614.479 823.701, 614.890 " />
            <path fill="none" stroke-width="3.0" stroke-linecap="butt" stroke-opacity="1.0" stroke="rgb(0, 0, 0)" stroke-linejoin="round" d=" M 727.134, 538.004 734.957, 544.232 742.781, 550.461 750.604, 556.690 758.427, 562.919 766.250, 569.148 774.073, 575.376 781.896, 581.605 789.720, 587.834 797.543, 594.063 805.366, 600.291 813.189, 606.520 821.012, 612.749 823.701, 614.890 831.524, 621.119 839.347, 627.347 847.171, 633.576 854.994, 639.805 862.817, 646.034 870.640, 652.263 878.463, 658.491 886.287, 664.720 894.110, 670.949 901.933, 677.178 909.756, 683.406 917.579, 689.635 925.403, 695.864 933.226, 702.093 941.049, 708.322 948.872, 714.550 956.695, 720.779 964.518, 727.008 971.704, 732.729 981.050, 736.289 990.395, 739.848 999.740, 743.407 1009.085, 746.966 1018.430, 750.525 1027.776, 754.084 1037.121, 757.643 1046.466, 761.202 1055.811, 764.761 1065.156, 768.320 1074.502, 771.879 1083.812, 775.425 1076.012, 769.168 1068.211, 762.910 1060.411, 756.653 1052.611, 750.396 1044.810, 744.138 1037.010, 737.881 1030.588, 732.729 1024.505, 724.792 1018.422, 716.855 1012.339, 708.918 1006.255, 700.981 1000.172, 693.044 994.089, 685.107 988.006, 677.170 981.923, 669.233 975.840, 661.296 969.757, 653.359 963.674, 645.422 957.591, 637.485 953.117, 631.647 947.034, 623.710 940.951, 615.773 934.867, 607.836 928.784, 599.899 922.701, 591.962 916.618, 584.025 910.535, 576.088 904.452, 568.151 898.369, 560.214 892.286, 552.277 886.203, 544.340 881.347, 538.004 871.347, 538.004 861.347, 538.004 851.347, 538.004 841.347, 538.004 831.347, 538.004 821.347, 538.004 811.347, 538.004 801.347, 538.004 791.347, 538.004 781.347, 538.004 771.347, 538.004 761.347, 538.004 751.347, 538.004 741.347, 538.004 731.347, 538.004 727.134, 538.004 " />
            <path fill="none" stroke-width="3.0" stroke-linecap="butt" stroke-opacity="1.0" stroke="rgb(0, 0, 0)" stroke-linejoin="round" d=" M 1030.588, 732.729 1020.588, 732.729 1010.588, 732.729 1000.588, 732.729 990.588, 732.729 980.588, 732.729 971.704, 732.729 " />
        </g>
    </g>
</svg>
