<?xml version='1.0' encoding='ascii'?>
<svg xmlns="http://www.w3.org/2000/svg" version="1.1" width="1920" height="1080">
    <g id="ViewLayer_LineSet" xmlns:inkscape="http://www.inkscape.org/namespaces/inkscape" inkscape:groupmode="lineset" inkscape:label="ViewLayer_LineSet">
        <g xmlns:inkscape="http://www.inkscape.org/namespaces/inkscape" inkscape:groupmode="layer" id="strokes" inkscape:label="strokes">
            <path fill="none" stroke-width="3.0" stroke-linecap="butt" stroke-opacity="1.0" stroke="rgb(0, 0, 0)" stroke-linejoin="round" d=" M 858.046, 488.743 848.055, 489.179 838.065, 489.616 828.074, 490.052 818.084, 490.488 808.093, 490.925 798.103, 491.361 788.112, 491.798 778.122, 492.234 768.131, 492.671 767.139, 492.714 759.351, 498.987 751.563, 505.260 743.775, 511.533 735.987, 517.805 728.200, 524.078 727.134, 524.937 727.134, 534.937 727.134, 544.610 727.134, 554.610 727.134, 564.610 727.134, 574.610 727.134, 584.610 727.134, 594.610 727.134, 603.349 " />
            <path fill="none" stroke-width="3.0" stroke-linecap="butt" stroke-opacity="1.0" stroke="rgb(0, 0, 0)" stroke-linejoin="round" d=" M 1179.611, 567.247 1170.313, 563.565 1161.016, 559.884 1151.718, 556.202 1142.420, 552.521 1133.123, 548.839 1123.825, 545.158 1114.527, 541.476 1105.230, 537.794 1095.932, 534.113 1086.635, 530.431 1077.337, 526.750 1068.039, 523.068 1058.742, 519.387 1049.444, 515.705 1040.146, 512.024 1030.849, 508.342 1021.551, 504.661 1012.253, 500.979 1002.956, 497.297 993.658, 493.616 984.360, 489.934 975.063, 486.253 965.583, 482.499 " />
            <path fill="none" stroke-width="3.0" stroke-linecap="butt" stroke-opacity="1.0" stroke="rgb(0, 0, 0)" stroke-linejoin="round" d=" M 727.134, 603.349 737.134, 603.349 747.134, 603.349 757.134, 603.349 767.134, 603.349 777.134, 603.349 787.134, 603.349 797.134, 603.349 807.134, 603.349 817.134, 603.349 827.134, 603.349 837.134, 603.349 847.134, 603.349 857.134, 603.349 867.134, 603.349 877.134, 603.349 881.346, 603.349 " />
            <path fill="none" stroke-width="3.0" stroke-linecap="butt" stroke-opacity="1.0" stroke="rgb(0, 0, 0)" stroke-linejoin="round" d=" M 727.134, 544.610 733.239, 536.690 739.344, 528.770 745.450, 520.850 751.555, 512.930 757.660, 505.010 763.765, 497.090 767.139, 492.714 763.738, 502.118 760.338, 511.522 756.937, 520.926 753.537, 530.330 750.136, 539.734 746.736, 549.138 743.336, 558.542 739.935, 567.947 736.535, 577.351 733.134, 586.755 729.734, 596.159 727.134, 603.349 " />
            <path fill="none" stroke-width="3.0" stroke-linecap="butt" stroke-opacity="1.0" stroke="rgb(0, 0, 0)" stroke-linejoin="round" d=" M 888.730, 602.455 898.647, 603.744 908.563, 605.033 918.480, 606.323 928.396, 607.612 938.313, 608.901 948.230, 610.191 954.696, 611.031 964.512, 609.120 974.328, 607.210 984.144, 605.299 993.959, 603.388 1003.775, 601.477 1013.591, 599.566 1023.407, 597.655 1033.222, 595.745 1043.038, 593.834 1052.854, 591.923 1062.670, 590.012 1072.485, 588.101 1082.301, 586.190 1092.117, 584.279 1101.932, 582.369 1111.748, 580.458 1121.564, 578.547 1131.380, 576.636 1141.195, 574.725 1151.011, 572.814 1160.827, 570.904 1170.643, 568.993 1179.611, 567.247 1169.683, 568.448 1159.756, 569.650 1149.828, 570.852 1139.901, 572.053 1129.973, 573.255 1120.046, 574.457 1110.118, 575.658 1100.191, 576.860 1090.263, 578.061 1080.336, 579.263 1070.408, 580.465 1060.480, 581.666 1050.553, 582.868 1040.625, 584.070 1030.698, 585.271 1020.770, 586.473 1013.905, 587.304 1003.977, 588.505 994.050, 589.707 984.122, 590.909 974.195, 592.110 964.267, 593.312 954.339, 594.514 944.412, 595.715 934.484, 596.917 924.557, 598.118 914.629, 599.320 904.702, 600.522 894.774, 601.723 888.730, 602.455 885.281, 602.872 881.346, 603.349 882.385, 601.858 882.531, 601.649 882.751, 601.334 888.469, 593.130 894.188, 584.926 899.906, 576.722 905.624, 568.519 911.343, 560.315 917.061, 552.111 922.779, 543.908 928.497, 535.704 934.216, 527.500 935.604, 525.509 941.322, 517.305 947.040, 509.101 952.759, 500.898 958.477, 492.694 964.195, 484.490 965.555, 482.540 965.583, 482.499 971.301, 474.295 977.020, 466.092 982.738, 457.888 988.456, 449.684 994.175, 441.481 999.893, 433.277 1005.611, 425.073 1011.330, 416.869 1017.048, 408.666 1022.766, 400.462 1028.484, 392.258 1030.588, 389.241 1037.699, 382.211 1044.810, 375.180 1051.922, 368.150 1059.033, 361.119 1066.145, 354.089 1073.256, 347.058 1080.367, 340.028 1083.812, 336.623 1074.760, 340.871 1065.707, 345.120 1056.655, 349.369 1047.602, 353.618 1038.550, 357.867 1029.497, 362.116 1020.445, 366.365 1011.392, 370.613 1002.340, 374.862 993.287, 379.111 984.235, 383.360 975.182, 387.609 971.704, 389.241 964.180, 395.828 956.656, 402.415 949.132, 409.002 941.608, 415.589 934.084, 422.176 926.560, 428.763 919.035, 435.350 911.511, 441.937 903.987, 448.524 896.463, 455.111 888.939, 461.698 881.415, 468.284 873.891, 474.871 866.367, 481.458 858.046, 488.743 850.522, 495.330 842.997, 501.917 835.473, 508.504 827.949, 515.091 820.172, 521.899 812.648, 528.486 805.124, 535.073 797.600, 541.660 794.230, 544.610 786.706, 551.197 779.182, 557.784 771.657, 564.371 764.133, 570.958 756.563, 577.585 754.169, 579.681 746.645, 586.268 739.121, 592.855 731.597, 599.442 727.134, 603.349 736.834, 605.779 746.534, 608.209 756.234, 610.640 765.935, 613.070 775.635, 615.500 785.335, 617.931 795.035, 620.361 804.735, 622.791 814.435, 625.222 824.136, 627.652 833.836, 630.082 843.536, 632.513 853.236, 634.943 862.936, 637.374 872.636, 639.804 882.337, 642.234 892.037, 644.665 901.737, 647.095 911.437, 649.525 921.137, 651.956 930.837, 654.386 940.538, 656.816 950.238, 659.247 959.938, 661.677 971.704, 664.625 981.680, 665.316 991.656, 666.007 1001.632, 666.697 1011.609, 667.388 1021.585, 668.079 1031.561, 668.769 1041.537, 669.460 1051.513, 670.151 1061.489, 670.842 1071.465, 671.532 1081.441, 672.223 1083.812, 672.387 1074.374, 669.082 1064.936, 665.778 1055.497, 662.473 1046.059, 659.168 1036.621, 655.864 1027.183, 652.559 1017.745, 649.254 1008.307, 645.949 998.868, 642.645 989.430, 639.340 979.992, 636.035 970.554, 632.730 961.116, 629.426 951.678, 626.121 942.240, 622.816 932.801, 619.512 923.363, 616.207 913.925, 612.902 904.487, 609.597 895.049, 606.293 885.281, 602.872 " />
            <path fill="none" stroke-width="3.0" stroke-linecap="butt" stroke-opacity="1.0" stroke="rgb(0, 0, 0)" stroke-linejoin="round" d=" M 971.704, 389.241 981.704, 389.241 991.704, 389.241 1001.704, 389.241 1011.704, 389.241 1021.704, 389.241 1030.588, 389.241 " />
            <path fill="none" stroke-width="3.0" stroke-linecap="butt" stroke-opacity="1.0" stroke="rgb(0, 0, 0)" stroke-linejoin="round" d=" M 1030.587, 664.625 1020.587, 664.625 1010.587, 664.625 1000.587, 664.625 990.587, 664.625 980.587, 664.625 971.704, 664.625 " />
            <path fill="none" stroke-width="3.0" stroke-linecap="butt" stroke-opacity="1.0" stroke="rgb(0, 0, 0)" stroke-linejoin="round" d=" M 1083.812, 672.387 1073.917, 670.944 1064.021, 669.501 1054.126, 668.058 1044.231, 666.615 1034.335, 665.172 1030.587, 664.625 1021.337, 660.827 1012.086, 657.029 1002.836, 653.231 993.585, 649.432 984.334, 645.634 975.084, 641.836 965.833, 638.038 956.583, 634.240 947.332, 630.441 938.081, 626.643 928.831, 622.845 919.580, 619.047 910.330, 615.249 901.079, 611.450 891.828, 607.652 881.346, 603.349 " />
        </g>
    </g>
</svg>
