<?xml version='1.0' encoding='ascii'?>
<svg xmlns="http://www.w3.org/2000/svg" version="1.1" width="1920" height="1080">
    <g id="ViewLayer_LineSet" xmlns:inkscape="http://www.inkscape.org/namespaces/inkscape" inkscape:groupmode="lineset" inkscape:label="ViewLayer_LineSet">
        <g xmlns:inkscape="http://www.inkscape.org/namespaces/inkscape" inkscape:groupmode="layer" id="strokes" inkscape:label="strokes">
            <path fill="none" stroke-width="3.0" stroke-linecap="butt" stroke-opacity="1.0" stroke="rgb(0, 0, 0)" stroke-linejoin="round" d=" M 727.936, 549.956 723.517, 551.488 727.936, 553.020 728.794, 553.318 729.090, 553.421 738.538, 556.697 747.987, 559.973 757.435, 563.249 766.883, 566.525 776.331, 569.801 785.779, 573.077 795.227, 576.353 804.675, 579.629 814.124, 582.905 823.572, 586.181 827.540, 587.557 837.352, 589.491 847.163, 591.425 856.974, 593.358 866.785, 595.292 876.597, 597.226 886.408, 599.160 891.815, 600.225 " />
            <path fill="none" stroke-width="3.0" stroke-linecap="butt" stroke-opacity="1.0" stroke="rgb(0, 0, 0)" stroke-linejoin="round" d=" M 1057.142, 519.535 1066.477, 515.949 1075.812, 512.364 1085.147, 508.778 1094.483, 505.193 1103.818, 501.607 1113.153, 498.021 1122.488, 494.436 1131.823, 490.850 1141.158, 487.264 1150.493, 483.679 1153.057, 482.694 1143.067, 483.137 1133.077, 483.581 1123.087, 484.025 1113.097, 484.469 1103.107, 484.913 1093.116, 485.357 1083.126, 485.800 1073.136, 486.244 1063.146, 486.688 1053.156, 487.132 1043.166, 487.576 1033.176, 488.019 1023.185, 488.463 1015.345, 488.812 " />
            <path fill="none" stroke-width="3.0" stroke-linecap="butt" stroke-opacity="1.0" stroke="rgb(0, 0, 0)" stroke-linejoin="round" d=" M 827.540, 515.419 818.092, 518.695 808.644, 521.971 799.196, 525.247 789.748, 528.523 780.300, 531.799 770.851, 535.075 761.403, 538.352 751.955, 541.628 742.507, 544.904 733.059, 548.180 729.090, 549.556 " />
            <path fill="none" stroke-width="3.0" stroke-linecap="butt" stroke-opacity="1.0" stroke="rgb(0, 0, 0)" stroke-linejoin="round" d=" M 1057.142, 501.501 1047.574, 498.596 1038.005, 495.691 1028.436, 492.786 1018.867, 489.881 1015.345, 488.812 1005.776, 485.907 996.207, 483.002 986.638, 480.097 977.070, 477.192 967.501, 474.287 957.932, 471.382 948.363, 468.477 938.794, 465.573 929.226, 462.668 919.657, 459.763 910.088, 456.858 900.519, 453.953 890.159, 450.808 880.288, 449.202 875.130, 448.364 865.135, 448.652 855.139, 448.941 845.143, 449.230 835.147, 449.519 825.151, 449.808 815.156, 450.097 805.160, 450.386 795.164, 450.675 785.168, 450.964 775.172, 451.253 765.176, 451.542 755.181, 451.831 745.185, 452.120 735.189, 452.409 726.786, 452.652 736.355, 455.557 745.924, 458.462 755.493, 461.367 765.062, 464.271 774.630, 467.176 784.199, 470.081 793.768, 472.986 803.337, 475.891 812.906, 478.796 822.474, 481.701 832.043, 484.606 841.612, 487.511 851.181, 490.415 860.749, 493.320 870.318, 496.225 879.887, 499.130 889.456, 502.035 893.770, 503.345 883.932, 505.138 874.094, 506.932 864.257, 508.725 854.419, 510.519 844.581, 512.312 834.743, 514.106 827.540, 515.419 835.629, 521.299 843.718, 527.179 847.414, 529.865 847.725, 530.091 847.744, 530.106 850.866, 532.375 854.955, 535.347 863.043, 541.227 864.001, 541.923 872.090, 547.803 873.986, 549.181 874.053, 549.230 874.980, 549.904 880.989, 554.271 " />
            <path fill="none" stroke-width="3.0" stroke-linecap="butt" stroke-opacity="1.0" stroke="rgb(0, 0, 0)" stroke-linejoin="round" d=" M 1057.142, 501.501 1066.955, 499.576 1076.769, 497.652 1086.582, 495.728 1096.395, 493.804 1106.208, 491.880 1116.021, 489.956 1125.834, 488.031 1135.647, 486.107 1145.461, 484.183 1153.057, 482.694 1143.413, 485.335 1133.768, 487.977 1124.123, 490.619 1114.479, 493.261 1104.834, 495.903 1095.189, 498.545 1085.544, 501.187 1075.900, 503.829 1066.255, 506.471 1056.610, 509.113 1046.718, 511.823 1039.821, 519.065 1032.925, 526.306 1028.688, 530.757 " />
            <path fill="none" stroke-width="3.0" stroke-linecap="butt" stroke-opacity="1.0" stroke="rgb(0, 0, 0)" stroke-linejoin="round" d=" M 893.770, 503.345 903.766, 503.056 913.762, 502.767 923.758, 502.478 927.698, 502.364 937.693, 502.075 947.689, 501.786 957.685, 501.497 967.681, 501.208 977.677, 500.919 987.673, 500.630 997.668, 500.341 1007.664, 500.052 1017.660, 499.763 1027.656, 499.474 1037.652, 499.185 1042.114, 499.056 " />
            <path fill="none" stroke-width="3.0" stroke-linecap="butt" stroke-opacity="1.0" stroke="rgb(0, 0, 0)" stroke-linejoin="round" d=" M 1042.114, 499.056 1032.545, 496.151 1022.977, 493.247 1013.408, 490.342 1009.259, 489.082 999.690, 486.177 990.121, 483.272 980.552, 480.367 970.983, 477.462 961.415, 474.558 951.846, 471.653 942.277, 468.748 932.708, 465.843 923.140, 462.938 913.571, 460.033 904.002, 457.128 894.433, 454.223 884.864, 451.319 875.130, 448.364 " />
            <path fill="none" stroke-width="3.0" stroke-linecap="butt" stroke-opacity="1.0" stroke="rgb(0, 0, 0)" stroke-linejoin="round" d=" M 1057.142, 501.501 1047.272, 499.895 1042.114, 499.056 1035.677, 502.561 1026.894, 507.342 1018.111, 512.123 1012.058, 515.419 " />
            <path fill="none" stroke-width="3.0" stroke-linecap="butt" stroke-opacity="1.0" stroke="rgb(0, 0, 0)" stroke-linejoin="round" d=" M 1016.979, 522.844 1025.810, 518.152 1034.640, 513.459 1043.471, 508.766 1052.301, 504.073 1057.142, 501.501 1050.036, 508.537 1046.718, 511.823 1054.757, 517.770 1057.142, 519.535 1051.004, 527.429 1044.866, 535.324 1044.500, 535.794 " />
            <path fill="none" stroke-width="3.0" stroke-linecap="butt" stroke-opacity="1.0" stroke="rgb(0, 0, 0)" stroke-linejoin="round" d=" M 840.664, 552.781 839.765, 550.221 837.687, 544.302 834.372, 534.867 833.996, 533.796 830.682, 524.362 827.540, 515.419 837.540, 515.419 847.540, 515.419 857.540, 515.419 867.540, 515.419 877.540, 515.419 887.540, 515.419 889.683, 515.419 899.683, 515.419 899.812, 515.419 909.812, 515.419 919.812, 515.419 929.812, 515.419 939.812, 515.419 949.812, 515.419 959.812, 515.419 969.812, 515.419 979.812, 515.419 989.812, 515.419 999.812, 515.419 1009.812, 515.419 1012.058, 515.419 1017.031, 524.095 1019.099, 527.703 1023.660, 535.659 1024.219, 536.634 1029.192, 545.309 1034.166, 553.985 1036.112, 557.381 1041.086, 566.057 1042.114, 567.851 " />
            <path fill="none" stroke-width="3.0" stroke-linecap="butt" stroke-opacity="1.0" stroke="rgb(0, 0, 0)" stroke-linejoin="round" d=" M 727.936, 553.020 726.786, 553.487 729.090, 553.421 " />
            <path fill="none" stroke-width="3.0" stroke-linecap="butt" stroke-opacity="1.0" stroke="rgb(0, 0, 0)" stroke-linejoin="round" d=" M 726.786, 553.487 728.794, 553.318 " />
            <path fill="none" stroke-width="3.0" stroke-linecap="butt" stroke-opacity="1.0" stroke="rgb(0, 0, 0)" stroke-linejoin="round" d=" M 1046.041, 566.692 1055.569, 563.657 1065.098, 560.622 1074.626, 557.587 1084.154, 554.552 1093.772, 551.488 1084.244, 548.453 1074.715, 545.418 1065.187, 542.383 1055.659, 539.348 1047.565, 536.770 1044.500, 535.794 1042.182, 535.055 1032.654, 532.020 1028.688, 530.757 1020.494, 528.147 " />
            <path fill="none" stroke-width="3.0" stroke-linecap="butt" stroke-opacity="1.0" stroke="rgb(0, 0, 0)" stroke-linejoin="round" d=" M 827.540, 587.557 837.466, 588.770 837.685, 588.797 " />
            <path fill="none" stroke-width="3.0" stroke-linecap="butt" stroke-opacity="1.0" stroke="rgb(0, 0, 0)" stroke-linejoin="round" d=" M 837.685, 588.797 843.133, 580.412 847.829, 573.184 " />
            <path fill="none" stroke-width="3.0" stroke-linecap="butt" stroke-opacity="1.0" stroke="rgb(0, 0, 0)" stroke-linejoin="round" d=" M 847.829, 573.184 837.978, 571.464 828.127, 569.745 818.276, 568.026 816.384, 567.696 " />
            <path fill="none" stroke-width="3.0" stroke-linecap="butt" stroke-opacity="1.0" stroke="rgb(0, 0, 0)" stroke-linejoin="round" d=" M 847.829, 573.184 857.287, 576.432 866.745, 579.680 876.203, 582.928 885.661, 586.176 895.118, 589.424 904.576, 592.672 907.535, 593.688 915.909, 596.564 918.709, 597.525 927.698, 600.612 937.155, 603.861 946.613, 607.109 956.071, 610.357 960.000, 611.706 969.990, 612.150 972.450, 612.259 982.440, 612.703 989.225, 613.004 999.215, 613.448 1002.532, 613.596 1004.247, 613.672 1004.819, 613.697 1009.259, 613.894 1015.345, 614.165 1017.738, 614.271 1020.747, 614.405 1030.737, 614.849 1040.727, 615.292 1050.717, 615.736 1060.707, 616.180 1070.697, 616.624 1080.687, 617.068 1090.677, 617.512 1100.668, 617.955 1110.658, 618.399 1120.648, 618.843 1130.638, 619.287 1140.628, 619.731 1150.618, 620.174 1153.057, 620.283 1143.722, 616.697 1134.387, 613.112 1125.052, 609.526 1115.717, 605.940 1106.382, 602.355 1097.047, 598.769 1087.712, 595.183 1078.377, 591.598 1069.042, 588.012 1059.707, 584.426 1057.142, 583.441 " />
            <path fill="none" stroke-width="3.0" stroke-linecap="butt" stroke-opacity="1.0" stroke="rgb(0, 0, 0)" stroke-linejoin="round" d=" M 960.000, 611.706 953.096, 604.472 950.029, 601.258 944.948, 595.935 938.044, 588.701 931.140, 581.467 926.885, 577.009 " />
            <path fill="none" stroke-width="3.0" stroke-linecap="butt" stroke-opacity="1.0" stroke="rgb(0, 0, 0)" stroke-linejoin="round" d=" M 1042.114, 567.851 1032.149, 567.011 1030.823, 566.899 1026.953, 566.573 1023.112, 566.249 1022.993, 566.239 1020.960, 566.068 1014.198, 565.498 1013.314, 565.424 1003.349, 564.584 993.384, 563.744 983.420, 562.904 973.455, 562.064 963.490, 561.225 953.526, 560.385 943.561, 559.545 933.596, 558.705 923.632, 557.865 916.976, 557.304 907.011, 556.465 897.047, 555.625 891.660, 555.171 881.696, 554.331 880.989, 554.271 875.130, 553.778 867.083, 553.545 865.253, 553.492 862.536, 553.414 852.540, 553.125 842.544, 552.836 841.572, 552.808 840.664, 552.781 840.663, 552.781 839.764, 552.755 829.768, 552.466 819.772, 552.177 809.777, 551.888 799.781, 551.599 795.934, 551.488 785.938, 551.199 775.942, 550.910 765.947, 550.621 762.108, 550.510 752.112, 550.221 742.116, 549.932 735.978, 549.755 733.808, 549.692 729.090, 549.556 726.786, 549.489 727.936, 549.956 729.247, 550.488 731.710, 551.488 734.940, 552.800 735.978, 553.221 737.885, 553.996 747.150, 557.758 756.416, 561.520 759.901, 562.935 769.889, 563.429 779.877, 563.922 789.865, 564.415 799.853, 564.908 809.841, 565.402 819.828, 565.895 829.816, 566.388 838.283, 566.806 838.322, 566.808 848.309, 567.301 858.297, 567.795 868.285, 568.288 878.273, 568.781 888.261, 569.274 890.159, 569.368 900.123, 570.208 910.088, 571.048 918.400, 571.748 928.365, 572.588 938.329, 573.428 948.294, 574.268 958.259, 575.107 968.223, 575.947 978.188, 576.787 988.153, 577.627 998.117, 578.467 1008.082, 579.306 1011.509, 579.595 1021.474, 580.435 1023.220, 580.582 1033.184, 581.422 1037.823, 581.813 1038.176, 581.843 1048.140, 582.683 1057.142, 583.441 1047.155, 582.948 1038.847, 582.538 1038.496, 582.520 1028.509, 582.027 1022.580, 581.734 1012.592, 581.241 1011.094, 581.167 1001.106, 580.674 991.118, 580.181 981.130, 579.687 971.143, 579.194 961.155, 578.701 951.167, 578.208 941.179, 577.715 931.191, 577.221 926.885, 577.009 " />
            <path fill="none" stroke-width="3.0" stroke-linecap="butt" stroke-opacity="1.0" stroke="rgb(0, 0, 0)" stroke-linejoin="round" d=" M 1042.114, 567.851 1042.182, 567.921 1049.122, 575.121 1056.062, 582.321 1057.142, 583.441 " />
            <path fill="none" stroke-width="3.0" stroke-linecap="butt" stroke-opacity="1.0" stroke="rgb(0, 0, 0)" stroke-linejoin="round" d=" M 726.786, 650.324 736.692, 648.952 746.597, 647.579 756.503, 646.207 759.901, 645.736 769.889, 646.229 779.877, 646.722 789.865, 647.216 799.853, 647.709 809.841, 648.202 819.828, 648.695 829.816, 649.189 839.804, 649.682 849.792, 650.175 859.780, 650.668 869.768, 651.162 879.755, 651.655 890.159, 652.169 899.727, 649.264 909.296, 646.359 918.865, 643.454 928.434, 640.549 938.003, 637.644 947.571, 634.739 957.140, 631.834 966.709, 628.930 976.278, 626.025 985.847, 623.120 994.559, 620.475 994.613, 620.458 994.664, 620.443 995.823, 620.091 997.684, 619.526 1001.252, 618.443 1002.066, 618.196 1002.370, 618.104 1011.939, 615.199 1015.345, 614.165 " />
            <path fill="none" stroke-width="3.0" stroke-linecap="butt" stroke-opacity="1.0" stroke="rgb(0, 0, 0)" stroke-linejoin="round" d=" M 890.159, 652.169 880.288, 653.774 875.130, 654.613 865.135, 654.324 855.139, 654.035 845.143, 653.746 835.147, 653.457 825.151, 653.168 815.156, 652.879 805.160, 652.590 795.164, 652.301 785.168, 652.012 775.172, 651.723 765.176, 651.434 755.181, 651.145 745.185, 650.856 735.189, 650.567 726.786, 650.324 736.355, 647.420 745.924, 644.515 755.493, 641.610 765.062, 638.705 774.630, 635.800 784.199, 632.895 793.768, 629.990 803.337, 627.085 812.906, 624.180 822.474, 621.276 832.043, 618.371 841.612, 615.466 851.181, 612.561 860.749, 609.656 870.318, 606.751 879.887, 603.846 889.456, 600.941 891.815, 600.225 892.818, 599.921 893.770, 599.632 883.952, 597.735 874.133, 595.838 864.315, 593.941 854.496, 592.045 844.678, 590.148 837.685, 588.797 847.660, 589.496 857.636, 590.194 867.612, 590.893 877.587, 591.591 887.563, 592.290 897.538, 592.988 907.535, 593.688 " />
            <path fill="none" stroke-width="3.0" stroke-linecap="butt" stroke-opacity="1.0" stroke="rgb(0, 0, 0)" stroke-linejoin="round" d=" M 890.159, 569.368 883.219, 562.168 876.279, 554.969 875.130, 553.778 " />
            <path fill="none" stroke-width="3.0" stroke-linecap="butt" stroke-opacity="1.0" stroke="rgb(0, 0, 0)" stroke-linejoin="round" d=" M 759.901, 562.935 769.866, 563.775 779.831, 564.615 789.795, 565.455 799.760, 566.295 809.725, 567.134 816.384, 567.696 826.349, 568.535 833.995, 569.180 836.548, 569.395 846.512, 570.235 846.802, 570.259 846.802, 570.259 847.211, 570.294 857.176, 571.134 867.141, 571.973 877.105, 572.813 887.070, 573.653 897.035, 574.493 906.999, 575.333 916.964, 576.172 926.885, 577.009 " />
            <path fill="none" stroke-width="3.0" stroke-linecap="butt" stroke-opacity="1.0" stroke="rgb(0, 0, 0)" stroke-linejoin="round" d=" M 837.685, 588.797 847.487, 590.775 857.290, 592.753 867.092, 594.730 876.895, 596.708 886.697, 598.686 892.818, 599.921 " />
            <path fill="none" stroke-width="3.0" stroke-linecap="butt" stroke-opacity="1.0" stroke="rgb(0, 0, 0)" stroke-linejoin="round" d=" M 1000.411, 621.628 994.664, 620.443 " />
            <path fill="none" stroke-width="3.0" stroke-linecap="butt" stroke-opacity="1.0" stroke="rgb(0, 0, 0)" stroke-linejoin="round" d=" M 737.885, 553.996 733.808, 553.284 729.247, 552.488 723.517, 551.488 " />
            <path fill="none" stroke-width="3.0" stroke-linecap="butt" stroke-opacity="1.0" stroke="rgb(0, 0, 0)" stroke-linejoin="round" d=" M 846.802, 570.259 847.829, 573.184 " />
            <path fill="none" stroke-width="3.0" stroke-linecap="butt" stroke-opacity="1.0" stroke="rgb(0, 0, 0)" stroke-linejoin="round" d=" M 918.709, 597.525 910.205, 600.107 902.729, 602.376 893.161, 605.281 883.592, 608.186 874.023, 611.091 864.454, 613.996 854.886, 616.901 845.317, 619.806 835.748, 622.711 826.179, 625.615 816.610, 628.520 807.042, 631.425 797.473, 634.330 787.904, 637.235 778.335, 640.140 768.766, 643.045 759.901, 645.736 " />
            <path fill="none" stroke-width="3.0" stroke-linecap="butt" stroke-opacity="1.0" stroke="rgb(0, 0, 0)" stroke-linejoin="round" d=" M 915.909, 596.564 906.004, 597.937 896.098, 599.309 893.770, 599.632 " />
            <path fill="none" stroke-width="3.0" stroke-linecap="butt" stroke-opacity="1.0" stroke="rgb(0, 0, 0)" stroke-linejoin="round" d=" M 862.536, 553.414 853.147, 549.971 852.802, 549.844 843.413, 546.402 837.687, 544.302 " />
            <path fill="none" stroke-width="3.0" stroke-linecap="butt" stroke-opacity="1.0" stroke="rgb(0, 0, 0)" stroke-linejoin="round" d=" M 994.559, 620.475 1000.411, 621.628 " />
            <path fill="none" stroke-width="3.0" stroke-linecap="butt" stroke-opacity="1.0" stroke="rgb(0, 0, 0)" stroke-linejoin="round" d=" M 994.613, 620.458 1000.411, 621.628 1009.616, 617.720 1017.738, 614.271 " />
            <path fill="none" stroke-width="3.0" stroke-linecap="butt" stroke-opacity="1.0" stroke="rgb(0, 0, 0)" stroke-linejoin="round" d=" M 1039.134, 556.271 1049.096, 555.399 1059.058, 554.527 1069.020, 553.655 1078.982, 552.783 1088.944, 551.911 1093.772, 551.488 " />
        </g>
    </g>
</svg>
