<?xml version='1.0' encoding='ascii'?>
<svg xmlns="http://www.w3.org/2000/svg" version="1.1" width="1920" height="1080">
    <g id="ViewLayer_LineSet" xmlns:inkscape="http://www.inkscape.org/namespaces/inkscape" inkscape:groupmode="lineset" inkscape:label="ViewLayer_LineSet">
        <g xmlns:inkscape="http://www.inkscape.org/namespaces/inkscape" inkscape:groupmode="layer" id="strokes" inkscape:label="strokes">
            <path fill="none" stroke-width="3.0" stroke-linecap="butt" stroke-opacity="1.0" stroke="rgb(0, 0, 0)" stroke-linejoin="round" d=" M 880.774, 419.885 874.623, 427.769 874.053, 428.499 867.902, 436.383 861.751, 444.268 855.599, 452.152 849.448, 460.036 847.829, 462.110 839.450, 467.568 831.071, 473.026 822.691, 478.483 814.312, 483.941 805.933, 489.399 797.553, 494.856 789.174, 500.314 780.795, 505.772 772.415, 511.230 764.036, 516.687 755.657, 522.145 747.277, 527.603 738.898, 533.061 730.519, 538.518 723.517, 543.079 731.897, 548.536 740.276, 553.994 748.655, 559.452 757.035, 564.909 765.414, 570.367 773.793, 575.825 782.173, 581.283 790.552, 586.740 798.931, 592.198 807.311, 597.656 815.690, 603.114 824.069, 608.571 832.449, 614.029 840.828, 619.487 847.829, 624.047 853.981, 631.931 860.132, 639.815 866.284, 647.699 872.435, 655.584 874.053, 657.658 " />
            <path fill="none" stroke-width="3.0" stroke-linecap="butt" stroke-opacity="1.0" stroke="rgb(0, 0, 0)" stroke-linejoin="round" d=" M 1153.057, 286.334 1143.192, 287.969 1133.327, 289.605 1123.461, 291.241 1113.596, 292.876 1103.731, 294.512 1093.865, 296.148 1084.000, 297.783 1074.135, 299.419 1064.269, 301.055 1054.404, 302.690 1044.539, 304.326 1034.673, 305.962 1024.808, 307.598 1014.943, 309.233 1005.078, 310.869 995.212, 312.505 985.347, 314.140 975.482, 315.776 965.616, 317.412 960.000, 318.343 953.849, 326.227 947.697, 334.111 945.876, 336.445 " />
            <path fill="none" stroke-width="3.0" stroke-linecap="butt" stroke-opacity="1.0" stroke="rgb(0, 0, 0)" stroke-linejoin="round" d=" M 1020.874, 519.263 1023.626, 509.649 1026.379, 500.036 1029.131, 490.422 1031.884, 480.808 1034.637, 471.195 1037.389, 461.581 1040.142, 451.967 1042.894, 442.353 1045.647, 432.740 1048.400, 423.126 1051.152, 413.512 1053.905, 403.899 1056.657, 394.285 1057.142, 392.591 1063.843, 385.168 1070.543, 377.745 1077.244, 370.322 1083.945, 362.899 1090.645, 355.476 1097.346, 348.053 1104.046, 340.630 1110.747, 333.207 1117.447, 325.783 1124.148, 318.360 1130.849, 310.937 1137.549, 303.514 1144.250, 296.091 1150.950, 288.668 1153.057, 286.334 1146.186, 293.599 1139.315, 300.865 1132.444, 308.131 1125.573, 315.396 1118.703, 322.662 1111.832, 329.928 1104.961, 337.193 1098.090, 344.459 1091.219, 351.725 1084.348, 358.990 1077.477, 366.256 1070.606, 373.522 1063.735, 380.788 1057.142, 387.759 " />
            <path fill="none" stroke-width="3.0" stroke-linecap="butt" stroke-opacity="1.0" stroke="rgb(0, 0, 0)" stroke-linejoin="round" d=" M 847.829, 462.110 845.093, 471.728 842.357, 481.347 839.620, 490.965 837.687, 497.760 834.950, 507.378 832.212, 516.996 829.475, 526.615 827.540, 533.414 " />
            <path fill="none" stroke-width="3.0" stroke-linecap="butt" stroke-opacity="1.0" stroke="rgb(0, 0, 0)" stroke-linejoin="round" d=" M 837.687, 497.760 844.886, 490.820 852.085, 483.879 859.284, 476.938 866.764, 469.727 " />
            <path fill="none" stroke-width="3.0" stroke-linecap="butt" stroke-opacity="1.0" stroke="rgb(0, 0, 0)" stroke-linejoin="round" d=" M 723.517, 543.079 733.474, 542.153 743.432, 541.228 753.389, 540.303 763.346, 539.378 773.303, 538.453 783.260, 537.528 793.217, 536.603 803.174, 535.678 813.131, 534.753 823.089, 533.827 827.540, 533.414 " />
            <path fill="none" stroke-width="3.0" stroke-linecap="butt" stroke-opacity="1.0" stroke="rgb(0, 0, 0)" stroke-linejoin="round" d=" M 1012.451, 534.811 1014.292, 528.752 1017.200, 519.184 1017.510, 518.164 1020.418, 508.596 1023.326, 499.028 1026.234, 489.461 1029.141, 479.893 1032.049, 470.325 1034.957, 460.757 1037.865, 451.189 1040.773, 441.621 1041.373, 439.646 1044.281, 430.078 1047.189, 420.510 1050.097, 410.942 1053.005, 401.374 1053.915, 398.379 1055.561, 392.964 1055.587, 392.878 1055.818, 392.118 1057.142, 387.759 1054.870, 386.711 1045.789, 382.523 1036.708, 378.335 1027.627, 374.147 1018.546, 369.959 1009.466, 365.771 1000.385, 361.583 991.304, 357.396 982.223, 353.208 973.142, 349.020 964.061, 344.832 954.981, 340.644 952.820, 339.647 952.501, 339.500 945.876, 336.445 936.795, 332.257 927.715, 328.069 918.634, 323.881 909.553, 319.693 900.472, 315.505 891.391, 311.318 890.159, 310.749 880.324, 312.562 870.490, 314.374 860.656, 316.187 850.821, 317.999 840.987, 319.812 831.153, 321.624 821.318, 323.437 811.484, 325.249 801.649, 327.062 791.815, 328.874 781.981, 330.687 772.146, 332.499 762.312, 334.312 759.901, 334.756 750.702, 338.677 741.503, 342.597 732.303, 346.517 726.786, 348.868 735.867, 353.056 744.948, 357.244 752.935, 360.928 762.016, 365.116 771.097, 369.304 774.265, 370.765 783.346, 374.953 792.427, 379.141 801.508, 383.328 810.588, 387.516 819.669, 391.704 828.750, 395.892 837.831, 400.080 846.912, 404.268 855.993, 408.456 865.073, 412.644 874.154, 416.832 880.774, 419.885 889.855, 424.073 893.770, 425.878 888.891, 433.800 883.647, 442.315 878.403, 450.829 873.159, 459.344 867.915, 467.859 866.764, 469.727 861.739, 477.886 856.495, 486.401 851.251, 494.916 850.196, 496.628 844.952, 505.143 841.418, 510.882 836.174, 519.396 834.916, 521.439 834.338, 522.376 829.094, 530.891 827.540, 533.414 830.640, 538.898 830.754, 539.101 835.674, 547.807 838.799, 553.338 843.719, 562.044 848.639, 570.750 853.559, 579.456 857.869, 587.083 862.789, 595.789 867.708, 604.495 872.628, 613.201 874.106, 615.816 879.026, 624.522 883.945, 633.228 884.972, 635.044 889.891, 643.750 893.770, 650.614 887.725, 652.774 878.308, 656.138 874.053, 657.658 864.636, 661.022 855.219, 664.387 845.802, 667.751 836.385, 671.115 826.968, 674.479 817.551, 677.844 808.134, 681.208 798.717, 684.572 789.300, 687.937 779.883, 691.301 770.466, 694.665 761.049, 698.030 751.631, 701.394 742.214, 704.758 732.797, 708.123 726.786, 710.270 735.466, 715.236 744.146, 720.201 752.935, 725.229 759.901, 729.215 769.736, 731.027 779.570, 732.840 789.405, 734.652 794.273, 735.549 804.107, 737.362 813.942, 739.174 823.776, 740.987 833.610, 742.800 843.445, 744.612 853.279, 746.425 863.114, 748.237 872.948, 750.050 879.533, 751.263 889.367, 753.076 890.159, 753.222 899.576, 749.857 908.993, 746.493 918.410, 743.129 927.827, 739.764 935.872, 736.890 945.289, 733.526 947.559, 732.715 948.105, 732.520 957.522, 729.156 966.939, 725.791 976.356, 722.427 985.773, 719.063 995.190, 715.698 1004.607, 712.334 1014.024, 708.970 1023.441, 705.606 1032.859, 702.241 1042.276, 698.877 1048.219, 696.754 1051.196, 695.690 1052.567, 695.200 1054.500, 694.510 1055.394, 694.190 1055.818, 694.039 1057.142, 693.566 1063.843, 700.989 1070.543, 708.412 1077.244, 715.835 1083.945, 723.258 1090.645, 730.681 1097.346, 738.104 1104.046, 745.527 1110.747, 752.951 1117.447, 760.374 1124.148, 767.797 1130.849, 775.220 1137.549, 782.643 1144.250, 790.066 1150.950, 797.489 1153.057, 799.824 1143.192, 798.188 1133.327, 796.552 1123.461, 794.916 1113.596, 793.281 1103.731, 791.645 1093.865, 790.009 1084.000, 788.374 1074.135, 786.738 1064.269, 785.102 1054.404, 783.467 1044.539, 781.831 1034.673, 780.195 1024.808, 778.560 1014.943, 776.924 1005.078, 775.288 995.212, 773.652 985.347, 772.017 975.482, 770.381 965.616, 768.745 960.000, 767.814 953.849, 759.930 947.697, 752.046 945.876, 749.712 939.725, 741.828 935.872, 736.890 " />
            <path fill="none" stroke-width="3.0" stroke-linecap="butt" stroke-opacity="1.0" stroke="rgb(0, 0, 0)" stroke-linejoin="round" d=" M 893.770, 425.878 903.712, 424.806 913.655, 423.733 917.446, 423.324 920.785, 422.964 930.728, 421.891 940.670, 420.818 950.612, 419.746 960.555, 418.673 970.497, 417.600 980.439, 416.528 990.382, 415.455 1000.324, 414.382 1010.266, 413.310 1020.208, 412.237 1030.151, 411.164 1040.093, 410.092 1042.114, 409.874 " />
            <path fill="none" stroke-width="3.0" stroke-linecap="butt" stroke-opacity="1.0" stroke="rgb(0, 0, 0)" stroke-linejoin="round" d=" M 1042.114, 409.874 1033.033, 405.686 1023.953, 401.498 1019.631, 399.505 1012.145, 396.052 1003.064, 391.864 993.983, 387.676 984.902, 383.489 975.821, 379.301 966.741, 375.113 957.660, 370.925 948.579, 366.737 939.498, 362.549 930.417, 358.361 929.211, 357.805 920.130, 353.617 911.049, 349.429 901.969, 345.241 892.888, 341.053 883.807, 336.865 879.533, 334.894 875.130, 332.864 " />
            <path fill="none" stroke-width="3.0" stroke-linecap="butt" stroke-opacity="1.0" stroke="rgb(0, 0, 0)" stroke-linejoin="round" d=" M 875.130, 332.864 865.188, 333.936 855.246, 335.009 845.304, 336.082 835.361, 337.154 825.419, 338.227 815.477, 339.300 805.534, 340.372 795.592, 341.445 785.650, 342.518 775.707, 343.590 765.765, 344.663 755.823, 345.736 745.881, 346.808 735.938, 347.881 726.786, 348.868 " />
            <path fill="none" stroke-width="3.0" stroke-linecap="butt" stroke-opacity="1.0" stroke="rgb(0, 0, 0)" stroke-linejoin="round" d=" M 1057.142, 387.759 1054.500, 391.647 1053.388, 393.283 1047.768, 401.554 1043.427, 407.942 1042.114, 409.874 1039.750, 419.590 1037.386, 429.307 1035.022, 439.023 1032.658, 448.740 1030.294, 458.457 1027.930, 468.173 1025.566, 477.890 1025.302, 478.976 1022.938, 488.693 1020.574, 498.409 1018.210, 508.126 1015.896, 517.637 1015.126, 520.801 1014.069, 525.148 1012.058, 533.414 " />
            <path fill="none" stroke-width="3.0" stroke-linecap="butt" stroke-opacity="1.0" stroke="rgb(0, 0, 0)" stroke-linejoin="round" d=" M 847.829, 624.047 845.645, 614.288 843.461, 604.530 841.382, 595.243 841.065, 593.826 838.881, 584.068 837.687, 578.732 835.502, 568.974 833.317, 559.215 831.132, 549.457 828.947, 539.699 827.540, 533.414 837.540, 533.414 847.540, 533.414 857.540, 533.414 867.540, 533.414 877.540, 533.414 887.540, 533.414 897.540, 533.414 907.540, 533.414 917.540, 533.414 927.540, 533.414 937.540, 533.414 947.540, 533.414 957.540, 533.414 967.540, 533.414 977.540, 533.414 987.540, 533.414 997.540, 533.414 1007.540, 533.414 1012.058, 533.414 1012.330, 534.621 1012.406, 534.958 1013.249, 538.695 1014.157, 542.719 1016.359, 552.474 1018.560, 562.229 1019.699, 567.278 1021.900, 577.033 1024.101, 586.787 1026.302, 596.542 1026.635, 598.017 1028.836, 607.772 1031.037, 617.526 1033.238, 627.281 1035.439, 637.036 1037.640, 646.791 1039.841, 656.545 1042.114, 666.619 " />
            <path fill="none" stroke-width="3.0" stroke-linecap="butt" stroke-opacity="1.0" stroke="rgb(0, 0, 0)" stroke-linejoin="round" d=" M 875.130, 332.864 880.751, 324.593 886.372, 316.322 890.159, 310.749 " />
            <path fill="none" stroke-width="3.0" stroke-linecap="butt" stroke-opacity="1.0" stroke="rgb(0, 0, 0)" stroke-linejoin="round" d=" M 752.935, 360.928 744.255, 365.893 735.575, 370.859 726.786, 375.887 736.204, 379.251 745.621, 382.616 755.038, 385.980 764.455, 389.344 773.872, 392.709 783.289, 396.073 792.706, 399.437 802.123, 402.802 811.540, 406.166 820.957, 409.530 830.374, 412.895 839.792, 416.259 849.209, 419.623 858.626, 422.987 868.043, 426.352 874.053, 428.499 " />
            <path fill="none" stroke-width="3.0" stroke-linecap="butt" stroke-opacity="1.0" stroke="rgb(0, 0, 0)" stroke-linejoin="round" d=" M 1021.432, 566.712 1030.937, 563.606 1040.443, 560.501 1049.948, 557.396 1059.454, 554.290 1068.959, 551.185 1078.465, 548.079 1087.971, 544.974 1093.772, 543.079 1084.266, 539.973 1074.761, 536.868 1065.255, 533.762 1055.750, 530.657 1046.244, 527.551 1036.738, 524.446 1027.233, 521.341 1020.874, 519.263 1017.510, 518.164 " />
            <path fill="none" stroke-width="3.0" stroke-linecap="butt" stroke-opacity="1.0" stroke="rgb(0, 0, 0)" stroke-linejoin="round" d=" M 960.000, 767.814 956.806, 758.338 953.612, 748.862 952.820, 746.510 949.626, 737.034 948.105, 732.520 " />
            <path fill="none" stroke-width="3.0" stroke-linecap="butt" stroke-opacity="1.0" stroke="rgb(0, 0, 0)" stroke-linejoin="round" d=" M 726.786, 710.270 736.729, 711.343 746.671, 712.415 756.613, 713.488 766.556, 714.561 774.265, 715.392 784.207, 716.465 794.150, 717.538 804.092, 718.610 814.034, 719.683 823.977, 720.756 833.919, 721.828 843.861, 722.901 853.804, 723.974 863.746, 725.046 873.688, 726.119 875.130, 726.275 " />
            <path fill="none" stroke-width="3.0" stroke-linecap="butt" stroke-opacity="1.0" stroke="rgb(0, 0, 0)" stroke-linejoin="round" d=" M 890.159, 753.222 885.288, 744.488 880.417, 735.754 875.547, 727.021 875.130, 726.275 884.548, 722.910 893.965, 719.546 903.382, 716.182 912.799, 712.817 916.155, 711.618 925.572, 708.254 934.989, 704.890 944.406, 701.526 953.823, 698.161 963.240, 694.797 972.657, 691.433 982.074, 688.068 988.547, 685.756 997.470, 682.568 1006.888, 679.204 1016.305, 675.839 1025.722, 672.475 1035.139, 669.111 1040.605, 667.158 1042.114, 666.619 " />
            <path fill="none" stroke-width="3.0" stroke-linecap="butt" stroke-opacity="1.0" stroke="rgb(0, 0, 0)" stroke-linejoin="round" d=" M 1057.142, 693.566 1053.915, 687.779 1049.044, 679.045 1044.173, 670.311 1042.114, 666.619 1040.421, 666.436 1030.479, 665.363 1020.537, 664.291 1010.594, 663.218 1000.652, 662.145 990.710, 661.073 980.767, 660.000 970.825, 658.927 960.883, 657.855 950.941, 656.782 940.998, 655.709 931.056, 654.637 921.114, 653.564 914.710, 652.873 904.767, 651.801 902.568, 651.563 893.770, 650.614 " />
            <path fill="none" stroke-width="3.0" stroke-linecap="butt" stroke-opacity="1.0" stroke="rgb(0, 0, 0)" stroke-linejoin="round" d=" M 752.935, 725.229 743.854, 729.417 734.774, 733.605 726.786, 737.289 735.986, 741.209 745.185, 745.130 754.385, 749.050 759.901, 751.401 769.736, 753.214 779.570, 755.026 789.405, 756.839 799.239, 758.651 809.073, 760.464 818.908, 762.276 828.742, 764.089 838.576, 765.901 848.411, 767.714 858.245, 769.526 868.079, 771.339 877.914, 773.151 887.748, 774.964 890.159, 775.408 899.240, 771.220 908.320, 767.032 917.401, 762.844 926.482, 758.656 935.563, 754.468 944.644, 750.280 945.876, 749.712 " />
            <path fill="none" stroke-width="3.0" stroke-linecap="butt" stroke-opacity="1.0" stroke="rgb(0, 0, 0)" stroke-linejoin="round" d=" M 794.273, 735.549 785.192, 739.737 776.111, 743.925 767.031, 748.113 759.901, 751.401 " />
            <path fill="none" stroke-width="3.0" stroke-linecap="butt" stroke-opacity="1.0" stroke="rgb(0, 0, 0)" stroke-linejoin="round" d=" M 874.106, 615.816 867.099, 608.681 860.092, 601.547 853.085, 594.412 846.079, 587.277 839.072, 580.143 837.687, 578.732 " />
            <path fill="none" stroke-width="3.0" stroke-linecap="butt" stroke-opacity="1.0" stroke="rgb(0, 0, 0)" stroke-linejoin="round" d=" M 952.501, 339.500 955.841, 330.075 959.182, 320.649 960.000, 318.343 " />
            <path fill="none" stroke-width="3.0" stroke-linecap="butt" stroke-opacity="1.0" stroke="rgb(0, 0, 0)" stroke-linejoin="round" d=" M 1055.561, 392.964 1057.142, 392.591 " />
            <path fill="none" stroke-width="3.0" stroke-linecap="butt" stroke-opacity="1.0" stroke="rgb(0, 0, 0)" stroke-linejoin="round" d=" M 1012.834, 536.170 1013.508, 536.228 1015.956, 536.437 1025.920, 537.287 1035.884, 538.138 1045.848, 538.988 1055.811, 539.839 1065.775, 540.689 1075.739, 541.539 1085.703, 542.390 1093.772, 543.079 " />
        </g>
    </g>
</svg>
