<?xml version='1.0' encoding='ascii'?>
<svg xmlns="http://www.w3.org/2000/svg" version="1.1" width="1920" height="1080">
    <g id="ViewLayer_LineSet" xmlns:inkscape="http://www.inkscape.org/namespaces/inkscape" inkscape:groupmode="lineset" inkscape:label="ViewLayer_LineSet">
        <g xmlns:inkscape="http://www.inkscape.org/namespaces/inkscape" inkscape:groupmode="layer" id="strokes" inkscape:label="strokes">
            <path fill="none" stroke-width="3.0" stroke-linecap="butt" stroke-opacity="1.0" stroke="rgb(0, 0, 0)" stroke-linejoin="round" d=" M 519.644, 531.625 519.644, 541.625 519.644, 551.625 519.644, 552.769 519.644, 562.769 519.644, 572.769 519.644, 573.912 " />
            <path fill="none" stroke-width="3.0" stroke-linecap="butt" stroke-opacity="1.0" stroke="rgb(0, 0, 0)" stroke-linejoin="round" d=" M 791.457, 489.692 791.457, 499.692 791.457, 509.692 791.457, 510.835 791.457, 520.835 791.457, 530.835 791.457, 531.979 " />
            <path fill="none" stroke-width="3.0" stroke-linecap="butt" stroke-opacity="1.0" stroke="rgb(0, 0, 0)" stroke-linejoin="round" d=" M 519.644, 573.912 529.527, 572.388 539.410, 570.863 549.294, 569.338 559.177, 567.814 569.060, 566.289 578.943, 564.764 588.826, 563.240 598.709, 561.715 608.592, 560.190 618.475, 558.665 628.358, 557.141 638.241, 555.616 648.124, 554.091 658.007, 552.567 667.890, 551.042 677.774, 549.517 687.657, 547.993 697.540, 546.468 707.423, 544.943 717.306, 543.418 727.189, 541.894 737.072, 540.369 746.955, 538.844 756.838, 537.320 766.721, 535.795 776.604, 534.270 786.487, 532.746 791.457, 531.979 800.942, 528.809 810.426, 525.639 819.911, 522.470 829.395, 519.300 838.879, 516.130 848.364, 512.960 857.848, 509.791 867.332, 506.621 876.817, 503.451 886.301, 500.281 895.785, 497.112 905.270, 493.942 914.754, 490.772 924.238, 487.602 933.723, 484.433 943.207, 481.263 953.477, 477.831 " />
            <path fill="none" stroke-width="3.0" stroke-linecap="butt" stroke-opacity="1.0" stroke="rgb(0, 0, 0)" stroke-linejoin="round" d=" M 1387.309, 531.625 1387.309, 541.625 1387.309, 551.625 1387.309, 552.769 1387.309, 562.769 1387.309, 572.769 1387.309, 573.912 1377.426, 572.388 1367.543, 570.863 1357.660, 569.338 1347.776, 567.814 1337.893, 566.289 1328.010, 564.764 1318.127, 563.240 1308.244, 561.715 1298.361, 560.190 1288.478, 558.665 1278.595, 557.141 1268.712, 555.616 1258.829, 554.091 1248.946, 552.567 1239.063, 551.042 1229.179, 549.517 1219.296, 547.993 1209.413, 546.468 1199.530, 544.943 1189.647, 543.418 1179.764, 541.894 1169.881, 540.369 1159.998, 538.844 1150.115, 537.320 1140.232, 535.795 1130.349, 534.270 1120.466, 532.746 1115.496, 531.979 1106.011, 528.809 1096.527, 525.639 1087.043, 522.470 1077.558, 519.300 1068.074, 516.130 1058.589, 512.960 1049.105, 509.791 1039.621, 506.621 1030.136, 503.451 1020.652, 500.281 1011.168, 497.112 1001.683, 493.942 992.199, 490.772 982.715, 487.602 973.230, 484.433 963.746, 481.263 953.477, 477.831 953.477, 469.497 953.477, 459.497 953.477, 456.687 953.477, 446.687 953.477, 446.326 953.477, 436.326 953.477, 435.544 " />
            <path fill="none" stroke-width="3.0" stroke-linecap="butt" stroke-opacity="1.0" stroke="rgb(0, 0, 0)" stroke-linejoin="round" d=" M 1115.496, 489.692 1115.496, 499.692 1115.496, 509.692 1115.496, 510.835 1115.496, 520.835 1115.496, 530.835 1115.496, 531.979 1109.433, 539.932 1103.371, 547.885 1097.309, 555.838 1091.247, 563.791 1086.950, 569.428 " />
            <path fill="none" stroke-width="3.0" stroke-linecap="butt" stroke-opacity="1.0" stroke="rgb(0, 0, 0)" stroke-linejoin="round" d=" M 919.534, 674.428 929.424, 675.906 939.314, 677.384 949.204, 678.862 953.477, 679.501 963.367, 678.023 973.257, 676.545 983.147, 675.067 987.419, 674.428 " />
            <path fill="none" stroke-width="3.0" stroke-linecap="butt" stroke-opacity="1.0" stroke="rgb(0, 0, 0)" stroke-linejoin="round" d=" M 1086.953, 638.522 1077.272, 641.028 1067.591, 643.534 1057.910, 646.039 1048.229, 648.545 1038.548, 651.051 1028.867, 653.557 1019.186, 656.062 1009.505, 658.568 999.824, 661.074 990.143, 663.579 987.419, 664.284 " />
            <path fill="none" stroke-width="3.0" stroke-linecap="butt" stroke-opacity="1.0" stroke="rgb(0, 0, 0)" stroke-linejoin="round" d=" M 819.997, 638.522 829.678, 641.028 839.359, 643.534 849.040, 646.039 858.721, 648.545 868.451, 651.063 878.132, 653.569 887.813, 656.075 897.494, 658.580 907.175, 661.086 916.856, 663.591 919.534, 664.284 929.424, 662.806 931.183, 662.544 941.073, 661.066 950.964, 659.588 953.477, 659.212 953.477, 659.212 963.367, 660.690 973.257, 662.168 975.770, 662.544 985.660, 664.021 987.419, 664.284 987.419, 674.284 987.419, 674.428 " />
            <path fill="none" stroke-width="3.0" stroke-linecap="butt" stroke-opacity="1.0" stroke="rgb(0, 0, 0)" stroke-linejoin="round" d=" M 953.479, 576.868 953.122, 577.033 944.043, 581.227 935.402, 585.218 926.323, 589.411 917.245, 593.604 908.167, 597.798 899.088, 601.991 890.010, 606.184 880.932, 610.377 871.853, 614.570 862.775, 618.764 853.696, 622.957 844.618, 627.150 835.540, 631.343 834.141, 631.989 830.464, 633.688 821.385, 637.881 819.997, 638.522 810.316, 636.017 800.635, 633.511 790.954, 631.005 781.273, 628.500 771.592, 625.994 761.911, 623.489 752.230, 620.983 742.549, 618.477 732.868, 615.972 723.187, 613.466 720.463, 612.761 " />
            <path fill="none" stroke-width="3.0" stroke-linecap="butt" stroke-opacity="1.0" stroke="rgb(0, 0, 0)" stroke-linejoin="round" d=" M 740.060, 603.976 730.935, 608.067 721.810, 612.157 720.463, 612.761 710.463, 612.761 700.463, 612.761 690.463, 612.761 681.269, 612.761 672.144, 608.671 663.019, 604.580 661.672, 603.976 670.797, 599.885 675.202, 597.911 681.269, 595.191 691.269, 595.191 701.269, 595.191 711.269, 595.191 720.463, 595.191 729.589, 599.282 738.714, 603.372 740.060, 603.976 " />
            <path fill="none" stroke-width="3.0" stroke-linecap="butt" stroke-opacity="1.0" stroke="rgb(0, 0, 0)" stroke-linejoin="round" d=" M 661.672, 603.976 651.889, 601.905 642.106, 599.834 632.323, 597.764 622.540, 595.693 612.756, 593.622 602.973, 591.551 593.190, 589.480 583.407, 587.409 573.623, 585.338 563.840, 583.268 554.057, 581.197 544.274, 579.126 534.490, 577.055 524.707, 574.984 519.644, 573.912 " />
            <path fill="none" stroke-width="3.0" stroke-linecap="butt" stroke-opacity="1.0" stroke="rgb(0, 0, 0)" stroke-linejoin="round" d=" M 1086.950, 569.428 1096.631, 571.934 1106.312, 574.440 1115.993, 576.945 1125.674, 579.451 1135.355, 581.956 1145.036, 584.462 1154.717, 586.968 1164.398, 589.473 1174.079, 591.979 1179.390, 593.353 1186.490, 595.191 " />
            <path fill="none" stroke-width="3.0" stroke-linecap="butt" stroke-opacity="1.0" stroke="rgb(0, 0, 0)" stroke-linejoin="round" d=" M 1166.893, 603.976 1176.018, 599.885 1185.143, 595.795 1186.490, 595.191 1196.490, 595.191 1206.490, 595.191 1216.490, 595.191 1225.684, 595.191 1231.751, 597.911 1240.876, 602.002 1245.281, 603.976 " />
            <path fill="none" stroke-width="3.0" stroke-linecap="butt" stroke-opacity="1.0" stroke="rgb(0, 0, 0)" stroke-linejoin="round" d=" M 1225.684, 612.761 1234.809, 608.671 1243.934, 604.580 1245.281, 603.976 1255.064, 601.905 1264.847, 599.834 1274.630, 597.764 1284.414, 595.693 1294.197, 593.622 1303.980, 591.551 1313.763, 589.480 1323.546, 587.409 1333.330, 585.338 1343.113, 583.268 1352.896, 581.197 1362.679, 579.126 1372.463, 577.055 1382.246, 574.984 1387.309, 573.912 " />
            <path fill="none" stroke-width="3.0" stroke-linecap="butt" stroke-opacity="1.0" stroke="rgb(0, 0, 0)" stroke-linejoin="round" d=" M 987.420, 533.524 977.529, 532.046 967.639, 530.568 957.749, 529.090 955.812, 528.801 953.836, 528.505 953.477, 528.452 953.120, 528.505 951.139, 528.801 941.249, 530.279 931.358, 531.757 921.468, 533.235 919.534, 533.524 919.534, 543.524 919.534, 543.668 " />
            <path fill="none" stroke-width="3.0" stroke-linecap="butt" stroke-opacity="1.0" stroke="rgb(0, 0, 0)" stroke-linejoin="round" d=" M 819.999, 569.430 829.680, 566.924 839.361, 564.418 849.042, 561.913 858.723, 559.407 868.404, 556.901 878.085, 554.396 887.766, 551.890 897.447, 549.384 907.128, 546.879 916.809, 544.373 919.534, 543.668 929.424, 545.146 939.314, 546.624 949.204, 548.102 953.477, 548.740 963.367, 547.262 973.257, 545.784 983.147, 544.306 987.420, 543.668 " />
            <path fill="none" stroke-width="3.0" stroke-linecap="butt" stroke-opacity="1.0" stroke="rgb(0, 0, 0)" stroke-linejoin="round" d=" M 987.420, 543.668 987.420, 533.668 987.420, 533.524 " />
            <path fill="none" stroke-width="3.0" stroke-linecap="butt" stroke-opacity="1.0" stroke="rgb(0, 0, 0)" stroke-linejoin="round" d=" M 1186.490, 612.761 1196.490, 612.761 1206.490, 612.761 1216.490, 612.761 1225.684, 612.761 " />
            <path fill="none" stroke-width="3.0" stroke-linecap="butt" stroke-opacity="1.0" stroke="rgb(0, 0, 0)" stroke-linejoin="round" d=" M 1166.893, 603.976 1176.018, 608.067 1185.143, 612.157 1186.490, 612.761 " />
            <path fill="none" stroke-width="3.0" stroke-linecap="butt" stroke-opacity="1.0" stroke="rgb(0, 0, 0)" stroke-linejoin="round" d=" M 919.534, 664.284 919.534, 674.284 919.534, 674.428 " />
            <path fill="none" stroke-width="3.0" stroke-linecap="butt" stroke-opacity="1.0" stroke="rgb(0, 0, 0)" stroke-linejoin="round" d=" M 791.457, 531.979 797.519, 539.932 803.580, 547.886 809.642, 555.839 815.703, 563.793 819.999, 569.430 " />
            <path fill="none" stroke-width="3.0" stroke-linecap="butt" stroke-opacity="1.0" stroke="rgb(0, 0, 0)" stroke-linejoin="round" d=" M 953.477, 528.452 953.477, 518.452 953.477, 508.452 953.477, 505.280 953.477, 495.280 953.477, 485.280 953.477, 477.831 " />
            <path fill="none" stroke-width="3.0" stroke-linecap="butt" stroke-opacity="1.0" stroke="rgb(0, 0, 0)" stroke-linejoin="round" d=" M 987.420, 543.668 997.101, 546.174 1006.782, 548.679 1016.463, 551.185 1026.144, 553.690 1035.825, 556.196 1045.506, 558.702 1055.187, 561.207 1064.868, 563.713 1074.549, 566.219 1084.230, 568.724 1086.950, 569.428 1076.966, 569.985 1066.981, 570.541 1056.997, 571.098 1047.012, 571.655 1037.028, 572.211 1027.043, 572.768 1017.059, 573.324 1007.074, 573.881 997.090, 574.437 987.105, 574.994 983.604, 575.189 973.619, 575.746 963.635, 576.302 955.800, 576.739 953.479, 576.868 " />
            <path fill="none" stroke-width="3.0" stroke-linecap="butt" stroke-opacity="1.0" stroke="rgb(0, 0, 0)" stroke-linejoin="round" d=" M 1186.490, 612.761 1176.809, 615.267 1167.128, 617.772 1157.447, 620.278 1147.766, 622.783 1138.084, 625.289 1128.403, 627.795 1118.722, 630.300 1109.041, 632.806 1099.360, 635.311 1089.679, 637.817 1086.953, 638.522 1077.875, 634.329 1068.796, 630.136 1059.718, 625.942 1050.640, 621.749 1041.562, 617.555 1032.483, 613.362 1023.405, 609.169 1014.327, 604.975 1005.248, 600.782 996.170, 596.588 987.092, 592.395 978.013, 588.201 971.552, 585.217 962.474, 581.024 953.834, 577.033 953.479, 576.868 951.150, 576.739 941.166, 576.182 931.181, 575.626 923.349, 575.189 913.365, 574.633 903.380, 574.076 893.396, 573.520 883.411, 572.964 873.427, 572.407 863.442, 571.851 853.458, 571.294 843.473, 570.738 833.489, 570.181 823.504, 569.625 819.999, 569.430 810.318, 571.935 800.637, 574.441 790.956, 576.946 781.275, 579.452 771.594, 581.958 761.913, 584.463 752.232, 586.969 742.551, 589.474 732.870, 591.980 727.563, 593.353 720.463, 595.191 " />
            <path fill="none" stroke-width="3.0" stroke-linecap="butt" stroke-opacity="1.0" stroke="rgb(0, 0, 0)" stroke-linejoin="round" d=" M 1387.309, 531.625 1377.426, 530.101 1367.543, 528.576 1357.660, 527.051 1347.776, 525.527 1337.893, 524.002 1328.010, 522.477 1318.127, 520.953 1308.244, 519.428 1298.361, 517.903 1288.478, 516.378 1278.595, 514.854 1268.712, 513.329 1258.829, 511.804 1248.946, 510.280 1239.063, 508.755 1237.163, 508.462 1231.751, 507.627 1221.868, 506.102 1211.985, 504.578 1202.102, 503.053 1192.219, 501.528 1182.336, 500.004 1172.453, 498.479 1162.569, 496.954 1152.686, 495.429 1142.803, 493.905 1132.920, 492.380 1123.037, 490.855 1115.496, 489.692 1106.011, 486.522 1096.527, 483.352 1087.043, 480.183 1077.558, 477.013 1068.074, 473.843 1058.589, 470.673 1049.105, 467.504 1039.621, 464.334 1030.136, 461.164 1020.652, 457.994 1011.168, 454.825 1001.683, 451.655 992.199, 448.485 982.589, 445.273 975.770, 442.994 966.286, 439.825 956.801, 436.655 953.477, 435.544 943.992, 438.714 934.508, 441.883 931.183, 442.994 924.364, 445.273 914.880, 448.443 905.396, 451.613 895.911, 454.783 886.427, 457.952 876.943, 461.122 867.458, 464.292 857.974, 467.461 848.490, 470.631 839.005, 473.801 829.521, 476.971 820.037, 480.140 810.552, 483.310 801.068, 486.480 791.457, 489.692 781.574, 491.217 771.691, 492.741 761.808, 494.266 751.925, 495.791 742.042, 497.315 732.159, 498.840 722.276, 500.365 712.393, 501.889 702.510, 503.414 692.627, 504.939 682.744, 506.464 675.202, 507.627 669.790, 508.462 659.907, 509.987 650.024, 511.511 640.141, 513.036 630.258, 514.561 620.375, 516.085 610.492, 517.610 600.609, 519.135 590.725, 520.660 580.842, 522.184 570.959, 523.709 561.076, 525.234 551.193, 526.758 541.310, 528.283 531.427, 529.808 521.544, 531.332 519.644, 531.625 " />
            <path fill="none" stroke-width="3.0" stroke-linecap="butt" stroke-opacity="1.0" stroke="rgb(0, 0, 0)" stroke-linejoin="round" d=" M 1038.502, 454.475 1048.183, 456.980 1057.864, 459.486 1067.545, 461.992 1077.226, 464.497 1086.950, 467.014 1094.780, 473.234 1102.610, 479.455 1110.440, 485.675 1115.496, 489.692 " />
            <path fill="none" stroke-width="3.0" stroke-linecap="butt" stroke-opacity="1.0" stroke="rgb(0, 0, 0)" stroke-linejoin="round" d=" M 987.420, 431.109 977.529, 429.632 967.639, 428.154 957.749, 426.676 953.477, 426.037 943.586, 427.515 933.696, 428.993 923.806, 430.471 919.534, 431.109 " />
            <path fill="none" stroke-width="3.0" stroke-linecap="butt" stroke-opacity="1.0" stroke="rgb(0, 0, 0)" stroke-linejoin="round" d=" M 819.999, 467.015 812.169, 473.236 804.340, 479.457 796.510, 485.677 791.457, 489.692 " />
            <path fill="none" stroke-width="3.0" stroke-linecap="butt" stroke-opacity="1.0" stroke="rgb(0, 0, 0)" stroke-linejoin="round" d=" M 953.477, 435.544 953.477, 426.037 " />
        </g>
    </g>
</svg>
