<?xml version='1.0' encoding='ascii'?>
<svg xmlns="http://www.w3.org/2000/svg" version="1.1" width="1920" height="1080">
    <g id="ViewLayer_LineSet" xmlns:inkscape="http://www.inkscape.org/namespaces/inkscape" inkscape:groupmode="lineset" inkscape:label="ViewLayer_LineSet">
        <g xmlns:inkscape="http://www.inkscape.org/namespaces/inkscape" inkscape:groupmode="layer" id="strokes" inkscape:label="strokes">
            <path fill="none" stroke-width="3.0" stroke-linecap="butt" stroke-opacity="1.0" stroke="rgb(0, 0, 0)" stroke-linejoin="round" d=" M 661.672, 501.092 651.904, 503.232 642.136, 505.373 632.368, 507.513 622.600, 509.654 612.831, 511.795 603.063, 513.935 593.295, 516.076 583.527, 518.216 573.759, 520.357 563.990, 522.498 554.222, 524.638 544.454, 526.779 534.686, 528.919 524.918, 531.060 519.644, 532.216 519.644, 542.216 519.644, 552.216 519.644, 554.105 519.644, 564.105 519.644, 574.105 519.644, 575.994 529.412, 578.135 539.181, 580.276 548.949, 582.416 558.717, 584.557 568.485, 586.698 578.253, 588.838 588.022, 590.979 597.790, 593.119 607.558, 595.260 617.326, 597.401 627.094, 599.541 636.863, 601.682 646.631, 603.822 656.399, 605.963 661.672, 607.119 671.672, 607.119 681.269, 607.119 " />
            <path fill="none" stroke-width="3.0" stroke-linecap="butt" stroke-opacity="1.0" stroke="rgb(0, 0, 0)" stroke-linejoin="round" d=" M 791.457, 532.216 791.457, 542.216 791.457, 552.216 791.457, 554.105 791.457, 564.105 791.457, 574.105 791.457, 575.994 " />
            <path fill="none" stroke-width="3.0" stroke-linecap="butt" stroke-opacity="1.0" stroke="rgb(0, 0, 0)" stroke-linejoin="round" d=" M 519.644, 575.994 529.644, 575.994 539.644, 575.994 549.644, 575.994 559.644, 575.994 569.644, 575.994 579.644, 575.994 589.644, 575.994 599.644, 575.994 609.644, 575.994 619.644, 575.994 629.644, 575.994 639.644, 575.994 649.644, 575.994 659.644, 575.994 669.644, 575.994 679.644, 575.994 689.644, 575.994 697.041, 575.994 704.692, 575.994 714.692, 575.994 724.692, 575.994 734.692, 575.994 744.692, 575.994 754.692, 575.994 764.692, 575.994 774.692, 575.994 784.692, 575.994 791.457, 575.994 801.457, 575.994 811.457, 575.994 821.457, 575.994 831.457, 575.994 841.457, 575.994 851.457, 575.994 861.457, 575.994 871.457, 575.995 881.457, 575.995 891.458, 575.995 901.457, 575.995 911.458, 575.995 921.457, 575.995 931.457, 575.995 941.457, 575.995 950.163, 575.995 950.163, 575.995 953.477, 575.995 " />
            <path fill="none" stroke-width="3.0" stroke-linecap="butt" stroke-opacity="1.0" stroke="rgb(0, 0, 0)" stroke-linejoin="round" d=" M 1245.281, 501.092 1255.049, 503.232 1264.817, 505.373 1274.585, 507.513 1284.353, 509.654 1294.122, 511.795 1303.890, 513.935 1313.658, 516.076 1323.426, 518.216 1333.194, 520.357 1342.963, 522.498 1352.731, 524.638 1362.499, 526.779 1372.267, 528.919 1382.035, 531.060 1387.309, 532.216 1387.309, 542.216 1387.309, 552.216 1387.309, 554.105 1387.309, 564.105 1387.309, 574.105 1387.309, 575.994 1377.309, 575.994 1367.309, 575.994 1357.309, 575.994 1347.309, 575.994 1337.309, 575.994 1327.309, 575.994 1317.309, 575.994 1307.309, 575.994 1297.309, 575.994 1287.309, 575.994 1277.309, 575.994 1267.309, 575.994 1257.309, 575.994 1247.309, 575.994 1237.309, 575.994 1227.309, 575.994 1217.309, 575.994 1209.912, 575.994 1202.261, 575.994 1192.261, 575.994 1182.261, 575.994 1172.261, 575.994 1162.261, 575.994 1152.261, 575.994 1142.261, 575.994 1132.261, 575.994 1122.261, 575.994 1115.496, 575.994 1105.496, 575.994 1095.496, 575.994 1085.496, 575.994 1075.496, 575.994 1065.496, 575.994 1055.496, 575.994 1045.496, 575.994 1035.496, 575.995 1025.496, 575.995 1015.496, 575.995 1005.496, 575.995 995.496, 575.995 985.496, 575.995 975.496, 575.995 965.496, 575.995 956.790, 575.995 956.790, 575.995 953.477, 575.995 953.477, 572.628 953.477, 572.628 953.477, 562.628 953.477, 554.105 953.477, 544.105 953.477, 535.582 953.477, 535.582 953.477, 532.216 " />
            <path fill="none" stroke-width="3.0" stroke-linecap="butt" stroke-opacity="1.0" stroke="rgb(0, 0, 0)" stroke-linejoin="round" d=" M 1115.496, 532.216 1115.496, 542.216 1115.496, 552.216 1115.496, 554.105 1115.496, 564.105 1115.496, 574.105 1115.496, 575.994 1108.736, 583.364 1101.977, 590.734 1096.852, 596.322 1096.852, 596.322 1095.554, 597.737 1088.795, 605.107 1086.950, 607.119 1086.950, 607.119 1076.950, 607.119 1066.950, 607.119 1056.950, 607.119 1046.950, 607.119 1036.950, 607.119 1026.950, 607.119 1016.950, 607.119 1006.950, 607.119 996.950, 607.119 987.420, 607.119 987.420, 607.119 977.420, 607.119 967.420, 607.119 957.420, 607.119 953.477, 607.119 943.477, 607.119 933.477, 607.119 923.477, 607.119 919.534, 607.119 919.534, 607.119 " />
            <path fill="none" stroke-width="3.0" stroke-linecap="butt" stroke-opacity="1.0" stroke="rgb(0, 0, 0)" stroke-linejoin="round" d=" M 1225.684, 607.119 1235.684, 607.119 1245.281, 607.119 1255.049, 604.978 1264.817, 602.837 1274.585, 600.697 1284.353, 598.556 1294.122, 596.416 1303.890, 594.275 1313.658, 592.134 1323.426, 589.994 1333.194, 587.853 1342.963, 585.712 1352.731, 583.572 1362.499, 581.431 1372.267, 579.291 1382.035, 577.150 1387.309, 575.994 " />
            <path fill="none" stroke-width="3.0" stroke-linecap="butt" stroke-opacity="1.0" stroke="rgb(0, 0, 0)" stroke-linejoin="round" d=" M 819.999, 607.119 829.999, 607.119 839.999, 607.119 849.999, 607.119 859.999, 607.119 869.999, 607.119 879.999, 607.119 889.999, 607.119 899.999, 607.119 909.999, 607.119 919.534, 607.119 919.534, 607.119 " />
            <path fill="none" stroke-width="3.0" stroke-linecap="butt" stroke-opacity="1.0" stroke="rgb(0, 0, 0)" stroke-linejoin="round" d=" M 791.457, 575.994 798.216, 583.365 804.975, 590.735 810.099, 596.323 810.099, 596.323 811.397, 597.738 818.155, 605.108 819.999, 607.119 819.999, 607.119 " />
            <path fill="none" stroke-width="3.0" stroke-linecap="butt" stroke-opacity="1.0" stroke="rgb(0, 0, 0)" stroke-linejoin="round" d=" M 953.477, 607.119 953.477, 607.119 953.477, 607.119 953.477, 607.119 953.477, 597.119 953.477, 587.119 953.477, 579.054 953.477, 579.054 " />
            <path fill="none" stroke-width="3.0" stroke-linecap="butt" stroke-opacity="1.0" stroke="rgb(0, 0, 0)" stroke-linejoin="round" d=" M 1387.309, 532.216 1377.309, 532.216 1367.309, 532.216 1357.309, 532.216 1347.309, 532.216 1337.309, 532.216 1327.309, 532.216 1317.309, 532.216 1307.309, 532.216 1297.309, 532.216 1287.309, 532.216 1277.309, 532.216 1267.309, 532.216 1257.309, 532.216 1247.309, 532.216 1237.309, 532.216 1227.309, 532.216 1217.309, 532.216 1209.912, 532.216 1202.261, 532.216 1192.261, 532.216 1182.261, 532.216 1172.261, 532.216 1162.261, 532.216 1152.261, 532.216 1142.261, 532.216 1132.261, 532.216 1122.261, 532.216 1115.496, 532.216 1105.496, 532.216 1095.496, 532.216 1085.496, 532.216 1075.496, 532.216 1065.496, 532.216 1055.496, 532.216 1045.496, 532.216 1035.496, 532.216 1025.496, 532.216 1015.496, 532.216 1005.496, 532.216 995.496, 532.216 985.496, 532.216 975.496, 532.216 965.496, 532.216 956.790, 532.216 956.789, 532.216 953.477, 532.216 950.164, 532.216 950.164, 532.216 940.164, 532.216 930.164, 532.216 920.164, 532.216 910.164, 532.216 900.164, 532.216 890.164, 532.216 880.164, 532.216 870.164, 532.216 860.164, 532.216 850.164, 532.216 840.164, 532.216 830.164, 532.216 820.164, 532.216 810.164, 532.216 800.164, 532.216 791.457, 532.216 781.457, 532.216 771.457, 532.216 761.457, 532.216 751.457, 532.216 741.458, 532.216 731.457, 532.216 721.458, 532.216 711.457, 532.216 704.692, 532.216 697.041, 532.216 687.041, 532.216 677.041, 532.216 667.041, 532.216 657.041, 532.216 647.041, 532.216 637.041, 532.216 627.041, 532.216 617.041, 532.216 607.041, 532.216 597.041, 532.216 587.041, 532.216 577.041, 532.216 567.041, 532.216 557.041, 532.216 547.041, 532.216 537.041, 532.216 527.041, 532.216 519.644, 532.216 " />
            <path fill="none" stroke-width="3.0" stroke-linecap="butt" stroke-opacity="1.0" stroke="rgb(0, 0, 0)" stroke-linejoin="round" d=" M 987.419, 501.091 977.419, 501.091 967.419, 501.091 957.419, 501.091 953.477, 501.091 943.477, 501.091 933.477, 501.091 923.477, 501.091 919.534, 501.091 " />
            <path fill="none" stroke-width="3.0" stroke-linecap="butt" stroke-opacity="1.0" stroke="rgb(0, 0, 0)" stroke-linejoin="round" d=" M 987.419, 501.091 987.419, 501.091 " />
            <path fill="none" stroke-width="3.0" stroke-linecap="butt" stroke-opacity="1.0" stroke="rgb(0, 0, 0)" stroke-linejoin="round" d=" M 819.997, 501.092 829.997, 501.092 839.997, 501.092 849.997, 501.092 859.997, 501.092 869.997, 501.092 879.997, 501.092 889.997, 501.092 899.997, 501.092 909.997, 501.091 919.533, 501.091 919.534, 501.091 929.534, 501.091 939.534, 501.091 949.534, 501.091 953.477, 501.091 953.477, 501.091 963.477, 501.091 973.477, 501.091 983.477, 501.091 987.419, 501.091 997.419, 501.091 1007.419, 501.092 1017.419, 501.092 1027.420, 501.092 1037.420, 501.092 1047.420, 501.092 1057.420, 501.092 1067.420, 501.092 1077.420, 501.092 1086.953, 501.092 " />
            <path fill="none" stroke-width="3.0" stroke-linecap="butt" stroke-opacity="1.0" stroke="rgb(0, 0, 0)" stroke-linejoin="round" d=" M 681.269, 501.092 671.269, 501.092 661.672, 501.092 671.672, 501.092 681.269, 501.092 691.269, 501.092 701.269, 501.092 711.269, 501.092 720.463, 501.092 720.464, 501.092 730.464, 501.092 740.060, 501.092 730.060, 501.092 720.463, 501.092 " />
            <path fill="none" stroke-width="3.0" stroke-linecap="butt" stroke-opacity="1.0" stroke="rgb(0, 0, 0)" stroke-linejoin="round" d=" M 681.269, 501.092 691.269, 501.092 701.269, 501.092 711.269, 501.092 720.463, 501.092 730.463, 501.092 740.463, 501.092 750.463, 501.092 760.463, 501.092 770.463, 501.092 780.463, 501.092 790.463, 501.092 800.463, 501.092 810.463, 501.092 819.997, 501.092 819.997, 501.092 " />
            <path fill="none" stroke-width="3.0" stroke-linecap="butt" stroke-opacity="1.0" stroke="rgb(0, 0, 0)" stroke-linejoin="round" d=" M 1225.684, 501.092 1235.684, 501.092 1245.281, 501.092 1235.281, 501.092 1225.684, 501.092 1215.684, 501.092 1205.684, 501.092 1195.684, 501.092 1186.490, 501.092 " />
            <path fill="none" stroke-width="3.0" stroke-linecap="butt" stroke-opacity="1.0" stroke="rgb(0, 0, 0)" stroke-linejoin="round" d=" M 1166.893, 501.092 1176.893, 501.092 1186.490, 501.092 1176.490, 501.092 1166.893, 501.092 1156.893, 501.092 1146.893, 501.092 1136.893, 501.092 1126.893, 501.092 1116.893, 501.092 1106.893, 501.092 1096.893, 501.092 1086.953, 501.092 1086.953, 501.092 1086.950, 501.092 " />
            <path fill="none" stroke-width="3.0" stroke-linecap="butt" stroke-opacity="1.0" stroke="rgb(0, 0, 0)" stroke-linejoin="round" d=" M 987.420, 501.092 997.420, 501.092 1007.420, 501.092 1017.420, 501.092 1027.420, 501.092 1037.420, 501.092 1047.420, 501.092 1057.420, 501.092 1067.420, 501.092 1077.420, 501.092 1086.950, 501.092 1093.709, 508.461 1096.852, 511.888 1103.611, 519.258 1110.370, 526.627 1115.496, 532.216 " />
            <path fill="none" stroke-width="3.0" stroke-linecap="butt" stroke-opacity="1.0" stroke="rgb(0, 0, 0)" stroke-linejoin="round" d=" M 919.534, 501.092 919.534, 501.092 919.534, 501.092 929.534, 501.092 939.534, 501.092 949.534, 501.092 953.477, 501.092 953.477, 501.092 963.477, 501.092 973.477, 501.092 983.477, 501.092 987.419, 501.092 987.420, 501.092 987.420, 501.092 987.419, 501.092 977.419, 501.092 967.419, 501.092 957.419, 501.092 953.477, 501.092 943.477, 501.092 933.477, 501.092 923.477, 501.092 919.534, 501.092 919.534, 501.092 " />
            <path fill="none" stroke-width="3.0" stroke-linecap="butt" stroke-opacity="1.0" stroke="rgb(0, 0, 0)" stroke-linejoin="round" d=" M 1225.684, 501.092 1215.684, 501.092 1205.684, 501.092 1195.684, 501.092 1186.490, 501.092 " />
            <path fill="none" stroke-width="3.0" stroke-linecap="butt" stroke-opacity="1.0" stroke="rgb(0, 0, 0)" stroke-linejoin="round" d=" M 1086.953, 501.092 1086.953, 501.092 1096.953, 501.092 1106.953, 501.092 1116.953, 501.092 1126.953, 501.092 1136.953, 501.092 1146.953, 501.092 1156.953, 501.092 1166.953, 501.092 1176.953, 501.092 1186.490, 501.092 1176.490, 501.092 1166.893, 501.092 " />
            <path fill="none" stroke-width="3.0" stroke-linecap="butt" stroke-opacity="1.0" stroke="rgb(0, 0, 0)" stroke-linejoin="round" d=" M 919.534, 501.091 919.534, 501.091 " />
            <path fill="none" stroke-width="3.0" stroke-linecap="butt" stroke-opacity="1.0" stroke="rgb(0, 0, 0)" stroke-linejoin="round" d=" M 720.463, 501.092 720.464, 501.092 730.464, 501.092 740.060, 501.092 750.060, 501.092 760.060, 501.092 770.060, 501.092 780.060, 501.092 790.060, 501.092 800.060, 501.092 810.060, 501.092 819.999, 501.092 813.240, 508.462 810.099, 511.887 803.340, 519.258 796.582, 526.628 791.458, 532.216 " />
            <path fill="none" stroke-width="3.0" stroke-linecap="butt" stroke-opacity="1.0" stroke="rgb(0, 0, 0)" stroke-linejoin="round" d=" M 953.477, 532.216 953.477, 529.156 953.477, 519.156 953.477, 509.156 953.477, 501.092 " />
            <path fill="none" stroke-width="3.0" stroke-linecap="butt" stroke-opacity="1.0" stroke="rgb(0, 0, 0)" stroke-linejoin="round" d=" M 791.458, 532.216 791.457, 532.216 " />
            <path fill="none" stroke-width="3.0" stroke-linecap="butt" stroke-opacity="1.0" stroke="rgb(0, 0, 0)" stroke-linejoin="round" d=" M 953.477, 579.054 953.477, 575.995 " />
        </g>
    </g>
</svg>
