<?xml version='1.0' encoding='ascii'?>
<svg xmlns="http://www.w3.org/2000/svg" version="1.1" width="1920" height="1080">
    <g id="ViewLayer_LineSet" xmlns:inkscape="http://www.inkscape.org/namespaces/inkscape" inkscape:groupmode="lineset" inkscape:label="ViewLayer_LineSet">
        <g xmlns:inkscape="http://www.inkscape.org/namespaces/inkscape" inkscape:groupmode="layer" id="strokes" inkscape:label="strokes">
            <path fill="none" stroke-width="3.0" stroke-linecap="butt" stroke-opacity="1.0" stroke="rgb(0, 0, 0)" stroke-linejoin="round" d=" M 519.644, 563.114 528.859, 566.998 538.074, 570.882 547.289, 574.766 556.504, 578.650 565.719, 582.534 574.934, 586.418 584.149, 590.302 593.364, 594.186 602.579, 598.070 611.794, 601.954 621.009, 605.838 630.223, 609.722 639.438, 613.606 648.653, 617.490 657.868, 621.373 667.083, 625.257 676.298, 629.141 685.513, 633.025 694.728, 636.909 703.943, 640.793 713.158, 644.677 722.373, 648.561 731.588, 652.445 740.803, 656.329 750.018, 660.213 759.233, 664.097 768.447, 667.981 777.662, 671.865 786.877, 675.749 791.457, 677.679 798.842, 684.422 806.227, 691.165 813.612, 697.908 820.996, 704.650 828.381, 711.393 835.766, 718.136 843.151, 724.879 850.535, 731.622 857.920, 738.364 865.305, 745.107 872.690, 751.850 880.074, 758.593 887.459, 765.336 894.844, 772.078 902.229, 778.821 909.613, 785.564 916.998, 792.307 924.383, 799.050 931.768, 805.793 939.152, 812.535 946.537, 819.278 953.477, 825.614 960.861, 818.872 968.246, 812.129 975.631, 805.386 983.016, 798.643 990.400, 791.900 997.785, 785.157 1005.170, 778.415 1012.555, 771.672 1019.939, 764.929 1027.324, 758.186 1034.709, 751.443 1042.094, 744.701 1049.478, 737.958 1056.863, 731.215 1064.248, 724.472 1071.632, 717.729 1079.017, 710.987 1086.402, 704.244 1093.787, 697.501 1101.171, 690.758 1108.556, 684.015 1115.496, 677.679 1124.710, 673.795 1133.925, 669.911 1143.140, 666.027 1152.355, 662.143 1161.570, 658.259 1170.785, 654.375 1180.000, 650.492 1189.215, 646.608 1198.430, 642.724 1207.645, 638.840 1216.860, 634.956 1226.075, 631.072 1235.290, 627.188 1244.505, 623.304 1253.720, 619.420 1262.934, 615.536 1272.149, 611.652 1281.364, 607.768 1290.579, 603.884 1299.794, 600.000 1309.009, 596.116 1318.224, 592.232 1327.439, 588.348 1336.654, 584.465 1345.869, 580.581 1355.084, 576.697 1364.299, 572.813 1373.514, 568.929 1382.729, 565.045 1387.309, 563.114 1387.309, 553.114 1387.309, 547.636 1387.309, 537.636 1387.309, 532.158 1378.094, 528.274 1368.879, 524.390 1359.664, 520.506 1350.449, 516.622 1341.234, 512.738 1332.019, 508.854 1322.804, 504.971 1313.589, 501.087 1304.374, 497.203 1295.159, 493.319 1285.945, 489.435 1276.730, 485.551 1267.515, 481.667 1258.300, 477.783 1249.085, 473.899 1239.870, 470.015 1230.655, 466.131 1221.440, 462.247 1212.225, 458.363 1203.010, 454.479 1193.795, 450.595 1184.580, 446.711 1175.365, 442.827 1166.150, 438.944 1156.935, 435.060 1147.721, 431.176 1138.506, 427.292 1129.291, 423.408 1120.076, 419.524 1115.496, 417.593 1108.111, 410.851 1100.726, 404.108 1093.341, 397.365 1085.957, 390.622 1078.572, 383.879 1071.187, 377.136 1063.802, 370.394 1056.418, 363.651 1049.033, 356.908 1041.648, 350.165 1034.263, 343.422 1026.879, 336.680 1019.494, 329.937 1012.109, 323.194 1004.724, 316.451 997.340, 309.708 989.955, 302.966 982.570, 296.223 975.185, 289.480 967.801, 282.737 960.416, 275.994 953.477, 269.658 946.092, 276.401 938.707, 283.144 931.322, 289.887 923.938, 296.629 916.553, 303.372 909.168, 310.115 901.783, 316.858 894.399, 323.601 887.014, 330.343 879.629, 337.086 872.244, 343.829 864.860, 350.572 857.475, 357.315 850.090, 364.057 842.705, 370.800 835.321, 377.543 827.936, 384.286 820.551, 391.029 813.166, 397.772 805.782, 404.514 798.397, 411.257 791.457, 417.593 782.243, 421.477 773.028, 425.361 763.813, 429.245 754.598, 433.129 745.383, 437.013 736.168, 440.897 726.953, 444.781 717.738, 448.665 708.523, 452.549 699.308, 456.433 690.093, 460.317 680.878, 464.201 671.663, 468.085 662.448, 471.969 653.233, 475.852 644.019, 479.736 634.804, 483.620 625.589, 487.504 616.374, 491.388 607.159, 495.272 597.944, 499.156 588.729, 503.040 579.514, 506.924 570.299, 510.808 561.084, 514.692 551.869, 518.576 542.654, 522.460 533.439, 526.344 524.224, 530.228 519.644, 532.158 519.644, 542.158 519.644, 547.636 519.644, 557.636 519.644, 563.114 " />
            <path fill="none" stroke-width="3.0" stroke-linecap="butt" stroke-opacity="1.0" stroke="rgb(0, 0, 0)" stroke-linejoin="round" d=" M 791.457, 417.593 791.457, 427.593 791.457, 433.071 791.457, 443.071 791.457, 448.550 " />
            <path fill="none" stroke-width="3.0" stroke-linecap="butt" stroke-opacity="1.0" stroke="rgb(0, 0, 0)" stroke-linejoin="round" d=" M 519.644, 563.114 528.859, 559.230 538.074, 555.346 547.289, 551.463 556.504, 547.579 565.719, 543.695 574.934, 539.811 584.149, 535.927 593.364, 532.043 602.579, 528.159 611.794, 524.275 621.009, 520.391 630.223, 516.507 639.438, 512.623 648.653, 508.739 657.868, 504.855 667.083, 500.971 676.298, 497.087 685.513, 493.203 694.728, 489.319 703.943, 485.435 713.158, 481.552 722.373, 477.668 731.588, 473.784 740.803, 469.900 750.018, 466.016 759.233, 462.132 768.447, 458.248 777.662, 454.364 786.877, 450.480 791.457, 448.550 798.842, 441.807 806.227, 435.064 813.612, 428.321 820.996, 421.578 828.381, 414.836 835.766, 408.093 843.151, 401.350 850.535, 394.607 857.920, 387.864 865.305, 381.121 872.690, 374.379 880.074, 367.636 887.459, 360.893 894.844, 354.150 902.229, 347.407 909.613, 340.665 916.998, 333.922 924.383, 327.179 931.768, 320.436 939.152, 313.693 946.537, 306.951 953.477, 300.614 " />
            <path fill="none" stroke-width="3.0" stroke-linecap="butt" stroke-opacity="1.0" stroke="rgb(0, 0, 0)" stroke-linejoin="round" d=" M 1387.309, 563.114 1378.094, 559.230 1368.879, 555.346 1359.664, 551.463 1350.449, 547.579 1341.234, 543.695 1332.019, 539.811 1322.804, 535.927 1313.589, 532.043 1304.374, 528.159 1295.159, 524.275 1285.945, 520.391 1276.730, 516.507 1267.515, 512.623 1258.300, 508.739 1249.085, 504.855 1239.870, 500.971 1230.655, 497.087 1221.440, 493.203 1212.225, 489.319 1203.010, 485.435 1193.795, 481.552 1184.580, 477.668 1175.365, 473.784 1166.150, 469.900 1156.935, 466.016 1147.721, 462.132 1138.506, 458.248 1129.291, 454.364 1120.076, 450.480 1115.496, 448.550 1108.111, 441.807 1100.726, 435.064 1093.341, 428.321 1085.957, 421.578 1078.572, 414.836 1071.187, 408.093 1063.802, 401.350 1056.418, 394.607 1049.033, 387.864 1041.648, 381.121 1034.263, 374.379 1026.879, 367.636 1019.494, 360.893 1012.109, 354.150 1004.724, 347.407 997.340, 340.665 989.955, 333.922 982.570, 327.179 975.185, 320.436 967.801, 313.693 960.416, 306.951 953.477, 300.614 953.477, 290.614 953.477, 285.136 953.477, 275.136 953.477, 269.658 " />
            <path fill="none" stroke-width="3.0" stroke-linecap="butt" stroke-opacity="1.0" stroke="rgb(0, 0, 0)" stroke-linejoin="round" d=" M 1115.496, 417.593 1115.496, 427.593 1115.496, 433.071 1115.496, 443.071 1115.496, 448.550 1109.891, 456.832 1104.287, 465.114 1098.683, 473.396 1093.079, 481.678 1087.475, 489.960 1086.950, 490.736 " />
            <path fill="none" stroke-width="3.0" stroke-linecap="butt" stroke-opacity="1.0" stroke="rgb(0, 0, 0)" stroke-linejoin="round" d=" M 987.419, 777.602 978.161, 781.382 968.903, 785.161 959.645, 788.941 953.477, 791.459 944.218, 787.679 934.960, 783.900 925.702, 780.120 919.534, 777.602 919.534, 767.602 919.534, 757.602 919.534, 749.888 " />
            <path fill="none" stroke-width="3.0" stroke-linecap="butt" stroke-opacity="1.0" stroke="rgb(0, 0, 0)" stroke-linejoin="round" d=" M 953.477, 791.459 953.477, 801.459 953.477, 811.459 953.477, 821.459 953.477, 825.614 " />
            <path fill="none" stroke-width="3.0" stroke-linecap="butt" stroke-opacity="1.0" stroke="rgb(0, 0, 0)" stroke-linejoin="round" d=" M 1115.496, 677.679 1105.516, 678.317 1095.536, 678.956 1086.953, 679.505 " />
            <path fill="none" stroke-width="3.0" stroke-linecap="butt" stroke-opacity="1.0" stroke="rgb(0, 0, 0)" stroke-linejoin="round" d=" M 1086.953, 679.505 1078.788, 685.278 1070.623, 691.052 1062.458, 696.825 1054.293, 702.599 1046.129, 708.373 1037.964, 714.146 1029.799, 719.920 1021.634, 725.694 1013.469, 731.467 1005.304, 737.241 997.139, 743.014 988.974, 748.788 987.419, 749.888 " />
            <path fill="none" stroke-width="3.0" stroke-linecap="butt" stroke-opacity="1.0" stroke="rgb(0, 0, 0)" stroke-linejoin="round" d=" M 819.997, 679.504 828.162, 685.278 836.327, 691.051 844.492, 696.825 852.657, 702.598 860.822, 708.372 868.987, 714.146 877.151, 719.919 885.316, 725.693 893.481, 731.466 901.646, 737.240 909.811, 743.013 917.976, 748.787 919.534, 749.888 928.792, 746.108 938.050, 742.328 947.308, 738.549 953.477, 736.030 962.735, 739.810 971.993, 743.590 981.251, 747.369 987.419, 749.888 987.419, 759.888 987.419, 769.888 987.419, 777.602 " />
            <path fill="none" stroke-width="3.0" stroke-linecap="butt" stroke-opacity="1.0" stroke="rgb(0, 0, 0)" stroke-linejoin="round" d=" M 791.457, 677.679 801.437, 678.317 811.417, 678.956 819.997, 679.504 " />
            <path fill="none" stroke-width="3.0" stroke-linecap="butt" stroke-opacity="1.0" stroke="rgb(0, 0, 0)" stroke-linejoin="round" d=" M 953.479, 565.279 945.881, 571.781 938.283, 578.283 930.685, 584.785 923.087, 591.286 915.489, 597.788 907.892, 604.290 900.294, 610.792 892.696, 617.293 885.098, 623.795 877.500, 630.297 869.902, 636.799 862.304, 643.300 854.707, 649.802 847.109, 656.304 839.511, 662.806 831.913, 669.307 824.315, 675.809 819.997, 679.504 811.832, 673.731 803.667, 667.957 795.502, 662.184 787.337, 656.410 779.172, 650.637 771.007, 644.863 762.842, 639.090 754.677, 633.316 746.512, 627.543 738.347, 621.769 730.182, 615.996 722.017, 610.222 720.463, 609.124 " />
            <path fill="none" stroke-width="3.0" stroke-linecap="butt" stroke-opacity="1.0" stroke="rgb(0, 0, 0)" stroke-linejoin="round" d=" M 720.463, 561.121 726.788, 568.867 733.113, 576.613 739.437, 584.359 740.060, 585.122 733.736, 592.868 727.411, 600.614 721.087, 608.360 720.463, 609.124 710.463, 609.124 700.463, 609.124 690.463, 609.124 681.269, 609.124 674.945, 601.378 668.620, 593.632 662.296, 585.886 661.672, 585.122 667.997, 577.376 674.322, 569.631 680.646, 561.885 681.269, 561.121 " />
            <path fill="none" stroke-width="3.0" stroke-linecap="butt" stroke-opacity="1.0" stroke="rgb(0, 0, 0)" stroke-linejoin="round" d=" M 661.672, 585.122 651.790, 583.591 641.908, 582.060 632.026, 580.529 622.144, 578.997 612.262, 577.466 602.380, 575.935 592.498, 574.403 582.616, 572.872 572.734, 571.341 562.852, 569.810 552.970, 568.278 543.088, 566.747 533.206, 565.216 523.324, 563.684 519.644, 563.114 " />
            <path fill="none" stroke-width="3.0" stroke-linecap="butt" stroke-opacity="1.0" stroke="rgb(0, 0, 0)" stroke-linejoin="round" d=" M 1086.950, 490.736 1095.115, 496.510 1103.280, 502.283 1111.445, 508.057 1119.610, 513.830 1127.775, 519.604 1135.940, 525.377 1144.105, 531.151 1152.270, 536.924 1160.435, 542.698 1168.600, 548.471 1176.765, 554.245 1184.930, 560.018 1186.490, 561.121 " />
            <path fill="none" stroke-width="3.0" stroke-linecap="butt" stroke-opacity="1.0" stroke="rgb(0, 0, 0)" stroke-linejoin="round" d=" M 1186.490, 561.121 1196.490, 561.121 1206.490, 561.121 1216.490, 561.121 1225.684, 561.121 " />
            <path fill="none" stroke-width="3.0" stroke-linecap="butt" stroke-opacity="1.0" stroke="rgb(0, 0, 0)" stroke-linejoin="round" d=" M 1225.684, 561.121 1232.008, 568.867 1238.333, 576.613 1244.657, 584.359 1245.281, 585.122 1238.956, 592.868 1232.631, 600.614 1226.307, 608.360 1225.684, 609.124 " />
            <path fill="none" stroke-width="3.0" stroke-linecap="butt" stroke-opacity="1.0" stroke="rgb(0, 0, 0)" stroke-linejoin="round" d=" M 1245.281, 585.122 1255.163, 583.591 1265.045, 582.060 1274.927, 580.529 1284.809, 578.997 1294.691, 577.466 1304.573, 575.935 1314.455, 574.403 1324.337, 572.872 1334.219, 571.341 1344.101, 569.810 1353.983, 568.278 1363.865, 566.747 1373.747, 565.216 1383.630, 563.684 1387.309, 563.114 " />
            <path fill="none" stroke-width="3.0" stroke-linecap="butt" stroke-opacity="1.0" stroke="rgb(0, 0, 0)" stroke-linejoin="round" d=" M 987.420, 420.357 987.420, 410.357 987.420, 400.357 987.420, 392.643 978.161, 388.863 968.903, 385.084 959.645, 381.304 953.477, 378.786 944.218, 382.565 934.960, 386.345 925.702, 390.125 919.534, 392.643 919.534, 402.643 919.534, 412.643 919.534, 420.357 " />
            <path fill="none" stroke-width="3.0" stroke-linecap="butt" stroke-opacity="1.0" stroke="rgb(0, 0, 0)" stroke-linejoin="round" d=" M 819.999, 490.740 828.164, 484.966 836.329, 479.193 844.494, 473.419 852.659, 467.645 860.824, 461.872 868.989, 456.098 877.154, 450.325 885.318, 444.551 893.483, 438.778 901.648, 433.004 909.813, 427.231 917.978, 421.457 919.534, 420.357 928.792, 424.137 938.050, 427.917 947.308, 431.696 953.477, 434.214 962.735, 430.435 971.993, 426.655 981.251, 422.876 987.420, 420.357 995.585, 426.131 1003.750, 431.904 1011.914, 437.678 1020.079, 443.451 1028.244, 449.225 1036.409, 454.998 1044.574, 460.772 1052.739, 466.545 1060.904, 472.319 1069.069, 478.092 1077.234, 483.866 1085.399, 489.639 1086.950, 490.736 1078.220, 495.612 1069.489, 500.488 1060.758, 505.364 1052.028, 510.240 1043.297, 515.116 1034.566, 519.992 1025.836, 524.868 1017.105, 529.744 1008.374, 534.620 999.644, 539.496 990.913, 544.372 982.182, 549.249 973.452, 554.125 964.721, 559.001 955.990, 563.877 953.479, 565.279 " />
            <path fill="none" stroke-width="3.0" stroke-linecap="butt" stroke-opacity="1.0" stroke="rgb(0, 0, 0)" stroke-linejoin="round" d=" M 681.269, 561.121 691.269, 561.121 701.269, 561.121 711.269, 561.121 720.463, 561.121 " />
            <path fill="none" stroke-width="3.0" stroke-linecap="butt" stroke-opacity="1.0" stroke="rgb(0, 0, 0)" stroke-linejoin="round" d=" M 1186.490, 609.124 1196.490, 609.124 1206.490, 609.124 1216.490, 609.124 1225.684, 609.124 " />
            <path fill="none" stroke-width="3.0" stroke-linecap="butt" stroke-opacity="1.0" stroke="rgb(0, 0, 0)" stroke-linejoin="round" d=" M 1186.490, 561.121 1180.165, 568.867 1173.840, 576.613 1167.516, 584.359 1166.893, 585.122 1173.217, 592.868 1179.542, 600.614 1185.866, 608.360 1186.490, 609.124 " />
            <path fill="none" stroke-width="3.0" stroke-linecap="butt" stroke-opacity="1.0" stroke="rgb(0, 0, 0)" stroke-linejoin="round" d=" M 791.457, 448.550 797.061, 456.832 802.664, 465.115 808.267, 473.398 813.870, 481.680 819.474, 489.963 819.999, 490.740 " />
            <path fill="none" stroke-width="3.0" stroke-linecap="butt" stroke-opacity="1.0" stroke="rgb(0, 0, 0)" stroke-linejoin="round" d=" M 953.477, 378.786 953.477, 368.786 953.477, 358.786 953.477, 348.786 953.477, 338.786 953.477, 328.786 953.477, 318.786 953.477, 308.786 953.477, 300.614 " />
            <path fill="none" stroke-width="3.0" stroke-linecap="butt" stroke-opacity="1.0" stroke="rgb(0, 0, 0)" stroke-linejoin="round" d=" M 1186.490, 609.124 1178.325, 614.897 1170.160, 620.671 1161.994, 626.444 1153.829, 632.217 1145.664, 637.991 1137.499, 643.764 1129.334, 649.537 1121.169, 655.311 1113.004, 661.084 1104.839, 666.858 1096.674, 672.631 1088.509, 678.404 1086.953, 679.505 1079.355, 673.003 1071.758, 666.501 1064.160, 659.999 1056.562, 653.497 1048.965, 646.995 1041.367, 640.493 1033.769, 633.991 1026.172, 627.489 1018.574, 620.987 1010.976, 614.485 1003.379, 607.983 995.781, 601.481 988.183, 594.979 980.586, 588.477 972.988, 581.975 965.390, 575.473 957.793, 568.971 953.479, 565.279 944.748, 560.404 936.017, 555.528 927.286, 550.653 918.555, 545.777 909.824, 540.901 901.093, 536.026 892.363, 531.150 883.632, 526.274 874.901, 521.399 866.170, 516.523 857.439, 511.647 848.708, 506.772 839.977, 501.896 831.246, 497.021 822.516, 492.145 819.999, 490.740 811.834, 496.513 803.669, 502.286 795.504, 508.060 787.339, 513.833 779.174, 519.607 771.009, 525.380 762.844, 531.154 754.679, 536.927 746.514, 542.701 738.349, 548.474 730.184, 554.248 722.019, 560.021 720.463, 561.121 " />
        </g>
    </g>
</svg>
