<?xml version='1.0' encoding='ascii'?>
<svg xmlns="http://www.w3.org/2000/svg" version="1.1" width="1920" height="1080">
    <g id="ViewLayer_LineSet" xmlns:inkscape="http://www.inkscape.org/namespaces/inkscape" inkscape:groupmode="lineset" inkscape:label="ViewLayer_LineSet">
        <g xmlns:inkscape="http://www.inkscape.org/namespaces/inkscape" inkscape:groupmode="layer" id="strokes" inkscape:label="strokes">
            <path fill="none" stroke-width="3.0" stroke-linecap="butt" stroke-opacity="1.0" stroke="rgb(0, 0, 0)" stroke-linejoin="round" d=" M 519.644, 546.123 528.310, 551.113 536.977, 556.102 545.643, 561.092 554.309, 566.081 562.975, 571.071 571.642, 576.061 580.308, 581.050 588.974, 586.040 597.640, 591.030 606.307, 596.019 614.973, 601.009 623.639, 605.999 632.305, 610.988 640.971, 615.978 649.638, 620.967 658.304, 625.957 666.970, 630.947 675.636, 635.936 684.303, 640.926 692.969, 645.916 701.635, 650.905 710.301, 655.895 718.967, 660.885 727.634, 665.874 736.300, 670.864 744.966, 675.854 753.632, 680.843 762.299, 685.833 770.965, 690.822 779.631, 695.812 788.297, 700.802 791.457, 702.621 797.713, 710.423 803.968, 718.225 810.223, 726.027 816.478, 733.829 822.734, 741.632 828.989, 749.434 835.244, 757.236 841.499, 765.038 847.755, 772.840 854.010, 780.642 860.265, 788.444 866.520, 796.246 872.776, 804.048 879.031, 811.850 885.286, 819.652 891.541, 827.454 897.797, 835.256 904.052, 843.058 910.307, 850.860 916.562, 858.662 922.818, 866.464 929.073, 874.266 935.328, 882.068 941.583, 889.870 947.839, 897.672 953.477, 904.705 959.732, 896.902 965.987, 889.100 972.242, 881.298 978.497, 873.496 984.753, 865.694 991.008, 857.892 997.263, 850.090 1003.518, 842.288 1009.774, 834.486 1016.029, 826.684 1022.284, 818.882 1028.539, 811.080 1034.795, 803.278 1041.050, 795.476 1047.305, 787.674 1053.560, 779.872 1059.816, 772.070 1066.071, 764.268 1072.326, 756.466 1078.581, 748.664 1084.837, 740.862 1091.092, 733.060 1097.347, 725.257 1103.602, 717.455 1109.858, 709.653 1115.496, 702.621 1124.162, 697.632 1132.828, 692.642 1141.494, 687.652 1150.161, 682.663 1158.827, 677.673 1167.493, 672.683 1176.159, 667.694 1184.825, 662.704 1193.492, 657.714 1202.158, 652.725 1210.824, 647.735 1219.490, 642.746 1228.156, 637.756 1236.823, 632.766 1245.489, 627.777 1254.155, 622.787 1262.821, 617.797 1271.488, 612.808 1280.154, 607.818 1288.820, 602.828 1297.486, 597.839 1306.153, 592.849 1314.819, 587.860 1323.485, 582.870 1332.151, 577.880 1340.818, 572.891 1349.484, 567.901 1358.150, 562.911 1366.816, 557.922 1375.482, 552.932 1384.149, 547.942 1387.309, 546.123 1387.309, 540.458 1387.309, 534.792 1378.643, 529.802 1369.976, 524.813 1361.310, 519.823 1352.644, 514.834 1343.978, 509.844 1335.311, 504.854 1326.645, 499.865 1317.979, 494.875 1309.313, 489.885 1300.646, 484.896 1291.980, 479.906 1283.314, 474.916 1274.648, 469.927 1265.982, 464.937 1257.315, 459.948 1248.649, 454.958 1239.983, 449.968 1231.317, 444.979 1222.651, 439.989 1213.984, 434.999 1205.318, 430.010 1196.652, 425.020 1187.986, 420.030 1179.319, 415.041 1170.653, 410.051 1161.987, 405.061 1153.321, 400.072 1144.654, 395.082 1135.988, 390.093 1127.322, 385.103 1118.656, 380.113 1115.496, 378.294 1109.240, 370.492 1102.985, 362.690 1096.730, 354.888 1090.475, 347.086 1084.219, 339.284 1077.964, 331.481 1071.709, 323.679 1065.454, 315.877 1059.198, 308.075 1052.943, 300.273 1046.688, 292.471 1040.433, 284.669 1034.177, 276.867 1027.922, 269.065 1021.667, 261.263 1015.412, 253.461 1009.156, 245.659 1002.901, 237.857 996.646, 230.055 990.391, 222.253 984.135, 214.451 977.880, 206.649 971.625, 198.847 965.370, 191.045 959.114, 183.243 953.477, 176.210 947.221, 184.013 940.966, 191.815 934.711, 199.617 928.456, 207.419 922.200, 215.221 915.945, 223.023 909.690, 230.825 903.435, 238.627 897.179, 246.429 890.924, 254.231 884.669, 262.033 878.414, 269.835 872.158, 277.637 865.903, 285.439 859.648, 293.241 853.393, 301.043 847.137, 308.845 840.882, 316.647 834.627, 324.449 828.372, 332.251 822.116, 340.053 815.861, 347.855 809.606, 355.658 803.351, 363.460 797.095, 371.262 791.457, 378.294 782.791, 383.283 774.125, 388.273 765.459, 393.263 756.793, 398.252 748.126, 403.242 739.460, 408.232 730.794, 413.221 722.128, 418.211 713.461, 423.201 704.795, 428.190 696.129, 433.180 687.463, 438.169 678.797, 443.159 670.130, 448.149 661.464, 453.138 652.798, 458.128 644.132, 463.118 635.465, 468.107 626.799, 473.097 618.133, 478.087 609.467, 483.076 600.800, 488.066 592.134, 493.055 583.468, 498.045 574.802, 503.035 566.136, 508.024 557.469, 513.014 548.803, 518.004 540.137, 522.993 531.471, 527.983 522.804, 532.973 519.644, 534.792 519.644, 540.458 519.644, 546.123 " />
            <path fill="none" stroke-width="3.0" stroke-linecap="butt" stroke-opacity="1.0" stroke="rgb(0, 0, 0)" stroke-linejoin="round" d=" M 791.457, 378.294 791.457, 383.959 791.457, 389.625 " />
            <path fill="none" stroke-width="3.0" stroke-linecap="butt" stroke-opacity="1.0" stroke="rgb(0, 0, 0)" stroke-linejoin="round" d=" M 519.644, 546.123 528.310, 541.133 536.977, 536.144 545.643, 531.154 554.309, 526.164 562.975, 521.175 571.642, 516.185 580.308, 511.195 588.974, 506.206 597.640, 501.216 606.307, 496.227 614.973, 491.237 623.639, 486.247 632.305, 481.258 640.971, 476.268 649.638, 471.278 658.304, 466.289 666.970, 461.299 675.636, 456.309 684.303, 451.320 692.969, 446.330 701.635, 441.340 710.301, 436.351 718.967, 431.361 727.634, 426.372 736.300, 421.382 744.966, 416.392 753.632, 411.403 762.299, 406.413 770.965, 401.423 779.631, 396.434 788.297, 391.444 791.457, 389.625 797.713, 381.822 803.968, 374.020 810.223, 366.218 816.478, 358.416 822.734, 350.614 828.989, 342.812 835.244, 335.010 841.499, 327.208 847.755, 319.406 854.010, 311.604 860.265, 303.802 866.520, 296.000 872.776, 288.198 879.031, 280.396 885.286, 272.594 891.541, 264.792 897.797, 256.990 904.052, 249.188 910.307, 241.386 916.562, 233.584 922.818, 225.781 929.073, 217.979 935.328, 210.177 941.583, 202.375 947.839, 194.573 953.477, 187.541 " />
            <path fill="none" stroke-width="3.0" stroke-linecap="butt" stroke-opacity="1.0" stroke="rgb(0, 0, 0)" stroke-linejoin="round" d=" M 1387.309, 546.123 1378.643, 541.133 1369.976, 536.144 1361.310, 531.154 1352.644, 526.164 1343.978, 521.175 1335.311, 516.185 1326.645, 511.195 1317.979, 506.206 1309.313, 501.216 1300.646, 496.227 1291.980, 491.237 1283.314, 486.247 1274.648, 481.258 1265.982, 476.268 1257.315, 471.278 1248.649, 466.289 1239.983, 461.299 1231.317, 456.309 1222.651, 451.320 1213.984, 446.330 1205.318, 441.340 1196.652, 436.351 1187.986, 431.361 1179.319, 426.372 1170.653, 421.382 1161.987, 416.392 1153.321, 411.403 1144.654, 406.413 1135.988, 401.423 1127.322, 396.434 1118.656, 391.444 1115.496, 389.625 1109.240, 381.822 1102.985, 374.020 1096.730, 366.218 1090.475, 358.416 1084.219, 350.614 1077.964, 342.812 1071.709, 335.010 1065.454, 327.208 1059.198, 319.406 1052.943, 311.604 1046.688, 303.802 1040.433, 296.000 1034.177, 288.198 1027.922, 280.396 1021.667, 272.594 1015.412, 264.792 1009.156, 256.990 1002.901, 249.188 996.646, 241.386 990.391, 233.584 984.135, 225.781 977.880, 217.979 971.625, 210.177 965.370, 202.375 959.115, 194.573 953.477, 187.541 953.477, 181.876 953.477, 176.210 " />
            <path fill="none" stroke-width="3.0" stroke-linecap="butt" stroke-opacity="1.0" stroke="rgb(0, 0, 0)" stroke-linejoin="round" d=" M 1115.496, 378.294 1115.496, 383.959 1115.496, 389.625 1109.242, 397.428 1102.988, 405.231 1096.735, 413.035 1090.481, 420.838 1086.950, 425.244 " />
            <path fill="none" stroke-width="3.0" stroke-linecap="butt" stroke-opacity="1.0" stroke="rgb(0, 0, 0)" stroke-linejoin="round" d=" M 987.419, 817.110 978.686, 821.981 969.952, 826.851 961.218, 831.722 953.477, 836.040 944.743, 831.169 936.009, 826.298 927.275, 821.428 919.534, 817.110 919.534, 807.110 919.534, 797.110 919.534, 787.110 919.534, 779.252 " />
            <path fill="none" stroke-width="3.0" stroke-linecap="butt" stroke-opacity="1.0" stroke="rgb(0, 0, 0)" stroke-linejoin="round" d=" M 953.477, 836.040 953.477, 846.040 953.477, 856.040 953.477, 866.040 953.477, 876.040 953.477, 886.040 953.477, 896.040 953.477, 904.705 " />
            <path fill="none" stroke-width="3.0" stroke-linecap="butt" stroke-opacity="1.0" stroke="rgb(0, 0, 0)" stroke-linejoin="round" d=" M 1115.496, 702.621 1107.240, 696.977 1098.985, 691.333 1090.730, 685.689 1086.953, 683.107 " />
            <path fill="none" stroke-width="3.0" stroke-linecap="butt" stroke-opacity="1.0" stroke="rgb(0, 0, 0)" stroke-linejoin="round" d=" M 1086.953, 683.107 1079.760, 690.054 1072.568, 697.002 1065.376, 703.949 1058.183, 710.897 1050.991, 717.845 1043.798, 724.792 1036.606, 731.740 1029.413, 738.687 1022.221, 745.635 1015.029, 752.583 1007.836, 759.530 1000.644, 766.478 993.451, 773.425 987.419, 779.252 " />
            <path fill="none" stroke-width="3.0" stroke-linecap="butt" stroke-opacity="1.0" stroke="rgb(0, 0, 0)" stroke-linejoin="round" d=" M 819.997, 683.107 827.189, 690.054 834.382, 697.002 841.574, 703.949 848.767, 710.896 855.959, 717.844 863.152, 724.791 870.345, 731.739 877.537, 738.686 884.730, 745.634 891.922, 752.581 899.115, 759.529 906.307, 766.476 913.500, 773.424 919.534, 779.252 928.267, 774.381 937.001, 769.511 945.735, 764.640 953.477, 760.323 962.210, 765.193 970.944, 770.064 979.678, 774.934 987.419, 779.252 987.419, 789.252 987.419, 799.252 987.419, 809.252 987.419, 817.110 " />
            <path fill="none" stroke-width="3.0" stroke-linecap="butt" stroke-opacity="1.0" stroke="rgb(0, 0, 0)" stroke-linejoin="round" d=" M 791.457, 702.621 799.712, 696.977 807.967, 691.332 816.222, 685.688 819.997, 683.107 " />
            <path fill="none" stroke-width="3.0" stroke-linecap="butt" stroke-opacity="1.0" stroke="rgb(0, 0, 0)" stroke-linejoin="round" d=" M 953.479, 546.917 946.479, 554.059 939.479, 561.200 932.480, 568.342 925.480, 575.484 918.480, 582.625 911.480, 589.767 904.481, 596.909 897.481, 604.051 890.481, 611.192 883.482, 618.334 876.482, 625.476 869.482, 632.617 862.482, 639.759 855.483, 646.901 848.483, 654.043 841.483, 661.184 834.484, 668.326 827.484, 675.468 819.997, 683.107 812.804, 676.159 805.612, 669.212 798.419, 662.264 791.227, 655.317 784.034, 648.369 776.841, 641.422 769.649, 634.474 762.456, 627.527 755.264, 620.579 748.071, 613.632 740.879, 606.685 733.686, 599.737 726.494, 592.790 720.463, 586.965 " />
            <path fill="none" stroke-width="3.0" stroke-linecap="butt" stroke-opacity="1.0" stroke="rgb(0, 0, 0)" stroke-linejoin="round" d=" M 720.463, 521.392 725.594, 529.976 730.725, 538.559 735.855, 547.143 740.060, 554.178 734.930, 562.762 729.799, 571.346 724.669, 579.929 720.463, 586.965 710.463, 586.965 700.463, 586.965 690.463, 586.965 681.269, 586.965 676.139, 578.381 671.008, 569.798 665.878, 561.214 661.672, 554.178 666.803, 545.595 671.934, 537.011 677.064, 528.428 681.269, 521.392 " />
            <path fill="none" stroke-width="3.0" stroke-linecap="butt" stroke-opacity="1.0" stroke="rgb(0, 0, 0)" stroke-linejoin="round" d=" M 661.672, 554.178 651.688, 553.612 641.705, 553.046 631.721, 552.480 621.737, 551.913 611.753, 551.347 601.769, 550.781 591.785, 550.215 581.801, 549.648 571.817, 549.082 561.833, 548.516 551.849, 547.949 541.865, 547.383 531.881, 546.817 521.897, 546.251 519.644, 546.123 " />
            <path fill="none" stroke-width="3.0" stroke-linecap="butt" stroke-opacity="1.0" stroke="rgb(0, 0, 0)" stroke-linejoin="round" d=" M 1086.950, 425.244 1094.143, 432.192 1101.335, 439.139 1108.528, 446.087 1115.720, 453.034 1122.913, 459.982 1130.105, 466.929 1137.298, 473.877 1144.491, 480.824 1151.683, 487.771 1158.876, 494.719 1166.068, 501.666 1173.261, 508.614 1180.453, 515.561 1186.490, 521.392 " />
            <path fill="none" stroke-width="3.0" stroke-linecap="butt" stroke-opacity="1.0" stroke="rgb(0, 0, 0)" stroke-linejoin="round" d=" M 1186.490, 586.965 1181.359, 578.381 1176.229, 569.798 1171.098, 561.214 1166.893, 554.178 1172.023, 545.595 1177.154, 537.011 1182.284, 528.428 1186.490, 521.392 1196.490, 521.392 1206.490, 521.392 1216.490, 521.392 1225.684, 521.392 1230.814, 529.976 1235.945, 538.559 1241.075, 547.143 1245.281, 554.178 1240.150, 562.762 1235.020, 571.346 1229.889, 579.929 1225.684, 586.965 " />
            <path fill="none" stroke-width="3.0" stroke-linecap="butt" stroke-opacity="1.0" stroke="rgb(0, 0, 0)" stroke-linejoin="round" d=" M 1245.281, 554.178 1255.265, 553.612 1265.249, 553.046 1275.232, 552.480 1285.216, 551.913 1295.200, 551.347 1305.184, 550.781 1315.168, 550.215 1325.152, 549.648 1335.136, 549.082 1345.120, 548.516 1355.104, 547.949 1365.088, 547.383 1375.072, 546.817 1385.056, 546.251 1387.309, 546.123 " />
            <path fill="none" stroke-width="3.0" stroke-linecap="butt" stroke-opacity="1.0" stroke="rgb(0, 0, 0)" stroke-linejoin="round" d=" M 987.420, 329.105 987.420, 319.105 987.420, 309.105 987.420, 299.105 987.420, 291.247 978.686, 286.376 969.952, 281.505 961.218, 276.635 953.477, 272.317 944.743, 277.188 936.009, 282.058 927.275, 286.929 919.534, 291.247 919.534, 301.247 919.534, 311.247 919.534, 321.247 919.534, 329.105 " />
            <path fill="none" stroke-width="3.0" stroke-linecap="butt" stroke-opacity="1.0" stroke="rgb(0, 0, 0)" stroke-linejoin="round" d=" M 819.999, 425.249 827.191, 418.301 834.384, 411.354 841.576, 404.406 848.769, 397.459 855.962, 390.511 863.154, 383.564 870.347, 376.617 877.539, 369.669 884.732, 362.721 891.924, 355.774 899.117, 348.826 906.309, 341.879 913.502, 334.932 919.534, 329.105 928.267, 333.976 937.001, 338.846 945.735, 343.717 953.477, 348.034 962.210, 343.164 970.944, 338.293 979.678, 333.423 987.420, 329.105 994.612, 336.053 1001.805, 343.000 1008.997, 349.947 1016.190, 356.895 1023.382, 363.842 1030.575, 370.790 1037.767, 377.737 1044.960, 384.685 1052.152, 391.632 1059.345, 398.580 1066.538, 405.527 1073.730, 412.475 1080.923, 419.422 1086.950, 425.244 1079.560, 431.981 1072.170, 438.718 1064.780, 445.455 1057.390, 452.192 1049.999, 458.929 1042.609, 465.666 1035.219, 472.402 1027.829, 479.139 1020.439, 485.876 1013.049, 492.613 1005.658, 499.350 998.268, 506.087 990.878, 512.824 983.488, 519.560 976.098, 526.297 968.708, 533.034 961.317, 539.771 953.479, 546.917 " />
            <path fill="none" stroke-width="3.0" stroke-linecap="butt" stroke-opacity="1.0" stroke="rgb(0, 0, 0)" stroke-linejoin="round" d=" M 819.999, 425.249 812.806, 432.196 805.614, 439.144 798.421, 446.091 791.229, 453.039 784.036, 459.986 776.844, 466.934 769.651, 473.881 762.458, 480.828 755.266, 487.776 748.073, 494.723 740.881, 501.671 733.688, 508.618 726.495, 515.566 720.463, 521.392 710.463, 521.392 700.463, 521.392 690.463, 521.392 681.269, 521.392 " />
            <path fill="none" stroke-width="3.0" stroke-linecap="butt" stroke-opacity="1.0" stroke="rgb(0, 0, 0)" stroke-linejoin="round" d=" M 791.457, 389.625 797.710, 397.429 803.963, 405.233 810.215, 413.037 816.468, 420.841 819.999, 425.249 827.389, 431.985 834.780, 438.722 842.170, 445.458 849.561, 452.195 856.951, 458.932 864.342, 465.668 871.732, 472.404 879.123, 479.141 886.513, 485.878 893.904, 492.614 901.294, 499.351 908.685, 506.087 916.076, 512.824 923.466, 519.560 930.857, 526.297 938.247, 533.033 945.638, 539.770 953.479, 546.917 960.478, 554.059 967.478, 561.201 974.477, 568.343 981.477, 575.485 988.476, 582.626 995.476, 589.768 1002.475, 596.910 1009.475, 604.052 1016.474, 611.194 1023.474, 618.336 1030.473, 625.478 1037.473, 632.620 1044.472, 639.762 1051.472, 646.904 1058.471, 654.046 1065.471, 661.188 1072.470, 668.329 1079.470, 675.471 1086.953, 683.107 1094.146, 676.159 1101.338, 669.212 1108.531, 662.265 1115.724, 655.317 1122.916, 648.370 1130.109, 641.423 1137.302, 634.475 1144.494, 627.528 1151.687, 620.581 1158.880, 613.633 1166.072, 606.686 1173.265, 599.739 1180.458, 592.791 1186.490, 586.965 1196.490, 586.965 1206.490, 586.965 1216.490, 586.965 1225.684, 586.965 " />
            <path fill="none" stroke-width="3.0" stroke-linecap="butt" stroke-opacity="1.0" stroke="rgb(0, 0, 0)" stroke-linejoin="round" d=" M 953.477, 272.317 953.477, 262.317 953.477, 252.317 953.477, 242.317 953.477, 232.317 953.477, 222.317 953.477, 212.317 953.477, 202.317 953.477, 192.317 953.477, 187.541 " />
        </g>
    </g>
</svg>
