<?xml version='1.0' encoding='ascii'?>
<svg xmlns="http://www.w3.org/2000/svg" version="1.1" width="1920" height="1080">
    <g id="ViewLayer_LineSet" xmlns:inkscape="http://www.inkscape.org/namespaces/inkscape" inkscape:groupmode="lineset" inkscape:label="ViewLayer_LineSet">
        <g xmlns:inkscape="http://www.inkscape.org/namespaces/inkscape" inkscape:groupmode="layer" id="strokes" inkscape:label="strokes">
            <path fill="none" stroke-width="3.0" stroke-linecap="butt" stroke-opacity="1.0" stroke="rgb(0, 0, 0)" stroke-linejoin="round" d=" M 519.644, 555.134 528.530, 559.721 537.416, 564.308 546.302, 568.895 555.188, 573.482 564.074, 578.069 572.960, 582.656 581.846, 587.243 590.732, 591.830 599.617, 596.417 608.503, 601.004 617.389, 605.591 626.275, 610.178 635.161, 614.765 644.047, 619.352 652.933, 623.939 661.819, 628.526 670.705, 633.113 679.591, 637.700 688.477, 642.287 697.363, 646.874 706.248, 651.461 715.134, 656.048 724.020, 660.635 732.906, 665.222 741.792, 669.809 750.678, 674.396 759.564, 678.983 768.450, 683.570 777.336, 688.157 786.222, 692.744 791.457, 695.447 798.123, 702.901 804.789, 710.355 811.455, 717.810 818.121, 725.264 824.787, 732.718 831.453, 740.173 838.118, 747.627 844.784, 755.081 851.450, 762.536 858.116, 769.990 864.782, 777.444 871.448, 784.898 878.113, 792.353 884.779, 799.807 891.445, 807.261 898.111, 814.716 904.777, 822.170 911.443, 829.624 918.109, 837.078 924.774, 844.533 931.440, 851.987 938.106, 859.441 944.772, 866.896 951.438, 874.350 953.477, 876.630 960.142, 869.176 966.808, 861.721 973.474, 854.267 980.140, 846.813 986.806, 839.358 993.472, 831.904 1000.137, 824.450 1006.803, 816.995 1013.469, 809.541 1020.135, 802.087 1026.801, 794.633 1033.467, 787.178 1040.133, 779.724 1046.798, 772.270 1053.464, 764.815 1060.130, 757.361 1066.796, 749.907 1073.462, 742.453 1080.128, 734.998 1086.793, 727.544 1093.459, 720.090 1100.125, 712.635 1106.791, 705.181 1113.457, 697.727 1115.496, 695.447 1124.381, 690.860 1133.267, 686.273 1142.153, 681.686 1151.039, 677.099 1159.925, 672.512 1168.811, 667.925 1177.697, 663.338 1186.583, 658.751 1195.469, 654.164 1204.355, 649.577 1213.241, 644.990 1222.127, 640.403 1231.012, 635.816 1239.898, 631.229 1248.784, 626.642 1257.670, 622.055 1266.556, 617.468 1275.442, 612.881 1284.328, 608.294 1293.214, 603.707 1302.100, 599.120 1310.986, 594.533 1319.872, 589.946 1328.758, 585.359 1337.643, 580.772 1346.529, 576.185 1355.415, 571.598 1364.301, 567.011 1373.187, 562.424 1382.073, 557.837 1387.309, 555.134 1387.309, 545.134 1387.309, 544.190 1387.309, 534.190 1387.309, 533.245 1378.423, 528.658 1369.537, 524.071 1360.651, 519.484 1351.765, 514.897 1342.879, 510.310 1333.993, 505.723 1325.107, 501.136 1316.221, 496.549 1307.336, 491.962 1298.450, 487.375 1289.564, 482.788 1280.678, 478.201 1271.792, 473.614 1262.906, 469.027 1254.020, 464.440 1245.134, 459.853 1236.248, 455.266 1227.362, 450.679 1218.476, 446.092 1209.590, 441.505 1200.705, 436.918 1191.819, 432.331 1182.933, 427.744 1174.047, 423.157 1165.161, 418.570 1156.275, 413.983 1147.389, 409.396 1138.503, 404.809 1129.617, 400.222 1120.731, 395.635 1115.496, 392.932 1108.830, 385.478 1102.164, 378.024 1095.498, 370.569 1088.832, 363.115 1082.166, 355.661 1075.500, 348.207 1068.835, 340.752 1062.169, 333.298 1055.503, 325.844 1048.837, 318.389 1042.171, 310.935 1035.505, 303.481 1028.840, 296.026 1022.174, 288.572 1015.508, 281.118 1008.842, 273.664 1002.176, 266.209 995.510, 258.755 988.844, 251.301 982.179, 243.846 975.513, 236.392 968.847, 228.938 962.181, 221.484 955.515, 214.029 953.477, 211.749 946.811, 219.204 940.145, 226.658 933.479, 234.112 926.813, 241.567 920.147, 249.021 913.481, 256.475 906.816, 263.929 900.150, 271.384 893.484, 278.838 886.818, 286.292 880.152, 293.747 873.486, 301.201 866.821, 308.655 860.155, 316.109 853.489, 323.564 846.823, 331.018 840.157, 338.472 833.491, 345.927 826.825, 353.381 820.160, 360.835 813.494, 368.290 806.828, 375.744 800.162, 383.198 793.496, 390.652 791.457, 392.932 782.572, 397.519 773.686, 402.106 764.800, 406.693 755.914, 411.280 747.028, 415.867 738.142, 420.454 729.256, 425.041 720.370, 429.628 711.484, 434.215 702.598, 438.802 693.712, 443.389 684.827, 447.976 675.941, 452.563 667.055, 457.150 658.169, 461.737 649.283, 466.324 640.397, 470.911 631.511, 475.498 622.625, 480.085 613.739, 484.672 604.853, 489.259 595.967, 493.846 587.081, 498.433 578.196, 503.020 569.310, 507.607 560.424, 512.194 551.538, 516.781 542.652, 521.368 533.766, 525.955 524.880, 530.542 519.644, 533.245 519.644, 543.245 519.644, 544.190 519.644, 554.190 519.644, 555.134 " />
            <path fill="none" stroke-width="3.0" stroke-linecap="butt" stroke-opacity="1.0" stroke="rgb(0, 0, 0)" stroke-linejoin="round" d=" M 791.457, 392.932 791.457, 402.932 791.457, 403.877 791.457, 413.877 791.457, 414.822 " />
            <path fill="none" stroke-width="3.0" stroke-linecap="butt" stroke-opacity="1.0" stroke="rgb(0, 0, 0)" stroke-linejoin="round" d=" M 519.644, 555.134 528.530, 550.547 537.416, 545.960 546.302, 541.373 555.188, 536.786 564.074, 532.199 572.960, 527.612 581.846, 523.025 590.732, 518.438 599.617, 513.851 608.503, 509.264 617.389, 504.677 626.275, 500.090 635.161, 495.503 644.047, 490.916 652.933, 486.329 661.819, 481.742 670.705, 477.155 679.591, 472.568 688.477, 467.981 697.363, 463.394 706.248, 458.807 715.134, 454.220 724.020, 449.633 732.906, 445.046 741.792, 440.459 750.678, 435.872 759.564, 431.285 768.450, 426.698 777.336, 422.111 786.222, 417.524 791.457, 414.822 798.123, 407.367 804.789, 399.913 811.455, 392.459 818.121, 385.004 824.787, 377.550 831.453, 370.096 838.118, 362.642 844.784, 355.187 851.450, 347.733 858.116, 340.279 864.782, 332.824 871.448, 325.370 878.114, 317.916 884.779, 310.462 891.445, 303.007 898.111, 295.553 904.777, 288.099 911.443, 280.644 918.109, 273.190 924.774, 265.736 931.440, 258.281 938.106, 250.827 944.772, 243.373 951.438, 235.919 953.477, 233.639 " />
            <path fill="none" stroke-width="3.0" stroke-linecap="butt" stroke-opacity="1.0" stroke="rgb(0, 0, 0)" stroke-linejoin="round" d=" M 1387.309, 555.134 1378.423, 550.547 1369.537, 545.960 1360.651, 541.373 1351.765, 536.786 1342.879, 532.199 1333.993, 527.612 1325.107, 523.025 1316.221, 518.438 1307.336, 513.851 1298.450, 509.264 1289.564, 504.677 1280.678, 500.090 1271.792, 495.503 1262.906, 490.916 1254.020, 486.329 1245.134, 481.742 1236.248, 477.155 1227.362, 472.568 1218.476, 467.981 1209.590, 463.394 1200.705, 458.807 1191.819, 454.220 1182.933, 449.633 1174.047, 445.046 1165.161, 440.459 1156.275, 435.872 1147.389, 431.285 1138.503, 426.698 1129.617, 422.111 1120.731, 417.524 1115.496, 414.822 1108.830, 407.367 1102.164, 399.913 1095.498, 392.459 1088.832, 385.004 1082.166, 377.550 1075.500, 370.096 1068.835, 362.642 1062.169, 355.187 1055.503, 347.733 1048.837, 340.279 1042.171, 332.824 1035.505, 325.370 1028.840, 317.916 1022.174, 310.462 1015.508, 303.007 1008.842, 295.553 1002.176, 288.099 995.510, 280.644 988.844, 273.190 982.179, 265.736 975.513, 258.281 968.847, 250.827 962.181, 243.373 955.515, 235.919 953.477, 233.639 953.477, 223.639 953.477, 222.694 953.477, 212.694 953.477, 211.749 " />
            <path fill="none" stroke-width="3.0" stroke-linecap="butt" stroke-opacity="1.0" stroke="rgb(0, 0, 0)" stroke-linejoin="round" d=" M 1115.496, 392.932 1115.496, 402.932 1115.496, 403.877 1115.496, 413.877 1115.496, 414.822 1109.713, 422.980 1103.931, 431.139 1098.148, 439.298 1092.366, 447.456 1086.950, 455.097 " />
            <path fill="none" stroke-width="3.0" stroke-linecap="butt" stroke-opacity="1.0" stroke="rgb(0, 0, 0)" stroke-linejoin="round" d=" M 987.419, 806.435 978.475, 810.907 969.531, 815.379 960.587, 819.851 953.477, 823.406 944.532, 818.934 935.588, 814.462 926.644, 809.990 919.534, 806.435 919.534, 796.435 919.534, 786.435 919.534, 776.435 919.534, 772.492 " />
            <path fill="none" stroke-width="3.0" stroke-linecap="butt" stroke-opacity="1.0" stroke="rgb(0, 0, 0)" stroke-linejoin="round" d=" M 953.477, 823.406 953.477, 833.406 953.477, 843.406 953.477, 853.406 953.477, 863.406 953.477, 873.406 953.477, 876.630 " />
            <path fill="none" stroke-width="3.0" stroke-linecap="butt" stroke-opacity="1.0" stroke="rgb(0, 0, 0)" stroke-linejoin="round" d=" M 1115.496, 695.447 1105.974, 692.392 1096.452, 689.337 1086.953, 686.290 " />
            <path fill="none" stroke-width="3.0" stroke-linecap="butt" stroke-opacity="1.0" stroke="rgb(0, 0, 0)" stroke-linejoin="round" d=" M 1086.953, 686.290 1079.394, 692.837 1071.835, 699.384 1064.275, 705.930 1056.716, 712.477 1049.157, 719.024 1041.598, 725.570 1034.039, 732.117 1026.479, 738.664 1018.920, 745.210 1011.361, 751.757 1003.802, 758.304 996.243, 764.850 988.684, 771.397 987.419, 772.492 " />
            <path fill="none" stroke-width="3.0" stroke-linecap="butt" stroke-opacity="1.0" stroke="rgb(0, 0, 0)" stroke-linejoin="round" d=" M 819.997, 686.290 827.556, 692.837 835.115, 699.383 842.675, 705.930 850.234, 712.476 857.793, 719.023 865.352, 725.569 872.912, 732.116 880.471, 738.663 888.030, 745.209 895.590, 751.756 903.149, 758.302 910.708, 764.849 918.268, 771.395 919.534, 772.492 928.478, 768.019 937.422, 763.547 946.366, 759.075 953.477, 755.520 962.421, 759.992 971.365, 764.464 980.309, 768.937 987.419, 772.492 987.419, 782.492 987.419, 792.492 987.419, 802.492 987.419, 806.435 " />
            <path fill="none" stroke-width="3.0" stroke-linecap="butt" stroke-opacity="1.0" stroke="rgb(0, 0, 0)" stroke-linejoin="round" d=" M 791.457, 695.447 800.979, 692.392 810.501, 689.337 819.997, 686.290 " />
            <path fill="none" stroke-width="3.0" stroke-linecap="butt" stroke-opacity="1.0" stroke="rgb(0, 0, 0)" stroke-linejoin="round" d=" M 953.479, 556.666 946.305, 563.633 939.131, 570.599 931.957, 577.566 924.783, 584.533 917.609, 591.499 910.435, 598.466 903.261, 605.432 896.087, 612.399 888.913, 619.366 881.739, 626.332 874.565, 633.299 867.391, 640.266 860.217, 647.232 853.043, 654.199 845.869, 661.166 838.695, 668.132 831.521, 675.099 824.347, 682.066 819.997, 686.290 812.437, 679.744 804.878, 673.197 797.319, 666.651 789.760, 660.104 782.200, 653.558 774.641, 647.011 767.082, 640.465 759.522, 633.918 751.963, 627.371 744.404, 620.825 736.845, 614.278 729.285, 607.732 721.726, 601.185 720.463, 600.092 " />
            <path fill="none" stroke-width="3.0" stroke-linecap="butt" stroke-opacity="1.0" stroke="rgb(0, 0, 0)" stroke-linejoin="round" d=" M 720.463, 541.301 726.010, 549.621 731.557, 557.942 737.104, 566.262 740.060, 570.696 734.513, 579.017 728.966, 587.337 723.419, 595.658 720.463, 600.092 710.463, 600.092 700.463, 600.092 690.463, 600.092 681.269, 600.092 675.722, 591.771 670.175, 583.451 664.628, 575.130 661.672, 570.696 667.219, 562.376 672.766, 554.055 678.313, 545.735 681.269, 541.301 " />
            <path fill="none" stroke-width="3.0" stroke-linecap="butt" stroke-opacity="1.0" stroke="rgb(0, 0, 0)" stroke-linejoin="round" d=" M 661.672, 570.696 651.732, 569.607 641.791, 568.518 631.851, 567.429 621.910, 566.340 611.970, 565.250 602.029, 564.161 592.089, 563.072 582.148, 561.983 572.208, 560.894 562.267, 559.805 552.327, 558.715 542.386, 557.626 532.446, 556.537 522.505, 555.448 519.644, 555.134 " />
            <path fill="none" stroke-width="3.0" stroke-linecap="butt" stroke-opacity="1.0" stroke="rgb(0, 0, 0)" stroke-linejoin="round" d=" M 1086.950, 455.097 1094.510, 461.644 1102.069, 468.190 1109.628, 474.737 1117.187, 481.283 1124.747, 487.830 1132.306, 494.376 1139.865, 500.923 1147.425, 507.469 1154.984, 514.016 1162.543, 520.563 1170.102, 527.109 1177.662, 533.656 1185.221, 540.202 1186.490, 541.301 " />
            <path fill="none" stroke-width="3.0" stroke-linecap="butt" stroke-opacity="1.0" stroke="rgb(0, 0, 0)" stroke-linejoin="round" d=" M 1186.490, 600.092 1180.943, 591.771 1175.396, 583.451 1169.849, 575.130 1166.893, 570.696 1172.440, 562.376 1177.987, 554.055 1183.534, 545.735 1186.490, 541.301 1196.490, 541.301 1206.490, 541.301 1216.490, 541.301 1225.684, 541.301 1231.231, 549.621 1236.778, 557.942 1242.325, 566.262 1245.281, 570.696 1239.734, 579.017 1234.187, 587.337 1228.640, 595.658 1225.684, 600.092 " />
            <path fill="none" stroke-width="3.0" stroke-linecap="butt" stroke-opacity="1.0" stroke="rgb(0, 0, 0)" stroke-linejoin="round" d=" M 1245.281, 570.696 1255.221, 569.607 1265.162, 568.518 1275.102, 567.429 1285.043, 566.340 1294.983, 565.250 1304.924, 564.161 1314.864, 563.072 1324.805, 561.983 1334.745, 560.894 1344.686, 559.805 1354.626, 558.715 1364.567, 557.626 1374.507, 556.537 1384.448, 555.448 1387.309, 555.134 " />
            <path fill="none" stroke-width="3.0" stroke-linecap="butt" stroke-opacity="1.0" stroke="rgb(0, 0, 0)" stroke-linejoin="round" d=" M 987.420, 368.901 987.420, 358.901 987.420, 348.901 987.420, 338.901 987.420, 334.958 978.475, 330.486 969.531, 326.014 960.587, 321.542 953.477, 317.987 944.532, 322.459 935.588, 326.931 926.644, 331.403 919.534, 334.958 919.534, 344.958 919.534, 354.958 919.534, 364.958 919.534, 368.901 " />
            <path fill="none" stroke-width="3.0" stroke-linecap="butt" stroke-opacity="1.0" stroke="rgb(0, 0, 0)" stroke-linejoin="round" d=" M 819.999, 455.101 827.558, 448.555 835.117, 442.008 842.677, 435.462 850.236, 428.915 857.795, 422.369 865.354, 415.822 872.914, 409.275 880.473, 402.729 888.032, 396.182 895.592, 389.636 903.151, 383.089 910.710, 376.543 918.269, 369.996 919.534, 368.901 928.478, 373.373 937.422, 377.845 946.366, 382.318 953.477, 385.873 962.421, 381.401 971.365, 376.928 980.309, 372.456 987.420, 368.901 994.979, 375.448 1002.538, 381.994 1010.097, 388.541 1017.657, 395.087 1025.216, 401.634 1032.775, 408.180 1040.335, 414.727 1047.894, 421.273 1055.453, 427.820 1063.012, 434.366 1070.572, 440.913 1078.131, 447.460 1085.690, 454.006 1086.950, 455.097 1078.992, 461.153 1071.034, 467.209 1063.077, 473.264 1055.119, 479.320 1047.161, 485.376 1039.203, 491.432 1031.245, 497.488 1023.287, 503.543 1015.329, 509.599 1007.371, 515.655 999.414, 521.711 991.456, 527.766 983.498, 533.822 975.540, 539.878 967.582, 545.934 959.624, 551.989 953.479, 556.666 " />
            <path fill="none" stroke-width="3.0" stroke-linecap="butt" stroke-opacity="1.0" stroke="rgb(0, 0, 0)" stroke-linejoin="round" d=" M 819.999, 455.101 812.440, 461.648 804.880, 468.194 797.321, 474.741 789.762, 481.287 782.202, 487.834 774.643, 494.380 767.084, 500.927 759.524, 507.473 751.965, 514.020 744.406, 520.566 736.846, 527.113 729.287, 533.659 721.728, 540.206 720.463, 541.301 710.463, 541.301 700.463, 541.301 690.463, 541.301 681.269, 541.301 " />
            <path fill="none" stroke-width="3.0" stroke-linecap="butt" stroke-opacity="1.0" stroke="rgb(0, 0, 0)" stroke-linejoin="round" d=" M 791.457, 414.822 797.239, 422.981 803.021, 431.140 808.802, 439.299 814.584, 447.459 819.999, 455.101 827.957, 461.157 835.915, 467.212 843.873, 473.268 851.832, 479.323 859.790, 485.378 867.748, 491.434 875.706, 497.489 883.664, 503.544 891.623, 509.600 899.581, 515.655 907.539, 521.710 915.497, 527.766 923.455, 533.821 931.413, 539.877 939.372, 545.932 947.330, 551.987 953.479, 556.666 960.652, 563.633 967.826, 570.600 975.000, 577.567 982.174, 584.533 989.348, 591.500 996.521, 598.467 1003.695, 605.434 1010.869, 612.401 1018.043, 619.368 1025.216, 626.335 1032.390, 633.301 1039.564, 640.268 1046.738, 647.235 1053.911, 654.202 1061.085, 661.169 1068.259, 668.136 1075.433, 675.102 1082.607, 682.069 1086.953, 686.290 1094.512, 679.744 1102.072, 673.198 1109.631, 666.651 1117.191, 660.105 1124.750, 653.558 1132.309, 647.012 1139.869, 640.465 1147.428, 633.919 1154.988, 627.373 1162.547, 620.826 1170.106, 614.280 1177.666, 607.733 1185.225, 601.187 1186.490, 600.092 1196.490, 600.092 1206.490, 600.092 1216.490, 600.092 1225.684, 600.092 " />
            <path fill="none" stroke-width="3.0" stroke-linecap="butt" stroke-opacity="1.0" stroke="rgb(0, 0, 0)" stroke-linejoin="round" d=" M 953.477, 317.987 953.477, 307.987 953.477, 297.987 953.477, 287.987 953.477, 277.987 953.477, 267.987 953.477, 257.987 953.477, 247.987 953.477, 237.987 953.477, 233.639 " />
        </g>
    </g>
</svg>
