<?xml version='1.0' encoding='ascii'?>
<svg xmlns="http://www.w3.org/2000/svg" version="1.1" width="1920" height="1080">
    <g id="ViewLayer_LineSet" xmlns:inkscape="http://www.inkscape.org/namespaces/inkscape" inkscape:groupmode="lineset" inkscape:label="ViewLayer_LineSet">
        <g xmlns:inkscape="http://www.inkscape.org/namespaces/inkscape" inkscape:groupmode="layer" id="strokes" inkscape:label="strokes">
            <path fill="none" stroke-width="3.0" stroke-linecap="butt" stroke-opacity="1.0" stroke="rgb(0, 0, 0)" stroke-linejoin="round" d=" M 519.644, 536.694 528.234, 541.814 536.824, 546.934 545.414, 552.054 554.003, 557.175 562.593, 562.295 571.183, 567.415 579.773, 572.535 588.363, 577.655 596.952, 582.775 605.542, 587.895 614.132, 593.015 622.722, 598.135 631.312, 603.255 639.901, 608.376 648.491, 613.496 657.081, 618.616 665.671, 623.736 674.261, 628.856 682.850, 633.976 691.440, 639.096 700.030, 644.216 708.620, 649.336 717.210, 654.456 725.799, 659.577 734.389, 664.697 742.979, 669.817 751.569, 674.937 760.159, 680.057 768.748, 685.177 777.338, 690.297 785.928, 695.417 791.457, 698.713 " />
            <path fill="none" stroke-width="3.0" stroke-linecap="butt" stroke-opacity="1.0" stroke="rgb(0, 0, 0)" stroke-linejoin="round" d=" M 953.477, 907.925 959.599, 900.019 965.722, 892.113 971.845, 884.206 977.968, 876.300 984.091, 868.393 990.214, 860.487 996.337, 852.581 1002.460, 844.674 1008.582, 836.768 1014.705, 828.862 1020.828, 820.955 1026.951, 813.049 1033.074, 805.143 1039.197, 797.236 1045.320, 789.330 1051.443, 781.424 1057.565, 773.517 1063.688, 765.611 1069.811, 757.705 1075.934, 749.798 1082.057, 741.892 1088.180, 733.986 1094.303, 726.079 1100.426, 718.173 1106.548, 710.266 1112.671, 702.360 1115.496, 698.713 " />
            <path fill="none" stroke-width="3.0" stroke-linecap="butt" stroke-opacity="1.0" stroke="rgb(0, 0, 0)" stroke-linejoin="round" d=" M 987.419, 808.901 978.759, 813.901 970.099, 818.901 961.439, 823.901 953.477, 828.498 944.816, 823.498 936.156, 818.498 927.496, 813.498 919.534, 808.901 919.534, 798.901 919.534, 788.901 919.534, 778.901 919.534, 769.707 " />
            <path fill="none" stroke-width="3.0" stroke-linecap="butt" stroke-opacity="1.0" stroke="rgb(0, 0, 0)" stroke-linejoin="round" d=" M 953.477, 828.498 953.477, 838.498 953.477, 848.498 953.477, 858.498 953.477, 868.498 953.477, 878.498 953.477, 888.498 953.477, 898.498 953.477, 907.925 " />
            <path fill="none" stroke-width="3.0" stroke-linecap="butt" stroke-opacity="1.0" stroke="rgb(0, 0, 0)" stroke-linejoin="round" d=" M 1387.309, 536.694 1378.719, 541.814 1370.129, 546.934 1361.539, 552.054 1352.950, 557.175 1344.360, 562.295 1335.770, 567.415 1327.180, 572.535 1318.590, 577.655 1310.001, 582.775 1301.411, 587.895 1292.821, 593.015 1284.231, 598.135 1275.641, 603.255 1267.052, 608.376 1258.462, 613.496 1249.872, 618.616 1241.282, 623.736 1232.693, 628.856 1224.103, 633.976 1215.513, 639.096 1206.923, 644.216 1198.333, 649.336 1189.744, 654.456 1181.154, 659.577 1172.564, 664.697 1163.974, 669.817 1155.384, 674.937 1146.795, 680.057 1138.205, 685.177 1129.615, 690.297 1121.025, 695.417 1115.496, 698.713 1108.425, 691.642 1101.353, 684.571 1094.282, 677.500 1086.953, 670.171 " />
            <path fill="none" stroke-width="3.0" stroke-linecap="butt" stroke-opacity="1.0" stroke="rgb(0, 0, 0)" stroke-linejoin="round" d=" M 1086.953, 670.171 1079.882, 677.242 1072.811, 684.313 1065.740, 691.384 1058.669, 698.455 1051.598, 705.526 1044.527, 712.598 1037.456, 719.669 1030.385, 726.740 1023.314, 733.811 1016.243, 740.882 1009.172, 747.954 1002.102, 755.025 995.031, 762.096 987.419, 769.707 " />
            <path fill="none" stroke-width="3.0" stroke-linecap="butt" stroke-opacity="1.0" stroke="rgb(0, 0, 0)" stroke-linejoin="round" d=" M 819.997, 670.170 827.068, 677.242 834.139, 684.313 841.210, 691.384 848.281, 698.455 855.352, 705.526 862.423, 712.597 869.494, 719.668 876.565, 726.739 883.636, 733.810 890.707, 740.881 897.779, 747.952 904.850, 755.023 911.921, 762.094 919.534, 769.707 928.194, 764.707 936.854, 759.707 945.514, 754.707 953.477, 750.110 962.137, 755.110 970.797, 760.110 979.457, 765.110 987.419, 769.707 987.419, 779.707 987.419, 789.707 987.419, 799.707 987.419, 808.901 " />
            <path fill="none" stroke-width="3.0" stroke-linecap="butt" stroke-opacity="1.0" stroke="rgb(0, 0, 0)" stroke-linejoin="round" d=" M 791.457, 698.713 798.528, 691.642 805.599, 684.570 812.669, 677.499 819.997, 670.170 " />
            <path fill="none" stroke-width="3.0" stroke-linecap="butt" stroke-opacity="1.0" stroke="rgb(0, 0, 0)" stroke-linejoin="round" d=" M 953.479, 536.696 946.407, 543.767 939.336, 550.838 932.265, 557.909 925.194, 564.980 918.122, 572.051 911.051, 579.121 903.980, 586.192 896.909, 593.263 889.837, 600.334 882.766, 607.405 875.695, 614.476 868.623, 621.547 861.552, 628.617 854.481, 635.688 847.410, 642.759 840.338, 649.830 833.267, 656.901 826.196, 663.972 819.997, 670.170 812.926, 663.099 805.855, 656.028 798.784, 648.957 791.712, 641.886 784.641, 634.815 777.570, 627.744 770.499, 620.673 763.428, 613.602 756.357, 606.531 749.286, 599.460 742.215, 592.389 735.144, 585.318 728.073, 578.247 720.463, 570.637 " />
            <path fill="none" stroke-width="3.0" stroke-linecap="butt" stroke-opacity="1.0" stroke="rgb(0, 0, 0)" stroke-linejoin="round" d=" M 720.463, 502.751 725.463, 511.411 730.463, 520.072 735.463, 528.732 740.060, 536.694 735.060, 545.354 730.060, 554.015 725.060, 562.675 720.463, 570.637 710.463, 570.637 700.463, 570.637 690.463, 570.637 681.269, 570.637 676.269, 561.977 671.269, 553.317 666.269, 544.656 661.672, 536.694 666.672, 528.034 671.672, 519.374 676.672, 510.713 681.269, 502.751 " />
            <path fill="none" stroke-width="3.0" stroke-linecap="butt" stroke-opacity="1.0" stroke="rgb(0, 0, 0)" stroke-linejoin="round" d=" M 661.672, 536.694 651.672, 536.694 641.672, 536.694 631.672, 536.694 621.672, 536.694 611.672, 536.694 601.672, 536.694 591.672, 536.694 581.672, 536.694 571.672, 536.694 561.672, 536.694 551.672, 536.694 541.672, 536.694 531.672, 536.694 521.672, 536.694 519.644, 536.694 " />
            <path fill="none" stroke-width="3.0" stroke-linecap="butt" stroke-opacity="1.0" stroke="rgb(0, 0, 0)" stroke-linejoin="round" d=" M 1387.309, 536.694 1378.719, 531.574 1370.129, 526.454 1361.539, 521.334 1352.950, 516.214 1344.360, 511.094 1335.770, 505.974 1327.180, 500.853 1318.590, 495.733 1310.001, 490.613 1301.411, 485.493 1292.821, 480.373 1284.231, 475.253 1275.641, 470.133 1267.052, 465.013 1258.462, 459.893 1249.872, 454.773 1241.282, 449.652 1232.693, 444.532 1224.103, 439.412 1215.513, 434.292 1206.923, 429.172 1198.333, 424.052 1189.744, 418.932 1181.154, 413.812 1172.564, 408.692 1163.974, 403.572 1155.384, 398.451 1146.795, 393.331 1138.205, 388.211 1129.615, 383.091 1121.025, 377.971 1115.496, 374.675 1108.423, 381.745 1101.351, 388.815 1094.279, 395.885 1086.950, 403.212 " />
            <path fill="none" stroke-width="3.0" stroke-linecap="butt" stroke-opacity="1.0" stroke="rgb(0, 0, 0)" stroke-linejoin="round" d=" M 1086.950, 403.212 1094.021, 410.283 1101.092, 417.354 1108.163, 424.425 1115.234, 431.496 1122.306, 438.567 1129.377, 445.638 1136.448, 452.709 1143.519, 459.780 1150.590, 466.851 1157.661, 473.922 1164.732, 480.993 1171.803, 488.065 1178.874, 495.136 1186.490, 502.751 " />
            <path fill="none" stroke-width="3.0" stroke-linecap="butt" stroke-opacity="1.0" stroke="rgb(0, 0, 0)" stroke-linejoin="round" d=" M 1186.490, 570.637 1181.490, 561.977 1176.490, 553.317 1171.490, 544.656 1166.893, 536.694 1171.893, 528.034 1176.893, 519.374 1181.893, 510.713 1186.490, 502.751 1196.490, 502.751 1206.490, 502.751 1216.490, 502.751 1225.684, 502.751 1230.684, 511.411 1235.684, 520.072 1240.684, 528.732 1245.281, 536.694 1240.281, 545.354 1235.281, 554.015 1230.281, 562.675 1225.684, 570.637 " />
            <path fill="none" stroke-width="3.0" stroke-linecap="butt" stroke-opacity="1.0" stroke="rgb(0, 0, 0)" stroke-linejoin="round" d=" M 1245.281, 536.694 1255.281, 536.694 1265.281, 536.694 1275.281, 536.694 1285.281, 536.694 1295.281, 536.694 1305.281, 536.694 1315.281, 536.694 1325.281, 536.694 1335.281, 536.694 1345.281, 536.694 1355.281, 536.694 1365.281, 536.694 1375.281, 536.694 1385.281, 536.694 1387.309, 536.694 " />
            <path fill="none" stroke-width="3.0" stroke-linecap="butt" stroke-opacity="1.0" stroke="rgb(0, 0, 0)" stroke-linejoin="round" d=" M 987.420, 303.681 987.420, 293.681 987.420, 283.681 987.420, 273.681 987.420, 264.487 978.759, 259.487 970.099, 254.487 961.439, 249.487 953.477, 244.890 944.816, 249.890 936.156, 254.890 927.496, 259.890 919.534, 264.487 919.534, 274.487 919.534, 284.487 919.534, 294.487 919.534, 303.681 " />
            <path fill="none" stroke-width="3.0" stroke-linecap="butt" stroke-opacity="1.0" stroke="rgb(0, 0, 0)" stroke-linejoin="round" d=" M 819.999, 403.217 827.070, 396.145 834.141, 389.074 841.212, 382.003 848.283, 374.932 855.354, 367.861 862.425, 360.790 869.496, 353.719 876.567, 346.648 883.638, 339.577 890.709, 332.506 897.780, 325.434 904.851, 318.363 911.922, 311.292 919.534, 303.681 928.194, 308.681 936.854, 313.681 945.514, 318.681 953.477, 323.278 962.137, 318.278 970.797, 313.278 979.457, 308.278 987.420, 303.681 994.491, 310.752 1001.562, 317.823 1008.633, 324.894 1015.704, 331.965 1022.775, 339.036 1029.846, 346.107 1036.917, 353.179 1043.988, 360.250 1051.059, 367.321 1058.130, 374.392 1065.201, 381.463 1072.272, 388.534 1079.344, 395.605 1086.950, 403.212 1079.880, 410.283 1072.809, 417.355 1065.738, 424.426 1058.667, 431.497 1051.597, 438.569 1044.526, 445.640 1037.455, 452.712 1030.384, 459.783 1023.314, 466.854 1016.243, 473.926 1009.172, 480.997 1002.102, 488.069 995.031, 495.140 987.960, 502.211 980.889, 509.283 973.819, 516.354 966.748, 523.426 959.677, 530.497 953.479, 536.696 " />
            <path fill="none" stroke-width="3.0" stroke-linecap="butt" stroke-opacity="1.0" stroke="rgb(0, 0, 0)" stroke-linejoin="round" d=" M 819.999, 403.217 812.928, 410.288 805.857, 417.359 798.786, 424.430 791.715, 431.501 784.643, 438.572 777.572, 445.643 770.501, 452.714 763.430, 459.785 756.359, 466.856 749.288, 473.927 742.217, 480.998 735.146, 488.069 728.075, 495.140 720.463, 502.751 710.463, 502.751 700.463, 502.751 690.463, 502.751 681.269, 502.751 " />
            <path fill="none" stroke-width="3.0" stroke-linecap="butt" stroke-opacity="1.0" stroke="rgb(0, 0, 0)" stroke-linejoin="round" d=" M 519.644, 536.694 528.234, 531.574 536.824, 526.454 545.414, 521.334 554.003, 516.214 562.593, 511.094 571.183, 505.974 579.773, 500.853 588.363, 495.733 596.952, 490.613 605.542, 485.493 614.132, 480.373 622.722, 475.253 631.312, 470.133 639.901, 465.013 648.491, 459.893 657.081, 454.773 665.671, 449.652 674.261, 444.532 682.850, 439.412 691.440, 434.292 700.030, 429.172 708.620, 424.052 717.210, 418.932 725.799, 413.812 734.389, 408.692 742.979, 403.572 751.569, 398.451 760.159, 393.331 768.748, 388.211 777.338, 383.091 785.928, 377.971 791.457, 374.675 798.529, 381.746 805.600, 388.817 812.671, 395.888 819.999, 403.217 827.070, 410.288 834.141, 417.359 841.212, 424.430 848.283, 431.501 855.354, 438.572 862.425, 445.643 869.496, 452.714 876.568, 459.785 883.639, 466.856 890.710, 473.927 897.781, 480.998 904.852, 488.069 911.923, 495.140 918.994, 502.211 926.065, 509.283 933.136, 516.354 940.207, 523.425 947.278, 530.496 953.479, 536.696 960.550, 543.767 967.621, 550.838 974.692, 557.909 981.763, 564.981 988.834, 572.052 995.905, 579.123 1002.976, 586.194 1010.047, 593.265 1017.118, 600.336 1024.189, 607.407 1031.260, 614.478 1038.332, 621.549 1045.403, 628.620 1052.474, 635.691 1059.545, 642.762 1066.616, 649.833 1073.687, 656.904 1080.758, 663.976 1086.953, 670.171 1094.024, 663.100 1101.095, 656.029 1108.167, 648.958 1115.238, 641.887 1122.309, 634.816 1129.380, 627.745 1136.451, 620.674 1143.522, 613.603 1150.594, 606.532 1157.665, 599.461 1164.736, 592.390 1171.807, 585.319 1178.878, 578.248 1186.490, 570.637 1196.490, 570.637 1206.490, 570.637 1216.490, 570.637 1225.684, 570.637 " />
            <path fill="none" stroke-width="3.0" stroke-linecap="butt" stroke-opacity="1.0" stroke="rgb(0, 0, 0)" stroke-linejoin="round" d=" M 953.477, 244.890 953.477, 234.890 953.477, 224.890 953.477, 214.890 953.477, 204.890 953.477, 194.890 953.477, 184.890 953.477, 174.890 953.477, 165.463 " />
            <path fill="none" stroke-width="3.0" stroke-linecap="butt" stroke-opacity="1.0" stroke="rgb(0, 0, 0)" stroke-linejoin="round" d=" M 791.457, 698.713 797.580, 706.620 803.703, 714.526 809.826, 722.432 815.949, 730.339 822.072, 738.245 828.195, 746.151 834.318, 754.058 840.440, 761.964 846.563, 769.870 852.686, 777.777 858.809, 785.683 864.932, 793.589 871.055, 801.496 877.178, 809.402 883.301, 817.308 889.424, 825.215 895.546, 833.121 901.669, 841.027 907.792, 848.934 913.915, 856.840 920.038, 864.747 926.161, 872.653 932.284, 880.559 938.406, 888.466 944.529, 896.372 950.652, 904.278 953.477, 907.925 " />
            <path fill="none" stroke-width="3.0" stroke-linecap="butt" stroke-opacity="1.0" stroke="rgb(0, 0, 0)" stroke-linejoin="round" d=" M 953.477, 165.463 947.354, 173.369 941.231, 181.276 935.108, 189.182 928.985, 197.088 922.862, 204.995 916.739, 212.901 910.616, 220.807 904.494, 228.714 898.371, 236.620 892.248, 244.527 886.125, 252.433 880.002, 260.339 873.879, 268.246 867.756, 276.152 861.633, 284.058 855.510, 291.965 849.388, 299.871 843.265, 307.777 837.142, 315.684 831.019, 323.590 824.896, 331.496 818.773, 339.403 812.650, 347.309 806.528, 355.215 800.405, 363.122 794.282, 371.028 791.457, 374.675 " />
            <path fill="none" stroke-width="3.0" stroke-linecap="butt" stroke-opacity="1.0" stroke="rgb(0, 0, 0)" stroke-linejoin="round" d=" M 1115.496, 374.675 1109.373, 366.769 1103.250, 358.862 1097.127, 350.956 1091.004, 343.050 1084.881, 335.143 1078.758, 327.237 1072.635, 319.331 1066.513, 311.424 1060.390, 303.518 1054.267, 295.612 1048.144, 287.705 1042.021, 279.799 1035.898, 271.893 1029.775, 263.986 1023.652, 256.080 1017.530, 248.174 1011.407, 240.267 1005.284, 232.361 999.161, 224.454 993.038, 216.548 986.915, 208.642 980.792, 200.735 974.669, 192.829 968.547, 184.923 962.424, 177.016 956.301, 169.110 953.477, 165.463 " />
        </g>
    </g>
</svg>
