<?xml version='1.0' encoding='ascii'?>
<svg xmlns="http://www.w3.org/2000/svg" version="1.1" width="1920" height="1080">
    <g id="ViewLayer_LineSet" xmlns:inkscape="http://www.inkscape.org/namespaces/inkscape" inkscape:groupmode="lineset" inkscape:label="ViewLayer_LineSet">
        <g xmlns:inkscape="http://www.inkscape.org/namespaces/inkscape" inkscape:groupmode="layer" id="strokes" inkscape:label="strokes">
            <path fill="none" stroke-width="3.0" stroke-linecap="butt" stroke-opacity="1.0" stroke="rgb(0, 0, 0)" stroke-linejoin="round" d=" M 519.644, 531.606 519.644, 541.606 519.644, 550.563 519.644, 560.563 519.644, 569.519 " />
            <path fill="none" stroke-width="3.0" stroke-linecap="butt" stroke-opacity="1.0" stroke="rgb(0, 0, 0)" stroke-linejoin="round" d=" M 791.457, 450.596 791.457, 460.596 791.457, 469.553 791.457, 479.553 791.457, 488.510 " />
            <path fill="none" stroke-width="3.0" stroke-linecap="butt" stroke-opacity="1.0" stroke="rgb(0, 0, 0)" stroke-linejoin="round" d=" M 519.644, 569.519 529.228, 566.663 538.811, 563.807 548.395, 560.951 557.978, 558.095 567.561, 555.238 577.145, 552.382 586.728, 549.526 596.312, 546.670 605.895, 543.814 615.479, 540.957 625.062, 538.101 634.645, 535.245 644.229, 532.389 653.812, 529.533 663.396, 526.676 672.979, 523.820 682.563, 520.964 692.146, 518.108 701.729, 515.252 711.313, 512.396 720.896, 509.539 730.480, 506.683 740.063, 503.827 749.647, 500.971 759.230, 498.115 768.814, 495.258 778.397, 492.402 787.980, 489.546 791.457, 488.510 799.859, 483.086 808.260, 477.661 816.661, 472.237 825.062, 466.813 833.463, 461.389 841.864, 455.965 850.265, 450.541 858.667, 445.117 867.068, 439.693 875.469, 434.269 883.870, 428.845 892.271, 423.420 900.672, 417.996 909.073, 412.572 917.474, 407.148 925.876, 401.724 933.822, 396.594 938.450, 393.606 946.851, 388.181 953.477, 383.904 " />
            <path fill="none" stroke-width="3.0" stroke-linecap="butt" stroke-opacity="1.0" stroke="rgb(0, 0, 0)" stroke-linejoin="round" d=" M 1387.309, 531.606 1387.309, 541.606 1387.309, 550.563 1387.309, 560.563 1387.309, 569.519 1377.725, 566.663 1368.142, 563.807 1358.558, 560.951 1348.975, 558.095 1339.392, 555.238 1329.808, 552.382 1320.225, 549.526 1310.641, 546.670 1301.058, 543.814 1291.474, 540.957 1281.891, 538.101 1272.308, 535.245 1262.724, 532.389 1253.141, 529.533 1243.557, 526.676 1233.974, 523.820 1224.390, 520.964 1214.807, 518.108 1205.224, 515.252 1195.640, 512.396 1186.057, 509.539 1176.473, 506.683 1166.890, 503.827 1157.306, 500.971 1147.723, 498.115 1138.140, 495.258 1128.556, 492.402 1118.973, 489.546 1115.496, 488.510 1107.094, 483.086 1098.693, 477.661 1090.292, 472.237 1081.891, 466.813 1073.490, 461.389 1065.089, 455.965 1056.688, 450.541 1048.286, 445.117 1039.885, 439.693 1031.484, 434.269 1023.083, 428.845 1014.682, 423.420 1006.281, 417.996 997.880, 412.572 989.479, 407.148 981.077, 401.724 973.132, 396.594 968.503, 393.606 960.102, 388.181 953.477, 383.904 953.477, 373.904 953.477, 364.947 953.477, 354.947 953.477, 345.990 " />
            <path fill="none" stroke-width="3.0" stroke-linecap="butt" stroke-opacity="1.0" stroke="rgb(0, 0, 0)" stroke-linejoin="round" d=" M 1115.496, 450.596 1115.496, 460.596 1115.496, 469.553 1115.496, 479.553 1115.496, 488.510 1109.803, 496.731 1104.110, 504.952 1098.417, 513.174 1092.724, 521.395 1086.950, 529.732 " />
            <path fill="none" stroke-width="3.0" stroke-linecap="butt" stroke-opacity="1.0" stroke="rgb(0, 0, 0)" stroke-linejoin="round" d=" M 802.786, 657.843 811.187, 663.267 819.589, 668.691 827.990, 674.115 836.391, 679.540 844.792, 684.964 853.193, 690.388 861.594, 695.812 869.995, 701.236 878.396, 706.660 886.798, 712.084 895.199, 717.508 903.600, 722.932 912.001, 728.357 920.402, 733.781 928.803, 739.205 937.204, 744.629 945.605, 750.053 953.477, 755.135 961.878, 749.711 970.279, 744.287 978.680, 738.863 987.081, 733.438 995.482, 728.014 1003.883, 722.590 1012.284, 717.166 1020.686, 711.742 1029.087, 706.318 1037.488, 700.894 1045.889, 695.470 1054.290, 690.046 1062.691, 684.621 1071.092, 679.197 1079.494, 673.773 1087.895, 668.349 1096.296, 662.925 1104.170, 657.841 " />
            <path fill="none" stroke-width="3.0" stroke-linecap="butt" stroke-opacity="1.0" stroke="rgb(0, 0, 0)" stroke-linejoin="round" d=" M 987.419, 732.577 985.374, 733.168 975.766, 735.941 966.158, 738.715 956.551, 741.488 953.477, 742.376 943.869, 739.602 934.261, 736.829 924.653, 734.055 919.534, 732.577 919.534, 722.577 919.534, 712.980 " />
            <path fill="none" stroke-width="3.0" stroke-linecap="butt" stroke-opacity="1.0" stroke="rgb(0, 0, 0)" stroke-linejoin="round" d=" M 953.477, 742.376 953.477, 752.376 953.477, 755.135 " />
            <path fill="none" stroke-width="3.0" stroke-linecap="butt" stroke-opacity="1.0" stroke="rgb(0, 0, 0)" stroke-linejoin="round" d=" M 1086.953, 663.212 1078.009, 667.684 1069.065, 672.156 1060.120, 676.629 1051.176, 681.101 1042.232, 685.573 1033.288, 690.045 1024.344, 694.518 1015.399, 698.990 1006.455, 703.462 997.511, 707.934 988.567, 712.407 987.419, 712.980 " />
            <path fill="none" stroke-width="3.0" stroke-linecap="butt" stroke-opacity="1.0" stroke="rgb(0, 0, 0)" stroke-linejoin="round" d=" M 919.534, 712.980 929.141, 710.207 938.450, 707.520 948.057, 704.746 953.477, 703.182 953.477, 703.182 963.084, 705.955 968.503, 707.520 978.111, 710.293 987.419, 712.980 987.419, 722.980 987.419, 731.759 987.419, 732.577 " />
            <path fill="none" stroke-width="3.0" stroke-linecap="butt" stroke-opacity="1.0" stroke="rgb(0, 0, 0)" stroke-linejoin="round" d=" M 819.997, 663.212 811.052, 658.740 802.108, 654.268 793.164, 649.795 784.220, 645.323 775.275, 640.851 766.331, 636.379 757.387, 631.907 748.443, 627.435 739.498, 622.963 730.554, 618.490 721.610, 614.018 720.463, 613.445 " />
            <path fill="none" stroke-width="3.0" stroke-linecap="butt" stroke-opacity="1.0" stroke="rgb(0, 0, 0)" stroke-linejoin="round" d=" M 720.463, 579.502 728.023, 586.049 735.582, 592.595 740.060, 596.474 732.501, 603.020 724.942, 609.567 720.463, 613.445 710.463, 613.445 700.463, 613.445 690.463, 613.445 681.269, 613.445 673.710, 606.899 666.151, 600.352 661.672, 596.474 669.232, 589.927 676.791, 583.381 681.269, 579.502 " />
            <path fill="none" stroke-width="3.0" stroke-linecap="butt" stroke-opacity="1.0" stroke="rgb(0, 0, 0)" stroke-linejoin="round" d=" M 661.672, 596.474 651.848, 594.609 642.023, 592.745 632.199, 590.880 622.374, 589.015 612.549, 587.151 602.725, 585.286 592.900, 583.422 583.075, 581.557 573.251, 579.693 563.426, 577.828 553.601, 575.964 543.777, 574.099 533.952, 572.235 524.128, 570.370 519.644, 569.519 " />
            <path fill="none" stroke-width="3.0" stroke-linecap="butt" stroke-opacity="1.0" stroke="rgb(0, 0, 0)" stroke-linejoin="round" d=" M 1086.950, 529.732 1095.895, 534.205 1104.839, 538.677 1113.783, 543.149 1122.727, 547.621 1131.672, 552.093 1140.616, 556.565 1149.560, 561.037 1158.504, 565.509 1167.449, 569.982 1176.393, 574.454 1185.337, 578.926 1186.490, 579.502 " />
            <path fill="none" stroke-width="3.0" stroke-linecap="butt" stroke-opacity="1.0" stroke="rgb(0, 0, 0)" stroke-linejoin="round" d=" M 1186.490, 579.502 1196.490, 579.502 1206.490, 579.502 1216.490, 579.502 1225.684, 579.502 " />
            <path fill="none" stroke-width="3.0" stroke-linecap="butt" stroke-opacity="1.0" stroke="rgb(0, 0, 0)" stroke-linejoin="round" d=" M 1225.684, 579.502 1233.243, 586.049 1240.802, 592.595 1245.281, 596.474 1237.721, 603.020 1230.162, 609.567 1225.684, 613.445 " />
            <path fill="none" stroke-width="3.0" stroke-linecap="butt" stroke-opacity="1.0" stroke="rgb(0, 0, 0)" stroke-linejoin="round" d=" M 1245.281, 596.474 1255.105, 594.609 1264.930, 592.745 1274.755, 590.880 1284.579, 589.015 1294.404, 587.151 1304.228, 585.286 1314.053, 583.422 1323.878, 581.557 1333.702, 579.693 1343.527, 577.828 1353.352, 575.964 1363.176, 574.099 1373.001, 572.235 1382.826, 570.370 1387.309, 569.519 " />
            <path fill="none" stroke-width="3.0" stroke-linecap="butt" stroke-opacity="1.0" stroke="rgb(0, 0, 0)" stroke-linejoin="round" d=" M 987.420, 460.370 977.812, 457.597 968.204, 454.823 958.596, 452.050 953.477, 450.572 943.869, 453.345 934.261, 456.119 924.654, 458.892 919.534, 460.370 919.534, 470.370 919.534, 479.967 " />
            <path fill="none" stroke-width="3.0" stroke-linecap="butt" stroke-opacity="1.0" stroke="rgb(0, 0, 0)" stroke-linejoin="round" d=" M 819.999, 529.735 828.943, 525.263 837.887, 520.790 846.832, 516.318 855.776, 511.846 864.720, 507.374 873.664, 502.902 882.609, 498.430 891.553, 493.957 900.497, 489.485 909.442, 485.013 918.386, 480.541 919.534, 479.967 929.141, 482.741 938.749, 485.514 948.357, 488.288 953.477, 489.766 963.084, 486.992 972.692, 484.219 982.300, 481.445 987.420, 479.967 " />
            <path fill="none" stroke-width="3.0" stroke-linecap="butt" stroke-opacity="1.0" stroke="rgb(0, 0, 0)" stroke-linejoin="round" d=" M 987.420, 479.967 987.420, 469.967 987.420, 460.370 " />
            <path fill="none" stroke-width="3.0" stroke-linecap="butt" stroke-opacity="1.0" stroke="rgb(0, 0, 0)" stroke-linejoin="round" d=" M 681.269, 579.502 691.269, 579.502 701.269, 579.502 711.269, 579.502 720.463, 579.502 " />
            <path fill="none" stroke-width="3.0" stroke-linecap="butt" stroke-opacity="1.0" stroke="rgb(0, 0, 0)" stroke-linejoin="round" d=" M 1186.490, 613.445 1196.490, 613.445 1206.490, 613.445 1216.490, 613.445 1225.684, 613.445 " />
            <path fill="none" stroke-width="3.0" stroke-linecap="butt" stroke-opacity="1.0" stroke="rgb(0, 0, 0)" stroke-linejoin="round" d=" M 1186.490, 579.502 1178.930, 586.049 1171.371, 592.595 1166.893, 596.474 1174.452, 603.020 1182.011, 609.567 1186.490, 613.445 " />
            <path fill="none" stroke-width="3.0" stroke-linecap="butt" stroke-opacity="1.0" stroke="rgb(0, 0, 0)" stroke-linejoin="round" d=" M 791.457, 488.510 797.150, 496.732 802.842, 504.953 808.534, 513.175 814.226, 521.397 819.999, 529.735 " />
            <path fill="none" stroke-width="3.0" stroke-linecap="butt" stroke-opacity="1.0" stroke="rgb(0, 0, 0)" stroke-linejoin="round" d=" M 953.477, 450.572 953.477, 440.572 953.477, 440.299 953.477, 430.299 953.477, 420.299 953.477, 410.299 953.477, 408.216 953.477, 398.216 953.477, 397.943 953.477, 387.943 953.477, 383.904 " />
            <path fill="none" stroke-width="3.0" stroke-linecap="butt" stroke-opacity="1.0" stroke="rgb(0, 0, 0)" stroke-linejoin="round" d=" M 987.420, 479.967 996.364, 484.439 1005.308, 488.911 1014.252, 493.383 1023.197, 497.856 1032.141, 502.328 1041.085, 506.800 1050.029, 511.272 1058.974, 515.744 1067.918, 520.216 1076.862, 524.688 1085.807, 529.161 1086.950, 529.732 1077.420, 532.762 1067.891, 535.793 1058.361, 538.823 1048.831, 541.853 1039.301, 544.883 1029.771, 547.913 1020.241, 550.943 1010.711, 553.973 1001.181, 557.003 991.651, 560.033 982.121, 563.063 972.592, 566.093 963.062, 569.123 953.479, 572.170 " />
            <path fill="none" stroke-width="3.0" stroke-linecap="butt" stroke-opacity="1.0" stroke="rgb(0, 0, 0)" stroke-linejoin="round" d=" M 919.534, 712.980 910.589, 708.508 901.645, 704.036 892.701, 699.564 883.756, 695.092 874.812, 690.619 865.868, 686.147 856.924, 681.675 847.979, 677.203 839.035, 672.731 830.091, 668.259 821.146, 663.787 819.997, 663.212 828.258, 657.577 836.519, 651.942 844.781, 646.308 853.042, 640.673 861.304, 635.038 869.565, 629.404 877.826, 623.769 886.088, 618.134 894.349, 612.500 902.610, 606.865 910.872, 601.230 919.133, 595.596 927.395, 589.961 935.656, 584.326 943.917, 578.691 953.479, 572.170 " />
            <path fill="none" stroke-width="3.0" stroke-linecap="butt" stroke-opacity="1.0" stroke="rgb(0, 0, 0)" stroke-linejoin="round" d=" M 1186.490, 613.445 1177.545, 617.917 1168.601, 622.389 1159.657, 626.861 1150.712, 631.333 1141.768, 635.805 1132.824, 640.277 1123.879, 644.749 1114.935, 649.221 1105.991, 653.693 1097.046, 658.165 1088.102, 662.637 1086.953, 663.212 1078.692, 657.577 1070.431, 651.942 1062.169, 646.307 1053.908, 640.672 1045.647, 635.037 1037.386, 629.402 1029.124, 623.767 1020.863, 618.133 1012.602, 612.498 1004.341, 606.863 996.080, 601.228 987.818, 595.593 979.557, 589.958 971.296, 584.323 963.035, 578.688 953.479, 572.170 943.949, 569.140 934.419, 566.111 924.889, 563.081 915.359, 560.051 905.829, 557.021 896.299, 553.992 886.769, 550.962 877.239, 547.932 867.709, 544.903 858.179, 541.873 848.649, 538.843 839.119, 535.813 829.589, 532.784 819.999, 529.735 811.055, 534.207 802.110, 538.679 793.166, 543.151 784.222, 547.623 775.278, 552.095 766.333, 556.567 757.389, 561.040 748.445, 565.512 739.500, 569.984 730.556, 574.456 721.612, 578.928 720.463, 579.502 " />
            <path fill="none" stroke-width="3.0" stroke-linecap="butt" stroke-opacity="1.0" stroke="rgb(0, 0, 0)" stroke-linejoin="round" d=" M 1115.496, 450.596 1107.094, 445.172 1104.164, 443.280 1095.762, 437.856 1087.361, 432.432 1078.960, 427.008 1070.559, 421.583 1062.158, 416.159 1053.757, 410.735 1045.356, 405.311 1036.954, 399.887 1028.553, 394.463 1020.152, 389.039 1011.751, 383.615 1003.350, 378.191 994.949, 372.766 986.548, 367.342 978.147, 361.918 969.745, 356.494 961.344, 351.070 953.477, 345.990 945.075, 351.414 936.674, 356.839 928.273, 362.263 919.872, 367.687 911.471, 373.111 903.070, 378.535 894.669, 383.959 886.267, 389.383 877.866, 394.807 869.465, 400.231 861.064, 405.655 852.663, 411.080 844.262, 416.504 835.861, 421.928 827.460, 427.352 819.058, 432.776 810.657, 438.200 802.786, 443.282 794.385, 448.706 791.457, 450.596 " />
            <path fill="none" stroke-width="3.0" stroke-linecap="butt" stroke-opacity="1.0" stroke="rgb(0, 0, 0)" stroke-linejoin="round" d=" M 1387.309, 531.606 1377.725, 528.750 1368.142, 525.893 1358.558, 523.037 1348.975, 520.181 1339.392, 517.325 1329.808, 514.469 1320.225, 511.612 1310.641, 508.756 1301.058, 505.900 1291.474, 503.044 1281.891, 500.188 1272.308, 497.332 1262.724, 494.475 1253.141, 491.619 1243.557, 488.763 1233.974, 485.907 1224.390, 483.051 1214.807, 480.194 1205.224, 477.338 1195.640, 474.482 1186.057, 471.626 1176.473, 468.770 1166.890, 465.914 1157.306, 463.057 1147.723, 460.201 1138.140, 457.345 1128.556, 454.489 1118.973, 451.633 1115.496, 450.596 " />
            <path fill="none" stroke-width="3.0" stroke-linecap="butt" stroke-opacity="1.0" stroke="rgb(0, 0, 0)" stroke-linejoin="round" d=" M 791.457, 450.596 781.874, 453.452 772.291, 456.309 762.707, 459.165 753.124, 462.021 743.540, 464.877 733.957, 467.733 724.373, 470.590 714.790, 473.446 705.207, 476.302 695.623, 479.158 686.040, 482.014 676.456, 484.871 666.873, 487.727 657.289, 490.583 647.706, 493.439 638.123, 496.295 628.539, 499.151 618.956, 502.008 609.372, 504.864 599.789, 507.720 590.205, 510.576 580.622, 513.432 571.039, 516.289 561.455, 519.145 551.872, 522.001 542.288, 524.857 532.705, 527.713 523.121, 530.570 519.644, 531.606 " />
        </g>
    </g>
</svg>
